<?xml version="1.0" encoding="utf-8"?>
<!-- Generator: Adobe Illustrator 23.1.1, SVG Export Plug-In . SVG Version: 6.00 Build 0)  -->
<svg version="1.1" id="Layer_1" xmlns="http://www.w3.org/2000/svg" xmlns:xlink="http://www.w3.org/1999/xlink" x="0px" y="0px"
	 viewBox="0 0 1080 1080" style="enable-background:new 0 0 1080 1080;" xml:space="preserve">
<style type="text/css">
	.st0{fill:none;stroke:#FFFFFF;stroke-width:30;stroke-miterlimit:10;}
	.st1{fill:#FFFFFF;}
	.st2{fill-rule:evenodd;clip-rule:evenodd;fill:#FFFFFF;}
</style>
<rect x="48.1" y="48.1" class="st0" width="984.8" height="984.8"/>
<g>
	<g>
		<path class="st1" d="M269.4,419.3l98.5,180.3c8.9,16.2,8.6,35-0.9,51c-9.5,16-25.8,25.3-44.3,25.3H125.7
			c-18.6,0-34.9-9.3-44.3-25.3c-9.4-15.9-9.8-34.7-0.9-51l98.5-180.3c9.2-16.9,26-26.9,45.2-26.9S260.1,402.4,269.4,419.3
			L269.4,419.3z M349.4,609.7L251,429.3c-5.6-10.2-15.3-15.9-26.9-15.9c-11.6,0-21.3,5.7-26.9,15.9L98.8,609.7
			c-5.4,9.9-5.2,20.6,0.6,30.3c5.7,9.7,15.1,14.9,26.3,14.9h196.9c11.2,0,20.6-5.3,26.3-14.9C354.6,630.3,354.8,619.6,349.4,609.7
			L349.4,609.7z"/>
		<path class="st2" d="M210.7,470.5h26.9c2,0,3.7,1.7,3.7,3.7v48.5l-7.2,57c-0.2,1.2-1.2,2.1-2.3,2.1h-15.1c-1.2,0-2.2-0.9-2.3-2.1
			l-7.2-57v-48.5C207,472.1,208.6,470.5,210.7,470.5L210.7,470.5z"/>
		<path class="st2" d="M224.1,597.5c9.5,0,17.3,7.7,17.3,17.3c0,9.5-7.7,17.3-17.3,17.3c-9.5,0-17.3-7.7-17.3-17.3
			C206.9,605.3,214.6,597.5,224.1,597.5z"/>
	</g>
	<path class="st1" d="M999.3,648.8C1002.5,656.3,995.4,641.7,999.3,648.8c-6.6-15.6-18-28.6-31.9-38.1c-6.9-4.8-14.3-8.7-21.7-12
		c-14.9-6.6-30-10.9-44.8-14.7l-0.3-0.1c-1.6-0.4-3.3-0.6-5-0.6c-12.2-0.2-22.2,9.6-22.4,21.8c-0.2,12.2,9.6,22.2,21.8,22.4
		c14,0.2,27.6,0.9,40.4,3.2c12.8,2.3,23.9,7.5,34.7,13.6c25.5,14.5,35.5,66.1,34.8,72.7C1012.3,700,1009.3,667,999.3,648.8z"/>
	<path class="st1" d="M883.8,700.3c-19.6-3.6-40.3-1.8-59.9,5.1c-29.5,10.4-51.8,30.7-61.1,54.2l-24.8-1.4c-0.2,0-0.4,0-0.5,0
		c-10.9-0.3-25.4-7.3-37.5-19.1c-5.7-5.6-10.9-12.3-14.9-19.9c-1.7-3.2-3.3-6.9-4.6-10.8c-6.3-18.8-6.8-45.5,14.6-78.5l16.9-25.3
		l36.2-54.4L895.1,330c0.1-0.2,0.2-0.3,0.3-0.5c18.4-29.4,26.4-50.9,19-87.2c-2.4-11.9-14-19.5-25.9-17.1
		c-11.9,2.4-19.5,14-17.1,25.9c4.3,20.8,1.8,31.1-13,54.8L744.1,477.4c-5-35.3-14.3-69.8-27.8-103.1c-3.4-8.4-7-16.6-10.9-24.7
		c-21.3-44.5-49.9-84.8-85.3-120.2c-2.9-2.9-6.8-4.5-10.9-4.5c-4.1,0-8,1.6-10.9,4.5c-6,6-6,15.8,0,21.8
		c44.5,44.5,76.6,96.9,96.1,152.7c13,37.1,20.4,75.7,22.4,114.5l-58.2,87.3c0,0.1-0.1,0.1-0.1,0.2c-39.6,60.8-24.6,109.9-12.2,133.7
		c2.8,5.3,5.9,10.3,9.4,15.1c-16,25.6-35.1,49.8-57.3,72c-2.9,2.9-4.5,6.8-4.5,10.9c0,4.1,1.6,8,4.5,10.9c2.9,2.9,6.8,4.5,10.9,4.5
		s8-1.6,10.9-4.5c21.7-21.7,40.9-45.3,57.4-70.6c17.6,14.5,38.4,23.6,58.4,24.2l91.3,5.1c0.4,0,0.8,0,1.2,0c0.9,0,1.7-0.1,2.5-0.2
		c3.8,0.4,7.6,1.4,9.8,3.8c2.9,3.2,4.2,10,3.6,18.3c-1,12.1,8,22.7,20,23.7c0.6,0.1,1.2,0.1,1.9,0.1c11.3,0,20.9-8.7,21.8-20.1
		c1.8-21.2-3.4-39.1-15-51.7c-7.6-8.3-21.8-18.1-46.4-18.1c-0.7,0-1.5,0-2.2,0.1l-11.5-0.6c6.5-6.4,15.5-12.1,25.6-15.7
		c10-3.5,44.8-12.9,72,15.6c8.4,8.8,22.2,9.1,31,0.7c8.8-8.4,9.1-22.2,0.7-31C926.3,715.4,906.1,704.4,883.8,700.3z"/>
	<path class="st1" d="M591.8,406c-17.8-43.8-43.9-83.2-77.7-116.9c-2.9-2.9-6.8-4.5-10.9-4.5c-4.1,0-8,1.6-10.9,4.5
		c-2.9,2.9-4.5,6.8-4.5,10.9s1.6,8,4.5,10.9c125.7,125.7,125.7,330.4,0,456.1c-6,6-6,15.8,0,21.8c2.9,2.9,6.8,4.5,10.9,4.5
		c4.1,0,8-1.6,10.9-4.5c33.7-33.7,59.9-73.1,77.7-116.9c17.2-42.3,25.9-87.1,25.9-132.9C617.7,493,609,448.3,591.8,406z"/>
	<path class="st1" d="M392.3,351.5c-4.1,0-8,1.6-10.9,4.5c-6,6-6,15.8,0,21.8c88.9,88.9,88.9,233.4,0,322.3c-6,6-6,15.8,0,21.8
		c2.9,2.9,6.8,4.5,10.9,4.5c4.1,0,8-1.6,10.9-4.5C452.1,672.9,479,608,479,538.9c0-69.1-26.9-134-75.8-182.9
		C400.3,353.1,396.4,351.5,392.3,351.5z"/>
</g>
</svg>
