<?xml version="1.0" encoding="utf-8"?>
<!-- Generator: Adobe Illustrator 23.1.1, SVG Export Plug-In . SVG Version: 6.00 Build 0)  -->
<svg version="1.1" id="Layer_1" xmlns="http://www.w3.org/2000/svg" xmlns:xlink="http://www.w3.org/1999/xlink" x="0px" y="0px"
	 viewBox="0 0 1080 1080" style="enable-background:new 0 0 1080 1080;" xml:space="preserve">
<style type="text/css">
	.st0{fill:none;stroke:#FFFFFF;stroke-width:30;stroke-miterlimit:10;}
	.st1{fill:#FFFFFF;stroke:#FFFFFF;stroke-width:14;stroke-miterlimit:10;}
	.st2{stroke:#000000;stroke-miterlimit:10;}
	.st3{fill:none;stroke:#000000;stroke-width:14;stroke-miterlimit:10;}
</style>
<rect x="47.4" y="47.4" class="st0" width="984.8" height="984.8"/>
<g>
	<path class="st1" d="M343.6,161.4c54.2,0,103.5,10.4,139.2,27.3c37.1,17.5,60,42.1,60,69.8c0,0.5,0,1,0,1.5v71.5
		c36.6-18.4,78-28.8,121.7-28.8c74.9,0,142.7,30.4,191.8,79.4c49.1,49.1,79.4,116.9,79.4,191.8s-30.4,142.7-79.4,191.8
		c-49.1,49.1-116.9,79.4-191.8,79.4c-23,0-44.8-2.7-65.8-7.9c-19.3-4.8-37.9-11.8-55.9-20.9v7.1l0,0v0.1c0,26.9-22.9,51.1-59.8,68.4
		c-35.6,16.6-84.6,27-138.7,27.1h-0.6l0,0c-54.2,0-103.5-10.4-139.2-27.3c-37.1-17.5-60-42.1-60-69.8l0,0L144.4,260c0-0.5,0-1,0-1.5
		c0-27.7,22.9-52.3,60-69.8C240.1,171.8,289.3,161.4,343.6,161.4L343.6,161.4z M611.2,702.4l3.5,6.6l-6.6,3.5l-3.5-6.6L611.2,702.4z
		 M769.7,617.9l3.5,6.6l-6.6,3.5l-3.5-6.6L769.7,617.9z M743.3,632l3.5,6.6l-6.6,3.5l-3.5-6.6L743.3,632z M716.9,646l3.5,6.6
		l-6.6,3.5l-3.5-6.6L716.9,646z M690.5,660.1l3.5,6.6l-6.6,3.5l-3.5-6.6L690.5,660.1z M664,674.2l3.5,6.6l-6.6,3.5l-3.5-6.6
		L664,674.2z M637.6,688.3l3.5,6.6l-6.6,3.5l-3.5-6.6L637.6,688.3z M618.7,437.9l-3.5,6.6l-6.6-3.5l3.5-6.6L618.7,437.9z
		 M777.2,522.4l-3.5,6.6l-6.6-3.5l3.5-6.6L777.2,522.4z M750.8,508.3l-3.5,6.6l-6.6-3.5l3.5-6.6L750.8,508.3z M724.4,494.3l-3.5,6.6
		l-6.6-3.5l3.5-6.6L724.4,494.3z M697.9,480.2l-3.5,6.6l-6.6-3.5l3.5-6.6L697.9,480.2z M671.5,466.1l-3.5,6.6l-6.6-3.5l3.5-6.6
		L671.5,466.1z M645.1,452l-3.5,6.6l-6.6-3.5l3.5-6.6L645.1,452z M571.9,446.9l221.3,118.2c2.9,1.6,4,5.2,2.5,8.1
		c-0.6,1.1-1.4,1.9-2.4,2.4l0,0L571.5,695.5c-2.9,1.6-6.5,0.5-8.1-2.4c-0.5-0.9-0.7-1.9-0.7-2.8l0,0V451.9c0-3.3,2.7-6,6-6
		C569.8,446,571,446.3,571.9,446.9L571.9,446.9z M777.8,570.5L574.6,461.9v218.3L777.8,570.5z M533.8,336.1h-3V292
		c-10.3,13.9-26.9,26.2-48.1,36.2c-35.7,16.8-85,27.3-139.2,27.3S240,345.1,204.3,328.2c-21.2-10-37.8-22.3-48.1-36.2l0.1,529.8l0,0
		c0,22.6,20.3,43.5,53.2,59c34.2,16.1,81.6,26.1,134.1,26.1l0,0h0.6c52.3-0.1,99.5-10.1,133.6-26c32.7-15.3,52.9-35.7,52.9-57.6
		v-0.1l0,0V817c-39.4,8-65.7,11-91.9,14c-28.4,3.2-56.9,6.4-102.4,16.2c-3.2,0.7-6.4-1.4-7.1-4.6c-0.5-2.5,0.5-4.9,2.5-6.2
		l120.3-93.7c-18.9-23.7-33.2-49.5-42.9-76.4c-10.8-29.9-16.1-61.1-16.1-92.5c0-74.9,30.4-142.7,79.4-191.8
		C490.8,364,511.4,348.5,533.8,336.1L533.8,336.1z M420.6,662.2c10,27.5,24.8,53.7,44.6,77.5c0.1,0.1,0.1,0.2,0.2,0.3
		c2,2.6,1.6,6.3-1,8.4L359,830.5c32.2-6.1,55.4-8.7,78.6-11.4c28.4-3.2,56.9-6.4,102.4-16.2l0,0c1.3-0.3,2.7-0.1,4,0.6
		c18.4,9.7,37.6,17.1,57.6,22.1s40.8,7.6,62.9,7.6c71.6,0,136.4-29,183.3-75.9s75.9-111.7,75.9-183.3s-29-136.4-75.9-183.3
		S736,314.6,664.4,314.6s-136.4,29-183.3,75.9s-75.9,111.7-75.9,183.3C405.2,603.9,410.3,633.8,420.6,662.2L420.6,662.2z
		 M477.6,199.4c-34.2-16.1-81.6-26.1-134.1-26.1s-99.9,10-134.1,26.1c-32.9,15.5-53.2,36.4-53.2,59s20.3,43.5,53.2,59
		c34.2,16.1,81.6,26.1,134.1,26.1s99.9-10,134.1-26.1c32.9-15.5,53.2-36.4,53.2-59S510.5,214.9,477.6,199.4z M343.5,231
		c13.4,0,25.7,2.6,34.7,6.9c10.4,4.9,16.8,12.1,16.8,20.6c0,8.4-6.4,15.7-16.8,20.6c-9,4.2-21.3,6.9-34.7,6.9s-25.7-2.6-34.7-6.9
		c-10.4-4.9-16.8-12.1-16.8-20.6c0-8.4,6.4-15.7,16.8-20.6C317.8,233.6,330.1,231,343.5,231z M373.1,248.7
		c-7.5-3.5-17.9-5.7-29.6-5.7s-22.2,2.2-29.6,5.7c-6.1,2.9-9.9,6.4-9.9,9.8c0,3.4,3.8,6.9,9.9,9.8c7.5,3.5,17.9,5.7,29.6,5.7
		s22.2-2.2,29.6-5.7c6.1-2.9,9.9-6.4,9.9-9.8S379.2,251.6,373.1,248.7z M343.5,200c13.4,0,25.7,2.6,34.7,6.9
		c10.4,4.9,16.8,12.1,16.8,20.6c0,8.4-6.4,15.7-16.8,20.6c-9,4.2-21.3,6.9-34.7,6.9s-25.7-2.6-34.7-6.9
		c-10.4-4.9-16.8-12.1-16.8-20.6c0-8.4,6.4-15.7,16.8-20.6C317.8,202.6,330.1,200,343.5,200z M373.1,217.7
		c-7.5-3.5-17.9-5.7-29.6-5.7s-22.2,2.2-29.6,5.7c-6.1,2.9-9.9,6.4-9.9,9.8c0,3.4,3.8,6.9,9.9,9.8c7.5,3.5,17.9,5.7,29.6,5.7
		s22.2-2.2,29.6-5.7c6.1-2.9,9.9-6.4,9.9-9.8S379.2,220.6,373.1,217.7z"/>
</g>
<line class="st1" x1="395" y1="227.5" x2="395" y2="258.5"/>
<line class="st1" x1="292" y1="227.5" x2="292" y2="258.5"/>
<path class="st1" d="M182.6,371.1c0,0,0,416.6,0,433.9s27.7,28.2,27.7,28.2v-444L182.6,371.1z"/>
</svg>
