<?xml version="1.0" encoding="utf-8"?>
<!-- Generator: Adobe Illustrator 23.1.1, SVG Export Plug-In . SVG Version: 6.00 Build 0)  -->
<svg version="1.1" id="Layer_1" xmlns="http://www.w3.org/2000/svg" xmlns:xlink="http://www.w3.org/1999/xlink" x="0px" y="0px"
	 viewBox="0 0 1080 1080" style="enable-background:new 0 0 1080 1080;" xml:space="preserve">
<style type="text/css">
	.st0{fill:none;stroke:#FFFFFF;stroke-width:30;stroke-miterlimit:10;}
	.st1{fill:#FFFFFF;stroke:#FFFFFF;stroke-width:4;stroke-miterlimit:10;}
	.st2{fill:#FFFFFF;stroke:#FFFFFF;stroke-miterlimit:10;}
</style>
<rect x="47.4" y="47.4" class="st0" width="984.8" height="984.8"/>
<g>
	<g>
		<g>
			<path class="st1" d="M516,435c3.1-1.2,4.6-4.7,3.5-7.7c-1.2-3.1-4.7-4.6-7.7-3.5c-29.9,11.4-50,40.6-50,72.6v68
				c0,14.2,3.9,28.1,11.2,40.2c1.1,1.9,3.1,2.9,5.1,2.9c1.1,0,2.1-0.3,3.1-0.9c2.8-1.7,3.7-5.4,2-8.2c-6.2-10.2-9.5-22-9.5-34v-68
				C473.7,469.3,490.7,444.6,516,435z"/>
		</g>
		<g>
			<path class="st1" d="M498.7,630.6c12.2,7.6,26.3,11.6,40.8,11.6c15.6,0,30.6-4.6,43.5-13.3c2.7-1.9,3.5-5.6,1.6-8.3
				s-5.6-3.5-8.3-1.6c-21,14.2-49.8,14.8-71.3,1.4c-2.8-1.7-6.5-0.9-8.3,1.9C495,625.2,495.9,628.9,498.7,630.6z"/>
		</g>
		<g>
			<path class="st1" d="M611.3,514.2c-3.3,0-6,2.7-6,6v53.2c0,10.9-2.7,21.8-7.9,31.3c-1.6,2.9-0.5,6.6,2.4,8.1
				c0.9,0.5,1.9,0.7,2.9,0.7c2.1,0,4.2-1.1,5.3-3.1c6.1-11.3,9.4-24.1,9.4-37.1v-53.1C617.3,516.9,614.6,514.2,611.3,514.2z"/>
		</g>
		<g>
			<path class="st1" d="M539.5,418.6c-3.3,0-6,2.7-6,6s2.7,6,6,6c36.3,0,65.8,29.5,65.8,65.8c0,3.3,2.7,6,6,6s6-2.7,6-6
				C617.3,453.5,582.4,418.6,539.5,418.6z"/>
		</g>
		<g>
			<path class="st1" d="M492.6,570.4c3.3,0,6-2.7,6-6v-68c0-22.6,18.4-41,41-41c15,0,28.8,8.2,36,21.5c1.6,2.9,5.2,4,8.1,2.4
				c2.9-1.6,4-5.2,2.4-8.1c-9.3-17.1-27.1-27.7-46.6-27.7c-29.2,0-53,23.8-53,53v68C486.6,567.7,489.2,570.4,492.6,570.4z"/>
		</g>
		<g>
			<path class="st1" d="M504.3,596c-2.2,2.5-1.9,6.3,0.6,8.5c9.6,8.3,21.9,12.9,34.6,12.9c20.5,0,39.4-12.1,48.1-30.7
				c1.4-3,0.1-6.6-2.9-8s-6.6-0.1-8,2.9c-6.7,14.4-21.3,23.8-37.2,23.8c-9.8,0-19.3-3.5-26.7-9.9C510.3,593.3,506.5,593.5,504.3,596
				z"/>
		</g>
		<g>
			<path class="st1" d="M592.5,556.9v-60.5c0-3.3-2.7-6-6-6s-6,2.7-6,6v60.5c0,3.3,2.7,6,6,6S592.5,560.2,592.5,556.9z"/>
		</g>
		<g>
			<path class="st1" d="M517.4,490.4c-3.3,0-6,2.7-6,6v68c0,15.5,12.6,28.2,28.2,28.2c15.5,0,28.2-12.6,28.2-28.2v-68
				c0-15.5-12.6-28.2-28.2-28.2c-3.3,0-6,2.7-6,6s2.7,6,6,6c8.9,0,16.2,7.2,16.2,16.2v68c0,8.9-7.2,16.2-16.2,16.2
				c-8.9,0-16.2-7.2-16.2-16.2v-68C523.4,493.1,520.7,490.4,517.4,490.4z"/>
		</g>
		<g>
			<path class="st1" d="M374.8,483.5c3.1,1,6.5-0.7,7.5-3.9C403.1,413.1,461.2,367,529.6,361l-4.4,4.4c-2.3,2.3-2.3,6.2,0,8.5
				s6.1,2.3,8.5,0l15.2-15.3c2.4-2.3,2.5-6.2,0.1-8.6l-15.3-15.3c-2.3-2.3-6.1-2.3-8.5,0c-2.3,2.3-2.3,6.1,0,8.5l5.6,5.6
				c-74.2,5.6-137.5,55.2-160,127.2C369.8,479.1,371.6,482.5,374.8,483.5z"/>
		</g>
		<g>
			<path class="st1" d="M716.5,570.1c-3.2-0.8-6.5,1.1-7.3,4.3c-18.5,69.3-78.6,119.1-149.1,125.5l4.4-4.4c2.3-2.3,2.3-6.1,0-8.5
				s-6.1-2.3-8.5,0l-14.8,14.9c-1.4,1.1-2.4,2.7-2.4,4.7c0,1.9,0.9,3.5,2.2,4.6l15,15c2.3,2.3,6.1,2.3,8.5,0c2.3-2.3,2.3-6.1,0-8.5
				l-5.7-5.7c76.5-5.9,142-59.6,162-134.6C721.6,574.2,719.7,570.9,716.5,570.1z"/>
		</g>
		<g>
			<path class="st1" d="M583.3,364.6c72.9,16.9,125.1,78.3,131,151.9l-4.5-4.5c-2.3-2.3-6.1-2.3-8.5,0c-2.3,2.3-2.3,6.2,0,8.5
				l15.4,15.3c2.3,2.3,6.1,2.3,8.5,0l15.3-15.3c2.3-2.3,2.3-6.1,0-8.5c-2.3-2.3-6.1-2.3-8.5,0l-5.6,5.6
				c-5.5-79.7-61.6-146.4-140.4-164.7c-3.2-0.7-6.4,1.3-7.2,4.5C578.1,360.6,580.1,363.9,583.3,364.6z"/>
		</g>
		<g>
			<path class="st1" d="M357.5,550l5.7-5.7c5.9,78.1,60.9,144.1,137.9,163c3.1,0.8,6.4-1.1,7.3-4.4c0.8-3.2-1.2-6.5-4.4-7.3
				c-71.2-17.5-122.3-78.1-128.6-150.1l4.4,4.4c2.3,2.3,6.1,2.3,8.5,0c2.3-2.3,2.3-6.1,0-8.5L373,526.2c-2.3-2.4-6.2-2.5-8.6-0.1
				L349,541.5c-2.3,2.3-2.3,6.1,0,8.5S355.1,552.3,357.5,550z"/>
		</g>
	</g>
	<path class="st2" d="M792,482.2v-296c0-43.3-35.2-78.4-78.4-78.4H377.4c-43.2,0-78.4,35.2-78.4,78.4v706.6
		c0,43.2,35.2,78.4,78.4,78.4h336.2c43.2,0,78.4-35.2,78.4-78.4v-88.5C792,804.3,792,599.4,792,482.2z M761.1,823v9.4H329.8V246.6
		h431.3v237.5C761.1,529,761.1,776,761.1,823z M377.4,138.7h336.2c26.2,0,47.5,21.3,47.5,47.5v29.5H329.8v-29.5
		C329.8,160,351.2,138.7,377.4,138.7z M713.6,940.4H377.4c-26.2,0-47.5-21.3-47.5-47.5v-29.5h431.3v29.5
		C761.1,919.1,739.8,940.4,713.6,940.4z"/>
	<circle class="st2" cx="545.1" cy="901.9" r="22.7"/>
	<path class="st2" d="M633.7,190.8H456.5c-6.6,0-12-5.4-12-12v-3.9c0-6.6,5.4-12,12-12h177.2c6.6,0,12,5.4,12,12v3.9
		C645.7,185.4,640.3,190.8,633.7,190.8z"/>
</g>
</svg>
