<?xml version="1.0" encoding="utf-8"?>
<!-- Generator: Adobe Illustrator 23.1.1, SVG Export Plug-In . SVG Version: 6.00 Build 0)  -->
<svg version="1.1" id="Layer_1" xmlns="http://www.w3.org/2000/svg" xmlns:xlink="http://www.w3.org/1999/xlink" x="0px" y="0px"
	 viewBox="0 0 1080 1080" style="enable-background:new 0 0 1080 1080;" xml:space="preserve">
<style type="text/css">
	.st0{fill:#F90606;stroke:#000000;stroke-miterlimit:10;}
	.st1{fill:#FFFFFF;}
	.st2{fill:none;stroke:#FFFFFF;stroke-width:30;stroke-miterlimit:10;}
</style>
<path class="st1" d="M850.6,832.7c-61.7,0-122.3-51.1-164.2-141.6c-2.5-5.6-1.1-12.3,3.5-16.3c18.8-16.2,21-44.5,4.8-63.3
	c-16.2-18.8-44.5-21-63.3-4.8c-5.7,4.9-10.1,11.2-12.8,18.3c-2,5.4-7.2,9-13,9.1H475.2c-5.8,0-11-3.6-13-9.1
	c-8.7-23.2-34.6-35-57.8-26.2c-23.2,8.7-35,34.6-26.2,57.8c2.6,7,7,13.3,12.7,18.2c4.6,4.1,6.1,10.7,3.5,16.3
	c-42,90.4-102.4,141.6-164.1,141.6c-12.7,0-25.4-2.1-37.4-6.3C117.6,800.6,88.3,693.7,108,517c8.9-79.3,26.7-145.5,51.7-191.2
	c28.5-52.2,67.1-79.9,111.5-79.9c93,0,144.7,16.7,167.3,53.7c5.1,7.9,13.9,12.7,23.4,12.6h157.3c9.4,0.1,18.3-4.7,23.3-12.6
	c22.8-37.2,74.3-53.7,167.3-53.7c44.5,0,83.2,27.6,111.5,79.9c25,46,43,112.1,51.7,191.2l0,0c19.6,176.6-9.8,283.5-84.9,309.4
	C876.1,830.5,863.4,832.7,850.6,832.7z M715.7,688.2c35.2,71,95,135.3,163.2,111.9c81.7-28,76.5-187.5,66.3-280
	c-8.3-75.8-25.2-138.2-48.5-181c-23.7-43.4-53-65.4-87.3-65.4c-81.2,0-126.7,12.8-143.6,40.4c-10.2,16.2-27.9,26-47.1,26H461.5
	c-19.1,0-36.9-9.8-47.1-26c-16.9-27.6-62.4-40.4-143.6-40.4c-34.3,0-63.6,22-87.3,65.4c-23.2,42.8-39.8,105.2-48.4,181
	c-10.2,92.6-15.4,252,66.3,280c68.2,23.3,128-41,163.2-111.9c-10.6-12.2-16.8-27.7-17.4-43.9c-1.9-40.1,29-74.2,69.1-76.1
	c27.9-1.3,54.1,13.4,67.4,38h112.7c19.1-35.4,63.2-48.6,98.6-29.6c35.4,19.1,48.6,63.2,29.6,98.6
	C722.2,679.8,719.2,684.2,715.7,688.2L715.7,688.2z"/>
<path class="st1" d="M510,568.8h-27.4c-11.6,0-20.9-9.4-20.9-20.9l0,0c0-11.6,9.4-20.9,20.9-20.9H510c11.6,0,21,9.4,21,20.9l0,0
	c0,11.5-9.3,20.9-20.9,20.9C510.1,568.8,510,568.8,510,568.8z"/>
<path class="st1" d="M601.9,568.8h-27.4c-11.6,0-20.9-9.4-20.9-20.9l0,0c0-11.6,9.4-20.9,20.9-20.9h27.4c11.6,0,20.9,9.4,20.9,20.9
	l0,0C622.9,559.4,613.5,568.7,601.9,568.8C601.9,568.8,601.9,568.8,601.9,568.8z"/>
<path class="st1" d="M422,722c-40.2,0-72.8-32.5-72.8-72.7c0-40.2,32.5-72.8,72.7-72.8c38.8,0,70.8,30.4,72.7,69.2l0,0
	c1.8,40.1-29.1,74.1-69.1,76.2C424.4,722,423.2,722,422,722z M422,604.3h-2.2c-25.4,0.6-45.5,21.7-44.9,47.2s21.7,45.5,47.2,44.9
	s45.5-21.7,44.9-47.2C466.3,624.7,446.6,604.9,422,604.3z"/>
<path class="st1" d="M662.5,722c-40.2,0-72.8-32.5-72.8-72.7s32.5-72.8,72.7-72.8c38.8,0,70.8,30.4,72.7,69.2l0,0
	c1.8,40.1-29.1,74.1-69.1,76.1C664.8,722,663.7,722,662.5,722z M662.5,604.3h-2.2c-25.4,0.6-45.5,21.7-44.9,47.2
	s21.7,45.5,47.2,44.9s45.5-21.7,44.9-47.2C706.9,624.7,687.1,604.9,662.5,604.3z"/>
<path class="st1" d="M327,573.6h-48c-12.6,0-22.8-10.2-22.8-22.8c0,0,0,0,0,0v-31.5h-31.5c-12.6,0-22.8-10.2-22.8-22.7c0,0,0,0,0,0
	v-48c0-12.6,10.2-22.8,22.7-22.8c0,0,0,0,0,0h31.5v-33c0-12.6,10.2-22.8,22.8-22.8c0,0,0,0,0,0h48c12.6,0,22.8,10.2,22.8,22.7
	c0,0,0,0,0,0v33h31.5c12.6,0,22.7,10.2,22.7,22.8v48c0,12.6-10.2,22.8-22.8,22.8c0,0,0,0,0,0h-31.5v31.5
	C349.5,563.2,339.4,573.6,327,573.6z M284,545.8h37.8v-31.5c0-12.6,10.2-22.8,22.7-22.8c0,0,0,0,0,0h31.5v-37.8h-31.5
	c-12.6,0-22.8-10.2-22.8-22.7c0,0,0,0,0,0v-33H284v33c0,12.6-10.2,22.8-22.7,22.8c0,0,0,0,0,0h-31.5v37.8h31.5
	c12.6,0,22.8,10.2,22.8,22.7c0,0,0,0,0,0V545.8z"/>
<circle class="st1" cx="789.2" cy="415" r="33"/>
<circle class="st1" cx="789.2" cy="523" r="33"/>
<circle class="st1" cx="843.2" cy="468.9" r="33"/>
<circle class="st1" cx="735.1" cy="468.9" r="33"/>
<rect x="47.4" y="47.4" class="st2" width="984.8" height="984.8"/>
</svg>
