<?xml version="1.0" encoding="utf-8"?>
<!-- Generator: Adobe Illustrator 23.1.1, SVG Export Plug-In . SVG Version: 6.00 Build 0)  -->
<svg version="1.1" id="Layer_1" xmlns="http://www.w3.org/2000/svg" xmlns:xlink="http://www.w3.org/1999/xlink" x="0px" y="0px"
	 viewBox="0 0 1080 1080" style="enable-background:new 0 0 1080 1080;" xml:space="preserve">
<style type="text/css">
	.st0{fill:none;stroke:#FFFFFF;stroke-width:30;stroke-miterlimit:10;}
	.st1{fill:#FFFFFF;}
</style>
<rect x="47.4" y="47.4" class="st0" width="984.8" height="984.8"/>
<g>
	<path class="st1" d="M157.3,467.2h122.4c-67.3,37.4-109.1,108.3-109.1,185.3v13.2H197v-13.2c0-99.2,78.1-180.8,177.2-185.1
		c15.1,0.9,29.6,6.4,41.6,15.6c-101.3,15.8-179.1,103.6-179.1,209.3v39.7h26.5v-39.7c0.1-101.4,81.7-183.9,183.1-185.3
		c5.3,3,10.9,5.5,16.7,7.5c-73.5,35.3-120.3,109.5-120.3,191h26.5c0.1-81.2,52.9-152.9,130.4-177c-14.9,12.2-28.1,26.4-39.1,42.2
		c-25,35.6-38.4,78.1-38.3,121.6v39.7h26.5v-39.7c-0.1-38.1,11.6-75.2,33.5-106.4c9.3-13.2,20.2-25.2,32.6-35.6
		c-17.3,31.3-26.3,66.5-26.4,102.2V679h26.5v-26.5c0-33.6,9.2-66.5,26.5-95.4c17.3,28.8,26.4,61.8,26.5,95.4v39.7h26.5v-39.7
		c0-35.7-9.1-70.9-26.4-102.2c12.5,10.5,23.5,22.6,32.8,35.9c21.7,31.1,33.4,68.1,33.3,106v39.7h26.5v-39.7
		c0-67.6-32.3-131.2-86.9-171.1c94.4,9.8,166.2,89.4,166.3,184.3h26.5C766.1,617,711.2,538,628.3,507c1.8-0.1,3.7-0.1,5.5-0.1
		c102.3,0.1,185.2,83,185.3,185.3v39.7h26.5v-39.7c-0.1-116.9-94.9-211.7-211.8-211.8c-0.9,0-1.9,0-2.8,0
		c95.1-38.1,203,8.2,241,103.2c8.8,21.9,13.3,45.2,13.3,68.8v39.7h26.5v-39.7c0-100.6-70.5-185-164.7-206.5
		c5.9-5,10.4-11.4,13.3-18.5h132.9c23.5,0,42.6-19.1,42.6-42.6c0-20-13.9-37.3-33.4-41.6l-215.3-47.8c-0.9-0.2-1.9-0.3-2.9-0.3
		H157.3c-7.3,0-13.2,5.9-13.2,13.2c0,0,0,0,0,0V454C144.1,461.3,150,467.2,157.3,467.2C157.3,467.2,157.3,467.2,157.3,467.2z
		 M170.5,321.6H683l213.8,47.5c8.7,1.9,14.2,10.6,12.3,19.3c-1.6,7.4-8.2,12.6-15.8,12.6H763.2c-4.1-23-24.1-39.7-47.4-39.7H512.4
		v26.5h203.3c12,0,21.7,9.7,21.7,21.7c0,11.1-8.3,20.3-19.3,21.6l-57.5,6.4c-23.1,2.6-44.1,14.6-58.1,33.2
		c-10.9,14.5-28,23-46.2,23.1h-59.4c-20.5,0.1-40.1-8.1-54.6-22.6c-19.4-19.5-45.8-30.4-73.3-30.4H170.5V321.6z"/>
	<rect x="170.5" y="692.2" class="st1" width="26.5" height="92.7"/>
	<rect x="236.7" y="758.4" class="st1" width="26.5" height="26.5"/>
	<rect x="342.6" y="731.9" class="st1" width="26.5" height="52.9"/>
	<rect x="422" y="758.4" class="st1" width="26.5" height="26.5"/>
	<rect x="488.2" y="705.5" class="st1" width="26.5" height="79.4"/>
	<rect x="567.6" y="718.7" class="st1" width="26.5" height="66.2"/>
	<rect x="633.8" y="758.4" class="st1" width="26.5" height="26.5"/>
	<rect x="739.7" y="731.9" class="st1" width="26.5" height="52.9"/>
	<rect x="819.1" y="758.4" class="st1" width="26.5" height="26.5"/>
	<rect x="885.3" y="718.7" class="st1" width="26.5" height="66.2"/>
</g>
</svg>
