<?xml version="1.0" encoding="utf-8"?>
<!-- Generator: Adobe Illustrator 23.1.1, SVG Export Plug-In . SVG Version: 6.00 Build 0)  -->
<svg version="1.1" id="Layer_1" xmlns="http://www.w3.org/2000/svg" xmlns:xlink="http://www.w3.org/1999/xlink" x="0px" y="0px"
	 viewBox="0 0 1080 1080" style="enable-background:new 0 0 1080 1080;" xml:space="preserve">
<style type="text/css">
	.st0{fill:none;stroke:#FFFFFF;stroke-width:30;stroke-miterlimit:10;}
	.st1{fill:#FFFFFF;}
</style>
<rect x="47.4" y="47.4" class="st0" width="984.8" height="984.8"/>
<g>
	<path class="st1" d="M808.4,910.9V142.5h-25.6v768.4h-51.2V782.8h25.6v-98.4c0-23.2-6.4-45.3-18-64.2c3.4-9,5.2-18.8,5.2-29.5
		c0-29.6-18.6-46.9-33.6-60.8c-7.9-7.3-15.3-14.2-19-21.7c-3.8-7.6-0.8-17.9,4.4-34.1c4.6-14.4,9.8-30.6,9.8-49.8
		c0-34.2-17.7-59.3-25.6-68.9v-1.5c0-81.2-66.1-147.3-147.3-147.3s-147.3,66.1-147.3,147.3v88c-13.7,7.7-38.4,27.9-38.4,72.1
		c0,26.5,14.4,48.6,32.7,66.3c-36,22.3-58.3,61.5-58.3,104.2v98.4h25.6v128.1h-51.2V142.5h-25.6v768.4H142.5v25.6h794v-25.6H808.4z
		 M706,910.9h-51.2V782.8H706V910.9z M731.6,757.2h-76.8v-73.8c0-12.8,7.1-24.3,18.5-30l-11.5-22.9c-20.1,10.1-32.7,30.4-32.7,52.9
		v227.5H449.9V708.5c0.2,0.5,0.5,1,0.7,1.5l4.7,14l13.2-6.6c47.4-23.7,56.3-57.9,57.9-84.3l14.7,18.4l43.5-72.5l63.5,9.1
		c10.4,1.5,20.4,4.6,29.7,9.3c33.2,16.6,53.8,49.9,53.8,87V757.2z M539.5,526.7c-42.4,0-76.8-34.5-76.8-76.8v-82.8l25.8-17.2
		C514,365,543,373,572.9,373h43.5v76.8C616.3,492.2,581.9,526.7,539.5,526.7z M539.5,552.3c8.9,0,17.4-1.2,25.6-3.4v12.6L538,606.8
		l-18.3-22.9c-3.5-7.1-8.1-12.9-12.9-18.2c2.9-5.5,4.6-11.4,5.6-17.1C521,550.9,530.1,552.3,539.5,552.3z M402.7,462l8.8-2.9V353.8
		c0-67.1,54.6-121.7,121.7-121.7s121.7,54.6,121.7,121.7v11.7l3.8,3.8c0.2,0.2,21.9,22.2,21.9,55c0,15.2-4.4,28.8-8.6,42
		c-5.9,18.5-11.5,36.1-2.9,53.4c5.8,11.6,15.3,20.5,24.5,29c13.6,12.7,25.4,23.6,25.4,42.1c0,1.4-0.3,2.6-0.4,4
		c-8.5-8-18.3-14.9-29.1-20.3c-11.8-5.9-24.5-9.9-37.6-11.7l-61-8.7v-15.6c30.6-17.7,51.2-50.8,51.2-88.6V347.4h-69.1
		c-27.7,0-54.5-8.1-77.5-23.5l-7.1-4.7L437,353.4v96.5c0,37.7,20.5,70.6,50.9,88.4c-0.6,7.6-2.4,15-7.1,20.2l-8.2,9.1l8.7,8.7
		c12.4,12.4,19.9,19.8,19.9,40.1c0,22.7,0,50.4-33,71.8c-9.4-14.4-24.1-25.1-37.5-34.7c-19.9-14.4-32-24-32-37.1
		c0-7.7,1.4-13.8,3.1-18.4c26.9,19.1,54.2,29.6,56.5,30.4l9-24c-26.2-9.8-94.2-45.2-94.2-90.5C373,473.1,401.6,462.4,402.7,462z
		 M347.4,684.4c0-24.8,9.6-48.1,25.9-65.7c1.3,25.7,23,41.6,42.3,55.6c2.9,2.1,5.8,4.2,8.7,6.4v76.7h-76.8
		C347.4,757.2,347.4,684.4,347.4,684.4z M373,782.8h51.2v128.1H373V782.8z"/>
	<path class="st1" d="M893.4,454.5c-44.9-44.9-44.9-118.1,0-163l-18.1-18.1c-54.9,54.9-54.9,144.3,0,199.2L893.4,454.5z"/>
	<path class="st1" d="M911.5,436.4l18.1-18.1c-12.1-12.1-18.8-28.2-18.8-45.3c0-17.1,6.7-33.2,18.8-45.3l-18.1-18.1
		c-16.9,16.9-26.3,39.4-26.3,63.4C885.3,397,894.6,419.5,911.5,436.4z"/>
	<path class="st1" d="M185.6,454.5l18.1,18.1c54.9-54.9,54.9-144.3,0-199.2l-18.1,18.1C230.5,336.5,230.5,409.6,185.6,454.5z"/>
	<path class="st1" d="M167.5,436.4c16.9-16.9,26.3-39.4,26.3-63.4c0-23.9-9.3-46.4-26.3-63.4l-18.1,18.1
		c12.1,12.1,18.8,28.2,18.8,45.3c0,17.1-6.7,33.2-18.8,45.3L167.5,436.4z"/>
	<path class="st1" d="M488.3,449.9c0,28.3,23,51.2,51.2,51.2s51.2-23,51.2-51.2v-25.6H488.3V449.9z M565.1,449.9
		c0,14.1-11.5,25.6-25.6,25.6s-25.6-11.5-25.6-25.6H565.1z"/>
</g>
</svg>
