<?xml version="1.0" encoding="utf-8"?>
<!-- Generator: Adobe Illustrator 23.1.1, SVG Export Plug-In . SVG Version: 6.00 Build 0)  -->
<svg version="1.1" id="Layer_1" xmlns="http://www.w3.org/2000/svg" xmlns:xlink="http://www.w3.org/1999/xlink" x="0px" y="0px"
	 viewBox="0 0 1080 1080" style="enable-background:new 0 0 1080 1080;" xml:space="preserve">
<style type="text/css">
	.st0{fill:none;stroke:#FFFFFF;stroke-width:30;stroke-miterlimit:10;}
	.st1{fill:#FFFFFF;}
</style>
<rect x="47.4" y="47.4" class="st0" width="984.8" height="984.8"/>
<g>
	<path class="st1" d="M476.8,856.6H401c-9.9,0-16.5,6.6-16.5,16.5c0,9.9,6.6,16.5,16.5,16.5h75.8c9.9,0,16.5-6.6,16.5-16.5
		S485.1,856.6,476.8,856.6z"/>
	<path class="st1" d="M923.7,203.7l-47.8-47.8c-14.8-14.8-42.9-14.8-57.7,0l-85.7,85.7v-31.3c0-36.3-29.7-65.9-65.9-65.9H209.8
		c-36.3,0-65.9,29.7-65.9,65.9v615l0,0l0,0v44.5c0,36.3,29.7,65.9,65.9,65.9h456.7c36.3,0,65.9-29.7,65.9-65.9V452.6l191.3-191.3
		c6.6-8.2,11.5-18.1,11.5-28C935.2,221.8,930.2,211.9,923.7,203.7z M699.4,869.7c0,18.1-14.8,33-33,33H209.8c-18.1,0-33-14.8-33-33
		v-28h522.6V869.7z M699.4,808.7H176.8V210.3c0-18.1,14.8-33,33-33h456.7c18.1,0,33,14.8,33,33v64.3L379.6,594.4
		c-1.6,1.6-3.3,3.3-3.3,6.6l-39.6,122c-1.6,6.6,0,13.2,3.3,16.5c6.6,4.9,11.5,6.6,16.5,3.3l122-39.6c3.3,0,4.9-1.6,6.6-3.3
		l214.3-214.3V808.7z M900.6,238.3L900.6,238.3L463.7,673.5l-87.4,28l28-87.4l436.9-435.3c3.3-3.3,6.6-3.3,11.5,0l47.8,47.8
		C902.2,230,903.9,233.3,900.6,238.3z"/>
</g>
</svg>
