<?xml version="1.0" encoding="utf-8"?>
<!-- Generator: Adobe Illustrator 23.1.1, SVG Export Plug-In . SVG Version: 6.00 Build 0)  -->
<svg version="1.1" id="Layer_1" xmlns="http://www.w3.org/2000/svg" xmlns:xlink="http://www.w3.org/1999/xlink" x="0px" y="0px"
	 viewBox="0 0 1080 1080" style="enable-background:new 0 0 1080 1080;" xml:space="preserve">
<style type="text/css">
	.st0{fill:none;stroke:#FFFFFF;stroke-width:30;stroke-miterlimit:10;}
	.st1{fill:#FFFFFF;}
</style>
<rect x="47.4" y="47.4" class="st0" width="984.8" height="984.8"/>
<g>
	<path class="st1" d="M555.5,178.3l370,293.3c18.8,14.9,7.9,45-15.7,45H883v365.5c0,14-11.3,25.3-25.3,25.3H221.3
		c-14,0-25.3-11.3-25.3-25.3V516.7h-26.7c-24.8,0-34.5-32-14.5-46l97.8-77.6V199.6c0-14,11.3-25.3,25.3-25.3h133.8
		c14,0,25.3,11.3,25.3,25.3v47.3l86.8-68.8C533.3,170.6,546.5,171,555.5,178.3L555.5,178.3z M564.8,692.5c0,33.3-50.6,33.3-50.6,0
		V575.1c0-33.3,50.6-33.3,50.6,0V692.5z M587.8,644.1c-23.4-23.5,12.4-59.1,35.8-35.6c23.2,23.2,34.8,53.6,34.8,84
		s-11.6,60.8-34.8,84c-23.2,23.3-53.7,34.9-84.1,34.9c-65.7,0-118.9-53.2-118.9-118.9c0-30.4,11.6-60.9,34.8-84.1
		c23.5-23.5,59.3,12.2,35.8,35.8c-13.3,13.3-20,30.9-20,48.3c0,37.7,30.6,68.4,68.4,68.4s68.4-30.6,68.4-68.4
		C607.9,675,601.2,657.4,587.8,644.1L587.8,644.1z M275.8,371.6l140-115v-61.7h-140 M913,490.3L539.6,199.7
		c-124.5,96.9-249.1,193.7-373.5,290.6 M856.5,516.7H221.5v367.5h635.1V516.7L856.5,516.7z"/>
</g>
</svg>
