<?xml version="1.0" encoding="utf-8"?>
<!-- Generator: Adobe Illustrator 24.1.3, SVG Export Plug-In . SVG Version: 6.00 Build 0)  -->
<svg version="1.1" id="Layer_1" inkscape:version="0.91 r13725" sodipodi:docname="AI logo scaleable colour corrected.svg"
  xmlns:cc="http://creativecommons.org/ns#" xmlns:dc="http://purl.org/dc/elements/1.1/"
  xmlns:inkscape="http://www.inkscape.org/namespaces/inkscape" xmlns:rdf="http://www.w3.org/1999/02/22-rdf-syntax-ns#"
  xmlns:sodipodi="http://sodipodi.sourceforge.net/DTD/sodipodi-0.dtd" xmlns:svg="http://www.w3.org/2000/svg"
  xmlns="http://www.w3.org/2000/svg" xmlns:xlink="http://www.w3.org/1999/xlink" x="0px" y="0px" viewBox="0 0 282 83"
  style="enable-background:new 0 0 282 83;" xml:space="preserve">
  <style type="text/css">
    .st0 {
      fill: #58595B;
    }

    .st1 {
      fill: #F7941E;
    }

    .st2 {
      fill: #BE1F24;
    }

    .st3 {
      fill: #F15A22;
    }

    .st4 {
      opacity: 0.968;
      fill: #CCCCCC;
      fill-opacity: 0.9686;
      enable-background: new;
    }

    .st5 {
      opacity: 0.968;
      fill: #CCCCCC;
      enable-background: new;
    }

    .st6 {
      fill: #58595B;
      fill-opacity: 0;
    }

    .st7 {
      fill: #CDCDCD;
      fill-opacity: 0;
    }

    .st8 {
      fill: #CCCCCC;
      fill-opacity: 0.9686;
    }

    .st9 {
      opacity: 0.968;
      enable-background: new;
    }

    .st10 {
      opacity: 0.968;
      fill: #F7941E;
      enable-background: new;
    }

    .st11 {
      opacity: 0.968;
      fill: #BE1F24;
      enable-background: new;
    }

    .st12 {
      opacity: 0.968;
      fill: #F15A22;
      enable-background: new;
    }

    .st13 {
      fill: #FFFFFF;
    }

    .st14 {
      fill: none;
    }
  </style>
  <g>
    <g id="g3339_8_" inkscape:export-xdpi="613.29999" inkscape:export-ydpi="613.29999">
      <g id="g3341_3_">
        <path id="path3343_4_" class="st4" d="M117.8,34.8c-1.3,0-1.5,0.1-1.8,1.1l-2.1,6.3c-0.3,1.1-0.4,1.5-0.4,2
				c0,0.3,0.7,0.7,2.2,0.9l1.6,0.3c0.3,0.4,0.4,1.6-0.1,1.9c-1.9-0.1-3.9-0.1-6.2-0.2c-1.9,0-3.1,0.2-5.6,0.2
				c-0.6-0.3-0.5-1.5-0.2-1.9l1.5-0.2c1.3-0.2,2.4-0.6,3.3-2.7c0.9-2.2,2-4.8,3.4-8.8l5-13.3c1.3-3.4,2.2-5.4,2-6.9
				c2.6-0.6,4.6-3.3,4.8-3.3c0.7,0,1,0.3,1.3,1.1c0.4,1.6,1.1,3.6,2.5,7.5l7.4,21.4c1.1,3.3,1.6,4.5,3.7,4.9l2.1,0.3
				c0.3,0.3,0.4,1.6-0.1,1.9c-2.6-0.1-5.6-0.2-8.4-0.2c-2.7,0-4.9,0.1-7.4,0.2c-0.6-0.3-0.7-1.5-0.1-1.9l1.8-0.3
				c1.3-0.2,1.5-0.6,1.5-0.9c0-0.4-0.4-1.7-1-3.7l-1.5-4.7c-0.3-0.9-0.7-1-2.6-1L117.8,34.8z M124,31.9c1.3,0,1.5-0.2,1.1-1.6
				l-1.4-4.4c-0.8-2.4-1.8-5.3-2.2-6.5c-0.4,1.3-1.5,4.2-2.4,6.7l-1.4,4.1c-0.5,1.5-0.2,1.6,1.1,1.6h5.2V31.9z" />
        <path id="path3345_3_" class="st5" d="M155.3,38.1c0,2.6,0.2,4.3,0.9,5.2s1.7,1.4,5.7,1.4c5,0,6.5-0.2,9.7-6.5
				c0.4-0.5,1.7-0.3,2.1,0.3c-0.3,2.8-1.6,7.4-2.4,8.9c-2.9-0.1-8.2-0.2-12.6-0.2h-7.3c-2.5,0-5.3,0.1-8.6,0.2
				c-0.5-0.3-0.6-1.6-0.2-1.9l2.1-0.3c2.5-0.3,2.8-0.8,2.8-5.9V18.9c0-5.1-0.3-5.6-2.8-5.9l-1.6-0.2c-0.5-0.3-0.5-1.6,0.1-1.9
				c2.8,0.1,5.6,0.2,8.2,0.2c2.6,0,5.4-0.1,8.1-0.2c0.4,0.3,0.4,1.6,0,1.9l-1.4,0.2c-2.5,0.4-2.8,0.8-2.8,5.9V38.1z" />
        <path id="path3347_4_" class="st6" d="M187.8,25.3c0,1.5,0.1,1.6,1.5,1.6h3.8c2.8,0,3.5-0.4,4-3l0.3-1.4c0.4-0.4,1.8-0.4,2,0.1
				c-0.1,1.8-0.2,3.7-0.2,5.8s0.1,4,0.2,5.8c-0.3,0.5-1.6,0.5-2,0.1l-0.3-1.4c-0.5-2.6-1.2-3.1-4-3.1h-3.8c-1.5,0-1.5,0.1-1.5,1.7
				V38c0,2.5,0.2,4.3,0.9,5.2c0.7,1,1.8,1.4,5.7,1.4c4.8,0,6.6-0.2,9.6-6.3c0.4-0.6,1.8-0.4,2,0.3c-0.2,2.8-1.5,7.3-2.3,8.8
				c-2.9-0.1-8.2-0.2-12.6-0.2H184c-2.6,0-5.3,0.1-9.4,0.2c-0.4-0.3-0.4-1.6,0-1.9l2.6-0.4c2.5-0.4,2.8-0.7,2.8-5.7V18.9
				c0-5-0.3-5.3-2.8-5.8l-1.4-0.3c-0.5-0.3-0.4-1.6,0.1-1.9c2.6,0.1,5.3,0.2,7.9,0.2h11.6c3.5,0,6.6-0.1,7.3-0.2
				c0.1,0.9,0.4,4.8,0.7,8.5c-0.2,0.6-1.5,0.7-2,0.2c-0.6-1.9-1.4-3.6-2.1-4.3c-1-1-2.7-1.7-5.4-1.7h-4.4c-1.8,0-1.8,0.1-1.8,2.1
				L187.8,25.3L187.8,25.3z" />
        <path id="path3349_4_" class="st7" d="M212.9,19.9c0-5.5-0.1-6.2-2.4-6.5l-1.7-0.2c-0.5-0.3-0.5-1.5,0.1-1.9
				c3.6-0.3,7.9-0.5,12.6-0.5c4.6,0,7.7,0.5,10,1.4c3.3,1.3,6.7,4.2,6.7,9.5c0,9-9,10.3-11.9,10.3c-0.7,0-1.1,0-1.8-0.1
				c-0.4-0.3-0.5-1.1-0.2-1.5c4.5-1.4,5.5-4.6,5.5-8.7c0-4-2.1-8.4-7-8.4c-2,0-2.1,0.6-2.1,2.8v23.1c0,5.1,0.3,5.5,2.8,5.9l1.8,0.3
				c0.6,0.3,0.6,1.5,0,1.9c-3.1-0.1-5.7-0.2-8.4-0.2s-5.3,0.1-8.2,0.2c-0.6-0.3-0.7-1.6-0.1-1.9l1.5-0.3c2.5-0.4,2.8-0.8,2.8-5.9
				L212.9,19.9L212.9,19.9z" />
        <path id="path3351_4_" class="st8"
          d="M256,29.8c-2.2,0-2.3,0.1-2.3,1.6v7.9c0,5.1,0.3,5.6,2.8,5.9l1.8,0.2
				c0.4,0.3,0.4,1.6,0,1.9c-3.1-0.1-5.9-0.2-8.3-0.2c-2.6,0-5.4,0.1-8.2,0.2c-0.4-0.3-0.4-1.6,0-1.9l1.3-0.2c2.5-0.3,2.8-0.9,2.8-6
				V18.9c0-5.1-0.3-5.6-2.8-6l-1.3-0.2c-0.4-0.3-0.4-1.6,0-1.9c2.7,0.1,5.5,0.2,8.2,0.2c2.5,0,5.2-0.1,7.6-0.2
				c0.4,0.3,0.4,1.6,0,1.9l-1.1,0.2c-2.4,0.3-2.7,0.9-2.7,6v6.3c0,1.6,0.1,1.6,2.3,1.6h11.4c2.3,0,2.3-0.1,2.3-1.6v-6.3
				c0-5.1-0.3-5.5-2.8-5.9l-1.5-0.2c-0.4-0.3-0.4-1.6,0-1.9c3,0.1,5.7,0.2,8.3,0.2c2.7,0,5.2-0.1,7.7-0.2c0.4,0.3,0.4,1.6,0,1.9
				l-1.1,0.2c-2.5,0.4-2.8,0.9-2.8,6v20.3c0,5.1,0.3,5.5,2.8,5.9l1.3,0.2c0.4,0.3,0.4,1.6,0,1.9c-2.7-0.1-5.4-0.2-7.9-0.2
				c-2.7,0-5.4,0.1-8,0.2c-0.4-0.3-0.4-1.6,0-1.9l1.2-0.2c2.5-0.3,2.8-0.9,2.8-6v-7.9c0-1.5,0-1.6-2.3-1.6L256,29.8L256,29.8z" />
        <path id="path3353_3_" class="st9" d="M108.4,60.6h1.6v16.5h-1.6V60.6z" />
        <path id="path3355_3_" class="st9" d="M125.2,60.6h2.1l8.4,14.5l0,0V60.6h1.6v16.5h-2.2l-8.3-14.2l0,0v14.2h-1.6
				C125.2,77.1,125.2,60.6,125.2,60.6z" />
        <path id="path3357_3_" class="st9" d="M152.4,75c1,0.6,2.1,1,3.6,1c2,0,3.7-1,3.7-3.4c0-3.2-7.6-3.6-7.6-8c0-2.6,2.3-4.3,5.2-4.3
				c0.8,0,2.1,0.1,3.2,0.5l-0.3,1.5c-0.7-0.4-1.9-0.6-3-0.6c-1.7,0-3.6,0.7-3.6,2.8c0,3.3,7.6,3.3,7.6,8.2c0,3.3-2.9,4.7-5.4,4.7
				c-1.6,0-2.9-0.3-3.7-0.7L152.4,75z" />
        <path id="path3359_3_" class="st9" d="M176,60.6h1.6v16.5H176V60.6z" />
        <path id="path3361_3_" class="st9" d="M204.4,69.6h-3.8v-1.4h5.5v8.2c-1.7,0.7-3.3,1-5.1,1c-5.2,0-8.3-3.4-8.3-8.5
				c0-5,3.2-8.5,8.3-8.5c1.3,0,3.3,0.2,4.4,0.8l-0.2,1.5c-1.3-0.7-2.8-0.9-4.2-0.9c-4.3,0-6.7,3-6.7,7.1c0,4.2,2.3,7.1,6.7,7.1
				c1,0,2.7-0.1,3.5-0.6L204.4,69.6L204.4,69.6z" />
        <path id="path3363_3_" class="st9" d="M221.8,60.6h1.6v7.3h8.3v-7.3h1.6v16.5h-1.6v-7.8h-8.3v7.8h-1.6V60.6z" />
        <path id="path3365_3_" class="st9" d="M252.2,62h-4.9v-1.4h11.4V62h-4.9v15.1h-1.6L252.2,62L252.2,62z" />
        <path id="path3367_3_" class="st9" d="M272.1,75c1,0.6,2.1,1,3.6,1c2,0,3.7-1,3.7-3.4c0-3.2-7.6-3.6-7.6-8c0-2.6,2.3-4.3,5.2-4.3
				c0.8,0,2.1,0.1,3.2,0.5l-0.3,1.5c-0.7-0.4-1.9-0.6-3-0.6c-1.7,0-3.6,0.7-3.6,2.8c0,3.3,7.6,3.3,7.6,8.2c0,3.3-2.9,4.7-5.4,4.7
				c-1.6,0-2.9-0.3-3.7-0.7L272.1,75z" />
      </g>
      <g id="g3369_8_">
        <path id="path3371_8_" class="st10"
          d="M34.9,17.1l19.6-15C50.4,0.7,46,0,41.5,0c-3.3,0-6.6,0.4-9.7,1.2L34.9,17.1z" />
        <path id="path3373_8_" class="st11" d="M63.4,6.3L36.8,26.7L41.7,51l41.1-5.9c0.1-1.2,0.2-2.4,0.2-3.7
				C83,26.6,75.2,13.6,63.4,6.3z" />
        <path id="path3375_8_" class="st12" d="M29.1,32.6l-27.3,21c0.3,1,0.7,2,1.1,3L33,52.3L29.1,32.6z" />
        <path id="path3377_8_" class="st10" d="M43.4,59.6l4.5,22.9C63.5,80.1,76.2,68.9,81,54.2L43.4,59.6z" />
        <path id="path3379_8_" class="st11" d="M27.2,23L23.5,4.1C9.6,10.8,0,25,0,41.5c0,0.8,0,1.6,0.1,2.4L27.2,23z" />
        <path id="path3381_8_" class="st11" d="M34.7,60.8l-27.6,4c7,10.4,18.7,17.4,32,18.2L34.7,60.8z" />
      </g>
    </g>

    <path id="path3356_1_" inkscape:connector-curvature="0" inkscape:export-xdpi="613.29999"
      inkscape:export-ydpi="613.29999" class="st13" d="
		M108.5,68.8v-8.2h0.7h0.7v8.2v8.2h-0.7h-0.7V68.8z" />

    <path id="path3358_1_" inkscape:connector-curvature="0" inkscape:export-xdpi="613.29999"
      inkscape:export-ydpi="613.29999" class="st13" d="
		M125.2,68.9v-8.2h1h1l4.2,7.2c2.3,4,4.2,7.2,4.3,7.2c0.1,0,0.1-3.2,0.1-7.2v-7.2h0.7h0.7v8.2v8.2h-1h-1l-4.2-7.1l-4.2-7.1l0,7.1
		l0,7.1H126h-0.8L125.2,68.9L125.2,68.9z" />

    <path id="path3360_1_" inkscape:connector-curvature="0" inkscape:export-xdpi="613.29999"
      inkscape:export-ydpi="613.29999" class="st13"
      d="
		M153.9,77.2c-0.7-0.1-1.7-0.5-1.7-0.6c0,0,0.1-0.4,0.1-0.8l0.1-0.7l0.6,0.3c1.5,0.7,3.7,0.9,5,0.2c0.8-0.4,1.3-1,1.6-1.7
		c0.2-0.7,0.2-1.7,0-2.2c-0.3-0.6-1.3-1.4-3.2-2.5c-3.3-1.9-4.1-2.8-4.2-4.6c0-1.9,1.4-3.5,3.6-4c0.8-0.2,2.6-0.2,3.7,0.1
		c0.9,0.2,0.9,0.2,0.8,1l-0.1,0.6l-0.7-0.2c-0.5-0.2-1-0.2-2.1-0.2c-1.3,0-1.5,0-2.1,0.3c-1.2,0.5-1.7,1.3-1.7,2.5
		c0,1.2,0.7,1.9,3.1,3.2c3.4,1.8,4.3,2.8,4.4,4.8c0.1,2.3-1.2,4.1-3.7,4.7C156.7,77.3,154.9,77.4,153.9,77.2L153.9,77.2z" />

    <path id="path3362_1_" inkscape:connector-curvature="0" inkscape:export-xdpi="613.29999"
      inkscape:export-ydpi="613.29999" class="st13" d="
		M176.1,68.8v-8.2h0.7h0.7v8.2v8.2h-0.7h-0.7V68.8z" />

    <path id="path3364_1_" inkscape:connector-curvature="0" inkscape:export-xdpi="613.29999"
      inkscape:export-ydpi="613.29999" class="st13" d="
		M198.9,77.1c-2.4-0.5-4.2-1.9-5.2-4c-0.7-1.4-0.8-2.1-0.8-4.3c0-1.6,0-2,0.3-2.8c0.9-2.8,2.7-4.6,5.4-5.4c1.5-0.4,4.4-0.3,6.1,0.2
		l0.7,0.2l-0.1,0.6c-0.1,0.3-0.1,0.6-0.1,0.7c0,0.1-0.4,0-1-0.2c-0.9-0.3-1.3-0.4-2.6-0.4c-2.5-0.1-3.9,0.4-5.3,1.8
		c-1.4,1.4-2,2.9-2,5.4c0,3.5,1.5,5.8,4.4,6.8c1,0.3,4.2,0.3,5.2,0l0.6-0.2l0-3l0-3h-1.9h-1.9v-0.6v-0.6h2.7h2.7v4.1v4.1l-0.9,0.3
		c-0.5,0.2-1.4,0.4-1.9,0.5C202.1,77.4,199.9,77.3,198.9,77.1L198.9,77.1z" />

    <path id="path3366_1_" inkscape:connector-curvature="0" inkscape:export-xdpi="613.29999"
      inkscape:export-ydpi="613.29999" class="st13" d="
		M221.9,68.8v-8.2h0.7h0.7v3.7v3.7h4.2h4.2v-3.7v-3.7l0.7,0l0.7,0l0,8.2l0,8.2h-0.8h-0.8l0-3.9l0-3.9h-4.2h-4.2l0,3.9l0,3.9h-0.7
		h-0.7L221.9,68.8L221.9,68.8z" />

    <path id="path3368_1_" inkscape:connector-curvature="0" inkscape:export-xdpi="613.29999"
      inkscape:export-ydpi="613.29999" class="st13"
      d="
		M252.3,69.5l0-7.6l-2.4,0l-2.4,0v-0.6v-0.6h5.7h5.7v0.6v0.6l-2.4,0l-2.4,0l0,7.6l0,7.6H253h-0.7L252.3,69.5L252.3,69.5z" />

    <path id="path3370_1_" inkscape:connector-curvature="0" inkscape:export-xdpi="613.29999"
      inkscape:export-ydpi="613.29999" class="st13" d="
		M273.6,77.2c-1-0.2-1.8-0.5-1.7-0.6c0-0.1,0.1-0.4,0.1-0.8l0.1-0.7l0.7,0.3c1.5,0.7,3.5,0.8,4.8,0.2c1.2-0.5,1.9-1.6,1.8-3
		c0-1.2-0.7-2-3.3-3.4c-2.3-1.3-3.3-2.1-3.8-3.1c-0.7-1.5-0.3-3.3,1-4.5c0.6-0.5,1.7-1,2.6-1.2c0.8-0.2,2.8-0.1,3.6,0.2l0.6,0.2
		l0,0.6c0,0.3-0.1,0.6-0.1,0.7c-0.1,0.1-0.4,0-0.7-0.1c-0.8-0.3-3.1-0.3-3.8-0.1c-0.6,0.2-1.4,0.8-1.7,1.3c-0.1,0.2-0.2,0.6-0.3,1
		c-0.2,1.3,0.5,2.2,2.6,3.3c2.9,1.6,3.8,2.3,4.5,3.4c0.3,0.5,0.4,0.8,0.4,1.6c0.1,2.1-0.9,3.7-3,4.4c-0.6,0.2-1,0.3-2.2,0.3
		C274.8,77.3,273.9,77.3,273.6,77.2L273.6,77.2z" />

    <path id="path3372_1_" inkscape:connector-curvature="0" inkscape:export-xdpi="613.29999"
      inkscape:export-ydpi="613.29999" class="st8" d="
		M142.6,46.9c-0.2-0.4-0.2-0.4-0.3-0.1c-0.1,0.3-0.5,0.3-8.1,0.3l-8,0l-0.1-0.4c-0.2-0.5,0-1.1,0.4-1.2c0.2,0,0.8-0.2,1.4-0.3
		c1.3-0.2,1.8-0.6,1.7-1.3c-0.6-2.5-2.5-8.5-2.9-8.8c-0.3-0.3-0.7-0.3-5-0.4c-4,0-4.7,0-5,0.2c-0.3,0.2-0.7,1.1-1.7,4.3
		c-0.7,2.2-1.3,4.3-1.3,4.6c0,0.7,0.3,0.9,2.3,1.3c1.3,0.2,1.4,0.3,1.6,0.7c0.1,0.2,0.1,0.6,0,0.8l-0.1,0.4l-6,0c-5.6,0-6,0-6.2-0.3
		c-0.1-0.2-0.1-1.3,0.1-1.3c0,0,0.6-0.1,1.3-0.2c0.7-0.1,1.5-0.4,1.8-0.5c1.2-0.7,1.7-1.9,7.6-17.6c4-10.7,4.3-11.6,4.4-12.6
		l0.1-0.9l1.1-0.5c0.7-0.3,1.6-1,2.4-1.7c1.1-1.1,1.3-1.2,1.7-1c0.3,0.1,0.5,0.4,0.6,0.7c0.1,0.3,0.8,2.3,1.5,4.4
		c2.6,7.5,9.2,26.5,9.5,27.2c0.7,1.6,1.7,2.4,3.5,2.6c1.3,0.2,1.5,0.2,1.5,0.5c0,0.2,0,0.2,0.2,0c0.1-0.2,0.8-0.4,1.9-0.5
		c0.9-0.1,1.9-0.4,2.1-0.5c1.1-0.7,1.1-1.8,1.1-16.9c-0.1-12.7-0.1-12.8-0.4-13.6c-0.4-1-0.9-1.2-2.6-1.4c-1.3-0.2-1.8-0.4-1.7-1
		c0-0.8-0.2-0.8,8.6-0.8c7.9,0,8.3,0,8.3,0.3c0.1,0.2,0.1,0.5,0,0.8c-0.1,0.5-0.2,0.5-1.5,0.7c-1.7,0.3-2.1,0.6-2.5,1.4
		c-0.3,0.6-0.3,1.9-0.3,13.8c0,14.4,0,14.2,0.9,15.2c0.9,1,1.5,1.2,5.2,1.2c4.5,0.1,5.5-0.2,7.1-1.7c0.8-0.7,2-2.6,2.8-4.1
		c0.4-0.8,0.5-0.9,1-0.9c0.3,0,0.7,0.1,0.9,0.2c0.3,0.2,0.3,0.3,0.2,1.1c-0.2,1.3-1.1,5-1.7,6.6l-0.5,1.3l-14.3,0l-14.3,0
		L142.6,46.9L142.6,46.9z M125.2,31.8c0.1,0,0.1-0.3,0.1-0.6c0-0.7-3.7-11.8-3.8-11.6c-0.1,0.1-0.5,1.1-2.7,7.4
		c-1.1,3.1-1.5,4.7-1.3,4.9c0,0,1.5,0.1,3.3,0.1C123.8,32,124.9,31.9,125.2,31.8z" />

    <path id="path3374_1_" inkscape:connector-curvature="0" inkscape:export-xdpi="613.29999"
      inkscape:export-ydpi="613.29999" class="st8" d="
		M174.5,47.1c0-0.1,0-0.5,0-0.8l0.1-0.6l1.8-0.3c2.3-0.4,2.9-0.7,3.3-1.5c0.3-0.7,0.3-1,0.3-14.7c0-12.7,0-14-0.3-14.6
		c-0.4-0.8-0.9-1.1-2.6-1.5c-1.6-0.4-1.7-0.5-1.5-1.5l0.1-0.4h13.5h13.5L203,15c0.2,2.1,0.3,4,0.3,4.2c0,0.5-0.7,0.9-1.3,0.7
		c-0.4-0.1-0.5-0.4-0.9-1.3c-1.1-2.9-1.9-3.7-3.9-4.5c-1.2-0.4-8.6-0.6-9.2-0.2c-0.3,0.2-0.3,0.5-0.4,5.4c0,2.8,0,5.6,0.1,6.2
		c0.2,1.7,0,1.6,3.9,1.6c4.6,0,4.8-0.1,5.5-3c0.3-1.4,0.4-1.5,0.8-1.6c0.2-0.1,0.6-0.1,0.9,0l0.4,0.1l-0.1,2.1c-0.1,2.6-0.1,5,0,7.7
		l0.1,2.1l-0.4,0.2c-0.3,0.1-0.6,0.1-0.9,0c-0.4-0.1-0.5-0.3-0.7-1.4c-0.4-1.8-0.8-2.5-1.6-2.9c-0.6-0.3-1-0.3-4.1-0.3
		c-2.9,0-3.5,0-3.6,0.2c-0.1,0.1-0.2,2.4-0.2,5.2c0,8,0.4,8.8,4,9.3c1.9,0.2,5.8,0.1,7-0.3c1.9-0.6,3.4-2.1,4.8-4.9
		c0.7-1.3,1.1-1.6,1.9-1.3c0.3,0.1,0.4,0.3,0.5,0.7c0.1,1-0.9,5.3-1.8,7.6l-0.3,0.9h-14.6C178.3,47.3,174.5,47.2,174.5,47.1
		L174.5,47.1z" />

    <path id="path3376_1_" inkscape:connector-curvature="0" inkscape:export-xdpi="613.29999"
      inkscape:export-ydpi="613.29999" class="st8" d="
		M208.4,46.7c-0.2-0.6,0-1.2,0.4-1.3c0.2,0,0.9-0.2,1.6-0.3c2.1-0.4,2.4-0.7,2.6-3.8c0.2-2.7,0.2-21.3,0-24.2
		c-0.2-3.2-0.5-3.6-2.9-3.9c-0.6-0.1-1.1-0.2-1.2-0.3c-0.3-0.2-0.3-1.2,0-1.4c0.4-0.3,4.6-0.6,10.8-0.6c6.8,0,8.5,0.1,11.2,1.1
		c1.9,0.6,3.1,1.4,4.4,2.7c2,2,2.8,3.9,2.8,6.9c0,3-0.7,4.9-2.6,6.8c-2.1,2.1-4.9,3.2-8.6,3.4c-2.3,0.1-2.6,0-2.6-0.8
		c0-0.4,0.1-0.5,0.5-0.7c1.2-0.4,2.3-1.1,3-1.8c1.4-1.3,2-3,2.1-5.8c0.3-5.5-2.6-9.5-7-9.5c-1.1,0-1.8,0.3-2,0.8
		c-0.2,0.6-0.4,22.3-0.2,26.4c0.2,3,0.4,3.8,1.1,4.2c0.2,0.1,1.1,0.4,2,0.5c1.6,0.3,2,0.6,2,1.2c0,0.8,0.2,0.8-8.8,0.8l-8.4,0
		L208.4,46.7L208.4,46.7z" />

    <path id="path3378_1_" inkscape:connector-curvature="0" inkscape:export-xdpi="613.29999"
      inkscape:export-ydpi="613.29999" class="st8" d="
		M241.6,46.7c-0.1-0.6,0.1-1.2,0.5-1.3c0.2,0,0.8-0.2,1.4-0.2c1.7-0.3,2.2-0.9,2.4-3.1c0.2-1.9,0.2-24.4,0-26.1
		c-0.2-2.3-0.7-2.8-2.9-3.2c-1-0.2-1.2-0.3-1.3-0.6c-0.1-0.2-0.1-0.6-0.1-0.8l0.1-0.4h8h8l0.1,0.4c0.1,0.2,0,0.6-0.1,0.8
		c-0.1,0.4-0.3,0.5-1.3,0.6c-2,0.4-2.4,0.8-2.6,3.2c-0.2,2.4-0.1,10.3,0.2,10.6c0.3,0.3,14.7,0.4,15.4,0.1l0.4-0.2v-5.7
		c0-7.4,0.1-7.2-2.8-7.8l-1.5-0.3l0-0.8l0-0.8l8.2,0l8.2,0l0,0.8l0,0.8l-1,0.2c-2.3,0.5-2.7,0.9-2.9,3.1c-0.2,1.8-0.2,25,0,26.6
		c0.2,1.9,0.7,2.4,2.4,2.7c0.5,0.1,1.1,0.2,1.3,0.2c0.4,0.1,0.6,0.7,0.5,1.3l-0.1,0.4h-8.1c-7.9,0-8.1,0-8.1-0.3
		c0-0.4,0-1.1,0.1-1.2c0,0,0.6-0.2,1.3-0.3c1.5-0.3,2-0.5,2.4-1.4c0.2-0.5,0.3-1.5,0.3-7.2l0.1-6.6l-0.4-0.2
		c-0.6-0.3-14.5-0.3-15.2,0l-0.5,0.3v6.7c0,6.1,0,6.7,0.3,7.2c0.4,0.8,1,1.1,2.4,1.2c1.9,0.2,2.1,0.3,2,1.2l-0.1,0.7l-8.4,0l-8.4,0
		L241.6,46.7L241.6,46.7z" />
  </g>
</svg>
