<?xml version="1.0" encoding="utf-8"?>
<!-- Generator: Adobe Illustrator 24.1.3, SVG Export Plug-In . SVG Version: 6.00 Build 0)  -->
<svg version="1.1" id="Layer_1" inkscape:version="0.91 r13725" sodipodi:docname="AI logo scaleable colour corrected.svg"
  xmlns:cc="http://creativecommons.org/ns#" xmlns:dc="http://purl.org/dc/elements/1.1/"
  xmlns:inkscape="http://www.inkscape.org/namespaces/inkscape" xmlns:rdf="http://www.w3.org/1999/02/22-rdf-syntax-ns#"
  xmlns:sodipodi="http://sodipodi.sourceforge.net/DTD/sodipodi-0.dtd" xmlns:svg="http://www.w3.org/2000/svg"
  xmlns="http://www.w3.org/2000/svg" xmlns:xlink="http://www.w3.org/1999/xlink" x="0px" y="0px" viewBox="0 0 282 83"
  style="enable-background:new 0 0 282 83;" xml:space="preserve">
  <style type="text/css">
    .st0 {
      fill: #58595B;
    }

    .st1 {
      fill: #F7941E;
    }

    .st2 {
      fill: #BE1F24;
    }

    .st3 {
      fill: #F15A22;
    }

    .st4 {
      opacity: 0.968;
      fill: #CCCCCC;
      fill-opacity: 0.9686;
      enable-background: new;
    }

    .st5 {
      opacity: 0.968;
      fill: #CCCCCC;
      enable-background: new;
    }

    .st6 {
      fill: #58595B;
      fill-opacity: 0;
    }

    .st7 {
      fill: #CDCDCD;
      fill-opacity: 0;
    }

    .st8 {
      fill: #CCCCCC;
      fill-opacity: 0.9686;
    }

    .st9 {
      opacity: 0.968;
      enable-background: new;
    }

    .st10 {
      opacity: 0.968;
      fill: #F7941E;
      enable-background: new;
    }

    .st11 {
      opacity: 0.968;
      fill: #BE1F24;
      enable-background: new;
    }

    .st12 {
      opacity: 0.968;
      fill: #F15A22;
      enable-background: new;
    }

    .st13 {
      fill: #FFFFFF;
    }

    .st14 {
      fill: none;
    }
  </style>
  <g id="g3339_7_" inkscape:export-xdpi="613.29999" inkscape:export-ydpi="613.29999">
    <g id="g3341_2_">
      <path id="path3343_2_" class="st0" d="M117.8,34.8c-1.3,0-1.5,0.1-1.8,1.1l-2.1,6.3c-0.3,1.1-0.4,1.5-0.4,2c0,0.3,0.7,0.7,2.2,0.9
			l1.6,0.3c0.3,0.4,0.4,1.6-0.1,1.9c-1.9-0.1-3.9-0.1-6.2-0.2c-1.9,0-3.1,0.2-5.6,0.2c-0.6-0.3-0.5-1.5-0.2-1.9l1.5-0.2
			c1.3-0.2,2.4-0.6,3.3-2.7c0.9-2.2,2-4.8,3.4-8.8l5-13.3c1.3-3.4,2.2-5.4,2-6.9c2.6-0.6,4.6-3.3,4.8-3.3c0.7,0,1,0.3,1.3,1.1
			c0.4,1.6,1.1,3.6,2.5,7.5l7.4,21.4c1.1,3.3,1.6,4.5,3.7,4.9l2.1,0.3c0.3,0.3,0.4,1.6-0.1,1.9c-2.6-0.1-5.6-0.2-8.4-0.2
			c-2.7,0-4.9,0.1-7.4,0.2c-0.6-0.3-0.7-1.5-0.1-1.9l1.8-0.3c1.3-0.2,1.5-0.6,1.5-0.9c0-0.4-0.4-1.7-1-3.7l-1.5-4.7
			c-0.3-0.9-0.7-1-2.6-1L117.8,34.8z M124,31.9c1.3,0,1.5-0.2,1.1-1.6l-1.4-4.4c-0.8-2.4-1.8-5.3-2.2-6.5c-0.4,1.3-1.5,4.2-2.4,6.7
			l-1.4,4.1c-0.5,1.5-0.2,1.6,1.1,1.6h5.2V31.9z" />
      <path id="path3345_2_" class="st0" d="M155.3,38.1c0,2.6,0.2,4.3,0.9,5.2s1.7,1.4,5.7,1.4c5,0,6.5-0.2,9.7-6.5
			c0.4-0.5,1.7-0.3,2.1,0.3c-0.3,2.8-1.6,7.4-2.4,8.9c-2.9-0.1-8.2-0.2-12.6-0.2h-7.3c-2.5,0-5.3,0.1-8.6,0.2
			c-0.5-0.3-0.6-1.6-0.2-1.9l2.1-0.3c2.5-0.3,2.8-0.8,2.8-5.9V18.9c0-5.1-0.3-5.6-2.8-5.9l-1.6-0.2c-0.5-0.3-0.5-1.6,0.1-1.9
			c2.8,0.1,5.6,0.2,8.2,0.2c2.6,0,5.4-0.1,8.1-0.2c0.4,0.3,0.4,1.6,0,1.9l-1.4,0.2c-2.5,0.4-2.8,0.8-2.8,5.9V38.1z" />
      <path id="path3347_3_" class="st0" d="M187.8,25.3c0,1.5,0.1,1.6,1.5,1.6h3.8c2.8,0,3.5-0.4,4-3l0.3-1.4c0.4-0.4,1.8-0.4,2,0.1
			c-0.1,1.8-0.2,3.7-0.2,5.8s0.1,4,0.2,5.8c-0.3,0.5-1.6,0.5-2,0.1l-0.3-1.4c-0.5-2.6-1.2-3.1-4-3.1h-3.8c-1.5,0-1.5,0.1-1.5,1.7V38
			c0,2.5,0.2,4.3,0.9,5.2c0.7,1,1.8,1.4,5.7,1.4c4.8,0,6.6-0.2,9.6-6.3c0.4-0.6,1.8-0.4,2,0.3c-0.2,2.8-1.5,7.3-2.3,8.8
			c-2.9-0.1-8.2-0.2-12.6-0.2H184c-2.6,0-5.3,0.1-9.4,0.2c-0.4-0.3-0.4-1.6,0-1.9l2.6-0.4c2.5-0.4,2.8-0.7,2.8-5.7V18.9
			c0-5-0.3-5.3-2.8-5.8l-1.4-0.3c-0.5-0.3-0.4-1.6,0.1-1.9c2.6,0.1,5.3,0.2,7.9,0.2h11.6c3.5,0,6.6-0.1,7.3-0.2
			c0.1,0.9,0.4,4.8,0.7,8.5c-0.2,0.6-1.5,0.7-2,0.2c-0.6-1.9-1.4-3.6-2.1-4.3c-1-1-2.7-1.7-5.4-1.7h-4.4c-1.8,0-1.8,0.1-1.8,2.1
			L187.8,25.3L187.8,25.3z" />
      <path id="path3349_3_" class="st0" d="M212.9,19.9c0-5.5-0.1-6.2-2.4-6.5l-1.7-0.2c-0.5-0.3-0.5-1.5,0.1-1.9
			c3.6-0.3,7.9-0.5,12.6-0.5c4.6,0,7.7,0.5,10,1.4c3.3,1.3,6.7,4.2,6.7,9.5c0,9-9,10.3-11.9,10.3c-0.7,0-1.1,0-1.8-0.1
			c-0.4-0.3-0.5-1.1-0.2-1.5c4.5-1.4,5.5-4.6,5.5-8.7c0-4-2.1-8.4-7-8.4c-2,0-2.1,0.6-2.1,2.8v23.1c0,5.1,0.3,5.5,2.8,5.9l1.8,0.3
			c0.6,0.3,0.6,1.5,0,1.9c-3.1-0.1-5.7-0.2-8.4-0.2s-5.3,0.1-8.2,0.2c-0.6-0.3-0.7-1.6-0.1-1.9l1.5-0.3c2.5-0.4,2.8-0.8,2.8-5.9
			L212.9,19.9L212.9,19.9z" />
      <path id="path3351_3_" class="st0" d="M256,29.8c-2.2,0-2.3,0.1-2.3,1.6v7.9c0,5.1,0.3,5.6,2.8,5.9l1.8,0.2c0.4,0.3,0.4,1.6,0,1.9
			c-3.1-0.1-5.9-0.2-8.3-0.2c-2.6,0-5.4,0.1-8.2,0.2c-0.4-0.3-0.4-1.6,0-1.9l1.3-0.2c2.5-0.3,2.8-0.9,2.8-6V18.9
			c0-5.1-0.3-5.6-2.8-6l-1.3-0.2c-0.4-0.3-0.4-1.6,0-1.9c2.7,0.1,5.5,0.2,8.2,0.2c2.5,0,5.2-0.1,7.6-0.2c0.4,0.3,0.4,1.6,0,1.9
			l-1.1,0.2c-2.4,0.3-2.7,0.9-2.7,6v6.3c0,1.6,0.1,1.6,2.3,1.6h11.4c2.3,0,2.3-0.1,2.3-1.6v-6.3c0-5.1-0.3-5.5-2.8-5.9l-1.5-0.2
			c-0.4-0.3-0.4-1.6,0-1.9c3,0.1,5.7,0.2,8.3,0.2c2.7,0,5.2-0.1,7.7-0.2c0.4,0.3,0.4,1.6,0,1.9l-1.1,0.2c-2.5,0.4-2.8,0.9-2.8,6
			v20.3c0,5.1,0.3,5.5,2.8,5.9l1.3,0.2c0.4,0.3,0.4,1.6,0,1.9c-2.7-0.1-5.4-0.2-7.9-0.2c-2.7,0-5.4,0.1-8,0.2
			c-0.4-0.3-0.4-1.6,0-1.9l1.2-0.2c2.5-0.3,2.8-0.9,2.8-6v-7.9c0-1.5,0-1.6-2.3-1.6L256,29.8L256,29.8z" />
      <path id="path3353_2_" d="M108.4,60.6h1.6v16.5h-1.6V60.6z" />
      <path id="path3355_2_" d="M125.2,60.6h2.1l8.4,14.5l0,0V60.6h1.6v16.5h-2.2l-8.3-14.2l0,0v14.2h-1.6
			C125.2,77.1,125.2,60.6,125.2,60.6z" />
      <path id="path3357_2_" d="M152.4,75c1,0.6,2.1,1,3.6,1c2,0,3.7-1,3.7-3.4c0-3.2-7.6-3.6-7.6-8c0-2.6,2.3-4.3,5.2-4.3
			c0.8,0,2.1,0.1,3.2,0.5l-0.3,1.5c-0.7-0.4-1.9-0.6-3-0.6c-1.7,0-3.6,0.7-3.6,2.8c0,3.3,7.6,3.3,7.6,8.2c0,3.3-2.9,4.7-5.4,4.7
			c-1.6,0-2.9-0.3-3.7-0.7L152.4,75z" />
      <path id="path3359_2_" d="M176,60.6h1.6v16.5H176V60.6z" />
      <path id="path3361_2_" d="M204.4,69.6h-3.8v-1.4h5.5v8.2c-1.7,0.7-3.3,1-5.1,1c-5.2,0-8.3-3.4-8.3-8.5c0-5,3.2-8.5,8.3-8.5
			c1.3,0,3.3,0.2,4.4,0.8l-0.2,1.5c-1.3-0.7-2.8-0.9-4.2-0.9c-4.3,0-6.7,3-6.7,7.1c0,4.2,2.3,7.1,6.7,7.1c1,0,2.7-0.1,3.5-0.6
			L204.4,69.6L204.4,69.6z" />
      <path id="path3363_2_" d="M221.8,60.6h1.6v7.3h8.3v-7.3h1.6v16.5h-1.6v-7.8h-8.3v7.8h-1.6V60.6z" />
      <path id="path3365_2_" d="M252.2,62h-4.9v-1.4h11.4V62h-4.9v15.1h-1.6L252.2,62L252.2,62z" />
      <path id="path3367_2_" d="M272.1,75c1,0.6,2.1,1,3.6,1c2,0,3.7-1,3.7-3.4c0-3.2-7.6-3.6-7.6-8c0-2.6,2.3-4.3,5.2-4.3
			c0.8,0,2.1,0.1,3.2,0.5l-0.3,1.5c-0.7-0.4-1.9-0.6-3-0.6c-1.7,0-3.6,0.7-3.6,2.8c0,3.3,7.6,3.3,7.6,8.2c0,3.3-2.9,4.7-5.4,4.7
			c-1.6,0-2.9-0.3-3.7-0.7L272.1,75z" />
    </g>
    <g id="g3369_7_">
      <path id="path3371_7_" class="st1"
        d="M34.9,17.1l19.6-15C50.4,0.7,46,0,41.5,0c-3.3,0-6.6,0.4-9.7,1.2L34.9,17.1z" />
      <path id="path3373_7_" class="st2" d="M63.4,6.3L36.8,26.7L41.7,51l41.1-5.9c0.1-1.2,0.2-2.4,0.2-3.7C83,26.6,75.2,13.6,63.4,6.3z
			" />
      <path id="path3375_7_" class="st3" d="M29.1,32.6l-27.3,21c0.3,1,0.7,2,1.1,3L33,52.3L29.1,32.6z" />
      <path id="path3377_7_" class="st1" d="M43.4,59.6l4.5,22.9C63.5,80.1,76.2,68.9,81,54.2L43.4,59.6z" />
      <path id="path3379_7_" class="st2" d="M27.2,23L23.5,4.1C9.6,10.8,0,25,0,41.5c0,0.8,0,1.6,0.1,2.4L27.2,23z" />
      <path id="path3381_7_" class="st2" d="M34.7,60.8l-27.6,4c7,10.4,18.7,17.4,32,18.2L34.7,60.8z" />
    </g>
  </g>
</svg>
