<?xml version="1.0" encoding="utf-8"?>
<!-- Generator: Adobe Illustrator 22.0.1, SVG Export Plug-In . SVG Version: 6.00 Build 0)  -->
<svg version="1.1" id="Layer_1" xmlns="http://www.w3.org/2000/svg" xmlns:xlink="http://www.w3.org/1999/xlink" x="0px"
  y="0px" viewBox="0 0 283.5 208.6" style="enable-background:new 0 0 283.5 208.6;" xml:space="preserve">
  <style type="text/css">
    .st0 {
      fill: #CF2257;
    }

    .st1 {
      fill: #18142B;
    }
  </style>
  <g>
    <polygon class="st0" points="246.7,0 246.7,19.5 264,19.5 264,126.9 246.7,126.9 246.7,146.3 283.5,146.3 283.5,0 	" />
    <polygon class="st0" points="0,146.3 36.7,146.3 36.7,126.9 19.5,126.9 19.5,19.5 36.7,19.5 36.7,0 0,0 	" />
  </g>
  <g>
    <path class="st1" d="M81.9,104.2v7.2h15.6V22.1h-17v31.7h-0.1c-4.5-4.3-9.7-6.3-16.1-6.3c-17.2,0-27.8,12.5-27.8,33.2
		c0,20.3,9.7,32.4,25.7,32.4c7,0,13.8-3.1,19.5-9H81.9z M80.5,95.2c-3.2,3.1-7.9,4.8-12.3,4.8c-9,0-14-6.9-14-19.4
		c0-12.3,5.5-20.2,14-20.2c4.2,0,8.2,1.6,12.3,4.9V95.2z" />
    <path class="st1" d="M125.1,65.8c0-4.4,3.9-6.3,9.2-6.3c4.4,0,9.3,1.2,13.9,3.6V50.5c-3.6-1.5-9.3-3-16.1-3
		c-13.3,0-23.3,5.5-23.3,19.2c0,21.9,25.9,16.8,25.9,27.6c0,5-3.9,6.9-10,6.9c-5.9,0-10.8-1.8-16-4.2V110c5.8,2.5,12.8,3.3,17.8,3.3
		c13.9,0,24.9-5.8,24.9-19.9C151.5,72.2,125.1,76.7,125.1,65.8z" />
    <path class="st1" d="M186.5,93.2V61.1h16.7V48.9h-16.7V31.5h-17v17.4h-10.2v12.2h10.2v32.3c0,13.5,7.1,19.9,19.9,19.9
		c5.6,0,11.4-1.2,14-2V98.4c-2.3,0.7-5.7,1.6-9.2,1.6C189.9,100,186.5,98.7,186.5,93.2z" />
    <path class="st1" d="M229.6,112.9c3.3,0,7.7-0.5,12.2-1.8V99.5c-2.1,0.5-3.8,0.6-4.9,0.6c-3.1,0-5.6-0.7-5.6-4.5V22.1h-17v78
		C214.3,107.3,218.7,112.9,229.6,112.9z" />
    <rect x="103" y="190.6" class="st1" width="4.7" height="17.5" />
    <path class="st1" d="M90.6,199.3c0-4,2-5.4,5-5.4c1.3,0,2.6,0.2,3.8,0.7v-3.8c-1.4-0.4-2.8-0.6-4.2-0.6c-5.2,0-9.5,2.8-9.5,9.3
		c0,6.2,4,9.1,9,9.1c1.7,0,3.4-0.3,5.1-0.9V204c-1.5,0.6-2.9,0.9-4.2,0.9C92.6,204.9,90.6,203.3,90.6,199.3z" />
    <rect x="103" y="183.4" class="st1" width="4.7" height="4.4" />
    <path class="st1" d="M31.2,190.2c-1.7,0-3.8,0.8-5.4,2.1v-9.3H21v25h4.8v-12.9c0.9-0.8,2.2-1.3,3.5-1.3c2.1,0,3.1,1,3.1,3v11.2h4.8
		v-11.2C37.1,192.2,35.3,190.2,31.2,190.2z" />
    <path class="st1"
      d="M48.5,190.2c-5.2,0-8.1,3.9-8.1,9.2c0,6.4,3.9,9.3,8.9,9.3c2.4,0,4.7-0.7,6-1.3v-3.6c-1.6,0.7-3.2,1.2-5.2,1.2
		c-3,0-4.8-1.3-4.9-4.3h10.7v-2C55.9,193.6,53.5,190.2,48.5,190.2z M45.3,197.6c0.1-2.2,1.2-3.8,3.4-3.8c2,0,2.9,1.6,2.9,3.8H45.3z" />
    <polygon class="st1" points="0,189.1 6.7,189.1 6.7,208.1 11.7,208.1 11.7,189.1 18.4,189.1 18.4,184.8 0,184.8 	" />
    <path class="st1" d="M73.2,190.8c0-1.8,1.4-2.4,3.3-2.4c1.7,0,3.9,0.6,5.7,1.3v-4.4c-1.8-0.6-3.8-1-5.8-1c-4.3,0-8.3,1.8-8.3,6.9
		c0,8.1,10.1,5.9,10.1,10.6c0,2-1.5,2.7-3.5,2.7c-2,0-4.6-0.7-6.6-1.8v4.5c2,0.9,4.3,1.4,6.5,1.4c4.5,0,8.6-2,8.6-7.3
		C83.3,193.2,73.2,195.4,73.2,190.8z" />
    <path class="st1" d="M154.8,199.3c0-4,2-5.4,5-5.4c1.3,0,2.6,0.2,3.8,0.7v-3.8c-1.4-0.4-2.8-0.6-4.2-0.6c-5.2,0-9.5,2.8-9.5,9.3
		c0,6.2,4,9.1,9,9.1c1.7,0,3.4-0.3,5.1-0.9V204c-1.5,0.6-2.9,0.9-4.2,0.9C156.8,204.9,154.8,203.3,154.8,199.3z" />
    <path class="st1" d="M228.4,195.3c0-1.2,1.1-1.8,2.6-1.8c1.2,0,2.6,0.3,3.9,1V191c-1-0.4-2.6-0.8-4.5-0.8c-3.7,0-6.5,1.6-6.5,5.4
		c0,6.1,7.3,4.7,7.3,7.7c0,1.4-1.1,1.9-2.8,1.9c-1.7,0-3-0.5-4.5-1.2v3.6c1.6,0.7,3.6,0.9,5,0.9c3.9,0,7-1.6,7-5.6
		C235.8,197.1,228.4,198.3,228.4,195.3z" />
    <rect x="239.1" y="190.6" class="st1" width="4.7" height="17.5" />
    <rect x="239.1" y="183.4" class="st1" width="4.7" height="4.4" />
    <path class="st1" d="M259.7,191.9L259.7,191.9c-1.3-1.2-2.8-1.8-4.5-1.8c-4.8,0-7.8,3.5-7.8,9.3c0,5.7,2.7,9.1,7.2,9.1
		c2,0,3.9-0.9,5.5-2.5h0v2h4.4v-25h-4.8V191.9z M259.7,203.6c-0.9,0.9-2.2,1.3-3.4,1.3c-2.5,0-3.9-1.9-3.9-5.4
		c0-3.4,1.5-5.7,3.9-5.7c1.2,0,2.3,0.5,3.4,1.4V203.6z" />
    <path class="st1"
      d="M283.5,198.7c0-5.1-2.4-8.5-7.4-8.5c-5.2,0-8.1,3.9-8.1,9.2c0,6.4,3.9,9.3,8.9,9.3c2.4,0,4.7-0.7,6-1.3v-3.6
		c-1.6,0.7-3.2,1.2-5.2,1.2c-3,0-4.8-1.3-4.9-4.3h10.7V198.7z M272.8,197.6c0.1-2.2,1.2-3.8,3.4-3.8c2,0,2.9,1.6,2.9,3.8H272.8z" />
    <rect x="194.6" y="184.8" class="st1" width="4.9" height="23.3" />
    <path class="st1" d="M141,190.2c-2.5,0-4.5,1-6.1,2.5h-0.1v-2.1h-4.4v17.5h4.7v-12.9c0.9-0.8,2.2-1.3,3.5-1.3c2.1,0,3.1,1,3.1,3
		v11.2h4.8v-11.2C146.5,192.4,144.7,190.2,141,190.2z" />
    <path class="st1" d="M174,190.2c-5.2,0-8.1,3.9-8.1,9.2c0,6.4,3.9,9.3,8.9,9.3c2.4,0,4.7-0.7,6-1.3v-3.6c-1.6,0.7-3.2,1.2-5.2,1.2
		c-3,0-4.8-1.3-4.9-4.3h10.7v-2C181.4,193.6,179,190.2,174,190.2z M170.7,197.6c0.1-2.2,1.2-3.8,3.4-3.8c2,0,2.9,1.6,2.9,3.8H170.7z
		" />
    <path class="st1" d="M214.8,190.2c-2.5,0-4.5,1-6.1,2.5h-0.1v-2.1h-4.4v17.5h4.7v-12.9c0.9-0.8,2.2-1.3,3.5-1.3c2.1,0,3.1,1,3.1,3
		v11.2h4.8v-11.2C220.4,192.4,218.6,190.2,214.8,190.2z" />
    <path class="st1" d="M119.4,190.2c-5.2,0-8.1,3.9-8.1,9.2c0,6.4,3.9,9.3,8.9,9.3c2.4,0,4.7-0.7,6-1.3v-3.6
		c-1.6,0.7-3.2,1.2-5.2,1.2c-3,0-4.8-1.3-4.9-4.3h10.7v-2C126.8,193.6,124.3,190.2,119.4,190.2z M116.1,197.6
		c0.1-2.2,1.2-3.8,3.4-3.8c2,0,2.9,1.6,2.9,3.8H116.1z" />
  </g>
</svg>
