<?xml version="1.0" encoding="utf-8"?>
<!-- Generator: Adobe Illustrator 22.0.1, SVG Export Plug-In . SVG Version: 6.00 Build 0)  -->
<svg version="1.1" id="Layer_1" xmlns="http://www.w3.org/2000/svg" xmlns:xlink="http://www.w3.org/1999/xlink" x="0px"
  y="0px" viewBox="0 0 415.4 73.2" style="enable-background:new 0 0 415.4 73.2;" xml:space="preserve">
  <style type="text/css">
    .st0 {
      fill: #18142B;
    }

    .st1 {
      fill: #CF2257;
    }
  </style>
  <g>
    <path class="st0" d="M40.3,47.6c-1.6,1.5-3.9,2.4-6.1,2.4c-4.5,0-7-3.4-7-9.7c0-6.1,2.8-10.1,7-10.1c2.1,0,4.1,0.8,6.1,2.5V47.6z
		 M48.7,55.7V11.1h-8.5v15.8h-0.1c-2.3-2.1-4.9-3.1-8-3.1c-8.6,0-13.9,6.3-13.9,16.6c0,10.1,4.9,16.2,12.8,16.2
		c3.5,0,6.9-1.5,9.8-4.5h0.1v3.6H48.7z" />
    <path class="st0" d="M75.7,46.7c0-10.6-13.2-8.4-13.2-13.8c0-2.2,2-3.1,4.6-3.1c2.2,0,4.7,0.6,6.9,1.8v-6.3c-1.8-0.7-4.7-1.5-8-1.5
		c-6.6,0-11.7,2.8-11.7,9.6c0,10.9,13,8.4,13,13.8c0,2.5-2,3.4-5,3.4c-2.9,0-5.4-0.9-8-2.1V55c2.9,1.2,6.4,1.7,8.9,1.7
		C70.2,56.6,75.7,53.7,75.7,46.7" />
    <path class="st0" d="M93.2,46.6V30.5h8.4v-6.1h-8.4v-8.7h-8.5v8.7h-5.1v6.1h5.1v16.2c0,6.8,3.6,9.9,10,9.9c2.8,0,5.7-0.6,7-1v-6.4
		c-1.2,0.4-2.8,0.8-4.6,0.8C95,50,93.2,49.3,93.2,46.6" />
    <path class="st0" d="M107.1,11.1v39c0,3.6,2.2,6.4,7.7,6.4c1.7,0,3.9-0.2,6.1-0.9v-5.8c-1,0.2-1.9,0.3-2.5,0.3
		c-1.5,0-2.8-0.4-2.8-2.3V11.1H107.1z" />
  </g>
  <g>
    <polygon class="st1" points="123.4,0 123.4,9.7 132,9.7 132,63.4 123.4,63.4 123.4,73.2 141.7,73.2 141.7,0 	" />
    <polygon class="st1" points="0,73.2 18.4,73.2 18.4,63.4 9.7,63.4 9.7,9.7 18.4,9.7 18.4,0 0,0 	" />
  </g>
  <g>
    <path class="st0" d="M408.8,42.8c1.8,0,2.6,1.4,2.6,3.4h-5.7C405.8,44.2,406.8,42.8,408.8,42.8 M408.7,39.5c-4.7,0-7.3,3.5-7.3,8.2
		c0,5.8,3.5,8.3,8,8.3c2.2,0,4.2-0.6,5.4-1.1v-3.2c-1.4,0.6-2.9,1.1-4.7,1.1c-2.7,0-4.3-1.2-4.4-3.8h9.6v-1.8
		C415.4,42.6,413.2,39.5,408.7,39.5 M387.4,47.9c0-3.1,1.4-5.1,3.5-5.1c1.1,0,2.1,0.4,3.1,1.2v7.5c-0.8,0.8-2,1.2-3.1,1.2
		C388.6,52.8,387.4,51,387.4,47.9 M382.9,47.9c0,5.1,2.4,8.2,6.5,8.2c1.8,0,3.5-0.8,4.9-2.3h0v1.8h3.9V33.1H394v8h0
		c-1.2-1.1-2.5-1.6-4.1-1.6C385.6,39.5,382.9,42.7,382.9,47.9 M375.5,55.6h4.3V39.9h-4.3V55.6z M379.8,33.4h-4.3v4h4.3V33.4z
		 M372.5,51.1c0-5.3-6.7-4.2-6.7-6.9c0-1.1,1-1.6,2.3-1.6c1.1,0,2.4,0.3,3.5,0.9v-3.2c-0.9-0.4-2.4-0.7-4.1-0.7
		c-3.3,0-5.9,1.4-5.9,4.8c0,5.5,6.5,4.2,6.5,7c0,1.3-1,1.7-2.5,1.7c-1.5,0-2.7-0.5-4-1.1v3.3c1.5,0.6,3.2,0.8,4.5,0.8
		C369.7,56.1,372.5,54.6,372.5,51.1 M354.3,55.6h4.3V45.5c0-4-1.6-6-5-6c-2.3,0-4.1,0.9-5.5,2.3h-0.1v-1.9h-3.9v15.8h4.3V44
		c0.8-0.7,2-1.1,3.2-1.1c1.9,0,2.8,0.9,2.8,2.7V55.6z M335.4,55.6h4.4v-21h-4.4V55.6z M316.9,42.8c1.8,0,2.6,1.4,2.6,3.4h-5.7
		C313.9,44.2,314.9,42.8,316.9,42.8 M316.8,39.5c-4.7,0-7.3,3.5-7.3,8.2c0,5.8,3.5,8.3,8,8.3c2.2,0,4.2-0.6,5.4-1.1v-3.2
		c-1.4,0.6-2.9,1.1-4.7,1.1c-2.7,0-4.3-1.2-4.4-3.8h9.6v-1.8C323.5,42.6,321.3,39.5,316.8,39.5 M307.8,55.3V52
		c-1.3,0.5-2.6,0.8-3.8,0.8c-2.7,0-4.4-1.4-4.4-5c0-3.6,1.8-4.9,4.5-4.9c1.1,0,2.3,0.2,3.4,0.6V40c-1.2-0.3-2.5-0.5-3.8-0.5
		c-4.7,0-8.6,2.5-8.6,8.4c0,5.6,3.6,8.2,8.1,8.2C304.7,56.1,306.2,55.8,307.8,55.3 M287.8,55.6h4.3V45.5c0-4-1.6-6-5-6
		c-2.3,0-4.1,0.9-5.5,2.3h-0.1v-1.9h-3.9v15.8h4.3V44c0.8-0.7,2-1.1,3.2-1.1c1.9,0,2.8,0.9,2.8,2.7V55.6z M267.7,42.8
		c1.8,0,2.6,1.4,2.6,3.4h-5.7C264.7,44.2,265.7,42.8,267.7,42.8 M267.6,39.5c-4.7,0-7.3,3.5-7.3,8.2c0,5.8,3.5,8.3,8,8.3
		c2.2,0,4.2-0.6,5.4-1.1v-3.2c-1.4,0.6-2.9,1.1-4.7,1.1c-2.7,0-4.3-1.2-4.4-3.8h9.6v-1.8C274.3,42.6,272.1,39.5,267.6,39.5
		 M252.9,55.6h4.3V39.9h-4.3V55.6z M257.2,33.4h-4.3v4h4.3V33.4z M250,55.3V52c-1.3,0.5-2.6,0.8-3.8,0.8c-2.7,0-4.4-1.4-4.4-5
		c0-3.6,1.8-4.9,4.5-4.9c1.1,0,2.3,0.2,3.4,0.6V40c-1.2-0.3-2.5-0.5-3.8-0.5c-4.7,0-8.6,2.5-8.6,8.4c0,5.6,3.6,8.2,8.1,8.2
		C246.9,56.1,248.4,55.8,250,55.3 M234.2,35.1c-1.6-0.6-3.4-0.9-5.2-0.9c-3.9,0-7.4,1.6-7.4,6.2c0,7.3,9.1,5.3,9.1,9.6
		c0,1.8-1.4,2.4-3.2,2.4c-1.8,0-4.1-0.6-5.9-1.6v4.1c1.8,0.8,3.9,1.2,5.9,1.2c4,0,7.7-1.8,7.7-6.5c0-7.4-9.1-5.3-9.1-9.5
		c0-1.6,1.3-2.2,3-2.2c1.6,0,3.5,0.5,5.1,1.1V35.1z M203.9,42.8c1.8,0,2.6,1.4,2.6,3.4h-5.7C200.9,44.2,201.9,42.8,203.9,42.8
		 M203.8,39.5c-4.7,0-7.3,3.5-7.3,8.2c0,5.8,3.5,8.3,8,8.3c2.2,0,4.2-0.6,5.4-1.1v-3.2c-1.4,0.6-2.9,1.1-4.7,1.1
		c-2.7,0-4.3-1.2-4.4-3.8h9.6v-1.8C210.5,42.6,208.3,39.5,203.8,39.5 M189.2,55.6h4.3V45.5c0-4.2-1.6-6-5.3-6
		c-1.5,0-3.4,0.7-4.9,1.9v-8.3H179v22.5h4.3V44c0.8-0.7,2-1.1,3.2-1.1c1.9,0,2.8,0.9,2.8,2.7V55.6z M170.6,38.5h6v-3.8h-16.6v3.8
		h6.1v17.2h4.4V38.5z" />
  </g>
</svg>
