<?xml version="1.0" encoding="UTF-8" standalone="no"?><!DOCTYPE svg PUBLIC "-//W3C//DTD SVG 1.1//EN" "http://www.w3.org/Graphics/SVG/1.1/DTD/svg11.dtd"><svg width="100%" height="100%" viewBox="0 0 4500 4500" version="1.1" xmlns="http://www.w3.org/2000/svg" xmlns:xlink="http://www.w3.org/1999/xlink" xml:space="preserve" xmlns:serif="http://www.serif.com/" style="fill-rule:evenodd;clip-rule:evenodd;stroke-miterlimit:10;"><rect x="197.5" y="197.5" width="4103.33" height="4103.33" style="fill:#fff;stroke:#1d1d1b;stroke-width:125px;"/><g><path d="M655.417,1946.67l510,-0c-280.417,155.833 -454.584,451.25 -454.584,772.083l0,55l110,0l0,-55c0,-413.333 325.417,-753.333 738.334,-771.25c62.916,3.75 123.333,26.667 173.333,65c-422.083,65.833 -746.25,431.667 -746.25,872.083l0,165.417l110.417,0l-0,-165.417c0.416,-422.5 340.416,-766.25 762.916,-772.083c22.084,12.5 45.417,22.917 69.584,31.25c-306.25,147.083 -501.25,456.25 -501.25,795.833l110.416,0c0.417,-338.333 220.417,-637.083 543.334,-737.5c-62.084,50.834 -117.084,110 -162.917,175.834c-104.167,148.333 -160,325.416 -159.583,506.666l-0,165.417l110.416,0l0,-165.417c-0.416,-158.75 48.334,-313.333 139.584,-443.333c38.75,-55 84.166,-105 135.833,-148.333c-72.083,130.416 -109.583,277.083 -110,425.833l-0,110.417l110.417,-0l-0,-110.417c-0,-140 38.333,-277.083 110.416,-397.5c72.084,120 110,257.5 110.417,397.5l-0,165.417l110.417,-0l-0,-165.417c-0,-148.75 -37.917,-295.417 -110,-425.833c52.083,43.75 97.916,94.166 136.666,149.583c90.417,129.583 139.167,283.75 138.75,441.667l0,165.416l110.417,0l-0,-165.416c-0,-281.667 -134.583,-546.667 -362.083,-712.917c393.333,40.833 692.5,372.5 692.916,767.917l110.417,-0c-1.667,-368.334 -230.417,-697.5 -575.833,-826.667c7.5,-0.417 15.416,-0.417 22.916,-0.417c426.25,0.417 771.667,345.834 772.084,772.084l-0,165.416l110.416,0l0,-165.416c-0.416,-487.084 -395.416,-882.084 -882.5,-882.5l-11.666,-0c396.25,-158.75 845.833,34.166 1004.17,430c36.667,91.25 55.417,188.333 55.417,286.666l-0,165.417l110.417,0l-0,-165.417c-0,-419.166 -293.75,-770.833 -686.25,-860.416c24.583,-20.834 43.333,-47.5 55.416,-77.084l553.75,0c97.917,0 177.5,-79.583 177.5,-177.5c0,-83.333 -57.916,-155.416 -139.166,-173.333l-897.084,-199.167c-3.75,-0.833 -7.916,-1.25 -12.083,-1.25l-2195.83,0c-30.417,0 -55,24.584 -55,55l-0,607.084c-0,30.416 24.583,55 55,55Zm55,-606.667l2135.42,-0l890.834,197.917c36.25,7.916 59.166,44.166 51.25,80.416c-6.667,30.834 -34.167,52.5 -65.834,52.5l-542.083,0c-17.083,-95.833 -100.417,-165.416 -197.5,-165.416l-847.5,-0l-0,110.416l847.083,0c50,0 90.417,40.417 90.417,90.417c0,46.25 -34.583,84.583 -80.417,90l-239.583,26.667c-96.25,10.833 -183.75,60.833 -242.083,138.333c-45.417,60.417 -116.667,95.833 -192.5,96.25l-247.5,0c-85.417,0.417 -167.084,-33.75 -227.5,-94.167c-80.834,-81.25 -190.834,-126.666 -305.417,-126.666l-827.083,-0l-0,-496.667Z" style="fill-rule:nonzero;"/><rect x="710.417" y="2884.17" width="110.417" height="386.25"/><rect x="986.25" y="3160" width="110.417" height="110.417"/><rect x="1427.5" y="3049.58" width="110.417" height="220.417"/><rect x="1758.33" y="3160" width="110.417" height="110.417"/><rect x="2034.17" y="2939.58" width="110.417" height="330.833"/><rect x="2365" y="2994.58" width="110.417" height="275.833"/><rect x="2640.83" y="3160" width="110.417" height="110.417"/><rect x="3082.08" y="3049.58" width="110.417" height="220.417"/><rect x="3412.92" y="3160" width="110.417" height="110.417"/><rect x="3688.75" y="2994.58" width="110.417" height="275.833"/></g></svg>