<?xml version="1.0" encoding="UTF-8" standalone="no"?><!DOCTYPE svg PUBLIC "-//W3C//DTD SVG 1.1//EN" "http://www.w3.org/Graphics/SVG/1.1/DTD/svg11.dtd"><svg width="100%" height="100%" viewBox="0 0 4500 4500" version="1.1" xmlns="http://www.w3.org/2000/svg" xmlns:xlink="http://www.w3.org/1999/xlink" xml:space="preserve" xmlns:serif="http://www.serif.com/" style="fill-rule:evenodd;clip-rule:evenodd;stroke-miterlimit:10;"><rect x="197.5" y="197.5" width="4103.33" height="4103.33" style="fill:#fff;stroke:#1d1d1b;stroke-width:125px;"/><g><g><g><path d="M1847.5,3141.25l-144.583,-83.333l-383.334,-35.417l-97.5,-9.167l421.25,244.584l206.667,-80.417l35.833,-13.75l-38.333,-22.5Z" style="fill:none;fill-rule:nonzero;stroke:#000;stroke-width:25px;"/><path d="M1168.75,2918.75l541.25,49.583l168.75,-97.5l31.667,-18.75l-273.75,-205.416l-467.917,272.083Z" style="fill:none;fill-rule:nonzero;stroke:#000;stroke-width:25px;"/><path d="M2714.58,3015l-195,-112.917l-524.583,0l-194.167,112.917l194.167,112.917l525.833,-0l193.75,-112.917Z" style="fill:none;fill-rule:nonzero;stroke:#000;stroke-width:25px;"/><path d="M2812.92,3057.92l-183.334,106.25l232.5,93.333l340.417,-199.167l76.25,-44.166l-465.833,43.75Z" style="fill:none;fill-rule:nonzero;stroke:#000;stroke-width:25px;"/><path d="M1999.17,2812.5l517.5,0l219.166,-172.5l-966.666,0l230,172.5Z" style="fill:none;fill-rule:nonzero;stroke:#000;stroke-width:25px;"/><path d="M3773.33,2592.92l-222.083,-0c-23.75,-0 -42.917,23.333 -42.917,52.083l0,2.083l308.75,0l-1.25,-9.583c-2.916,-25 -21.25,-44.583 -42.5,-44.583Z" style="fill:none;fill-rule:nonzero;stroke:#000;stroke-width:25px;"/><path d="M2527.92,3217.92l-537.5,-0l-112.5,43.333l757.916,0l-107.916,-43.333Z" style="fill:none;fill-rule:nonzero;stroke:#000;stroke-width:25px;"/><path d="M1065,2645l0,234.167l557.5,-324.167c0.833,-0.417 1.667,-0.417 2.5,-1.25c0.833,-0.417 2.083,-1.25 3.333,-1.667c2.5,-1.25 5.417,-1.666 7.917,-1.666c0.833,-0 1.25,-0.417 2.083,-0.417l1221.67,0c0.833,0 1.25,0.417 2.083,0.417c2.5,-0 5.417,0.416 7.5,1.666c1.25,0.417 2.084,1.25 3.334,1.667c0.833,0.417 1.666,0.417 2.5,1.25l558.75,324.167l-0,-234.167c-0,-77.917 52.5,-141.667 117.083,-141.667l17.5,0l-47.5,-148.333c-12.083,-37.5 -27.083,-73.333 -44.167,-107.083l-246.25,-476.667l-158.333,-306.25l-0.833,-0c-9.584,-1.667 -19.167,-4.167 -28.334,-7.917c-1.25,-0.416 -2.916,-1.25 -4.583,-1.666c-8.75,-3.75 -17.083,-9.167 -25.417,-15c-1.25,-1.25 -2.5,-2.084 -4.166,-3.334c-7.917,-6.25 -15,-13.333 -21.667,-22.083c-0.833,-1.25 -1.667,-2.083 -2.5,-3.333c-6.667,-9.167 -12.917,-18.75 -18.333,-29.584l-0.417,-1.25c-6.25,3.75 -12.5,7.084 -19.167,10.834c-2.916,1.666 -6.25,3.75 -9.166,5.416c-21.667,11.25 -45,22.5 -70.417,32.084c-3.333,1.666 -7.083,2.5 -10.417,4.166c-9.166,3.75 -18.75,7.084 -28.333,10.834c-5,1.666 -9.583,3.333 -15,5c-8.75,2.5 -17.083,5.833 -26.667,8.75c-5.833,1.666 -11.666,3.333 -17.083,5c-8.75,2.5 -17.083,5 -26.667,7.5c-6.25,1.666 -12.5,3.333 -18.75,5c-8.75,2.083 -17.5,4.166 -26.666,6.25c-6.667,1.666 -13.334,3.333 -20.417,4.166c-8.75,2.084 -18.333,3.75 -27.5,5.834c-7.083,1.666 -14.167,2.5 -21.25,4.166c-9.167,1.667 -18.75,3.334 -28.333,5c-7.084,1.25 -14.584,2.5 -22.084,3.75c-9.583,1.667 -19.583,2.5 -29.166,4.167c-7.5,1.25 -15,2.083 -22.5,3.333c-10,1.25 -20,2.5 -30,3.75c-7.5,1.25 -15,1.667 -22.917,2.5c-10.417,1.25 -21.25,2.084 -31.25,2.5c-7.5,0.417 -15,1.667 -22.5,2.084c-11.25,1.25 -22.5,1.666 -33.75,2.083c-7.083,0.417 -14.583,1.25 -21.667,1.25c-12.916,0.417 -25.833,1.25 -38.333,1.667c-6.25,-0 -12.083,0.416 -18.333,0.416c-19.167,0.417 -37.917,0.417 -57.5,0.417c-19.584,0 -38.75,-0.417 -58.334,-0.417c-6.666,0 -12.916,-0.416 -19.166,-0.416c-12.917,-0.417 -25.834,-1.25 -38.334,-1.667c-7.5,-0.417 -15,-1.25 -22.083,-1.667c-11.667,-0.416 -22.917,-1.666 -34.167,-2.083c-7.916,-0.417 -15.416,-1.25 -23.333,-2.083c-10.417,-1.25 -21.25,-2.084 -31.667,-3.334c-7.916,-0.416 -15.416,-1.666 -23.333,-2.5c-10,-1.25 -20.417,-2.083 -30.417,-3.75c-7.5,-1.25 -15,-2.083 -22.916,-3.333c-10,-1.667 -20,-2.5 -29.584,-4.167c-7.5,-1.25 -14.583,-2.083 -22.083,-3.75c-9.583,-1.666 -19.583,-3.333 -28.75,-5.416c-7.083,-1.667 -14.167,-2.5 -21.25,-4.167c-9.167,-2.083 -18.75,-3.75 -27.917,-5.833c-6.666,-1.667 -13.75,-3.334 -20.416,-5c-9.167,-2.084 -18.334,-4.167 -27.084,-7.084c-6.25,-1.666 -12.916,-3.333 -19.166,-5c-8.75,-2.5 -17.5,-5.416 -26.667,-7.5c-5.833,-1.666 -11.667,-3.333 -17.083,-5.416c-9.167,-2.5 -18.334,-5.834 -27.084,-9.167c-5,-1.667 -9.583,-3.333 -14.583,-5c-10,-3.75 -20.417,-7.5 -30,-11.667c-2.917,-1.25 -6.25,-2.083 -8.75,-3.75c-12.5,-5.416 -24.583,-10.833 -36.25,-16.25c-2.5,-1.25 -5,-2.5 -7.5,-3.75c-8.75,-4.166 -17.5,-8.75 -26.25,-13.333c-4.167,-2.083 -7.5,-4.167 -11.667,-6.25c-5.416,-3.333 -11.25,-6.25 -16.25,-9.583l-2.5,5.416c-5.416,10.834 -11.25,20.417 -18.333,29.584c-0.833,1.25 -1.667,2.5 -2.5,3.75c-6.667,7.916 -13.75,15.416 -21.667,21.25c-1.25,1.25 -2.5,2.083 -4.583,3.75c-7.917,5.833 -15.833,10.833 -24.583,15c-1.25,0.416 -2.917,1.25 -4.584,2.083c-9.166,3.75 -18.75,6.25 -28.333,7.917l-0.833,-0l-394.584,719.166c-40.416,73.334 -70.416,154.167 -89.583,239.167l-17.5,79.583l27.5,0c66.667,1.25 118.75,64.584 118.75,142.917Z" style="fill:none;fill-rule:nonzero;stroke:#000;stroke-width:25px;"/><path d="M1536.25,1278.33c87.917,67.5 248.333,118.334 439.167,143.334c35,5 70.833,8.75 107.083,11.25c36.667,2.5 73.75,5 112.083,5.833c19.167,0.417 37.917,0.417 57.084,0.417c244.166,-0 474.166,-40.834 621.666,-107.084c34.167,-15.416 63.75,-32.083 87.917,-49.583c42.083,-30.417 65,-62.5 65,-90.417l0,-43.333c-2.083,2.083 -5,3.75 -7.083,5.417c-5,4.166 -10.417,8.75 -15.834,12.916c-5.833,4.167 -12.083,8.75 -18.75,13.334c-6.25,4.166 -12.5,7.916 -19.583,12.5c-7.083,4.166 -14.167,7.916 -21.667,12.5c-7.083,3.75 -14.166,7.5 -21.666,11.25c-7.917,4.166 -16.667,7.916 -25.417,11.666c-7.5,3.334 -15.417,7.084 -23.333,10c-9.584,3.75 -19.584,7.5 -29.584,11.25c-7.916,3.334 -15.833,5.834 -24.166,9.167c-11.25,3.75 -22.917,7.5 -35,11.25c-7.917,2.5 -15.834,5 -24.167,7.5c-13.75,3.75 -27.917,7.5 -42.5,10.833c-7.083,1.667 -14.167,3.75 -21.25,5.417c-22.083,5 -44.583,9.583 -68.333,14.583l-0.417,0c-37.917,7.084 -75.833,12.917 -113.333,17.084l-7.5,1.25c-18.75,2.083 -37.084,4.166 -56.667,5.833l-7.5,0.417c-17.5,1.666 -35.417,2.5 -53.333,3.75l-7.5,0.416c-19.167,1.25 -37.917,2.084 -57.5,2.5l-12.5,0.417c-20,0.417 -40,1.25 -60,1.25c-20.417,0 -40.417,-0.417 -60,-1.25l-12.5,-0.417c-19.584,-0.416 -38.334,-1.666 -57.5,-2.5l-4.167,-0.416c-21.25,-1.667 -38.75,-2.5 -56.667,-4.167l-7.916,-0.417c-19.167,-1.666 -37.5,-3.75 -56.25,-5.833l-0.417,0l-7.5,-1.25c-37.917,-5 -75.833,-10 -112.5,-17.083c-0.417,-0 -0.833,-0 -1.667,-0.417c-22.916,-4.167 -45.416,-9.167 -67.083,-13.75c-7.083,-1.667 -13.333,-3.333 -20.417,-5c-15,-3.75 -29.583,-7.5 -43.75,-11.25c-7.916,-2.083 -15,-5 -22.916,-7.083c-12.5,-3.75 -24.584,-7.5 -36.667,-11.667c-7.917,-2.5 -15,-5.417 -22.5,-7.917c-10.417,-3.75 -21.667,-7.916 -31.667,-12.5c-7.5,-3.333 -14.166,-6.25 -21.25,-9.166c-9.583,-4.167 -19.166,-8.75 -27.916,-12.917c-6.667,-3.333 -12.917,-7.083 -19.584,-10c-8.333,-4.167 -16.25,-9.167 -24.166,-13.75c-5.834,-3.75 -11.667,-7.5 -17.084,-10.833c-7.083,-5 -14.166,-9.584 -20.416,-14.584c-5,-3.75 -10,-7.5 -14.584,-11.666c-2.083,-2.084 -5.416,-3.75 -7.5,-5.834l0,43.334c0,25.833 20.834,56.25 59.167,85.416Z" style="fill:none;fill-rule:nonzero;stroke:#000;stroke-width:25px;"/><path d="M3331.25,2918.75l-259.583,-150.833l-207.917,-120.834l-260.833,204.167l202.916,117.083l525.417,-49.583Z" style="fill:none;fill-rule:nonzero;stroke:#000;stroke-width:25px;"/><path d="M1372.92,1366.67c0.416,-0 0.416,-0 -0,-0c8.75,5.833 19.166,9.583 30,10c24.583,1.25 47.916,-13.75 59.583,-39.167l4.167,-8.75c-0.834,-1.25 -1.667,-2.083 -2.5,-3.333c-9.167,-9.584 -18.334,-18.75 -25.834,-28.75l-0.416,-0.417c-7.084,-9.583 -12.917,-19.583 -17.5,-29.583c-0.834,-2.084 -1.667,-3.75 -2.5,-5.834c-4.584,-10 -7.917,-19.583 -10.417,-30.416c-0.417,-2.084 -0.833,-4.167 -1.25,-5.834c-2.083,-10.833 -3.333,-21.25 -3.333,-32.5l-0,-47.083l-53.334,112.5c-8.75,18.333 -11.25,40 -6.25,60.833c5,20.834 15,37.917 29.584,48.334Z" style="fill:none;fill-rule:nonzero;stroke:#000;stroke-width:25px;"/><rect x="1677.92" y="3350.42" width="1149.58" height="494.167" style="fill:none;stroke:#000;stroke-width:25px;"/><path d="M1604.17,3333.75l-591.667,-342.917c-0.417,-0.416 -0.833,-1.25 -1.667,-1.666c-0.416,-0.417 -1.25,-0.417 -1.666,-1.25c-0.834,-0.417 -1.667,-2.084 -2.5,-2.5c-0.417,-0.417 -1.25,-1.25 -1.667,-1.667l-0.417,0c-0.416,-0.417 -0.416,-1.25 -0.833,-1.667c-0.417,-0.416 -0.833,-0.416 -0.833,-1.25c-0.834,-1.666 -1.667,-3.333 -2.5,-4.166c-0.834,-0.834 -1.667,-2.084 -2.084,-3.75c0,-0.417 -0.416,-0.417 -0.416,-1.25c-0.417,-0.417 -0.417,-1.667 -0.834,-2.084c-0.416,-1.25 -0.833,-2.083 -1.25,-3.333c0,-0.417 0,-0.417 -0.416,-0.417c-0.417,-1.25 -0.834,-2.083 -1.25,-3.75c-0,-0.416 -0.417,-1.666 -0.417,-2.083c0,-0.417 -0.417,-0.417 -0.417,-1.25l0,-2.083c0,-1.25 -0.416,-2.084 -0.416,-3.75c-0,-1.25 -0.417,-1.667 -0.417,-2.5l0,-162.5l-326.25,-0l-87.083,701.666l449.166,0c5.834,0 11.25,1.667 15.834,4.167l560,324.167l-0,-484.167Z" style="fill:none;fill-rule:nonzero;stroke:#000;stroke-width:25px;"/><path d="M948.333,2592.92l-222.5,-0c-21.25,-0 -39.583,19.166 -42.5,44.583l-1.25,9.583l308.75,-2.083c0.417,-28.75 -19.166,-52.083 -42.5,-52.083Z" style="fill:none;fill-rule:nonzero;stroke:#000;stroke-width:25px;"/><path d="M3183.75,1421.67c-1.667,1.666 -2.917,3.75 -5,5.416c-6.25,6.25 -12.917,12.5 -20.417,17.5c-2.083,1.667 -5,3.334 -7.083,5l388.333,751.25c20,38.334 37.084,79.584 50.417,122.084l57.917,180.416l50,0l-64.584,-201.25c-14.583,-45.416 -32.916,-90 -54.583,-131.666l-390.417,-755c-0.833,2.083 -2.916,4.166 -4.583,6.25Z" style="fill:none;fill-rule:nonzero;stroke:#000;stroke-width:25px;"/><path d="M3508.33,2788.33l0,163.334c0,2.083 0,3.75 -0.416,5.833l-0,1.25c-0,0.417 -0.417,1.25 -0.417,1.667c-0.417,1.666 -0.833,3.333 -1.25,5c-0.417,2.083 -1.25,4.166 -2.083,5.833c-0.417,0.417 -0.417,1.25 -0.417,1.667c-0.833,2.083 -2.083,3.75 -2.917,5.416c-0.833,1.667 -1.666,3.334 -2.916,4.167c-2.5,3.333 -5.834,6.25 -9.167,7.917l-586.25,342.916l0,483.334l554.167,-324.167c5,-2.5 10.416,-4.167 15.833,-4.167l448.75,0l-85.833,-701.25c-0.834,1.25 -327.084,1.25 -327.084,1.25Z" style="fill:none;fill-rule:nonzero;stroke:#000;stroke-width:25px;"/><path d="M1477.08,1003.75c0,14.583 6.667,30.417 20,47.5c3.334,4.167 7.084,8.75 11.25,12.917c45.417,47.5 131.667,90.833 244.167,122.916c6.25,1.667 12.5,3.75 18.75,5.417c35.833,9.583 74.167,18.75 115,26.25c36.667,7.083 73.333,12.5 110.417,16.667l6.666,0.416c18.334,2.084 36.667,4.167 55.417,5.834l6.667,0.416c17.5,1.667 35,2.5 52.5,3.75l4.166,0.417c21.667,1.25 40.834,2.083 59.584,2.5l12.083,0.417c38.75,1.25 78.333,1.25 117.083,-0l12.5,-0.417c19.167,-0.417 37.5,-1.667 56.25,-2.5l7.084,0c17.083,-1.25 34.583,-2.083 51.666,-3.75l0.834,0l6.25,-0.417c18.75,-1.666 37.083,-3.75 55,-5.833l6.25,-0.417c37.083,-4.166 73.75,-10 109.166,-16.666l0.417,-0c179.583,-33.334 317.083,-90 379.167,-155c18.333,-19.584 27.916,-37.084 30,-52.084c0.416,-2.5 0.833,-5.416 0.833,-8.75c-0.417,-5.833 -0.833,-7.5 -0.833,-9.166c-20,-112.5 -342.084,-237.917 -773.75,-237.917c-422.917,0 -741.25,120 -772.5,231.667c-1.667,5.416 -2.084,10.833 -2.084,15.833Z" style="fill:none;fill-rule:nonzero;stroke:#000;stroke-width:25px;"/><path d="M3100.42,1172.08l-0,20.417c-0,7.083 -0.417,14.583 -1.25,21.25c-0.417,2.083 -0.834,4.167 -1.25,6.25c-0.834,5 -1.667,9.583 -2.917,13.75c-0.417,2.5 -1.25,5.417 -2.083,7.5c-1.25,4.167 -2.917,8.75 -5,12.917c-0.834,2.5 -2.084,5 -2.917,7.5c-2.083,4.166 -4.583,8.75 -6.667,13.333c-1.25,2.083 -2.083,4.167 -3.333,6.25c-3.333,5.833 -7.5,11.25 -12.083,17.083c-0.417,0.417 -0.834,1.667 -1.25,2.084c-5,6.25 -10,12.5 -15.834,18.333c-1.666,2.083 -4.166,3.75 -5.833,5.833c-2.917,3.334 -5.833,5.834 -9.167,9.167l1.25,3.333c12.084,25 35.417,39.584 60,39.167c11.25,-0.417 21.25,-3.75 29.584,-10c15,-10.833 26.25,-27.917 30.416,-49.167c4.584,-20.416 2.084,-41.666 -6.666,-60l-45.417,-94.583c0.417,3.75 0.417,6.25 0.417,9.583Z" style="fill:none;fill-rule:nonzero;stroke:#000;stroke-width:25px;"/><path d="M867.083,2400.42c21.25,-94.167 54.584,-183.334 99.167,-265.417l376.667,-686.667c-2.084,-1.666 -4.584,-2.5 -6.667,-4.166c-7.083,-5 -13.75,-11.25 -20,-17.5c-1.667,-1.667 -2.917,-3.75 -5,-5.417c-2.083,-2.083 -4.583,-4.167 -6.25,-7.083l-377.917,688.75c-47.5,86.666 -82.916,181.25 -105.416,281.666l-26.25,117.5l48.333,0l23.333,-101.666Z" style="fill:none;fill-rule:nonzero;stroke:#000;stroke-width:25px;"/><path d="M3903.33,2739.17c0,-0.417 0.417,-1.667 0,-2.084l-6.25,-52.083c0,-1.25 -0.416,-1.667 -0.416,-2.083l-7.084,-58.75c-8.333,-66.667 -55.833,-117.5 -111.666,-120.417l-74.584,-233.75c-16.25,-50.833 -36.666,-100 -60.416,-147.083l-415.417,-804.167c4.167,-37.083 -1.25,-73.75 -16.667,-105.833l-111.25,-232.5l0,-0.417c0,-1.25 -0.416,-2.5 -0.416,-3.75c-0.417,-2.083 -0.834,-4.167 -1.25,-6.25l-0,-0.417c-43.334,-199.166 -455.417,-302.916 -845,-302.916c-361.667,-0 -775.834,89.166 -840.417,285c-2.917,5.416 -6.667,10 -9.583,16.25l-116.667,245c-15.417,32.5 -20.833,70 -16.667,107.083l-402.916,734.167c-51.667,94.583 -90.834,198.333 -115,307.5l-31.667,141.666c-54.583,4.167 -100.417,54.167 -108.75,120l-7.5,60.417l0,0.417l-6.25,52.083l0,1.25l-97.083,790c-1.667,12.917 1.666,26.25 8.333,35.833c7.083,9.584 17.083,15.417 27.917,15.417l483.333,0l604.583,350.417l0.417,-0c5,2.5 10,4.166 15.833,4.166l1223.33,0c5.416,0 10.416,-1.666 15.416,-4.166l0.834,-0l599.583,-350l483.333,-0c10.417,-0 20.834,-5.834 27.917,-15.417c7.083,-9.583 10,-22.917 8.333,-35.833l-96.25,-788.75Zm-87.5,-101.667l1.25,9.583l-308.75,0l0,-2.083c0,-28.75 19.584,-52.083 42.917,-52.083l222.5,-0c20.833,-0 39.167,18.75 42.083,44.583Zm-2877.5,-213.75c19.167,-85 49.167,-165.417 89.584,-239.167l394.583,-719.166l0.833,-0c9.584,-1.667 19.167,-4.167 28.334,-7.917c1.666,-0.417 2.916,-1.25 4.583,-2.083c8.75,-3.75 16.667,-9.167 24.583,-15c1.25,-1.25 2.917,-2.084 4.584,-3.75c7.5,-6.25 15,-13.334 21.666,-21.25c0.834,-1.25 1.667,-2.5 2.5,-3.75c6.667,-9.167 12.917,-18.75 18.334,-29.584l2.5,-5.416c5.416,3.333 11.25,6.25 16.25,9.583c4.166,2.083 7.5,4.167 11.666,6.25c8.334,5 17.084,9.167 26.25,13.333c2.5,1.25 5,2.5 7.5,3.75c11.667,5.417 23.75,10.834 36.25,16.25c2.917,1.25 6.25,2.084 8.75,3.75c9.584,3.75 19.584,7.917 30,11.667c5,1.667 9.584,3.333 14.584,5c8.75,3.333 17.5,5.833 27.083,9.167c5.833,1.666 11.667,3.333 17.083,5.416c8.75,2.5 17.5,5.417 26.667,7.5c6.25,1.667 12.5,3.334 19.167,5c8.75,2.084 18.333,5 27.083,7.084c6.667,1.666 13.333,3.333 20.417,5c9.166,2.083 18.75,4.166 27.916,5.833c7.084,1.667 14.167,2.5 21.25,4.167c9.167,1.666 19.167,3.75 28.75,5.416c7.5,1.25 14.584,2.5 22.084,3.75c9.583,1.667 20,3.334 29.583,4.167c7.5,1.25 15,2.083 22.917,3.333c10,1.25 20.416,2.5 30.416,3.75c7.5,1.25 15.417,1.667 23.334,2.5c10.416,1.25 21.25,2.084 31.666,3.334c7.917,0.416 15.417,1.666 23.334,2.083c11.25,1.25 22.5,1.667 34.166,2.083c7.5,0.417 14.584,1.25 22.084,1.667c12.916,0.417 25.833,1.25 38.333,1.667c6.667,-0 12.917,0.416 19.167,0.416c19.583,0.417 38.75,0.417 58.333,0.417c19.167,0 38.333,-0.417 57.5,-0.417c6.25,0 12.083,-0.416 18.333,-0.416c12.917,-0.417 25.834,-1.25 38.334,-1.667c7.5,-0.417 14.583,-1.25 21.666,-1.25c11.25,-0.417 22.5,-1.25 33.75,-2.083c7.5,-0.417 15,-1.25 22.5,-2.084c10.417,-1.25 21.25,-1.666 31.25,-2.5c7.5,-0.416 15,-1.666 22.917,-2.5c10,-1.25 20.417,-2.083 30,-3.75c7.5,-1.25 15,-2.083 22.5,-3.333c9.583,-1.667 19.583,-2.5 29.167,-4.167c7.5,-1.25 14.583,-2.083 22.083,-3.75c9.167,-1.666 19.167,-3.333 28.333,-5c7.084,-1.25 14.167,-2.5 21.25,-4.166c9.167,-1.667 18.75,-3.75 27.5,-5.834c6.667,-1.666 13.75,-3.333 20.417,-4.166c8.75,-2.084 18.333,-4.167 26.667,-6.25c6.25,-1.667 12.5,-3.334 18.75,-5c8.75,-2.084 17.5,-5 26.666,-7.5c5.834,-1.667 11.667,-3.334 17.084,-5c8.75,-2.5 17.5,-5.834 26.666,-8.75c5,-1.667 10,-3.334 15,-5c9.584,-3.334 19.167,-7.084 28.334,-10.834c3.333,-1.666 7.083,-2.5 10.416,-4.166c25.417,-10 48.75,-20.834 70.417,-32.084c2.917,-1.666 6.25,-3.75 9.167,-5.416c6.25,-3.75 12.916,-7.084 19.166,-10.834l0.417,1.25c5.417,10.834 11.667,20.417 18.333,29.584c0.834,1.25 1.667,2.083 2.5,3.333c6.667,7.917 14.167,15.417 21.667,22.083c1.25,1.25 2.5,2.084 4.167,3.334c7.916,5.833 16.25,11.25 25.416,15c1.25,0.416 2.917,1.25 4.584,1.666c9.166,3.75 18.75,6.25 28.333,7.917l0.833,-0l158.334,306.25l246.25,476.667c17.5,33.75 32.5,70 44.166,107.083l47.5,148.333l-17.5,0c-64.583,0 -117.083,63.75 -117.083,141.667l0,232.917l-557.5,-324.167c-0.833,-0.417 -1.667,-0.417 -2.5,-1.25c-1.25,-0.417 -2.083,-1.25 -3.333,-1.667c-2.5,-1.25 -5,-1.25 -7.5,-1.666c-0.834,-0 -1.25,-0.417 -2.084,-0.417l-1224.58,0c-0.833,0 -1.25,0.417 -2.083,0.417c-2.5,-0 -5.417,0.416 -7.917,1.666c-1.25,0.417 -2.083,1.25 -3.333,1.667c-0.834,0.417 -1.667,0.417 -2.5,1.25l-557.917,324.167l-0,-234.167c-0,-77.917 -52.5,-141.667 -117.083,-141.667l-27.5,0l17.916,-79.583Zm538.75,-1274.58c2.084,2.083 5.417,3.75 7.5,5.833c5,3.75 9.584,7.917 14.584,11.667c6.666,5 13.333,9.583 20.416,14.583c5.834,3.75 11.25,7.5 17.084,10.833c7.5,5 15.833,9.167 24.166,13.75c6.25,3.334 12.917,7.084 19.584,10c8.75,4.167 18.333,8.75 27.916,12.917c7.084,3.333 14.167,6.25 21.25,9.167c10,4.166 20.834,7.916 31.667,12.5c7.5,2.5 14.583,5.416 22.5,7.916c12.083,3.75 24.167,7.917 36.667,11.667c7.5,2.083 15,5 22.916,7.083c14.167,3.75 29.167,7.5 43.75,11.25c6.667,1.667 13.334,3.75 20.417,5c21.667,5 43.75,9.584 67.083,13.75c0.417,0 0.834,0 1.667,0.417c36.25,7.083 74.167,12.5 112.5,17.083l7.5,1.25l0.417,0c18.75,2.084 37.083,4.167 56.25,5.834l7.916,0.416c17.5,1.667 35.417,2.5 56.667,4.167l4.167,0.417c19.166,1.25 38.333,2.083 57.5,2.5l12.5,0.416c20,0.417 40,1.25 60,1.25c20.416,0 40.416,-0.416 60,-1.25l12.5,-0.416c19.583,-0.417 38.333,-1.667 57.5,-2.5l7.5,-0.417c18.333,-1.25 35.833,-2.083 53.333,-3.75l7.5,-0.417c19.167,-1.666 37.917,-3.75 56.667,-5.833l7.5,-1.25c37.916,-5 75.833,-10 113.333,-17.083l0.417,-0c23.333,-4.167 45.833,-9.167 68.333,-14.584c7.5,-1.666 14.167,-3.75 21.25,-5.416c14.167,-3.75 28.75,-7.084 42.5,-10.834c8.333,-2.083 15.833,-5 24.167,-7.5c12.083,-3.75 23.333,-7.083 35,-11.25c8.333,-2.5 16.25,-5.833 24.166,-9.166c10,-3.75 20,-7.5 29.584,-11.25c7.916,-3.334 15.416,-7.084 23.333,-10c8.75,-3.75 17.083,-7.917 25.417,-11.667c7.5,-3.75 14.583,-7.5 21.666,-11.25c7.5,-4.167 14.584,-7.917 21.667,-12.5c6.667,-4.167 13.333,-7.917 19.583,-12.5c6.667,-4.167 12.5,-8.75 18.75,-13.333c5.834,-4.167 11.25,-8.75 15.834,-12.917c2.083,-2.083 5,-3.75 7.083,-5.417l-0,43.334c-0,27.083 -22.917,59.166 -65,90.416c-24.167,17.5 -54.167,34.584 -87.917,49.584c-147.5,66.25 -377.083,107.083 -621.666,107.083c-19.167,0 -37.917,0 -57.084,-0.417c-37.916,-1.25 -75.416,-2.5 -112.083,-5.833c-36.667,-2.5 -72.5,-6.25 -107.083,-11.25c-191.25,-25 -351.25,-75.833 -439.167,-143.333c-37.917,-29.584 -59.167,-60 -59.167,-86.25l0,-42.5Zm1386.67,1497.92l208.333,120.834l259.584,150.833l-525.834,49.583l-202.916,-117.083l260.833,-204.167Zm-347.083,165.417l-517.5,0l-230,-172.083l966.666,-0l-219.166,172.083Zm-637.917,58.333l-168.75,97.917l-541.667,-49.583l468.334,-272.084l273.75,205.417l-31.667,18.333Zm-235.417,387.084l-421.666,-244.584l97.5,9.167l383.75,35.417l144.166,84.166l38.334,22.5l-36.25,13.75l-205.834,79.584Zm351.667,-130l-194.167,-112.917l194.167,-112.917l523.75,0l195.417,112.917l-193.334,112.917l-525.833,-0Zm867.083,129.583l-232.5,-93.75l183.334,-106.25l465.833,-43.75l-75.833,44.583l-340.834,199.167Zm-871.666,-39.583l537.5,-0l107.916,43.333l-757.916,0l112.5,-43.333Zm1643.75,-915.417l64.583,201.25l-50.417,0l-57.916,-180.417c-13.75,-42.083 -30.417,-83.333 -50.417,-122.083l-388.75,-751.25c2.5,-1.667 5,-3.333 7.083,-5c7.084,-5 13.75,-11.25 20.417,-17.5c1.667,-1.667 2.917,-3.75 5,-5.417c1.667,-2.083 4.167,-3.75 5.417,-5.833l390,755.417c21.666,41.25 40.416,85.416 55,130.833Zm-482.084,-985c-4.583,20.833 -15.416,38.333 -30.416,49.167c-8.334,5.833 -18.75,9.166 -29.584,10c-24.583,0.416 -48.333,-13.75 -60,-39.167l-1.25,-3.333c2.917,-3.334 6.25,-5.834 9.167,-9.167c1.667,-2.083 4.167,-3.75 5.833,-5.833c5.834,-5.834 11.25,-12.5 15.834,-18.334c0.416,-0.416 0.833,-1.666 1.25,-2.083c4.583,-5.417 7.916,-11.25 12.083,-17.083c1.25,-2.084 2.5,-4.167 3.333,-6.25c2.5,-4.167 5,-8.75 6.667,-13.334c1.25,-2.5 2.083,-5 2.917,-7.5c1.666,-4.166 2.916,-8.75 5,-12.916c0.833,-2.5 1.666,-5 2.083,-7.5c1.25,-5 2.083,-9.584 2.917,-13.75c0.416,-2.084 0.833,-4.167 1.25,-6.25c0.833,-7.084 1.25,-13.75 1.25,-21.25l-0,-29.167l45,94.583c9.166,17.5 11.25,38.75 6.666,59.167Zm-900.416,-560.833c431.25,-0 754.166,125 773.75,237.916c0.416,1.667 0.416,3.334 0.833,9.167c-0,2.5 -0.417,5.417 -0.833,8.75c-2.084,15.417 -12.084,32.5 -30,52.083c-62.084,65.417 -199.584,121.25 -379.167,155l-0.417,0c-35.416,6.25 -72.083,12.5 -109.166,16.667l-6.25,0.417c-18.334,2.083 -36.25,4.166 -55,5.833l-6.25,0.417l-0.834,-0c-17.083,1.666 -34.583,2.5 -51.666,3.75l-7.084,-0c-18.75,1.25 -37.083,2.083 -56.25,2.5l-12.5,0.416c-38.333,1.25 -77.916,1.25 -117.083,0l-12.083,-0.416c-19.167,-0.417 -37.5,-1.667 -59.584,-2.5l-4.166,-0.417c-17.5,-1.25 -35,-2.083 -52.5,-3.75l-7.084,-0.833c-18.75,-1.667 -36.666,-3.75 -55.416,-5.834l-6.667,-0.416c-37.083,-4.167 -73.75,-10 -110.417,-16.667c-40.833,-7.5 -78.75,-16.667 -115,-26.25c-6.25,-1.667 -12.5,-3.333 -18.75,-5.417c-112.916,-32.5 -198.75,-75.416 -244.166,-122.916c-4.167,-4.167 -7.5,-8.75 -11.25,-12.917c-13.334,-17.083 -20,-33.333 -20,-47.5c-0,-5 0.833,-10 2.083,-15.417c31.667,-112.083 350,-231.666 772.917,-231.666Zm-902.5,501.666l53.333,-112.5l-0,46.667c-0,11.25 1.25,22.083 3.333,32.5c0.417,2.083 0.834,4.167 1.25,5.833c2.5,10 6.25,20.417 10.417,30.417c0.833,2.083 1.667,3.75 2.5,5.833c5,10 10.417,19.584 17.5,29.584l0.417,0.416c7.083,9.584 15.833,19.167 25.833,28.75c0.833,1.25 1.667,2.084 2.5,3.334l-4.167,8.75c-12.083,25 -35.416,40 -59.583,39.166c-11.667,-0.416 -21.25,-3.75 -30,-10c-15,-10.833 -25.833,-27.916 -30.417,-48.333c-4.166,-20.833 -1.666,-42.5 7.084,-60.417Zm-527.084,1127.08c22.5,-100 57.917,-195 105.417,-281.667l377.917,-688.75c1.666,2.083 4.166,4.167 6.25,7.083c1.666,1.667 2.916,3.75 5,5.417c6.25,6.25 12.916,12.5 20,17.5c2.083,1.667 4.583,2.5 6.666,4.167l-376.666,686.666c-44.584,81.25 -77.917,170.417 -99.167,265.417l-22.917,103.333l-48.75,0l26.25,-119.166Zm-138.75,252.083c2.917,-25 21.25,-44.583 42.5,-44.583l222.5,-0c23.75,-0 42.917,23.333 42.917,52.083l-308.75,2.083l0.833,-9.583Zm345,852.083l-449.583,0l85.833,-701.25l326.25,0l0,162.5c0,1.25 0.417,1.667 0.417,2.5c-0,1.25 -0,2.084 0.417,3.75l-0,2.084c-0,0.416 0.416,0.416 0.416,1.25c0,0.833 0.417,1.666 0.417,2.083c0.417,1.25 0.833,2.083 1.25,3.75c-0,0.417 -0,0.417 0.417,0.417c0.416,1.25 0.416,2.083 1.25,3.333c0.416,0.417 0.416,1.667 0.833,2.083c-0,0.417 0.417,0.417 0.417,1.25c0.416,1.25 1.25,2.084 2.083,3.75c0.833,1.667 1.667,3.334 2.5,4.167c0.417,0.417 0.833,0.417 0.833,1.25c0.417,0.417 0.417,1.25 0.834,1.667l0.416,-0c0.417,0.416 1.25,1.25 1.667,1.666c0.833,1.25 1.667,2.084 2.5,2.5c0.417,0.417 1.25,0.417 1.667,1.25c0.416,0.417 0.833,1.25 1.666,1.667l593.334,342.5l-0,484.167l-559.584,-324.167c-5,-2.917 -10.833,-4.167 -16.25,-4.167Zm649.584,-139.166l1149.58,-0l-0,494.166l-1149.58,0l-0,-494.166Zm1793.75,139.166c-5.834,0 -11.25,1.667 -15.834,4.167l-554.166,324.167l-0,-484.167l586.25,-342.917c3.333,-2.083 6.666,-5 9.166,-7.916c1.25,-1.25 1.667,-2.5 2.917,-4.167c1.25,-1.667 2.083,-3.333 2.917,-5.417c0.416,-0.416 0.416,-1.25 0.416,-1.666c0.834,-2.084 1.25,-3.75 2.084,-5.834c0.416,-1.666 0.833,-3.333 1.25,-5c-0,-0.416 0.416,-1.25 0.416,-1.666l0,-1.25c0.417,-2.084 0.417,-3.75 0.417,-5.834l-0,-163.333l326.25,0l85.833,701.25l-447.916,0l-0,-0.417Z" style="fill-rule:nonzero;stroke:#000;stroke-width:25px;"/></g></g><path d="M1627.92,1162.5l-0,-0.833c-0,-4.167 0.833,-9.167 1.666,-13.75c25,-100.417 280,-208.334 619.167,-208.334c345.833,0 604.167,112.5 620,214.167c0.417,1.25 0.417,2.917 0.833,8.333l0,0.834l67.917,-0l-9.583,-22.084l-0,-0.416c-0,-0.834 -0.417,-2.5 -0.417,-3.334c-0.417,-2.083 -0.833,-3.75 -1.25,-5.833l0,-0.417c-34.583,-179.166 -364.583,-272.5 -676.667,-272.5c-289.583,0 -621.666,80.417 -673.333,256.25c-2.5,5 -5.417,9.167 -7.917,14.584l-14.166,33.333l73.75,0Z" style="fill-rule:nonzero;stroke:#000;stroke-width:25px;"/></g></svg>