<?xml version="1.0" encoding="UTF-8" standalone="no"?><!DOCTYPE svg PUBLIC "-//W3C//DTD SVG 1.1//EN" "http://www.w3.org/Graphics/SVG/1.1/DTD/svg11.dtd"><svg width="100%" height="100%" viewBox="0 0 4500 4500" version="1.1" xmlns="http://www.w3.org/2000/svg" xmlns:xlink="http://www.w3.org/1999/xlink" xml:space="preserve" xmlns:serif="http://www.serif.com/" style="fill-rule:evenodd;clip-rule:evenodd;stroke-miterlimit:10;"><rect x="197.5" y="197.5" width="4103.33" height="4103.33" style="fill:#fff;stroke:#1d1d1b;stroke-width:125px;"/><g><g><circle cx="1524.58" cy="1527.92" r="586.25" style="fill:none;stroke:#000;stroke-width:125px;stroke-miterlimit:9.9999;"/><circle cx="1525.42" cy="1316.25" r="165.417" style="fill:none;stroke:#000;stroke-width:125px;"/><path d="M1932.5,1950.83l0,-96.666c0,-110.417 -75.833,-200 -179.167,-234.584l-27.5,-7.083l-200,200l-200,-200l-27.5,7.083c-103.333,27.5 -179.166,124.167 -179.166,234.584l-0,103.333" style="fill:none;fill-rule:nonzero;stroke:#000;stroke-width:125px;"/></g><rect x="663.333" y="661.25" width="3172.08" height="2689.17" style="fill:none;stroke:#000;stroke-width:125px;"/><g><path d="M1697.92,3350.83l-0,482.5" style="fill:none;fill-rule:nonzero;stroke:#000;stroke-width:125px;"/><path d="M2801.25,3350.83l0,482.5" style="fill:none;fill-rule:nonzero;stroke:#000;stroke-width:125px;"/></g><path d="M1352.92,3833.33l1792.92,0" style="fill:none;fill-rule:nonzero;stroke:#000;stroke-width:125px;"/><path d="M3835.42,2937.08l-3172.08,0" style="fill:none;fill-rule:nonzero;stroke:#000;stroke-width:125px;"/><g><path d="M932.5,2385.42l1179.17,-0" style="fill:none;fill-rule:nonzero;stroke:#000;stroke-width:125px;"/><path d="M1139.17,2661.25l765.416,0" style="fill:none;fill-rule:nonzero;stroke:#000;stroke-width:125px;"/></g><g><circle cx="2972.5" cy="1527.92" r="586.25" style="fill:none;stroke:#000;stroke-width:125px;stroke-miterlimit:9.9999;"/><circle cx="2973.75" cy="1316.25" r="165.417" style="fill:none;stroke:#000;stroke-width:125px;"/><path d="M3380.42,1950.83l-0,-96.666c-0,-110.417 -75.834,-200 -179.167,-234.584l-27.5,-7.083l-200,200l-200,-200l-27.5,7.083c-103.333,27.5 -179.167,124.167 -179.167,234.584l0,103.333" style="fill:none;fill-rule:nonzero;stroke:#000;stroke-width:125px;"/></g><g><path d="M2380.42,2385.42l1179.17,-0" style="fill:none;fill-rule:nonzero;stroke:#000;stroke-width:125px;"/><path d="M2587.5,2661.25l765.417,0" style="fill:none;fill-rule:nonzero;stroke:#000;stroke-width:125px;"/></g></g></svg>