<?xml version="1.0" encoding="UTF-8" standalone="no"?><!DOCTYPE svg PUBLIC "-//W3C//DTD SVG 1.1//EN" "http://www.w3.org/Graphics/SVG/1.1/DTD/svg11.dtd"><svg width="100%" height="100%" viewBox="0 0 4500 4500" version="1.1" xmlns="http://www.w3.org/2000/svg" xmlns:xlink="http://www.w3.org/1999/xlink" xml:space="preserve" xmlns:serif="http://www.serif.com/" style="fill-rule:evenodd;clip-rule:evenodd;stroke-miterlimit:10;"><rect x="196.25" y="200.417" width="4103.33" height="4103.33" style="fill:#fff;stroke:#1d1d1b;stroke-width:125px;"/><g><path d="M577.083,3927.92c22.917,24.166 60.834,25 85,2.083l101.667,-101.667c24.167,-24.166 24.167,-62.916 0,-87.083c-24.167,-24.167 -62.917,-24.167 -87.083,0l-99.584,99.583c-25,18.75 -25,62.084 0,87.084Z" style="fill:#010101;fill-rule:nonzero;"/><path d="M956.25,3635.42l80.833,-80.834c25,-22.916 26.667,-62.083 3.75,-87.083c-22.916,-25 -62.083,-26.667 -87.083,-3.75l-84.583,84.583c-23.334,24.584 -22.5,63.75 2.083,87.084c23.75,22.916 61.25,22.916 85,-0Z" style="fill:#010101;fill-rule:nonzero;"/><path d="M1230,3187.92l-80.833,80.833c-23.334,24.583 -22.5,63.75 2.083,87.083c23.75,22.917 61.25,22.917 85,0l80.833,-80.833c24.167,-22.917 25,-60.833 2.084,-85c-0.834,-0.833 -1.25,-1.25 -2.084,-2.083c-25,-25 -68.333,-25 -87.083,-0Z" style="fill:#010101;fill-rule:nonzero;"/><path d="M3817.08,3735c-23.333,-24.583 -62.5,-25.417 -87.083,-2.083c-24.583,23.333 -25.417,62.5 -2.083,87.083l101.666,101.667c23.334,24.583 62.5,25.416 87.084,2.083c24.583,-23.333 25.416,-62.5 2.083,-87.083l-101.667,-101.667Z" style="fill:#010101;fill-rule:nonzero;"/><path d="M3462.92,3467.92c-24.167,22.916 -25,60.833 -2.084,85l82.917,82.916c25,22.917 63.75,21.667 87.083,-3.333c21.667,-23.75 21.667,-60 0,-83.75l-80.833,-80.833c-22.917,-24.167 -60.833,-25 -85,-2.084c-0.833,0.417 -1.667,1.25 -2.083,2.084Z" style="fill:#010101;fill-rule:nonzero;"/><path d="M3182.92,3187.92c-24.167,22.916 -25,60.833 -2.084,85l82.917,82.916c24.583,23.334 63.75,22.5 87.083,-2.083c22.917,-23.75 22.917,-61.25 0,-85l-80.833,-80.833c-18.75,-25 -62.083,-25 -87.083,-0Z" style="fill:#010101;fill-rule:nonzero;"/><path d="M3922.92,582.083c-22.917,-24.166 -60.834,-25 -85,-2.083c-0.834,0.833 -1.25,1.25 -2.084,2.083l-99.583,99.167c-24.167,24.167 -24.167,62.917 0,87.083c24.167,24.167 62.917,24.167 87.083,0l99.584,-99.583c25,-18.333 25,-62.083 -0,-86.667Z" style="fill:#010101;fill-rule:nonzero;"/><path d="M3550,1042.08l80.833,-80.833c23.334,-24.583 22.5,-63.75 -2.083,-87.083c-23.75,-22.917 -61.25,-22.917 -85,-0l-81.25,80.833c-24.583,23.333 -25.417,62.5 -2.083,87.083c23.333,24.584 62.5,25.417 87.083,2.084c0.833,-0.834 1.667,-1.25 2.5,-2.084Z" style="fill:#010101;fill-rule:nonzero;"/><path d="M3270,1322.08l80.833,-80.833c23.334,-24.583 22.5,-63.75 -2.083,-87.083c-23.75,-22.917 -61.25,-22.917 -85,-0l-80.833,80.833c-24.167,22.917 -25,60.833 -2.084,85c0.834,0.833 1.25,1.25 2.084,2.083c25,24.584 68.333,24.584 87.083,0Z" style="fill:#010101;fill-rule:nonzero;"/><path d="M770,774.583c24.167,-22.916 25,-60.833 2.083,-85c-0.833,-0.833 -1.25,-1.25 -2.083,-2.083l-99.583,-105.417c-24.584,-23.333 -63.75,-22.5 -87.084,2.084c-22.916,23.75 -22.916,61.25 0,85l99.584,99.583c24.583,30.833 62.083,30.833 87.083,5.833Z" style="fill:#010101;fill-rule:nonzero;"/><path d="M869.167,874.167c-24.167,22.916 -25,60.833 -2.084,85l82.917,82.916c22.917,25 62.083,26.25 87.083,3.334c25,-22.917 26.25,-62.084 3.334,-87.084c-1.25,-1.25 -2.084,-2.5 -3.334,-3.333l-80.833,-80.833c-22.917,-24.167 -60.833,-25 -85,-2.084c-0.417,0.834 -1.25,1.25 -2.083,2.084Z" style="fill:#010101;fill-rule:nonzero;"/><path d="M1236.25,1154.17c-24.583,-23.334 -63.75,-22.5 -87.083,2.083c-22.917,23.75 -22.917,61.25 -0,85l80.833,80.833c24.583,23.334 63.75,22.5 87.083,-2.083c22.917,-23.75 22.917,-61.25 0,-85l-80.833,-80.833Z" style="fill:#010101;fill-rule:nonzero;"/><path d="M2250,1573.33c-376.25,0 -681.667,305.417 -681.667,681.667c0,376.25 305.417,681.25 681.667,681.25c376.25,0 681.667,-305.417 681.667,-681.667c0.416,-375.833 -302.917,-680.416 -678.75,-681.666c-1.25,0.416 -1.667,0.416 -2.917,0.416Zm0,1086.67c-220.833,0 -405.417,-184.583 -405.417,-405.417c0,-220.833 184.584,-405.416 405.417,-405.416c220.833,-0 405.417,184.583 405.417,405.416c-0,220.834 -184.584,405.417 -405.417,405.417Z" style="fill:#010101;fill-rule:nonzero;"/><path d="M2250,2034.17c-119.583,-0 -220.833,101.25 -220.833,220.833c-0,119.583 101.25,220.833 220.833,220.833c119.583,0 220.833,-101.25 220.833,-220.833c0,-119.583 -101.25,-220.833 -220.833,-220.833Z" style="fill:#010101;fill-rule:nonzero;"/></g><path d="M3867.08,2214.58c-31.25,-37.5 -727.5,-858.333 -1617.08,-858.333c-883.333,0 -1585.83,827.083 -1617.08,858.333c-18.75,23.75 -18.75,57.084 -0,80.834c31.25,37.5 727.5,858.333 1617.08,858.333c883.333,0 1585.83,-820.833 1617.08,-858.333c18.75,-25 18.75,-62.084 0,-80.834Zm-140,72.917c-28.333,32.917 -667.5,752.5 -1470.83,752.5c-809.167,0 -1442.5,-719.583 -1470.83,-752.5c-17.084,-20.833 -17.084,-50 -0,-70.833c28.333,-27.5 667.5,-752.5 1470.83,-752.5c809.167,-0 1442.5,719.583 1470.83,752.5c17.084,16.25 17.084,48.75 0,70.833Z" style="fill:#010101;fill-rule:nonzero;"/></svg>