<?xml version="1.0" encoding="UTF-8" standalone="no"?><!DOCTYPE svg PUBLIC "-//W3C//DTD SVG 1.1//EN" "http://www.w3.org/Graphics/SVG/1.1/DTD/svg11.dtd"><svg width="100%" height="100%" viewBox="0 0 4500 4500" version="1.1" xmlns="http://www.w3.org/2000/svg" xmlns:xlink="http://www.w3.org/1999/xlink" xml:space="preserve" xmlns:serif="http://www.serif.com/" style="fill-rule:evenodd;clip-rule:evenodd;stroke-miterlimit:10;"><rect x="197.5" y="197.5" width="4103.33" height="4103.33" style="fill:#fff;stroke:#1d1d1b;stroke-width:125px;"/><g><g><path d="M995.417,1749.17l-119.584,-0c-40,-0 -72.5,-32.5 -72.5,-72.5l0,-119.584c0,-40 32.5,-72.5 72.5,-72.5l119.584,0c40,0 72.5,32.5 72.5,72.5l-0,119.584c-0.417,35.833 -32.917,72.5 -72.5,72.5Zm-0,-76.25l-0,36.25l-0,-36.25Z" style="fill-rule:nonzero;stroke:#000;stroke-width:41.67px;"/></g><g><path d="M1325,1749.17l-123.333,-0c-40,-0 -72.5,-32.5 -72.5,-72.5l-0,-119.584c-0,-40 32.5,-72.5 72.5,-72.5l119.583,0c40,0 72.5,32.5 72.5,72.5l-0,119.584c3.333,35.833 -29.167,72.5 -68.75,72.5Zm0,-76.25l0,36.25l0,-36.25Z" style="fill-rule:nonzero;stroke:#000;stroke-width:41.67px;"/></g><g><path d="M1654.58,1749.17l-119.583,-0c-40,-0 -72.5,-32.5 -72.5,-72.5l0,-119.584c0,-40 32.5,-72.5 72.5,-72.5l119.583,0c40,0 72.5,32.5 72.5,72.5l0,119.584c0,35.833 -32.5,72.5 -72.5,72.5Zm0,-76.25l0,36.25l0,-36.25Z" style="fill-rule:nonzero;stroke:#000;stroke-width:41.67px;"/></g><g><path d="M1983.75,1749.17l-119.583,-0c-40,-0 -72.5,-32.5 -72.5,-72.5l-0,-119.584c-0,-40 32.5,-72.5 72.5,-72.5l119.583,0c40,0 72.5,32.5 72.5,72.5l0,119.584c0,35.833 -32.5,72.5 -72.5,72.5Zm0,-76.25l0,36.25l0,-36.25Z" style="fill-rule:nonzero;stroke:#000;stroke-width:41.67px;"/></g><g><path d="M2313.33,1749.17l-119.583,-0c-40,-0 -72.5,-32.5 -72.5,-72.5l0,-119.584c0,-40 32.5,-72.5 72.5,-72.5l119.583,0c40,0 72.5,32.5 72.5,72.5l0,119.584c0,35.833 -32.5,72.5 -72.5,72.5Zm0,-76.25l0,36.25l0,-36.25Z" style="fill-rule:nonzero;stroke:#000;stroke-width:41.67px;"/></g><g><path d="M2642.92,1749.17l-119.584,-0c-40,-0 -72.5,-32.5 -72.5,-72.5l0,-119.584c0,-40 32.5,-72.5 72.5,-72.5l119.584,0c40,0 72.5,32.5 72.5,72.5l-0,119.584c-0,35.833 -32.5,72.5 -72.5,72.5Zm-0,-76.25l-0,36.25l-0,-36.25Z" style="fill-rule:nonzero;stroke:#000;stroke-width:41.67px;"/></g><g><path d="M2972.5,1749.17l-119.583,-0c-40,-0 -72.5,-32.5 -72.5,-72.5l-0,-119.584c-0,-40 32.5,-72.5 72.5,-72.5l119.583,0c40,0 72.5,32.5 72.5,72.5l0,119.584c0,35.833 -32.917,72.5 -72.5,72.5Zm0,-76.25l0,36.25l0,-36.25Z" style="fill-rule:nonzero;stroke:#000;stroke-width:41.67px;"/></g><g><path d="M1654.58,2082.08l-119.583,0c-40,0 -72.5,-32.5 -72.5,-72.5l0,-123.333c0,-40 32.5,-72.5 72.5,-72.5l119.583,0c40,0 72.5,32.5 72.5,72.5l0,119.583c0,43.75 -32.5,76.25 -72.5,76.25Zm0,-75.833l0,36.25l0,-36.25Z" style="fill-rule:nonzero;stroke:#000;stroke-width:41.67px;"/></g><g><path d="M1983.75,2082.08l-119.583,0c-40,0 -72.5,-32.5 -72.5,-72.5l-0,-123.333c-0,-40 32.5,-72.5 72.5,-72.5l119.583,0c40,0 72.5,32.5 72.5,72.5l0,119.583c0,43.75 -32.5,76.25 -72.5,76.25Zm0,-75.833l0,36.25l0,-36.25Z" style="fill-rule:nonzero;stroke:#000;stroke-width:41.67px;"/></g><g><path d="M2313.33,2082.08l-119.583,0c-40,0 -72.5,-32.5 -72.5,-72.5l0,-123.333c0,-40 32.5,-72.5 72.5,-72.5l119.583,0c40,0 72.5,32.5 72.5,72.5l0,119.583c0,43.75 -32.5,76.25 -72.5,76.25Zm0,-75.833l0,36.25l0,-36.25Z" style="fill-rule:nonzero;stroke:#000;stroke-width:41.67px;"/></g><g><path d="M2642.92,2082.08l-119.584,0c-40,0 -72.5,-32.5 -72.5,-72.5l0,-123.333c0,-40 32.5,-72.5 72.5,-72.5l119.584,0c40,0 72.5,32.5 72.5,72.5l-0,119.583c-0,43.75 -32.5,76.25 -72.5,76.25Zm-0,-75.833l-0,36.25l-0,-36.25Z" style="fill-rule:nonzero;stroke:#000;stroke-width:41.67px;"/></g><g><path d="M1983.75,2415.42l-119.583,-0c-40,-0 -72.5,-32.5 -72.5,-72.5l-0,-119.584c-0,-40 32.5,-72.5 72.5,-72.5l119.583,0c40,0 72.5,32.5 72.5,72.5l0,119.584c0,40 -32.5,72.5 -72.5,72.5Zm0,-72.5l0,36.25l0,-36.25Z" style="fill-rule:nonzero;stroke:#000;stroke-width:41.67px;"/></g><g><path d="M2313.33,2415.42l-119.583,-0c-40,-0 -72.5,-32.5 -72.5,-72.5l0,-119.584c0,-40 32.5,-72.5 72.5,-72.5l119.583,0c40,0 72.5,32.5 72.5,72.5l0,119.584c0,40 -32.5,72.5 -72.5,72.5Zm0,-72.5l0,36.25l0,-36.25Z" style="fill-rule:nonzero;stroke:#000;stroke-width:41.67px;"/></g><g><path d="M2642.92,2415.42l-119.584,-0c-40,-0 -72.5,-32.5 -72.5,-72.5l0,-119.584c0,-40 32.5,-72.5 72.5,-72.5l119.584,0c40,0 72.5,32.5 72.5,72.5l-0,119.584c-0,40 -32.5,72.5 -72.5,72.5Zm-0,-72.5l-0,36.25l-0,-36.25Z" style="fill-rule:nonzero;stroke:#000;stroke-width:41.67px;"/></g><g><path d="M2972.5,2082.08l-119.583,0c-40,0 -72.5,-32.5 -72.5,-72.5l-0,-123.333c-0,-40 32.5,-72.5 72.5,-72.5l119.583,0c40,0 72.5,32.5 72.5,72.5l0,119.583c0,43.75 -32.917,76.25 -72.5,76.25Zm0,-75.833l0,36.25l0,-36.25Z" style="fill-rule:nonzero;stroke:#000;stroke-width:41.67px;"/></g><g><path d="M3302.08,1749.17l-119.583,-0c-40,-0 -72.5,-32.5 -72.5,-72.5l0,-119.584c0,-40 32.5,-72.5 72.5,-72.5l119.583,0c40,0 72.5,32.5 72.5,72.5l0,119.584c-0.416,35.833 -32.916,72.5 -72.5,72.5Zm0,-76.25l0,36.25l0,-36.25Z" style="fill-rule:nonzero;stroke:#000;stroke-width:41.67px;"/></g><g><path d="M3631.67,1749.17l-119.584,-0c-40,-0 -72.5,-32.5 -72.5,-72.5l0,-119.584c0,-40 32.5,-72.5 72.5,-72.5l119.584,0c40,0 72.5,32.5 72.5,72.5l-0,119.584c-0,35.833 -32.5,72.5 -72.5,72.5Zm-0,-76.25l-0,36.25l-0,-36.25Z" style="fill-rule:nonzero;stroke:#000;stroke-width:41.67px;"/></g><g><g><g><path d="M3457.5,2495c-21.667,0 -36.25,-18.333 -36.25,-36.25l0,-242.5c0,-21.667 18.333,-36.25 36.25,-36.25l94.167,-0c72.5,-0 130.416,58.333 130.416,130.417c0,21.666 -18.333,36.25 -36.25,36.25c-21.666,-0 -36.25,-18.334 -36.25,-36.25c0,-32.5 -25,-58.334 -58.333,-58.334l-58.333,0l-0,206.667c0.833,17.917 -17.084,36.25 -35.417,36.25Z" style="fill-rule:nonzero;stroke:#000;stroke-width:41.67px;"/></g><g><path d="M3910.42,3313.33l-409.167,0c-21.667,0 -36.25,-18.333 -36.25,-36.25c0,-21.666 18.333,-36.25 36.25,-36.25l376.667,0c3.75,-18.333 10.833,-43.333 21.666,-72.5c54.584,-166.666 83.334,-340 87.084,-517.916c-0,-21.667 18.333,-36.25 36.25,-36.25c21.666,-0 36.25,18.333 36.25,36.25c-3.75,184.583 -36.25,365.833 -90.834,539.166c-18.333,50.834 -25,94.167 -25,94.167c-0.416,15.417 -14.583,29.583 -32.916,29.583Z" style="fill-rule:nonzero;stroke:#000;stroke-width:41.67px;"/></g><g><path d="M3302.08,3313.33c-18.333,0 -32.5,-10.833 -36.25,-28.75c0,0 -28.75,-166.666 -137.916,-290c-28.75,-32.5 -58.334,-72.5 -83.334,-115.833c-61.25,-101.25 -94.166,-220.833 -94.166,-343.75c-0,-83.333 65,-148.333 148.333,-148.333c58.333,-0 108.333,32.5 134.167,83.333l-0,-507.5c-0,-72.5 58.333,-130.417 130.416,-130.417c72.5,0 130.417,58.334 130.417,130.417l0,253.75c0,21.667 -18.333,36.25 -36.25,36.25c-21.667,0 -36.25,-18.333 -36.25,-36.25l-0,-253.75c-0,-32.5 -25,-58.333 -58.333,-58.333c-32.5,-0 -58.334,25 -58.334,58.333l0,702.5c0,18.333 -14.583,32.5 -28.75,36.25c-18.333,3.75 -36.25,-7.5 -40,-21.667l-65,-170.416c-10.833,-28.75 -40,-47.084 -68.75,-47.084c-40,0 -75.833,32.5 -75.833,75.834c-0,108.333 28.75,213.75 83.333,304.166c25,40 50.834,75.834 75.834,105c123.333,137.917 155.833,318.75 155.833,325.834c3.75,21.666 -10.833,40 -28.75,43.333c-6.667,-2.917 -10.417,-2.917 -10.417,-2.917Z" style="fill-rule:nonzero;stroke:#000;stroke-width:41.67px;"/></g><g><path d="M3834.58,2647.08c-21.666,0 -36.25,-18.333 -36.25,-36.25l0,-227.916c0,-32.5 -25,-58.334 -58.333,-58.334l-58.333,0l-0,206.667c-0,21.667 -18.334,36.25 -36.25,36.25c-21.667,0 -36.25,-18.333 -36.25,-36.25l-0,-246.25c-0,-21.667 18.333,-36.25 36.25,-36.25l94.166,-0c72.5,-0 130.417,58.333 130.417,130.417l-0,231.666c4.167,17.917 -14.167,36.25 -35.417,36.25Z" style="fill-rule:nonzero;stroke:#000;stroke-width:41.67px;"/></g><g><path d="M4026.25,2687.08c-21.667,0 -36.25,-18.333 -36.25,-36.25l0,-148.333c0,-32.5 -25,-58.333 -58.333,-58.333l-94.167,-0c-21.667,-0 -36.25,-18.334 -36.25,-36.25c0,-21.667 18.333,-36.25 36.25,-36.25l94.167,-0c72.5,-0 130.416,58.333 130.416,130.416l0,144.584c0.417,22.083 -17.5,40.416 -35.833,40.416Z" style="fill-rule:nonzero;stroke:#000;stroke-width:41.67px;"/></g></g><g><path d="M3961.25,3733.75l-735.417,0c-21.666,0 -36.25,-18.333 -36.25,-36.25l0,-293.333c0,-21.667 18.334,-36.25 36.25,-36.25l735.417,-0c21.667,-0 36.25,18.333 36.25,36.25l0,293.333c0,17.917 -14.583,36.25 -36.25,36.25Zm-699.167,-76.25l662.5,0l0,-217.5l-662.5,0l0,217.5Z" style="fill-rule:nonzero;stroke:#000;stroke-width:41.67px;"/></g><circle cx="3798.33" cy="3548.75" r="65" style="stroke:#000;stroke-width:41.67px;"/></g><g><path d="M3874.17,2132.92l-72.5,-0l-0,-739.167l-3096.25,0l-0,738.333l-72.5,0l-0,-774.166c-0,-21.667 18.333,-36.25 36.25,-36.25l3168.75,-0c21.666,-0 36.25,18.333 36.25,36.25l-0,775Z" style="fill-rule:nonzero;stroke:#000;stroke-width:41.67px;"/></g><g><path d="M3023.33,3172.5l-1550,0c-21.666,0 -36.25,-18.333 -36.25,-36.25c0,-21.667 18.334,-36.25 36.25,-36.25l1550,-0c21.667,-0 36.25,18.333 36.25,36.25c-0.416,17.917 -14.583,36.25 -36.25,36.25Z" style="fill-rule:nonzero;stroke:#000;stroke-width:41.67px;"/></g><g><g><g><path d="M1046.25,2495c-21.667,0 -36.25,-18.333 -36.25,-36.25l0,-206.667l-58.333,0c-32.5,0 -58.334,25 -58.334,58.334c0,21.666 -18.333,36.25 -36.25,36.25c-21.666,-0 -36.25,-18.334 -36.25,-36.25c0,-72.5 58.334,-130.417 130.417,-130.417l94.167,0c21.666,0 36.25,18.333 36.25,36.25l-0,242.5c0.416,17.917 -14.167,36.25 -35.417,36.25Z" style="fill-rule:nonzero;stroke:#000;stroke-width:41.67px;"/></g><g><path d="M1002.5,3313.33l-409.167,0c-18.333,0 -32.5,-10.833 -36.25,-28.75c0,0 -7.5,-43.333 -25,-94.166c-54.583,-174.167 -83.333,-355 -90.833,-539.167c0,-21.667 14.583,-36.25 36.25,-36.25c18.333,0 36.25,14.583 36.25,36.25c3.75,177.5 32.5,351.25 87.083,517.917c10.834,28.75 14.584,54.583 21.667,72.5l376.667,-0c21.666,-0 36.25,18.333 36.25,36.25c3.333,17.5 -15,35.416 -32.917,35.416Z" style="fill-rule:nonzero;stroke:#000;stroke-width:41.67px;"/></g><g><path d="M1201.67,3313.33l-7.5,0c-21.667,-3.75 -32.5,-21.666 -28.75,-43.333c-0,-7.5 32.5,-188.333 155.833,-325.833c25,-28.75 54.583,-65 75.833,-105c54.584,-90.834 83.334,-195.417 83.334,-304.167c-0,-40 -32.5,-75.833 -75.834,-75.833c-32.5,-0 -58.333,18.333 -68.75,47.083l-65.416,170c-7.5,18.333 -25,25 -40,21.667c-18.334,-3.75 -28.75,-18.334 -28.75,-36.25l-0,-699.167c-0,-32.5 -25,-58.333 -58.334,-58.333c-32.916,-0 -58.333,25 -58.333,58.333l0,253.75c0,21.667 -18.333,36.25 -36.25,36.25c-21.667,0 -36.25,-18.333 -36.25,-36.25l0,-253.75c0,-72.5 58.333,-130.417 130.417,-130.417c72.083,0 130.416,58.334 130.416,130.417l0,503.333c25,-50.833 75.834,-83.333 134.167,-83.333c83.333,0 148.333,68.75 148.333,148.333c0,123.334 -32.5,239.167 -94.166,343.75c-25,43.334 -54.584,83.334 -83.334,115.834c-108.333,119.583 -137.916,286.25 -137.916,290c-6.25,18.75 -20.834,32.916 -38.75,32.916Z" style="fill-rule:nonzero;stroke:#000;stroke-width:41.67px;"/></g><g><path d="M669.167,2647.08c-21.667,0 -36.25,-18.333 -36.25,-36.25l-0,-227.916c-0,-72.5 58.333,-130.417 130.416,-130.417l94.167,0c21.667,0 36.25,18.333 36.25,36.25l0,242.5c0,21.667 -18.333,36.25 -36.25,36.25c-21.667,0 -36.25,-18.333 -36.25,-36.25l0,-210l-58.333,0c-32.5,0 -58.334,25 -58.334,58.333l0,231.667c0.834,17.5 -17.083,35.833 -35.416,35.833Z" style="fill-rule:nonzero;stroke:#000;stroke-width:41.67px;"/></g><g><path d="M477.5,2687.08c-21.667,0 -36.25,-18.333 -36.25,-36.25l0,-148.333c0,-72.5 58.333,-130.417 130.417,-130.417l93.75,0c21.666,0 36.25,18.334 36.25,36.25c-0,21.667 -18.334,36.25 -36.25,36.25l-94.167,0c-28.75,0 -58.333,25 -58.333,58.334l-0,144.583c0.833,21.25 -13.334,39.583 -35.417,39.583Z" style="fill-rule:nonzero;stroke:#000;stroke-width:41.67px;"/></g></g><g><path d="M1277.92,3733.75l-735.417,0c-21.667,0 -36.25,-18.333 -36.25,-36.25l0,-293.333c0,-21.667 18.333,-36.25 36.25,-36.25l735.417,-0c21.666,-0 36.25,18.333 36.25,36.25l-0,293.333c-0.417,17.917 -17.917,36.25 -36.25,36.25Zm-698.75,-76.25l662.5,0l-0,-217.5l-662.5,0l-0,217.5Z" style="fill-rule:nonzero;stroke:#000;stroke-width:41.67px;"/></g><circle cx="705.417" cy="3548.75" r="65" style="stroke:#000;stroke-width:41.67px;"/></g><g><path d="M2288.33,1357.92l-72.5,-0l0,-94.167c0,-28.75 -25,-54.583 -54.583,-54.583l-506.667,-0c-72.5,-0 -130.416,-58.334 -130.416,-130.417c-0,-72.083 58.333,-130.417 130.416,-130.417l1198.75,0c28.75,0 54.584,-25 54.584,-54.583c-0,-29.583 -25,-54.583 -54.584,-54.583l-601.25,-0l0,-75.834l601.25,0c72.5,0 130.417,58.334 130.417,130.417c0,72.083 -58.333,130.417 -130.417,130.417l-1202.5,-0c-28.75,-0 -54.583,25 -54.583,54.583c0,28.75 25,54.583 54.583,54.583l506.667,0c72.5,0 130.417,58.334 130.417,130.417l-0,94.167l0.416,-0Z" style="fill-rule:nonzero;stroke:#000;stroke-width:41.67px;"/></g></g></svg>