<?xml version="1.0" encoding="UTF-8" standalone="no"?><!DOCTYPE svg PUBLIC "-//W3C//DTD SVG 1.1//EN" "http://www.w3.org/Graphics/SVG/1.1/DTD/svg11.dtd"><svg width="100%" height="100%" viewBox="0 0 4500 4500" version="1.1" xmlns="http://www.w3.org/2000/svg" xmlns:xlink="http://www.w3.org/1999/xlink" xml:space="preserve" xmlns:serif="http://www.serif.com/" style="fill-rule:evenodd;clip-rule:evenodd;stroke-miterlimit:10;"><rect x="198.333" y="198.333" width="4103.33" height="4103.33" style="fill:#fff;stroke:#1d1d1b;stroke-width:125px;"/><g><g><path d="M2112.5,2165c4.167,-33.333 6.25,-61.25 6.25,-88.333c0,-121.667 -30.833,-238.75 -89.583,-337.917c-57.084,-97.083 -136.25,-169.167 -227.917,-208.333c-100,-42.5 -204.583,-42.5 -304.583,-0c-39.584,16.666 -76.667,39.583 -110.417,67.5c-11.25,9.583 -22.083,19.166 -32.917,30c-69.166,69.166 -120,159.166 -148.333,259.166c-17.083,60 -25.833,124.167 -25.833,189.584c-0,75 12.083,148.75 35.416,218.75c36.25,108.75 97.917,200.416 177.5,265c76.667,61.666 165.417,94.583 256.667,94.583c229.167,0 428.333,-210.833 463.75,-490Zm-190.833,249.583c-64.167,70.834 -145.834,114.167 -232.5,124.584l-0.834,-0c-12.916,1.666 -26.25,2.5 -39.166,2.5c-94.167,-0 -185.834,-39.167 -257.084,-110.417c-89.166,-88.333 -140.416,-217.917 -140.416,-355c-0,-91.25 22.5,-179.583 65,-255.417c73.75,-131.25 197.916,-209.583 332.5,-209.583c13.333,0 26.25,0.833 39.166,2.5l0.417,0c87.917,10 168.75,53.333 233.333,124.583c80.417,88.75 124.584,208.75 124.584,337.917c-0.417,129.583 -44.584,249.583 -125,338.333Z" style="fill:none;fill-rule:nonzero;"/><path d="M3736.25,1420.83l-64.583,13.334l-1.25,0.416l98.333,704.584l56.25,-0l-88.75,-718.334Z" style="fill:none;fill-rule:nonzero;"/><path d="M1673.75,1742.08c-0.417,0 -0.417,0 0,0c-8.333,-0.833 -16.667,-1.666 -25,-1.666c-87.083,-0 -169.167,53.75 -220,143.75c-31.667,56.666 -48.75,123.333 -48.75,192.5c0,102.916 37.083,198.75 102.083,263.333c54.584,54.167 123.75,78.75 191.25,71.25l1.667,0c55.417,-7.083 107.917,-35.833 150.417,-82.917c57.916,-64.166 91.25,-155.833 91.25,-251.25c-0,-95.833 -33.334,-187.5 -91.25,-251.25c-42.917,-48.75 -95.417,-77.083 -151.667,-83.75Z" style="fill:none;fill-rule:nonzero;"/><path d="M1541.67,1381.25c9.166,-2.083 18.75,-3.333 27.916,-5c8.75,-1.25 17.5,-3.333 26.25,-4.167c7.917,-0.833 15.834,-0.833 23.75,-1.25c9.584,-0.416 19.167,-1.666 29.167,-1.666c10,-0 20,1.25 29.583,1.666c7.5,0.417 15,0.417 22.917,1.25c9.167,0.834 17.917,2.917 27.083,4.167c9.167,1.25 18.334,2.917 27.084,4.583c2.083,0.417 4.166,0.417 6.25,1.25l-0,-250l-225.834,0l0,250c2.084,-0.416 4.167,-0.416 5.834,-0.833Z" style="fill:none;fill-rule:nonzero;"/><path d="M1471.25,1002.92l373.75,-0l0,-385.834c0,-5.833 -4.583,-10.416 -10.417,-10.416l-379.166,-0c-5.834,-0 -10.417,4.583 -10.417,10.416l0,386.25l26.25,0l0,-0.416Z" style="fill:none;fill-rule:nonzero;"/><path d="M2810.42,1813.33l14.583,132.5c12.083,110 105,193.334 215.833,193.334l227.084,-0l-64.584,-608.334l-220.833,45.417c-82.917,17.083 -145,78.75 -165.833,155.417c-7.084,26.25 -9.584,53.75 -6.25,81.666Z" style="fill:none;fill-rule:nonzero;"/><path d="M3543.75,1460.83l-125.833,25.834l-87.917,18.333l45.417,422.917l22.5,211.25l240.416,-0l-94.583,-678.334Z" style="fill:none;fill-rule:nonzero;"/><path d="M1971.67,1045c-0.417,2.083 -1.25,4.167 -1.667,6.25c-1.25,4.167 -2.5,8.75 -4.167,12.917c-0.833,2.083 -2.083,4.583 -2.916,6.666c-1.667,3.75 -3.75,7.5 -5.834,10.834c-1.25,2.083 -2.5,4.166 -4.166,6.25c-2.5,3.333 -5,6.666 -7.917,9.583c-1.667,1.667 -3.333,3.333 -5,5c-3.333,2.917 -6.667,5.833 -10.417,8.333c-1.666,1.25 -2.916,2.5 -5,3.75c-5,3.334 -10.416,6.25 -16.25,8.75c-0.416,0 -0.833,0.417 -0.833,0.417c-5.417,2.5 -11.25,4.167 -17.5,5.833l0,300.417c0.417,0.417 0.833,0.833 1.667,0.833c18.75,9.584 36.666,20.834 54.166,32.5c4.167,2.917 8.75,6.25 12.917,9.167c15,10.833 30,22.5 44.167,35c2.5,2.083 5,3.75 7.083,5.833c15.833,14.167 31.25,29.584 45.833,45.834c3.75,4.166 7.084,8.333 10.834,12.5c12.5,14.583 24.583,29.583 35.833,45.416c1.667,2.084 3.333,4.167 5,6.25c2.083,-5.833 4.583,-11.25 7.083,-17.083c2.5,-6.667 5,-12.917 7.917,-19.583c4.167,-9.167 8.75,-17.917 13.333,-26.667c2.917,-5.833 5.834,-11.667 8.75,-17.083c5.417,-9.584 11.667,-18.75 17.917,-28.334c2.917,-4.583 5.833,-9.166 8.75,-13.333c9.583,-13.333 19.583,-26.667 30.417,-38.75c72.083,-82.5 167.083,-137.917 274.166,-160l119.584,-24.583l230.833,-47.5c-37.083,-118.334 -51.25,-141.667 -52.917,-144.167c-2.916,-4.167 -6.666,-8.333 -10.416,-12.5c-7.5,-7.917 -12.917,-13.333 -19.167,-18.75l-4.167,-4.167c-7.916,-6.666 -13.75,-11.25 -20,-16.25l-11.25,-9.583c-5.833,-4.167 -12.083,-8.75 -18.333,-12.917c-5,-3.75 -10.417,-7.083 -15.833,-10.416c-5.834,-3.75 -11.667,-7.5 -17.5,-10.834c-10,-6.25 -20.417,-12.5 -31.25,-18.333l-8.75,-5c-16.667,-9.167 -34.584,-18.75 -53.334,-27.917l-0.833,0c-32.083,-15.833 -65.833,-30.416 -100.417,-44.166c-0.416,-0.417 -1.25,-0.417 -1.666,-0.834l-0.417,0c-24.583,-9.583 -50,-18.75 -76.25,-27.5c-132.917,-44.166 -270.417,-70 -408.75,-77.5l0,235.417c-1.25,7.083 -1.667,13.75 -3.333,20Z" style="fill:none;fill-rule:nonzero;"/><path d="M2552.92,2490.83c-7.084,-0.833 -14.584,-2.083 -21.667,-2.916c-8.333,-1.25 -16.667,-2.084 -25,-3.75c-7.083,-1.25 -13.75,-3.334 -20.833,-5c-8.334,-2.084 -16.667,-3.75 -24.584,-5.834c-5.416,-1.666 -10.416,-3.75 -15.833,-5.416c-9.583,-3.334 -19.167,-6.25 -28.333,-10c-4.167,-1.667 -8.334,-3.75 -12.5,-5.834c-10,-4.583 -20.417,-8.75 -30.417,-13.75c-3.333,-1.666 -6.667,-4.166 -10,-5.833c-10.417,-5.833 -20.833,-11.25 -30.833,-17.5c-2.917,-2.083 -5.834,-4.167 -8.75,-6.25c-10,-6.667 -20.417,-13.75 -30,-21.25l-0.417,-0.417c-9.583,-7.5 -18.333,-15.416 -27.083,-23.333c-2.917,-2.5 -5.417,-4.583 -8.334,-7.083l-2.5,-2.5c-0.416,-0.417 -0.833,-1.25 -1.666,-1.667c-10.834,-10.833 -20,-20.417 -28.334,-30l-4.583,-5c-2.083,-2.5 -4.167,-5 -6.25,-7.5c-0.417,1.25 -0.833,2.083 -1.25,3.333c-7.5,25 -15.833,48.75 -25.417,72.084c-2.5,6.666 -5.416,12.916 -7.916,19.166c-9.584,22.5 -20.417,44.167 -31.667,65c-0.833,1.667 -1.667,3.75 -2.917,5.417c-12.5,22.083 -26.666,42.917 -41.25,63.333c-3.75,5.417 -7.916,10.417 -11.666,15.417c-12.917,17.083 -26.667,33.333 -41.25,48.75c-2.084,2.083 -3.75,4.583 -5.417,6.667c27.917,-20.417 50.833,-41.25 70.417,-58.334c36.666,-32.5 63.333,-56.25 100,-56.25c41.666,0 76.666,21.25 107.5,39.584c18.333,11.25 37.5,22.5 50.416,25c3.75,0.416 17.084,0.833 59.167,-0.834l0.833,0c2.5,0 5.417,0 7.917,-0.416l4.583,-0c2.084,-0 3.75,-0 5.834,-0.417c2.5,-0 5,-0 7.5,-0.417l3.75,0c8.75,-0.416 17.916,-0.833 27.916,-1.25l0.834,0c5.416,-0.416 10.833,-0.416 16.25,-0.833l1.25,-0c79.166,-3.75 203.333,-10.833 397.083,-23.333c5,-0.417 9.583,-0.834 14.583,-0.834c9.167,-0.416 18.334,-1.25 27.5,-1.666c8.334,-0.417 17.084,-1.25 25.834,-1.667c2.083,-0 3.75,-0.417 5.833,-0.417c7.083,-12.916 16.25,-23.75 26.667,-32.916l-407.5,-0c-15.834,-0.834 -31.667,-1.667 -47.5,-3.334Z" style="fill:none;fill-rule:nonzero;"/><path d="M2997.92,3068.75c1.666,-4.167 2.916,-9.167 4.583,-15.417l1.667,-7.5c2.083,-9.583 3.75,-19.166 5,-29.583l-0,-0.833c-0,-0.834 0.416,-2.917 0.416,-3.75l0,-1.25c1.25,-12.917 2.084,-27.084 2.084,-42.084l-0,-25c-1.667,-97.5 -21.25,-211.666 -32.917,-281.666c-0.417,-2.084 -0.833,-3.75 -0.833,-5.417c-22.5,1.25 -43.75,2.917 -64.584,4.167c-264.583,17.083 -401.666,23.75 -474.166,26.25l-1.667,-0c-4.167,-0 -7.917,0.416 -11.25,0.416l-2.083,0c-3.334,0 -6.667,0 -9.584,0.417l-55,0c-1.666,0 -2.916,-0.417 -4.166,-0.417l-0.417,0c-1.25,0 -2.083,-0.416 -3.333,-0.416c-37.084,-6.25 -67.917,-25 -95.417,-41.667c-9.583,-5.833 -22.5,-13.333 -31.667,-17.917c-6.666,5.834 -15.833,13.334 -23.333,20.417c-71.25,63.75 -219.167,195 -476.667,195l-10.833,0c-27.5,-0.417 -53.75,-2.5 -78.333,-5.417c-8.334,-1.25 -15.417,-2.916 -23.334,-4.166c-15.833,-2.917 -32.083,-5.417 -46.666,-9.167c-8.75,-2.083 -16.25,-5.417 -24.584,-7.917c-12.5,-3.75 -25.416,-7.5 -37.083,-12.083c-8.333,-3.333 -15.417,-7.083 -23.333,-10.833c-10.417,-4.584 -21.25,-9.167 -30.834,-14.584c-7.5,-4.166 -14.166,-8.333 -20.833,-12.916c-8.75,-5.417 -17.917,-10.417 -25.833,-16.25c-6.667,-4.584 -12.084,-9.584 -18.334,-14.167c-7.5,-5.833 -15,-11.25 -21.666,-17.083c-5.834,-5 -10.417,-10 -15.834,-15c-6.25,-5.834 -12.5,-11.667 -17.916,-17.5c-4.584,-5 -8.75,-10 -12.917,-15c-3.75,-4.584 -8.333,-9.167 -12.083,-13.75c-1.667,-1.25 -2.917,-2.917 -4.584,-4.167c-18.333,-15.417 -35.833,-32.083 -52.5,-49.583c-1.25,-1.667 -2.916,-2.917 -4.583,-4.584c-16.667,-18.333 -32.5,-37.916 -47.5,-58.333c-2.5,-3.333 -5,-7.083 -7.5,-10.417c-14.167,-20.416 -27.5,-41.666 -39.583,-63.75c-2.084,-3.75 -4.167,-7.916 -6.25,-11.666c-12.084,-22.917 -23.75,-46.667 -33.334,-71.25c0,-0.417 -0.416,-0.834 -0.833,-1.25l-272.917,-0c98.75,274.583 253.334,462.916 359.167,591.25c64.167,78.333 106.667,130 118.75,178.75c31.25,125 -120,529.583 -205.417,743.333l1162.5,0c43.334,-122.5 165.417,-467.083 211.25,-580.833c40.417,-101.25 175.417,-130.834 305.417,-159.167c76.25,-16.667 191.667,-41.667 208.333,-76.667c1.25,-3.333 2.5,-6.25 3.334,-9.583Z" style="fill:none;fill-rule:nonzero;"/><path d="M3339.58,2268.33l-298.75,0c-176.666,0 -324.583,-132.5 -344.166,-307.916l-14.584,-132.5c-20,-178.75 97.917,-340.834 274.167,-377.5l290.417,-60l169.583,-35l289.583,-60c-2.916,-5.834 -6.25,-11.667 -10,-17.084c-2.083,-3.333 -3.75,-6.666 -6.25,-9.583c-7.5,-9.583 -15.833,-18.333 -25.416,-25.833c-7.5,-5.834 -14.167,-10 -20.834,-13.75c-5,-2.5 -10,-4.584 -15,-6.667c-2.916,-1.25 -5.416,-2.5 -8.333,-3.333c-7.5,-2.5 -15,-4.584 -22.917,-5.834c-11.25,-1.666 -18.333,-2.083 -26.25,-2.083l-4.166,0c-7.917,0.417 -15.834,1.25 -24.167,2.5l-1039.58,214.583c-79.584,16.667 -150,57.5 -203.334,118.334c-42.5,48.333 -71.25,107.5 -84.166,171.25c-1.25,6.666 -4.167,12.916 -7.084,18.75c-0.833,1.25 -1.25,2.5 -2.083,3.75c-3.333,5.416 -7.5,10 -12.5,14.166c-0.833,0.834 -1.667,1.25 -2.5,2.084c-2.083,1.666 -4.167,3.333 -6.667,5c0.417,0.833 0.417,1.25 0.834,2.083c9.166,21.25 16.666,43.333 23.75,65.417c1.666,5.416 3.333,10.833 5,16.666c6.25,21.25 12.083,42.917 16.25,65c0.416,1.667 0.833,2.917 1.25,4.584c4.583,23.333 7.916,47.083 10.416,70.833c0.834,5.833 1.25,11.667 1.667,17.5c2.083,24.167 3.75,48.333 3.75,72.917c0,15 -0.417,30.416 -1.667,46.666c2.084,1.667 3.75,3.75 5.417,5.834c1.25,1.25 2.5,2.5 3.75,3.75c3.75,4.583 6.667,9.583 9.167,15l1.25,2.5c3.75,7.916 7.5,15.833 11.666,23.333l3.334,5.833c0.416,0.834 1.25,1.667 1.666,2.917c4.584,7.5 9.167,15 13.75,22.083l3.75,5.417c6.25,8.75 12.5,16.667 18.75,24.167l3.334,3.75c7.083,7.916 14.583,15.833 22.083,23.333c1.667,1.667 2.917,2.917 4.583,4.167c7.5,7.083 15.417,13.75 23.334,20l0.416,0.416c0.417,0 0.417,0.417 0.834,0.417c8.75,6.667 17.5,12.917 26.666,19.167c3.334,2.083 6.667,4.166 10,5.833c6.25,3.75 12.084,7.083 18.334,10.417c4.166,2.083 7.916,4.166 12.083,5.833c5.833,2.917 11.667,5.417 17.5,7.917c4.167,1.666 8.75,3.333 12.917,5c5.833,2.083 12.083,4.166 17.916,6.25c4.167,1.25 8.75,2.916 13.334,3.75c6.25,1.666 12.916,3.333 19.166,4.583c4.167,0.833 8.334,2.083 12.5,2.5c7.084,1.25 14.584,2.083 21.667,3.333c3.75,0.417 7.083,0.834 10.833,1.25c10.834,0.834 22.084,1.667 33.334,1.667l1127.5,-0c30.833,-0 58.75,-12.5 79.166,-35.833c15,-17.084 24.167,-37.917 26.25,-60l-119.583,-0c0,0.416 -372.917,0.416 -372.917,0.416Z" style="fill:none;fill-rule:nonzero;"/><path d="M1315,1490c12.083,-9.583 24.167,-18.75 36.667,-27.083c5.833,-4.167 12.083,-7.5 18.333,-11.25c10.417,-6.667 20.833,-12.917 31.667,-18.75c1.666,-0.834 3.333,-2.084 5,-2.917l-0,-299.167c-0.834,0 -2.084,-0.416 -2.917,-0.833c-2.917,-0.417 -5.417,-1.25 -8.333,-2.083c-3.75,-0.834 -7.5,-2.084 -11.25,-3.334c-2.917,-1.25 -5.417,-2.083 -7.917,-3.333c-3.333,-1.667 -6.667,-3.333 -10,-5.417c-2.5,-1.666 -5,-2.916 -7.083,-5c-2.917,-2.083 -5.834,-4.583 -8.75,-7.083c-2.084,-2.083 -4.167,-3.75 -6.25,-5.833c-2.5,-2.917 -5,-5.834 -7.084,-8.75c-1.666,-2.084 -3.333,-4.584 -5,-6.667c-2.083,-3.333 -3.75,-6.667 -5.833,-10.417c-1.25,-2.5 -2.5,-4.583 -3.333,-7.083c-1.667,-4.167 -2.917,-8.333 -4.167,-12.917c-0.417,-2.083 -1.25,-4.166 -1.667,-6.666c-1.25,-6.667 -2.083,-13.75 -2.083,-20.834l0,-107.916c-150.417,71.666 -276.667,168.75 -370.417,285.833l360,294.167c3.75,-2.084 7.084,-4.167 10.417,-6.667Z" style="fill:none;fill-rule:nonzero;"/><path d="M1068.75,2251.25c-0.833,-4.583 -1.25,-9.583 -2.5,-14.583c-3.75,-19.167 -7.083,-38.334 -9.167,-57.5c-0.833,-7.917 -2.083,-15.417 -2.916,-23.334c-2.5,-26.25 -4.167,-52.916 -4.167,-79.583c0,-24.583 1.25,-49.167 3.333,-73.333c0.834,-7.917 2.084,-15.834 2.917,-23.75c2.083,-16.25 3.75,-32.5 6.667,-48.334c1.666,-9.166 3.75,-17.916 5.416,-27.083c2.917,-14.583 6.25,-28.75 10,-42.917c2.5,-9.166 5.417,-18.333 7.917,-27.5c4.167,-13.75 8.75,-27.083 13.75,-40.416c3.333,-8.75 6.667,-17.5 10,-26.25c5.417,-13.334 11.667,-26.25 17.5,-39.167c3.75,-7.917 7.5,-16.25 11.667,-24.167c7.083,-13.75 15,-27.083 22.916,-40c3.75,-6.666 7.5,-12.916 11.667,-19.583c11.667,-18.333 24.583,-35.833 37.917,-52.5c0.833,-0.833 1.25,-1.667 2.083,-2.5l0,-0.417l-46.25,-37.916l-336.667,-275l-96.666,193.333l15.416,11.25l0.417,-0l247.5,182.5c7.917,5.833 15,12.083 21.667,18.75c47.083,47.5 66.25,117.5 47.916,182.917c-22.5,81.25 -97.083,138.333 -181.666,138.333l-208.75,-0l51.666,247.5l340.417,1.25Z" style="fill:none;fill-rule:nonzero;"/><path d="M742.083,1875l144.167,0c26.667,0 50,-17.917 57.083,-43.75c6.667,-23.75 -2.5,-49.167 -22.083,-63.75l-166.25,-122.5c-9.167,58.75 -13.75,120 -13.75,182.5c0,15.417 0.417,31.25 0.833,47.5Z" style="fill:none;fill-rule:nonzero;"/><path d="M3960.83,2229.58l-0.833,-7.5c2.5,-8.333 3.333,-17.5 2.083,-26.25l-106.25,-860c-1.25,-9.583 -4.583,-18.333 -9.583,-26.666c-7.917,-42.917 -25.833,-82.917 -52.083,-117.084c-0.417,-0.416 -0.834,-0.833 -0.834,-1.25c-7.083,-8.75 -14.583,-17.5 -22.5,-25.833c-0.416,-0.417 -0.416,-0.833 -0.833,-0.833c-7.917,-7.917 -16.25,-15.834 -25.417,-22.5c0,-0 -0.416,-0.417 -0.833,-0.417c-0.417,-0.417 -0.833,-0.417 -0.833,-0.833c-8.75,-7.084 -18.334,-13.334 -27.917,-18.75c-0.833,-0.417 -1.667,-1.25 -2.917,-1.667c-2.083,-1.25 -4.583,-2.5 -6.666,-3.75l-0.417,0c-1.25,-0.833 -2.5,-1.25 -2.917,-1.667c-12.916,-7.083 -26.666,-12.5 -40.833,-17.5c-0.417,0 -0.417,-0.416 -0.833,-0.416c-13.334,-4.584 -27.5,-7.917 -41.667,-10.417l-1.667,0c-0.416,0 -5,-0.833 -5.416,-0.833c-14.167,-2.084 -28.334,-2.5 -41.667,-2.5l-1.667,-0l-7.083,0.416c-16.25,0.834 -30.833,2.5 -45,5.417l-177.917,36.667l-384.166,79.166c-41.25,-133.75 -60.834,-172.5 -73.334,-190.833c-5.416,-7.917 -12.5,-16.667 -21.666,-26.667l-0.417,-0.416c-0,-0 -0,-0.417 -0.417,-0.417c-0.416,-0.417 -3.333,-3.333 -3.75,-3.75c0,-0.417 0,0 0,0c-7.083,-7.083 -14.583,-14.583 -22.916,-22.083l-5.834,-5.417l-2.083,-2.083c-7.083,-6.25 -14.583,-12.084 -22.917,-18.75l-0.416,-0.417l-15,-11.25c-7.084,-5 -14.584,-10.417 -22.084,-15.833c-5.833,-4.167 -12.083,-7.917 -18.333,-12.084c-6.667,-4.166 -13.333,-8.333 -20.417,-12.5c-0.416,-0.416 -0.833,-0.416 -1.25,-0.833c-5.416,-3.333 -10.416,-6.667 -15.833,-9.583c-5.833,-3.334 -11.667,-6.667 -17.5,-10c-0,-0 -0.417,-0 -0.417,-0.417l-9.166,-5c-0.834,-0.417 -1.667,-0.833 -2.5,-1.25c-12.917,-7.083 -25.834,-13.75 -38.75,-20.417c-2.5,-1.25 -5,-2.916 -7.5,-4.166c-3.334,-1.667 -7.084,-3.334 -10.417,-5c-0.417,-0 -0.833,-0.417 -0.833,-0.417c-20.834,-10 -42.084,-19.583 -63.334,-28.75c-1.666,-0.833 -3.333,-1.667 -5,-2.083c-12.5,-5.417 -25.416,-10.834 -38.333,-15.834c-0.833,-0.416 -2.083,-0.833 -2.917,-1.25c-0.416,0 -0.833,-0.416 -1.25,-0.416c-0.416,-0 -0.833,-0.417 -1.25,-0.417l-1.25,0c-26.25,-10 -53.333,-20 -81.25,-29.583l-0.833,-0c-146.25,-48.334 -297.083,-76.667 -449.167,-84.167l0,-42.5c0,-77.083 -62.5,-139.583 -139.583,-139.583l-379.167,-0c-77.083,-0 -139.583,62.5 -139.583,139.583l-0,159.167c-198.75,84.166 -363.75,207.5 -482.083,361.25c-10.417,-0.834 -21.25,-0.834 -31.667,1.666c-32.5,7.084 -60,28.334 -75,57.917l-115,230.417c-22.917,45.833 -10.833,100.416 28.333,132.916c-18.333,85.417 -27.916,175 -27.916,267.917c-0,18.75 0.416,37.917 1.25,58.333c-15.834,7.5 -30,18.334 -41.25,32.084c-22.5,27.5 -30.834,62.916 -23.75,97.916l54.583,261.667c10,48.75 47.917,86.25 94.583,98.333c105,322.5 286.667,543.75 397.084,677.917c41.25,50.417 88.333,107.5 93.333,127.917c17.917,71.666 -108.75,445.833 -235.833,751.666c-8.334,20 -6.25,42.5 5.833,60.834c12.083,18.333 32.083,28.75 53.75,28.75l1304.58,-0c27.5,-0 51.667,-17.084 60.834,-42.917c1.666,-5 170.833,-485 224.583,-618.75c15,-37.5 134.167,-63.75 213.333,-80.833c130.417,-28.334 253.334,-55.417 297.5,-147.917c6.25,-12.917 11.25,-27.917 16.25,-46.667c0.834,-3.75 2.084,-7.916 2.917,-12.083c1.667,-6.667 2.917,-13.75 4.167,-20.833c1.25,-7.084 2.083,-14.584 2.916,-22.084c0,-0.833 0.417,-4.166 0.834,-5c0.833,-8.75 1.666,-17.916 2.083,-27.083c0.417,-9.167 0.833,-18.333 0.833,-27.5l0,-25c0,-11.25 -0.416,-22.917 -0.833,-34.583l-0,-2.5c-5,-98.334 -22.5,-201.667 -33.75,-268.334c-3.75,-22.916 -7.083,-41.25 -8.75,-53.75c8.75,-6.25 26.667,-15 38.75,-20.416c32.083,-15 68.75,-32.5 92.083,-65c1.667,-2.5 2.5,-5 3.75,-7.5l495.834,-0c67.083,-0 131.25,-28.75 175.833,-79.167c40.833,-55 61.667,-122.5 53.333,-189.167Zm-978.333,-652.916l220.833,-45.417l64.584,608.333l-227.084,0c-110.833,0 -203.75,-82.916 -215.833,-193.333l-14.583,-132.917c-2.917,-27.916 -0.834,-55.416 6.25,-81.25c20.416,-76.666 82.916,-138.333 165.833,-155.416Zm415.417,562.5l-22.5,-211.667l-45,-422.917l87.5,-17.916l125.833,-25.834l94.583,678.334l-240.416,-0Zm370.833,-0l-98.333,-704.584l1.25,-0.416l64.583,-13.334l88.75,718.334l-56.25,-0Zm-1386.25,-1273.33c0.417,0 0.417,0 0,0c0.417,0 0.417,0.417 0,0c26.667,8.75 52.083,17.917 76.667,27.5l0.416,0c0.417,0.417 1.25,0.417 1.667,0.834c34.583,13.75 68.333,28.333 100.417,44.166l0.833,0c18.75,9.167 36.667,18.75 53.333,27.917l8.75,5c10.834,6.25 21.25,12.083 31.25,18.333c5.834,3.75 11.667,7.5 17.5,10.834c5.417,3.75 10.417,7.083 15.834,10.416c6.666,4.584 12.5,8.75 18.333,12.917l12.5,9.167c6.25,5 12.083,9.583 20,16.25l4.167,4.166c6.25,5.417 11.666,10.834 19.166,18.75c3.75,4.167 7.5,8.334 10.417,12.5c1.667,2.5 15.833,25.834 52.917,144.167l-230.834,47.5l-119.583,24.583c-107.5,22.084 -202.083,77.5 -274.167,160c-10.833,12.5 -20.833,25.417 -30.416,38.75c-2.917,4.167 -5.834,9.167 -8.75,13.334c-6.25,9.166 -12.084,18.75 -17.917,28.333c-3.333,5.417 -5.833,11.25 -8.75,17.083c-4.583,8.75 -9.167,17.917 -13.333,26.667c-2.917,6.25 -5.417,12.917 -7.917,19.583c-2.083,5.834 -5,11.25 -7.083,17.084c-1.667,-2.084 -3.334,-4.167 -5,-6.25c-11.25,-15.834 -23.334,-30.834 -35.834,-45.417c-3.75,-4.167 -7.083,-8.333 -10.833,-12.5c-14.583,-16.25 -30,-31.667 -45.833,-45.833c-2.5,-2.084 -4.584,-3.75 -7.084,-5.834c-14.166,-12.5 -29.166,-24.166 -44.166,-35c-4.167,-2.916 -8.75,-6.25 -12.917,-9.166c-17.5,-11.667 -35.417,-22.917 -54.167,-32.5c-0.416,-0.417 -0.833,-0.834 -1.666,-0.834l-0,-300.416c5.833,-1.25 11.666,-3.334 17.5,-5.834c0.416,0 0.833,-0.416 0.833,-0.416c5.833,-2.5 10.833,-5.417 16.25,-8.75c1.667,-1.25 3.333,-2.5 5,-3.75c3.75,-2.5 7.083,-5.417 10.417,-8.334c1.666,-1.666 3.333,-3.333 5,-5c2.916,-2.916 5.416,-6.25 7.916,-9.583c1.25,-2.083 2.917,-4.167 4.167,-6.25c2.083,-3.333 4.167,-7.083 5.833,-10.833c1.25,-2.084 2.084,-4.167 2.917,-6.667c1.667,-4.167 2.917,-8.333 4.167,-12.917c0.416,-2.083 1.25,-4.166 1.666,-6.25c1.25,-6.666 2.084,-13.333 2.084,-20.416l-0,-236.25c138.333,9.166 275.416,35.416 408.333,79.166Zm-733.75,1789.17c-91.667,0 -180.417,-32.5 -256.667,-94.583c-79.583,-64.584 -141.25,-155.834 -177.5,-265c-23.333,-70.417 -35.416,-143.75 -35.416,-218.75c-0,-65.417 8.75,-129.167 25.833,-189.584c28.333,-100.416 79.167,-190 148.333,-259.166c10.417,-10.417 21.667,-20.417 32.917,-30c33.75,-27.917 70.833,-50.834 110.417,-67.5c100,-42.5 204.583,-42.5 304.583,-0c92.083,39.166 170.833,110.833 227.917,208.333c58.333,99.167 89.583,216.25 89.583,337.917c0,27.083 -2.083,55 -6.25,88.333c-35,279.167 -234.583,490 -463.75,490Zm112.917,-1522.92l-0,250c-2.084,-0.416 -4.167,-0.833 -6.25,-1.25c-9.167,-2.083 -17.917,-3.333 -27.084,-4.583c-9.166,-1.25 -17.916,-3.333 -27.083,-4.167c-7.5,-0.833 -15,-0.833 -22.917,-1.25c-10,-0.416 -20,-1.666 -29.583,-1.666c-9.583,-0 -19.167,1.25 -29.167,1.666c-7.916,0.417 -15.833,0.417 -23.75,1.25c-8.75,0.834 -17.5,2.5 -26.25,4.167c-9.166,1.667 -18.75,2.917 -27.916,5c-2.084,0.417 -4.167,0.417 -5.834,0.833l0,-250l225.834,0Zm-317.084,-515c0,-5.833 4.584,-10.416 10.417,-10.416l379.167,-0c5.833,-0 10.416,4.583 10.416,10.416l0,385.834l-400.416,-0l-0,-385.834l0.416,0Zm-128.75,300l0,107.917c0,7.083 0.834,13.75 2.084,20.833c0.416,2.084 1.25,4.167 1.666,6.667c1.25,4.167 2.5,8.75 4.167,12.917c0.833,2.5 2.083,4.583 3.333,7.083c1.667,3.75 3.75,7.083 5.834,10.417c1.666,2.5 3.333,4.583 5,6.666c2.083,2.917 4.583,5.834 7.083,8.75c2.083,2.084 4.167,4.167 6.25,5.834c2.917,2.5 5.833,5 8.75,7.083c2.5,1.667 4.583,3.333 7.083,5c3.334,2.083 6.667,3.75 10,5.417c2.5,1.25 5,2.5 7.917,3.333c3.75,1.25 7.5,2.5 11.25,3.333c2.917,0.834 5.417,1.667 8.333,2.084c0.834,-0 2.084,0.416 2.917,0.833l0,299.167c-1.667,0.833 -3.333,2.083 -5,2.916c-10.833,5.834 -21.25,12.084 -31.667,18.75c-6.25,3.75 -12.083,7.084 -18.333,11.25c-12.5,8.334 -24.583,17.917 -36.667,27.084c-3.333,2.5 -6.666,4.583 -9.583,7.083l-360,-294.167c92.917,-117.5 219.167,-215 369.583,-286.25Zm-394.166,850.417c19.583,14.583 28.75,40 22.083,63.75c-7.083,25.833 -30.833,43.75 -57.083,43.75l-144.167,0c-0.417,-16.25 -0.833,-32.083 -0.833,-47.083c-0,-62.5 4.583,-123.75 13.75,-182.5l166.25,122.083Zm-244.167,236.667l209.167,-0c84.583,-0 159.166,-57.084 181.666,-138.334c17.917,-65.416 -1.25,-135.833 -47.916,-182.916c-6.667,-6.667 -14.167,-12.917 -21.667,-18.75l-247.5,-182.5l-0.417,-0l-15.416,-11.25l96.666,-193.334l336.667,275l46.25,37.917l0,0.417c-0.833,0.833 -1.25,1.666 -2.083,2.5c-13.334,16.666 -25.834,34.583 -37.917,52.5c-4.167,6.25 -7.917,12.916 -11.667,19.583c-7.916,12.917 -15.833,26.25 -22.916,40c-4.167,7.917 -7.917,15.833 -11.667,24.167c-6.25,12.916 -12.083,25.833 -17.5,39.166c-3.75,8.75 -7.083,17.5 -10,26.25c-5,13.334 -9.583,26.667 -13.75,40.417c-2.917,9.167 -5.417,18.333 -7.917,27.5c-3.75,14.167 -7.083,28.333 -10,42.917c-2.083,9.166 -4.166,17.916 -5.416,27.083c-2.917,15.833 -5,32.083 -6.667,48.333c-0.833,7.917 -2.083,15.417 -2.917,23.75c-2.083,24.167 -3.333,48.334 -3.333,73.334c0,26.666 1.667,52.916 4.167,79.583c0.833,7.917 1.666,15.417 2.916,23.333c2.5,19.584 5.417,38.75 9.167,57.5c0.833,4.584 1.25,9.584 2.5,14.584l-339.167,-0l-53.333,-248.75Zm2109.17,1149.58c-130.417,28.333 -265,57.917 -305.417,159.167c-45.417,113.75 -167.917,458.333 -211.25,580.833l-1162.5,0c85.417,-213.333 236.667,-618.333 205.417,-743.333c-12.084,-48.75 -54.584,-100.417 -118.75,-178.75c-105.417,-128.334 -260.417,-316.667 -359.167,-591.25l273.333,-0c0,0.416 0.417,0.833 0.834,1.25c10,24.583 21.25,48.333 33.333,71.25c2.083,3.75 4.167,7.916 6.25,11.666c12.083,22.084 25.417,43.334 39.583,63.75c2.5,3.75 5,7.084 7.5,10.417c15,20.417 30.417,40 47.5,58.333c1.25,1.667 2.917,2.917 4.584,4.584c16.666,17.5 34.166,34.166 52.5,49.583c1.666,1.25 2.916,2.917 4.583,4.167c3.75,4.583 7.917,9.166 12.083,13.75c4.167,5 8.334,10 12.917,15c5.417,5.833 11.667,11.666 17.917,17.5c5,5 10,10 15.833,15c6.667,5.833 14.167,11.666 21.667,17.083c6.25,4.583 11.666,9.583 18.333,14.167c7.917,5.833 17.083,10.833 25.833,16.25c7.084,4.166 13.334,8.75 20.834,12.916c9.583,5 20.416,9.584 30.833,14.584c7.917,3.75 15,7.5 23.333,10.833c11.667,4.583 24.584,8.333 37.084,12.083c8.333,2.5 15.833,5.417 24.583,7.917c14.583,3.75 30.833,6.25 46.667,9.167c7.916,1.25 15,3.333 23.333,4.166c24.583,3.334 50.833,5 78.333,5.417l10.834,0c257.916,0 405.416,-131.25 476.666,-195c7.5,-6.667 16.25,-14.583 23.334,-20.417c9.583,4.167 22.5,12.084 31.666,17.917c27.5,16.667 58.334,35.417 95.417,41.667c0.833,-0 2.083,0.416 3.333,0.416l0.417,0c1.25,0 2.5,0.417 4.167,0.417l55,0c2.916,0 6.25,0 9.583,-0.417l2.083,0c3.75,0 7.5,-0.416 11.25,-0.416l1.667,-0c72.5,-2.5 209.583,-9.584 474.167,-26.25c20.833,-1.25 42.083,-2.917 64.583,-4.167c0.417,1.667 0.833,3.75 0.833,5.417c12.084,70.416 31.25,184.583 32.917,281.666l-0,25c-0.417,14.584 -0.833,28.75 -2.083,42.084l-0,1.25c-0,0.833 -0.417,2.916 -0.417,3.75l-0,0.833c-1.25,10.417 -2.917,20.417 -5,29.583l-1.667,7.5c-1.666,6.25 -2.916,11.25 -4.583,15.417c-1.25,2.917 -2.083,5.833 -3.333,8.333c-17.084,36.25 -132.5,61.25 -208.75,77.917Zm195,-627.5c-2.084,0 -3.75,0.417 -5.834,0.417c-8.75,0.416 -17.083,1.25 -25.833,1.666c-9.167,0.417 -18.75,1.25 -27.5,1.667c-5,0.417 -9.583,0.833 -14.583,0.833c-193.75,12.5 -317.917,19.584 -397.084,23.334l-1.25,-0c-5.833,0.416 -11.25,0.416 -16.25,0.833l-0.833,0c-10,0.417 -19.583,0.833 -27.917,1.25l-3.75,0c-2.5,0 -5,0 -7.5,0.417c-2.083,-0 -4.166,-0 -5.833,0.416l-4.583,0c-2.917,0 -5.417,0 -7.917,0.417l-0.833,0c-42.084,1.667 -55.417,1.25 -59.167,0.833c-13.333,-2.083 -32.083,-13.75 -50.417,-25c-30.833,-18.75 -65.833,-39.583 -107.5,-39.583c-36.666,0 -63.333,23.75 -100,56.25c-19.583,17.5 -42.5,37.917 -70.416,58.333c2.083,-2.083 3.75,-4.583 5.416,-6.666c14.584,-15.417 27.917,-31.667 41.25,-48.75c3.75,-5 7.917,-10.417 11.667,-15.417c14.583,-20.417 28.333,-41.25 41.25,-63.333c0.833,-1.667 1.667,-3.75 2.917,-5.417c11.666,-20.833 22.083,-42.5 31.666,-65c2.917,-6.25 5.417,-12.917 7.917,-19.167c9.583,-23.333 17.917,-47.5 25.417,-72.083c0.416,-1.25 0.833,-2.083 1.25,-3.333c2.083,2.5 4.166,5 6.25,7.5l4.583,5c8.333,9.583 17.5,19.166 28.333,30c0.417,0.416 0.834,1.25 1.667,1.666l2.5,2.5c2.5,2.5 5.417,4.584 8.333,7.084c8.75,7.916 17.917,16.25 27.084,23.333l0.416,0.417c9.584,7.5 19.584,14.583 30,21.25c2.917,2.083 5.834,4.166 8.75,6.25c10,6.25 20.417,12.083 30.834,17.5c3.333,1.666 6.666,4.166 10,5.833c10,5 20,9.583 30.416,13.75c4.167,1.667 8.334,4.167 12.5,5.833c9.167,3.75 18.75,6.667 28.334,10c5.416,1.667 10.416,3.75 15.833,5.417c8.333,2.5 16.667,4.167 24.583,5.833c7.084,1.667 13.75,3.75 20.834,5c8.333,1.667 16.666,2.5 25,3.75c7.083,0.834 14.166,2.5 21.666,2.917c15.834,1.667 31.667,2.083 47.5,2.083l407.5,0c-10.833,10.417 -20,21.25 -26.666,34.167Zm825.416,-197.917c-20.416,22.917 -48.333,35.834 -79.166,35.834l-1127.5,-0c-11.25,-0 -22.084,-0.417 -33.334,-1.667c-3.75,-0.417 -7.083,-0.833 -10.833,-1.25c-7.5,-0.833 -14.583,-1.667 -21.667,-3.333c-4.166,-0.834 -8.333,-1.667 -12.5,-2.5c-6.666,-1.25 -12.916,-2.917 -19.166,-4.584c-4.584,-1.25 -8.75,-2.5 -13.334,-3.75c-6.25,-2.083 -12.083,-4.166 -17.916,-6.25c-4.167,-1.666 -8.75,-3.333 -12.917,-5c-5.833,-2.5 -11.667,-5.416 -17.5,-7.916c-4.167,-2.084 -7.917,-3.75 -12.083,-5.834c-6.25,-3.333 -12.5,-7.083 -18.334,-10.416c-3.333,-2.084 -6.666,-3.75 -10,-5.834c-9.166,-5.833 -17.916,-12.083 -26.666,-19.166c-0.417,-0 -0.417,-0.417 -0.834,-0.417l-0.416,-0.417c-7.917,-6.25 -15.834,-12.916 -23.334,-20c-1.666,-1.25 -2.916,-2.5 -4.583,-4.166c-7.917,-7.5 -15,-15.417 -22.083,-23.334l-3.334,-3.75c-6.25,-7.5 -12.5,-15.416 -18.75,-24.166l-3.75,-5.417c-5,-7.083 -9.583,-14.583 -13.75,-22.083c-0.416,-0.834 -1.25,-1.667 -1.666,-2.917l-3.334,-5.833c-4.166,-7.5 -7.916,-15.417 -11.666,-23.334l-1.25,-2.5c-2.5,-5.416 -5.417,-10.416 -9.167,-15c-1.25,-1.25 -2.5,-2.5 -3.75,-3.75c-1.667,-2.083 -3.333,-4.166 -5.417,-5.833c1.25,-16.25 1.667,-31.667 1.667,-46.667c0,-24.583 -1.25,-48.75 -3.75,-72.916c-0.417,-5.834 -1.25,-11.667 -1.667,-17.5c-2.5,-23.75 -5.833,-47.5 -10.416,-70.834c-0.417,-1.666 -0.834,-2.916 -1.25,-4.583c-4.584,-22.083 -10,-43.75 -16.25,-65c-1.667,-5.417 -3.334,-10.833 -5,-16.667c-7.084,-22.083 -15,-44.166 -23.75,-65.416c-0.417,-0.834 -0.417,-1.25 -0.834,-2.084c2.5,-1.25 4.584,-3.333 6.667,-5c0.833,-0.833 1.667,-1.25 2.5,-2.083c5,-4.167 8.75,-8.75 12.5,-14.167c0.833,-1.25 1.25,-2.5 2.083,-3.75c3.334,-5.833 5.834,-12.083 7.084,-18.75c12.5,-63.75 41.666,-122.916 84.166,-171.25c53.334,-61.25 123.75,-102.083 203.334,-118.333l1039.58,-214.583c7.917,-1.667 16.25,-2.5 24.167,-2.5l4.166,-0c7.5,-0 15,0.416 26.25,2.083c7.917,1.25 15.417,3.333 22.917,5.833c2.917,0.834 5.417,2.5 8.333,3.334c5,2.083 10,3.75 15,6.666c7.084,3.75 13.75,7.917 20.834,13.75c9.583,7.5 17.916,16.25 25.416,25.834c2.5,2.916 4.167,6.666 6.25,9.583c3.75,5.417 7.084,11.25 10,17.083l-290.416,59.584l-169.584,35l-290.416,60c-176.25,36.25 -294.167,198.75 -274.167,377.5l14.583,132.5c19.584,175.416 167.5,307.916 344.167,307.916l791.667,0c-1.667,22.084 -10.834,42.917 -25.834,60Z" style="fill-rule:nonzero;"/><path d="M1921.67,1738.33c-64.584,-71.25 -145.417,-114.583 -233.334,-124.583l-0.416,0c-12.917,-1.667 -25.834,-2.5 -39.167,-2.5c-134.583,0 -258.75,78.333 -332.5,209.583c-42.5,75.834 -65,164.167 -65,255.417c-0,137.083 51.25,266.25 140.417,355c71.666,71.25 162.916,110.417 257.083,110.417c13.333,-0 26.25,-0.834 39.167,-2.5l0.833,-0c87.083,-10.417 168.333,-53.334 232.5,-124.584c80.417,-88.75 124.583,-208.75 124.583,-337.916c0.417,-129.167 -43.75,-249.167 -124.166,-338.334Zm-95.834,589.584c-42.5,47.083 -95,75.833 -150.416,82.916l-1.667,0c-67.5,7.5 -136.667,-17.083 -191.25,-71.25c-65,-64.583 -102.083,-160.416 -102.083,-263.333c-0,-69.167 16.666,-135.833 48.75,-192.5c50.416,-90 132.5,-143.75 220,-143.75c8.333,0 16.666,0.417 24.583,1.667c56.25,6.666 109.167,35 152.083,82.916c57.917,64.167 91.25,155.834 91.25,251.25c0,96.25 -33.333,187.917 -91.25,252.084Z" style="fill-rule:nonzero;"/></g></g></svg>