<?xml version="1.0" encoding="UTF-8" standalone="no"?><!DOCTYPE svg PUBLIC "-//W3C//DTD SVG 1.1//EN" "http://www.w3.org/Graphics/SVG/1.1/DTD/svg11.dtd"><svg width="100%" height="100%" viewBox="0 0 4500 4500" version="1.1" xmlns="http://www.w3.org/2000/svg" xmlns:xlink="http://www.w3.org/1999/xlink" xml:space="preserve" xmlns:serif="http://www.serif.com/" style="fill-rule:evenodd;clip-rule:evenodd;stroke-miterlimit:10;"><rect x="197.5" y="197.5" width="4103.33" height="4103.33" style="fill:#fff;stroke:#1d1d1b;stroke-width:125px;"/><g><circle cx="2250" cy="989.583" r="393.333"/><path d="M2851.25,1596.67c-48.333,-70.834 -145,-89.584 -216.25,-41.667c-22.917,15.833 -39.583,36.667 -51.25,60c115.833,86.667 190.833,224.167 190.833,379.583l0,42.917l295.834,433.75c48.333,70.833 145,89.583 216.25,41.667c70.833,-48.334 89.583,-145 41.666,-216.25l-477.083,-700Z" style="fill:none;fill-rule:nonzero;stroke:#1d1d1b;stroke-width:95.83px;"/><path d="M2547.08,3800.83c100,0 181.25,-81.25 181.25,-181.25l0,-1619.17c0,-155.417 -75,-292.917 -190.833,-379.584c-79.167,-59.583 -177.083,-95 -284.167,-95c-262.083,0 -474.583,212.5 -474.583,474.584l0,1620.83c0,100 81.25,181.25 181.25,181.25c100.417,0 181.25,-81.25 181.25,-181.25l0,-827.917l223.333,0l0,825.834c0.834,100.416 82.084,181.666 182.5,181.666Z" style="fill:none;fill-rule:nonzero;stroke:#000;stroke-width:95.83px;"/><path d="M1751.25,1124.58c49.167,0 88.75,-39.583 88.75,-88.75c0,-33.333 -18.333,-62.083 -45.417,-77.083l10.417,-0c0,-250 203.75,-453.333 453.75,-453.333c248.75,-0 451.25,201.666 453.333,450c-30.416,14.166 -51.25,44.583 -51.25,80.416c0,49.167 39.584,88.75 88.75,88.75c49.167,0 88.75,-39.583 88.75,-88.75c0,-41.666 -28.75,-76.25 -67.5,-85.833c-5,-278.75 -232.5,-504.167 -512.5,-504.167c-279.166,0 -505.833,224.167 -512.083,501.25c-46.25,2.5 -83.333,41.25 -83.333,88.334c-0.834,49.166 39.166,89.166 88.333,89.166Z" style="fill-rule:nonzero;"/><path d="M2987.92,2780.83c-0,-49.166 -39.584,-88.75 -88.75,-88.75c-49.167,0 -88.75,39.584 -88.75,88.75c-0,38.75 25,71.25 59.583,83.334l0,818.333c-34.583,12.083 -59.583,44.583 -59.583,83.333c-0,21.25 7.916,41.25 20.416,56.25c-49.583,53.334 -143.333,126.667 -288.333,139.167c-5.833,-43.333 -42.917,-77.083 -87.5,-77.083c-49.167,-0 -88.75,39.583 -88.75,88.75c0,49.166 39.583,88.75 88.75,88.75c31.25,-0 58.75,-16.667 74.583,-41.25c182.5,-9.584 297.084,-105 353.334,-168.334c5.416,0.834 10.833,1.667 16.666,1.667c49.167,-0 88.75,-39.583 88.75,-88.75c0,-38.333 -25,-70.833 -59.583,-83.333l0,-817.084c34.583,-12.5 59.167,-44.583 59.167,-83.75Z" style="fill-rule:nonzero;"/><path d="M3491.25,2118.75c-12.5,0 -24.583,2.5 -35.833,7.5l-425.834,-595.833c12.917,-15.834 20.834,-35.417 20.834,-56.667c-0,-49.167 -39.584,-88.75 -88.75,-88.75c-49.167,0 -88.75,39.583 -88.75,88.75c-0,49.167 39.583,88.75 88.75,88.75c5.833,0 11.25,-0.417 17.083,-1.667l433.75,606.25c-6.25,12.084 -10,25.417 -10,40c0,49.167 39.583,88.75 88.75,88.75c49.167,0 88.75,-39.583 88.75,-88.75c0,-48.333 -39.583,-88.333 -88.75,-88.333Z" style="fill-rule:nonzero;"/><path d="M1727.08,1994.17c0,-155.417 75,-292.917 190.834,-379.584c-11.667,-23.333 -28.75,-44.166 -51.25,-60c-70.834,-48.333 -167.917,-29.583 -216.25,41.667l-476.667,700c-48.333,70.833 -29.583,167.917 41.667,216.25c70.833,48.333 167.916,29.583 216.25,-41.667l295.833,-433.75l0,-42.916l-0.417,-0Z" style="fill:none;fill-rule:nonzero;stroke:#1d1d1b;stroke-width:95.83px;"/><path d="M1065.83,2162.5l434.167,-605.833c5.417,0.833 11.25,1.666 17.083,1.666c49.167,0 88.75,-39.583 88.75,-88.75c0,-49.166 -39.583,-88.75 -88.75,-88.75c-49.166,0 -88.75,39.584 -88.75,88.75c0,22.084 7.917,41.667 20.834,56.667l-426.25,595.417c-10.834,-5 -22.917,-7.5 -35.834,-7.5c-49.166,-0 -88.75,39.583 -88.75,88.75c0,49.166 39.584,88.75 88.75,88.75c49.167,-0 88.75,-39.584 88.75,-88.75c0,-15 -3.75,-28.334 -10,-40.417Z" style="fill-rule:nonzero;"/></g><path d="M1572.92,2864.58l-0,817.917c-34.584,12.5 -59.584,45 -59.584,83.333c0,49.167 39.584,88.75 88.75,88.75c5.834,0 11.25,-0.833 16.667,-1.666c56.25,63.333 170.417,158.75 353.333,168.333c15.834,24.583 43.334,41.25 74.584,41.25c49.166,0 88.75,-39.583 88.75,-88.75c-0,-49.167 -39.584,-88.75 -88.75,-88.75c-44.584,0 -81.667,33.75 -87.5,77.083c-145,-12.5 -238.75,-86.25 -288.334,-139.166c12.5,-15 20.417,-35 20.417,-56.25c-0,-38.75 -25,-71.25 -59.583,-83.334l-0,-818.75c34.583,-12.083 59.583,-44.583 59.583,-83.333c-0,-49.167 -39.583,-88.75 -88.75,-88.75c-49.167,0 -88.75,39.583 -88.75,88.75c-0.417,38.75 24.167,70.833 59.167,83.333Z" style="fill-rule:nonzero;"/></svg>