<?xml version="1.0" encoding="UTF-8" standalone="no"?><!DOCTYPE svg PUBLIC "-//W3C//DTD SVG 1.1//EN" "http://www.w3.org/Graphics/SVG/1.1/DTD/svg11.dtd"><svg width="100%" height="100%" viewBox="0 0 4500 4500" version="1.1" xmlns="http://www.w3.org/2000/svg" xmlns:xlink="http://www.w3.org/1999/xlink" xml:space="preserve" xmlns:serif="http://www.serif.com/" style="fill-rule:evenodd;clip-rule:evenodd;stroke-miterlimit:10;"><rect x="197.5" y="197.5" width="4103.33" height="4103.33" style="fill:#fff;stroke:#1d1d1b;stroke-width:125px;"/><g><path d="M2247.92,599.583c-910,0 -1650.42,740.417 -1650.42,1650.42c0,910 740.417,1650.42 1650.42,1650.42c910,-0 1650.42,-740.417 1650.42,-1650.42c0,-910 -740.416,-1650.42 -1650.42,-1650.42Zm-0,3194.17c-851.25,0 -1543.75,-692.5 -1543.75,-1543.75c-0,-851.25 692.5,-1543.75 1543.75,-1543.75c851.25,0 1543.75,692.5 1543.75,1543.75c-0,851.25 -692.5,1543.75 -1543.75,1543.75Z" style="fill-rule:nonzero;"/><path d="M2247.92,812.5c-792.5,0 -1437.5,645 -1437.5,1437.5c-0,792.5 645,1437.5 1437.5,1437.5c792.5,0 1437.5,-645 1437.5,-1437.5c-0,-792.5 -645,-1437.5 -1437.5,-1437.5Zm1330.83,1437.5c0,182.083 -36.667,355.417 -103.333,513.75l-1741.25,-1741.67c158.333,-66.25 331.666,-103.333 513.75,-103.333c733.75,0.417 1330.83,597.5 1330.83,1331.25Zm-1237.08,-469.583c-30.417,-6.25 -61.667,-9.167 -93.75,-9.167c-264.167,0 -479.167,215 -479.167,479.167c0,264.166 215,479.166 479.167,479.166c264.166,0 479.166,-215 479.166,-479.166c0,-32.084 -3.333,-63.334 -9.166,-93.75l114.583,114.583c-11.25,312.917 -268.75,564.583 -584.583,564.583c-322.917,0 -585.834,-262.916 -585.834,-585.833c0,-315.833 251.667,-573.333 564.584,-584.583l115,115Zm278.75,469.583c-0,205.417 -167.084,372.5 -372.5,372.5c-205.417,0 -372.5,-167.083 -372.5,-372.5c-0,-205.417 167.083,-372.5 372.5,-372.5c205.416,0 372.5,167.083 372.5,372.5Zm-1600.42,-513.75l197.917,197.917c80.416,80.416 125,187.5 125,301.25c-0,70.416 -17.5,140 -50.834,202.083l-227.083,421.25c-94.583,-182.5 -147.917,-389.583 -147.917,-609.167c0,-181.666 36.667,-355 102.917,-513.333Zm618.75,1696.67l421.25,-227.084c61.667,-33.333 131.667,-50.833 202.083,-50.833c113.75,-0 220.834,44.167 301.25,125l197.917,197.917c-157.917,66.25 -331.667,103.333 -513.75,103.333c-219.167,-0.417 -425.833,-53.75 -608.75,-148.333Zm1225,-3.334l-224.583,-224.583c-100.417,-100.417 -234.167,-155.833 -376.667,-155.833c-87.917,-0 -175.417,22.083 -252.5,63.75l-479.167,257.916c-161.666,-103.75 -299.166,-241.25 -402.916,-402.916l257.916,-479.167c41.667,-77.5 63.75,-164.583 63.75,-252.5c0,-142.083 -55.416,-276.25 -155.833,-376.667l-224.583,-224.583c125.833,-240.417 323.333,-437.5 563.75,-563.75l497.916,497.917c-326.25,55.833 -575,339.583 -575,680.833c0,381.667 310.417,692.083 692.084,692.083c341.25,0 625,-248.75 681.25,-574.583l497.916,497.917c-125.833,240.833 -322.916,437.916 -563.333,564.166Z" style="fill-rule:nonzero;"/><path d="M2886.67,2707.08l-235,235l341.666,341.667l235,-235l-341.666,-341.667Zm-84.167,235l84.583,-84.583l190.834,190.833l-84.584,84.584l-190.833,-190.834Z" style="fill-rule:nonzero;"/><path d="M1593.47,1200.55l-75.424,75.424l106.36,106.36l75.424,-75.424l-106.36,-106.36Z"/><path d="M1806.66,1413.8l-75.424,75.424l106.36,106.36l75.424,-75.424l-106.36,-106.36Z"/><path d="M1274.04,1520.19l-75.424,75.424l106.36,106.36l75.424,-75.424l-106.36,-106.36Z"/><path d="M1486.93,1733.14l-75.424,75.424l106.36,106.36l75.424,-75.424l-106.36,-106.36Z"/><circle cx="1555.83" cy="1557.92" r="106.667"/><path d="M1981.67,2250c-0,146.667 119.583,266.25 266.25,266.25c146.666,0 266.25,-119.583 266.25,-266.25c-0,-146.667 -119.584,-266.25 -266.25,-266.25c-146.667,0 -266.25,119.583 -266.25,266.25Zm425.833,0c-0,87.917 -71.667,159.583 -159.583,159.583c-87.917,0 -159.584,-71.666 -159.584,-159.583c0,-87.917 71.667,-159.583 159.584,-159.583c87.916,-0 159.583,71.666 159.583,159.583Z" style="fill-rule:nonzero;"/></g></svg>