<?xml version="1.0" encoding="UTF-8" standalone="no"?><!DOCTYPE svg PUBLIC "-//W3C//DTD SVG 1.1//EN" "http://www.w3.org/Graphics/SVG/1.1/DTD/svg11.dtd"><svg width="100%" height="100%" viewBox="0 0 4500 4500" version="1.1" xmlns="http://www.w3.org/2000/svg" xmlns:xlink="http://www.w3.org/1999/xlink" xml:space="preserve" xmlns:serif="http://www.serif.com/" style="fill-rule:evenodd;clip-rule:evenodd;stroke-miterlimit:10;"><g id="Layer_1"><rect x="197.5" y="197.5" width="4103.33" height="4103.33" style="fill:#fff;stroke:#1d1d1b;stroke-width:125px;"/><path d="M3544.17,3469.58c-257.084,0 -509.584,-212.916 -684.167,-590c-10.417,-23.333 -4.583,-51.25 14.583,-67.916c78.334,-67.5 87.5,-185.417 20,-263.75c-67.5,-78.334 -185.416,-87.5 -263.75,-20c-23.75,20.416 -42.083,46.666 -53.333,76.25c-8.333,22.5 -30,37.5 -54.167,37.916l-543.333,0c-24.167,0 -45.833,-15 -54.167,-37.916c-36.25,-96.667 -144.166,-145.834 -240.833,-109.167c-96.667,36.25 -145.833,144.167 -109.167,240.833c10.834,29.167 29.167,55.417 52.917,75.834c19.167,17.083 25.417,44.583 14.583,67.916c-175,376.667 -426.666,590 -683.75,590c-52.916,0 -105.833,-8.75 -155.833,-26.25c-313.75,-107.5 -435.833,-552.916 -353.75,-1289.17c37.083,-330.417 111.25,-606.25 215.417,-796.667c118.75,-217.5 279.583,-332.917 464.583,-332.917c387.5,0 602.917,69.584 697.083,223.75c21.25,32.917 57.917,52.917 97.5,52.5l655.417,0c39.167,0.417 76.25,-19.583 97.083,-52.5c95,-155 309.584,-223.75 697.084,-223.75c185.416,0 346.666,115 464.583,332.917c104.167,191.667 179.167,467.083 215.417,796.667c81.666,735.833 -40.834,1181.25 -353.75,1289.17c-50,17.084 -102.917,26.25 -156.25,26.25Zm-562.084,-602.083c146.667,295.833 395.834,563.75 680,466.25c340.417,-116.667 318.75,-781.25 276.25,-1166.67c-34.583,-315.833 -105,-575.833 -202.083,-754.166c-98.75,-180.834 -220.833,-272.5 -363.75,-272.5c-338.333,-0 -527.917,53.333 -598.333,168.333c-42.5,67.5 -116.25,108.333 -196.25,108.333l-655,0c-79.584,0 -153.75,-40.833 -196.25,-108.333c-70.417,-115 -260,-168.333 -598.334,-168.333c-142.916,-0 -265,91.666 -363.75,272.5c-96.666,178.333 -165.833,438.333 -201.666,754.166c-42.5,385.834 -64.167,1050 276.25,1166.67c284.166,97.083 533.333,-170.833 680,-466.25c-44.167,-50.833 -70,-115.417 -72.5,-182.917c-7.917,-167.083 120.833,-309.166 287.916,-317.083c116.25,-5.417 225.417,55.833 280.834,158.333l469.583,0c79.583,-147.5 263.333,-202.5 410.833,-123.333c147.5,79.583 202.5,263.333 123.334,410.833c-10,19.167 -22.5,37.5 -37.084,54.167Z" style="fill:#1d1d1b;fill-rule:nonzero;"/><path d="M2125.42,2370l-114.584,0c-48.333,0 -87.083,-39.167 -87.083,-87.083c0,-48.334 39.167,-87.084 87.083,-87.084l114.167,0c48.333,0 87.5,39.167 87.5,87.084c0,47.916 -38.75,87.083 -87.083,87.083Z" style="fill:#1d1d1b;fill-rule:nonzero;"/><path d="M2507.92,2370l-114.167,0c-48.333,0 -87.083,-39.167 -87.083,-87.083c-0,-48.334 39.166,-87.084 87.083,-87.084l114.167,0c48.333,0 87.083,39.167 87.083,87.084c0.417,47.916 -38.75,86.666 -87.083,87.083Z" style="fill:#1d1d1b;fill-rule:nonzero;"/><path d="M1758.33,3008.33c-167.5,0 -303.333,-135.416 -303.333,-302.916c0,-167.5 135.417,-303.334 302.917,-303.334c161.666,0 295,126.667 302.916,288.334c7.5,167.083 -121.25,308.75 -287.916,317.5c-4.584,0.416 -9.584,0.416 -14.584,0.416Zm0,-490.416l-9.166,-0c-105.834,2.5 -189.584,90.416 -187.084,196.666c2.5,106.25 90.417,189.584 196.667,187.084c106.25,-2.5 189.583,-90.417 187.083,-196.667c-2.916,-102.083 -85,-184.583 -187.5,-187.083Z" style="fill:#1d1d1b;fill-rule:nonzero;"/><path d="M2760.42,3008.33c-167.5,0 -303.334,-135.416 -303.334,-302.916c0,-167.5 135.417,-303.334 302.917,-303.334c161.667,0 295,126.667 302.917,288.334c7.5,167.083 -121.25,308.75 -287.917,317.083c-5,0.833 -9.583,0.833 -14.583,0.833Zm-0,-490.416l-9.167,-0c-105.833,2.5 -189.583,90.416 -187.083,196.666c2.5,106.25 90.416,189.584 196.666,187.084c106.25,-2.5 189.584,-90.417 187.084,-196.667c-2.5,-102.083 -85,-184.583 -187.5,-187.083Z" style="fill:#1d1d1b;fill-rule:nonzero;"/><path d="M1362.5,2390l-200,0c-52.5,0 -95,-42.5 -95,-95l0,-131.25l-131.25,0c-52.5,0 -95,-42.5 -95,-94.583l0,-200c0,-52.5 42.5,-95 94.583,-95l131.25,-0l0,-137.5c0,-52.5 42.5,-95 95,-95l200,-0c52.5,-0 95,42.5 95,94.583l0,137.5l131.25,0c52.5,0 94.584,42.5 94.584,95l-0,200c-0,52.5 -42.5,95 -95,95l-131.25,0l-0,131.25c-0.417,51.667 -42.5,95 -94.167,95Zm-179.167,-115.833l157.5,-0l0,-131.25c0,-52.5 42.5,-95 94.584,-95l131.25,-0l-0,-157.5l-131.25,-0c-52.5,-0 -95,-42.5 -95,-94.584l-0,-137.5l-157.084,0l0,137.5c0,52.5 -42.5,95 -94.583,95l-131.25,0l-0,157.5l131.25,0c52.5,0 95,42.5 95,94.584l0,131.25l-0.417,-0Z" style="fill:#1d1d1b;fill-rule:nonzero;"/><circle cx="3288.33" cy="1729.17" r="137.5" style="fill:#1d1d1b;"/><circle cx="3288.33" cy="2179.17" r="137.5" style="fill:#1d1d1b;"/><circle cx="3513.33" cy="1953.75" r="137.5" style="fill:#1d1d1b;"/><circle cx="3062.92" cy="1953.75" r="137.5" style="fill:#1d1d1b;"/></g></svg>