<?xml version="1.0" encoding="UTF-8" standalone="no"?><!DOCTYPE svg PUBLIC "-//W3C//DTD SVG 1.1//EN" "http://www.w3.org/Graphics/SVG/1.1/DTD/svg11.dtd"><svg width="100%" height="100%" viewBox="0 0 2505 1750" version="1.1" xmlns="http://www.w3.org/2000/svg" xmlns:xlink="http://www.w3.org/1999/xlink" xml:space="preserve" xmlns:serif="http://www.serif.com/" style="fill-rule:evenodd;clip-rule:evenodd;"><rect id="Challenge-to-Technology--large-whole-" serif:id="Challenge-to-Technology (large whole)" x="0.761" y="0" width="2500" height="1750" style="fill:none;"/><clipPath id="_clip1"><rect x="0.761" y="0" width="2500" height="1750"/></clipPath><g clip-path="url(#_clip1)"><g><path d="M59.854,1245.85c1190.91,0 1190.91,-146.392 2381.81,-146.392" style="fill:none;fill-rule:nonzero;stroke:#62bf95;stroke-width:7.48px;"/><path d="M59.854,1256.87c1190.91,0 1190.91,-5.823 2381.81,-5.823" style="fill:none;fill-rule:nonzero;stroke:#62bf95;stroke-width:7.48px;"/><path d="M59.854,1179.78c1190.91,0 1190.91,-1155 2381.81,-1155" style="fill:none;fill-rule:nonzero;stroke:#62bf95;stroke-width:7.48px;"/><path d="M59.854,1262.37c1190.91,0 1190.91,61.709 2381.81,61.709" style="fill:none;fill-rule:nonzero;stroke:#62bf95;stroke-width:7.48px;"/><path d="M59.854,1185.29c1190.91,-0 1190.91,-1070.95 2381.81,-1070.95" style="fill:none;fill-rule:nonzero;stroke:#62bf95;stroke-width:7.48px;"/><path d="M59.854,1190.79c1190.91,0 1190.91,-986.899 2381.81,-986.899" style="fill:none;fill-rule:nonzero;stroke:#62bf95;stroke-width:7.48px;"/><path d="M59.854,1267.88c1190.91,-0 1190.91,129.24 2381.81,129.24" style="fill:none;fill-rule:nonzero;stroke:#62bf95;stroke-width:7.48px;"/><path d="M59.854,1196.3c1190.91,0 1190.91,-902.848 2381.81,-902.848" style="fill:none;fill-rule:nonzero;stroke:#62bf95;stroke-width:7.48px;"/><path d="M59.854,1201.8c1190.91,-0 1190.91,-818.798 2381.81,-818.798" style="fill:none;fill-rule:nonzero;stroke:#62bf95;stroke-width:7.48px;"/><path d="M59.854,1207.31c1190.91,0 1190.91,-734.747 2381.81,-734.747" style="fill:none;fill-rule:nonzero;stroke:#62bf95;stroke-width:7.48px;"/><path d="M59.854,1251.36c1190.91,-0 1190.91,-73.355 2381.81,-73.355" style="fill:none;fill-rule:nonzero;stroke:#62bf95;stroke-width:7.48px;"/><path d="M59.854,1212.82c1190.91,0 1190.91,-650.696 2381.81,-650.696" style="fill:none;fill-rule:nonzero;stroke:#62bf95;stroke-width:7.48px;"/><path d="M59.854,1218.32c1190.91,-0 1190.91,-566.646 2381.81,-566.646" style="fill:none;fill-rule:nonzero;stroke:#62bf95;stroke-width:7.48px;"/><path d="M59.854,1223.83c1190.91,0 1190.91,-482.595 2381.81,-482.595" style="fill:none;fill-rule:nonzero;stroke:#62bf95;stroke-width:7.48px;"/><path d="M59.854,1229.34c1190.91,0 1190.91,-398.544 2381.81,-398.544" style="fill:none;fill-rule:nonzero;stroke:#62bf95;stroke-width:7.48px;"/><path d="M59.854,1234.84c1190.91,-0 1190.91,-314.494 2381.81,-314.494" style="fill:none;fill-rule:nonzero;stroke:#62bf95;stroke-width:7.48px;"/><path d="M59.854,1240.35c1190.91,0 1190.91,-230.443 2381.81,-230.443" style="fill:none;fill-rule:nonzero;stroke:#62bf95;stroke-width:7.48px;"/><path d="M59.854,795.475c1190.91,-0 1190.91,287.468 2381.81,287.468" style="fill:none;fill-rule:nonzero;stroke:#7b67a8;stroke-width:7.48px;"/><path d="M59.854,806.487c1190.91,0 1190.91,433.545 2381.81,433.545" style="fill:none;fill-rule:nonzero;stroke:#7b67a8;stroke-width:7.48px;"/><path d="M59.854,729.399c1190.91,-0 1190.91,-721.14 2381.81,-721.14" style="fill:none;fill-rule:nonzero;stroke:#7b67a8;stroke-width:7.48px;"/><path d="M59.854,811.994c1190.91,-0 1190.91,501.076 2381.81,501.076" style="fill:none;fill-rule:nonzero;stroke:#7b67a8;stroke-width:7.48px;"/><path d="M59.854,734.905c1190.91,0 1190.91,-637.089 2381.81,-637.089" style="fill:none;fill-rule:nonzero;stroke:#7b67a8;stroke-width:7.48px;"/><path d="M59.854,740.411c1190.91,0 1190.91,-553.038 2381.81,-553.038" style="fill:none;fill-rule:nonzero;stroke:#7b67a8;stroke-width:7.48px;"/><path d="M59.854,823.006c1190.91,0 1190.91,636.14 2381.81,636.14" style="fill:none;fill-rule:nonzero;stroke:#7b67a8;stroke-width:7.48px;"/><path d="M59.854,828.513c1190.91,-0 1190.91,692.658 2381.81,692.658" style="fill:none;fill-rule:nonzero;stroke:#7b67a8;stroke-width:7.48px;"/><path d="M59.854,834.019c1190.91,-0 1190.91,749.177 2381.81,749.177" style="fill:none;fill-rule:nonzero;stroke:#7b67a8;stroke-width:7.48px;"/><path d="M59.854,817.5c1190.91,-0 1190.91,568.608 2381.81,568.608" style="fill:none;fill-rule:nonzero;stroke:#7b67a8;stroke-width:7.48px;"/><path d="M59.854,745.918c1190.91,-0 1190.91,-468.988 2381.81,-468.988" style="fill:none;fill-rule:nonzero;stroke:#7b67a8;stroke-width:7.48px;"/><path d="M59.854,751.424c1190.91,0 1190.91,-384.937 2381.81,-384.937" style="fill:none;fill-rule:nonzero;stroke:#7b67a8;stroke-width:7.48px;"/><path d="M59.854,756.93c1190.91,0 1190.91,-300.886 2381.81,-300.886" style="fill:none;fill-rule:nonzero;stroke:#7b67a8;stroke-width:7.48px;"/><path d="M59.854,800.981c1190.91,0 1190.91,360.506 2381.81,360.506" style="fill:none;fill-rule:nonzero;stroke:#7b67a8;stroke-width:7.48px;"/><path d="M59.854,762.437c1190.91,-0 1190.91,-216.836 2381.81,-216.836" style="fill:none;fill-rule:nonzero;stroke:#7b67a8;stroke-width:7.48px;"/><path d="M59.854,839.525c1190.91,0 1190.91,800.19 2381.81,800.19" style="fill:none;fill-rule:nonzero;stroke:#7b67a8;stroke-width:7.48px;"/><path d="M59.854,767.943c1190.91,0 1190.91,-132.785 2381.81,-132.785" style="fill:none;fill-rule:nonzero;stroke:#7b67a8;stroke-width:7.48px;"/><path d="M59.854,773.449c1190.91,0 1190.91,-48.734 2381.81,-48.734" style="fill:none;fill-rule:nonzero;stroke:#7b67a8;stroke-width:7.48px;"/><path d="M59.854,778.956c1190.91,-0 1190.91,35.316 2381.81,35.316" style="fill:none;fill-rule:nonzero;stroke:#7b67a8;stroke-width:7.48px;"/><path d="M59.854,784.462c1190.91,0 1190.91,119.367 2381.81,119.367" style="fill:none;fill-rule:nonzero;stroke:#7b67a8;stroke-width:7.48px;"/><path d="M59.854,789.968c1190.91,0 1190.91,203.418 2381.81,203.418" style="fill:none;fill-rule:nonzero;stroke:#7b67a8;stroke-width:7.48px;"/><path d="M59.854,1379.46c1190.91,0 1190.91,-274.494 2381.81,-274.494" style="fill:none;fill-rule:nonzero;stroke:#96c978;stroke-width:7.48px;"/><path d="M59.854,1390.48c1190.91,-0 1190.91,-133.924 2381.81,-133.924" style="fill:none;fill-rule:nonzero;stroke:#96c978;stroke-width:7.48px;"/><path d="M59.854,1313.39c1190.91,0 1190.91,-1283.1 2381.81,-1283.1" style="fill:none;fill-rule:nonzero;stroke:#96c978;stroke-width:7.48px;"/><path d="M59.854,1395.98c1190.91,0 1190.91,-66.392 2381.81,-66.392" style="fill:none;fill-rule:nonzero;stroke:#96c978;stroke-width:7.48px;"/><path d="M59.854,1318.89c1190.91,0 1190.91,-1199.05 2381.81,-1199.05" style="fill:none;fill-rule:nonzero;stroke:#96c978;stroke-width:7.48px;"/><path d="M59.854,1324.4c1190.91,-0 1190.91,-1115 2381.81,-1115" style="fill:none;fill-rule:nonzero;stroke:#96c978;stroke-width:7.48px;"/><path d="M59.854,1401.49c1190.91,0 1190.91,1.14 2381.81,1.14" style="fill:none;fill-rule:nonzero;stroke:#96c978;stroke-width:7.48px;"/><path d="M59.854,1329.9c1190.91,0 1190.91,-1030.95 2381.81,-1030.95" style="fill:none;fill-rule:nonzero;stroke:#96c978;stroke-width:7.48px;"/><path d="M59.854,1335.41c1190.91,0 1190.91,-946.898 2381.81,-946.898" style="fill:none;fill-rule:nonzero;stroke:#96c978;stroke-width:7.48px;"/><path d="M59.854,1340.92c1190.91,-0 1190.91,-862.848 2381.81,-862.848" style="fill:none;fill-rule:nonzero;stroke:#96c978;stroke-width:7.48px;"/><path d="M59.854,1384.97c1190.91,0 1190.91,-201.455 2381.81,-201.455" style="fill:none;fill-rule:nonzero;stroke:#96c978;stroke-width:7.48px;"/><path d="M59.854,1346.42c1190.91,0 1190.91,-778.797 2381.81,-778.797" style="fill:none;fill-rule:nonzero;stroke:#96c978;stroke-width:7.48px;"/><path d="M59.854,1351.93c1190.91,0 1190.91,-694.746 2381.81,-694.746" style="fill:none;fill-rule:nonzero;stroke:#96c978;stroke-width:7.48px;"/><path d="M59.854,1357.44c1190.91,-0 1190.91,-610.696 2381.81,-610.696" style="fill:none;fill-rule:nonzero;stroke:#96c978;stroke-width:7.48px;"/><path d="M59.854,1362.94c1190.91,0 1190.91,-526.646 2381.81,-526.646" style="fill:none;fill-rule:nonzero;stroke:#96c978;stroke-width:7.48px;"/><path d="M59.854,1368.45c1190.91,0 1190.91,-442.595 2381.81,-442.595" style="fill:none;fill-rule:nonzero;stroke:#96c978;stroke-width:7.48px;"/><path d="M59.854,1373.96c1190.91,-0 1190.91,-358.545 2381.81,-358.545" style="fill:none;fill-rule:nonzero;stroke:#96c978;stroke-width:7.48px;"/><path d="M59.854,1580.6c1190.91,0 1190.91,-1539.3 2381.81,-1539.3" style="fill:none;fill-rule:nonzero;stroke:#fddd3e;stroke-width:7.48px;"/><path d="M59.854,1586.11c1190.91,-0 1190.91,-1455.25 2381.81,-1455.25" style="fill:none;fill-rule:nonzero;stroke:#fddd3e;stroke-width:7.48px;"/><path d="M59.854,1591.61c1190.91,-0 1190.91,-1371.2 2381.81,-1371.2" style="fill:none;fill-rule:nonzero;stroke:#fddd3e;stroke-width:7.48px;"/><path d="M59.854,1597.12c1190.91,0 1190.91,-1287.15 2381.81,-1287.15" style="fill:none;fill-rule:nonzero;stroke:#fddd3e;stroke-width:7.48px;"/><path d="M59.854,1602.63c1190.91,-0 1190.91,-1203.1 2381.81,-1203.1" style="fill:none;fill-rule:nonzero;stroke:#fddd3e;stroke-width:7.48px;"/><path d="M59.854,1608.13c1190.91,-0 1190.91,-1119.05 2381.81,-1119.05" style="fill:none;fill-rule:nonzero;stroke:#fddd3e;stroke-width:7.48px;"/><path d="M59.854,1613.64c1190.91,0 1190.91,-1035 2381.81,-1035" style="fill:none;fill-rule:nonzero;stroke:#fddd3e;stroke-width:7.48px;"/><path d="M59.854,1619.15c1190.91,-0 1190.91,-950.95 2381.81,-950.95" style="fill:none;fill-rule:nonzero;stroke:#fddd3e;stroke-width:7.48px;"/><path d="M59.854,1624.65c1190.91,-0 1190.91,-866.899 2381.81,-866.899" style="fill:none;fill-rule:nonzero;stroke:#fddd3e;stroke-width:7.48px;"/><path d="M59.854,1630.16c1190.91,0 1190.91,-782.848 2381.81,-782.848" style="fill:none;fill-rule:nonzero;stroke:#fddd3e;stroke-width:7.48px;"/><path d="M59.854,1635.66c1190.91,-0 1190.91,-698.798 2381.81,-698.798" style="fill:none;fill-rule:nonzero;stroke:#fddd3e;stroke-width:7.48px;"/><path d="M59.854,1641.17c1190.91,-0 1190.91,-614.747 2381.81,-614.747" style="fill:none;fill-rule:nonzero;stroke:#fddd3e;stroke-width:7.48px;"/><path d="M59.854,1101.23c1190.91,0 1190.91,-7.278 2381.81,-7.278" style="fill:none;fill-rule:nonzero;stroke:#2eb5b2;stroke-width:7.48px;"/><path d="M59.854,1112.25c1190.91,-0 1190.91,133.291 2381.81,133.291" style="fill:none;fill-rule:nonzero;stroke:#2eb5b2;stroke-width:7.48px;"/><path d="M59.854,1035.16c1190.91,0 1190.91,-1015.89 2381.81,-1015.89" style="fill:none;fill-rule:nonzero;stroke:#2eb5b2;stroke-width:7.48px;"/><path d="M59.854,1117.75c1190.91,0 1190.91,200.823 2381.81,200.823" style="fill:none;fill-rule:nonzero;stroke:#2eb5b2;stroke-width:7.48px;"/><path d="M59.854,1040.66c1190.91,-0 1190.91,-931.836 2381.81,-931.836" style="fill:none;fill-rule:nonzero;stroke:#2eb5b2;stroke-width:7.48px;"/><path d="M59.854,1046.17c1190.91,-0 1190.91,-847.785 2381.81,-847.785" style="fill:none;fill-rule:nonzero;stroke:#2eb5b2;stroke-width:7.48px;"/><path d="M59.854,1128.77c1190.91,-0 1190.91,341.392 2381.81,341.392" style="fill:none;fill-rule:nonzero;stroke:#2eb5b2;stroke-width:7.48px;"/><path d="M59.854,1134.27c1190.91,0 1190.91,397.912 2381.81,397.912" style="fill:none;fill-rule:nonzero;stroke:#2eb5b2;stroke-width:7.48px;"/><path d="M59.854,1123.26c1190.91,0 1190.91,268.355 2381.81,268.355" style="fill:none;fill-rule:nonzero;stroke:#2eb5b2;stroke-width:7.48px;"/><path d="M59.854,1051.68c1190.91,0 1190.91,-763.734 2381.81,-763.734" style="fill:none;fill-rule:nonzero;stroke:#2eb5b2;stroke-width:7.48px;"/><path d="M59.854,1057.18c1190.91,-0 1190.91,-679.684 2381.81,-679.684" style="fill:none;fill-rule:nonzero;stroke:#2eb5b2;stroke-width:7.48px;"/><path d="M59.854,1062.69c1190.91,-0 1190.91,-595.633 2381.81,-595.633" style="fill:none;fill-rule:nonzero;stroke:#2eb5b2;stroke-width:7.48px;"/><path d="M59.854,1106.74c1190.91,-0 1190.91,65.759 2381.81,65.759" style="fill:none;fill-rule:nonzero;stroke:#2eb5b2;stroke-width:7.48px;"/><path d="M59.854,1068.2c1190.91,0 1190.91,-511.582 2381.81,-511.582" style="fill:none;fill-rule:nonzero;stroke:#2eb5b2;stroke-width:7.48px;"/><path d="M59.854,1073.7c1190.91,-0 1190.91,-427.532 2381.81,-427.532" style="fill:none;fill-rule:nonzero;stroke:#2eb5b2;stroke-width:7.48px;"/><path d="M59.854,1079.21c1190.91,-0 1190.91,-343.481 2381.81,-343.481" style="fill:none;fill-rule:nonzero;stroke:#2eb5b2;stroke-width:7.48px;"/><path d="M59.854,1084.71c1190.91,0 1190.91,-259.43 2381.81,-259.43" style="fill:none;fill-rule:nonzero;stroke:#2eb5b2;stroke-width:7.48px;"/><path d="M59.854,1090.22c1190.91,-0 1190.91,-175.38 2381.81,-175.38" style="fill:none;fill-rule:nonzero;stroke:#2eb5b2;stroke-width:7.48px;"/><path d="M59.854,1095.73c1190.91,-0 1190.91,-91.329 2381.81,-91.329" style="fill:none;fill-rule:nonzero;stroke:#2eb5b2;stroke-width:7.48px;"/><path d="M59.854,1686.68c1190.91,0 1190.91,-1639.87 2381.81,-1639.87" style="fill:none;fill-rule:nonzero;stroke:#ef7835;stroke-width:7.48px;"/><path d="M59.854,1692.18c1190.91,-0 1190.91,-1555.82 2381.81,-1555.82" style="fill:none;fill-rule:nonzero;stroke:#ef7835;stroke-width:7.48px;"/><path d="M59.854,1697.69c1190.91,-0 1190.91,-1471.77 2381.81,-1471.77" style="fill:none;fill-rule:nonzero;stroke:#ef7835;stroke-width:7.48px;"/><path d="M59.854,1703.2c1190.91,0 1190.91,-1387.72 2381.81,-1387.72" style="fill:none;fill-rule:nonzero;stroke:#ef7835;stroke-width:7.48px;"/><path d="M59.854,1708.7c1190.91,-0 1190.91,-1303.67 2381.81,-1303.67" style="fill:none;fill-rule:nonzero;stroke:#ef7835;stroke-width:7.48px;"/><path d="M59.854,1714.21c1190.91,-0 1190.91,-1219.62 2381.81,-1219.62" style="fill:none;fill-rule:nonzero;stroke:#ef7835;stroke-width:7.48px;"/><path d="M59.854,1719.72c1190.91,0 1190.91,-1135.57 2381.81,-1135.57" style="fill:none;fill-rule:nonzero;stroke:#ef7835;stroke-width:7.48px;"/><path d="M59.854,1725.22c1190.91,-0 1190.91,-1051.52 2381.81,-1051.52" style="fill:none;fill-rule:nonzero;stroke:#ef7835;stroke-width:7.48px;"/><path d="M59.854,1730.73c1190.91,-0 1190.91,-967.469 2381.81,-967.469" style="fill:none;fill-rule:nonzero;stroke:#ef7835;stroke-width:7.48px;"/><path d="M59.854,1736.23c1190.91,0 1190.91,-883.418 2381.81,-883.418" style="fill:none;fill-rule:nonzero;stroke:#ef7835;stroke-width:7.48px;"/><path d="M59.854,1741.74c1190.91,-0 1190.91,-799.368 2381.81,-799.368" style="fill:none;fill-rule:nonzero;stroke:#ef7835;stroke-width:7.48px;"/><path d="M59.854,1747.25c1190.91,-0 1190.91,-715.317 2381.81,-715.317" style="fill:none;fill-rule:nonzero;stroke:#ef7835;stroke-width:7.48px;"/><path d="M59.854,628.829c1190.91,0 1190.91,448.608 2381.81,448.608" style="fill:none;fill-rule:nonzero;stroke:#14022e;stroke-width:7.48px;"/><path d="M59.854,639.842c1190.91,-0 1190.91,594.683 2381.81,594.683" style="fill:none;fill-rule:nonzero;stroke:#14022e;stroke-width:7.48px;"/><path d="M59.854,562.753c1190.91,0 1190.91,-560 2381.81,-560" style="fill:none;fill-rule:nonzero;stroke:#14022e;stroke-width:7.48px;"/><path d="M59.854,645.348c1190.91,0 1190.91,662.215 2381.81,662.215" style="fill:none;fill-rule:nonzero;stroke:#14022e;stroke-width:7.48px;"/><path d="M59.854,568.259c1190.91,0 1190.91,-475.949 2381.81,-475.949" style="fill:none;fill-rule:nonzero;stroke:#14022e;stroke-width:7.48px;"/><path d="M59.854,573.766c1190.91,-0 1190.91,-391.899 2381.81,-391.899" style="fill:none;fill-rule:nonzero;stroke:#14022e;stroke-width:7.48px;"/><path d="M59.854,656.361c1190.91,-0 1190.91,797.278 2381.81,797.278" style="fill:none;fill-rule:nonzero;stroke:#14022e;stroke-width:7.48px;"/><path d="M59.854,661.867c1190.91,0 1190.91,853.798 2381.81,853.798" style="fill:none;fill-rule:nonzero;stroke:#14022e;stroke-width:7.48px;"/><path d="M59.854,667.373c1190.91,0 1190.91,910.317 2381.81,910.317" style="fill:none;fill-rule:nonzero;stroke:#14022e;stroke-width:7.48px;"/><path d="M59.854,650.854c1190.91,0 1190.91,729.747 2381.81,729.747" style="fill:none;fill-rule:nonzero;stroke:#14022e;stroke-width:7.48px;"/><path d="M59.854,678.386c1190.91,0 1190.91,1012.34 2381.81,1012.34" style="fill:none;fill-rule:nonzero;stroke:#14022e;stroke-width:7.48px;"/><path d="M59.854,579.272c1190.91,0 1190.91,-307.848 2381.81,-307.848" style="fill:none;fill-rule:nonzero;stroke:#14022e;stroke-width:7.48px;"/><path d="M59.854,584.778c1190.91,0 1190.91,-223.797 2381.81,-223.797" style="fill:none;fill-rule:nonzero;stroke:#14022e;stroke-width:7.48px;"/><path d="M59.854,590.285c1190.91,-0 1190.91,-139.747 2381.81,-139.747" style="fill:none;fill-rule:nonzero;stroke:#14022e;stroke-width:7.48px;"/><path d="M59.854,683.892c1190.91,0 1190.91,1057.85 2381.81,1057.85" style="fill:none;fill-rule:nonzero;stroke:#14022e;stroke-width:7.48px;"/><path d="M59.854,634.335c1190.91,0 1190.91,521.646 2381.81,521.646" style="fill:none;fill-rule:nonzero;stroke:#14022e;stroke-width:7.48px;"/><path d="M59.854,595.791c1190.91,0 1190.91,-55.696 2381.81,-55.696" style="fill:none;fill-rule:nonzero;stroke:#14022e;stroke-width:7.48px;"/><path d="M59.854,672.88c1190.91,-0 1190.91,961.329 2381.81,961.329" style="fill:none;fill-rule:nonzero;stroke:#14022e;stroke-width:7.48px;"/><path d="M59.854,601.297c1190.91,0 1190.91,28.355 2381.81,28.355" style="fill:none;fill-rule:nonzero;stroke:#14022e;stroke-width:7.48px;"/><path d="M59.854,606.804c1190.91,-0 1190.91,112.405 2381.81,112.405" style="fill:none;fill-rule:nonzero;stroke:#14022e;stroke-width:7.48px;"/><path d="M59.854,612.31c1190.91,0 1190.91,196.456 2381.81,196.456" style="fill:none;fill-rule:nonzero;stroke:#14022e;stroke-width:7.48px;"/><path d="M59.854,617.816c1190.91,0 1190.91,280.507 2381.81,280.507" style="fill:none;fill-rule:nonzero;stroke:#14022e;stroke-width:7.48px;"/><path d="M59.854,623.323c1190.91,-0 1190.91,364.557 2381.81,364.557" style="fill:none;fill-rule:nonzero;stroke:#14022e;stroke-width:7.48px;"/><path d="M59.854,951.108c1190.91,-0 1190.91,137.341 2381.81,137.341" style="fill:none;fill-rule:nonzero;stroke:#36bcee;stroke-width:7.48px;"/><path d="M59.854,885.032c1190.91,-0 1190.91,-871.266 2381.81,-871.266" style="fill:none;fill-rule:nonzero;stroke:#36bcee;stroke-width:7.48px;"/><path d="M59.854,890.538c1190.91,-0 1190.91,-787.215 2381.81,-787.215" style="fill:none;fill-rule:nonzero;stroke:#36bcee;stroke-width:7.48px;"/><path d="M59.854,896.044c1190.91,0 1190.91,-703.164 2381.81,-703.164" style="fill:none;fill-rule:nonzero;stroke:#36bcee;stroke-width:7.48px;"/><path d="M59.854,962.12c1190.91,0 1190.91,502.532 2381.81,502.532" style="fill:none;fill-rule:nonzero;stroke:#36bcee;stroke-width:7.48px;"/><path d="M59.854,967.627c1190.91,-0 1190.91,559.05 2381.81,559.05" style="fill:none;fill-rule:nonzero;stroke:#36bcee;stroke-width:7.48px;"/><path d="M59.854,973.133c1190.91,-0 1190.91,615.57 2381.81,615.57" style="fill:none;fill-rule:nonzero;stroke:#36bcee;stroke-width:7.48px;"/><path d="M59.854,984.146c1190.91,-0 1190.91,712.088 2381.81,712.088" style="fill:none;fill-rule:nonzero;stroke:#36bcee;stroke-width:7.48px;"/><path d="M59.854,901.551c1190.91,-0 1190.91,-619.114 2381.81,-619.114" style="fill:none;fill-rule:nonzero;stroke:#36bcee;stroke-width:7.48px;"/><path d="M59.854,907.057c1190.91,-0 1190.91,-535.063 2381.81,-535.063" style="fill:none;fill-rule:nonzero;stroke:#36bcee;stroke-width:7.48px;"/><path d="M59.854,912.563c1190.91,0 1190.91,-451.012 2381.81,-451.012" style="fill:none;fill-rule:nonzero;stroke:#36bcee;stroke-width:7.48px;"/><path d="M59.854,989.652c1190.91,-0 1190.91,757.595 2381.81,757.595" style="fill:none;fill-rule:nonzero;stroke:#36bcee;stroke-width:7.48px;"/><path d="M59.854,956.614c1190.91,-0 1190.91,210.38 2381.81,210.38" style="fill:none;fill-rule:nonzero;stroke:#36bcee;stroke-width:7.48px;"/><path d="M59.854,918.07c1190.91,-0 1190.91,-366.962 2381.81,-366.962" style="fill:none;fill-rule:nonzero;stroke:#36bcee;stroke-width:7.48px;"/><path d="M59.854,978.639c1190.91,0 1190.91,666.583 2381.81,666.583" style="fill:none;fill-rule:nonzero;stroke:#36bcee;stroke-width:7.48px;"/><path d="M59.854,923.576c1190.91,-0 1190.91,-282.911 2381.81,-282.911" style="fill:none;fill-rule:nonzero;stroke:#36bcee;stroke-width:7.48px;"/><path d="M59.854,929.082c1190.91,0 1190.91,-198.86 2381.81,-198.86" style="fill:none;fill-rule:nonzero;stroke:#36bcee;stroke-width:7.48px;"/><path d="M59.854,934.589c1190.91,-0 1190.91,-114.811 2381.81,-114.811" style="fill:none;fill-rule:nonzero;stroke:#36bcee;stroke-width:7.48px;"/><path d="M59.854,940.095c1190.91,-0 1190.91,-30.76 2381.81,-30.76" style="fill:none;fill-rule:nonzero;stroke:#36bcee;stroke-width:7.48px;"/><path d="M59.854,945.601c1190.91,0 1190.91,53.291 2381.81,53.291" style="fill:none;fill-rule:nonzero;stroke:#36bcee;stroke-width:7.48px;"/><path d="M59.854,1513.07c1190.91,-0 1190.91,-402.595 2381.81,-402.595" style="fill:none;fill-rule:nonzero;stroke:#c9d35b;stroke-width:7.48px;"/><path d="M59.854,1524.08c1190.91,0 1190.91,-262.025 2381.81,-262.025" style="fill:none;fill-rule:nonzero;stroke:#c9d35b;stroke-width:7.48px;"/><path d="M59.854,1446.99c1190.91,-0 1190.91,-1411.2 2381.81,-1411.2" style="fill:none;fill-rule:nonzero;stroke:#c9d35b;stroke-width:7.48px;"/><path d="M59.854,1529.59c1190.91,-0 1190.91,-194.494 2381.81,-194.494" style="fill:none;fill-rule:nonzero;stroke:#c9d35b;stroke-width:7.48px;"/><path d="M59.854,1452.5c1190.91,-0 1190.91,-1327.15 2381.81,-1327.15" style="fill:none;fill-rule:nonzero;stroke:#c9d35b;stroke-width:7.48px;"/><path d="M59.854,1458.01c1190.91,0 1190.91,-1243.1 2381.81,-1243.1" style="fill:none;fill-rule:nonzero;stroke:#c9d35b;stroke-width:7.48px;"/><path d="M59.854,1535.1c1190.91,-0 1190.91,-126.962 2381.81,-126.962" style="fill:none;fill-rule:nonzero;stroke:#c9d35b;stroke-width:7.48px;"/><path d="M59.854,1463.51c1190.91,-0 1190.91,-1159.05 2381.81,-1159.05" style="fill:none;fill-rule:nonzero;stroke:#c9d35b;stroke-width:7.48px;"/><path d="M59.854,1469.02c1190.91,-0 1190.91,-1075 2381.81,-1075" style="fill:none;fill-rule:nonzero;stroke:#c9d35b;stroke-width:7.48px;"/><path d="M59.854,1474.53c1190.91,0 1190.91,-990.949 2381.81,-990.949" style="fill:none;fill-rule:nonzero;stroke:#c9d35b;stroke-width:7.48px;"/><path d="M59.854,1518.58c1190.91,-0 1190.91,-329.557 2381.81,-329.557" style="fill:none;fill-rule:nonzero;stroke:#c9d35b;stroke-width:7.48px;"/><path d="M59.854,1480.03c1190.91,-0 1190.91,-906.899 2381.81,-906.899" style="fill:none;fill-rule:nonzero;stroke:#c9d35b;stroke-width:7.48px;"/><path d="M59.854,1485.54c1190.91,-0 1190.91,-822.848 2381.81,-822.848" style="fill:none;fill-rule:nonzero;stroke:#c9d35b;stroke-width:7.48px;"/><path d="M59.854,1491.04c1190.91,0 1190.91,-738.797 2381.81,-738.797" style="fill:none;fill-rule:nonzero;stroke:#c9d35b;stroke-width:7.48px;"/><path d="M59.854,1496.55c1190.91,-0 1190.91,-654.747 2381.81,-654.747" style="fill:none;fill-rule:nonzero;stroke:#c9d35b;stroke-width:7.48px;"/><path d="M59.854,1502.06c1190.91,-0 1190.91,-570.696 2381.81,-570.696" style="fill:none;fill-rule:nonzero;stroke:#c9d35b;stroke-width:7.48px;"/><path d="M59.854,1507.56c1190.91,0 1190.91,-486.645 2381.81,-486.645" style="fill:none;fill-rule:nonzero;stroke:#c9d35b;stroke-width:7.48px;"/><g><rect x="2441.67" y="1074.68" width="59.094" height="38.544" style="fill:#fff;stroke:#000;stroke-width:1.36px;"/><rect x="2441.67" y="1231.77" width="59.094" height="33.038" style="fill:#fff;stroke:#000;stroke-width:1.36px;"/><rect x="2441.67" y="0" width="59.094" height="49.557" style="fill:#fff;stroke:#000;stroke-width:1.36px;"/><rect x="2441.67" y="1304.81" width="59.094" height="33.038" style="fill:#fff;stroke:#000;stroke-width:1.36px;"/><rect x="2441.67" y="89.557" width="59.094" height="49.557" style="fill:#fff;stroke:#000;stroke-width:1.36px;"/><rect x="2441.67" y="179.114" width="59.094" height="49.557" style="fill:#fff;stroke:#000;stroke-width:1.36px;"/><rect x="2441.67" y="1450.89" width="59.094" height="22.025" style="fill:#fff;stroke:#000;stroke-width:1.36px;"/><rect x="2441.67" y="1512.91" width="59.094" height="22.025" style="fill:#fff;stroke:#000;stroke-width:1.36px;"/><rect x="2441.67" y="1574.94" width="59.094" height="16.519" style="fill:#fff;stroke:#000;stroke-width:1.36px;"/><rect x="2441.67" y="1377.85" width="59.094" height="33.038" style="fill:#fff;stroke:#000;stroke-width:1.36px;"/><rect x="2441.67" y="1687.98" width="59.094" height="11.013" style="fill:#fff;stroke:#000;stroke-width:1.36px;"/><rect x="2441.67" y="268.671" width="59.094" height="49.557" style="fill:#fff;stroke:#000;stroke-width:1.36px;"/><rect x="2441.67" y="358.228" width="59.094" height="49.557" style="fill:#fff;stroke:#000;stroke-width:1.36px;"/><rect x="2441.67" y="447.785" width="59.094" height="49.557" style="fill:#fff;stroke:#000;stroke-width:1.36px;"/><rect x="2441.67" y="1738.99" width="59.094" height="11.013" style="fill:#fff;stroke:#000;stroke-width:1.36px;"/><rect x="2441.67" y="1153.23" width="59.094" height="38.544" style="fill:#fff;stroke:#000;stroke-width:1.36px;"/><rect x="2441.67" y="537.342" width="59.094" height="49.557" style="fill:#fff;stroke:#000;stroke-width:1.36px;"/><rect x="2441.67" y="1631.46" width="59.094" height="16.519" style="fill:#fff;stroke:#000;stroke-width:1.36px;"/><rect x="2441.67" y="626.899" width="59.094" height="49.557" style="fill:#fff;stroke:#000;stroke-width:1.36px;"/><rect x="2441.67" y="716.456" width="59.094" height="49.557" style="fill:#fff;stroke:#000;stroke-width:1.36px;"/><rect x="2441.67" y="806.013" width="59.094" height="49.557" style="fill:#fff;stroke:#000;stroke-width:1.36px;"/><rect x="2441.67" y="895.57" width="59.094" height="49.557" style="fill:#fff;stroke:#000;stroke-width:1.36px;"/><rect x="2441.67" y="985.127" width="59.094" height="49.557" style="fill:#fff;stroke:#000;stroke-width:1.36px;"/></g><g><rect x="0.761" y="1177.03" width="59.094" height="93.608" style="fill:#62bf95;stroke:#62bf95;stroke-width:1.36px;"/><rect x="0.761" y="726.646" width="59.094" height="115.633" style="fill:#7b67a8;stroke:#7b67a8;stroke-width:1.36px;"/><rect x="0.761" y="1310.63" width="59.094" height="93.608" style="fill:#96c978;stroke:#96c978;stroke-width:1.36px;"/><rect x="0.761" y="1577.85" width="59.094" height="66.076" style="fill:#fddd3e;stroke:#fddd3e;stroke-width:1.36px;"/><rect x="0.761" y="1032.4" width="59.094" height="104.62" style="fill:#2eb5b2;stroke:#2eb5b2;stroke-width:1.36px;"/><rect x="0.761" y="1683.92" width="59.094" height="66.076" style="fill:#ef7835;stroke:#ef7835;stroke-width:1.36px;"/><rect x="0.761" y="560" width="59.094" height="126.646" style="fill:#14022e;stroke:#14022e;stroke-width:1.36px;"/><rect x="0.761" y="882.278" width="59.094" height="110.127" style="fill:#36bcee;stroke:#36bcee;stroke-width:1.36px;"/><rect x="0.761" y="1444.24" width="59.094" height="93.608" style="fill:#c9d35b;stroke:#c9d35b;stroke-width:1.36px;"/></g></g></g></svg>