<?xml version="1.0" encoding="UTF-8" standalone="no"?><!DOCTYPE svg PUBLIC "-//W3C//DTD SVG 1.1//EN" "http://www.w3.org/Graphics/SVG/1.1/DTD/svg11.dtd"><svg width="100%" height="100%" viewBox="0 0 2505 1750" version="1.1" xmlns="http://www.w3.org/2000/svg" xmlns:xlink="http://www.w3.org/1999/xlink" xml:space="preserve" xmlns:serif="http://www.serif.com/" style="fill-rule:evenodd;clip-rule:evenodd;"><rect id="Challenge-to-Technology--large-part-" serif:id="Challenge-to-Technology (large part)" x="0.761" y="0" width="2500" height="1750" style="fill:none;"/><clipPath id="_clip1"><rect x="0.761" y="0" width="2500" height="1750"/></clipPath><g clip-path="url(#_clip1)"><g><path d="M89.401,993.782c1786.36,-0 1786.36,-219.589 3572.72,-219.589" style="fill:none;fill-rule:nonzero;stroke:#62bf95;stroke-width:11.23px;"/><path d="M89.401,1010.3c1786.36,-0 1786.36,-8.735 3572.72,-8.735" style="fill:none;fill-rule:nonzero;stroke:#62bf95;stroke-width:11.23px;"/><path d="M89.401,894.668c1786.36,-0 1786.36,-1732.5 3572.72,-1732.5" style="fill:none;fill-rule:nonzero;stroke:#62bf95;stroke-width:11.23px;"/><path d="M89.401,1018.56c1786.36,0 1786.36,92.563 3572.72,92.563" style="fill:none;fill-rule:nonzero;stroke:#62bf95;stroke-width:11.23px;"/><path d="M89.401,902.927c1786.36,0 1786.36,-1606.42 3572.72,-1606.42" style="fill:none;fill-rule:nonzero;stroke:#62bf95;stroke-width:11.23px;"/><path d="M89.401,911.187c1786.36,-0 1786.36,-1480.35 3572.72,-1480.35" style="fill:none;fill-rule:nonzero;stroke:#62bf95;stroke-width:11.23px;"/><path d="M89.401,1026.82c1786.36,-0 1786.36,193.86 3572.72,193.86" style="fill:none;fill-rule:nonzero;stroke:#62bf95;stroke-width:11.23px;"/><path d="M89.401,919.446c1786.36,0 1786.36,-1354.27 3572.72,-1354.27" style="fill:none;fill-rule:nonzero;stroke:#62bf95;stroke-width:11.23px;"/><path d="M89.401,927.706c1786.36,-0 1786.36,-1228.2 3572.72,-1228.2" style="fill:none;fill-rule:nonzero;stroke:#62bf95;stroke-width:11.23px;"/><path d="M89.401,935.965c1786.36,0 1786.36,-1102.12 3572.72,-1102.12" style="fill:none;fill-rule:nonzero;stroke:#62bf95;stroke-width:11.23px;"/><path d="M89.401,1002.04c1786.36,0 1786.36,-110.032 3572.72,-110.032" style="fill:none;fill-rule:nonzero;stroke:#62bf95;stroke-width:11.23px;"/><path d="M89.401,944.225c1786.36,-0 1786.36,-976.045 3572.72,-976.045" style="fill:none;fill-rule:nonzero;stroke:#62bf95;stroke-width:11.23px;"/><path d="M89.401,952.484c1786.36,0 1786.36,-849.968 3572.72,-849.968" style="fill:none;fill-rule:nonzero;stroke:#62bf95;stroke-width:11.23px;"/><path d="M89.401,960.744c1786.36,-0 1786.36,-723.893 3572.72,-723.893" style="fill:none;fill-rule:nonzero;stroke:#62bf95;stroke-width:11.23px;"/><path d="M89.401,969.003c1786.36,0 1786.36,-597.816 3572.72,-597.816" style="fill:none;fill-rule:nonzero;stroke:#62bf95;stroke-width:11.23px;"/><path d="M89.401,977.263c1786.36,-0 1786.36,-471.741 3572.72,-471.741" style="fill:none;fill-rule:nonzero;stroke:#62bf95;stroke-width:11.23px;"/><path d="M89.401,985.522c1786.36,0 1786.36,-345.664 3572.72,-345.664" style="fill:none;fill-rule:nonzero;stroke:#62bf95;stroke-width:11.23px;"/><path d="M89.401,318.212c1786.36,0 1786.36,431.203 3572.72,431.203" style="fill:none;fill-rule:nonzero;stroke:#7b67a8;stroke-width:11.23px;"/><path d="M89.401,334.731c1786.36,0 1786.36,650.316 3572.72,650.316" style="fill:none;fill-rule:nonzero;stroke:#7b67a8;stroke-width:11.23px;"/><path d="M89.401,219.098c1786.36,0 1786.36,-1081.71 3572.72,-1081.71" style="fill:none;fill-rule:nonzero;stroke:#7b67a8;stroke-width:11.23px;"/><path d="M89.401,342.991c1786.36,-0 1786.36,751.613 3572.72,751.613" style="fill:none;fill-rule:nonzero;stroke:#7b67a8;stroke-width:11.23px;"/><path d="M89.401,227.358c1786.36,-0 1786.36,-955.633 3572.72,-955.633" style="fill:none;fill-rule:nonzero;stroke:#7b67a8;stroke-width:11.23px;"/><path d="M89.401,235.617c1786.36,0 1786.36,-829.557 3572.72,-829.557" style="fill:none;fill-rule:nonzero;stroke:#7b67a8;stroke-width:11.23px;"/><path d="M89.401,359.509c1786.36,0 1786.36,954.209 3572.72,954.209" style="fill:none;fill-rule:nonzero;stroke:#7b67a8;stroke-width:11.23px;"/><path d="M89.401,367.769c1786.36,-0 1786.36,1038.99 3572.72,1038.99" style="fill:none;fill-rule:nonzero;stroke:#7b67a8;stroke-width:11.23px;"/><path d="M89.401,376.028c1786.36,0 1786.36,1123.77 3572.72,1123.77" style="fill:none;fill-rule:nonzero;stroke:#7b67a8;stroke-width:11.23px;"/><path d="M89.401,351.25c1786.36,-0 1786.36,852.911 3572.72,852.911" style="fill:none;fill-rule:nonzero;stroke:#7b67a8;stroke-width:11.23px;"/><path d="M89.401,243.877c1786.36,-0 1786.36,-703.481 3572.72,-703.481" style="fill:none;fill-rule:nonzero;stroke:#7b67a8;stroke-width:11.23px;"/><path d="M89.401,252.136c1786.36,0 1786.36,-577.405 3572.72,-577.405" style="fill:none;fill-rule:nonzero;stroke:#7b67a8;stroke-width:11.23px;"/><path d="M89.401,260.396c1786.36,-0 1786.36,-451.33 3572.72,-451.33" style="fill:none;fill-rule:nonzero;stroke:#7b67a8;stroke-width:11.23px;"/><path d="M89.401,326.472c1786.36,-0 1786.36,540.759 3572.72,540.759" style="fill:none;fill-rule:nonzero;stroke:#7b67a8;stroke-width:11.23px;"/><path d="M89.401,268.655c1786.36,0 1786.36,-325.253 3572.72,-325.253" style="fill:none;fill-rule:nonzero;stroke:#7b67a8;stroke-width:11.23px;"/><path d="M89.401,384.288c1786.36,-0 1786.36,1200.29 3572.72,1200.29" style="fill:none;fill-rule:nonzero;stroke:#7b67a8;stroke-width:11.23px;"/><path d="M89.401,276.915c1786.36,-0 1786.36,-199.178 3572.72,-199.178" style="fill:none;fill-rule:nonzero;stroke:#7b67a8;stroke-width:11.23px;"/><path d="M89.401,285.174c1786.36,0 1786.36,-73.101 3572.72,-73.101" style="fill:none;fill-rule:nonzero;stroke:#7b67a8;stroke-width:11.23px;"/><path d="M89.401,293.434c1786.36,-0 1786.36,52.974 3572.72,52.974" style="fill:none;fill-rule:nonzero;stroke:#7b67a8;stroke-width:11.23px;"/><path d="M89.401,301.693c1786.36,0 1786.36,179.051 3572.72,179.051" style="fill:none;fill-rule:nonzero;stroke:#7b67a8;stroke-width:11.23px;"/><path d="M89.401,309.953c1786.36,-0 1786.36,305.126 3572.72,305.126" style="fill:none;fill-rule:nonzero;stroke:#7b67a8;stroke-width:11.23px;"/><path d="M89.401,1194.19c1786.36,0 1786.36,-411.74 3572.72,-411.74" style="fill:none;fill-rule:nonzero;stroke:#96c978;stroke-width:11.23px;"/><path d="M89.401,1210.71c1786.36,0 1786.36,-200.886 3572.72,-200.886" style="fill:none;fill-rule:nonzero;stroke:#96c978;stroke-width:11.23px;"/><path d="M89.401,1095.08c1786.36,0 1786.36,-1924.65 3572.72,-1924.65" style="fill:none;fill-rule:nonzero;stroke:#96c978;stroke-width:11.23px;"/><path d="M89.401,1218.97c1786.36,-0 1786.36,-99.589 3572.72,-99.589" style="fill:none;fill-rule:nonzero;stroke:#96c978;stroke-width:11.23px;"/><path d="M89.401,1103.34c1786.36,-0 1786.36,-1798.58 3572.72,-1798.58" style="fill:none;fill-rule:nonzero;stroke:#96c978;stroke-width:11.23px;"/><path d="M89.401,1111.6c1786.36,0 1786.36,-1672.5 3572.72,-1672.5" style="fill:none;fill-rule:nonzero;stroke:#96c978;stroke-width:11.23px;"/><path d="M89.401,1227.23c1786.36,0 1786.36,1.709 3572.72,1.709" style="fill:none;fill-rule:nonzero;stroke:#96c978;stroke-width:11.23px;"/><path d="M89.401,1119.86c1786.36,-0 1786.36,-1546.42 3572.72,-1546.42" style="fill:none;fill-rule:nonzero;stroke:#96c978;stroke-width:11.23px;"/><path d="M89.401,1128.12c1786.36,0 1786.36,-1420.35 3572.72,-1420.35" style="fill:none;fill-rule:nonzero;stroke:#96c978;stroke-width:11.23px;"/><path d="M89.401,1136.38c1786.36,-0 1786.36,-1294.27 3572.72,-1294.27" style="fill:none;fill-rule:nonzero;stroke:#96c978;stroke-width:11.23px;"/><path d="M89.401,1202.45c1786.36,-0 1786.36,-302.184 3572.72,-302.184" style="fill:none;fill-rule:nonzero;stroke:#96c978;stroke-width:11.23px;"/><path d="M89.401,1144.64c1786.36,0 1786.36,-1168.2 3572.72,-1168.2" style="fill:none;fill-rule:nonzero;stroke:#96c978;stroke-width:11.23px;"/><path d="M89.401,1152.9c1786.36,-0 1786.36,-1042.12 3572.72,-1042.12" style="fill:none;fill-rule:nonzero;stroke:#96c978;stroke-width:11.23px;"/><path d="M89.401,1161.15c1786.36,0 1786.36,-916.044 3572.72,-916.044" style="fill:none;fill-rule:nonzero;stroke:#96c978;stroke-width:11.23px;"/><path d="M89.401,1169.41c1786.36,-0 1786.36,-789.969 3572.72,-789.969" style="fill:none;fill-rule:nonzero;stroke:#96c978;stroke-width:11.23px;"/><path d="M89.401,1177.67c1786.36,0 1786.36,-663.892 3572.72,-663.892" style="fill:none;fill-rule:nonzero;stroke:#96c978;stroke-width:11.23px;"/><path d="M89.401,1185.93c1786.36,-0 1786.36,-537.817 3572.72,-537.817" style="fill:none;fill-rule:nonzero;stroke:#96c978;stroke-width:11.23px;"/><path d="M89.401,1495.9c1786.36,-0 1786.36,-2308.96 3572.72,-2308.96" style="fill:none;fill-rule:nonzero;stroke:#fddd3e;stroke-width:11.23px;"/><path d="M89.401,1504.16c1786.36,0 1786.36,-2182.88 3572.72,-2182.88" style="fill:none;fill-rule:nonzero;stroke:#fddd3e;stroke-width:11.23px;"/><path d="M89.401,1512.42c1786.36,-0 1786.36,-2056.8 3572.72,-2056.8" style="fill:none;fill-rule:nonzero;stroke:#fddd3e;stroke-width:11.23px;"/><path d="M89.401,1520.68c1786.36,0 1786.36,-1930.73 3572.72,-1930.73" style="fill:none;fill-rule:nonzero;stroke:#fddd3e;stroke-width:11.23px;"/><path d="M89.401,1528.94c1786.36,-0 1786.36,-1804.65 3572.72,-1804.65" style="fill:none;fill-rule:nonzero;stroke:#fddd3e;stroke-width:11.23px;"/><path d="M89.401,1537.2c1786.36,0 1786.36,-1678.58 3572.72,-1678.58" style="fill:none;fill-rule:nonzero;stroke:#fddd3e;stroke-width:11.23px;"/><path d="M89.401,1545.46c1786.36,-0 1786.36,-1552.5 3572.72,-1552.5" style="fill:none;fill-rule:nonzero;stroke:#fddd3e;stroke-width:11.23px;"/><path d="M89.401,1553.72c1786.36,0 1786.36,-1426.42 3572.72,-1426.42" style="fill:none;fill-rule:nonzero;stroke:#fddd3e;stroke-width:11.23px;"/><path d="M89.401,1561.98c1786.36,-0 1786.36,-1300.35 3572.72,-1300.35" style="fill:none;fill-rule:nonzero;stroke:#fddd3e;stroke-width:11.23px;"/><path d="M89.401,1570.24c1786.36,0 1786.36,-1174.27 3572.72,-1174.27" style="fill:none;fill-rule:nonzero;stroke:#fddd3e;stroke-width:11.23px;"/><path d="M89.401,1578.5c1786.36,-0 1786.36,-1048.2 3572.72,-1048.2" style="fill:none;fill-rule:nonzero;stroke:#fddd3e;stroke-width:11.23px;"/><path d="M89.401,1586.76c1786.36,0 1786.36,-922.12 3572.72,-922.12" style="fill:none;fill-rule:nonzero;stroke:#fddd3e;stroke-width:11.23px;"/><path d="M89.401,776.851c1786.36,0 1786.36,-10.917 3572.72,-10.917" style="fill:none;fill-rule:nonzero;stroke:#2eb5b2;stroke-width:11.23px;"/><path d="M89.401,793.37c1786.36,0 1786.36,199.937 3572.72,199.937" style="fill:none;fill-rule:nonzero;stroke:#2eb5b2;stroke-width:11.23px;"/><path d="M89.401,677.737c1786.36,0 1786.36,-1523.83 3572.72,-1523.83" style="fill:none;fill-rule:nonzero;stroke:#2eb5b2;stroke-width:11.23px;"/><path d="M89.401,801.63c1786.36,-0 1786.36,301.234 3572.72,301.234" style="fill:none;fill-rule:nonzero;stroke:#2eb5b2;stroke-width:11.23px;"/><path d="M89.401,685.997c1786.36,-0 1786.36,-1397.75 3572.72,-1397.75" style="fill:none;fill-rule:nonzero;stroke:#2eb5b2;stroke-width:11.23px;"/><path d="M89.401,694.256c1786.36,0 1786.36,-1271.68 3572.72,-1271.68" style="fill:none;fill-rule:nonzero;stroke:#2eb5b2;stroke-width:11.23px;"/><path d="M89.401,818.149c1786.36,-0 1786.36,512.088 3572.72,512.088" style="fill:none;fill-rule:nonzero;stroke:#2eb5b2;stroke-width:11.23px;"/><path d="M89.401,826.408c1786.36,0 1786.36,596.867 3572.72,596.867" style="fill:none;fill-rule:nonzero;stroke:#2eb5b2;stroke-width:11.23px;"/><path d="M89.401,809.889c1786.36,0 1786.36,402.532 3572.72,402.532" style="fill:none;fill-rule:nonzero;stroke:#2eb5b2;stroke-width:11.23px;"/><path d="M89.401,702.516c1786.36,-0 1786.36,-1145.6 3572.72,-1145.6" style="fill:none;fill-rule:nonzero;stroke:#2eb5b2;stroke-width:11.23px;"/><path d="M89.401,710.775c1786.36,0 1786.36,-1019.52 3572.72,-1019.52" style="fill:none;fill-rule:nonzero;stroke:#2eb5b2;stroke-width:11.23px;"/><path d="M89.401,719.035c1786.36,-0 1786.36,-893.45 3572.72,-893.45" style="fill:none;fill-rule:nonzero;stroke:#2eb5b2;stroke-width:11.23px;"/><path d="M89.401,785.111c1786.36,-0 1786.36,98.639 3572.72,98.639" style="fill:none;fill-rule:nonzero;stroke:#2eb5b2;stroke-width:11.23px;"/><path d="M89.401,727.294c1786.36,0 1786.36,-767.373 3572.72,-767.373" style="fill:none;fill-rule:nonzero;stroke:#2eb5b2;stroke-width:11.23px;"/><path d="M89.401,735.554c1786.36,-0 1786.36,-641.298 3572.72,-641.298" style="fill:none;fill-rule:nonzero;stroke:#2eb5b2;stroke-width:11.23px;"/><path d="M89.401,743.813c1786.36,0 1786.36,-515.221 3572.72,-515.221" style="fill:none;fill-rule:nonzero;stroke:#2eb5b2;stroke-width:11.23px;"/><path d="M89.401,752.073c1786.36,-0 1786.36,-389.146 3572.72,-389.146" style="fill:none;fill-rule:nonzero;stroke:#2eb5b2;stroke-width:11.23px;"/><path d="M89.401,760.332c1786.36,0 1786.36,-263.069 3572.72,-263.069" style="fill:none;fill-rule:nonzero;stroke:#2eb5b2;stroke-width:11.23px;"/><path d="M89.401,768.592c1786.36,-0 1786.36,-136.994 3572.72,-136.994" style="fill:none;fill-rule:nonzero;stroke:#2eb5b2;stroke-width:11.23px;"/><path d="M89.401,1655.02c1786.36,-0 1786.36,-2459.81 3572.72,-2459.81" style="fill:none;fill-rule:nonzero;stroke:#ef7835;stroke-width:11.23px;"/><path d="M89.401,1663.28c1786.36,0 1786.36,-2333.73 3572.72,-2333.73" style="fill:none;fill-rule:nonzero;stroke:#ef7835;stroke-width:11.23px;"/><path d="M89.401,1671.54c1786.36,-0 1786.36,-2207.66 3572.72,-2207.66" style="fill:none;fill-rule:nonzero;stroke:#ef7835;stroke-width:11.23px;"/><path d="M89.401,1679.79c1786.36,0 1786.36,-2081.58 3572.72,-2081.58" style="fill:none;fill-rule:nonzero;stroke:#ef7835;stroke-width:11.23px;"/><path d="M89.401,1688.05c1786.36,-0 1786.36,-1955.51 3572.72,-1955.51" style="fill:none;fill-rule:nonzero;stroke:#ef7835;stroke-width:11.23px;"/><path d="M89.401,1696.31c1786.36,0 1786.36,-1829.43 3572.72,-1829.43" style="fill:none;fill-rule:nonzero;stroke:#ef7835;stroke-width:11.23px;"/><path d="M89.401,1704.57c1786.36,-0 1786.36,-1703.36 3572.72,-1703.36" style="fill:none;fill-rule:nonzero;stroke:#ef7835;stroke-width:11.23px;"/><path d="M89.401,1712.83c1786.36,0 1786.36,-1577.28 3572.72,-1577.28" style="fill:none;fill-rule:nonzero;stroke:#ef7835;stroke-width:11.23px;"/><path d="M89.401,1721.09c1786.36,-0 1786.36,-1451.2 3572.72,-1451.2" style="fill:none;fill-rule:nonzero;stroke:#ef7835;stroke-width:11.23px;"/><path d="M89.401,1729.35c1786.36,0 1786.36,-1325.13 3572.72,-1325.13" style="fill:none;fill-rule:nonzero;stroke:#ef7835;stroke-width:11.23px;"/><path d="M89.401,1737.61c1786.36,-0 1786.36,-1199.05 3572.72,-1199.05" style="fill:none;fill-rule:nonzero;stroke:#ef7835;stroke-width:11.23px;"/><path d="M89.401,1745.87c1786.36,0 1786.36,-1072.97 3572.72,-1072.97" style="fill:none;fill-rule:nonzero;stroke:#ef7835;stroke-width:11.23px;"/><path d="M89.401,68.244c1786.36,-0 1786.36,672.911 3572.72,672.911" style="fill:none;fill-rule:nonzero;stroke:#14022e;stroke-width:11.23px;"/><path d="M89.401,84.763c1786.36,-0 1786.36,892.025 3572.72,892.025" style="fill:none;fill-rule:nonzero;stroke:#14022e;stroke-width:11.23px;"/><path d="M89.401,93.022c1786.36,0 1786.36,993.323 3572.72,993.323" style="fill:none;fill-rule:nonzero;stroke:#14022e;stroke-width:11.23px;"/><path d="M89.401,-22.611c1786.36,0 1786.36,-713.924 3572.72,-713.924" style="fill:none;fill-rule:nonzero;stroke:#14022e;stroke-width:11.23px;"/><path d="M89.401,-14.351c1786.36,-0 1786.36,-587.848 3572.72,-587.848" style="fill:none;fill-rule:nonzero;stroke:#14022e;stroke-width:11.23px;"/><path d="M89.401,109.541c1786.36,0 1786.36,1195.92 3572.72,1195.92" style="fill:none;fill-rule:nonzero;stroke:#14022e;stroke-width:11.23px;"/><path d="M89.401,117.801c1786.36,-0 1786.36,1280.7 3572.72,1280.7" style="fill:none;fill-rule:nonzero;stroke:#14022e;stroke-width:11.23px;"/><path d="M89.401,126.06c1786.36,0 1786.36,1365.48 3572.72,1365.48" style="fill:none;fill-rule:nonzero;stroke:#14022e;stroke-width:11.23px;"/><path d="M89.401,101.282c1786.36,-0 1786.36,1094.62 3572.72,1094.62" style="fill:none;fill-rule:nonzero;stroke:#14022e;stroke-width:11.23px;"/><path d="M89.401,142.579c1786.36,0 1786.36,1518.51 3572.72,1518.51" style="fill:none;fill-rule:nonzero;stroke:#14022e;stroke-width:11.23px;"/><path d="M89.401,-6.092c1786.36,0 1786.36,-461.772 3572.72,-461.772" style="fill:none;fill-rule:nonzero;stroke:#14022e;stroke-width:11.23px;"/><path d="M89.401,2.168c1786.36,-0 1786.36,-335.696 3572.72,-335.696" style="fill:none;fill-rule:nonzero;stroke:#14022e;stroke-width:11.23px;"/><path d="M89.401,10.427c1786.36,0 1786.36,-209.62 3572.72,-209.62" style="fill:none;fill-rule:nonzero;stroke:#14022e;stroke-width:11.23px;"/><path d="M89.401,150.839c1786.36,-0 1786.36,1586.77 3572.72,1586.77" style="fill:none;fill-rule:nonzero;stroke:#14022e;stroke-width:11.23px;"/><path d="M89.401,76.503c1786.36,0 1786.36,782.469 3572.72,782.469" style="fill:none;fill-rule:nonzero;stroke:#14022e;stroke-width:11.23px;"/><path d="M89.401,18.687c1786.36,-0 1786.36,-83.545 3572.72,-83.545" style="fill:none;fill-rule:nonzero;stroke:#14022e;stroke-width:11.23px;"/><path d="M89.401,134.32c1786.36,-0 1786.36,1441.99 3572.72,1441.99" style="fill:none;fill-rule:nonzero;stroke:#14022e;stroke-width:11.23px;"/><path d="M89.401,26.946c1786.36,0 1786.36,42.532 3572.72,42.532" style="fill:none;fill-rule:nonzero;stroke:#14022e;stroke-width:11.23px;"/><path d="M89.401,35.206c1786.36,-0 1786.36,168.607 3572.72,168.607" style="fill:none;fill-rule:nonzero;stroke:#14022e;stroke-width:11.23px;"/><path d="M89.401,43.465c1786.36,0 1786.36,294.684 3572.72,294.684" style="fill:none;fill-rule:nonzero;stroke:#14022e;stroke-width:11.23px;"/><path d="M89.401,51.725c1786.36,-0 1786.36,420.759 3572.72,420.759" style="fill:none;fill-rule:nonzero;stroke:#14022e;stroke-width:11.23px;"/><path d="M89.401,59.984c1786.36,0 1786.36,546.836 3572.72,546.836" style="fill:none;fill-rule:nonzero;stroke:#14022e;stroke-width:11.23px;"/><path d="M89.401,551.661c1786.36,0 1786.36,206.013 3572.72,206.013" style="fill:none;fill-rule:nonzero;stroke:#36bcee;stroke-width:11.23px;"/><path d="M89.401,452.547c1786.36,0 1786.36,-1306.9 3572.72,-1306.9" style="fill:none;fill-rule:nonzero;stroke:#36bcee;stroke-width:11.23px;"/><path d="M89.401,460.807c1786.36,-0 1786.36,-1180.82 3572.72,-1180.82" style="fill:none;fill-rule:nonzero;stroke:#36bcee;stroke-width:11.23px;"/><path d="M89.401,469.066c1786.36,0 1786.36,-1054.75 3572.72,-1054.75" style="fill:none;fill-rule:nonzero;stroke:#36bcee;stroke-width:11.23px;"/><path d="M89.401,568.18c1786.36,0 1786.36,753.798 3572.72,753.798" style="fill:none;fill-rule:nonzero;stroke:#36bcee;stroke-width:11.23px;"/><path d="M89.401,576.44c1786.36,-0 1786.36,838.576 3572.72,838.576" style="fill:none;fill-rule:nonzero;stroke:#36bcee;stroke-width:11.23px;"/><path d="M89.401,584.699c1786.36,0 1786.36,923.355 3572.72,923.355" style="fill:none;fill-rule:nonzero;stroke:#36bcee;stroke-width:11.23px;"/><path d="M89.401,601.218c1786.36,0 1786.36,1068.13 3572.72,1068.13" style="fill:none;fill-rule:nonzero;stroke:#36bcee;stroke-width:11.23px;"/><path d="M89.401,477.326c1786.36,-0 1786.36,-928.671 3572.72,-928.671" style="fill:none;fill-rule:nonzero;stroke:#36bcee;stroke-width:11.23px;"/><path d="M89.401,485.585c1786.36,0 1786.36,-802.594 3572.72,-802.594" style="fill:none;fill-rule:nonzero;stroke:#36bcee;stroke-width:11.23px;"/><path d="M89.401,493.845c1786.36,-0 1786.36,-676.519 3572.72,-676.519" style="fill:none;fill-rule:nonzero;stroke:#36bcee;stroke-width:11.23px;"/><path d="M89.401,609.478c1786.36,-0 1786.36,1136.39 3572.72,1136.39" style="fill:none;fill-rule:nonzero;stroke:#36bcee;stroke-width:11.23px;"/><path d="M89.401,559.921c1786.36,-0 1786.36,315.57 3572.72,315.57" style="fill:none;fill-rule:nonzero;stroke:#36bcee;stroke-width:11.23px;"/><path d="M89.401,502.104c1786.36,0 1786.36,-550.443 3572.72,-550.443" style="fill:none;fill-rule:nonzero;stroke:#36bcee;stroke-width:11.23px;"/><path d="M89.401,592.959c1786.36,-0 1786.36,999.873 3572.72,999.873" style="fill:none;fill-rule:nonzero;stroke:#36bcee;stroke-width:11.23px;"/><path d="M89.401,510.364c1786.36,-0 1786.36,-424.367 3572.72,-424.367" style="fill:none;fill-rule:nonzero;stroke:#36bcee;stroke-width:11.23px;"/><path d="M89.401,518.623c1786.36,0 1786.36,-298.291 3572.72,-298.291" style="fill:none;fill-rule:nonzero;stroke:#36bcee;stroke-width:11.23px;"/><path d="M89.401,526.883c1786.36,-0 1786.36,-172.215 3572.72,-172.215" style="fill:none;fill-rule:nonzero;stroke:#36bcee;stroke-width:11.23px;"/><path d="M89.401,535.142c1786.36,0 1786.36,-46.139 3572.72,-46.139" style="fill:none;fill-rule:nonzero;stroke:#36bcee;stroke-width:11.23px;"/><path d="M89.401,543.402c1786.36,-0 1786.36,79.937 3572.72,79.937" style="fill:none;fill-rule:nonzero;stroke:#36bcee;stroke-width:11.23px;"/><path d="M89.401,1394.6c1786.36,0 1786.36,-603.892 3572.72,-603.892" style="fill:none;fill-rule:nonzero;stroke:#c9d35b;stroke-width:11.23px;"/><path d="M89.401,1411.12c1786.36,0 1786.36,-393.038 3572.72,-393.038" style="fill:none;fill-rule:nonzero;stroke:#c9d35b;stroke-width:11.23px;"/><path d="M89.401,1295.49c1786.36,-0 1786.36,-2116.8 3572.72,-2116.8" style="fill:none;fill-rule:nonzero;stroke:#c9d35b;stroke-width:11.23px;"/><path d="M89.401,1419.38c1786.36,-0 1786.36,-291.741 3572.72,-291.741" style="fill:none;fill-rule:nonzero;stroke:#c9d35b;stroke-width:11.23px;"/><path d="M89.401,1303.75c1786.36,-0 1786.36,-1990.73 3572.72,-1990.73" style="fill:none;fill-rule:nonzero;stroke:#c9d35b;stroke-width:11.23px;"/><path d="M89.401,1312.01c1786.36,0 1786.36,-1864.65 3572.72,-1864.65" style="fill:none;fill-rule:nonzero;stroke:#c9d35b;stroke-width:11.23px;"/><path d="M89.401,1427.64c1786.36,0 1786.36,-190.443 3572.72,-190.443" style="fill:none;fill-rule:nonzero;stroke:#c9d35b;stroke-width:11.23px;"/><path d="M89.401,1320.27c1786.36,-0 1786.36,-1738.58 3572.72,-1738.58" style="fill:none;fill-rule:nonzero;stroke:#c9d35b;stroke-width:11.23px;"/><path d="M89.401,1328.53c1786.36,0 1786.36,-1612.5 3572.72,-1612.5" style="fill:none;fill-rule:nonzero;stroke:#c9d35b;stroke-width:11.23px;"/><path d="M89.401,1336.79c1786.36,-0 1786.36,-1486.42 3572.72,-1486.42" style="fill:none;fill-rule:nonzero;stroke:#c9d35b;stroke-width:11.23px;"/><path d="M89.401,1402.86c1786.36,-0 1786.36,-494.336 3572.72,-494.336" style="fill:none;fill-rule:nonzero;stroke:#c9d35b;stroke-width:11.23px;"/><path d="M89.401,1345.05c1786.36,0 1786.36,-1360.35 3572.72,-1360.35" style="fill:none;fill-rule:nonzero;stroke:#c9d35b;stroke-width:11.23px;"/><path d="M89.401,1353.31c1786.36,-0 1786.36,-1234.27 3572.72,-1234.27" style="fill:none;fill-rule:nonzero;stroke:#c9d35b;stroke-width:11.23px;"/><path d="M89.401,1361.57c1786.36,0 1786.36,-1108.2 3572.72,-1108.2" style="fill:none;fill-rule:nonzero;stroke:#c9d35b;stroke-width:11.23px;"/><path d="M89.401,1369.83c1786.36,-0 1786.36,-982.12 3572.72,-982.12" style="fill:none;fill-rule:nonzero;stroke:#c9d35b;stroke-width:11.23px;"/><path d="M89.401,1378.09c1786.36,0 1786.36,-856.044 3572.72,-856.044" style="fill:none;fill-rule:nonzero;stroke:#c9d35b;stroke-width:11.23px;"/><path d="M89.401,1386.35c1786.36,-0 1786.36,-729.968 3572.72,-729.968" style="fill:none;fill-rule:nonzero;stroke:#c9d35b;stroke-width:11.23px;"/><g><rect x="0.761" y="890.538" width="88.641" height="140.411" style="fill:#62bf95;stroke:#62bf95;stroke-width:2.04px;"/><rect x="0.761" y="214.968" width="88.641" height="173.449" style="fill:#7b67a8;stroke:#7b67a8;stroke-width:2.04px;"/><rect x="0.761" y="1090.95" width="88.641" height="140.411" style="fill:#96c978;stroke:#96c978;stroke-width:2.04px;"/><rect x="0.761" y="1491.77" width="88.641" height="99.114" style="fill:#fddd3e;stroke:#fddd3e;stroke-width:2.04px;"/><rect x="0.761" y="673.608" width="88.641" height="156.93" style="fill:#2eb5b2;stroke:#2eb5b2;stroke-width:2.04px;"/><rect x="0.761" y="1650.89" width="88.641" height="99.114" style="fill:#ef7835;stroke:#ef7835;stroke-width:2.04px;"/><rect x="0.761" y="-35" width="88.641" height="189.968" style="fill:#14022e;stroke:#14022e;stroke-width:2.04px;"/><rect x="0.761" y="448.418" width="88.641" height="165.19" style="fill:#36bcee;stroke:#36bcee;stroke-width:2.04px;"/><rect x="0.761" y="1291.36" width="88.641" height="140.411" style="fill:#c9d35b;stroke:#c9d35b;stroke-width:2.04px;"/></g></g></g></svg>