<?xml version="1.0" encoding="UTF-8" standalone="no"?><!DOCTYPE svg PUBLIC "-//W3C//DTD SVG 1.1//EN" "http://www.w3.org/Graphics/SVG/1.1/DTD/svg11.dtd"><svg width="100%" height="100%" viewBox="0 0 12505 8750" version="1.1" xmlns="http://www.w3.org/2000/svg" xmlns:xlink="http://www.w3.org/1999/xlink" xml:space="preserve" xmlns:serif="http://www.serif.com/" style="fill-rule:evenodd;clip-rule:evenodd;"><rect id="Challenge-to-Technology--extreme-hi-res-part-" serif:id="Challenge-to-Technology (extreme hi-res part)" x="0.761" y="-0" width="12500" height="8750" style="fill:none;"/><clipPath id="_clip1"><rect x="0.761" y="-0" width="12500" height="8750"/></clipPath><g clip-path="url(#_clip1)"><g><path d="M443.965,4968.91c8931.8,0 8931.8,-1097.94 17863.6,-1097.94" style="fill:none;fill-rule:nonzero;stroke:#62bf95;stroke-width:56.13px;"/><path d="M443.965,5051.5c8931.8,0 8931.8,-43.671 17863.6,-43.671" style="fill:none;fill-rule:nonzero;stroke:#62bf95;stroke-width:56.13px;"/><path d="M443.965,4473.34c8931.8,-0 8931.8,-8662.5 17863.6,-8662.5" style="fill:none;fill-rule:nonzero;stroke:#62bf95;stroke-width:56.13px;"/><path d="M443.965,5092.8c8931.8,-0 8931.8,462.816 17863.6,462.816" style="fill:none;fill-rule:nonzero;stroke:#62bf95;stroke-width:56.13px;"/><path d="M443.965,4514.64c8931.8,0 8931.8,-8032.12 17863.6,-8032.12" style="fill:none;fill-rule:nonzero;stroke:#62bf95;stroke-width:56.13px;"/><path d="M443.965,4555.93c8931.8,-0 8931.8,-7401.74 17863.6,-7401.74" style="fill:none;fill-rule:nonzero;stroke:#62bf95;stroke-width:56.13px;"/><path d="M443.965,5134.1c8931.8,0 8931.8,969.304 17863.6,969.304" style="fill:none;fill-rule:nonzero;stroke:#62bf95;stroke-width:56.13px;"/><path d="M443.965,4597.23c8931.8,0 8931.8,-6771.36 17863.6,-6771.36" style="fill:none;fill-rule:nonzero;stroke:#62bf95;stroke-width:56.13px;"/><path d="M443.965,4638.53c8931.8,0 8931.8,-6140.98 17863.6,-6140.98" style="fill:none;fill-rule:nonzero;stroke:#62bf95;stroke-width:56.13px;"/><path d="M443.965,4679.83c8931.8,-0 8931.8,-5510.6 17863.6,-5510.6" style="fill:none;fill-rule:nonzero;stroke:#62bf95;stroke-width:56.13px;"/><path d="M443.965,5010.21c8931.8,-0 8931.8,-550.159 17863.6,-550.159" style="fill:none;fill-rule:nonzero;stroke:#62bf95;stroke-width:56.13px;"/><path d="M443.965,4721.12c8931.8,0 8931.8,-4880.22 17863.6,-4880.22" style="fill:none;fill-rule:nonzero;stroke:#62bf95;stroke-width:56.13px;"/><path d="M443.965,4762.42c8931.8,-0 8931.8,-4249.84 17863.6,-4249.84" style="fill:none;fill-rule:nonzero;stroke:#62bf95;stroke-width:56.13px;"/><path d="M443.965,4803.72c8931.8,0 8931.8,-3619.46 17863.6,-3619.46" style="fill:none;fill-rule:nonzero;stroke:#62bf95;stroke-width:56.13px;"/><path d="M443.965,4845.02c8931.8,-0 8931.8,-2989.08 17863.6,-2989.08" style="fill:none;fill-rule:nonzero;stroke:#62bf95;stroke-width:56.13px;"/><path d="M443.965,4886.31c8931.8,0 8931.8,-2358.7 17863.6,-2358.7" style="fill:none;fill-rule:nonzero;stroke:#62bf95;stroke-width:56.13px;"/><path d="M443.965,4927.61c8931.8,-0 8931.8,-1728.32 17863.6,-1728.32" style="fill:none;fill-rule:nonzero;stroke:#62bf95;stroke-width:56.13px;"/><path d="M443.965,1591.06c8931.8,0 8931.8,2156.01 17863.6,2156.01" style="fill:none;fill-rule:nonzero;stroke:#7b67a8;stroke-width:56.13px;"/><path d="M443.965,1673.65c8931.8,0 8931.8,3251.58 17863.6,3251.58" style="fill:none;fill-rule:nonzero;stroke:#7b67a8;stroke-width:56.13px;"/><path d="M443.965,1095.49c8931.8,-0 8931.8,-5408.55 17863.6,-5408.55" style="fill:none;fill-rule:nonzero;stroke:#7b67a8;stroke-width:56.13px;"/><path d="M443.965,1714.95c8931.8,-0 8931.8,3758.07 17863.6,3758.07" style="fill:none;fill-rule:nonzero;stroke:#7b67a8;stroke-width:56.13px;"/><path d="M443.965,1136.79c8931.8,-0 8931.8,-4778.16 17863.6,-4778.16" style="fill:none;fill-rule:nonzero;stroke:#7b67a8;stroke-width:56.13px;"/><path d="M443.965,1178.09c8931.8,0 8931.8,-4147.78 17863.6,-4147.78" style="fill:none;fill-rule:nonzero;stroke:#7b67a8;stroke-width:56.13px;"/><path d="M443.965,1797.55c8931.8,0 8931.8,4771.05 17863.6,4771.05" style="fill:none;fill-rule:nonzero;stroke:#7b67a8;stroke-width:56.13px;"/><path d="M443.965,1838.85c8931.8,-0 8931.8,5194.94 17863.6,5194.94" style="fill:none;fill-rule:nonzero;stroke:#7b67a8;stroke-width:56.13px;"/><path d="M443.965,1880.14c8931.8,0 8931.8,5618.83 17863.6,5618.83" style="fill:none;fill-rule:nonzero;stroke:#7b67a8;stroke-width:56.13px;"/><path d="M443.965,1756.25c8931.8,0 8931.8,4264.56 17863.6,4264.56" style="fill:none;fill-rule:nonzero;stroke:#7b67a8;stroke-width:56.13px;"/><path d="M443.965,1219.38c8931.8,-0 8931.8,-3517.41 17863.6,-3517.41" style="fill:none;fill-rule:nonzero;stroke:#7b67a8;stroke-width:56.13px;"/><path d="M443.965,1260.68c8931.8,0 8931.8,-2887.03 17863.6,-2887.03" style="fill:none;fill-rule:nonzero;stroke:#7b67a8;stroke-width:56.13px;"/><path d="M443.965,1301.98c8931.8,-0 8931.8,-2256.65 17863.6,-2256.65" style="fill:none;fill-rule:nonzero;stroke:#7b67a8;stroke-width:56.13px;"/><path d="M443.965,1632.36c8931.8,-0 8931.8,2703.8 17863.6,2703.8" style="fill:none;fill-rule:nonzero;stroke:#7b67a8;stroke-width:56.13px;"/><path d="M443.965,1343.28c8931.8,0 8931.8,-1626.27 17863.6,-1626.27" style="fill:none;fill-rule:nonzero;stroke:#7b67a8;stroke-width:56.13px;"/><path d="M443.965,1921.44c8931.8,-0 8931.8,6001.42 17863.6,6001.42" style="fill:none;fill-rule:nonzero;stroke:#7b67a8;stroke-width:56.13px;"/><path d="M443.965,1384.57c8931.8,-0 8931.8,-995.886 17863.6,-995.886" style="fill:none;fill-rule:nonzero;stroke:#7b67a8;stroke-width:56.13px;"/><path d="M443.965,1425.87c8931.8,0 8931.8,-365.506 17863.6,-365.506" style="fill:none;fill-rule:nonzero;stroke:#7b67a8;stroke-width:56.13px;"/><path d="M443.965,1467.17c8931.8,-0 8931.8,264.873 17863.6,264.873" style="fill:none;fill-rule:nonzero;stroke:#7b67a8;stroke-width:56.13px;"/><path d="M443.965,1508.46c8931.8,0 8931.8,895.253 17863.6,895.253" style="fill:none;fill-rule:nonzero;stroke:#7b67a8;stroke-width:56.13px;"/><path d="M443.965,1549.76c8931.8,-0 8931.8,1525.63 17863.6,1525.63" style="fill:none;fill-rule:nonzero;stroke:#7b67a8;stroke-width:56.13px;"/><path d="M443.965,5970.97c8931.8,0 8931.8,-2058.7 17863.6,-2058.7" style="fill:none;fill-rule:nonzero;stroke:#96c978;stroke-width:56.13px;"/><path d="M443.965,6053.56c8931.8,0 8931.8,-1004.43 17863.6,-1004.43" style="fill:none;fill-rule:nonzero;stroke:#96c978;stroke-width:56.13px;"/><path d="M443.965,5475.4c8931.8,-0 8931.8,-9623.26 17863.6,-9623.26" style="fill:none;fill-rule:nonzero;stroke:#96c978;stroke-width:56.13px;"/><path d="M443.965,6094.86c8931.8,-0 8931.8,-497.943 17863.6,-497.943" style="fill:none;fill-rule:nonzero;stroke:#96c978;stroke-width:56.13px;"/><path d="M443.965,5516.69c8931.8,0 8931.8,-8992.88 17863.6,-8992.88" style="fill:none;fill-rule:nonzero;stroke:#96c978;stroke-width:56.13px;"/><path d="M443.965,5557.99c8931.8,-0 8931.8,-8362.5 17863.6,-8362.5" style="fill:none;fill-rule:nonzero;stroke:#96c978;stroke-width:56.13px;"/><path d="M443.965,6136.15c8931.8,0 8931.8,8.544 17863.6,8.544" style="fill:none;fill-rule:nonzero;stroke:#96c978;stroke-width:56.13px;"/><path d="M443.965,5599.29c8931.8,-0 8931.8,-7732.12 17863.6,-7732.12" style="fill:none;fill-rule:nonzero;stroke:#96c978;stroke-width:56.13px;"/><path d="M443.965,5640.59c8931.8,0 8931.8,-7101.74 17863.6,-7101.74" style="fill:none;fill-rule:nonzero;stroke:#96c978;stroke-width:56.13px;"/><path d="M443.965,5681.88c8931.8,-0 8931.8,-6471.36 17863.6,-6471.36" style="fill:none;fill-rule:nonzero;stroke:#96c978;stroke-width:56.13px;"/><path d="M443.965,6012.26c8931.8,-0 8931.8,-1510.92 17863.6,-1510.92" style="fill:none;fill-rule:nonzero;stroke:#96c978;stroke-width:56.13px;"/><path d="M443.965,5723.18c8931.8,0 8931.8,-5840.98 17863.6,-5840.98" style="fill:none;fill-rule:nonzero;stroke:#96c978;stroke-width:56.13px;"/><path d="M443.965,5764.48c8931.8,-0 8931.8,-5210.6 17863.6,-5210.6" style="fill:none;fill-rule:nonzero;stroke:#96c978;stroke-width:56.13px;"/><path d="M443.965,5805.78c8931.8,0 8931.8,-4580.22 17863.6,-4580.22" style="fill:none;fill-rule:nonzero;stroke:#96c978;stroke-width:56.13px;"/><path d="M443.965,5847.07c8931.8,-0 8931.8,-3949.84 17863.6,-3949.84" style="fill:none;fill-rule:nonzero;stroke:#96c978;stroke-width:56.13px;"/><path d="M443.965,5888.37c8931.8,0 8931.8,-3319.46 17863.6,-3319.46" style="fill:none;fill-rule:nonzero;stroke:#96c978;stroke-width:56.13px;"/><path d="M443.965,5929.67c8931.8,-0 8931.8,-2689.08 17863.6,-2689.08" style="fill:none;fill-rule:nonzero;stroke:#96c978;stroke-width:56.13px;"/><path d="M443.965,7479.51c8931.8,0 8931.8,-11544.8 17863.6,-11544.8" style="fill:none;fill-rule:nonzero;stroke:#fddd3e;stroke-width:56.13px;"/><path d="M443.965,7520.81c8931.8,-0 8931.8,-10914.4 17863.6,-10914.4" style="fill:none;fill-rule:nonzero;stroke:#fddd3e;stroke-width:56.13px;"/><path d="M443.965,7562.1c8931.8,0 8931.8,-10284 17863.6,-10284" style="fill:none;fill-rule:nonzero;stroke:#fddd3e;stroke-width:56.13px;"/><path d="M443.965,7603.4c8931.8,-0 8931.8,-9653.64 17863.6,-9653.64" style="fill:none;fill-rule:nonzero;stroke:#fddd3e;stroke-width:56.13px;"/><path d="M443.965,7644.7c8931.8,0 8931.8,-9023.26 17863.6,-9023.26" style="fill:none;fill-rule:nonzero;stroke:#fddd3e;stroke-width:56.13px;"/><path d="M443.965,7686c8931.8,-0 8931.8,-8392.88 17863.6,-8392.88" style="fill:none;fill-rule:nonzero;stroke:#fddd3e;stroke-width:56.13px;"/><path d="M443.965,7727.29c8931.8,0 8931.8,-7762.5 17863.6,-7762.5" style="fill:none;fill-rule:nonzero;stroke:#fddd3e;stroke-width:56.13px;"/><path d="M443.965,7768.59c8931.8,-0 8931.8,-7132.12 17863.6,-7132.12" style="fill:none;fill-rule:nonzero;stroke:#fddd3e;stroke-width:56.13px;"/><path d="M443.965,7809.89c8931.8,0 8931.8,-6501.74 17863.6,-6501.74" style="fill:none;fill-rule:nonzero;stroke:#fddd3e;stroke-width:56.13px;"/><path d="M443.965,7851.19c8931.8,-0 8931.8,-5871.36 17863.6,-5871.36" style="fill:none;fill-rule:nonzero;stroke:#fddd3e;stroke-width:56.13px;"/><path d="M443.965,7892.48c8931.8,0 8931.8,-5240.98 17863.6,-5240.98" style="fill:none;fill-rule:nonzero;stroke:#fddd3e;stroke-width:56.13px;"/><path d="M443.965,7933.78c8931.8,-0 8931.8,-4610.6 17863.6,-4610.6" style="fill:none;fill-rule:nonzero;stroke:#fddd3e;stroke-width:56.13px;"/><path d="M443.965,3884.26c8931.8,0 8931.8,-54.588 17863.6,-54.588" style="fill:none;fill-rule:nonzero;stroke:#2eb5b2;stroke-width:56.13px;"/><path d="M443.965,3966.85c8931.8,0 8931.8,999.684 17863.6,999.684" style="fill:none;fill-rule:nonzero;stroke:#2eb5b2;stroke-width:56.13px;"/><path d="M443.965,3388.69c8931.8,-0 8931.8,-7619.15 17863.6,-7619.15" style="fill:none;fill-rule:nonzero;stroke:#2eb5b2;stroke-width:56.13px;"/><path d="M443.965,4008.15c8931.8,-0 8931.8,1506.17 17863.6,1506.17" style="fill:none;fill-rule:nonzero;stroke:#2eb5b2;stroke-width:56.13px;"/><path d="M443.965,3429.98c8931.8,0 8931.8,-6988.77 17863.6,-6988.77" style="fill:none;fill-rule:nonzero;stroke:#2eb5b2;stroke-width:56.13px;"/><path d="M443.965,3471.28c8931.8,-0 8931.8,-6358.39 17863.6,-6358.39" style="fill:none;fill-rule:nonzero;stroke:#2eb5b2;stroke-width:56.13px;"/><path d="M443.965,4090.74c8931.8,-0 8931.8,2560.44 17863.6,2560.44" style="fill:none;fill-rule:nonzero;stroke:#2eb5b2;stroke-width:56.13px;"/><path d="M443.965,4132.04c8931.8,0 8931.8,2984.34 17863.6,2984.34" style="fill:none;fill-rule:nonzero;stroke:#2eb5b2;stroke-width:56.13px;"/><path d="M443.965,4049.45c8931.8,0 8931.8,2012.66 17863.6,2012.66" style="fill:none;fill-rule:nonzero;stroke:#2eb5b2;stroke-width:56.13px;"/><path d="M443.965,3512.58c8931.8,0 8931.8,-5728.01 17863.6,-5728.01" style="fill:none;fill-rule:nonzero;stroke:#2eb5b2;stroke-width:56.13px;"/><path d="M443.965,3553.88c8931.8,-0 8931.8,-5097.63 17863.6,-5097.63" style="fill:none;fill-rule:nonzero;stroke:#2eb5b2;stroke-width:56.13px;"/><path d="M443.965,3595.17c8931.8,0 8931.8,-4467.25 17863.6,-4467.25" style="fill:none;fill-rule:nonzero;stroke:#2eb5b2;stroke-width:56.13px;"/><path d="M443.965,3925.55c8931.8,-0 8931.8,493.196 17863.6,493.196" style="fill:none;fill-rule:nonzero;stroke:#2eb5b2;stroke-width:56.13px;"/><path d="M443.965,3636.47c8931.8,-0 8931.8,-3836.87 17863.6,-3836.87" style="fill:none;fill-rule:nonzero;stroke:#2eb5b2;stroke-width:56.13px;"/><path d="M443.965,3677.77c8931.8,-0 8931.8,-3206.49 17863.6,-3206.49" style="fill:none;fill-rule:nonzero;stroke:#2eb5b2;stroke-width:56.13px;"/><path d="M443.965,3719.07c8931.8,0 8931.8,-2576.11 17863.6,-2576.11" style="fill:none;fill-rule:nonzero;stroke:#2eb5b2;stroke-width:56.13px;"/><path d="M443.965,3760.36c8931.8,-0 8931.8,-1945.73 17863.6,-1945.73" style="fill:none;fill-rule:nonzero;stroke:#2eb5b2;stroke-width:56.13px;"/><path d="M443.965,3801.66c8931.8,0 8931.8,-1315.35 17863.6,-1315.35" style="fill:none;fill-rule:nonzero;stroke:#2eb5b2;stroke-width:56.13px;"/><path d="M443.965,3842.96c8931.8,-0 8931.8,-684.968 17863.6,-684.968" style="fill:none;fill-rule:nonzero;stroke:#2eb5b2;stroke-width:56.13px;"/><path d="M443.965,8275.08c8931.8,0 8931.8,-12299.1 17863.6,-12299.1" style="fill:none;fill-rule:nonzero;stroke:#ef7835;stroke-width:56.13px;"/><path d="M443.965,8316.38c8931.8,-0 8931.8,-11668.7 17863.6,-11668.7" style="fill:none;fill-rule:nonzero;stroke:#ef7835;stroke-width:56.13px;"/><path d="M443.965,8357.67c8931.8,0 8931.8,-11038.3 17863.6,-11038.3" style="fill:none;fill-rule:nonzero;stroke:#ef7835;stroke-width:56.13px;"/><path d="M443.965,8398.97c8931.8,-0 8931.8,-10407.9 17863.6,-10407.9" style="fill:none;fill-rule:nonzero;stroke:#ef7835;stroke-width:56.13px;"/><path d="M443.965,8440.27c8931.8,-0 8931.8,-9777.53 17863.6,-9777.53" style="fill:none;fill-rule:nonzero;stroke:#ef7835;stroke-width:56.13px;"/><path d="M443.965,8481.57c8931.8,0 8931.8,-9147.15 17863.6,-9147.15" style="fill:none;fill-rule:nonzero;stroke:#ef7835;stroke-width:56.13px;"/><path d="M443.965,8522.86c8931.8,-0 8931.8,-8516.77 17863.6,-8516.77" style="fill:none;fill-rule:nonzero;stroke:#ef7835;stroke-width:56.13px;"/><path d="M443.965,8564.16c8931.8,0 8931.8,-7886.39 17863.6,-7886.39" style="fill:none;fill-rule:nonzero;stroke:#ef7835;stroke-width:56.13px;"/><path d="M443.965,8605.46c8931.8,-0 8931.8,-7256.01 17863.6,-7256.01" style="fill:none;fill-rule:nonzero;stroke:#ef7835;stroke-width:56.13px;"/><path d="M443.965,8646.76c8931.8,0 8931.8,-6625.63 17863.6,-6625.63" style="fill:none;fill-rule:nonzero;stroke:#ef7835;stroke-width:56.13px;"/><path d="M443.965,8688.05c8931.8,-0 8931.8,-5995.25 17863.6,-5995.25" style="fill:none;fill-rule:nonzero;stroke:#ef7835;stroke-width:56.13px;"/><path d="M443.965,8729.35c8931.8,0 8931.8,-5364.87 17863.6,-5364.87" style="fill:none;fill-rule:nonzero;stroke:#ef7835;stroke-width:56.13px;"/><path d="M443.965,341.218c8931.8,0 8931.8,3364.56 17863.6,3364.56" style="fill:none;fill-rule:nonzero;stroke:#14022e;stroke-width:56.13px;"/><path d="M443.965,423.813c8931.8,0 8931.8,4460.13 17863.6,4460.13" style="fill:none;fill-rule:nonzero;stroke:#14022e;stroke-width:56.13px;"/><path d="M443.965,465.111c8931.8,-0 8931.8,4966.61 17863.6,4966.61" style="fill:none;fill-rule:nonzero;stroke:#14022e;stroke-width:56.13px;"/><path d="M443.965,-113.054c8931.8,0 8931.8,-3569.62 17863.6,-3569.62" style="fill:none;fill-rule:nonzero;stroke:#14022e;stroke-width:56.13px;"/><path d="M443.965,-71.756c8931.8,-0 8931.8,-2939.24 17863.6,-2939.24" style="fill:none;fill-rule:nonzero;stroke:#14022e;stroke-width:56.13px;"/><path d="M443.965,547.706c8931.8,-0 8931.8,5979.59 17863.6,5979.59" style="fill:none;fill-rule:nonzero;stroke:#14022e;stroke-width:56.13px;"/><path d="M443.965,589.003c8931.8,0 8931.8,6403.48 17863.6,6403.48" style="fill:none;fill-rule:nonzero;stroke:#14022e;stroke-width:56.13px;"/><path d="M443.965,630.301c8931.8,-0 8931.8,6827.37 17863.6,6827.37" style="fill:none;fill-rule:nonzero;stroke:#14022e;stroke-width:56.13px;"/><path d="M443.965,506.408c8931.8,0 8931.8,5473.1 17863.6,5473.1" style="fill:none;fill-rule:nonzero;stroke:#14022e;stroke-width:56.13px;"/><path d="M443.965,712.896c8931.8,-0 8931.8,7592.56 17863.6,7592.56" style="fill:none;fill-rule:nonzero;stroke:#14022e;stroke-width:56.13px;"/><path d="M443.965,-30.459c8931.8,0 8931.8,-2308.86 17863.6,-2308.86" style="fill:none;fill-rule:nonzero;stroke:#14022e;stroke-width:56.13px;"/><path d="M443.965,10.839c8931.8,-0 8931.8,-1678.48 17863.6,-1678.48" style="fill:none;fill-rule:nonzero;stroke:#14022e;stroke-width:56.13px;"/><path d="M443.965,52.136c8931.8,0 8931.8,-1048.1 17863.6,-1048.1" style="fill:none;fill-rule:nonzero;stroke:#14022e;stroke-width:56.13px;"/><path d="M443.965,754.193c8931.8,0 8931.8,7933.86 17863.6,7933.86" style="fill:none;fill-rule:nonzero;stroke:#14022e;stroke-width:56.13px;"/><path d="M443.965,382.516c8931.8,-0 8931.8,3912.34 17863.6,3912.34" style="fill:none;fill-rule:nonzero;stroke:#14022e;stroke-width:56.13px;"/><path d="M443.965,93.434c8931.8,-0 8931.8,-417.722 17863.6,-417.722" style="fill:none;fill-rule:nonzero;stroke:#14022e;stroke-width:56.13px;"/><path d="M443.965,671.598c8931.8,0 8931.8,7209.97 17863.6,7209.97" style="fill:none;fill-rule:nonzero;stroke:#14022e;stroke-width:56.13px;"/><path d="M443.965,134.731c8931.8,0 8931.8,212.658 17863.6,212.658" style="fill:none;fill-rule:nonzero;stroke:#14022e;stroke-width:56.13px;"/><path d="M443.965,176.028c8931.8,0 8931.8,843.038 17863.6,843.038" style="fill:none;fill-rule:nonzero;stroke:#14022e;stroke-width:56.13px;"/><path d="M443.965,217.326c8931.8,-0 8931.8,1473.42 17863.6,1473.42" style="fill:none;fill-rule:nonzero;stroke:#14022e;stroke-width:56.13px;"/><path d="M443.965,258.623c8931.8,0 8931.8,2103.8 17863.6,2103.8" style="fill:none;fill-rule:nonzero;stroke:#14022e;stroke-width:56.13px;"/><path d="M443.965,299.921c8931.8,-0 8931.8,2734.18 17863.6,2734.18" style="fill:none;fill-rule:nonzero;stroke:#14022e;stroke-width:56.13px;"/><path d="M443.965,2758.31c8931.8,-0 8931.8,1030.06 17863.6,1030.06" style="fill:none;fill-rule:nonzero;stroke:#36bcee;stroke-width:56.13px;"/><path d="M443.965,2262.74c8931.8,0 8931.8,-6534.49 17863.6,-6534.49" style="fill:none;fill-rule:nonzero;stroke:#36bcee;stroke-width:56.13px;"/><path d="M443.965,2304.03c8931.8,-0 8931.8,-5904.11 17863.6,-5904.11" style="fill:none;fill-rule:nonzero;stroke:#36bcee;stroke-width:56.13px;"/><path d="M443.965,2345.33c8931.8,0 8931.8,-5273.73 17863.6,-5273.73" style="fill:none;fill-rule:nonzero;stroke:#36bcee;stroke-width:56.13px;"/><path d="M443.965,2840.9c8931.8,-0 8931.8,3768.99 17863.6,3768.99" style="fill:none;fill-rule:nonzero;stroke:#36bcee;stroke-width:56.13px;"/><path d="M443.965,2882.2c8931.8,0 8931.8,4192.88 17863.6,4192.88" style="fill:none;fill-rule:nonzero;stroke:#36bcee;stroke-width:56.13px;"/><path d="M443.965,2923.5c8931.8,-0 8931.8,4616.77 17863.6,4616.77" style="fill:none;fill-rule:nonzero;stroke:#36bcee;stroke-width:56.13px;"/><path d="M443.965,3006.09c8931.8,-0 8931.8,5340.66 17863.6,5340.66" style="fill:none;fill-rule:nonzero;stroke:#36bcee;stroke-width:56.13px;"/><path d="M443.965,2386.63c8931.8,-0 8931.8,-4643.36 17863.6,-4643.36" style="fill:none;fill-rule:nonzero;stroke:#36bcee;stroke-width:56.13px;"/><path d="M443.965,2427.93c8931.8,0 8931.8,-4012.97 17863.6,-4012.97" style="fill:none;fill-rule:nonzero;stroke:#36bcee;stroke-width:56.13px;"/><path d="M443.965,2469.22c8931.8,-0 8931.8,-3382.6 17863.6,-3382.6" style="fill:none;fill-rule:nonzero;stroke:#36bcee;stroke-width:56.13px;"/><path d="M443.965,3047.39c8931.8,0 8931.8,5681.96 17863.6,5681.96" style="fill:none;fill-rule:nonzero;stroke:#36bcee;stroke-width:56.13px;"/><path d="M443.965,2799.6c8931.8,0 8931.8,1577.85 17863.6,1577.85" style="fill:none;fill-rule:nonzero;stroke:#36bcee;stroke-width:56.13px;"/><path d="M443.965,2510.52c8931.8,0 8931.8,-2752.22 17863.6,-2752.22" style="fill:none;fill-rule:nonzero;stroke:#36bcee;stroke-width:56.13px;"/><path d="M443.965,2964.79c8931.8,0 8931.8,4999.37 17863.6,4999.37" style="fill:none;fill-rule:nonzero;stroke:#36bcee;stroke-width:56.13px;"/><path d="M443.965,2551.82c8931.8,-0 8931.8,-2121.84 17863.6,-2121.84" style="fill:none;fill-rule:nonzero;stroke:#36bcee;stroke-width:56.13px;"/><path d="M443.965,2593.12c8931.8,0 8931.8,-1491.46 17863.6,-1491.46" style="fill:none;fill-rule:nonzero;stroke:#36bcee;stroke-width:56.13px;"/><path d="M443.965,2634.41c8931.8,-0 8931.8,-861.076 17863.6,-861.076" style="fill:none;fill-rule:nonzero;stroke:#36bcee;stroke-width:56.13px;"/><path d="M443.965,2675.71c8931.8,0 8931.8,-230.696 17863.6,-230.696" style="fill:none;fill-rule:nonzero;stroke:#36bcee;stroke-width:56.13px;"/><path d="M443.965,2717.01c8931.8,0 8931.8,399.684 17863.6,399.684" style="fill:none;fill-rule:nonzero;stroke:#36bcee;stroke-width:56.13px;"/><path d="M443.965,6973.02c8931.8,0 8931.8,-3019.46 17863.6,-3019.46" style="fill:none;fill-rule:nonzero;stroke:#c9d35b;stroke-width:56.13px;"/><path d="M443.965,7055.62c8931.8,0 8931.8,-1965.19 17863.6,-1965.19" style="fill:none;fill-rule:nonzero;stroke:#c9d35b;stroke-width:56.13px;"/><path d="M443.965,6477.45c8931.8,-0 8931.8,-10584 17863.6,-10584" style="fill:none;fill-rule:nonzero;stroke:#c9d35b;stroke-width:56.13px;"/><path d="M443.965,7096.91c8931.8,-0 8931.8,-1458.7 17863.6,-1458.7" style="fill:none;fill-rule:nonzero;stroke:#c9d35b;stroke-width:56.13px;"/><path d="M443.965,6518.75c8931.8,0 8931.8,-9953.64 17863.6,-9953.64" style="fill:none;fill-rule:nonzero;stroke:#c9d35b;stroke-width:56.13px;"/><path d="M443.965,6560.05c8931.8,0 8931.8,-9323.26 17863.6,-9323.26" style="fill:none;fill-rule:nonzero;stroke:#c9d35b;stroke-width:56.13px;"/><path d="M443.965,7138.21c8931.8,0 8931.8,-952.215 17863.6,-952.215" style="fill:none;fill-rule:nonzero;stroke:#c9d35b;stroke-width:56.13px;"/><path d="M443.965,6601.35c8931.8,-0 8931.8,-8692.88 17863.6,-8692.88" style="fill:none;fill-rule:nonzero;stroke:#c9d35b;stroke-width:56.13px;"/><path d="M443.965,6642.64c8931.8,0 8931.8,-8062.5 17863.6,-8062.5" style="fill:none;fill-rule:nonzero;stroke:#c9d35b;stroke-width:56.13px;"/><path d="M443.965,6683.94c8931.8,-0 8931.8,-7432.12 17863.6,-7432.12" style="fill:none;fill-rule:nonzero;stroke:#c9d35b;stroke-width:56.13px;"/><path d="M443.965,7014.32c8931.8,-0 8931.8,-2471.68 17863.6,-2471.68" style="fill:none;fill-rule:nonzero;stroke:#c9d35b;stroke-width:56.13px;"/><path d="M443.965,6725.24c8931.8,0 8931.8,-6801.74 17863.6,-6801.74" style="fill:none;fill-rule:nonzero;stroke:#c9d35b;stroke-width:56.13px;"/><path d="M443.965,6766.53c8931.8,-0 8931.8,-6171.36 17863.6,-6171.36" style="fill:none;fill-rule:nonzero;stroke:#c9d35b;stroke-width:56.13px;"/><path d="M443.965,6807.83c8931.8,0 8931.8,-5540.98 17863.6,-5540.98" style="fill:none;fill-rule:nonzero;stroke:#c9d35b;stroke-width:56.13px;"/><path d="M443.965,6849.13c8931.8,-0 8931.8,-4910.6 17863.6,-4910.6" style="fill:none;fill-rule:nonzero;stroke:#c9d35b;stroke-width:56.13px;"/><path d="M443.965,6890.43c8931.8,0 8931.8,-4280.22 17863.6,-4280.22" style="fill:none;fill-rule:nonzero;stroke:#c9d35b;stroke-width:56.13px;"/><path d="M443.965,6931.73c8931.8,-0 8931.8,-3649.84 17863.6,-3649.84" style="fill:none;fill-rule:nonzero;stroke:#c9d35b;stroke-width:56.13px;"/><g><rect x="0.761" y="4452.69" width="443.204" height="702.057" style="fill:#62bf95;stroke:#62bf95;stroke-width:10.19px;"/><rect x="0.761" y="1074.84" width="443.204" height="867.247" style="fill:#7b67a8;stroke:#7b67a8;stroke-width:10.19px;"/><rect x="0.761" y="5454.75" width="443.204" height="702.057" style="fill:#96c978;stroke:#96c978;stroke-width:10.19px;"/><rect x="0.761" y="7458.86" width="443.204" height="495.57" style="fill:#fddd3e;stroke:#fddd3e;stroke-width:10.19px;"/><rect x="0.761" y="3368.04" width="443.204" height="784.652" style="fill:#2eb5b2;stroke:#2eb5b2;stroke-width:10.19px;"/><rect x="0.761" y="8254.43" width="443.204" height="495.57" style="fill:#ef7835;stroke:#ef7835;stroke-width:10.19px;"/><rect x="0.761" y="-175" width="443.204" height="949.842" style="fill:#14022e;stroke:#14022e;stroke-width:10.19px;"/><rect x="0.761" y="2242.09" width="443.204" height="825.949" style="fill:#36bcee;stroke:#36bcee;stroke-width:10.19px;"/><rect x="0.761" y="6456.8" width="443.204" height="702.057" style="fill:#c9d35b;stroke:#c9d35b;stroke-width:10.19px;"/></g></g></g></svg>