<?xml version="1.0" encoding="UTF-8" standalone="no"?><!DOCTYPE svg PUBLIC "-//W3C//DTD SVG 1.1//EN" "http://www.w3.org/Graphics/SVG/1.1/DTD/svg11.dtd"><svg width="100%" height="100%" viewBox="0 0 12505 8750" version="1.1" xmlns="http://www.w3.org/2000/svg" xmlns:xlink="http://www.w3.org/1999/xlink" xml:space="preserve" xmlns:serif="http://www.serif.com/" style="fill-rule:evenodd;clip-rule:evenodd;"><rect id="Challenge-to-Technology--extreme-hi-res-whole-" serif:id="Challenge-to-Technology (extreme hi-res whole)" x="0.761" y="0" width="12500" height="8750" style="fill:none;"/><clipPath id="_clip1"><rect x="0.761" y="0" width="12500" height="8750"/></clipPath><g clip-path="url(#_clip1)"><g><path d="M296.23,6229.27c5954.53,0 5954.53,-731.962 11909.1,-731.962" style="fill:none;fill-rule:nonzero;stroke:#62bf95;stroke-width:37.42px;"/><path d="M296.23,6284.34c5954.53,0 5954.53,-29.113 11909.1,-29.113" style="fill:none;fill-rule:nonzero;stroke:#62bf95;stroke-width:37.42px;"/><path d="M296.23,5898.89c5954.53,0 5954.53,-5775 11909.1,-5775" style="fill:none;fill-rule:nonzero;stroke:#62bf95;stroke-width:37.42px;"/><path d="M296.23,6311.87c5954.53,0 5954.53,308.544 11909.1,308.544" style="fill:none;fill-rule:nonzero;stroke:#62bf95;stroke-width:37.42px;"/><path d="M296.23,5926.42c5954.53,0 5954.53,-5354.75 11909.1,-5354.75" style="fill:none;fill-rule:nonzero;stroke:#62bf95;stroke-width:37.42px;"/><path d="M296.23,5953.96c5954.53,-0 5954.53,-4934.49 11909.1,-4934.49" style="fill:none;fill-rule:nonzero;stroke:#62bf95;stroke-width:37.42px;"/><path d="M296.23,6339.4c5954.53,-0 5954.53,646.202 11909.1,646.202" style="fill:none;fill-rule:nonzero;stroke:#62bf95;stroke-width:37.42px;"/><path d="M296.23,5981.49c5954.53,0 5954.53,-4514.24 11909.1,-4514.24" style="fill:none;fill-rule:nonzero;stroke:#62bf95;stroke-width:37.42px;"/><path d="M296.23,6009.02c5954.53,-0 5954.53,-4093.99 11909.1,-4093.99" style="fill:none;fill-rule:nonzero;stroke:#62bf95;stroke-width:37.42px;"/><path d="M296.23,6036.55c5954.53,-0 5954.53,-3673.74 11909.1,-3673.74" style="fill:none;fill-rule:nonzero;stroke:#62bf95;stroke-width:37.42px;"/><path d="M296.23,6256.8c5954.53,-0 5954.53,-366.772 11909.1,-366.772" style="fill:none;fill-rule:nonzero;stroke:#62bf95;stroke-width:37.42px;"/><path d="M296.23,6064.08c5954.53,0 5954.53,-3253.48 11909.1,-3253.48" style="fill:none;fill-rule:nonzero;stroke:#62bf95;stroke-width:37.42px;"/><path d="M296.23,6091.61c5954.53,-0 5954.53,-2833.23 11909.1,-2833.23" style="fill:none;fill-rule:nonzero;stroke:#62bf95;stroke-width:37.42px;"/><path d="M296.23,6119.15c5954.53,-0 5954.53,-2412.97 11909.1,-2412.97" style="fill:none;fill-rule:nonzero;stroke:#62bf95;stroke-width:37.42px;"/><path d="M296.23,6146.68c5954.53,0 5954.53,-1992.72 11909.1,-1992.72" style="fill:none;fill-rule:nonzero;stroke:#62bf95;stroke-width:37.42px;"/><path d="M296.23,6174.21c5954.53,-0 5954.53,-1572.47 11909.1,-1572.47" style="fill:none;fill-rule:nonzero;stroke:#62bf95;stroke-width:37.42px;"/><path d="M296.23,6201.74c5954.53,-0 5954.53,-1152.22 11909.1,-1152.22" style="fill:none;fill-rule:nonzero;stroke:#62bf95;stroke-width:37.42px;"/><path d="M296.23,3977.37c5954.53,0 5954.53,1437.34 11909.1,1437.34" style="fill:none;fill-rule:nonzero;stroke:#7b67a8;stroke-width:37.42px;"/><path d="M296.23,4032.44c5954.53,-0 5954.53,2167.72 11909.1,2167.72" style="fill:none;fill-rule:nonzero;stroke:#7b67a8;stroke-width:37.42px;"/><path d="M296.23,3646.99c5954.53,-0 5954.53,-3605.7 11909.1,-3605.7" style="fill:none;fill-rule:nonzero;stroke:#7b67a8;stroke-width:37.42px;"/><path d="M296.23,4059.97c5954.53,0 5954.53,2505.38 11909.1,2505.38" style="fill:none;fill-rule:nonzero;stroke:#7b67a8;stroke-width:37.42px;"/><path d="M296.23,3674.53c5954.53,0 5954.53,-3185.44 11909.1,-3185.44" style="fill:none;fill-rule:nonzero;stroke:#7b67a8;stroke-width:37.42px;"/><path d="M296.23,3702.06c5954.53,-0 5954.53,-2765.19 11909.1,-2765.19" style="fill:none;fill-rule:nonzero;stroke:#7b67a8;stroke-width:37.42px;"/><path d="M296.23,4115.03c5954.53,-0 5954.53,3180.7 11909.1,3180.7" style="fill:none;fill-rule:nonzero;stroke:#7b67a8;stroke-width:37.42px;"/><path d="M296.23,4142.56c5954.53,0 5954.53,3463.29 11909.1,3463.29" style="fill:none;fill-rule:nonzero;stroke:#7b67a8;stroke-width:37.42px;"/><path d="M296.23,4170.1c5954.53,-0 5954.53,3745.89 11909.1,3745.89" style="fill:none;fill-rule:nonzero;stroke:#7b67a8;stroke-width:37.42px;"/><path d="M296.23,4087.5c5954.53,-0 5954.53,2843.04 11909.1,2843.04" style="fill:none;fill-rule:nonzero;stroke:#7b67a8;stroke-width:37.42px;"/><path d="M296.23,3729.59c5954.53,-0 5954.53,-2344.94 11909.1,-2344.94" style="fill:none;fill-rule:nonzero;stroke:#7b67a8;stroke-width:37.42px;"/><path d="M296.23,3757.12c5954.53,0 5954.53,-1924.68 11909.1,-1924.68" style="fill:none;fill-rule:nonzero;stroke:#7b67a8;stroke-width:37.42px;"/><path d="M296.23,3784.65c5954.53,-0 5954.53,-1504.43 11909.1,-1504.43" style="fill:none;fill-rule:nonzero;stroke:#7b67a8;stroke-width:37.42px;"/><path d="M296.23,4004.91c5954.53,0 5954.53,1802.53 11909.1,1802.53" style="fill:none;fill-rule:nonzero;stroke:#7b67a8;stroke-width:37.42px;"/><path d="M296.23,3812.18c5954.53,-0 5954.53,-1084.18 11909.1,-1084.18" style="fill:none;fill-rule:nonzero;stroke:#7b67a8;stroke-width:37.42px;"/><path d="M296.23,4197.63c5954.53,-0 5954.53,4000.95 11909.1,4000.95" style="fill:none;fill-rule:nonzero;stroke:#7b67a8;stroke-width:37.42px;"/><path d="M296.23,3839.72c5954.53,0 5954.53,-663.924 11909.1,-663.924" style="fill:none;fill-rule:nonzero;stroke:#7b67a8;stroke-width:37.42px;"/><path d="M296.23,3867.25c5954.53,-0 5954.53,-243.671 11909.1,-243.671" style="fill:none;fill-rule:nonzero;stroke:#7b67a8;stroke-width:37.42px;"/><path d="M296.23,3894.78c5954.53,0 5954.53,176.583 11909.1,176.583" style="fill:none;fill-rule:nonzero;stroke:#7b67a8;stroke-width:37.42px;"/><path d="M296.23,3922.31c5954.53,0 5954.53,596.836 11909.1,596.836" style="fill:none;fill-rule:nonzero;stroke:#7b67a8;stroke-width:37.42px;"/><path d="M296.23,3949.84c5954.53,-0 5954.53,1017.09 11909.1,1017.09" style="fill:none;fill-rule:nonzero;stroke:#7b67a8;stroke-width:37.42px;"/><path d="M296.23,6897.31c5954.53,0 5954.53,-1372.47 11909.1,-1372.47" style="fill:none;fill-rule:nonzero;stroke:#96c978;stroke-width:37.42px;"/><path d="M296.23,6952.37c5954.53,0 5954.53,-669.62 11909.1,-669.62" style="fill:none;fill-rule:nonzero;stroke:#96c978;stroke-width:37.42px;"/><path d="M296.23,6566.93c5954.53,0 5954.53,-6415.51 11909.1,-6415.51" style="fill:none;fill-rule:nonzero;stroke:#96c978;stroke-width:37.42px;"/><path d="M296.23,6979.9c5954.53,0 5954.53,-331.962 11909.1,-331.962" style="fill:none;fill-rule:nonzero;stroke:#96c978;stroke-width:37.42px;"/><path d="M296.23,6594.46c5954.53,0 5954.53,-5995.25 11909.1,-5995.25" style="fill:none;fill-rule:nonzero;stroke:#96c978;stroke-width:37.42px;"/><path d="M296.23,6621.99c5954.53,-0 5954.53,-5575 11909.1,-5575" style="fill:none;fill-rule:nonzero;stroke:#96c978;stroke-width:37.42px;"/><path d="M296.23,7007.44c5954.53,-0 5954.53,5.696 11909.1,5.696" style="fill:none;fill-rule:nonzero;stroke:#96c978;stroke-width:37.42px;"/><path d="M296.23,6649.53c5954.53,0 5954.53,-5154.75 11909.1,-5154.75" style="fill:none;fill-rule:nonzero;stroke:#96c978;stroke-width:37.42px;"/><path d="M296.23,6677.06c5954.53,-0 5954.53,-4734.49 11909.1,-4734.49" style="fill:none;fill-rule:nonzero;stroke:#96c978;stroke-width:37.42px;"/><path d="M296.23,6704.59c5954.53,-0 5954.53,-4314.24 11909.1,-4314.24" style="fill:none;fill-rule:nonzero;stroke:#96c978;stroke-width:37.42px;"/><path d="M296.23,6924.84c5954.53,-0 5954.53,-1007.28 11909.1,-1007.28" style="fill:none;fill-rule:nonzero;stroke:#96c978;stroke-width:37.42px;"/><path d="M296.23,6732.12c5954.53,0 5954.53,-3893.99 11909.1,-3893.99" style="fill:none;fill-rule:nonzero;stroke:#96c978;stroke-width:37.42px;"/><path d="M296.23,6759.65c5954.53,-0 5954.53,-3473.73 11909.1,-3473.73" style="fill:none;fill-rule:nonzero;stroke:#96c978;stroke-width:37.42px;"/><path d="M296.23,6787.18c5954.53,-0 5954.53,-3053.48 11909.1,-3053.48" style="fill:none;fill-rule:nonzero;stroke:#96c978;stroke-width:37.42px;"/><path d="M296.23,6814.72c5954.53,0 5954.53,-2633.23 11909.1,-2633.23" style="fill:none;fill-rule:nonzero;stroke:#96c978;stroke-width:37.42px;"/><path d="M296.23,6842.25c5954.53,-0 5954.53,-2212.97 11909.1,-2212.97" style="fill:none;fill-rule:nonzero;stroke:#96c978;stroke-width:37.42px;"/><path d="M296.23,6869.78c5954.53,0 5954.53,-1792.72 11909.1,-1792.72" style="fill:none;fill-rule:nonzero;stroke:#96c978;stroke-width:37.42px;"/><path d="M296.23,7903.01c5954.53,0 5954.53,-7696.52 11909.1,-7696.52" style="fill:none;fill-rule:nonzero;stroke:#fddd3e;stroke-width:37.42px;"/><path d="M296.23,7930.54c5954.53,-0 5954.53,-7276.27 11909.1,-7276.27" style="fill:none;fill-rule:nonzero;stroke:#fddd3e;stroke-width:37.42px;"/><path d="M296.23,7958.07c5954.53,-0 5954.53,-6856.01 11909.1,-6856.01" style="fill:none;fill-rule:nonzero;stroke:#fddd3e;stroke-width:37.42px;"/><path d="M296.23,7985.6c5954.53,0 5954.53,-6435.76 11909.1,-6435.76" style="fill:none;fill-rule:nonzero;stroke:#fddd3e;stroke-width:37.42px;"/><path d="M296.23,8013.13c5954.53,-0 5954.53,-6015.51 11909.1,-6015.51" style="fill:none;fill-rule:nonzero;stroke:#fddd3e;stroke-width:37.42px;"/><path d="M296.23,8040.66c5954.53,-0 5954.53,-5595.25 11909.1,-5595.25" style="fill:none;fill-rule:nonzero;stroke:#fddd3e;stroke-width:37.42px;"/><path d="M296.23,8068.2c5954.53,0 5954.53,-5175 11909.1,-5175" style="fill:none;fill-rule:nonzero;stroke:#fddd3e;stroke-width:37.42px;"/><path d="M296.23,8095.73c5954.53,-0 5954.53,-4754.75 11909.1,-4754.75" style="fill:none;fill-rule:nonzero;stroke:#fddd3e;stroke-width:37.42px;"/><path d="M296.23,8123.26c5954.53,0 5954.53,-4334.49 11909.1,-4334.49" style="fill:none;fill-rule:nonzero;stroke:#fddd3e;stroke-width:37.42px;"/><path d="M296.23,8150.79c5954.53,0 5954.53,-3914.24 11909.1,-3914.24" style="fill:none;fill-rule:nonzero;stroke:#fddd3e;stroke-width:37.42px;"/><path d="M296.23,8178.32c5954.53,-0 5954.53,-3493.99 11909.1,-3493.99" style="fill:none;fill-rule:nonzero;stroke:#fddd3e;stroke-width:37.42px;"/><path d="M296.23,8205.85c5954.53,0 5954.53,-3073.73 11909.1,-3073.73" style="fill:none;fill-rule:nonzero;stroke:#fddd3e;stroke-width:37.42px;"/><path d="M296.23,5506.17c5954.53,-0 5954.53,-36.393 11909.1,-36.393" style="fill:none;fill-rule:nonzero;stroke:#2eb5b2;stroke-width:37.42px;"/><path d="M296.23,5561.23c5954.53,0 5954.53,666.456 11909.1,666.456" style="fill:none;fill-rule:nonzero;stroke:#2eb5b2;stroke-width:37.42px;"/><path d="M296.23,5175.79c5954.53,0 5954.53,-5079.43 11909.1,-5079.43" style="fill:none;fill-rule:nonzero;stroke:#2eb5b2;stroke-width:37.42px;"/><path d="M296.23,5588.77c5954.53,-0 5954.53,1004.11 11909.1,1004.11" style="fill:none;fill-rule:nonzero;stroke:#2eb5b2;stroke-width:37.42px;"/><path d="M296.23,5203.32c5954.53,-0 5954.53,-4659.18 11909.1,-4659.18" style="fill:none;fill-rule:nonzero;stroke:#2eb5b2;stroke-width:37.42px;"/><path d="M296.23,5230.85c5954.53,0 5954.53,-4238.92 11909.1,-4238.92" style="fill:none;fill-rule:nonzero;stroke:#2eb5b2;stroke-width:37.42px;"/><path d="M296.23,5643.83c5954.53,0 5954.53,1706.96 11909.1,1706.96" style="fill:none;fill-rule:nonzero;stroke:#2eb5b2;stroke-width:37.42px;"/><path d="M296.23,5671.36c5954.53,-0 5954.53,1989.56 11909.1,1989.56" style="fill:none;fill-rule:nonzero;stroke:#2eb5b2;stroke-width:37.42px;"/><path d="M296.23,5616.3c5954.53,0 5954.53,1341.77 11909.1,1341.77" style="fill:none;fill-rule:nonzero;stroke:#2eb5b2;stroke-width:37.42px;"/><path d="M296.23,5258.39c5954.53,0 5954.53,-3818.67 11909.1,-3818.67" style="fill:none;fill-rule:nonzero;stroke:#2eb5b2;stroke-width:37.42px;"/><path d="M296.23,5285.92c5954.53,-0 5954.53,-3398.42 11909.1,-3398.42" style="fill:none;fill-rule:nonzero;stroke:#2eb5b2;stroke-width:37.42px;"/><path d="M296.23,5313.45c5954.53,0 5954.53,-2978.16 11909.1,-2978.16" style="fill:none;fill-rule:nonzero;stroke:#2eb5b2;stroke-width:37.42px;"/><path d="M296.23,5533.7c5954.53,-0 5954.53,328.797 11909.1,328.797" style="fill:none;fill-rule:nonzero;stroke:#2eb5b2;stroke-width:37.42px;"/><path d="M296.23,5340.98c5954.53,0 5954.53,-2557.91 11909.1,-2557.91" style="fill:none;fill-rule:nonzero;stroke:#2eb5b2;stroke-width:37.42px;"/><path d="M296.23,5368.51c5954.53,-0 5954.53,-2137.66 11909.1,-2137.66" style="fill:none;fill-rule:nonzero;stroke:#2eb5b2;stroke-width:37.42px;"/><path d="M296.23,5396.04c5954.53,0 5954.53,-1717.4 11909.1,-1717.4" style="fill:none;fill-rule:nonzero;stroke:#2eb5b2;stroke-width:37.42px;"/><path d="M296.23,5423.58c5954.53,-0 5954.53,-1297.15 11909.1,-1297.15" style="fill:none;fill-rule:nonzero;stroke:#2eb5b2;stroke-width:37.42px;"/><path d="M296.23,5451.11c5954.53,-0 5954.53,-876.899 11909.1,-876.899" style="fill:none;fill-rule:nonzero;stroke:#2eb5b2;stroke-width:37.42px;"/><path d="M296.23,5478.64c5954.53,0 5954.53,-456.645 11909.1,-456.645" style="fill:none;fill-rule:nonzero;stroke:#2eb5b2;stroke-width:37.42px;"/><path d="M296.23,8433.39c5954.53,0 5954.53,-8199.37 11909.1,-8199.37" style="fill:none;fill-rule:nonzero;stroke:#ef7835;stroke-width:37.42px;"/><path d="M296.23,8460.92c5954.53,-0 5954.53,-7779.11 11909.1,-7779.11" style="fill:none;fill-rule:nonzero;stroke:#ef7835;stroke-width:37.42px;"/><path d="M296.23,8488.45c5954.53,0 5954.53,-7358.86 11909.1,-7358.86" style="fill:none;fill-rule:nonzero;stroke:#ef7835;stroke-width:37.42px;"/><path d="M296.23,8515.98c5954.53,0 5954.53,-6938.61 11909.1,-6938.61" style="fill:none;fill-rule:nonzero;stroke:#ef7835;stroke-width:37.42px;"/><path d="M296.23,8543.51c5954.53,-0 5954.53,-6518.36 11909.1,-6518.36" style="fill:none;fill-rule:nonzero;stroke:#ef7835;stroke-width:37.42px;"/><path d="M296.23,8571.04c5954.53,0 5954.53,-6098.1 11909.1,-6098.1" style="fill:none;fill-rule:nonzero;stroke:#ef7835;stroke-width:37.42px;"/><path d="M296.23,8598.58c5954.53,-0 5954.53,-5677.85 11909.1,-5677.85" style="fill:none;fill-rule:nonzero;stroke:#ef7835;stroke-width:37.42px;"/><path d="M296.23,8626.11c5954.53,-0 5954.53,-5257.6 11909.1,-5257.6" style="fill:none;fill-rule:nonzero;stroke:#ef7835;stroke-width:37.42px;"/><path d="M296.23,8653.64c5954.53,0 5954.53,-4837.34 11909.1,-4837.34" style="fill:none;fill-rule:nonzero;stroke:#ef7835;stroke-width:37.42px;"/><path d="M296.23,8681.17c5954.53,-0 5954.53,-4417.09 11909.1,-4417.09" style="fill:none;fill-rule:nonzero;stroke:#ef7835;stroke-width:37.42px;"/><path d="M296.23,8708.7c5954.53,-0 5954.53,-3996.84 11909.1,-3996.84" style="fill:none;fill-rule:nonzero;stroke:#ef7835;stroke-width:37.42px;"/><path d="M296.23,8736.23c5954.53,0 5954.53,-3576.58 11909.1,-3576.58" style="fill:none;fill-rule:nonzero;stroke:#ef7835;stroke-width:37.42px;"/><path d="M296.23,3144.15c5954.53,-0 5954.53,2243.04 11909.1,2243.04" style="fill:none;fill-rule:nonzero;stroke:#14022e;stroke-width:37.42px;"/><path d="M296.23,3199.21c5954.53,-0 5954.53,2973.42 11909.1,2973.42" style="fill:none;fill-rule:nonzero;stroke:#14022e;stroke-width:37.42px;"/><path d="M296.23,2813.77c5954.53,-0 5954.53,-2800 11909.1,-2800" style="fill:none;fill-rule:nonzero;stroke:#14022e;stroke-width:37.42px;"/><path d="M296.23,3226.74c5954.53,-0 5954.53,3311.08 11909.1,3311.08" style="fill:none;fill-rule:nonzero;stroke:#14022e;stroke-width:37.42px;"/><path d="M296.23,2841.3c5954.53,0 5954.53,-2379.75 11909.1,-2379.75" style="fill:none;fill-rule:nonzero;stroke:#14022e;stroke-width:37.42px;"/><path d="M296.23,2868.83c5954.53,0 5954.53,-1959.49 11909.1,-1959.49" style="fill:none;fill-rule:nonzero;stroke:#14022e;stroke-width:37.42px;"/><path d="M296.23,3281.8c5954.53,-0 5954.53,3986.39 11909.1,3986.39" style="fill:none;fill-rule:nonzero;stroke:#14022e;stroke-width:37.42px;"/><path d="M296.23,3309.34c5954.53,0 5954.53,4268.99 11909.1,4268.99" style="fill:none;fill-rule:nonzero;stroke:#14022e;stroke-width:37.42px;"/><path d="M296.23,3336.87c5954.53,0 5954.53,4551.58 11909.1,4551.58" style="fill:none;fill-rule:nonzero;stroke:#14022e;stroke-width:37.42px;"/><path d="M296.23,3254.27c5954.53,0 5954.53,3648.73 11909.1,3648.73" style="fill:none;fill-rule:nonzero;stroke:#14022e;stroke-width:37.42px;"/><path d="M296.23,3391.93c5954.53,0 5954.53,5061.71 11909.1,5061.71" style="fill:none;fill-rule:nonzero;stroke:#14022e;stroke-width:37.42px;"/><path d="M296.23,2896.36c5954.53,-0 5954.53,-1539.24 11909.1,-1539.24" style="fill:none;fill-rule:nonzero;stroke:#14022e;stroke-width:37.42px;"/><path d="M296.23,2923.89c5954.53,0 5954.53,-1118.99 11909.1,-1118.99" style="fill:none;fill-rule:nonzero;stroke:#14022e;stroke-width:37.42px;"/><path d="M296.23,2951.42c5954.53,0 5954.53,-698.734 11909.1,-698.734" style="fill:none;fill-rule:nonzero;stroke:#14022e;stroke-width:37.42px;"/><path d="M296.23,3419.46c5954.53,0 5954.53,5289.24 11909.1,5289.24" style="fill:none;fill-rule:nonzero;stroke:#14022e;stroke-width:37.42px;"/><path d="M296.23,3171.68c5954.53,0 5954.53,2608.23 11909.1,2608.23" style="fill:none;fill-rule:nonzero;stroke:#14022e;stroke-width:37.42px;"/><path d="M296.23,2978.96c5954.53,-0 5954.53,-278.481 11909.1,-278.481" style="fill:none;fill-rule:nonzero;stroke:#14022e;stroke-width:37.42px;"/><path d="M296.23,3364.4c5954.53,-0 5954.53,4806.65 11909.1,4806.65" style="fill:none;fill-rule:nonzero;stroke:#14022e;stroke-width:37.42px;"/><path d="M296.23,3006.49c5954.53,0 5954.53,141.772 11909.1,141.772" style="fill:none;fill-rule:nonzero;stroke:#14022e;stroke-width:37.42px;"/><path d="M296.23,3034.02c5954.53,-0 5954.53,562.025 11909.1,562.025" style="fill:none;fill-rule:nonzero;stroke:#14022e;stroke-width:37.42px;"/><path d="M296.23,3061.55c5954.53,-0 5954.53,982.278 11909.1,982.278" style="fill:none;fill-rule:nonzero;stroke:#14022e;stroke-width:37.42px;"/><path d="M296.23,3089.08c5954.53,0 5954.53,1402.53 11909.1,1402.53" style="fill:none;fill-rule:nonzero;stroke:#14022e;stroke-width:37.42px;"/><path d="M296.23,3116.61c5954.53,-0 5954.53,1822.79 11909.1,1822.79" style="fill:none;fill-rule:nonzero;stroke:#14022e;stroke-width:37.42px;"/><path d="M296.23,4755.54c5954.53,-0 5954.53,686.709 11909.1,686.709" style="fill:none;fill-rule:nonzero;stroke:#36bcee;stroke-width:37.42px;"/><path d="M296.23,4425.16c5954.53,0 5954.53,-4356.33 11909.1,-4356.33" style="fill:none;fill-rule:nonzero;stroke:#36bcee;stroke-width:37.42px;"/><path d="M296.23,4452.69c5954.53,-0 5954.53,-3936.08 11909.1,-3936.08" style="fill:none;fill-rule:nonzero;stroke:#36bcee;stroke-width:37.42px;"/><path d="M296.23,4480.22c5954.53,-0 5954.53,-3515.82 11909.1,-3515.82" style="fill:none;fill-rule:nonzero;stroke:#36bcee;stroke-width:37.42px;"/><path d="M296.23,4810.6c5954.53,0 5954.53,2512.66 11909.1,2512.66" style="fill:none;fill-rule:nonzero;stroke:#36bcee;stroke-width:37.42px;"/><path d="M296.23,4838.13c5954.53,-0 5954.53,2795.25 11909.1,2795.25" style="fill:none;fill-rule:nonzero;stroke:#36bcee;stroke-width:37.42px;"/><path d="M296.23,4865.66c5954.53,-0 5954.53,3077.85 11909.1,3077.85" style="fill:none;fill-rule:nonzero;stroke:#36bcee;stroke-width:37.42px;"/><path d="M296.23,4920.73c5954.53,-0 5954.53,3560.44 11909.1,3560.44" style="fill:none;fill-rule:nonzero;stroke:#36bcee;stroke-width:37.42px;"/><path d="M296.23,4507.75c5954.53,0 5954.53,-3095.57 11909.1,-3095.57" style="fill:none;fill-rule:nonzero;stroke:#36bcee;stroke-width:37.42px;"/><path d="M296.23,4535.28c5954.53,-0 5954.53,-2675.32 11909.1,-2675.32" style="fill:none;fill-rule:nonzero;stroke:#36bcee;stroke-width:37.42px;"/><path d="M296.23,4562.82c5954.53,0 5954.53,-2255.06 11909.1,-2255.06" style="fill:none;fill-rule:nonzero;stroke:#36bcee;stroke-width:37.42px;"/><path d="M296.23,4948.26c5954.53,0 5954.53,3787.97 11909.1,3787.97" style="fill:none;fill-rule:nonzero;stroke:#36bcee;stroke-width:37.42px;"/><path d="M296.23,4783.07c5954.53,-0 5954.53,1051.9 11909.1,1051.9" style="fill:none;fill-rule:nonzero;stroke:#36bcee;stroke-width:37.42px;"/><path d="M296.23,4590.35c5954.53,0 5954.53,-1834.81 11909.1,-1834.81" style="fill:none;fill-rule:nonzero;stroke:#36bcee;stroke-width:37.42px;"/><path d="M296.23,4893.2c5954.53,0 5954.53,3332.91 11909.1,3332.91" style="fill:none;fill-rule:nonzero;stroke:#36bcee;stroke-width:37.42px;"/><path d="M296.23,4617.88c5954.53,-0 5954.53,-1414.56 11909.1,-1414.56" style="fill:none;fill-rule:nonzero;stroke:#36bcee;stroke-width:37.42px;"/><path d="M296.23,4645.41c5954.53,0 5954.53,-994.303 11909.1,-994.303" style="fill:none;fill-rule:nonzero;stroke:#36bcee;stroke-width:37.42px;"/><path d="M296.23,4672.94c5954.53,0 5954.53,-574.051 11909.1,-574.051" style="fill:none;fill-rule:nonzero;stroke:#36bcee;stroke-width:37.42px;"/><path d="M296.23,4700.48c5954.53,-0 5954.53,-153.798 11909.1,-153.798" style="fill:none;fill-rule:nonzero;stroke:#36bcee;stroke-width:37.42px;"/><path d="M296.23,4728.01c5954.53,0 5954.53,266.456 11909.1,266.456" style="fill:none;fill-rule:nonzero;stroke:#36bcee;stroke-width:37.42px;"/><path d="M296.23,7565.35c5954.53,0 5954.53,-2012.98 11909.1,-2012.98" style="fill:none;fill-rule:nonzero;stroke:#c9d35b;stroke-width:37.42px;"/><path d="M296.23,7620.41c5954.53,0 5954.53,-1310.13 11909.1,-1310.13" style="fill:none;fill-rule:nonzero;stroke:#c9d35b;stroke-width:37.42px;"/><path d="M296.23,7234.97c5954.53,0 5954.53,-7056.01 11909.1,-7056.01" style="fill:none;fill-rule:nonzero;stroke:#c9d35b;stroke-width:37.42px;"/><path d="M296.23,7647.94c5954.53,0 5954.53,-972.468 11909.1,-972.468" style="fill:none;fill-rule:nonzero;stroke:#c9d35b;stroke-width:37.42px;"/><path d="M296.23,7262.5c5954.53,-0 5954.53,-6635.76 11909.1,-6635.76" style="fill:none;fill-rule:nonzero;stroke:#c9d35b;stroke-width:37.42px;"/><path d="M296.23,7290.03c5954.53,-0 5954.53,-6215.51 11909.1,-6215.51" style="fill:none;fill-rule:nonzero;stroke:#c9d35b;stroke-width:37.42px;"/><path d="M296.23,7675.48c5954.53,-0 5954.53,-634.81 11909.1,-634.81" style="fill:none;fill-rule:nonzero;stroke:#c9d35b;stroke-width:37.42px;"/><path d="M296.23,7317.56c5954.53,0 5954.53,-5795.25 11909.1,-5795.25" style="fill:none;fill-rule:nonzero;stroke:#c9d35b;stroke-width:37.42px;"/><path d="M296.23,7345.1c5954.53,-0 5954.53,-5375 11909.1,-5375" style="fill:none;fill-rule:nonzero;stroke:#c9d35b;stroke-width:37.42px;"/><path d="M296.23,7372.63c5954.53,-0 5954.53,-4954.75 11909.1,-4954.75" style="fill:none;fill-rule:nonzero;stroke:#c9d35b;stroke-width:37.42px;"/><path d="M296.23,7592.88c5954.53,-0 5954.53,-1647.79 11909.1,-1647.79" style="fill:none;fill-rule:nonzero;stroke:#c9d35b;stroke-width:37.42px;"/><path d="M296.23,7400.16c5954.53,0 5954.53,-4534.49 11909.1,-4534.49" style="fill:none;fill-rule:nonzero;stroke:#c9d35b;stroke-width:37.42px;"/><path d="M296.23,7427.69c5954.53,-0 5954.53,-4114.24 11909.1,-4114.24" style="fill:none;fill-rule:nonzero;stroke:#c9d35b;stroke-width:37.42px;"/><path d="M296.23,7455.22c5954.53,-0 5954.53,-3693.99 11909.1,-3693.99" style="fill:none;fill-rule:nonzero;stroke:#c9d35b;stroke-width:37.42px;"/><path d="M296.23,7482.75c5954.53,0 5954.53,-3273.73 11909.1,-3273.73" style="fill:none;fill-rule:nonzero;stroke:#c9d35b;stroke-width:37.42px;"/><path d="M296.23,7510.28c5954.53,-0 5954.53,-2853.48 11909.1,-2853.48" style="fill:none;fill-rule:nonzero;stroke:#c9d35b;stroke-width:37.42px;"/><path d="M296.23,7537.82c5954.53,0 5954.53,-2433.23 11909.1,-2433.23" style="fill:none;fill-rule:nonzero;stroke:#c9d35b;stroke-width:37.42px;"/><g><rect x="12205.3" y="5373.42" width="295.469" height="192.722" style="fill:#fff;stroke:#000;stroke-width:6.8px;"/><rect x="12205.3" y="6158.86" width="295.469" height="165.19" style="fill:#fff;stroke:#000;stroke-width:6.8px;"/><rect x="12205.3" y="0" width="295.469" height="247.785" style="fill:#fff;stroke:#000;stroke-width:6.8px;"/><rect x="12205.3" y="6524.05" width="295.469" height="165.19" style="fill:#fff;stroke:#000;stroke-width:6.8px;"/><rect x="12205.3" y="447.785" width="295.469" height="247.785" style="fill:#fff;stroke:#000;stroke-width:6.8px;"/><rect x="12205.3" y="895.57" width="295.469" height="247.785" style="fill:#fff;stroke:#000;stroke-width:6.8px;"/><rect x="12205.3" y="7254.43" width="295.469" height="110.127" style="fill:#fff;stroke:#000;stroke-width:6.8px;"/><rect x="12205.3" y="7564.56" width="295.469" height="110.127" style="fill:#fff;stroke:#000;stroke-width:6.8px;"/><rect x="12205.3" y="7874.68" width="295.469" height="82.595" style="fill:#fff;stroke:#000;stroke-width:6.8px;"/><rect x="12205.3" y="6889.24" width="295.469" height="165.19" style="fill:#fff;stroke:#000;stroke-width:6.8px;"/><rect x="12205.3" y="8439.87" width="295.469" height="55.063" style="fill:#fff;stroke:#000;stroke-width:6.8px;"/><rect x="12205.3" y="1343.35" width="295.469" height="247.785" style="fill:#fff;stroke:#000;stroke-width:6.8px;"/><rect x="12205.3" y="1791.14" width="295.469" height="247.785" style="fill:#fff;stroke:#000;stroke-width:6.8px;"/><rect x="12205.3" y="2238.92" width="295.469" height="247.785" style="fill:#fff;stroke:#000;stroke-width:6.8px;"/><rect x="12205.3" y="8694.94" width="295.469" height="55.063" style="fill:#fff;stroke:#000;stroke-width:6.8px;"/><rect x="12205.3" y="5766.14" width="295.469" height="192.722" style="fill:#fff;stroke:#000;stroke-width:6.8px;"/><rect x="12205.3" y="2686.71" width="295.469" height="247.785" style="fill:#fff;stroke:#000;stroke-width:6.8px;"/><rect x="12205.3" y="8157.28" width="295.469" height="82.595" style="fill:#fff;stroke:#000;stroke-width:6.8px;"/><rect x="12205.3" y="3134.49" width="295.469" height="247.785" style="fill:#fff;stroke:#000;stroke-width:6.8px;"/><rect x="12205.3" y="3582.28" width="295.469" height="247.785" style="fill:#fff;stroke:#000;stroke-width:6.8px;"/><rect x="12205.3" y="4030.06" width="295.469" height="247.785" style="fill:#fff;stroke:#000;stroke-width:6.8px;"/><rect x="12205.3" y="4477.85" width="295.469" height="247.785" style="fill:#fff;stroke:#000;stroke-width:6.8px;"/><rect x="12205.3" y="4925.63" width="295.469" height="247.785" style="fill:#fff;stroke:#000;stroke-width:6.8px;"/></g><g><rect x="0.761" y="5885.13" width="295.469" height="468.038" style="fill:#62bf95;stroke:#62bf95;stroke-width:6.8px;"/><rect x="0.761" y="3633.23" width="295.469" height="578.165" style="fill:#7b67a8;stroke:#7b67a8;stroke-width:6.8px;"/><rect x="0.761" y="6553.16" width="295.469" height="468.038" style="fill:#96c978;stroke:#96c978;stroke-width:6.8px;"/><rect x="0.761" y="7889.24" width="295.469" height="330.38" style="fill:#fddd3e;stroke:#fddd3e;stroke-width:6.8px;"/><rect x="0.761" y="5162.03" width="295.469" height="523.101" style="fill:#2eb5b2;stroke:#2eb5b2;stroke-width:6.8px;"/><rect x="0.761" y="8419.62" width="295.469" height="330.38" style="fill:#ef7835;stroke:#ef7835;stroke-width:6.8px;"/><rect x="0.761" y="2800" width="295.469" height="633.228" style="fill:#14022e;stroke:#14022e;stroke-width:6.8px;"/><rect x="0.761" y="4411.39" width="295.469" height="550.633" style="fill:#36bcee;stroke:#36bcee;stroke-width:6.8px;"/><rect x="0.761" y="7221.2" width="295.469" height="468.038" style="fill:#c9d35b;stroke:#c9d35b;stroke-width:6.8px;"/></g></g></g></svg>