<?xml version="1.0" encoding="UTF-8" standalone="no"?><!DOCTYPE svg PUBLIC "-//W3C//DTD SVG 1.1//EN" "http://www.w3.org/Graphics/SVG/1.1/DTD/svg11.dtd"><svg width="100%" height="100%" viewBox="0 0 834 584" version="1.1" xmlns="http://www.w3.org/2000/svg" xmlns:xlink="http://www.w3.org/1999/xlink" xml:space="preserve" xmlns:serif="http://www.serif.com/" style="fill-rule:evenodd;clip-rule:evenodd;"><rect id="Challenge-to-Technology--small-whole-" serif:id="Challenge-to-Technology (small whole)" x="0" y="0" width="833.333" height="583.333" style="fill:none;"/><clipPath id="_clip1"><rect x="0" y="0" width="833.333" height="583.333"/></clipPath><g clip-path="url(#_clip1)"><g><path d="M19.698,415.285c396.969,-0 396.969,-48.798 793.937,-48.798" style="fill:none;fill-rule:nonzero;stroke:#62bf95;stroke-width:2.49px;"/><path d="M19.698,418.956c396.969,-0 396.969,-1.941 793.937,-1.941" style="fill:none;fill-rule:nonzero;stroke:#62bf95;stroke-width:2.49px;"/><path d="M19.698,393.259c396.969,0 396.969,-385 793.937,-385" style="fill:none;fill-rule:nonzero;stroke:#62bf95;stroke-width:2.49px;"/><path d="M19.698,420.791c396.969,0 396.969,20.57 793.937,20.57" style="fill:none;fill-rule:nonzero;stroke:#62bf95;stroke-width:2.49px;"/><path d="M19.698,395.095c396.969,-0 396.969,-356.983 793.937,-356.983" style="fill:none;fill-rule:nonzero;stroke:#62bf95;stroke-width:2.49px;"/><path d="M19.698,396.93c396.969,0 396.969,-328.966 793.937,-328.966" style="fill:none;fill-rule:nonzero;stroke:#62bf95;stroke-width:2.49px;"/><path d="M19.698,422.627c396.969,-0 396.969,43.08 793.937,43.08" style="fill:none;fill-rule:nonzero;stroke:#62bf95;stroke-width:2.49px;"/><path d="M19.698,398.766c396.969,-0 396.969,-300.95 793.937,-300.95" style="fill:none;fill-rule:nonzero;stroke:#62bf95;stroke-width:2.49px;"/><path d="M19.698,400.601c396.969,0 396.969,-272.932 793.937,-272.932" style="fill:none;fill-rule:nonzero;stroke:#62bf95;stroke-width:2.49px;"/><path d="M19.698,402.437c396.969,-0 396.969,-244.916 793.937,-244.916" style="fill:none;fill-rule:nonzero;stroke:#62bf95;stroke-width:2.49px;"/><path d="M19.698,417.12c396.969,0 396.969,-24.451 793.937,-24.451" style="fill:none;fill-rule:nonzero;stroke:#62bf95;stroke-width:2.49px;"/><path d="M19.698,404.272c396.969,0 396.969,-216.899 793.937,-216.899" style="fill:none;fill-rule:nonzero;stroke:#62bf95;stroke-width:2.49px;"/><path d="M19.698,406.108c396.969,-0 396.969,-188.882 793.937,-188.882" style="fill:none;fill-rule:nonzero;stroke:#62bf95;stroke-width:2.49px;"/><path d="M19.698,407.943c396.969,0 396.969,-160.865 793.937,-160.865" style="fill:none;fill-rule:nonzero;stroke:#62bf95;stroke-width:2.49px;"/><path d="M19.698,409.778c396.969,0 396.969,-132.848 793.937,-132.848" style="fill:none;fill-rule:nonzero;stroke:#62bf95;stroke-width:2.49px;"/><path d="M19.698,411.614c396.969,-0 396.969,-104.831 793.937,-104.831" style="fill:none;fill-rule:nonzero;stroke:#62bf95;stroke-width:2.49px;"/><path d="M19.698,413.449c396.969,0 396.969,-76.814 793.937,-76.814" style="fill:none;fill-rule:nonzero;stroke:#62bf95;stroke-width:2.49px;"/><path d="M19.698,265.158c396.969,0 396.969,95.823 793.937,95.823" style="fill:none;fill-rule:nonzero;stroke:#7b67a8;stroke-width:2.49px;"/><path d="M19.698,268.829c396.969,0 396.969,144.515 793.937,144.515" style="fill:none;fill-rule:nonzero;stroke:#7b67a8;stroke-width:2.49px;"/><path d="M19.698,243.133c396.969,-0 396.969,-240.38 793.937,-240.38" style="fill:none;fill-rule:nonzero;stroke:#7b67a8;stroke-width:2.49px;"/><path d="M19.698,270.665c396.969,-0 396.969,167.025 793.937,167.025" style="fill:none;fill-rule:nonzero;stroke:#7b67a8;stroke-width:2.49px;"/><path d="M19.698,244.968c396.969,0 396.969,-212.363 793.937,-212.363" style="fill:none;fill-rule:nonzero;stroke:#7b67a8;stroke-width:2.49px;"/><path d="M19.698,246.804c396.969,-0 396.969,-184.346 793.937,-184.346" style="fill:none;fill-rule:nonzero;stroke:#7b67a8;stroke-width:2.49px;"/><path d="M19.698,274.335c396.969,0 396.969,212.047 793.937,212.047" style="fill:none;fill-rule:nonzero;stroke:#7b67a8;stroke-width:2.49px;"/><path d="M19.698,276.171c396.969,-0 396.969,230.886 793.937,230.886" style="fill:none;fill-rule:nonzero;stroke:#7b67a8;stroke-width:2.49px;"/><path d="M19.698,278.006c396.969,0 396.969,249.726 793.937,249.726" style="fill:none;fill-rule:nonzero;stroke:#7b67a8;stroke-width:2.49px;"/><path d="M19.698,272.5c396.969,-0 396.969,189.536 793.937,189.536" style="fill:none;fill-rule:nonzero;stroke:#7b67a8;stroke-width:2.49px;"/><path d="M19.698,248.639c396.969,0 396.969,-156.329 793.937,-156.329" style="fill:none;fill-rule:nonzero;stroke:#7b67a8;stroke-width:2.49px;"/><path d="M19.698,250.475c396.969,-0 396.969,-128.313 793.937,-128.313" style="fill:none;fill-rule:nonzero;stroke:#7b67a8;stroke-width:2.49px;"/><path d="M19.698,252.31c396.969,0 396.969,-100.295 793.937,-100.295" style="fill:none;fill-rule:nonzero;stroke:#7b67a8;stroke-width:2.49px;"/><path d="M19.698,266.994c396.969,-0 396.969,120.168 793.937,120.168" style="fill:none;fill-rule:nonzero;stroke:#7b67a8;stroke-width:2.49px;"/><path d="M19.698,254.146c396.969,-0 396.969,-72.279 793.937,-72.279" style="fill:none;fill-rule:nonzero;stroke:#7b67a8;stroke-width:2.49px;"/><path d="M19.698,279.842c396.969,-0 396.969,266.73 793.937,266.73" style="fill:none;fill-rule:nonzero;stroke:#7b67a8;stroke-width:2.49px;"/><path d="M19.698,255.981c396.969,0 396.969,-44.262 793.937,-44.262" style="fill:none;fill-rule:nonzero;stroke:#7b67a8;stroke-width:2.49px;"/><path d="M19.698,257.816c396.969,0 396.969,-16.244 793.937,-16.244" style="fill:none;fill-rule:nonzero;stroke:#7b67a8;stroke-width:2.49px;"/><path d="M19.698,259.652c396.969,-0 396.969,11.772 793.937,11.772" style="fill:none;fill-rule:nonzero;stroke:#7b67a8;stroke-width:2.49px;"/><path d="M19.698,261.487c396.969,0 396.969,39.789 793.937,39.789" style="fill:none;fill-rule:nonzero;stroke:#7b67a8;stroke-width:2.49px;"/><path d="M19.698,263.323c396.969,-0 396.969,67.806 793.937,67.806" style="fill:none;fill-rule:nonzero;stroke:#7b67a8;stroke-width:2.49px;"/><path d="M19.698,459.821c396.969,-0 396.969,-91.498 793.937,-91.498" style="fill:none;fill-rule:nonzero;stroke:#96c978;stroke-width:2.49px;"/><path d="M19.698,463.492c396.969,-0 396.969,-44.642 793.937,-44.642" style="fill:none;fill-rule:nonzero;stroke:#96c978;stroke-width:2.49px;"/><path d="M19.698,437.795c396.969,0 396.969,-427.7 793.937,-427.7" style="fill:none;fill-rule:nonzero;stroke:#96c978;stroke-width:2.49px;"/><path d="M19.698,465.327c396.969,0 396.969,-22.131 793.937,-22.131" style="fill:none;fill-rule:nonzero;stroke:#96c978;stroke-width:2.49px;"/><path d="M19.698,439.631c396.969,-0 396.969,-399.684 793.937,-399.684" style="fill:none;fill-rule:nonzero;stroke:#96c978;stroke-width:2.49px;"/><path d="M19.698,441.466c396.969,0 396.969,-371.666 793.937,-371.666" style="fill:none;fill-rule:nonzero;stroke:#96c978;stroke-width:2.49px;"/><path d="M19.698,467.162c396.969,0 396.969,0.38 793.937,0.38" style="fill:none;fill-rule:nonzero;stroke:#96c978;stroke-width:2.49px;"/><path d="M19.698,443.302c396.969,-0 396.969,-343.65 793.937,-343.65" style="fill:none;fill-rule:nonzero;stroke:#96c978;stroke-width:2.49px;"/><path d="M19.698,445.137c396.969,0 396.969,-315.633 793.937,-315.633" style="fill:none;fill-rule:nonzero;stroke:#96c978;stroke-width:2.49px;"/><path d="M19.698,446.973c396.969,-0 396.969,-287.616 793.937,-287.616" style="fill:none;fill-rule:nonzero;stroke:#96c978;stroke-width:2.49px;"/><path d="M19.698,461.656c396.969,0 396.969,-67.152 793.937,-67.152" style="fill:none;fill-rule:nonzero;stroke:#96c978;stroke-width:2.49px;"/><path d="M19.698,448.808c396.969,0 396.969,-259.599 793.937,-259.599" style="fill:none;fill-rule:nonzero;stroke:#96c978;stroke-width:2.49px;"/><path d="M19.698,450.643c396.969,0 396.969,-231.582 793.937,-231.582" style="fill:none;fill-rule:nonzero;stroke:#96c978;stroke-width:2.49px;"/><path d="M19.698,452.479c396.969,-0 396.969,-203.565 793.937,-203.565" style="fill:none;fill-rule:nonzero;stroke:#96c978;stroke-width:2.49px;"/><path d="M19.698,454.314c396.969,0 396.969,-175.548 793.937,-175.548" style="fill:none;fill-rule:nonzero;stroke:#96c978;stroke-width:2.49px;"/><path d="M19.698,456.15c396.969,-0 396.969,-147.532 793.937,-147.532" style="fill:none;fill-rule:nonzero;stroke:#96c978;stroke-width:2.49px;"/><path d="M19.698,457.985c396.969,0 396.969,-119.515 793.937,-119.515" style="fill:none;fill-rule:nonzero;stroke:#96c978;stroke-width:2.49px;"/><path d="M19.698,526.867c396.969,0 396.969,-513.101 793.937,-513.101" style="fill:none;fill-rule:nonzero;stroke:#fddd3e;stroke-width:2.49px;"/><path d="M19.698,528.703c396.969,-0 396.969,-485.085 793.937,-485.085" style="fill:none;fill-rule:nonzero;stroke:#fddd3e;stroke-width:2.49px;"/><path d="M19.698,530.538c396.969,-0 396.969,-457.068 793.937,-457.068" style="fill:none;fill-rule:nonzero;stroke:#fddd3e;stroke-width:2.49px;"/><path d="M19.698,532.373c396.969,0 396.969,-429.05 793.937,-429.05" style="fill:none;fill-rule:nonzero;stroke:#fddd3e;stroke-width:2.49px;"/><path d="M19.698,534.209c396.969,-0 396.969,-401.034 793.937,-401.034" style="fill:none;fill-rule:nonzero;stroke:#fddd3e;stroke-width:2.49px;"/><path d="M19.698,536.044c396.969,0 396.969,-373.017 793.937,-373.017" style="fill:none;fill-rule:nonzero;stroke:#fddd3e;stroke-width:2.49px;"/><path d="M19.698,537.88c396.969,-0 396.969,-345 793.937,-345" style="fill:none;fill-rule:nonzero;stroke:#fddd3e;stroke-width:2.49px;"/><path d="M19.698,539.715c396.969,0 396.969,-316.983 793.937,-316.983" style="fill:none;fill-rule:nonzero;stroke:#fddd3e;stroke-width:2.49px;"/><path d="M19.698,541.551c396.969,-0 396.969,-288.967 793.937,-288.967" style="fill:none;fill-rule:nonzero;stroke:#fddd3e;stroke-width:2.49px;"/><path d="M19.698,543.386c396.969,0 396.969,-260.949 793.937,-260.949" style="fill:none;fill-rule:nonzero;stroke:#fddd3e;stroke-width:2.49px;"/><path d="M19.698,545.222c396.969,-0 396.969,-232.933 793.937,-232.933" style="fill:none;fill-rule:nonzero;stroke:#fddd3e;stroke-width:2.49px;"/><path d="M19.698,547.057c396.969,-0 396.969,-204.916 793.937,-204.916" style="fill:none;fill-rule:nonzero;stroke:#fddd3e;stroke-width:2.49px;"/><path d="M19.698,367.078c396.969,0 396.969,-2.426 793.937,-2.426" style="fill:none;fill-rule:nonzero;stroke:#2eb5b2;stroke-width:2.49px;"/><path d="M19.698,370.749c396.969,-0 396.969,44.43 793.937,44.43" style="fill:none;fill-rule:nonzero;stroke:#2eb5b2;stroke-width:2.49px;"/><path d="M19.698,345.053c396.969,-0 396.969,-338.629 793.937,-338.629" style="fill:none;fill-rule:nonzero;stroke:#2eb5b2;stroke-width:2.49px;"/><path d="M19.698,372.584c396.969,0 396.969,66.941 793.937,66.941" style="fill:none;fill-rule:nonzero;stroke:#2eb5b2;stroke-width:2.49px;"/><path d="M19.698,346.888c396.969,0 396.969,-310.612 793.937,-310.612" style="fill:none;fill-rule:nonzero;stroke:#2eb5b2;stroke-width:2.49px;"/><path d="M19.698,348.724c396.969,-0 396.969,-282.595 793.937,-282.595" style="fill:none;fill-rule:nonzero;stroke:#2eb5b2;stroke-width:2.49px;"/><path d="M19.698,376.255c396.969,0 396.969,113.798 793.937,113.798" style="fill:none;fill-rule:nonzero;stroke:#2eb5b2;stroke-width:2.49px;"/><path d="M19.698,378.091c396.969,-0 396.969,132.637 793.937,132.637" style="fill:none;fill-rule:nonzero;stroke:#2eb5b2;stroke-width:2.49px;"/><path d="M19.698,374.42c396.969,-0 396.969,89.451 793.937,89.451" style="fill:none;fill-rule:nonzero;stroke:#2eb5b2;stroke-width:2.49px;"/><path d="M19.698,350.559c396.969,0 396.969,-254.578 793.937,-254.578" style="fill:none;fill-rule:nonzero;stroke:#2eb5b2;stroke-width:2.49px;"/><path d="M19.698,352.395c396.969,-0 396.969,-226.562 793.937,-226.562" style="fill:none;fill-rule:nonzero;stroke:#2eb5b2;stroke-width:2.49px;"/><path d="M19.698,354.23c396.969,-0 396.969,-198.544 793.937,-198.544" style="fill:none;fill-rule:nonzero;stroke:#2eb5b2;stroke-width:2.49px;"/><path d="M19.698,368.914c396.969,-0 396.969,21.919 793.937,21.919" style="fill:none;fill-rule:nonzero;stroke:#2eb5b2;stroke-width:2.49px;"/><path d="M19.698,356.065c396.969,0 396.969,-170.527 793.937,-170.527" style="fill:none;fill-rule:nonzero;stroke:#2eb5b2;stroke-width:2.49px;"/><path d="M19.698,357.901c396.969,-0 396.969,-142.511 793.937,-142.511" style="fill:none;fill-rule:nonzero;stroke:#2eb5b2;stroke-width:2.49px;"/><path d="M19.698,359.736c396.969,0 396.969,-114.493 793.937,-114.493" style="fill:none;fill-rule:nonzero;stroke:#2eb5b2;stroke-width:2.49px;"/><path d="M19.698,361.572c396.969,-0 396.969,-86.477 793.937,-86.477" style="fill:none;fill-rule:nonzero;stroke:#2eb5b2;stroke-width:2.49px;"/><path d="M19.698,363.407c396.969,0 396.969,-58.46 793.937,-58.46" style="fill:none;fill-rule:nonzero;stroke:#2eb5b2;stroke-width:2.49px;"/><path d="M19.698,365.243c396.969,-0 396.969,-30.443 793.937,-30.443" style="fill:none;fill-rule:nonzero;stroke:#2eb5b2;stroke-width:2.49px;"/><path d="M19.698,562.226c396.969,-0 396.969,-546.625 793.937,-546.625" style="fill:none;fill-rule:nonzero;stroke:#ef7835;stroke-width:2.49px;"/><path d="M19.698,564.061c396.969,0 396.969,-518.607 793.937,-518.607" style="fill:none;fill-rule:nonzero;stroke:#ef7835;stroke-width:2.49px;"/><path d="M19.698,565.897c396.969,-0 396.969,-490.591 793.937,-490.591" style="fill:none;fill-rule:nonzero;stroke:#ef7835;stroke-width:2.49px;"/><path d="M19.698,567.732c396.969,0 396.969,-462.574 793.937,-462.574" style="fill:none;fill-rule:nonzero;stroke:#ef7835;stroke-width:2.49px;"/><path d="M19.698,569.568c396.969,-0 396.969,-434.557 793.937,-434.557" style="fill:none;fill-rule:nonzero;stroke:#ef7835;stroke-width:2.49px;"/><path d="M19.698,571.403c396.969,-0 396.969,-406.54 793.937,-406.54" style="fill:none;fill-rule:nonzero;stroke:#ef7835;stroke-width:2.49px;"/><path d="M19.698,573.238c396.969,0 396.969,-378.523 793.937,-378.523" style="fill:none;fill-rule:nonzero;stroke:#ef7835;stroke-width:2.49px;"/><path d="M19.698,575.074c396.969,-0 396.969,-350.506 793.937,-350.506" style="fill:none;fill-rule:nonzero;stroke:#ef7835;stroke-width:2.49px;"/><path d="M19.698,576.909c396.969,0 396.969,-322.489 793.937,-322.489" style="fill:none;fill-rule:nonzero;stroke:#ef7835;stroke-width:2.49px;"/><path d="M19.698,578.745c396.969,-0 396.969,-294.473 793.937,-294.473" style="fill:none;fill-rule:nonzero;stroke:#ef7835;stroke-width:2.49px;"/><path d="M19.698,580.58c396.969,0 396.969,-266.456 793.937,-266.456" style="fill:none;fill-rule:nonzero;stroke:#ef7835;stroke-width:2.49px;"/><path d="M19.698,582.416c396.969,-0 396.969,-238.439 793.937,-238.439" style="fill:none;fill-rule:nonzero;stroke:#ef7835;stroke-width:2.49px;"/><path d="M19.698,209.61c396.969,-0 396.969,149.536 793.937,149.536" style="fill:none;fill-rule:nonzero;stroke:#14022e;stroke-width:2.49px;"/><path d="M19.698,213.281c396.969,-0 396.969,198.227 793.937,198.227" style="fill:none;fill-rule:nonzero;stroke:#14022e;stroke-width:2.49px;"/><path d="M19.698,187.584c396.969,0 396.969,-186.666 793.937,-186.666" style="fill:none;fill-rule:nonzero;stroke:#14022e;stroke-width:2.49px;"/><path d="M19.698,215.116c396.969,0 396.969,220.738 793.937,220.738" style="fill:none;fill-rule:nonzero;stroke:#14022e;stroke-width:2.49px;"/><path d="M19.698,189.42c396.969,-0 396.969,-158.65 793.937,-158.65" style="fill:none;fill-rule:nonzero;stroke:#14022e;stroke-width:2.49px;"/><path d="M19.698,191.255c396.969,0 396.969,-130.633 793.937,-130.633" style="fill:none;fill-rule:nonzero;stroke:#14022e;stroke-width:2.49px;"/><path d="M19.698,218.787c396.969,-0 396.969,265.759 793.937,265.759" style="fill:none;fill-rule:nonzero;stroke:#14022e;stroke-width:2.49px;"/><path d="M19.698,220.622c396.969,0 396.969,284.6 793.937,284.6" style="fill:none;fill-rule:nonzero;stroke:#14022e;stroke-width:2.49px;"/><path d="M19.698,222.458c396.969,-0 396.969,303.439 793.937,303.439" style="fill:none;fill-rule:nonzero;stroke:#14022e;stroke-width:2.49px;"/><path d="M19.698,216.951c396.969,0 396.969,243.249 793.937,243.249" style="fill:none;fill-rule:nonzero;stroke:#14022e;stroke-width:2.49px;"/><path d="M19.698,226.129c396.969,-0 396.969,337.447 793.937,337.447" style="fill:none;fill-rule:nonzero;stroke:#14022e;stroke-width:2.49px;"/><path d="M19.698,193.091c396.969,-0 396.969,-102.616 793.937,-102.616" style="fill:none;fill-rule:nonzero;stroke:#14022e;stroke-width:2.49px;"/><path d="M19.698,194.926c396.969,0 396.969,-74.599 793.937,-74.599" style="fill:none;fill-rule:nonzero;stroke:#14022e;stroke-width:2.49px;"/><path d="M19.698,196.762c396.969,-0 396.969,-46.583 793.937,-46.583" style="fill:none;fill-rule:nonzero;stroke:#14022e;stroke-width:2.49px;"/><path d="M19.698,227.964c396.969,0 396.969,352.616 793.937,352.616" style="fill:none;fill-rule:nonzero;stroke:#14022e;stroke-width:2.49px;"/><path d="M19.698,211.445c396.969,0 396.969,173.882 793.937,173.882" style="fill:none;fill-rule:nonzero;stroke:#14022e;stroke-width:2.49px;"/><path d="M19.698,198.597c396.969,0 396.969,-18.565 793.937,-18.565" style="fill:none;fill-rule:nonzero;stroke:#14022e;stroke-width:2.49px;"/><path d="M19.698,224.293c396.969,0 396.969,320.443 793.937,320.443" style="fill:none;fill-rule:nonzero;stroke:#14022e;stroke-width:2.49px;"/><path d="M19.698,200.432c396.969,0 396.969,9.452 793.937,9.452" style="fill:none;fill-rule:nonzero;stroke:#14022e;stroke-width:2.49px;"/><path d="M19.698,202.268c396.969,-0 396.969,37.468 793.937,37.468" style="fill:none;fill-rule:nonzero;stroke:#14022e;stroke-width:2.49px;"/><path d="M19.698,204.103c396.969,0 396.969,65.486 793.937,65.486" style="fill:none;fill-rule:nonzero;stroke:#14022e;stroke-width:2.49px;"/><path d="M19.698,205.939c396.969,-0 396.969,93.502 793.937,93.502" style="fill:none;fill-rule:nonzero;stroke:#14022e;stroke-width:2.49px;"/><path d="M19.698,207.774c396.969,0 396.969,121.519 793.937,121.519" style="fill:none;fill-rule:nonzero;stroke:#14022e;stroke-width:2.49px;"/><path d="M19.698,317.036c396.969,-0 396.969,45.78 793.937,45.78" style="fill:none;fill-rule:nonzero;stroke:#36bcee;stroke-width:2.49px;"/><path d="M19.698,295.011c396.969,-0 396.969,-290.422 793.937,-290.422" style="fill:none;fill-rule:nonzero;stroke:#36bcee;stroke-width:2.49px;"/><path d="M19.698,296.846c396.969,-0 396.969,-262.405 793.937,-262.405" style="fill:none;fill-rule:nonzero;stroke:#36bcee;stroke-width:2.49px;"/><path d="M19.698,298.681c396.969,0 396.969,-234.388 793.937,-234.388" style="fill:none;fill-rule:nonzero;stroke:#36bcee;stroke-width:2.49px;"/><path d="M19.698,320.707c396.969,-0 396.969,167.51 793.937,167.51" style="fill:none;fill-rule:nonzero;stroke:#36bcee;stroke-width:2.49px;"/><path d="M19.698,322.542c396.969,0 396.969,186.35 793.937,186.35" style="fill:none;fill-rule:nonzero;stroke:#36bcee;stroke-width:2.49px;"/><path d="M19.698,324.378c396.969,-0 396.969,205.19 793.937,205.19" style="fill:none;fill-rule:nonzero;stroke:#36bcee;stroke-width:2.49px;"/><path d="M19.698,328.049c396.969,-0 396.969,237.362 793.937,237.362" style="fill:none;fill-rule:nonzero;stroke:#36bcee;stroke-width:2.49px;"/><path d="M19.698,300.517c396.969,-0 396.969,-206.371 793.937,-206.371" style="fill:none;fill-rule:nonzero;stroke:#36bcee;stroke-width:2.49px;"/><path d="M19.698,302.352c396.969,0 396.969,-178.354 793.937,-178.354" style="fill:none;fill-rule:nonzero;stroke:#36bcee;stroke-width:2.49px;"/><path d="M19.698,304.188c396.969,-0 396.969,-150.338 793.937,-150.338" style="fill:none;fill-rule:nonzero;stroke:#36bcee;stroke-width:2.49px;"/><path d="M19.698,329.884c396.969,-0 396.969,252.532 793.937,252.532" style="fill:none;fill-rule:nonzero;stroke:#36bcee;stroke-width:2.49px;"/><path d="M19.698,318.871c396.969,0 396.969,70.127 793.937,70.127" style="fill:none;fill-rule:nonzero;stroke:#36bcee;stroke-width:2.49px;"/><path d="M19.698,306.023c396.969,0 396.969,-122.32 793.937,-122.32" style="fill:none;fill-rule:nonzero;stroke:#36bcee;stroke-width:2.49px;"/><path d="M19.698,326.213c396.969,0 396.969,222.194 793.937,222.194" style="fill:none;fill-rule:nonzero;stroke:#36bcee;stroke-width:2.49px;"/><path d="M19.698,307.859c396.969,-0 396.969,-94.304 793.937,-94.304" style="fill:none;fill-rule:nonzero;stroke:#36bcee;stroke-width:2.49px;"/><path d="M19.698,309.694c396.969,0 396.969,-66.287 793.937,-66.287" style="fill:none;fill-rule:nonzero;stroke:#36bcee;stroke-width:2.49px;"/><path d="M19.698,311.53c396.969,-0 396.969,-38.271 793.937,-38.271" style="fill:none;fill-rule:nonzero;stroke:#36bcee;stroke-width:2.49px;"/><path d="M19.698,313.365c396.969,-0 396.969,-10.253 793.937,-10.253" style="fill:none;fill-rule:nonzero;stroke:#36bcee;stroke-width:2.49px;"/><path d="M19.698,315.2c396.969,0 396.969,17.764 793.937,17.764" style="fill:none;fill-rule:nonzero;stroke:#36bcee;stroke-width:2.49px;"/><path d="M19.698,504.357c396.969,-0 396.969,-134.199 793.937,-134.199" style="fill:none;fill-rule:nonzero;stroke:#c9d35b;stroke-width:2.49px;"/><path d="M19.698,508.027c396.969,0 396.969,-87.341 793.937,-87.341" style="fill:none;fill-rule:nonzero;stroke:#c9d35b;stroke-width:2.49px;"/><path d="M19.698,482.331c396.969,0 396.969,-470.401 793.937,-470.401" style="fill:none;fill-rule:nonzero;stroke:#c9d35b;stroke-width:2.49px;"/><path d="M19.698,509.863c396.969,-0 396.969,-64.831 793.937,-64.831" style="fill:none;fill-rule:nonzero;stroke:#c9d35b;stroke-width:2.49px;"/><path d="M19.698,484.167c396.969,-0 396.969,-442.384 793.937,-442.384" style="fill:none;fill-rule:nonzero;stroke:#c9d35b;stroke-width:2.49px;"/><path d="M19.698,486.002c396.969,0 396.969,-414.367 793.937,-414.367" style="fill:none;fill-rule:nonzero;stroke:#c9d35b;stroke-width:2.49px;"/><path d="M19.698,511.698c396.969,0 396.969,-42.32 793.937,-42.32" style="fill:none;fill-rule:nonzero;stroke:#c9d35b;stroke-width:2.49px;"/><path d="M19.698,487.838c396.969,-0 396.969,-386.351 793.937,-386.351" style="fill:none;fill-rule:nonzero;stroke:#c9d35b;stroke-width:2.49px;"/><path d="M19.698,489.673c396.969,-0 396.969,-358.333 793.937,-358.333" style="fill:none;fill-rule:nonzero;stroke:#c9d35b;stroke-width:2.49px;"/><path d="M19.698,491.508c396.969,0 396.969,-330.316 793.937,-330.316" style="fill:none;fill-rule:nonzero;stroke:#c9d35b;stroke-width:2.49px;"/><path d="M19.698,506.192c396.969,-0 396.969,-109.852 793.937,-109.852" style="fill:none;fill-rule:nonzero;stroke:#c9d35b;stroke-width:2.49px;"/><path d="M19.698,493.344c396.969,-0 396.969,-302.3 793.937,-302.3" style="fill:none;fill-rule:nonzero;stroke:#c9d35b;stroke-width:2.49px;"/><path d="M19.698,495.179c396.969,0 396.969,-274.282 793.937,-274.282" style="fill:none;fill-rule:nonzero;stroke:#c9d35b;stroke-width:2.49px;"/><path d="M19.698,497.015c396.969,-0 396.969,-246.266 793.937,-246.266" style="fill:none;fill-rule:nonzero;stroke:#c9d35b;stroke-width:2.49px;"/><path d="M19.698,498.85c396.969,0 396.969,-218.249 793.937,-218.249" style="fill:none;fill-rule:nonzero;stroke:#c9d35b;stroke-width:2.49px;"/><path d="M19.698,500.686c396.969,-0 396.969,-190.232 793.937,-190.232" style="fill:none;fill-rule:nonzero;stroke:#c9d35b;stroke-width:2.49px;"/><path d="M19.698,502.521c396.969,0 396.969,-162.215 793.937,-162.215" style="fill:none;fill-rule:nonzero;stroke:#c9d35b;stroke-width:2.49px;"/><g><rect x="813.635" y="358.228" width="19.698" height="12.848" style="fill:#fff;stroke:#000;stroke-width:0.45px;"/><rect x="813.635" y="410.591" width="19.698" height="11.013" style="fill:#fff;stroke:#000;stroke-width:0.45px;"/><rect x="813.635" y="-0" width="19.698" height="16.519" style="fill:#fff;stroke:#000;stroke-width:0.45px;"/><rect x="813.635" y="434.937" width="19.698" height="11.013" style="fill:#fff;stroke:#000;stroke-width:0.45px;"/><rect x="813.635" y="29.852" width="19.698" height="16.519" style="fill:#fff;stroke:#000;stroke-width:0.45px;"/><rect x="813.635" y="59.705" width="19.698" height="16.519" style="fill:#fff;stroke:#000;stroke-width:0.45px;"/><rect x="813.635" y="483.629" width="19.698" height="7.342" style="fill:#fff;stroke:#000;stroke-width:0.45px;"/><rect x="813.635" y="504.304" width="19.698" height="7.342" style="fill:#fff;stroke:#000;stroke-width:0.45px;"/><rect x="813.635" y="524.979" width="19.698" height="5.506" style="fill:#fff;stroke:#000;stroke-width:0.45px;"/><rect x="813.635" y="459.283" width="19.698" height="11.013" style="fill:#fff;stroke:#000;stroke-width:0.45px;"/><rect x="813.635" y="562.658" width="19.698" height="3.671" style="fill:#fff;stroke:#000;stroke-width:0.45px;"/><rect x="813.635" y="89.557" width="19.698" height="16.519" style="fill:#fff;stroke:#000;stroke-width:0.45px;"/><rect x="813.635" y="119.409" width="19.698" height="16.519" style="fill:#fff;stroke:#000;stroke-width:0.45px;"/><rect x="813.635" y="149.262" width="19.698" height="16.519" style="fill:#fff;stroke:#000;stroke-width:0.45px;"/><rect x="813.635" y="579.662" width="19.698" height="3.671" style="fill:#fff;stroke:#000;stroke-width:0.45px;"/><rect x="813.635" y="384.409" width="19.698" height="12.848" style="fill:#fff;stroke:#000;stroke-width:0.45px;"/><rect x="813.635" y="179.114" width="19.698" height="16.519" style="fill:#fff;stroke:#000;stroke-width:0.45px;"/><rect x="813.635" y="543.819" width="19.698" height="5.506" style="fill:#fff;stroke:#000;stroke-width:0.45px;"/><rect x="813.635" y="208.966" width="19.698" height="16.519" style="fill:#fff;stroke:#000;stroke-width:0.45px;"/><rect x="813.635" y="238.819" width="19.698" height="16.519" style="fill:#fff;stroke:#000;stroke-width:0.45px;"/><rect x="813.635" y="268.671" width="19.698" height="16.519" style="fill:#fff;stroke:#000;stroke-width:0.45px;"/><rect x="813.635" y="298.523" width="19.698" height="16.519" style="fill:#fff;stroke:#000;stroke-width:0.45px;"/><rect x="813.635" y="328.376" width="19.698" height="16.519" style="fill:#fff;stroke:#000;stroke-width:0.45px;"/></g><g><rect x="0" y="392.342" width="19.698" height="31.203" style="fill:#62bf95;stroke:#62bf95;stroke-width:0.45px;"/><rect x="0" y="242.215" width="19.698" height="38.544" style="fill:#7b67a8;stroke:#7b67a8;stroke-width:0.45px;"/><rect x="0" y="436.878" width="19.698" height="31.203" style="fill:#96c978;stroke:#96c978;stroke-width:0.45px;"/><rect x="0" y="525.949" width="19.698" height="22.025" style="fill:#fddd3e;stroke:#fddd3e;stroke-width:0.45px;"/><rect x="0" y="344.135" width="19.698" height="34.873" style="fill:#2eb5b2;stroke:#2eb5b2;stroke-width:0.45px;"/><rect x="0" y="561.308" width="19.698" height="22.025" style="fill:#ef7835;stroke:#ef7835;stroke-width:0.45px;"/><rect x="0" y="186.667" width="19.698" height="42.215" style="fill:#14022e;stroke:#14022e;stroke-width:0.45px;"/><rect x="0" y="294.093" width="19.698" height="36.709" style="fill:#36bcee;stroke:#36bcee;stroke-width:0.45px;"/><rect x="0" y="481.414" width="19.698" height="31.203" style="fill:#c9d35b;stroke:#c9d35b;stroke-width:0.45px;"/></g></g></g></svg>