<?xml version="1.0" encoding="UTF-8" standalone="no"?><!DOCTYPE svg PUBLIC "-//W3C//DTD SVG 1.1//EN" "http://www.w3.org/Graphics/SVG/1.1/DTD/svg11.dtd"><svg width="100%" height="100%" viewBox="0 0 4500 4500" version="1.1" xmlns="http://www.w3.org/2000/svg" xmlns:xlink="http://www.w3.org/1999/xlink" xml:space="preserve" xmlns:serif="http://www.serif.com/" style="fill-rule:evenodd;clip-rule:evenodd;stroke-miterlimit:10;"><rect x="197.5" y="197.5" width="4103.33" height="4103.33" style="fill:#fff;stroke:#1d1d1b;stroke-width:125px;"/><g><path d="M2559.17,2031.67l-0,532.083c-0,28.333 22.916,51.667 51.666,51.667c28.334,-0 51.667,-22.917 51.667,-51.667l0,-618.75c0,-2.917 -0.417,-5.417 -1.25,-8.333c-2.5,-15.834 -12.083,-29.167 -25.833,-37.084l-567.084,-309.583c-15.416,-8.333 -34.166,-8.333 -49.583,0l-567.083,309.583c-13.75,7.5 -23.334,21.25 -25.834,37.084c-0.833,2.5 -1.25,5.416 -1.25,8.333l0,721.667c0,18.75 10.417,36.25 26.667,45.416l567.083,309.584c25,13.75 56.25,4.583 70,-20.417c3.334,-7.917 5.417,-16.25 6.25,-24.583l0,-691.667l464.584,-253.333Zm-515.417,-337.5l459.583,250.833l-459.583,250.833l-459.583,-250.833l459.583,-250.833Zm-515.833,337.5l464.166,253.333l0,604.583l-464.166,-253.333l-0,-604.583Z" style="fill-rule:nonzero;"/><path d="M3750.83,3242.08l-33.75,-235.416c-1.666,-10.834 -6.666,-21.25 -14.583,-29.167l-364.583,-364.583c-61.25,-58.334 -157.5,-58.334 -218.75,-0c-18.75,19.166 -32.084,43.333 -38.334,69.583c-51.666,-12.083 -105.833,2.917 -144.166,39.583c-18.75,19.167 -32.084,43.334 -38.334,70c-12.083,-2.916 -24.583,-4.166 -37.083,-4.166c-40,0.416 -78.333,16.25 -107.083,43.75c-16.667,17.5 -29.167,38.75 -35.834,62.083l-255.833,-255.833c-60.417,-60.417 -158.333,-60.834 -218.75,-0.417c-60.417,60.417 -60.833,158.333 -0.417,218.75l532.084,532.083l-167.5,0c-149.167,0.417 -270,121.25 -270,270.417c-0,26.667 20.416,49.167 47.083,51.25l856.667,71.667l105.833,107.083c20,20.417 52.5,20.417 72.917,0.417c20,-20 20.416,-52.5 0.416,-72.917l-119.166,-120.833c-8.75,-8.75 -20,-14.167 -32.5,-15l-821.25,-68.334c20.833,-71.25 86.25,-120.416 160.416,-120.416l291.667,-0c28.333,-0 51.667,-22.917 51.667,-51.667c-0,-13.75 -5.417,-26.667 -15,-36.667l-619.584,-619.583c-20,-20 -20,-52.917 0,-72.917c20,-20 52.917,-20 72.917,0l437.5,437.5c20,20 52.917,20 72.917,0c27.083,-21.25 32.083,-60 10.833,-87.083c-3.333,-4.167 -6.667,-7.5 -10.833,-10.833l-72.917,-72.917c-9.167,-10 -14.167,-23.333 -13.75,-37.083c-1.667,-25.834 18.333,-48.334 44.167,-49.584l5.416,0c13.75,-0.833 27.084,4.167 37.084,13.75l109.166,109.167c20,20 52.917,20 72.917,0c20,-20 20,-52.917 0,-72.917l-72.917,-72.916c-20,-20 -20,-52.917 0,-72.917c20,-20 52.917,-20 72.917,0l109.167,109.167c20.416,20 52.916,20 72.916,-0.417c20,-20 20,-52.5 0,-72.5l-72.916,-72.917c-20,-20.416 -20,-52.916 0.416,-72.916c20,-20 52.5,-20 72.5,-0l352.5,352.5l34.167,238.333c1.667,12.917 8.333,24.583 18.333,32.5l145.834,119.167c22.083,17.916 54.583,14.583 72.5,-7.084c17.916,-22.083 14.583,-54.583 -7.084,-72.5l-130,-106.25Z" style="fill-rule:nonzero;"/><path d="M1425,1068.33l0,-412.5c0,-28.333 -22.917,-51.666 -51.667,-51.666l-721.666,-0c-28.334,-0 -51.667,22.916 -51.667,51.666l0,412.5c0,28.334 22.917,51.667 51.667,51.667l722.083,0c27.917,0 51.25,-23.333 51.25,-51.667Zm-103.333,-51.666l-618.75,-0l-0,-309.584l618.75,0l-0,309.584Z" style="fill-rule:nonzero;"/><path d="M806.25,913.75l206.25,0c28.333,0 51.667,-22.917 51.667,-51.667c-0,-28.75 -22.917,-51.666 -51.667,-51.666l-206.25,-0c-28.333,-0 -51.667,22.916 -51.667,51.666c0,28.75 22.917,51.667 51.667,51.667Z" style="fill-rule:nonzero;"/><path d="M1167.08,913.75l51.667,0c28.333,0 51.667,-22.917 51.667,-51.667c-0,-28.75 -22.917,-51.666 -51.667,-51.666l-51.667,-0c-28.333,-0 -51.666,22.916 -51.666,51.666c-0,28.75 23.333,51.667 51.666,51.667Z" style="fill-rule:nonzero;"/><path d="M3848.33,1171.25l-721.666,0c-28.334,0 -51.667,22.917 -51.667,51.667l0,412.5c0,28.333 22.917,51.666 51.667,51.666l722.083,0c28.333,0 51.667,-22.916 51.667,-51.666l-0,-412.5c-0.417,-28.334 -23.334,-51.667 -52.084,-51.667Zm-51.666,412.5l-618.75,0l-0,-309.583l618.75,-0l-0,309.583Z" style="fill-rule:nonzero;"/><path d="M3487.5,1480.83l206.25,0c28.333,0 51.667,-22.916 51.667,-51.666c-0,-28.75 -22.917,-51.667 -51.667,-51.667l-206.25,0c-28.333,0 -51.667,22.917 -51.667,51.667c0,28.75 23.334,51.666 51.667,51.666Z" style="fill-rule:nonzero;"/><path d="M3281.25,1480.83l51.667,0c28.333,0 51.666,-22.916 51.666,-51.666c0,-28.75 -22.916,-51.667 -51.666,-51.667l-51.667,0c-28.333,0 -51.667,22.917 -51.667,51.667c0,28.75 23.334,51.666 51.667,51.666Z" style="fill-rule:nonzero;"/><path d="M1579.58,3130.83l-721.666,0c-28.334,0 -51.667,22.917 -51.667,51.667l0,412.5c0,28.333 22.917,51.667 51.667,51.667l722.083,-0c28.333,-0 51.667,-22.917 51.667,-51.667l-0,-412.5c-0.417,-28.75 -23.75,-51.667 -52.084,-51.667Zm-51.666,412.5l-618.75,0l-0,-309.583l618.75,0l-0,309.583Z" style="fill-rule:nonzero;"/><path d="M1218.75,3440l206.25,0c28.333,0 51.667,-22.917 51.667,-51.667c-0,-28.333 -22.917,-51.666 -51.667,-51.666l-206.25,-0c-28.333,-0 -51.667,22.916 -51.667,51.666c0,28.75 22.917,51.667 51.667,51.667Z" style="fill-rule:nonzero;"/><path d="M1012.5,3440l51.667,0c28.333,0 51.666,-22.917 51.666,-51.667c0,-28.333 -22.916,-51.666 -51.666,-51.666l-51.667,-0c-28.333,-0 -51.667,22.916 -51.667,51.666c0,28.75 22.917,51.667 51.667,51.667Z" style="fill-rule:nonzero;"/><path d="M2043.75,3079.17c-28.333,-0 -51.667,22.916 -51.667,51.666l0,206.25l-257.916,0c-28.334,0 -51.667,22.917 -51.667,51.667c0,28.333 22.917,51.667 51.667,51.667l309.583,-0c28.333,-0 51.667,-22.917 51.667,-51.667l-0,-257.917c-0,-28.333 -23.334,-51.666 -51.667,-51.666Z" style="fill-rule:nonzero;"/><path d="M1527.92,913.75l464.166,0l0,567.083c0,28.334 22.917,51.667 51.667,51.667c28.75,0 51.667,-22.917 51.667,-51.667l-0,-618.75c-0,-28.333 -22.917,-51.666 -51.667,-51.666l-515.833,-0c-28.334,-0 -51.667,22.916 -51.667,51.666c0,28.75 23.333,51.667 51.667,51.667Z" style="fill-rule:nonzero;"/><path d="M2610.83,1841.67c28.334,-0 51.667,-22.917 51.667,-51.667l0,-309.583l309.583,-0c28.334,-0 51.667,-22.917 51.667,-51.667c0,-28.75 -22.917,-51.667 -51.667,-51.667l-360.833,0c-28.333,0 -51.667,22.917 -51.667,51.667l0,360.833c-0.416,29.167 22.917,52.084 51.25,52.084Z" style="fill-rule:nonzero;"/><path d="M1321.67,1326.25c-0,-28.333 -22.917,-51.667 -51.667,-51.667l-412.5,0c-28.333,0 -51.667,22.917 -51.667,51.667c0,28.333 22.917,51.667 51.667,51.667l412.5,-0c28.75,-0.417 51.667,-23.334 51.667,-51.667Z" style="fill-rule:nonzero;"/><path d="M1527.92,1377.5c28.333,0 51.666,-22.917 51.666,-51.667c0,-28.333 -22.916,-51.666 -51.666,-51.666l-102.917,-0c-28.333,-0 -51.667,22.916 -51.667,51.666c0,28.334 22.917,51.667 51.667,51.667l102.917,0Z" style="fill-rule:nonzero;"/><path d="M1785.83,1274.58l-103.333,0c-28.333,0 -51.667,22.917 -51.667,51.667c0,28.333 22.917,51.667 51.667,51.667l103.333,-0c28.334,-0 51.667,-22.917 51.667,-51.667c0,-28.75 -23.333,-51.667 -51.667,-51.667Z" style="fill-rule:nonzero;"/><path d="M1373.33,1583.75l412.5,0c28.334,0 51.667,-22.917 51.667,-51.667c0,-28.333 -22.917,-51.666 -51.667,-51.666l-412.5,-0c-28.333,-0 -51.666,22.916 -51.666,51.666c-0,28.75 23.333,51.667 51.666,51.667Z" style="fill-rule:nonzero;"/><path d="M1115.42,1480.83c-28.334,0 -51.667,22.917 -51.667,51.667c0,28.333 22.917,51.667 51.667,51.667l103.333,-0c28.333,-0 51.667,-22.917 51.667,-51.667c-0,-28.333 -22.917,-51.667 -51.667,-51.667l-103.333,0Z" style="fill-rule:nonzero;"/><path d="M857.917,1480.83c-28.334,0 -51.667,22.917 -51.667,51.667c0,28.333 22.917,51.667 51.667,51.667l103.333,-0c28.333,-0 51.667,-22.917 51.667,-51.667c-0,-28.333 -22.917,-51.667 -51.667,-51.667l-103.333,0Z" style="fill-rule:nonzero;"/><path d="M3384.17,1893.33c-0,-28.333 -22.917,-51.666 -51.667,-51.666l-412.5,-0c-28.333,-0 -51.667,22.916 -51.667,51.666c0,28.75 22.917,51.667 51.667,51.667l412.5,0c28.75,0 51.667,-23.333 51.667,-51.667Z" style="fill-rule:nonzero;"/><path d="M3590.42,1945c28.333,0 51.666,-22.917 51.666,-51.667c0,-28.75 -22.916,-51.666 -51.666,-51.666l-102.917,-0c-28.333,-0 -51.667,22.916 -51.667,51.666c0,28.75 22.917,51.667 51.667,51.667l102.917,0Z" style="fill-rule:nonzero;"/><path d="M3848.33,1841.67l-103.333,-0c-28.333,-0 -51.667,22.916 -51.667,51.666c0,28.75 22.917,51.667 51.667,51.667l103.333,0c28.334,0 51.667,-22.917 51.667,-51.667c0,-28.75 -22.917,-51.666 -51.667,-51.666Z" style="fill-rule:nonzero;"/><path d="M3848.33,2047.92l-412.5,-0c-28.333,-0 -51.666,22.916 -51.666,51.666c-0,28.334 22.916,51.667 51.666,51.667l412.5,0c28.334,0 51.667,-22.917 51.667,-51.667c0,-28.75 -22.917,-51.666 -51.667,-51.666Z" style="fill-rule:nonzero;"/><path d="M3177.92,2047.92c-28.334,-0 -51.667,22.916 -51.667,51.666c0,28.334 22.917,51.667 51.667,51.667l103.333,0c28.333,0 51.667,-22.917 51.667,-51.667c-0,-28.333 -22.917,-51.666 -51.667,-51.666l-103.333,-0Z" style="fill-rule:nonzero;"/><path d="M2920.42,2047.92c-28.334,-0 -51.667,22.916 -51.667,51.666c0,28.334 22.917,51.667 51.667,51.667l103.333,0c28.333,0 51.667,-22.917 51.667,-51.667c-0,-28.333 -22.917,-51.666 -51.667,-51.666l-103.333,-0Z" style="fill-rule:nonzero;"/></g></svg>