<?xml version="1.0" encoding="UTF-8" standalone="no"?><!DOCTYPE svg PUBLIC "-//W3C//DTD SVG 1.1//EN" "http://www.w3.org/Graphics/SVG/1.1/DTD/svg11.dtd"><svg width="100%" height="100%" viewBox="0 0 4500 4500" version="1.1" xmlns="http://www.w3.org/2000/svg" xmlns:xlink="http://www.w3.org/1999/xlink" xml:space="preserve" xmlns:serif="http://www.serif.com/" style="fill-rule:evenodd;clip-rule:evenodd;stroke-miterlimit:10;"><rect x="197.5" y="197.5" width="4103.33" height="4103.33" style="fill:#fff;stroke:#1d1d1b;stroke-width:125px;"/><g><path d="M1986.67,3569.17l-315.834,-0c-41.25,-0 -68.75,27.5 -68.75,68.75c0,41.25 27.5,68.75 68.75,68.75l315.834,-0c41.25,-0 68.75,-27.5 68.75,-68.75c-0,-41.25 -34.167,-68.75 -68.75,-68.75Z" style="fill-rule:nonzero;"/><path d="M3848.75,848.75l-199.167,-199.167c-61.666,-61.666 -178.75,-61.666 -240.416,0l-357.084,357.084l0,-130.417c0,-151.25 -123.75,-274.583 -274.583,-274.583l-1903.33,-0c-151.25,-0 -274.584,123.75 -274.584,274.583l0,2747.92c0,151.25 123.75,274.583 274.584,274.583l1902.92,0c151.25,0 274.584,-123.75 274.584,-274.583l-0,-1738.33l797.083,-797.083c27.5,-34.167 47.917,-75.417 47.917,-116.667c-0,-47.916 -20.834,-89.166 -47.917,-123.333Zm-934.583,2775c-0,75.417 -61.667,137.5 -137.5,137.5l-1902.5,0c-75.417,0 -137.5,-61.667 -137.5,-137.5l-0,-116.667l2177.5,0l-0,116.667Zm-0,-254.167l-2177.5,0l-0,-2493.33c-0,-75.417 61.666,-137.5 137.5,-137.5l1902.92,0c75.417,0 137.5,61.667 137.5,137.5l0,267.917l-1332.92,1332.5c-6.667,6.666 -13.75,13.75 -13.75,27.5l-165,508.333c-6.667,27.5 -0,55 13.75,68.75c27.5,20.417 47.916,27.5 68.75,13.75l508.333,-165c13.75,0 20.417,-6.667 27.5,-13.75l892.917,-892.917l-0,1346.25Zm838.333,-2376.67l-1820.42,1813.33l-364.166,116.667l116.666,-364.167l1820.42,-1813.75c13.75,-13.75 27.5,-13.75 47.917,0l199.166,199.167c7.084,14.166 14.167,27.916 0.417,48.75Z" style="fill-rule:nonzero;"/></g></svg>