<?xml version="1.0" encoding="UTF-8" standalone="no"?><!DOCTYPE svg PUBLIC "-//W3C//DTD SVG 1.1//EN" "http://www.w3.org/Graphics/SVG/1.1/DTD/svg11.dtd"><svg width="100%" height="100%" viewBox="0 0 4500 4500" version="1.1" xmlns="http://www.w3.org/2000/svg" xmlns:xlink="http://www.w3.org/1999/xlink" xml:space="preserve" xmlns:serif="http://www.serif.com/" style="fill-rule:evenodd;clip-rule:evenodd;stroke-miterlimit:10;"><rect x="198.333" y="196.25" width="4103.33" height="4103.33" style="fill:#fff;stroke:#1d1d1b;stroke-width:125px;"/><g><path d="M1987.92,845c-161.25,0 -291.667,130.417 -291.667,291.667c-128.75,-96.667 -311.667,-70.417 -408.333,58.333c-37.917,50.417 -58.334,111.667 -58.334,175l0,953.75c-61.666,-76.25 -143.333,-134.167 -236.25,-166.25c-52.5,-18.333 -111.25,-10 -156.25,22.917c-46.25,32.916 -74.166,86.25 -74.166,142.916l-0,1030c-0.834,265 85,523.334 244.583,735c19.167,25.834 55.833,30.834 81.667,11.667c25.833,-19.167 30.833,-55.833 11.666,-81.667c-144.583,-191.666 -222.5,-425 -221.666,-665l-0,-1030.42c-0.417,-19.584 9.166,-37.917 25,-49.167c14.583,-10.833 33.333,-13.333 50.416,-7.5c164.584,57.083 275,212.5 274.584,386.667l-0,466.666c-0,32.084 26.25,58.334 58.333,58.334c32.083,-0 58.333,-26.25 58.333,-58.334l0,-1749.58c0,-96.667 78.334,-175 175,-175c96.667,-0 175,78.333 175,175l0,1341.25c0,32.083 26.25,58.333 58.334,58.333c32.083,0 58.333,-26.25 58.333,-58.333l0,-1574.58c0,-96.667 78.333,-175 175,-175c96.667,-0 175,78.333 175,175l0,1574.58c0,32.083 26.25,58.333 58.333,58.333c32.084,0 58.334,-26.25 58.334,-58.333l-0,-525c-0,-96.667 78.333,-175 175,-175c96.666,-0 175,78.333 175,175l-0,641.25c-0,32.083 26.25,58.333 58.333,58.333c32.083,0 58.333,-26.25 58.333,-58.333l0,-407.917c0,-96.666 78.334,-175 175,-175c96.667,0 175,78.334 175,175l0,933.334c0,240.833 -7.5,490.416 -61.666,684.166c-9.584,30.834 7.916,63.334 38.333,72.917c30.833,9.583 63.333,-7.917 72.917,-38.333c0.416,-0.834 0.416,-2.084 0.833,-2.917c58.333,-207.5 66.25,-466.667 66.25,-715.417l0,-933.333c0,-161.25 -130.417,-291.667 -291.667,-291.667c-62.916,0 -124.583,20.417 -175,58.334c0,-161.25 -130.416,-291.667 -291.666,-291.667c-62.917,-0 -124.584,20.417 -175,58.333l-0,-816.666c-0,-161.25 -130.417,-291.667 -291.25,-291.667Z" style="fill:#010101;fill-rule:nonzero;"/><path d="M2699.58,832.917c-22.916,-22.917 -59.583,-22.917 -82.5,-0l-216.25,216.25l216.25,216.25c22.5,22.916 59.584,23.333 82.5,0.833c22.917,-22.5 23.334,-59.583 0.834,-82.5l-76.25,-76.25l384.166,0l0,384.167l-75.416,-75.417c-22.917,-22.5 -60,-22.083 -82.5,0.833c-22.084,22.5 -22.084,58.75 -0,81.667l216.25,216.25l216.25,-216.25c22.916,-22.5 23.333,-59.583 0.833,-82.5c-22.5,-22.917 -59.583,-23.333 -82.5,-0.833l-76.25,76.25l0,-384.167l384.167,0l-75.417,75.417c-22.5,22.916 -22.083,60 0.833,82.5c22.5,22.083 58.75,22.083 81.667,-0l216.25,-216.25l-215.833,-216.25c-22.917,-22.5 -60,-22.084 -82.5,0.833c-22.084,22.5 -22.084,58.75 -0,81.667l75.416,75l-384.583,-0l0,-384.167l75.417,75.417c22.5,22.916 59.583,23.333 82.5,0.833c22.916,-22.5 23.333,-59.583 0.833,-82.5c-0.417,-0.417 -0.833,-0.833 -0.833,-0.833l-216.25,-215.834l-216.25,216.25c-22.5,22.917 -22.084,60 0.833,82.5c22.5,22.084 58.75,22.084 81.667,0l75,-75.416l-0,384.166l-384.167,0l75.417,-75.416c23.333,-22.917 23.333,-59.584 0.416,-82.5Z" style="fill:#010101;fill-rule:nonzero;"/></g></svg>