<?xml version="1.0" encoding="UTF-8" standalone="no"?><!DOCTYPE svg PUBLIC "-//W3C//DTD SVG 1.1//EN" "http://www.w3.org/Graphics/SVG/1.1/DTD/svg11.dtd"><svg width="100%" height="100%" viewBox="0 0 4500 4500" version="1.1" xmlns="http://www.w3.org/2000/svg" xmlns:xlink="http://www.w3.org/1999/xlink" xml:space="preserve" xmlns:serif="http://www.serif.com/" style="fill-rule:evenodd;clip-rule:evenodd;stroke-miterlimit:10;"><rect x="196.25" y="202.5" width="4103.33" height="4103.33" style="fill:#fff;stroke:#1d1d1b;stroke-width:125px;"/><g><path d="M2252.08,2218.33c-11.25,0 -21.666,4.167 -30,11.667l-16.25,-13.333l-10.416,12.5l16.25,13.333c-4.167,6.667 -6.25,14.583 -6.667,22.5c0,25.833 20.833,46.667 46.667,46.667c25.833,-0 46.666,-20.834 46.666,-46.667c0.417,-25.833 -20.416,-46.667 -46.25,-46.667Z" style="fill:#010101;fill-rule:nonzero;"/><circle cx="2852.08" cy="2535.42" r="46.667" style="fill:#010101;"/><path d="M2757.5,1813.33c0,7.917 2.5,15.417 6.667,22.5l-15.417,12.5l10.417,12.5l15.416,-12.5c8.334,7.5 18.75,11.667 30,11.667c25.834,0 46.667,-20.833 46.667,-46.667c0,-25.833 -20.833,-46.666 -46.667,-46.666c-26.25,-0.417 -47.083,20.833 -47.083,46.666Z" style="fill:#010101;fill-rule:nonzero;"/><circle cx="1698.33" cy="1813.33" r="46.667" style="fill:#010101;"/><circle cx="2252.92" cy="2955" r="46.667" style="fill:#010101;"/><path d="M2252.92,3628.33c-14.167,0 -27.5,7.084 -36.25,18.334l-14.167,-7.5l-7.5,14.166l14.167,7.5c-1.667,4.584 -2.5,9.167 -2.917,14.167c0,25.833 20.833,46.667 46.667,46.667c25.833,-0 46.666,-20.834 46.666,-46.667c0,-25.833 -20.833,-46.667 -46.666,-46.667Z" style="fill:#010101;fill-rule:nonzero;"/><path d="M2805.42,3332.5c-25.834,0 -46.667,20.833 -46.667,46.667c0,5.416 1.25,10.416 2.917,15.416l-12.084,6.25l7.5,14.167l12.5,-6.667c8.334,10.417 21.25,16.667 34.584,17.084l1.666,14.166l16.25,-1.666l-1.666,-15.417c24.166,-8.333 37.5,-34.583 29.166,-58.75c-6.25,-18.75 -24.166,-31.667 -44.166,-31.25Z" style="fill:#010101;fill-rule:nonzero;"/><circle cx="1698.33" cy="3379.17" r="46.667" style="fill:#010101;"/><circle cx="3245" cy="1813.33" r="46.667" style="fill:#010101;"/><circle cx="1255.42" cy="1813.33" r="46.667" style="fill:#010101;"/><path d="M2504.17,2782.92c-0,-5.834 -1.25,-12.084 -3.334,-17.5l12.5,-7.917l-8.75,-13.75l-12.5,7.917c-8.75,-9.584 -21.25,-15.417 -34.166,-15.417c-2.917,0.417 -6.25,0.833 -9.167,1.667l-9.583,-23.75l-15,5.833l9.583,23.75c-13.75,8.333 -22.5,22.917 -22.5,39.167c-0.833,25.833 19.583,47.5 45,48.333c25.833,0.833 47.5,-19.583 48.333,-45c-0.416,-1.25 -0.416,-2.5 -0.416,-3.333Z" style="fill:#010101;fill-rule:nonzero;"/><path d="M2093.75,2790.83l39.583,0l0,-16.25l-39.583,0c-2.083,-12.916 -10,-24.166 -20.833,-30.833l9.166,-22.917l-15,-5.833l-9.166,23.333c-2.917,-0.833 -5.834,-1.666 -9.167,-1.666c-25.833,-0 -46.667,20.833 -46.667,46.666c0,25.834 20.834,46.667 46.667,46.667c22.5,-0.833 41.25,-17.083 45,-39.167Z" style="fill:#010101;fill-rule:nonzero;"/><path d="M1698.33,826.667c22.5,-0 41.25,-16.25 45,-38.75l32.084,-0l-0,-16.25l-32.084,-0c-3.75,-22.084 -22.5,-38.334 -45,-38.75c-25.833,0.833 -45.833,22.5 -45,48.333c0.417,24.583 20.417,44.583 45,45.417Z" style="fill:#010101;fill-rule:nonzero;"/><path d="M2787.08,822.5l-2.083,-0.417l-11.25,39.167l15.417,4.583l11.25,-39.166l-12.084,-3.334c21.25,5.417 42.917,-7.5 48.334,-28.75c5.416,-21.25 -7.5,-42.916 -28.75,-48.333c-21.25,-5.417 -42.917,7.5 -48.334,28.75c-5,20.417 7.084,41.667 27.5,47.5Z" style="fill:#010101;fill-rule:nonzero;"/><path d="M2629.58,1565c0,-25.833 -20.833,-46.667 -46.666,-46.667c-22.5,0 -41.25,16.667 -45,38.75l-36.667,0l0,16.25l36.667,0c3.75,22.084 22.5,38.334 45,38.75c25.416,-0.416 46.666,-21.25 46.666,-47.083Z" style="fill:#010101;fill-rule:nonzero;"/><circle cx="1933.75" cy="1565" r="46.667" style="fill:#010101;"/><path d="M2079.98,2113.95l-10.282,12.584l31.299,25.571l10.281,-12.584l-31.298,-25.571Z" style="fill:#010101;"/><path d="M1828.68,1909.06l-10.277,12.587l31.307,25.559l10.277,-12.587l-31.307,-25.559Z" style="fill:#010101;"/><path d="M1891.88,1960.73l-10.281,12.584l31.299,25.572l10.281,-12.584l-31.299,-25.572Z" style="fill:#010101;"/><path d="M1954.55,2011.52l-10.273,12.59l31.315,25.552l10.273,-12.591l-31.315,-25.551Z" style="fill:#010101;"/><path d="M2017.5,2062.89l-10.282,12.584l31.299,25.572l10.281,-12.584l-31.298,-25.572Z" style="fill:#010101;"/><path d="M1766.24,1857.66l-10.274,12.591l31.315,25.551l10.274,-12.59l-31.315,-25.552Z" style="fill:#010101;"/><path d="M2142.93,2165.22l-10.273,12.591l31.314,25.551l10.274,-12.59l-31.315,-25.552Z" style="fill:#010101;"/><path d="M2529.01,2027.73l-31.262,25.616l10.299,12.569l31.262,-25.616l-10.299,-12.569Z" style="fill:#010101;"/><path d="M2340.65,2181.58l-31.25,25.632l10.306,12.564l31.25,-25.632l-10.306,-12.564Z" style="fill:#010101;"/><path d="M2403.6,2130.25l-31.299,25.572l10.282,12.584l31.299,-25.572l-10.282,-12.584Z" style="fill:#010101;"/><path d="M2716.73,1873.98l-31.271,25.604l10.295,12.573l31.27,-25.604l-10.294,-12.573Z" style="fill:#010101;"/><path d="M2466.03,2079.09l-31.298,25.572l10.281,12.584l31.299,-25.572l-10.282,-12.584Z" style="fill:#010101;"/><path d="M2654.39,1924.85l-31.298,25.572l10.281,12.584l31.299,-25.572l-10.282,-12.584Z" style="fill:#010101;"/><path d="M2572.29,1976.96l-31.283,25.592l10.29,12.578l31.282,-25.592l-10.289,-12.578Z" style="fill:#010101;"/><path d="M2477.2,2357.22l-6.679,14.813l36.844,16.612l6.679,-14.814l-36.844,-16.611Z" style="fill:#010101;"/><path d="M2551.02,2390.54l-6.677,14.816l36.848,16.607l6.677,-14.815l-36.848,-16.608Z" style="fill:#010101;"/><path d="M2403.43,2324.13l-6.674,14.816l36.852,16.599l6.674,-14.816l-36.852,-16.599Z" style="fill:#010101;"/><path d="M2698.84,2457.27l-6.674,14.816l36.852,16.6l6.674,-14.817l-36.852,-16.599Z" style="fill:#010101;"/><path d="M2329.27,2291.13l-6.665,14.82l36.86,16.579l6.665,-14.82l-36.86,-16.579Z" style="fill:#010101;"/><path d="M2625.21,2424.2l-6.674,14.817l36.852,16.599l6.674,-14.817l-36.852,-16.599Z" style="fill:#010101;"/><path d="M2772.11,2490.51l-6.679,14.814l36.844,16.611l6.679,-14.813l-36.844,-16.612Z" style="fill:#010101;"/><path d="M3198.39,2421.11l-38.646,11.83l4.756,15.538l38.646,-11.83l-4.756,-15.538Z" style="fill:#010101;"/><path d="M3276.09,2397.42l-38.651,11.822l4.753,15.54l38.651,-11.822l-4.753,-15.54Z" style="fill:#010101;"/><path d="M3360.66,2394.09l-39.09,11.809l4.7,15.556l39.089,-11.809l-4.699,-15.556Z" style="fill:#010101;"/><path d="M3430.88,2349.84l-38.647,11.83l4.757,15.538l38.646,-11.83l-4.756,-15.538Z" style="fill:#010101;"/><path d="M3049.41,2488.7l-39.09,11.809l4.7,15.556l39.089,-11.809l-4.699,-15.556Z" style="fill:#010101;"/><path d="M2966.08,2492.85l-38.651,11.821l4.754,15.54l38.65,-11.822l-4.753,-15.539Z" style="fill:#010101;"/><path d="M3120.89,2444.86l-38.647,11.83l4.757,15.538l38.646,-11.83l-4.756,-15.538Z" style="fill:#010101;"/><path d="M3316.08,1933.49l-14.453,7.428l18.475,35.947l14.453,-7.428l-18.475,-35.947Z" style="fill:#010101;"/><path d="M3389.83,2077.68l-14.453,7.428l18.474,35.947l14.453,-7.428l-18.474,-35.947Z" style="fill:#010101;"/><path d="M3353.17,2005.57l-14.453,7.428l18.474,35.947l14.453,-7.428l-18.474,-35.947Z" style="fill:#010101;"/><path d="M3278.77,1861.11l-14.449,7.436l18.494,35.939l14.45,-7.436l-18.495,-35.939Z" style="fill:#010101;"/><path d="M3427.34,2149.73l-14.452,7.428l18.474,35.946l14.453,-7.428l-18.475,-35.946Z" style="fill:#010101;"/><path d="M3464.23,2221.52l-14.45,7.436l18.495,35.938l14.45,-7.436l-18.495,-35.938Z" style="fill:#010101;"/><rect x="2885.42" y="1805" width="40.417" height="16.25" style="fill:#010101;"/><rect x="2966.25" y="1805" width="40.417" height="16.25" style="fill:#010101;"/><rect x="3047.5" y="1805" width="40.417" height="16.25" style="fill:#010101;"/><rect x="3128.33" y="1805" width="40.417" height="16.25" style="fill:#010101;"/><path d="M1815.62,2479.93l-35.95,18.467l7.424,14.454l35.951,-18.466l-7.425,-14.455Z" style="fill:#010101;"/><path d="M2103.98,2332.01l-35.95,18.466l7.424,14.454l35.951,-18.466l-7.425,-14.454Z" style="fill:#010101;"/><path d="M1959.8,2406.24l-35.95,18.467l7.424,14.454l35.951,-18.466l-7.425,-14.455Z" style="fill:#010101;"/><path d="M1887.83,2443.32l-35.947,18.475l7.428,14.452l35.947,-18.474l-7.428,-14.453Z" style="fill:#010101;"/><path d="M2031.87,2369.11l-35.95,18.467l7.424,14.454l35.951,-18.466l-7.425,-14.455Z" style="fill:#010101;"/><path d="M2176.06,2294.96l-35.95,18.466l7.424,14.455l35.951,-18.467l-7.425,-14.454Z" style="fill:#010101;"/><path d="M1141.07,2367.72l-4.269,15.679l38.998,10.618l4.269,-15.68l-38.998,-10.617Z" style="fill:#010101;"/><path d="M1453.8,2453.19l-4.269,15.68l38.998,10.617l4.269,-15.679l-38.998,-10.618Z" style="fill:#010101;"/><path d="M1610.16,2495.28l-4.266,15.68l38.998,10.609l4.266,-15.68l-38.998,-10.609Z" style="fill:#010101;"/><path d="M1532.15,2474.77l-4.269,15.68l38.998,10.617l4.269,-15.68l-38.998,-10.617Z" style="fill:#010101;"/><path d="M1375.99,2432.03l-4.269,15.679l38.998,10.618l4.269,-15.68l-38.998,-10.617Z" style="fill:#010101;"/><path d="M1297.28,2410.37l-4.269,15.68l38.998,10.617l4.269,-15.68l-38.998,-10.617Z" style="fill:#010101;"/><path d="M1218.95,2389.18l-4.265,15.68l38.998,10.609l4.265,-15.679l-38.998,-10.61Z" style="fill:#010101;"/><path d="M1062.75,2346.69l-4.269,15.68l38.998,10.617l4.269,-15.68l-38.998,-10.617Z" style="fill:#010101;"/><path d="M1070.2,2150.71l-18.745,35.809l14.397,7.536l18.746,-35.809l-14.398,-7.536Z" style="fill:#010101;"/><path d="M1107.21,2079l-18.745,35.809l14.397,7.537l18.745,-35.809l-14.397,-7.537Z" style="fill:#010101;"/><path d="M1182.38,1934.84l-18.749,35.806l14.395,7.538l18.75,-35.805l-14.396,-7.539Z" style="fill:#010101;"/><path d="M1032.12,2222.53l-18.745,35.809l14.397,7.537l18.745,-35.809l-14.397,-7.537Z" style="fill:#010101;"/><path d="M1219.95,1863.27l-18.749,35.805l14.396,7.538l18.749,-35.805l-14.396,-7.538Z" style="fill:#010101;"/><path d="M1145.02,2007.07l-18.746,35.809l14.398,7.537l18.745,-35.81l-14.397,-7.536Z" style="fill:#010101;"/><rect x="1336.25" y="1805" width="40.417" height="16.25" style="fill:#010101;"/><rect x="1498.33" y="1805" width="40.417" height="16.25" style="fill:#010101;"/><rect x="1417.5" y="1805" width="40.417" height="16.25" style="fill:#010101;"/><rect x="1579.58" y="1805" width="40.417" height="16.25" style="fill:#010101;"/><path d="M2778.94,2571.82l-34.241,21.473l8.634,13.767l34.241,-21.473l-8.634,-13.767Z" style="fill:#010101;"/><path d="M2710.46,2614.3l-34.241,21.473l8.634,13.767l34.241,-21.473l-8.634,-13.767Z" style="fill:#010101;"/><path d="M2573.15,2701.08l-34.224,21.502l8.645,13.76l34.224,-21.502l-8.645,-13.76Z" style="fill:#010101;"/><path d="M2641.77,2657.6l-34.245,21.466l8.63,13.768l34.245,-21.465l-8.63,-13.769Z" style="fill:#010101;"/><path d="M1957.18,2702.62l-9.875,12.906l32.099,24.561l9.875,-12.906l-32.099,-24.561Z" style="fill:#010101;"/><path d="M1796.25,2579.17l-29.583,-22.5c3.75,-6.667 5.416,-13.75 5.833,-21.25c0.417,-26.25 -20.417,-47.917 -46.667,-48.334c-26.25,-0.416 -47.916,20.417 -48.333,46.667c-0.417,26.25 20.417,47.917 46.667,48.333c12.083,0.417 24.166,-4.166 33.333,-12.5l29.583,22.5l9.167,-12.916Z" style="fill:#010101;fill-rule:nonzero;"/><path d="M1828.52,2604.37l-9.875,12.906l32.099,24.561l9.875,-12.906l-32.099,-24.561Z" style="fill:#010101;"/><path d="M1892.89,2653.19l-9.875,12.906l32.099,24.561l9.875,-12.905l-32.099,-24.562Z" style="fill:#010101;"/><path d="M2177.65,2881.07l-10.473,12.424l30.903,26.049l10.473,-12.425l-30.903,-26.048Z" style="fill:#010101;"/><path d="M2116.24,2828.39l-10.476,12.423l30.898,26.057l10.477,-12.424l-30.899,-26.056Z" style="fill:#010101;"/><path d="M2328.33,2880.96l-30.903,26.049l10.473,12.425l30.903,-26.049l-10.473,-12.425Z" style="fill:#010101;"/><path d="M2390.63,2829.25l-30.898,26.057l10.476,12.423l30.899,-26.056l-10.477,-12.424Z" style="fill:#010101;"/><rect x="2254.58" y="2774.58" width="40.417" height="16.25" style="fill:#010101;"/><rect x="2335.83" y="2774.58" width="40.417" height="16.25" style="fill:#010101;"/><rect x="2173.75" y="2774.58" width="40.417" height="16.25" style="fill:#010101;"/><path d="M2155.72,2488.44l-14.804,37.608l15.12,5.952l14.805,-37.608l-15.121,-5.952Z" style="fill:#010101;"/><path d="M2125.73,2563.9l-14.805,37.608l15.121,5.952l14.804,-37.608l-15.12,-5.952Z" style="fill:#010101;"/><path d="M2215.11,2337.29l-14.804,37.608l15.12,5.953l14.805,-37.608l-15.121,-5.953Z" style="fill:#010101;"/><path d="M2185.35,2413.08l-14.805,37.607l15.121,5.953l14.804,-37.608l-15.12,-5.952Z" style="fill:#010101;"/><path d="M2096.16,2639.2l-14.804,37.608l15.12,5.952l14.805,-37.608l-15.121,-5.952Z" style="fill:#010101;"/><path d="M2349.06,2488.04l-15.106,5.989l14.897,37.572l15.106,-5.99l-14.897,-37.572Z" style="fill:#010101;"/><path d="M2289.13,2337.37l-15.107,5.987l14.889,37.575l15.108,-5.986l-14.89,-37.576Z" style="fill:#010101;"/><path d="M2409.09,2638.88l-15.106,5.99l14.897,37.571l15.106,-5.99l-14.897,-37.571Z" style="fill:#010101;"/><path d="M2319.51,2412.6l-15.106,5.99l14.897,37.571l15.106,-5.99l-14.897,-37.571Z" style="fill:#010101;"/><path d="M2379.14,2563.66l-15.107,5.987l14.889,37.575l15.108,-5.986l-14.89,-37.576Z" style="fill:#010101;"/><path d="M2586.88,2988.47l-14.035,8.189l20.366,34.908l14.035,-8.189l-20.366,-34.908Z" style="fill:#010101;"/><path d="M2505.59,2849.19l-14.035,8.192l20.374,34.908l14.035,-8.192l-20.374,-34.908Z" style="fill:#010101;"/><path d="M2710.07,3198.28l-14.032,8.196l20.386,34.9l14.032,-8.196l-20.386,-34.9Z" style="fill:#010101;"/><path d="M2643.2,3127.33l-14.048,8.167l20.313,34.941l14.048,-8.168l-20.313,-34.94Z" style="fill:#010101;"/><path d="M2750.2,3268.48l-14.036,8.188l20.366,34.908l14.036,-8.189l-20.366,-34.907Z" style="fill:#010101;"/><path d="M2627.9,3058.67l-14.045,8.173l20.33,34.932l14.045,-8.173l-20.33,-34.932Z" style="fill:#010101;"/><path d="M2521.97,2917.76l-14.048,8.167l20.314,34.94l14.048,-8.167l-20.314,-34.94Z" style="fill:#010101;"/><path d="M2921.84,3345.32l-39.471,8.686l3.492,15.87l39.471,-8.686l-3.492,-15.87Z" style="fill:#010101;"/><path d="M3001,3327.82l-39.471,8.685l3.492,15.87l39.471,-8.686l-3.492,-15.869Z" style="fill:#010101;"/><path d="M3080.16,3310.31l-39.471,8.686l3.492,15.869l39.471,-8.685l-3.492,-15.87Z" style="fill:#010101;"/><path d="M3159.33,3293.24l-39.471,8.685l3.492,15.87l39.471,-8.686l-3.492,-15.869Z" style="fill:#010101;"/><path d="M3238.49,3275.73l-39.471,8.685l3.492,15.87l39.471,-8.685l-3.492,-15.87Z" style="fill:#010101;"/><path d="M3145.26,2923.66l-13.133,9.57l23.802,32.665l13.133,-9.57l-23.802,-32.665Z" style="fill:#010101;"/><path d="M3192.77,2989.07l-13.134,9.57l23.802,32.664l13.133,-9.569l-23.801,-32.665Z" style="fill:#010101;"/><path d="M3240.6,3054.44l-13.133,9.57l23.801,32.665l13.134,-9.57l-23.802,-32.665Z" style="fill:#010101;"/><path d="M3001.84,2726.97l-13.134,9.57l23.802,32.664l13.133,-9.569l-23.801,-32.665Z" style="fill:#010101;"/><path d="M2953.96,2661.59l-13.133,9.57l23.801,32.665l13.133,-9.57l-23.801,-32.665Z" style="fill:#010101;"/><path d="M3049.33,2792.38l-13.133,9.57l23.801,32.664l13.134,-9.569l-23.802,-32.665Z" style="fill:#010101;"/><path d="M2906.48,2596.18l-13.133,9.57l23.801,32.665l13.133,-9.57l-23.801,-32.665Z" style="fill:#010101;"/><path d="M3298.71,3124.12l-13.135,9.568l23.798,32.669l13.135,-9.568l-23.798,-32.669Z" style="fill:#010101;"/><path d="M3096.86,2857.95l-13.136,9.565l23.789,32.673l13.136,-9.565l-23.789,-32.673Z" style="fill:#010101;"/><path d="M1699.11,3102.07l-1.283,40.397l16.242,0.516l1.283,-40.397l-16.242,-0.516Z" style="fill:#010101;"/><path d="M1693.66,3264.4l-1.283,40.397l16.241,0.516l1.284,-40.397l-16.242,-0.516Z" style="fill:#010101;"/><path d="M1701.25,3021.02l-1.283,40.396l16.242,0.516l1.283,-40.396l-16.242,-0.516Z" style="fill:#010101;"/><path d="M1696.32,3183.49l-1.283,40.396l16.241,0.517l1.284,-40.397l-16.242,-0.516Z" style="fill:#010101;"/><path d="M1704.01,2940.31l-1.284,40.396l16.242,0.516l1.284,-40.396l-16.242,-0.516Z" style="fill:#010101;"/><path d="M1714.77,2616.29l-1.283,40.397l16.242,0.516l1.283,-40.396l-16.242,-0.517Z" style="fill:#010101;"/><path d="M1712,2697.33l-1.284,40.396l16.242,0.516l1.284,-40.396l-16.242,-0.516Z" style="fill:#010101;"/><path d="M1706.87,2859.38l-1.284,40.397l16.242,0.516l1.284,-40.397l-16.242,-0.516Z" style="fill:#010101;"/><path d="M1707.66,2771.88l-1.212,40.4l16.243,0.488l1.212,-40.401l-16.243,-0.487Z" style="fill:#010101;"/><path d="M2810.15,3182.85l-2.073,40.364l16.229,0.834l2.073,-40.364l-16.229,-0.834Z" style="fill:#010101;"/><path d="M2823.25,2939.66l-2.073,40.364l16.229,0.833l2.073,-40.364l-16.229,-0.833Z" style="fill:#010101;"/><path d="M2814.1,3101.7l-2.072,40.364l16.228,0.833l2.073,-40.364l-16.229,-0.833Z" style="fill:#010101;"/><path d="M2818.38,3020.58l-2.073,40.364l16.229,0.833l2.073,-40.364l-16.229,-0.833Z" style="fill:#010101;"/><path d="M2805.77,3263.57l-2.073,40.364l16.229,0.833l2.073,-40.364l-16.229,-0.833Z" style="fill:#010101;"/><path d="M2839.9,2615.63l-2.073,40.365l16.229,0.833l2.073,-40.364l-16.229,-0.834Z" style="fill:#010101;"/><path d="M2826.79,2858.91l-2.073,40.364l16.229,0.833l2.073,-40.364l-16.229,-0.833Z" style="fill:#010101;"/><path d="M2835.52,2697.06l-2.073,40.365l16.229,0.833l2.073,-40.364l-16.229,-0.834Z" style="fill:#010101;"/><path d="M2831.05,2778.18l-2.073,40.364l16.229,0.834l2.073,-40.364l-16.229,-0.834Z" style="fill:#010101;"/><path d="M1877.32,3058.67l-20.52,34.819l14,8.25l20.519,-34.819l-13.999,-8.25Z" style="fill:#010101;"/><path d="M1795.18,3198.53l-20.52,34.819l13.999,8.25l20.52,-34.819l-13.999,-8.25Z" style="fill:#010101;"/><path d="M1753.87,3267.49l-20.463,34.851l14.012,8.228l20.463,-34.851l-14.012,-8.228Z" style="fill:#010101;"/><path d="M1959.53,2918.98l-20.447,34.864l14.018,8.22l20.446,-34.863l-14.017,-8.221Z" style="fill:#010101;"/><path d="M1918.52,2988.83l-20.447,34.864l14.017,8.221l20.447,-34.864l-14.017,-8.221Z" style="fill:#010101;"/><path d="M2000.39,2848.72l-20.447,34.863l14.017,8.221l20.447,-34.863l-14.017,-8.221Z" style="fill:#010101;"/><path d="M1836.61,3127.8l-20.476,34.847l14.011,8.232l20.475,-34.847l-14.01,-8.232Z" style="fill:#010101;"/><path d="M1283.35,3275.26l-3.559,15.855l39.841,8.943l3.559,-15.856l-39.841,-8.942Z" style="fill:#010101;"/><path d="M1502.03,3327.16l-3.532,15.862l39.451,8.782l3.531,-15.861l-39.45,-8.783Z" style="fill:#010101;"/><path d="M1581.27,3345.03l-3.531,15.862l39.45,8.782l3.531,-15.862l-39.45,-8.782Z" style="fill:#010101;"/><path d="M1423.01,3309.83l-3.532,15.862l39.451,8.782l3.531,-15.861l-39.451,-8.783Z" style="fill:#010101;"/><path d="M1344.22,3291.84l-3.54,15.86l39.447,8.803l3.539,-15.86l-39.446,-8.803Z" style="fill:#010101;"/><path d="M1635.3,2650.01l-25.211,32.123l12.784,10.033l25.211,-32.124l-12.784,-10.032Z" style="fill:#010101;"/><path d="M1468.11,2848.9l-25.034,31.731l12.758,10.065l25.034,-31.731l-12.758,-10.065Z" style="fill:#010101;"/><path d="M1568.52,2721.41l-25.038,31.727l12.756,10.067l25.038,-31.727l-12.756,-10.067Z" style="fill:#010101;"/><path d="M1535.19,2777.61l-25.211,32.124l12.784,10.033l25.211,-32.124l-12.784,-10.033Z" style="fill:#010101;"/><path d="M1668.99,2594.46l-25.034,31.731l12.758,10.066l25.034,-31.731l-12.758,-10.066Z" style="fill:#010101;"/><path d="M1417.59,2912.35l-25.038,31.727l12.756,10.067l25.038,-31.727l-12.756,-10.067Z" style="fill:#010101;"/><path d="M1267.26,3103.02l-25.038,31.727l12.756,10.067l25.038,-31.727l-12.756,-10.067Z" style="fill:#010101;"/><path d="M1216.68,3166.89l-25.034,31.731l12.758,10.065l25.034,-31.731l-12.758,-10.065Z" style="fill:#010101;"/><path d="M1367.61,2975.94l-25.034,31.731l12.757,10.065l25.034,-31.731l-12.757,-10.065Z" style="fill:#010101;"/><path d="M1317.22,3039.85l-25.034,31.731l12.758,10.065l25.034,-31.731l-12.758,-10.065Z" style="fill:#010101;"/><path d="M2059.53,3562.76l-7.649,14.337l35.66,19.024l7.648,-14.337l-35.659,-19.024Z" style="fill:#010101;"/><path d="M1916.07,3486.14l-7.641,14.341l35.667,19.004l7.641,-14.341l-35.668,-19.004Z" style="fill:#010101;"/><path d="M1844.74,3448.1l-7.641,14.34l35.668,19.004l7.64,-14.34l-35.667,-19.004Z" style="fill:#010101;"/><path d="M2131.05,3600.48l-7.641,14.341l35.668,19.004l7.641,-14.341l-35.668,-19.004Z" style="fill:#010101;"/><path d="M1988.21,3524.21l-7.649,14.337l35.659,19.025l7.649,-14.338l-35.659,-19.024Z" style="fill:#010101;"/><path d="M1773.8,3410.22l-7.648,14.337l35.659,19.024l7.649,-14.337l-35.66,-19.024Z" style="fill:#010101;"/><path d="M2826.69,3478.92l-16.16,1.706l4.244,40.194l16.16,-1.706l-4.244,-40.194Z" style="fill:#010101;"/><path d="M2570.84,3496.03l-35.659,19.024l7.649,14.337l35.659,-19.024l-7.649,-14.337Z" style="fill:#010101;"/><path d="M2835.44,3559.76l-16.161,1.706l4.244,40.195l16.16,-1.707l-4.243,-40.194Z" style="fill:#010101;"/><path d="M2713.88,3419.89l-35.643,19.056l7.662,14.331l35.643,-19.057l-7.662,-14.331Z" style="fill:#010101;"/><path d="M2844.06,3639.23l-16.159,1.716l4.268,40.191l16.159,-1.716l-4.268,-40.191Z" style="fill:#010101;"/><path d="M2641.88,3458.36l-35.668,19.004l7.641,14.341l35.668,-19.004l-7.641,-14.341Z" style="fill:#010101;"/><path d="M2426.92,3572.67l-35.668,19.004l7.641,14.341l35.668,-19.004l-7.641,-14.341Z" style="fill:#010101;"/><path d="M2356.13,3610.82l-35.668,19.004l7.641,14.341l35.667,-19.004l-7.64,-14.341Z" style="fill:#010101;"/><path d="M2499.67,3534.37l-35.66,19.024l7.649,14.337l35.659,-19.024l-7.648,-14.337Z" style="fill:#010101;"/><path d="M1681.19,3458.81l-4.539,40.162l16.147,1.825l4.539,-40.162l-16.147,-1.825Z" style="fill:#010101;"/><path d="M1663.53,3619.91l-4.539,40.162l16.148,1.825l4.538,-40.162l-16.147,-1.825Z" style="fill:#010101;"/><path d="M1672.56,3539.24l-4.539,40.163l16.148,1.824l4.538,-40.162l-16.147,-1.825Z" style="fill:#010101;"/><path d="M1654.08,3700.53l-4.539,40.162l16.148,1.825l4.539,-40.162l-16.148,-1.825Z" style="fill:#010101;"/><path d="M2172.14,3683.66l-39.56,8.285l3.331,15.906l39.56,-8.286l-3.331,-15.905Z" style="fill:#010101;"/><path d="M2013.38,3717l-39.56,8.286l3.331,15.905l39.56,-8.285l-3.331,-15.906Z" style="fill:#010101;"/><path d="M1775.54,3766.99l-39.56,8.285l3.331,15.905l39.56,-8.285l-3.331,-15.905Z" style="fill:#010101;"/><path d="M2092.98,3700.33l-39.56,8.285l3.331,15.905l39.56,-8.285l-3.331,-15.905Z" style="fill:#010101;"/><path d="M1934.22,3733.67l-39.56,8.286l3.331,15.905l39.56,-8.285l-3.331,-15.906Z" style="fill:#010101;"/><path d="M1855.06,3750.34l-39.56,8.286l3.332,15.905l39.56,-8.285l-3.332,-15.906Z" style="fill:#010101;"/><path d="M2571.55,3730.73l-3.229,15.926l39.612,8.031l3.229,-15.927l-39.612,-8.03Z" style="fill:#010101;"/><path d="M2491.68,3714.73l-3.222,15.927l39.612,8.014l3.222,-15.926l-39.612,-8.015Z" style="fill:#010101;"/><path d="M2412.51,3698.5l-3.22,15.928l39.616,8.011l3.221,-15.928l-39.617,-8.011Z" style="fill:#010101;"/><path d="M2333.06,3682.55l-3.229,15.926l39.612,8.031l3.229,-15.926l-39.613,-8.031Z" style="fill:#010101;"/><path d="M2650.61,3747.02l-3.222,15.927l39.612,8.014l3.223,-15.926l-39.613,-8.015Z" style="fill:#010101;"/><path d="M2730.08,3763.05l-3.223,15.926l39.613,8.015l3.222,-15.927l-39.612,-8.014Z" style="fill:#010101;"/><path d="M1832.2,1660.85l-27.823,29.318l11.788,11.187l27.822,-29.318l-11.787,-11.187Z" style="fill:#010101;"/><path d="M1775.75,1719.87l-27.831,29.306l11.783,11.19l27.831,-29.306l-11.783,-11.19Z" style="fill:#010101;"/><path d="M1887.26,1602.21l-27.831,29.306l11.783,11.19l27.831,-29.306l-11.783,-11.19Z" style="fill:#010101;"/><path d="M2675.6,1656.35l-12.126,10.82l26.91,30.159l12.126,-10.82l-26.91,-30.159Z" style="fill:#010101;"/><path d="M2621.45,1596.35l-12.119,10.824l26.921,30.143l12.12,-10.824l-26.922,-30.143Z" style="fill:#010101;"/><path d="M2728.93,1717.39l-12.12,10.824l26.922,30.143l12.119,-10.824l-26.921,-30.143Z" style="fill:#010101;"/><rect x="2014.58" y="1557.08" width="40.417" height="16.25" style="fill:#010101;"/><rect x="2338.75" y="1557.08" width="40.417" height="16.25" style="fill:#010101;"/><rect x="2176.67" y="1557.08" width="40.417" height="16.25" style="fill:#010101;"/><rect x="2257.92" y="1557.08" width="40.417" height="16.25" style="fill:#010101;"/><rect x="2095.83" y="1557.08" width="40.417" height="16.25" style="fill:#010101;"/><rect x="2420" y="1557.08" width="40.417" height="16.25" style="fill:#010101;"/><path d="M2761.54,1468.67l-36.346,17.679l7.108,14.613l36.346,-17.678l-7.108,-14.614Z" style="fill:#010101;"/><path d="M2980.01,1362.83l-36.347,17.678l7.108,14.614l36.346,-17.678l-7.107,-14.614Z" style="fill:#010101;"/><path d="M3125.87,1292.02l-36.347,17.678l7.108,14.614l36.346,-17.679l-7.107,-14.613Z" style="fill:#010101;"/><path d="M3198.61,1256.22l-36.347,17.678l7.108,14.614l36.346,-17.678l-7.107,-14.614Z" style="fill:#010101;"/><path d="M2688.63,1504.57l-36.347,17.678l7.108,14.613l36.347,-17.678l-7.108,-14.614Z" style="fill:#010101;"/><path d="M2906.94,1398.32l-36.347,17.678l7.108,14.613l36.347,-17.678l-7.108,-14.613Z" style="fill:#010101;"/><path d="M3052.93,1327.42l-36.347,17.679l7.108,14.613l36.347,-17.678l-7.108,-14.614Z" style="fill:#010101;"/><path d="M3344.54,1185.31l-36.342,17.686l7.111,14.612l36.342,-17.686l-7.111,-14.612Z" style="fill:#010101;"/><path d="M3271.55,1220.81l-36.346,17.679l7.108,14.613l36.346,-17.678l-7.108,-14.614Z" style="fill:#010101;"/><path d="M2834.01,1433.74l-36.346,17.678l7.107,14.613l36.347,-17.678l-7.108,-14.613Z" style="fill:#010101;"/><path d="M3344.17,1462.15l-11.943,38.61l15.524,4.802l11.943,-38.61l-15.524,-4.802Z" style="fill:#010101;"/><path d="M3320.82,1539.77l-11.898,38.627l15.53,4.784l11.898,-38.627l-15.53,-4.784Z" style="fill:#010101;"/><path d="M3441.08,1218.53l-12.18,38.976l15.51,4.847l12.181,-38.975l-15.511,-4.848Z" style="fill:#010101;"/><path d="M3368.26,1385.12l-11.903,38.623l15.528,4.785l11.903,-38.622l-15.528,-4.786Z" style="fill:#010101;"/><path d="M3272.55,1695.09l-11.943,38.61l15.524,4.802l11.943,-38.611l-15.524,-4.801Z" style="fill:#010101;"/><path d="M3392.17,1307.35l-11.943,38.61l15.524,4.802l11.943,-38.61l-15.524,-4.802Z" style="fill:#010101;"/><path d="M3296.46,1616.79l-11.943,38.61l15.523,4.802l11.944,-38.61l-15.524,-4.802Z" style="fill:#010101;"/><path d="M1116.99,1304.38l-15.61,4.517l11.236,38.824l15.61,-4.517l-11.236,-38.824Z" style="fill:#010101;"/><path d="M1164.85,1456.04l-15.6,4.55l11.316,38.8l15.6,-4.55l-11.316,-38.8Z" style="fill:#010101;"/><path d="M1184.46,1538.07l-15.611,4.51l11.215,38.828l15.612,-4.509l-11.216,-38.829Z" style="fill:#010101;"/><path d="M1229.5,1694l-15.609,4.517l11.236,38.824l15.609,-4.517l-11.236,-38.824Z" style="fill:#010101;"/><path d="M1210.28,1611.43l-15.6,4.55l11.316,38.8l15.6,-4.55l-11.316,-38.8Z" style="fill:#010101;"/><path d="M1139.5,1382.73l-15.613,4.506l11.208,38.833l15.613,-4.506l-11.208,-38.833Z" style="fill:#010101;"/><path d="M1094.45,1226.41l-15.611,4.509l11.215,38.828l15.612,-4.509l-11.216,-38.828Z" style="fill:#010101;"/><path d="M1465.5,1323.12l-7.22,14.558l36.21,17.957l7.219,-14.558l-36.209,-17.957Z" style="fill:#010101;"/><path d="M1538.12,1359.18l-7.219,14.559l36.209,17.957l7.22,-14.559l-36.21,-17.957Z" style="fill:#010101;"/><path d="M1320.34,1251.44l-7.23,14.554l36.197,17.981l7.23,-14.553l-36.197,-17.982Z" style="fill:#010101;"/><path d="M1175.53,1179.35l-7.223,14.557l36.205,17.965l7.223,-14.556l-36.205,-17.966Z" style="fill:#010101;"/><path d="M1393.24,1287.3l-7.23,14.553l36.197,17.982l7.23,-14.554l-36.197,-17.981Z" style="fill:#010101;"/><path d="M1828.58,1503.57l-7.229,14.554l36.197,17.981l7.229,-14.554l-36.197,-17.981Z" style="fill:#010101;"/><path d="M1683.43,1431.94l-7.23,14.553l36.197,17.982l7.23,-14.554l-36.197,-17.981Z" style="fill:#010101;"/><path d="M1610.29,1395.39l-7.225,14.555l36.202,17.969l7.224,-14.555l-36.201,-17.969Z" style="fill:#010101;"/><path d="M1247.65,1215.06l-7.23,14.554l36.198,17.981l7.229,-14.553l-36.197,-17.982Z" style="fill:#010101;"/><path d="M1755.71,1467.87l-7.223,14.557l36.205,17.965l7.223,-14.557l-36.205,-17.965Z" style="fill:#010101;"/><path d="M1906.79,1446.02l-15.564,4.672l11.62,38.711l15.564,-4.672l-11.62,-38.711Z" style="fill:#010101;"/><path d="M1727.55,824.397l-15.556,4.699l11.809,39.09l15.556,-4.699l-11.809,-39.09Z" style="fill:#010101;"/><path d="M1836.8,1213.55l-15.562,4.683l11.649,38.703l15.561,-4.683l-11.649,-38.703Z" style="fill:#010101;"/><path d="M1813.47,1135.63l-15.561,4.683l11.648,38.703l15.561,-4.683l-11.648,-38.703Z" style="fill:#010101;"/><path d="M1767.2,980.179l-15.564,4.672l11.619,38.711l15.565,-4.672l-11.62,-38.711Z" style="fill:#010101;"/><path d="M1743.47,902.696l-15.566,4.666l11.608,38.716l15.566,-4.667l-11.608,-38.716Z" style="fill:#010101;"/><path d="M1790.13,1058.14l-15.561,4.683l11.648,38.703l15.561,-4.683l-11.648,-38.703Z" style="fill:#010101;"/><path d="M1883.48,1368.56l-15.561,4.683l11.648,38.703l15.561,-4.683l-11.648,-38.703Z" style="fill:#010101;"/><path d="M1860.15,1291.06l-15.561,4.683l11.648,38.703l15.561,-4.683l-11.648,-38.703Z" style="fill:#010101;"/><path d="M2630.66,1368.24l-11.054,38.877l15.631,4.444l11.054,-38.877l-15.631,-4.444Z" style="fill:#010101;"/><path d="M2674.47,1211.97l-11.009,38.889l15.635,4.427l11.01,-38.889l-15.636,-4.427Z" style="fill:#010101;"/><path d="M2696.62,1134.14l-11.054,38.876l15.631,4.445l11.054,-38.877l-15.631,-4.444Z" style="fill:#010101;"/><path d="M2763.16,900.1l-11.054,38.877l15.631,4.445l11.054,-38.877l-15.631,-4.445Z" style="fill:#010101;"/><path d="M2638.59,1289.81l-10.941,38.909l15.644,4.399l10.94,-38.909l-15.643,-4.399Z" style="fill:#010101;"/><path d="M2608.62,1446.12l-11.054,38.877l15.631,4.444l11.054,-38.877l-15.631,-4.444Z" style="fill:#010101;"/><path d="M2719.34,1056.19l-11.054,38.876l15.63,4.445l11.054,-38.877l-15.63,-4.444Z" style="fill:#010101;"/><path d="M2740.76,978.179l-11.054,38.877l15.631,4.444l11.054,-38.877l-15.631,-4.444Z" style="fill:#010101;"/><rect x="2220.83" y="771.667" width="40.417" height="16.25" style="fill:#010101;"/><rect x="2058.75" y="771.667" width="40.417" height="16.25" style="fill:#010101;"/><rect x="2545" y="771.667" width="40.417" height="16.25" style="fill:#010101;"/><rect x="2382.92" y="771.667" width="40.417" height="16.25" style="fill:#010101;"/><rect x="2464.17" y="771.667" width="40.417" height="16.25" style="fill:#010101;"/><rect x="2302.08" y="771.667" width="40.417" height="16.25" style="fill:#010101;"/><rect x="1896.67" y="771.667" width="40.417" height="16.25" style="fill:#010101;"/><rect x="1815.83" y="771.667" width="40.417" height="16.25" style="fill:#010101;"/><rect x="2626.25" y="771.667" width="40.417" height="16.25" style="fill:#010101;"/><rect x="2707.08" y="771.667" width="40.417" height="16.25" style="fill:#010101;"/><rect x="2140" y="771.667" width="40.417" height="16.25" style="fill:#010101;"/><rect x="1977.92" y="771.667" width="40.417" height="16.25" style="fill:#010101;"/><path d="M1342.09,973.138l-35.106,20.026l8.052,14.115l35.106,-20.026l-8.052,-14.115Z" style="fill:#010101;"/><path d="M1271.66,1013.11l-35.106,20.027l8.052,14.115l35.106,-20.027l-8.052,-14.115Z" style="fill:#010101;"/><path d="M1201.29,1053.59l-35.106,20.026l8.052,14.115l35.106,-20.027l-8.052,-14.114Z" style="fill:#010101;"/><path d="M1623.75,812.712l-35.106,20.026l8.052,14.115l35.106,-20.027l-8.052,-14.114Z" style="fill:#010101;"/><path d="M1412.52,933.159l-35.106,20.026l8.052,14.115l35.106,-20.026l-8.052,-14.115Z" style="fill:#010101;"/><path d="M1553.32,852.703l-35.106,20.027l8.052,14.114l35.106,-20.026l-8.052,-14.115Z" style="fill:#010101;"/><path d="M1482.94,893.178l-35.106,20.027l8.052,14.114l35.106,-20.026l-8.052,-14.115Z" style="fill:#010101;"/><path d="M3308.36,1045.28l-7.689,14.317l35.607,19.125l7.689,-14.316l-35.607,-19.126Z" style="fill:#010101;"/><path d="M3022.5,891.944l-7.689,14.317l35.607,19.125l7.689,-14.317l-35.607,-19.125Z" style="fill:#010101;"/><path d="M3094.26,930.237l-7.69,14.316l35.607,19.125l7.69,-14.316l-35.607,-19.125Z" style="fill:#010101;"/><path d="M2880.09,815.235l-7.689,14.317l35.607,19.125l7.689,-14.317l-35.607,-19.125Z" style="fill:#010101;"/><path d="M3236.94,1007.15l-7.69,14.316l35.607,19.125l7.69,-14.316l-35.607,-19.125Z" style="fill:#010101;"/><path d="M3152.57,968.054l-7.655,14.335l35.651,19.04l7.655,-14.334l-35.651,-19.041Z" style="fill:#010101;"/><path d="M2951.27,853.68l-7.689,14.317l35.607,19.125l7.689,-14.316l-35.607,-19.126Z" style="fill:#010101;"/></g><path d="M3613.33,1835.83c-5.416,-1.666 -10.833,-2.5 -16.25,-3.333l0,-3.75c-1.666,-55.833 -3.75,-113.333 -3.75,-170.833c0,-177.917 -35.833,-343.75 -101.25,-492.5c4.167,-6.667 6.667,-14.584 6.667,-22.917c0,-22.917 -17.083,-42.083 -39.583,-45.417c-205.834,-396.25 -633.334,-657.5 -1165.42,-674.583l0,-1.25l-52.917,0l-30.416,0.417l-0,0.833c-531.667,17.083 -958.75,279.167 -1163.33,676.25c-19.166,6.25 -32.083,23.75 -32.083,43.75c0,5.417 1.25,11.25 3.333,16.25c-66.666,149.167 -102.916,315.417 -102.916,494.583c-0,60 -2.5,120 -5,178.334c-6.667,0.833 -13.334,2.5 -20,4.166c-164.167,45 -227.917,316.25 -145,617.084c61.25,222.5 185.416,393.75 313.75,445.833c12.5,83.333 24.583,169.167 34.166,254.167c3.75,29.583 9.584,58.75 18.334,87.083c-9.584,22.083 -0.417,47.5 20.833,58.333c91.667,217.5 315,386.667 472.083,505l2.084,1.667c4.166,21.667 22.916,37.5 45,37.5c1.25,0 2.5,-0.833 3.75,-0.833c29.166,22.5 54.583,42.5 73.75,60.416c138.333,127.5 258.333,172.917 481.25,180l-0,1.25l52.5,0l30.416,-0.416l0,-0.834c223.334,-7.083 342.917,-52.916 481.25,-180c19.167,-17.5 44.584,-37.916 73.75,-60.416c1.25,-0 2.084,0.833 3.334,0.833c21.666,-0 40.416,-15.833 44.583,-37.083c0.833,-0.834 1.667,-1.25 2.5,-1.667c155.833,-117.917 377.5,-285.417 470.417,-501.25c24.166,-5.417 39.583,-29.167 34.166,-53.333c-1.666,-7.084 -4.583,-13.334 -9.166,-18.75c7.5,-25.417 12.5,-51.25 15.833,-77.084c9.583,-85 21.25,-170.833 34.167,-254.166c128.333,-52.084 252.5,-223.334 313.75,-445.834c82.916,-301.666 19.166,-572.5 -144.584,-617.5Zm-2808.75,600.834c-71.25,-259.167 -24.166,-507.917 102.5,-542.5l1.25,-0c-5,130 -5.416,252.083 24.167,359.166c4.167,15.417 8.75,33.334 13.75,52.917c-6.25,7.917 -9.583,17.083 -9.583,27.083c-0,17.5 10,33.334 25.833,41.25c26.25,116.25 57.917,275.834 85.833,450c-97.916,-60.833 -195,-209.166 -243.75,-387.916Zm2545.83,709.583c-1.667,16.25 -4.584,32.083 -8.334,47.917l-6.25,-8.334l-12.916,9.584l13.75,18.75c-0.417,1.666 -0.834,3.333 -1.25,5c-14.167,7.916 -23.334,23.333 -23.334,39.583c0,0.833 0.417,1.25 0.417,1.667l-33.333,7.083l3.333,15.833l32.5,-7.083c-85.417,200.833 -297.5,362.083 -448.333,476.25c-3.75,-1.25 -7.5,-2.083 -11.25,-2.083l-3.334,-29.584l-16.25,1.667l3.334,30c-20,5.417 -33.75,23.333 -34.167,43.75c-0,0.833 0.417,1.667 0.417,2.5c-27.917,21.667 -52.5,41.25 -72.084,59.167c-133.333,122.5 -243.333,160.833 -471.25,165l-21.666,-0c-227.917,-3.75 -337.917,-42.084 -471.25,-164.584c-19.584,-17.5 -43.75,-37.083 -70.834,-58.333l-2.5,-16.667l-0.416,0c-5.417,-23.75 -28.75,-38.333 -52.5,-32.916c-2.084,0.416 -4.167,1.25 -5.834,1.666c-148.75,-112.5 -357.083,-270.833 -444.583,-467.916c2.083,-2.5 3.75,-5.417 5.417,-8.334l23.75,5.417l3.75,-15.833l-24.167,-5.417c-0,-0.833 0.417,-1.25 0.417,-2.083c-0.417,-20.417 -14.167,-38.334 -33.75,-43.75c-6.25,-22.084 -11.25,-45 -13.75,-67.917c-30.834,-264.583 -75,-527.083 -132.5,-787.083c5.416,-7.5 8.333,-16.25 8.75,-25.834c-0,-16.666 -9.584,-32.083 -24.584,-40.416c-5,-20.834 -10,-40 -14.583,-55.834c-31.25,-113.333 -25.417,-251.666 -19.583,-397.5c2.5,-60.416 5,-123.333 5,-186.25c-0.834,-158.75 31.25,-315.833 94.166,-461.666l12.917,-3.75l-1.25,-4.167c9.583,-4.583 17.083,-12.5 21.667,-22.083l27.916,13.75l7.084,-14.584l-31.25,-15.416c-0,-1.25 0.833,-2.084 0.833,-3.334c-0,-5.416 -1.25,-10.416 -2.917,-15.416l33.75,-19.167l-7.916,-14.167l-16.667,9.584c203.75,-371.667 616.667,-612.917 1127.5,-620.834l21.25,0c503.75,7.5 912.5,241.667 1120.42,603.75l-4.167,-2.083l-7.5,14.167l25.833,13.75c3.334,6.25 6.667,12.083 9.584,18.333c-1.25,3.75 -2.084,7.917 -2.5,11.667c0.416,4.166 1.25,8.333 2.5,12.5l-26.667,12.916l7.083,14.584l26.667,-12.917c4.167,5.833 9.583,10.833 15.833,14.167l-2.5,7.916l9.584,2.917c63.333,146.25 95.416,304.167 94.583,463.75c-0,58.333 2.083,117.083 3.75,172.917c5,149.166 9.583,290 -22.5,406.666c-4.167,15 -8.75,32.917 -13.333,52.084c-24.167,6.25 -38.75,31.25 -32.5,55.833c2.5,8.75 7.083,16.667 14.166,22.5c-57.5,257.5 -101.25,517.083 -131.666,778.75Zm349.166,-709.583c-48.75,178.75 -145.833,327.083 -243.75,387.916c28.75,-177.916 60.834,-340 87.5,-457.083c14.584,-12.917 19.584,-33.333 12.084,-51.667c5.833,-23.75 11.25,-45 16.25,-62.916c29.583,-107.084 30.416,-229.167 26.666,-358.334c125.834,36.667 172.084,284.167 101.25,542.084Z" style="fill:#010101;fill-rule:nonzero;stroke:#010101;stroke-width:50px;"/></svg>