<?xml version="1.0" encoding="UTF-8" standalone="no"?><!DOCTYPE svg PUBLIC "-//W3C//DTD SVG 1.1//EN" "http://www.w3.org/Graphics/SVG/1.1/DTD/svg11.dtd"><svg width="100%" height="100%" viewBox="0 0 4500 4500" version="1.1" xmlns="http://www.w3.org/2000/svg" xmlns:xlink="http://www.w3.org/1999/xlink" xml:space="preserve" xmlns:serif="http://www.serif.com/" style="fill-rule:evenodd;clip-rule:evenodd;stroke-miterlimit:10;"><rect x="197.5" y="197.5" width="4103.33" height="4103.33" style="fill:#fff;stroke:#1d1d1b;stroke-width:125px;"/><g><path d="M1431.67,672.5c225.833,0 431.25,43.333 580,113.75c154.583,72.917 250,175.417 250,290.833l-0,304.167c152.5,-76.667 325,-120 507.083,-120c312.083,0 594.583,126.667 799.167,330.833c204.583,204.584 330.833,487.084 330.833,799.167c0,312.083 -126.667,594.583 -330.833,799.167c-204.584,204.583 -487.084,330.833 -799.167,330.833c-95.833,0 -186.667,-11.25 -274.167,-32.917c-80.416,-20 -157.916,-49.166 -232.916,-87.083l-0,30c-0,112.083 -95.417,212.917 -249.167,285c-148.333,69.167 -352.5,112.5 -577.917,112.917l-2.5,-0c-225.833,-0 -431.25,-43.334 -580,-113.75c-154.583,-72.917 -250,-175.417 -250,-290.834l-0.416,-2341.25l-0,-6.25c-0,-115.416 95.416,-217.916 250,-290.833c148.75,-70.417 353.75,-113.75 580,-113.75Zm1115,2254.17l14.583,27.5l-27.5,14.583l-14.583,-27.5l27.5,-14.583Zm660.416,-352.084l14.584,27.5l-27.5,14.584l-14.584,-27.5l27.5,-14.584Zm-110,58.75l14.584,27.5l-27.5,14.584l-14.584,-27.5l27.5,-14.584Zm-110,58.334l14.584,27.5l-27.5,14.583l-14.584,-27.5l27.5,-14.583Zm-110,58.75l14.584,27.5l-27.5,14.583l-14.584,-27.5l27.5,-14.583Zm-110.416,58.75l14.583,27.5l-27.5,14.583l-14.583,-27.5l27.5,-14.583Zm-110,58.75l14.583,27.5l-27.5,14.583l-14.583,-27.5l27.5,-14.583Zm-78.75,-1043.33l-14.584,27.5l-27.5,-14.583l14.584,-27.5l27.5,14.583Zm660.416,352.084l-14.583,27.5l-27.5,-14.584l14.583,-27.5l27.5,14.584Zm-110,-58.75l-14.583,27.5l-27.5,-14.584l14.583,-27.5l27.5,14.584Zm-110,-58.334l-14.583,27.5l-27.5,-14.583l14.583,-27.5l27.5,14.583Zm-110.416,-58.75l-14.584,27.5l-27.5,-14.583l14.584,-27.5l27.5,14.583Zm-110,-58.75l-14.584,27.5l-27.5,-14.583l14.584,-27.5l27.5,14.583Zm-110,-58.75l-14.584,27.5l-27.5,-14.583l14.584,-27.5l27.5,14.583Zm-305,-21.25l922.083,492.5c12.083,6.667 16.667,21.667 10.417,33.75c-2.5,4.584 -5.834,7.917 -10,10l-924.167,499.584c-12.083,6.666 -27.083,2.083 -33.75,-10c-2.083,-3.75 -2.917,-7.917 -2.917,-11.667l0,-993.333c0,-13.75 11.25,-25 25,-25c4.584,0.416 9.584,1.666 13.334,4.166Zm857.916,515l-846.666,-452.5l-0,909.584l846.666,-457.084Zm-1016.67,-976.666l-12.5,-0l-0,-183.75c-42.917,57.916 -112.084,109.166 -200.417,150.833c-148.75,70 -354.167,113.75 -580,113.75c-225.833,0 -431.25,-43.333 -580,-113.75c-88.333,-41.667 -157.5,-92.917 -200.417,-150.833l0.417,2207.5c0,94.166 84.583,181.25 221.667,245.833c142.5,67.083 340,108.75 558.75,108.75l2.5,0c217.916,-0.417 414.583,-42.083 556.666,-108.333c136.25,-63.75 220.417,-148.75 220.417,-240l0,-26.25c-164.167,33.333 -273.75,45.833 -382.917,58.333c-118.333,13.333 -237.083,26.667 -426.666,67.5c-13.334,2.917 -26.667,-5.833 -29.584,-19.167c-2.083,-10.416 2.084,-20.416 10.417,-25.833l501.25,-390.417c-78.75,-98.75 -138.333,-206.25 -178.75,-318.333c-45,-124.583 -67.083,-254.583 -67.083,-385.417c-0,-312.083 126.666,-594.583 330.833,-799.166c76.25,-75 162.083,-139.584 255.417,-191.25Zm-471.667,1358.75c41.667,114.583 103.333,223.75 185.833,322.916c0.417,0.417 0.417,0.834 0.834,1.25c8.333,10.834 6.666,26.25 -4.167,35l-439.167,342.084c134.167,-25.417 230.834,-36.25 327.5,-47.5c118.334,-13.334 237.084,-26.667 426.667,-67.5c5.417,-1.25 11.25,-0.417 16.667,2.5c76.666,40.416 156.666,71.25 240,92.083c83.333,20.833 170,31.667 262.083,31.667c298.333,-0 568.333,-120.834 763.75,-316.25c195.417,-195.417 316.25,-465.417 316.25,-763.75c0,-298.334 -120.833,-568.334 -316.25,-763.75c-195.417,-195.417 -465.833,-317.084 -764.167,-317.084c-298.333,0 -568.333,120.834 -763.75,316.25c-195.416,195.417 -316.25,465.417 -316.25,763.75c0,125.417 21.25,250 64.167,368.334Zm237.5,-1928.33c-142.5,-67.083 -340,-108.75 -558.75,-108.75c-218.75,0 -416.25,41.667 -558.75,108.75c-137.083,64.584 -221.667,151.667 -221.667,245.834c0,94.166 84.584,181.25 221.667,245.833c142.5,67.083 340,108.75 558.75,108.75c218.75,0 416.25,-41.667 558.75,-108.75c137.083,-64.583 221.667,-151.667 221.667,-245.833c-0,-94.167 -84.584,-181.25 -221.667,-245.834Zm-558.75,131.667c55.833,0 107.083,10.833 144.583,28.75c43.334,20.417 70,50.417 70,85.833c0,35 -26.666,65.417 -70,85.834c-37.5,17.5 -88.75,28.75 -144.583,28.75c-55.833,-0 -107.083,-10.834 -144.583,-28.75c-43.334,-20.417 -70,-50.417 -70,-85.834c-0,-35 26.666,-65.416 70,-85.833c37.5,-17.917 88.75,-28.75 144.583,-28.75Zm123.333,73.75c-31.25,-14.583 -74.583,-23.75 -123.333,-23.75c-48.75,0 -92.5,9.167 -123.333,23.75c-25.417,12.083 -41.25,26.667 -41.25,40.833c-0,14.167 15.833,28.75 41.25,40.834c31.25,14.583 74.583,23.75 123.333,23.75c48.75,-0 92.5,-9.167 123.333,-23.75c25.417,-12.084 41.25,-26.667 41.25,-40.834c0,-14.166 -15.833,-28.75 -41.25,-40.833Zm-123.333,-202.917c55.833,0 107.083,10.834 144.583,28.75c43.334,20.417 70,50.417 70,85.834c0,35 -26.666,65.416 -70,85.833c-37.5,17.5 -88.75,28.75 -144.583,28.75c-55.833,0 -107.083,-10.833 -144.583,-28.75c-43.334,-20.417 -70,-50.417 -70,-85.833c-0,-35 26.666,-65.417 70,-85.834c37.5,-17.916 88.75,-28.75 144.583,-28.75Zm123.333,73.75c-31.25,-14.583 -74.583,-23.75 -123.333,-23.75c-48.75,0 -92.5,9.167 -123.333,23.75c-25.417,12.084 -41.25,26.667 -41.25,40.834c-0,14.166 15.833,28.75 41.25,40.833c31.25,14.583 74.583,23.75 123.333,23.75c48.75,0 92.5,-9.167 123.333,-23.75c25.417,-12.083 41.25,-26.667 41.25,-40.833c0,-14.167 -15.833,-28.75 -41.25,-40.834Z" style="fill-rule:nonzero;stroke:#000;stroke-width:58.33px;"/></g><path d="M1645.83,947.917l0,129.166" style="fill:none;fill-rule:nonzero;stroke:#000;stroke-width:58.33px;"/><path d="M1216.67,947.917l-0,129.166" style="fill:none;fill-rule:nonzero;stroke:#000;stroke-width:58.33px;"/><path d="M760.833,1546.25l0,1807.92c0,72.083 115.417,117.5 115.417,117.5l0,-1850l-115.417,-75.417Z" style="fill-rule:nonzero;stroke:#000;stroke-width:58.33px;"/></svg>