<?xml version="1.0" encoding="UTF-8" standalone="no"?><!DOCTYPE svg PUBLIC "-//W3C//DTD SVG 1.1//EN" "http://www.w3.org/Graphics/SVG/1.1/DTD/svg11.dtd"><svg width="100%" height="100%" viewBox="0 0 4500 4500" version="1.1" xmlns="http://www.w3.org/2000/svg" xmlns:xlink="http://www.w3.org/1999/xlink" xml:space="preserve" xmlns:serif="http://www.serif.com/" style="fill-rule:evenodd;clip-rule:evenodd;stroke-miterlimit:10;"><rect x="197.5" y="197.5" width="4103.33" height="4103.33" style="fill:#fff;stroke:#1d1d1b;stroke-width:125px;"/><g><g><g><path d="M2150,1812.5c12.917,-5 19.167,-19.583 14.583,-32.083c-5,-12.917 -19.583,-19.167 -32.083,-14.584c-124.583,47.5 -208.333,169.167 -208.333,302.5l-0,283.334c-0,59.166 16.25,117.083 46.666,167.5c4.584,7.916 12.917,12.083 21.25,12.083c4.584,0 8.75,-1.25 12.917,-3.75c11.667,-7.083 15.417,-22.5 8.333,-34.167c-25.833,-42.5 -39.583,-91.666 -39.583,-141.666l0,-283.334c0,-112.916 70.833,-215.833 176.25,-255.833Z" style="fill-rule:nonzero;stroke:#000;stroke-width:16.67px;"/></g><g><path d="M2077.92,2627.5c50.833,31.667 109.583,48.333 170,48.333c65,0 127.5,-19.166 181.25,-55.416c11.25,-7.917 14.583,-23.334 6.666,-34.584c-7.916,-11.25 -23.333,-14.583 -34.583,-6.666c-87.5,59.166 -207.5,61.666 -297.083,5.833c-11.667,-7.083 -27.084,-3.75 -34.584,7.917c-7.083,12.083 -3.333,27.5 8.334,34.583Z" style="fill-rule:nonzero;stroke:#000;stroke-width:16.67px;"/></g><g><path d="M2547.08,2142.5c-13.75,0 -25,11.25 -25,25l0,221.667c0,45.416 -11.25,90.833 -32.916,130.416c-6.667,12.084 -2.084,27.5 10,33.75c3.75,2.084 7.916,2.917 12.083,2.917c8.75,0 17.5,-4.583 22.083,-12.917c25.417,-47.083 39.167,-100.416 39.167,-154.583l-0,-221.25c-0.417,-13.75 -11.667,-25 -25.417,-25Z" style="fill-rule:nonzero;stroke:#000;stroke-width:16.67px;"/></g><g><path d="M2247.92,1744.17c-13.75,-0 -25,11.25 -25,25c-0,13.75 11.25,25 25,25c151.25,-0 274.166,122.916 274.166,274.166c0,13.75 11.25,25 25,25c13.75,0 25,-11.25 25,-25c0,-178.75 -145.416,-324.166 -324.166,-324.166Z" style="fill-rule:nonzero;stroke:#000;stroke-width:16.67px;"/></g><g><path d="M2052.5,2376.67c13.75,-0 25,-11.25 25,-25l0,-283.334c0,-94.166 76.667,-170.833 170.833,-170.833c62.5,0 120,34.167 150,89.583c6.667,12.084 21.667,16.667 33.75,10c12.084,-6.666 16.667,-21.666 10,-33.75c-38.75,-71.25 -112.916,-115.416 -194.166,-115.416c-121.667,-0 -220.834,99.166 -220.834,220.833l0,283.333c0.417,13.334 11.25,24.584 25.417,24.584Z" style="fill-rule:nonzero;stroke:#000;stroke-width:16.67px;"/></g><g><path d="M2101.25,2483.33c-9.167,10.417 -7.917,26.25 2.5,35.417c40,34.583 91.25,53.75 144.167,53.75c85.416,0 164.166,-50.417 200.416,-127.917c5.834,-12.5 0.417,-27.5 -12.083,-33.333c-12.5,-5.833 -27.5,-0.417 -33.333,12.083c-27.917,60 -88.75,99.167 -155,99.167c-40.834,-0 -80.417,-14.583 -111.25,-41.25c-10.417,-9.167 -26.25,-8.333 -35.417,2.083Z" style="fill-rule:nonzero;stroke:#000;stroke-width:16.67px;"/></g><g><path d="M2468.75,2320.42l0,-252.084c0,-13.75 -11.25,-25 -25,-25c-13.75,0 -25,11.25 -25,25l0,252.084c0,13.75 11.25,25 25,25c13.75,-0 25,-11.25 25,-25Z" style="fill-rule:nonzero;stroke:#000;stroke-width:16.67px;"/></g><g><path d="M2155.83,2043.33c-13.75,0 -25,11.25 -25,25l0,283.334c0,64.583 52.5,117.5 117.5,117.5c64.584,-0 117.5,-52.5 117.5,-117.5l0,-283.334c0,-64.583 -52.5,-117.5 -117.5,-117.5c-13.75,0 -25,11.25 -25,25c0,13.75 11.25,25 25,25c37.084,0 67.5,30 67.5,67.5l0,283.334c0,37.083 -30,67.5 -67.5,67.5c-37.083,-0 -67.5,-30 -67.5,-67.5l0,-283.334c0,-13.75 -11.25,-25 -25,-25Z" style="fill-rule:nonzero;stroke:#000;stroke-width:16.67px;"/></g><g><path d="M1561.67,2014.58c12.916,4.167 27.083,-2.916 31.25,-16.25c86.666,-277.083 328.75,-469.166 613.75,-494.166l-18.334,18.333c-9.583,9.583 -9.583,25.833 0,35.417c9.584,9.583 25.417,9.583 35.417,-0l63.333,-63.75c10,-9.584 10.417,-25.834 0.417,-35.834l-63.75,-63.75c-9.583,-9.583 -25.417,-9.583 -35.417,0c-9.583,9.584 -9.583,25.417 0,35.417l23.334,23.333c-309.167,23.334 -572.917,230 -666.667,530c-4.167,12.917 3.333,27.084 16.667,31.25Z" style="fill-rule:nonzero;stroke:#000;stroke-width:16.67px;"/></g><g><path d="M2985.42,2375.42c-13.334,-3.334 -27.084,4.583 -30.417,17.916c-77.083,288.75 -327.5,496.25 -621.25,522.917l18.333,-18.333c9.584,-9.584 9.584,-25.417 0,-35.417c-9.583,-10 -25.416,-9.583 -35.416,0l-61.667,62.083c-5.833,4.584 -10,11.25 -10,19.584c0,7.916 3.75,14.583 9.167,19.166l62.5,62.5c9.583,9.584 25.416,9.584 35.416,0c9.584,-9.583 9.584,-25.416 0,-35.416l-23.75,-23.75c318.75,-24.584 591.667,-248.334 675,-560.834c3.334,-13.333 -4.583,-27.083 -17.916,-30.416Z" style="fill-rule:nonzero;stroke:#000;stroke-width:16.67px;"/></g><g><path d="M2430.42,1519.17c303.75,70.416 521.25,326.25 545.833,632.916l-18.75,-18.75c-9.583,-9.583 -25.417,-9.583 -35.417,0c-9.583,9.584 -9.583,25.834 0,35.417l64.167,63.75c9.583,9.583 25.417,9.583 35.417,0l63.75,-63.75c9.583,-9.583 9.583,-25.417 -0,-35.417c-9.584,-9.583 -25.417,-9.583 -35.417,0l-23.333,23.334c-22.917,-332.084 -256.667,-610 -585,-686.25c-13.334,-2.917 -26.667,5.416 -30,18.75c-2.917,13.333 5.416,27.083 18.75,30Z" style="fill-rule:nonzero;stroke:#000;stroke-width:16.67px;"/></g><g><path d="M1489.58,2291.67l23.75,-23.75c24.584,325.416 253.75,600.416 574.584,679.166c12.916,3.334 26.666,-4.583 30.416,-18.333c3.334,-13.333 -5,-27.083 -18.333,-30.417c-296.667,-72.916 -509.583,-325.416 -535.833,-625.416l18.333,18.333c9.583,9.583 25.417,9.583 35.417,0c9.583,-9.583 9.583,-25.417 -0,-35.417l-63.75,-63.333c-9.584,-10 -25.834,-10.417 -35.834,-0.417l-64.166,64.167c-9.584,9.583 -9.584,25.417 -0,35.417c9.583,10 25.416,9.583 35.416,-0Z" style="fill-rule:nonzero;stroke:#000;stroke-width:16.67px;"/></g></g><path d="M3300,3720l0,-2944.17c0,-180.416 -146.667,-326.666 -326.667,-326.666l-1400.83,-0c-180,-0 -326.667,146.666 -326.667,326.666l0,2944.17c0,180 146.667,326.667 326.667,326.667l1400.83,-0c180,-0 326.667,-146.667 326.667,-326.667Zm-128.75,-2692.5l0,2440.83l-1797.08,0l-0,-2440.83l1797.08,0Zm-1598.75,-449.583l1400.83,-0c109.167,-0 197.917,88.75 197.917,197.916l0,122.917l-1797.08,0l-0,-122.917c-0,-109.166 89.166,-197.916 198.333,-197.916Zm1400.83,3340.42l-1400.83,0c-109.167,0 -197.917,-88.75 -197.917,-197.916l0,-122.917l1797.08,0l-0,122.917c-0.417,109.166 -89.167,197.916 -198.334,197.916Z" style="fill-rule:nonzero;"/><circle cx="2271.25" cy="3757.92" r="94.583"/><path d="M2640.42,795l-738.334,0c-27.5,0 -50,-22.5 -50,-50l0,-16.25c0,-27.5 22.5,-50 50,-50l738.334,0c27.5,0 50,22.5 50,50l-0,16.25c-0,27.5 -22.5,50 -50,50Z" style="fill-rule:nonzero;"/></g></svg>