<?xml version="1.0" encoding="UTF-8" standalone="no"?><!DOCTYPE svg PUBLIC "-//W3C//DTD SVG 1.1//EN" "http://www.w3.org/Graphics/SVG/1.1/DTD/svg11.dtd"><svg width="100%" height="100%" viewBox="0 0 4500 4500" version="1.1" xmlns="http://www.w3.org/2000/svg" xmlns:xlink="http://www.w3.org/1999/xlink" xml:space="preserve" xmlns:serif="http://www.serif.com/" style="fill-rule:evenodd;clip-rule:evenodd;stroke-miterlimit:10;"><rect x="197.5" y="197.5" width="4103.33" height="4103.33" style="fill:none;stroke:#1d1d1b;stroke-width:125px;"/><g><path d="M2982.08,2350.83l127.5,-127.5l-74.583,-74.583l-127.5,127.5c-9.583,9.583 -23.75,15.417 -37.5,15.417l-347.917,-0l-173.75,173.75l74.584,74.583l142.916,-142.917l304.167,0c41.667,0.417 82.5,-16.666 112.083,-46.25Z" style="fill-rule:nonzero;"/><path d="M2295.28,2518.32l-105.771,105.771l74.835,74.834l105.771,-105.77l-74.835,-74.835Z"/><path d="M2870,2608.75c98.75,0 191.667,-38.333 261.667,-108.333l708.333,-708.75c38.333,-38.334 59.167,-89.167 59.167,-142.917c-0,-91.667 -61.667,-168.333 -145.834,-193.333l86.25,-86.25c38.334,-38.334 59.167,-89.167 59.167,-142.917c0,-92.917 -63.333,-170.417 -148.333,-194.167c27.083,-35.416 42.916,-77.5 42.916,-122.916c0,-111.667 -90.833,-202.084 -202.083,-202.084c-45.417,0 -87.5,15.417 -122.917,42.917c-23.75,-85.417 -101.25,-148.333 -194.166,-148.333c-54.167,-0 -105,20.833 -142.917,59.166l-455.417,455.417c-9.166,-32.083 -25.416,-62.083 -50,-86.667c-37.5,-37.916 -87.916,-58.333 -143.333,-58.333c-54.167,-0 -105.417,20.833 -143.333,59.167l-392.084,392.083c-50.833,50.833 -84.583,113.75 -99.583,182.5l-145,-0l-141.25,-141.25c74.583,-90.833 119.583,-207.5 119.583,-334.167c0,-291.25 -237.083,-528.333 -528.333,-528.333c-291.25,-0 -528.333,237.083 -528.333,528.333c-0,291.25 237.083,528.334 528.333,528.334c126.667,-0 242.917,-45 334.167,-119.584l172.5,172.5l180.416,0l0,80c0,70.417 -27.5,136.667 -77.5,186.667l-1160,1159.58l761.25,761.25l516.25,-516.25c67.917,76.25 166.25,124.584 276.25,124.584c82.917,-0 159.167,-27.917 220.834,-74.167l444.166,443.75l1078.33,-0l-0,-105.417l-105.834,0l0,-739.583l-317.083,-0l0,739.583l-105.417,0l0,-422.5l-317.083,0l0,422.5l-189.583,0l-412.917,-412.916c46.25,-61.667 74.167,-137.917 74.167,-220.834c-0,-110 -48.334,-208.333 -124.584,-276.25l252.084,-252.083l217.083,0Zm-1459.58,-1295.83c27.083,-38.334 45.833,-82.5 54.166,-130.417l106.667,-0c-9.583,77.083 -40,147.5 -85.417,205.833l-75.416,-75.416Zm-220.834,-220.834l-74.583,74.584l144.167,144.166c-31.25,18.75 -67.5,30 -106.667,30c-116.667,0 -211.25,-94.583 -211.25,-211.25c0,-116.666 94.583,-211.25 211.25,-211.25c116.667,0 211.25,94.584 211.25,211.25c0,39.167 -11.25,75.417 -30,106.667l-144.167,-144.167Zm381.667,-15.416l-106.667,-0c-22.5,-132.5 -127.083,-237.084 -259.166,-259.167l-0,-106.667c190.416,23.75 341.666,175 365.833,365.834Zm-471.667,-366.25l0,106.666c-132.5,22.5 -237.083,127.084 -259.166,259.167l-107.084,-0c23.75,-190.417 175.417,-341.667 366.25,-365.833Zm-366.25,472.083l106.667,-0c22.5,132.5 127.083,237.083 259.167,259.167l-0,106.666c-190.417,-23.75 -342.084,-175 -365.834,-365.833Zm471.667,365.833l0,-106.666c47.917,-8.334 92.5,-27.084 130.417,-54.167l75.416,75.417c-58.333,45.416 -128.75,75.833 -205.833,85.416Zm2377.08,1588.75l105.834,0l-0,633.75l-105.834,0l0,-633.75Zm-422.5,316.667l105.834,-0l-0,317.083l-105.834,0l0,-317.083Zm537.5,-1901.67c53.334,0 96.667,43.334 96.667,96.667c0,25.833 -10,50 -28.333,68.333l-183.334,182.917l-136.666,-136.667l182.916,-182.916c18.334,-18.334 42.917,-28.334 68.75,-28.334Zm-431.666,242.5l-136.667,-136.666l242.083,-242.084l136.667,136.667l-242.083,242.083Zm-422.917,-422.916l-136.667,-136.667l242.084,-242.083l136.666,136.666l-226.25,226.667l-15.833,15.417Zm422.917,-272.917l136.666,136.667l-242.083,242.083l-136.667,-136.667l242.084,-242.083Zm527.916,127.5c0,25.833 -10,50 -28.333,68.333l-182.917,182.917l-136.666,-136.667l182.916,-182.916c18.334,-18.334 42.5,-28.334 68.334,-28.334c53.333,0 96.666,43.334 96.666,96.667Zm-202.083,-413.75c53.333,-0 96.667,43.333 96.667,96.667c-0,25.833 -10,50 -28.334,68.333l-183.333,183.333l-136.667,-136.666l183.334,-183.334c18.333,-18.333 42.5,-28.333 68.333,-28.333Zm-385.417,-77.083c18.334,-18.334 42.5,-28.334 68.334,-28.334c53.333,0 96.666,43.334 96.666,96.667c0,25.833 -10,50 -28.333,68.333l-182.917,182.917l-136.666,-136.667l182.916,-182.916Zm-1370.42,2217.5l-450,-450l136.666,-136.667l450,450c-56.666,32.917 -103.75,80 -136.666,136.667Zm-176.667,-27.5l-400.833,400.833l-0,158.333l-79.167,79.167l-268.75,-268.75l369.583,-369.583l158.334,-0l110,-110l110.833,110Zm-347.917,-347.917l162.917,162.917l-79.167,79.166l-158.333,0l-400.833,401.25l-83.75,-83.75l559.166,-559.583Zm52.917,1171.25l-110,-110l110,-110l0,-158.333l369.583,-369.584l60.834,60.834c-5,24.583 -7.917,50 -7.917,75.833c0,55.417 12.5,107.917 34.583,155l-457.083,456.25Zm1056.25,-611.667c0,145.834 -118.333,264.167 -264.167,264.167c-145.833,-0 -264.166,-118.333 -264.166,-264.167c-0,-145.833 118.333,-264.166 264.166,-264.166c145.834,-0 264.167,118.333 264.167,264.166Zm-109.167,-335.416c-47.083,-22.084 -99.583,-34.584 -155,-34.584c-25.833,0 -51.25,2.917 -75.833,7.917l-483.333,-483.333l239.583,-239.584c70,-70 108.333,-162.5 108.333,-261.666l0,-107.084c0,-70.416 27.5,-136.666 77.084,-186.666l392.083,-392.084c34.167,-34.166 99.583,-38.333 137.5,-0.833c17.5,17.5 27.5,41.25 27.5,66.25l0,42.917l-211.25,211.25l0,21.666c0,156.25 -60.833,302.917 -171.25,413.75l-24.583,24.584l74.583,74.583l24.583,-24.583c125,-125 196.25,-290 202.084,-465.834l159.166,-159.166l136.667,136.666l-121.25,121.25l74.583,74.584l226.667,-226.667l136.667,136.667l-227.084,227.083l74.584,74.583l121.25,-121.25l136.666,136.667l-121.25,121.25l74.584,74.583l226.666,-226.666l136.667,136.666l-450.833,451.25c-50,50 -116.25,77.5 -186.667,77.5l-260.417,0l-298.75,298.334Z" style="fill-rule:nonzero;"/><path d="M2155.83,2978.33c-87.5,0 -158.333,71.25 -158.333,158.334c0,87.083 71.25,158.333 158.333,158.333c87.5,0 158.334,-71.25 158.334,-158.333c-0,-87.084 -70.834,-158.334 -158.334,-158.334Zm0,211.25c-29.166,0 -52.916,-23.75 -52.916,-52.916c-0,-29.167 23.75,-52.917 52.916,-52.917c29.167,0 52.917,23.75 52.917,52.917c0,29.166 -23.75,52.916 -52.917,52.916Z" style="fill-rule:nonzero;"/></g></svg>