<?xml version="1.0" encoding="UTF-8" standalone="no"?><!DOCTYPE svg PUBLIC "-//W3C//DTD SVG 1.1//EN" "http://www.w3.org/Graphics/SVG/1.1/DTD/svg11.dtd"><svg width="100%" height="100%" viewBox="0 0 4500 4500" version="1.1" xmlns="http://www.w3.org/2000/svg" xmlns:xlink="http://www.w3.org/1999/xlink" xml:space="preserve" xmlns:serif="http://www.serif.com/" style="fill-rule:evenodd;clip-rule:evenodd;stroke-miterlimit:10;"><rect x="197.5" y="197.5" width="4103.33" height="4103.33" style="fill:#fff;stroke:#1d1d1b;stroke-width:125px;"/><g><path d="M1846.67,927.5l357.5,0c32.5,0 58.75,-26.25 58.75,-58.75c-0,-32.5 -26.25,-58.75 -58.75,-58.75l-357.5,0c-32.5,0 -58.75,26.25 -58.75,58.75c-0,32.5 26.25,58.75 58.75,58.75Z" style="fill-rule:nonzero;"/><path d="M1994,3548.01c42.068,-17.426 90.369,2.581 107.795,44.649c17.425,42.067 -2.581,90.369 -44.649,107.794c-42.068,17.426 -90.369,-2.581 -107.795,-44.649c-17.425,-42.068 2.581,-90.369 44.649,-107.794Z"/><path d="M3412.5,2872.08c-2.083,-4.166 -50,-106.25 -109.167,-174.166c-20,-22.917 -23.333,-35.417 -33.75,-85c-8.75,-40 -20.416,-95 -49.583,-180.834c-67.5,-197.5 -201.25,-366.25 -207.083,-373.333c-5,-6.25 -10.834,-11.25 -17.5,-15c-10,-5.417 -20,-8.75 -30.417,-12.083l0,-1128.33c0,-165 -134.167,-298.75 -298.75,-298.75l-1281.67,0c-164.583,0 -298.75,134.167 -298.75,298.75l0,2693.75c0,164.584 134.167,298.75 298.75,298.75l1281.67,0c164.583,0 298.75,-134.166 298.75,-298.75l0,-337.5l429.167,-315.416c22.5,-16.667 30.416,-46.667 18.333,-72.084Zm-1443.33,-645l277.083,398.334c-110,-2.5 -191.667,53.333 -230.417,105.833c-21.25,28.75 -27.916,55.833 -20.416,80c22.083,70.417 571.666,361.667 608.75,368.75c30,5.417 131.25,75.833 207.083,137.917c10.417,8.75 23.333,12.916 36.25,12.916l0,35.834l-1644.17,-0l0,-2233.33l1644.17,0l0,905.417c-37.5,17.917 -65.833,47.917 -84.167,72.083c-95,-12.083 -156.666,33.75 -185.833,87.084c-69.583,-15 -127.083,15.833 -162.917,58.333l-182.5,-275.417c-5.416,-7.916 -12.5,-14.583 -20.833,-19.166c-73.333,-40.417 -145,-38.75 -203.333,2.916c-80.834,58.75 -98.75,176.25 -38.75,262.5Zm-584.584,-1505l1281.67,0c100,0 181.25,81.25 181.25,181.25l0,112.5l-1644.17,0l0,-112.5c0,-100 81.25,-181.25 181.25,-181.25Zm1281.67,3056.25l-1281.67,0c-100,0 -181.25,-81.25 -181.25,-181.25l0,-112.5l1644.17,0l0,112.5c0,100 -81.25,181.25 -181.25,181.25Zm183.75,-580c-60.833,-47.5 -164.583,-122.5 -222.917,-133.75c-54.166,-14.166 -384.583,-207.5 -497.083,-283.75c21.25,-17.916 57.5,-37.916 108.75,-37.916c37.917,-0 78.75,11.666 121.25,34.166c23.75,12.5 53.75,7.5 71.667,-12.916c17.916,-20.417 20,-50.417 4.166,-72.5l-370,-531.667c-22.916,-32.917 -17.916,-78.75 11.25,-99.583c19.167,-13.75 39.167,-13.75 65.834,-1.667l228.333,344.583c12.917,19.167 36.25,29.584 58.75,25.417c22.917,-3.75 41.25,-20.833 47.083,-43.333c0,-0.834 22.084,-74.167 64.167,-74.167c12.083,0 27.083,5 43.75,14.583c17.083,9.584 37.917,9.584 55.833,0.834c17.5,-8.75 29.584,-26.667 31.667,-46.25c2.5,-20.417 13.333,-54.167 59.583,-54.167c12.917,0 27.5,2.5 43.75,6.667c26.667,7.5 55,-5.417 67.917,-30c10.833,-20.834 42.5,-63.334 72.5,-63.334c4.167,0 8.75,0.834 13.333,2.5c28.75,38.334 127.917,175.417 179.584,327.5c27.083,79.167 37.916,130 45.833,167.5c11.25,52.917 19.583,91.25 60,137.917c27.083,30.833 52.5,72.917 69.583,104.167l-434.583,319.166Z" style="fill-rule:nonzero;"/><path d="M2171.25,1850.42c20.833,-25 17.083,-62.084 -7.917,-82.5c-55,-45 -123.75,-65.834 -194.583,-59.167c-70.417,7.083 -134.167,40.833 -179.583,95.833c-45,54.584 -66.25,123.75 -59.167,194.584c2.917,31.25 11.25,61.25 25,89.166c10,21.25 31.25,33.334 52.917,33.334c8.333,-0 17.083,-1.667 25.416,-5.834c29.167,-14.166 41.667,-49.166 27.5,-78.333c-7.5,-15.833 -12.083,-32.5 -13.75,-50c-3.75,-39.167 7.917,-77.917 32.917,-108.333c25,-30.417 60.417,-49.584 100,-53.334c39.167,-3.75 77.917,7.917 108.333,32.917c25.417,20.417 62.5,16.667 82.917,-8.333Z" style="fill-rule:nonzero;"/><path d="M2173.75,1641.67c28.333,15.416 64.167,5 79.583,-23.75c15.417,-28.334 5,-64.167 -23.75,-79.584c-86.666,-47.083 -185,-67.083 -283.333,-57.5c-131.25,12.917 -250,75.834 -333.75,177.917c-83.75,102.083 -122.917,230.417 -110,362.083c3.333,35.417 10.833,70.417 21.25,103.75c7.917,25 31.25,40.834 55.833,40.834c5.834,-0 12.084,-0.834 17.917,-2.917c30.833,-10 47.917,-42.917 37.917,-73.75c-8.334,-25.417 -13.75,-52.083 -16.25,-79.167c-9.584,-100 20,-198.333 84.166,-275.833c63.75,-77.5 154.167,-125.833 254.584,-135.417c75,-7.5 150,7.5 215.833,43.334Z" style="fill-rule:nonzero;"/></g></svg>