<?xml version="1.0" encoding="UTF-8" standalone="no"?><!DOCTYPE svg PUBLIC "-//W3C//DTD SVG 1.1//EN" "http://www.w3.org/Graphics/SVG/1.1/DTD/svg11.dtd"><svg width="100%" height="100%" viewBox="0 0 4500 4500" version="1.1" xmlns="http://www.w3.org/2000/svg" xmlns:xlink="http://www.w3.org/1999/xlink" xml:space="preserve" xmlns:serif="http://www.serif.com/" style="fill-rule:evenodd;clip-rule:evenodd;stroke-miterlimit:10;"><rect x="197.5" y="197.5" width="4103.33" height="4103.33" style="fill:#fff;stroke:#1d1d1b;stroke-width:125px;"/><g><path d="M2314.58,742.917l1541.67,1222.08c78.333,62.083 32.917,187.5 -65.417,187.5l-111.666,0l-0,1522.92c-0,58.333 -47.084,105.416 -105.417,105.416l-2651.67,0c-58.333,0 -105.416,-47.083 -105.416,-105.416l-0,-1522.5l-111.25,-0c-103.334,-0 -143.75,-133.334 -60.417,-191.667l407.5,-323.333l0,-806.25c0,-58.334 47.083,-105.417 105.417,-105.417l557.5,-0c58.333,-0 105.416,47.083 105.416,105.417l0,197.083l361.667,-286.667c39.583,-31.25 94.583,-29.583 132.083,0.834Zm38.75,2142.5c0,138.75 -210.833,138.75 -210.833,-0l0,-489.167c0,-138.75 210.833,-138.75 210.833,0l0,489.167Zm95.834,-201.667c-97.5,-97.917 51.666,-246.25 149.166,-148.333c96.667,96.666 145,223.333 145,350c0,126.666 -48.333,253.333 -145,350c-96.666,97.083 -223.75,145.416 -350.416,145.416c-273.75,0 -495.417,-221.666 -495.417,-495.416c-0,-126.667 48.333,-253.75 145,-350.417c97.917,-97.917 247.083,50.833 149.167,149.167c-55.417,55.416 -83.334,128.75 -83.334,201.25c0,157.083 127.5,285 285,285c157.5,-0 285,-127.5 285,-285c-0.416,-72.917 -28.333,-146.25 -84.166,-201.667Zm-1300,-1135.42l583.333,-479.166l0,-257.084l-583.333,0m2655,1230.83l-1555.83,-1210.83c-518.75,403.75 -1037.92,807.084 -1556.25,1210.83m2877.08,110l-2646.25,-0l-0,1531.25l2646.25,-0l-0,-1531.25Z" style="fill-rule:nonzero;"/></g></svg>