<?xml version="1.0" encoding="UTF-8" standalone="no"?><!DOCTYPE svg PUBLIC "-//W3C//DTD SVG 1.1//EN" "http://www.w3.org/Graphics/SVG/1.1/DTD/svg11.dtd"><svg width="100%" height="100%" viewBox="0 0 4500 4500" version="1.1" xmlns="http://www.w3.org/2000/svg" xmlns:xlink="http://www.w3.org/1999/xlink" xml:space="preserve" xmlns:serif="http://www.serif.com/" style="fill-rule:evenodd;clip-rule:evenodd;stroke-miterlimit:10;"><rect x="197.5" y="197.5" width="4103.33" height="4103.33" style="fill:#fff;stroke:#1d1d1b;stroke-width:125px;"/><g><path d="M1702.5,2957.92l1095,-0c48.333,-0 72.083,36.25 72.083,72.083l0,745.833c0,48.334 -24.166,72.084 -72.083,72.084l-1107.08,-0c-36.25,-0 -60,-24.167 -60,-72.084l-0,-745.833c-0,-48.333 24.166,-72.083 72.083,-72.083Zm1035,144.166l-974.583,0l-0,613.75l974.583,0l0,-613.75Z" style="fill-rule:nonzero;"/><path d="M2244.17,1574.17c337.083,-0 637.5,216.666 733.75,529.583c84.166,240.833 48.333,505.417 -108.334,710c-24.166,24.167 -36.25,36.25 -60,36.25l-1119.17,0c-24.167,0 -48.334,-12.083 -60,-36.25c-156.25,-204.583 -192.5,-469.167 -120.417,-697.917c108.333,-312.916 409.167,-541.666 734.167,-541.666Zm-0,144.166c-276.667,0 -505.417,180.417 -589.584,445c-60,180.417 -48.333,360.834 72.084,541.25l1046.67,0c108.334,-168.333 132.5,-385 72.084,-565.416c-84.167,-252.084 -324.584,-420.834 -601.25,-420.834Z" style="fill-rule:nonzero;"/><path d="M2316.25,1177.08c0,96.25 -132.5,96.25 -132.5,0l0,-457.083c0,-96.25 132.5,-96.25 132.5,0l0,457.083Z" style="fill-rule:nonzero;"/><path d="M2965.83,1429.58c-48.333,84.167 -168.333,0 -120.416,-72.083l264.583,-385c60,-72.083 168.333,12.083 120.417,84.167l-264.584,372.916Z" style="fill-rule:nonzero;"/><path d="M3375,2031.25c-96.25,24.167 -144.583,-108.333 -48.333,-132.5l433.333,-168.333c84.167,-24.167 132.5,108.333 48.333,132.5l-433.333,168.333Z" style="fill-rule:nonzero;"/><path d="M3362.92,2741.25c-84.167,-24.167 -48.334,-156.25 36.25,-132.5l457.083,108.333c84.167,24.167 48.333,168.334 -36.25,144.584l-457.083,-120.417Z" style="fill-rule:nonzero;"/><path d="M1654.58,1357.5c48.334,72.083 -72.083,156.25 -120.416,72.083l-264.584,-372.916c-48.333,-72.084 60,-156.25 120.417,-84.167l264.583,385Z" style="fill-rule:nonzero;"/><path d="M1173.33,1899.17c96.25,24.166 36.25,156.25 -48.333,132.5l-433.333,-168.334c-84.167,-24.166 -36.25,-156.25 48.333,-132.5l433.333,168.334Z" style="fill-rule:nonzero;"/><path d="M1100.83,2608.75c84.167,-24.167 120.417,108.333 24.167,132.5l-445,120.417c-84.167,24.166 -120.417,-120.417 -36.25,-144.584l457.083,-108.333Z" style="fill-rule:nonzero;"/></g></svg>