<?xml version="1.0" encoding="UTF-8" standalone="no"?><!DOCTYPE svg PUBLIC "-//W3C//DTD SVG 1.1//EN" "http://www.w3.org/Graphics/SVG/1.1/DTD/svg11.dtd"><svg width="100%" height="100%" viewBox="0 0 4500 4500" version="1.1" xmlns="http://www.w3.org/2000/svg" xmlns:xlink="http://www.w3.org/1999/xlink" xml:space="preserve" xmlns:serif="http://www.serif.com/" style="fill-rule:evenodd;clip-rule:evenodd;stroke-miterlimit:10;"><rect x="200.417" y="200.417" width="4103.33" height="4103.33" style="fill:#fff;stroke:#1e1e1c;stroke-width:125px;"/><g><g><path d="M1122.5,1747.08l410.417,751.25c37.083,67.5 35.833,145.834 -3.75,212.5c-39.584,66.667 -107.5,105.417 -184.584,105.417l-820.833,0c-77.5,0 -145.417,-38.75 -184.583,-105.417c-39.167,-66.25 -40.834,-144.583 -3.75,-212.5l410.416,-751.25c38.334,-70.416 108.334,-112.083 188.334,-112.083c80,0 149.583,41.667 188.333,112.083Zm333.333,793.334l-410,-751.667c-23.333,-42.5 -63.75,-66.25 -112.083,-66.25c-48.333,-0 -88.75,23.75 -112.083,66.25l-410,751.667c-22.5,41.25 -21.667,85.833 2.5,126.25c23.75,40.416 62.916,62.083 109.583,62.083l820.417,-0c46.666,-0 85.833,-22.083 109.583,-62.083c23.75,-40.417 24.583,-85 2.083,-126.25Z" style="fill:#020203;fill-rule:nonzero;"/><path d="M877.917,1960.42l112.083,-0c8.333,-0 15.417,7.083 15.417,15.416l-0,202.084l-30,237.5c-0.834,5 -5,8.75 -9.584,8.75l-62.916,-0c-5,-0 -9.167,-3.75 -9.584,-8.75l-30,-237.5l0,-202.084c-0.833,-8.75 5.834,-15.416 14.584,-15.416Z" style="fill:#020203;"/><path d="M933.75,2489.58c39.583,0 72.083,32.084 72.083,72.084c0,39.583 -32.083,72.083 -72.083,72.083c-39.583,0 -72.083,-32.083 -72.083,-72.083c0.416,-39.584 32.5,-72.084 72.083,-72.084Z" style="fill:#020203;"/></g><path d="M4163.75,2703.33c13.333,31.25 -16.25,-29.583 0,0c-27.5,-65 -75,-119.166 -132.917,-158.75c-28.75,-20 -59.583,-36.25 -90.416,-50c-62.084,-27.5 -125,-45.416 -186.667,-61.25l-1.25,-0.416c-6.667,-1.667 -13.75,-2.5 -20.833,-2.5c-50.834,-0.834 -92.5,40 -93.334,90.833c-0.833,50.833 40,92.5 90.834,93.333c58.333,0.834 115,3.75 168.333,13.334c53.333,9.583 99.583,31.25 144.583,56.666c106.25,60.417 147.917,275.417 145,302.917c30.834,-70.833 18.334,-208.333 -23.333,-284.167Z" style="fill:#020203;fill-rule:nonzero;"/><path d="M3682.5,2917.92c-81.667,-15 -167.917,-7.5 -249.583,21.25c-122.917,43.333 -215.834,127.916 -254.584,225.833l-103.333,-5.833l-2.083,-0c-45.417,-1.25 -105.834,-30.417 -156.25,-79.584c-23.75,-23.333 -45.417,-51.25 -62.084,-82.916c-7.083,-13.334 -13.75,-28.75 -19.166,-45c-26.25,-78.334 -28.334,-189.584 60.833,-327.084l70.417,-105.416l150.833,-226.667l612.083,-917.5c0.417,-0.833 0.834,-1.25 1.25,-2.083c76.667,-122.5 110,-212.084 79.167,-363.334c-10,-49.583 -58.333,-81.25 -107.917,-71.25c-49.583,10 -81.25,58.334 -71.25,107.917c17.917,86.667 7.5,129.583 -54.166,228.333l-476.25,714.584c-20.834,-147.084 -59.584,-290.834 -115.834,-429.584c-14.166,-35 -29.166,-69.166 -45.416,-102.916c-88.75,-185.417 -207.917,-353.334 -355.417,-500.834c-12.083,-12.083 -28.333,-18.75 -45.417,-18.75c-17.083,0 -33.333,6.667 -45.416,18.75c-25,25 -25,65.834 -0,90.834c185.416,185.416 319.166,403.75 400.416,636.25c54.167,154.583 85,315.416 93.334,477.083l-242.5,363.75c-0,0.417 -0.417,0.417 -0.417,0.833c-165,253.334 -102.5,457.917 -50.833,557.084c11.666,22.083 24.583,42.916 39.166,62.916c-66.666,106.667 -146.25,207.5 -238.75,300c-12.083,12.084 -18.75,28.334 -18.75,45.417c0,17.083 6.667,33.333 18.75,45.417c12.084,12.083 28.334,18.75 45.417,18.75c17.083,-0 33.333,-6.667 45.417,-18.75c90.416,-90.417 170.416,-188.75 239.166,-294.167c73.334,60.417 160,98.333 243.334,100.833l380.416,21.25l5,0c3.75,0 7.084,-0.416 10.417,-0.833c15.833,1.667 31.667,5.833 40.833,15.833c12.084,13.334 17.5,41.667 15,76.25c-4.166,50.417 33.334,94.584 83.334,98.75c2.5,0.417 5,0.417 7.916,0.417c47.084,-0 87.084,-36.25 90.834,-83.75c7.5,-88.333 -14.167,-162.917 -62.5,-215.417c-31.667,-34.583 -90.834,-75.416 -193.334,-75.416c-2.916,-0 -6.25,-0 -9.166,0.416l-47.917,-2.5c27.083,-26.666 64.583,-50.416 106.667,-65.416c41.666,-14.584 186.666,-53.75 300,65c35,36.666 92.5,37.916 129.166,2.916c36.667,-35 37.917,-92.5 2.917,-129.166c-66.667,-69.584 -150.833,-115.417 -243.75,-132.5Z" style="fill:#020203;fill-rule:nonzero;"/><path d="M2465.83,1691.67c-74.166,-182.5 -182.916,-346.667 -323.75,-487.084c-12.083,-12.083 -28.333,-18.75 -45.416,-18.75c-17.084,0 -33.334,6.667 -45.417,18.75c-12.083,12.084 -18.75,28.334 -18.75,45.417c0,17.083 6.667,33.333 18.75,45.417c523.75,523.75 523.75,1376.67 0,1900.42c-25,25 -25,65.834 0,90.834c12.083,12.083 28.333,18.75 45.417,18.75c17.083,-0 33.333,-6.667 45.416,-18.75c140.417,-140.417 249.584,-304.584 323.75,-487.084c71.667,-176.25 107.917,-362.916 107.917,-553.75c0,-191.666 -36.25,-377.916 -107.917,-554.166Z" style="fill:#020203;fill-rule:nonzero;"/><path d="M1634.58,1464.58c-17.083,0 -33.333,6.667 -45.416,18.75c-25,25 -25,65.834 -0,90.834c370.416,370.416 370.416,972.5 -0,1342.92c-25,25 -25,65.834 -0,90.834c12.083,12.083 28.333,18.75 45.416,18.75c17.084,-0 33.334,-6.667 45.417,-18.75c203.75,-204.167 315.833,-474.584 315.833,-762.5c0,-287.917 -112.083,-558.334 -315.833,-762.084c-12.083,-12.083 -28.333,-18.75 -45.417,-18.75Z" style="fill:#020203;fill-rule:nonzero;"/></g></svg>