<?xml version="1.0" encoding="UTF-8" standalone="no"?><!DOCTYPE svg PUBLIC "-//W3C//DTD SVG 1.1//EN" "http://www.w3.org/Graphics/SVG/1.1/DTD/svg11.dtd"><svg width="100%" height="100%" viewBox="0 0 4500 4500" version="1.1" xmlns="http://www.w3.org/2000/svg" xmlns:xlink="http://www.w3.org/1999/xlink" xml:space="preserve" xmlns:serif="http://www.serif.com/" style="fill-rule:evenodd;clip-rule:evenodd;stroke-miterlimit:10;"><rect x="197.5" y="197.5" width="4103.33" height="4103.33" style="fill:#fff;stroke:#1d1d1b;stroke-width:125px;"/><g><path d="M3182.92,820c-0,-26.667 -18.75,-49.167 -45,-53.75l-880,-165.417c-6.667,-1.25 -13.75,-1.25 -20.417,0l-880,165.417c-26.25,4.583 -45,27.083 -45,53.75l0,165l-714.583,0l-0,2310l990,0l-0,120l-779.167,155.833c-90.417,15 -210.833,54.167 -210.833,219.167l-0,55c-0,30.417 24.583,55 55,55c2.916,0 6.25,-0.417 9.166,-0.833l985.417,-164.167l1200.83,0l985.417,164.167c2.917,0.416 5.833,0.833 9.167,0.833c30.416,0 55,-24.583 55,-55l-0,-55c-0,-164.583 -119.584,-203.75 -210,-219.167l-780,-155.833l-0,-120l990,0l-0,-2310l-715,0l-0,-165Zm-935,-109.167l622.5,116.667l-622.5,155.833l-622.5,-155.416l622.5,-117.084Zm825,179.584l-0,881.25l-770,288.75l-0,-977.5l770,-192.5Zm-1650,-0l770,192.5l-0,977.5l-770,-288.75l-0,-881.25Zm-74.167,971.25l880,330c6.25,1.666 12.917,2.916 19.167,3.333c6.666,-0.417 12.916,-1.667 19.166,-3.333l880,-330c21.667,-7.917 35.834,-28.75 35.834,-51.667l-0,-495l385,0l-0,1650l-2640,0l-0,-1650l385,0l-0,495c-0,22.917 14.166,43.333 35.833,51.667Zm2318.33,1817.08l1.667,0.417c95.833,15.833 116.667,45.833 118.75,100.833l-925.833,-154.167c-2.917,-0.416 -5.834,-0.833 -8.75,-1.25l-1210,0c-2.917,0 -6.25,0.417 -9.167,0.834l-925.833,154.166c2.083,-55 23.333,-85 120.416,-101.25l820,-163.75l1199.17,0l819.583,164.167Zm-1969.17,-273.75l-0,-110l1100,0l-0,110l-1100,0Zm2090,-2310l-0,2090l-3080,0l-0,-2090l605,0l-0,110l-495,0l-0,1870l2860,0l-0,-1870l-495,0l-0,-110l605,0Z" style="fill-rule:nonzero;"/><path d="M1392.08,2314.58c-15,10.417 -24.166,27.5 -24.166,45.417l-0,330c-0,22.5 13.75,42.917 34.583,51.25l275,110c6.667,2.083 13.333,3.333 20.417,3.75c7.083,-0.833 13.75,-2.083 20.416,-3.75l275,-110c20.834,-8.333 34.584,-28.75 34.584,-51.25l-0,-330c-0,-18.333 -9.167,-35.417 -24.167,-45.417c-3.333,-2.083 -6.667,-3.75 -10.417,-5.416l-275,-110c-13.333,-5 -27.916,-5 -40.833,-0l-275,110c-3.75,1.25 -7.083,3.333 -10.417,5.416Zm525.834,338.334l-165,65.833l-0,-211.667l165,-65.833l-0,211.667Zm-220,-343.75l127.083,50.833l-127.083,50.833l-127.084,-50.833l127.084,-50.833Zm-220,132.083l165,65.833l-0,211.667l-165,-65.833l-0,-211.667Z" style="fill-rule:nonzero;"/><path d="M2663.33,2519.58l220,110c15.417,7.917 33.75,7.917 49.167,0l220,-110c18.75,-9.166 30.417,-28.75 30.417,-49.583l-0,-220c-0,-19.167 -10,-36.667 -26.25,-46.667c-1.25,-0.833 -4.167,-2.5 -4.167,-2.5l-220,-110c-15.417,-7.916 -33.75,-7.916 -49.167,0l-220,110c0,0 -2.916,1.667 -4.166,2.5c-16.25,10 -26.25,27.917 -26.25,46.667l-0,220c-0,20.833 11.666,40 30.416,49.583Zm409.584,-83.75l-110,55l-0,-97.083l110,-55l-0,97.083Zm-165,-234.166l97.083,48.333l-97.083,48.333l-97.084,-48.333l97.084,-48.333Zm-165,137.5l110,55l-0,97.083l-110,-55l-0,-97.083Z" style="fill-rule:nonzero;"/><path d="M3347.92,2745l-220,0l-0,110l330,0l-0,-440l-110,0l-0,330Z" style="fill-rule:nonzero;"/><path d="M3402.92,1957.08l-0,-312.083l-110,0l-0,237.917l-240.417,95.833l40.833,102.5l309.584,-124.167Z" style="fill-rule:nonzero;"/><path d="M1202.92,1425l-110,0l-0,531.25l418.333,179.167l43.333,-100.834l-351.666,-150.833l-0,-458.75Z" style="fill-rule:nonzero;"/><rect x="2192.92" y="2360" width="110" height="110"/><rect x="1147.92" y="2690" width="110" height="110"/><rect x="2357.92" y="2580" width="110" height="110"/></g></svg>