<?xml version="1.0" encoding="UTF-8" standalone="no"?><!DOCTYPE svg PUBLIC "-//W3C//DTD SVG 1.1//EN" "http://www.w3.org/Graphics/SVG/1.1/DTD/svg11.dtd"><svg width="100%" height="100%" viewBox="0 0 4500 4500" version="1.1" xmlns="http://www.w3.org/2000/svg" xmlns:xlink="http://www.w3.org/1999/xlink" xml:space="preserve" xmlns:serif="http://www.serif.com/" style="fill-rule:evenodd;clip-rule:evenodd;stroke-miterlimit:10;"><rect x="197.5" y="197.5" width="4103.33" height="4103.33" style="fill:#fff;stroke:#1d1d1b;stroke-width:125px;"/><g><path d="M3204.17,777.917l-1905,-0c-383.75,-0 -695.834,312.083 -695.834,695.833l0,82.917c0,18.333 15,33.333 33.334,33.333l675,0l-0,2095.42c-0,18.333 15,33.333 33.333,33.333l1813.75,0c18.333,0 33.333,-15 33.333,-33.333l0,-2095.83l675,0c18.334,0 33.334,-15 33.334,-33.333l-0,-82.917c-0.417,-383.333 -312.5,-695.416 -696.25,-695.416Zm-583.75,66.25c-33.334,176.666 -184.584,306.25 -368.75,306.25c-183.75,-0 -335.417,-129.584 -368.75,-306.25l737.5,-0Zm538.333,496.666c-18.333,0 -33.333,15 -33.333,33.334l-0,447.083l-172.917,0l-132.5,-187.917c32.5,-22.916 54.167,-60.833 54.167,-103.75c-0,-70 -57.084,-127.083 -127.084,-127.083c-70,0 -127.083,57.083 -127.083,127.083c0,70 57.083,127.084 127.083,127.084c2.917,-0 5.417,-0.834 7.917,-0.834l153.333,217.5c0.417,0.834 1.25,0.834 1.667,1.667c2.083,2.917 5,5 7.917,7.083c1.25,0.834 2.083,1.667 3.333,2.084c4.167,2.083 9.167,3.333 14.167,3.333l190.416,0l0,442.917l-280,-0l-210.833,-298.75c51.667,-29.584 87.083,-85 87.083,-148.75c0,-95 -77.083,-172.084 -172.083,-172.084c-95,0 -172.083,77.5 -172.083,172.084c-0,95 77.083,172.083 172.083,172.083c6.667,-0 12.917,-1.25 19.583,-2.083l232.084,329.583c0.416,0.833 1.25,0.833 1.666,1.25c2.084,2.917 5,5 8.334,7.083c1.25,0.834 2.083,1.667 2.916,2.084c4.167,2.083 9.167,3.333 14.167,3.333l297.5,-0l0,859.167l-395,-0l-304.167,-431.667c74.584,-37.083 126.25,-112.917 126.25,-202.083c0,-124.584 -101.25,-226.25 -226.25,-226.25c-124.583,-0 -226.25,101.25 -226.25,226.25c0,124.583 101.25,226.25 226.25,226.25c11.25,-0 22.5,-1.667 33.334,-3.334l325.833,463.75c0.417,0.834 1.25,0.834 1.667,1.25c2.083,2.917 5,5 8.333,7.084c1.25,0.833 2.083,1.666 2.917,2.083c4.166,2.083 9.166,3.333 14.166,3.333l412.084,0l-0,329.167l-1747.5,-0l-0,-925.833l426.666,-0l155.417,400.416c-62.5,27.917 -106.667,90.417 -106.667,163.334c0,98.333 80,178.75 178.75,178.75c98.334,-0 178.75,-80 178.75,-178.75c0,-98.75 -80,-178.75 -178.75,-178.75c-2.5,-0 -4.583,0.416 -6.666,0.833l-167.084,-430.833c0,-0 0,-0.417 -0.416,-0.417c-1.25,-2.917 -2.917,-5 -4.584,-7.5c-0.833,-1.25 -1.25,-2.5 -2.5,-3.333c-1.25,-1.25 -2.916,-2.084 -4.583,-3.334c-2.083,-1.25 -3.75,-2.916 -5.833,-4.166c-0.834,-0.417 -1.667,-0.417 -2.5,-0.417c-3.334,-1.25 -6.667,-2.083 -10.417,-2.083l-449.583,-0l-0,-164.167l332.5,0c6.25,0 11.666,-2.083 16.666,-5c1.25,-0.833 2.084,-1.25 3.334,-2.083c4.583,-3.75 8.75,-7.917 10.833,-13.75l0.417,-0.417l124.583,-321.25c79.167,0 143.333,-64.583 143.333,-143.75c0,-79.167 -64.583,-143.75 -143.75,-143.75c-79.166,-0 -143.75,64.583 -143.75,143.75c0,55.833 32.084,103.75 78.75,127.5l-113.333,292.083l-310,0l0,-697.916l150,-0c18.333,-0 33.333,-15 33.333,-33.334l0,-134.583l293.334,-0c14.583,54.167 63.75,94.167 122.5,94.167c70,-0 127.083,-57.084 127.083,-127.084c0,-70 -57.083,-127.083 -127.083,-127.083c-58.75,0 -107.5,40 -122.5,94.167l-326.25,-0c-18.334,-0 -33.334,15 -33.334,33.333l0,134.583l-116.666,0l-0,-290c-0,-18.333 -15,-33.333 -33.334,-33.333c-18.333,0 -33.333,15 -33.333,33.333l0,149.167l-641.667,0l0,-49.583c0,-347.084 282.5,-629.584 629.584,-629.584l515.416,0c33.75,214.584 216.667,372.5 437.084,372.5c220.416,0 403.333,-158.333 437.083,-372.5l515.417,0c347.083,0 629.583,282.5 629.583,629.584l0,49.583l-642.083,0l-0,-149.167c-0,-18.75 -14.584,-33.75 -32.917,-33.75Zm-412.083,249.584c-33.75,-0 -60.834,-27.5 -60.834,-60.834c0,-33.75 27.5,-60.833 60.834,-60.833c33.75,-0 60.833,27.5 60.833,60.833c0,33.75 -27.083,60.834 -60.833,60.834Zm-197.084,398.75c-58.333,-0 -105.833,-47.5 -105.833,-105.834c0,-58.333 47.5,-105.833 105.833,-105.833c58.334,0 105.834,47.5 105.834,105.833c-0,58.334 -47.5,105.834 -105.834,105.834Zm-222.916,793.333c-87.917,0 -160,-71.667 -160,-160c-0,-88.333 71.666,-160 160,-160c87.916,0 160,71.667 160,160c-0.417,88.333 -72.084,160 -160,160Zm-294.584,394.167c62.084,-0 112.5,50.416 112.5,112.5c0,62.083 -50.416,112.5 -112.5,112.5c-62.083,-0 -112.5,-50.417 -112.5,-112.5c0,-61.667 50.417,-112.5 112.5,-112.5Zm-166.25,-1090.42c-42.5,0 -77.5,-34.583 -77.5,-77.5c0,-42.5 34.584,-77.5 77.5,-77.5c42.5,0 77.5,34.583 77.5,77.5c0,42.917 -34.583,77.5 -77.5,77.5Zm49.584,-556.667c-0,-33.75 27.5,-60.833 60.833,-60.833c33.75,0 60.833,27.5 60.833,60.833c0,33.334 -27.5,60.834 -60.833,60.834c-33.333,-0 -60.833,-27.084 -60.833,-60.834Z" style="fill-rule:nonzero;stroke:#000;stroke-width:58.33px;"/><path d="M2251.67,1150.42c-183.75,-0 -368.75,-94.584 -368.75,-306.25l737.5,-0c-0,327.916 -368.75,306.25 -368.75,306.25Z" style="fill-rule:nonzero;"/></g></svg>