<?xml version="1.0" encoding="UTF-8" standalone="no"?><!DOCTYPE svg PUBLIC "-//W3C//DTD SVG 1.1//EN" "http://www.w3.org/Graphics/SVG/1.1/DTD/svg11.dtd"><svg width="100%" height="100%" viewBox="0 0 4500 4500" version="1.1" xmlns="http://www.w3.org/2000/svg" xmlns:xlink="http://www.w3.org/1999/xlink" xml:space="preserve" xmlns:serif="http://www.serif.com/" style="fill-rule:evenodd;clip-rule:evenodd;stroke-miterlimit:10;"><rect x="197.5" y="197.5" width="4103.33" height="4103.33" style="fill:#fff;stroke:#1d1d1b;stroke-width:125px;"/><g><path d="M1012.08,2654.58c21.25,0 38.75,-17.5 38.75,-38.75l0,-1249.17c0,-47.5 44.167,-86.25 98.75,-86.25l2195.83,-0c54.583,-0 98.75,38.75 98.75,86.25l-0,1249.17c-0,21.25 17.5,38.75 38.75,38.75c21.25,0 38.75,-17.5 38.75,-38.75l-0,-1249.17c-0,-90 -79.167,-163.334 -176.25,-163.334l-1059.17,0l0,-210.833c92.083,-17.917 162.083,-99.167 162.083,-196.25c0,-110.417 -90.416,-200.833 -200.833,-200.833c-110.417,-0 -200.417,90.416 -200.417,200.833c0,97.083 69.584,178.333 161.667,196.25l0,210.833l-1059.17,0c-97.083,0 -176.25,73.334 -176.25,163.334l0,1249.17c0,21.25 17.5,38.75 38.75,38.75Z" style="fill-rule:nonzero;"/><path d="M2507.5,1665.83c0,-151.666 -123.333,-275 -275,-275c-151.667,0 -275,123.334 -275,275c0,151.25 123.333,274.584 275,274.584c151.667,-0 275,-123.75 275,-274.584Z" style="fill-rule:nonzero;"/><path d="M3203.75,3081.67c0,-0.417 0.417,-0.417 0.833,-0c30,-0 49.584,-33.75 32.084,-60.417l-135.834,-361.667c-5.833,-15 -20,-25.416 -36.666,-25.416l-131.667,-0c0.417,5.833 0.833,10.833 0.833,16.666c0.834,6.25 1.667,12.917 1.667,19.167c0,64.167 -52.083,116.25 -116.25,116.25l-1172.08,0c-64.167,0 -116.25,-52.083 -116.25,-116.25c-0,-12.083 0.416,-23.75 0.833,-35.417l-101.25,0c-15.833,0 -30.417,10.417 -36.25,25.417l-138.75,369.167c-10,25 10.417,52.5 36.25,52.5l536.667,-0l-0,-38.75c-0,-64.167 52.083,-116.25 116.25,-116.25l606.666,-0c64.167,-0 116.25,52.083 116.25,116.25l0,38.75l536.667,-0Z" style="fill-rule:nonzero;"/><path d="M2698.75,3261.25c-6.667,-12.083 -19.167,-19.167 -32.083,-19.167l-0,38.334c-0,64.166 -52.084,116.25 -116.25,116.25l-606.25,-0c-64.167,-0 -116.25,-52.084 -116.25,-116.25l-0,-38.334c-12.917,0 -25.417,7.084 -31.667,19.167l-117.5,207.083c-15,26.667 6.25,57.917 33.333,57.917l1071.67,0c32.083,0 51.667,-37.917 28.75,-64.583l-113.75,-200.417Z" style="fill-rule:nonzero;"/><path d="M1944.17,3004.17c-21.25,-0 -38.75,17.083 -38.75,38.75l-0,237.5c-0,21.25 17.5,38.75 38.75,38.75l606.666,-0c21.25,-0 38.75,-17.5 38.75,-38.75l0,-237.5c0,-21.667 -17.5,-38.75 -38.75,-38.75l-606.666,-0Z" style="fill-rule:nonzero;"/><path d="M3482.92,3459.17c-227.5,-0 -414.167,185.416 -415.834,413.333c-0.833,20.417 16.25,38.75 38.75,38.75l755,0c21.25,0 38.75,-17.5 38.75,-38.75c-2.083,-227.917 -188.75,-413.333 -416.666,-413.333Z" style="fill:none;fill-rule:nonzero;stroke:#000;stroke-width:104.17px;"/><path d="M3482.92,3432.5c112.5,0 203.75,-90.833 203.75,-203.333c-0,-112.084 -91.25,-203.334 -203.75,-203.334c-267.5,0 -269.584,406.667 -0,406.667Z" style="fill-rule:nonzero;"/><path d="M1012.5,3432.5c112.5,0 203.75,-90.833 203.75,-203.333c0,-112.084 -91.25,-203.334 -203.75,-203.334c-112.083,0 -203.333,91.25 -203.333,203.334c-0,112.5 91.25,203.333 203.333,203.333Z" style="fill-rule:nonzero;"/><path d="M1012.5,3459.17c-227.5,-0 -414.167,185.416 -415.833,413.333c-0,23.75 19.583,38.75 38.75,38.75l755,0c21.25,0 38.75,-17.5 38.75,-38.75c-1.667,-227.917 -188.334,-413.333 -416.667,-413.333Z" style="fill:none;fill-rule:nonzero;stroke:#000;stroke-width:104.17px;"/><path d="M1607.92,2670c-0,21.25 17.5,38.75 38.75,38.75l1172.08,0c21.25,0 38.75,-17.5 38.75,-38.75c0,-2.917 -0.417,-6.25 -1.667,-9.167c-4.166,-340.416 -282.5,-615 -623.333,-615c-344.167,0 -624.583,280 -624.583,624.167Z" style="fill:none;fill-rule:nonzero;stroke:#000;stroke-width:104.17px;"/></g></svg>