<?xml version="1.0" encoding="UTF-8" standalone="no"?><!DOCTYPE svg PUBLIC "-//W3C//DTD SVG 1.1//EN" "http://www.w3.org/Graphics/SVG/1.1/DTD/svg11.dtd"><svg width="100%" height="100%" viewBox="0 0 4500 4500" version="1.1" xmlns="http://www.w3.org/2000/svg" xmlns:xlink="http://www.w3.org/1999/xlink" xml:space="preserve" xmlns:serif="http://www.serif.com/" style="fill-rule:evenodd;clip-rule:evenodd;stroke-miterlimit:10;"><rect x="200.417" y="200.417" width="4103.33" height="4103.33" style="fill:#fff;stroke:#1e1e1c;stroke-width:125px;"/><g><path d="M3358.75,3010c-109.583,-202.5 -44.167,-326.667 131.667,-562.083c270,-362.084 353.333,-761.667 233.75,-1125c-197.084,-599.584 -894.584,-908.334 -1466.25,-908.334c-580,0 -890.834,335 -1024.58,534.584c-155.416,231.666 -222.916,510 -160.416,661.666c22.083,53.334 17.083,100 -14.584,142.5c-35.833,37.5 -284.583,300.834 -322.5,428.75c-17.5,59.167 -9.166,116.667 23.334,161.667c66.25,91.667 176.25,75 182.083,83.75c18.75,30 -45,159.167 -51.667,178.333c-7.083,21.667 -5.416,43.75 5,63.75c7.084,13.75 18.334,25.834 32.5,36.667c-15.833,28.75 -11.25,60 6.667,88.75l3.75,5c85,97.5 100,201.25 103.75,299.583c6.25,169.584 143.75,267.084 377.083,267.084c168.334,-0 355.417,-87.5 404.584,112.083l220.416,610.833l1733.75,0l-17.5,-50.833c-10.416,-32.083 -270,-787.5 -400.833,-1028.75Zm-1261.67,1002.92l-200,-554.584c-67.916,-268.75 -335.416,-168.333 -478.333,-168.333c-133.75,0 -294.583,-33.75 -300.833,-193.333c-12.084,-323.75 -169.584,-333.75 -106.25,-366.25c21.25,2.916 135.833,-59.584 -6.667,-70.834c-12.083,-3.75 -46.667,-17.916 -42.917,-29.583c10,-31.25 89.584,-170 43.75,-242.917c-42.916,-68.333 -129.166,-10.416 -184.583,-87.916c-18.333,-25.417 -22.917,-59.584 -12.083,-95.417c28.333,-95 230.416,-320.417 306.25,-399.167l2.916,-3.333c49.167,-65 57.917,-140.833 25.417,-219.583c-44.583,-108.334 -5.833,-352.084 153.333,-590c125,-187.084 416.667,-500.417 960.834,-500.417c537.5,0 1207.08,288.75 1393.33,855.833c111.667,338.75 32.5,713.75 -222.5,1055c-175.417,235 -272.083,395.834 -137.5,644.167c108.75,200.417 316.667,790 378.333,966.667l-1572.5,-0Z" style="fill:#020203;fill-rule:nonzero;"/><path d="M2042.5,2045.83l585.417,0l-0,-585.416l-585.417,-0l0,585.416Zm76.667,-508.75l432.5,0l-0,432.5l-432.5,0l-0,-432.5Z" style="fill:#020203;fill-rule:nonzero;"/><path d="M3383.33,2217.92c0,-73.75 -60,-133.334 -133.333,-133.334c-60,0 -110.417,40.417 -127.083,95l-82.917,0l0,-226.666l-182.917,-0l0,-148.75l209.584,-0c16.666,55 67.083,95 127.083,95c73.75,-0 133.333,-60 133.333,-133.334c0,-73.333 -60,-133.333 -133.333,-133.333c-60.417,0 -110.833,40.417 -127.5,95.417l-210,-0l0,-173.75l182.917,-0l-0,-226.667l82.916,0c16.667,55 67.084,95 127.084,95c73.75,0 133.333,-60 133.333,-133.333c0,-73.334 -60,-133.334 -133.333,-133.334c-60.417,0 -110.834,40.417 -127.5,95.417l-159.584,0l0,226.667l-106.25,-0l0,-117.084c0,-70.833 -57.5,-128.333 -128.333,-128.333l-117.083,0l-0,-106.25l226.666,0l0,-159.583c55,-16.667 95.417,-67.084 95.417,-127.5c0,-73.75 -60,-133.334 -133.333,-133.334c-73.75,0 -133.334,60 -133.334,133.334c0,60 40.417,110.416 95,127.083l0,82.917l-226.666,-0l-0,182.916l-148.75,0l-0,-210c55,-16.666 95,-67.083 95,-127.083c-0,-73.75 -60,-133.333 -133.334,-133.333c-73.75,-0 -133.333,60 -133.333,133.333c-0,60.417 40.417,110.833 95.417,127.5l-0,210l-173.75,0l-0,-182.917l-226.667,0l-0,-82.916c55,-16.667 95,-67.084 95,-127.084c-0,-73.75 -60,-133.333 -133.333,-133.333c-73.334,-0 -133.334,60 -133.334,133.333c0,60.417 40.417,110.834 95.417,127.5l-0,159.584l226.667,-0l-0,106.25l-117.084,-0c-70.833,-0 -128.333,57.5 -128.333,128.333l-0,117.083l-106.25,0l-0,-226.666l-159.583,-0c-16.667,-55 -67.084,-95.417 -127.5,-95.417c-73.75,-0 -133.334,60 -133.334,133.333c0,73.334 60,133.334 133.334,133.334c60,-0 110.416,-40.417 127.083,-95l82.917,-0l-0,226.666l182.916,0l0,173.75l-209.166,0c-16.667,-55 -67.084,-95.416 -127.5,-95.416c-73.75,-0 -133.334,60 -133.334,133.333c0,73.333 60,133.333 133.334,133.333c60,0 110.416,-40.416 127.083,-95l210,0l0,148.75l-182.917,0l0,226.667l-82.916,-0c-16.667,-55 -67.084,-95 -127.084,-95c-73.75,-0 -133.333,60 -133.333,133.333c0,73.75 60,133.334 133.333,133.334c60.417,-0 110.834,-40.417 127.5,-95.417l159.584,-0l-0,-227.083l106.25,-0l-0,117.083c-0,70.833 57.5,128.333 128.333,128.333l117.083,0l0,106.25l-226.666,0l-0,159.584c-55,16.666 -95.417,67.083 -95.417,127.5c0,73.75 60,133.333 133.333,133.333c73.334,-0 133.334,-60 133.334,-133.333c-0,-60 -40.417,-110.417 -95,-127.084l-0,-82.916l226.666,-0l0,-182.917l173.75,-0l0,210c-55,16.667 -95.416,67.083 -95.416,127.5c-0,73.75 60,133.333 133.333,133.333c73.75,0 133.333,-60 133.333,-133.333c0,-60 -40.416,-110.417 -95,-127.083l0,-210l148.75,-0l0,182.916l226.667,0l0,82.917c-55,16.667 -95,67.083 -95,127.083c0,73.75 60,133.334 133.333,133.334c73.75,-0 133.334,-60 133.334,-133.334c-0,-60.416 -40.417,-110.833 -95.417,-127.5l0,-159.583l-226.667,-0l0,-106.25l117.084,-0c70.833,-0 128.333,-57.5 128.333,-128.333l0,-117.5l106.25,-0l0,226.666l159.583,0c16.667,55 67.084,95.417 127.5,95.417c73.75,0.417 133.75,-59.583 133.75,-133.333Zm-189.583,-509.167c31.25,-0 57.083,25.417 57.083,57.083c0,31.25 -25.416,57.084 -57.083,57.084c-31.667,-0 -57.083,-25.417 -57.083,-57.084c-0,-31.666 25.833,-57.083 57.083,-57.083Zm55.833,-477.083c31.25,-0 57.084,25.416 57.084,57.083c-0,31.25 -25.417,57.083 -57.084,57.083c-31.666,0 -57.083,-25.416 -57.083,-57.083c0.417,-31.667 25.833,-57.083 57.083,-57.083Zm-506.666,-392.917c-0,-31.25 25.416,-57.083 57.083,-57.083c31.25,-0 57.083,25.416 57.083,57.083c0,31.25 -25.416,57.083 -57.083,57.083c-31.25,0 -57.083,-25.416 -57.083,-57.083Zm-929.167,-0c-0,-31.25 25.417,-57.083 57.083,-57.083c31.25,-0 57.084,25.416 57.084,57.083c-0,31.25 -25.417,57.083 -57.084,57.083c-31.666,0 -57.083,-25.416 -57.083,-57.083Zm-392.917,506.667c-31.25,-0 -57.083,-25.417 -57.083,-57.084c-0,-31.25 25.417,-57.083 57.083,-57.083c31.25,-0 57.084,25.417 57.084,57.083c-0,31.667 -25.417,57.084 -57.084,57.084Zm55.834,477.083c-31.25,-0 -57.084,-25.417 -57.084,-57.083c0,-31.667 25.417,-57.084 57.084,-57.084c31.25,0 57.083,25.417 57.083,57.084c-0,31.666 -25.417,57.083 -57.083,57.083Zm-55.834,452.5c-31.25,-0 -57.083,-25.417 -57.083,-57.083c-0,-31.667 25.417,-57.084 57.083,-57.084c31.25,0 57.084,25.417 57.084,57.084c-0,31.666 -25.417,57.083 -57.084,57.083Zm506.667,392.5c-0,31.25 -25.417,57.083 -57.083,57.083c-31.25,0 -57.084,-25.416 -57.084,-57.083c0,-31.25 25.417,-57.083 57.084,-57.083c31.666,0.416 57.083,25.833 57.083,57.083Zm929.583,0c0,31.25 -25.416,57.083 -57.083,57.083c-31.25,0 -57.083,-25.416 -57.083,-57.083c-0,-31.25 25.416,-57.083 57.083,-57.083c31.25,0.416 57.083,25.833 57.083,57.083Zm-566.25,-1772.5c0,-31.25 25.417,-57.083 57.084,-57.083c31.666,-0 57.083,25.416 57.083,57.083c0,31.25 -25.417,57.083 -57.083,57.083c-31.667,0 -57.084,-25.833 -57.084,-57.083Zm113.75,1716.67c0,31.25 -25.416,57.083 -57.083,57.083c-31.667,-0 -57.083,-25.417 -57.083,-57.083c-0,-31.25 25.416,-57.084 57.083,-57.084c31.667,0 57.083,25.834 57.083,57.084Zm375.417,-465.417c0,28.75 -23.333,51.667 -51.667,51.667l-785.833,-0c-28.75,-0 -51.667,-23.334 -51.667,-51.667l0,-785.833c0,-28.75 23.334,-51.667 51.667,-51.667l785.833,-0c28.75,-0 51.667,23.333 51.667,51.667l-0,785.833Zm412.917,71.667c-0,-31.25 25.416,-57.084 57.083,-57.084c31.667,0 57.083,25.417 57.083,57.084c0,31.666 -25.416,57.083 -57.083,57.083c-31.667,-0 -57.083,-25.417 -57.083,-57.083Z" style="fill:#020203;fill-rule:nonzero;"/></g></svg>