<?xml version="1.0" encoding="UTF-8" standalone="no"?><!DOCTYPE svg PUBLIC "-//W3C//DTD SVG 1.1//EN" "http://www.w3.org/Graphics/SVG/1.1/DTD/svg11.dtd"><svg width="100%" height="100%" viewBox="0 0 4500 4500" version="1.1" xmlns="http://www.w3.org/2000/svg" xmlns:xlink="http://www.w3.org/1999/xlink" xml:space="preserve" xmlns:serif="http://www.serif.com/" style="fill-rule:evenodd;clip-rule:evenodd;stroke-miterlimit:10;"><rect x="197.5" y="197.5" width="4103.33" height="4103.33" style="fill:#fff;stroke:#1d1d1b;stroke-width:125px;"/><g><path d="M874.583,710l2417.08,0c90.833,0 164.583,73.75 164.583,165l0,110l110,0l0,-110c0,-151.667 -122.917,-274.583 -274.583,-274.583l-2417.08,-0c-151.666,-0 -274.583,122.916 -274.583,274.583l0,1867.5c0,125.417 84.583,234.583 205.833,265.833l27.5,-106.25c-72.916,-18.75 -123.75,-84.583 -123.75,-159.583l0,-1867.92c0.417,-90.833 74.167,-164.583 165,-164.583Z" style="fill-rule:nonzero;"/><path d="M3879.58,1495l-549.166,-549.167c-10.417,-10.416 -24.167,-16.25 -38.75,-16.25l-2087.5,0c-151.667,0 -274.584,122.917 -274.584,274.584l0,165l110,-0l0,-165c0,-90.834 73.75,-164.584 164.584,-165l2032.5,-0l-0,329.583c-0,121.25 98.333,219.583 219.583,219.583l329.583,0l0,1043.75l110,0l0,-1098.33c0,-14.583 -5.833,-28.333 -16.25,-38.75Zm-532.916,-125.833l-0,-252.084l361.666,361.667l-252.083,0c-60.417,0 -109.583,-49.167 -109.583,-109.583Z" style="fill-rule:nonzero;"/><path d="M1039.58,3071.67l0,-1537.92l-110,0l0,1537.92c0,151.666 122.917,274.583 274.584,274.583l933.75,0l-0,-110l-933.75,0c-90.834,0.417 -164.584,-73.333 -164.584,-164.583Z" style="fill-rule:nonzero;"/><rect x="1808.33" y="2412.5" width="110" height="110"/><rect x="2028.33" y="2632.5" width="110" height="110"/><rect x="2028.33" y="2192.92" width="110" height="110"/><rect x="1808.33" y="2192.92" width="110" height="110"/><rect x="2028.33" y="2852.08" width="110" height="110"/><rect x="1808.33" y="2852.08" width="110" height="110"/><rect x="2028.33" y="1973.33" width="110" height="110"/><rect x="1808.33" y="1753.75" width="110" height="110"/><rect x="2028.33" y="1753.75" width="110" height="110"/><rect x="2028.33" y="1533.75" width="110" height="110"/><rect x="2247.92" y="2632.5" width="110" height="110"/><rect x="2247.92" y="2412.5" width="110" height="110"/><rect x="2467.5" y="2192.92" width="110" height="110"/><rect x="2247.92" y="1973.33" width="110" height="110"/><rect x="2467.5" y="1753.75" width="110" height="110"/><rect x="2247.92" y="1533.75" width="110" height="110"/><rect x="2467.5" y="2632.5" width="110" height="110"/><rect x="2467.5" y="2412.5" width="110" height="110"/><rect x="1369.17" y="2412.5" width="110" height="110"/><rect x="1369.17" y="2192.92" width="110" height="110"/><rect x="1588.75" y="2192.92" width="110" height="110"/><rect x="1588.75" y="1973.33" width="110" height="110"/><rect x="1369.17" y="1753.75" width="110" height="110"/><rect x="1369.17" y="1533.75" width="110" height="110"/><rect x="1588.75" y="1533.75" width="110" height="110"/><rect x="3126.67" y="1753.75" width="110" height="110"/><rect x="2907.08" y="1753.75" width="110" height="110"/><rect x="3126.67" y="1973.33" width="110" height="110"/><rect x="2687.5" y="1973.33" width="110" height="110"/><rect x="2687.5" y="1533.75" width="110" height="110"/><rect x="2907.08" y="1533.75" width="110" height="110"/><rect x="1808.33" y="1314.17" width="110" height="110"/><rect x="2247.92" y="1314.17" width="110" height="110"/><rect x="1369.17" y="1314.17" width="110" height="110"/><rect x="1588.75" y="1314.17" width="110" height="110"/><rect x="2467.5" y="1314.17" width="110" height="110"/><rect x="2907.08" y="1314.17" width="110" height="110"/><rect x="1588.75" y="2632.5" width="110" height="110"/><rect x="1369.17" y="2852.08" width="110" height="110"/><rect x="3346.67" y="1973.33" width="110" height="110"/><rect x="3346.67" y="2192.92" width="110" height="110"/><path d="M3703.75,2742.5c-51.667,0 -101.25,20.833 -137.5,57.917c-57.5,-58.75 -145.417,-74.584 -219.583,-39.167l-0,-320.833c-0,-106.25 -85.834,-192.084 -192.084,-192.084c-51.666,0 -101.25,20.834 -137.5,57.917c-74.166,-75.833 -195.833,-77.083 -271.666,-2.917c-37.084,36.25 -57.917,85.834 -57.917,137.5l-0,725l-59.583,-89.583c-48.75,-73.333 -140.834,-104.583 -224.167,-77.083c-122.5,40.833 -176.667,204.583 -102.5,310l396.667,563.75c10.416,14.583 27.083,23.333 45,23.333l1098.75,0c30.416,0 55,-24.583 55,-55l-0,-906.667c-0.834,-106.25 -87.084,-192.083 -192.917,-192.083Zm83.75,1043.33l-1016.67,0l-380,-540.416c-33.75,-47.917 -7.5,-124.167 47.5,-142.5c36.667,-12.084 76.667,1.666 97.917,33.75l160.417,240.416c16.666,25.417 50.833,32.084 76.25,15.417c15.416,-10 24.583,-27.5 24.583,-45.833l-0,-906.667c-0,-45.417 37.083,-82.5 82.5,-82.5c45.417,0 82.5,37.083 82.5,82.5l-0,576.667c-0,30.416 24.583,55 55,55c30.417,-0 55,-24.584 55,-55l-0,-576.667c-0,-45.417 37.083,-82.5 82.5,-82.5c45.417,0 82.5,37.083 82.5,82.5l-0,576.667c-0,30.416 24.583,55 55,55c30.417,-0 55,-24.584 55,-55l-0,-82.5c-0,-45.417 37.083,-82.5 82.5,-82.5c45.417,-0 82.5,37.083 82.5,82.5l-0,82.5c-0,30.416 24.583,55 55,55c30.417,-0 55,-24.584 55,-55l-0,-82.5c-0,-45.417 37.083,-82.5 82.5,-82.5c45.417,-0 82.5,37.083 82.5,82.5l-0,851.666Z" style="fill-rule:nonzero;"/></g></svg>