<?xml version="1.0" encoding="UTF-8" standalone="no"?><!DOCTYPE svg PUBLIC "-//W3C//DTD SVG 1.1//EN" "http://www.w3.org/Graphics/SVG/1.1/DTD/svg11.dtd"><svg width="100%" height="100%" viewBox="0 0 4500 4500" version="1.1" xmlns="http://www.w3.org/2000/svg" xmlns:xlink="http://www.w3.org/1999/xlink" xml:space="preserve" xmlns:serif="http://www.serif.com/" style="fill-rule:evenodd;clip-rule:evenodd;stroke-miterlimit:10;"><rect x="197.5" y="197.5" width="4103.33" height="4103.33" style="fill:#fff;stroke:#1d1d1b;stroke-width:125px;"/><g><rect x="463.75" y="495" width="3327.92" height="539.583" style="fill:none;stroke:#000;stroke-width:125px;"/><rect x="463.75" y="1289.17" width="3327.92" height="2170" style="fill:none;stroke:#000;stroke-width:125px;"/><rect x="2450.83" y="632.083" width="1159.58" height="269.583"/><rect x="617.917" y="632.083" width="269.583" height="269.583"/><rect x="1138.33" y="632.083" width="269.583" height="269.583"/><rect x="1658.75" y="632.083" width="269.583" height="269.583"/><rect x="2445.83" y="1507.92" width="1159.58" height="135"/><rect x="2445.83" y="1777.5" width="1159.58" height="135"/><rect x="2445.83" y="2046.67" width="1159.58" height="135"/><g><rect x="2445.83" y="3192.92" width="1159.58" height="135"/><path d="M2445.89,2316.14l0,1005.83l135,-0l-0,-1005.83l-135,0Z"/><path d="M2738.16,2536.65l0,785.417l135,-0l0,-785.417l-135,-0Z"/><path d="M3030.58,2765.77l0,556.25l135,0l0,-556.25l-135,0Z"/><path d="M3323.19,2316.36l-0,1005.83l135,0l-0,-1005.83l-135,0Z"/></g><g><path d="M2094.58,2174.17c-14.166,-158.75 -78.75,-303.334 -177.916,-416.667l-416.667,416.667l594.583,-0Z" style="fill-rule:nonzero;"/><path d="M1368.75,2304.17l0,-0.417l-0.417,0.417l-550,-549.584c-114.166,129.167 -183.75,298.75 -183.75,484.584c0,404.166 327.5,731.666 731.667,731.666c382.083,0 695.833,-292.916 728.75,-666.666l-726.25,-0Z" style="fill-rule:nonzero;"/><path d="M1369.17,2121.67l453.75,-453.75c-125,-100 -283.75,-160 -456.667,-160c-171.25,-0 -328.75,58.75 -453.333,157.5l456.25,456.25Z" style="fill-rule:nonzero;"/></g></g><g><path d="M4072.92,3338.33l-0,-228.75c-0,-290.416 -237.5,-528.333 -528.334,-528.333l-109.166,0c-290.417,0 -528.334,237.5 -528.334,528.333l0,228.75c-0.833,126.25 -1.666,215 -1.666,215c-0,0 0.416,1.667 1.666,5l0,11.25c0,249.167 175,459.584 407.917,514.167l-57.5,156.667l-26.25,-0c-0.417,0.416 -0.417,1.25 -0.833,1.666l513.333,0c0,-0.416 0,-1.25 0.417,-1.666l-12.917,-0l-57.917,-157.917c227.5,-56.25 397.5,-262.083 398.75,-505.833c0.834,-7.917 1.25,-15.417 1.25,-23.334c0.834,-74.166 0,-150.416 -0.416,-215Z" style="fill:#1d1d1b;fill-rule:nonzero;"/><path d="M2335.42,4240.42l-17.5,-0l-115,-151.25l-0,-784.584l53.333,-0.416l126.667,-137.084c-0,0 36.666,-143.75 -64.167,-143.75l-118.333,0l-2.084,-101.25c0,0 -167.083,-408.333 -370.416,0l-0,1234.17c-0,0 -0.834,35.833 7.083,85.833l502.083,0c-0.833,-0.416 -1.25,-1.25 -1.666,-1.666Z" style="fill:#1d1d1b;fill-rule:nonzero;"/></g></svg>