<?xml version="1.0" encoding="UTF-8" standalone="no"?><!DOCTYPE svg PUBLIC "-//W3C//DTD SVG 1.1//EN" "http://www.w3.org/Graphics/SVG/1.1/DTD/svg11.dtd"><svg width="100%" height="100%" viewBox="0 0 4500 4500" version="1.1" xmlns="http://www.w3.org/2000/svg" xmlns:xlink="http://www.w3.org/1999/xlink" xml:space="preserve" xmlns:serif="http://www.serif.com/" style="fill-rule:evenodd;clip-rule:evenodd;stroke-miterlimit:10;"><rect x="197.5" y="197.5" width="4103.33" height="4103.33" style="fill:#fff;stroke:#1d1d1b;stroke-width:125px;"/><g><path d="M3368.33,3795.42l0,-3201.67l-106.666,0l-0,3201.67l-213.334,-0l0,-533.75l106.667,-0l0,-410c0,-96.667 -26.667,-188.75 -75,-267.5c14.167,-37.5 21.667,-78.334 21.667,-122.917c-0,-123.333 -77.5,-195.417 -140,-253.333c-32.917,-30.417 -63.75,-59.167 -79.167,-90.417c-15.833,-31.667 -3.333,-74.583 18.333,-142.083c19.167,-60 40.834,-127.5 40.834,-207.5c-0,-142.5 -73.75,-247.084 -106.667,-287.084l-0,-6.25c-0,-338.333 -275.417,-613.75 -613.75,-613.75c-338.333,0 -613.75,275.417 -613.75,613.75l-0,366.667c-57.083,32.083 -160,116.25 -160,300.417c-0,110.416 60,202.5 136.25,276.25c-150,92.916 -242.917,256.25 -242.917,434.166l0,410l106.667,0l-0,533.75l-213.333,0l-0,-3202.08l-106.667,0l-0,3201.67l-533.75,-0l0,106.666l3308.33,0l0,-106.666l-533.75,-0Zm-426.666,-0l-213.334,-0l0,-533.75l213.334,-0l-0,533.75Zm106.666,-640.417l-320,0l0,-307.5c0,-53.333 29.584,-101.25 77.084,-125l-47.917,-95.417c-83.75,42.084 -136.25,126.667 -136.25,220.417l0,947.917l-746.667,-0l0,-843.334c0.834,2.084 2.084,4.167 2.917,6.25l19.583,58.334l55,-27.5c197.5,-98.75 234.584,-241.25 241.25,-351.25l61.25,76.666l181.25,-302.083l264.584,37.917c43.333,6.25 85,19.166 123.75,38.75c138.333,69.166 224.166,207.916 224.166,362.5l0,303.333Zm-800.416,-960.417c-176.667,0 -320,-143.75 -320,-320l-0,-345l107.5,-71.666c106.25,62.916 227.083,96.25 351.666,96.25l181.25,-0l0,320c-0.416,176.666 -143.75,320.416 -320.416,320.416Zm-0,106.667c37.083,0 72.5,-5 106.666,-14.167l0,52.5l-112.916,188.75l-76.25,-95.416c-14.584,-29.584 -33.75,-53.75 -53.75,-75.834c12.083,-22.916 19.166,-47.5 23.333,-71.25c35.833,9.584 73.75,15.417 112.917,15.417Zm-570,-376.25l36.666,-12.083l0,-438.75c0,-279.584 227.5,-507.084 507.084,-507.084c279.583,0 507.083,227.5 507.083,507.084l0,48.75l15.833,15.833c0.834,0.833 91.25,92.5 91.25,229.167c0,63.333 -18.333,120 -35.833,175c-24.583,77.083 -47.917,150.416 -12.083,222.5c24.166,48.333 63.75,85.416 102.083,120.833c56.667,52.917 105.833,98.333 105.833,175.417c0,5.833 -1.25,10.833 -1.666,16.666c-35.417,-33.333 -76.25,-62.083 -121.25,-84.583c-49.167,-24.583 -102.084,-41.25 -156.667,-48.75l-254.167,-36.25l0,-65c127.5,-73.75 213.334,-211.667 213.334,-369.167l-0,-427.083l-287.917,0c-115.417,0 -227.083,-33.75 -322.917,-97.917l-29.583,-19.583l-214.167,142.5l0,402.083c0,157.084 85.417,294.167 212.084,368.334c-2.5,31.666 -10,62.5 -29.584,84.166l-34.166,37.917l36.25,36.25c51.666,51.667 82.916,82.5 82.916,167.083c0,94.584 0,210 -137.5,299.167c-39.166,-60 -100.416,-104.583 -156.25,-144.583c-82.916,-60 -133.333,-100 -133.333,-154.584c-0,-32.083 5.833,-57.5 12.917,-76.666c112.083,79.583 225.833,123.333 235.416,126.666l37.5,-100c-109.166,-40.833 -392.5,-188.333 -392.5,-377.083c-0.416,-170 118.75,-214.583 123.334,-216.25Zm-230.417,926.667c0,-103.334 40,-200.417 107.917,-273.75c5.416,107.083 95.833,173.333 176.25,231.666c12.083,8.75 24.166,17.5 36.25,26.667l-0,319.583l-320,0c-0.417,-0.833 -0.417,-304.166 -0.417,-304.166Zm106.667,410l213.333,-0l0,533.75l-213.333,-0l-0,-533.75Z" style="fill-rule:nonzero;"/><path d="M3722.5,1893.75c-187.083,-187.083 -187.083,-492.083 0,-679.167l-75.417,-75.416c-228.75,228.75 -228.75,601.25 0,830l75.417,-75.417Z" style="fill-rule:nonzero;"/><path d="M3797.92,1818.33l75.416,-75.416c-50.416,-50.417 -78.333,-117.5 -78.333,-188.75c0,-71.25 27.917,-138.334 78.333,-188.75l-75.416,-75.417c-70.417,70.417 -109.584,164.167 -109.584,264.167c0.417,100 39.167,193.75 109.584,264.166Z" style="fill-rule:nonzero;"/><path d="M773.333,1893.75l75.417,75.417c228.75,-228.75 228.75,-601.25 0,-830l-75.417,75.416c187.084,187.5 187.084,492.084 0,679.167Z" style="fill-rule:nonzero;"/><path d="M697.917,1818.33c70.416,-70.416 109.583,-164.166 109.583,-264.166c0,-99.584 -38.75,-193.334 -109.583,-264.167l-75.417,75.417c50.417,50.416 78.333,117.5 78.333,188.75c0,71.25 -27.916,138.333 -78.333,188.75l75.417,75.416Z" style="fill-rule:nonzero;"/><path d="M2034.58,1874.58c0,117.917 95.834,213.334 213.334,213.334c117.5,-0 213.333,-95.834 213.333,-213.334l0,-106.666l-426.667,-0l0,106.666Zm320,0c0,58.75 -47.916,106.667 -106.666,106.667c-58.75,0 -106.667,-47.917 -106.667,-106.667l213.333,0Z" style="fill-rule:nonzero;"/></g></svg>