<?xml version="1.0" encoding="UTF-8" standalone="no"?><!DOCTYPE svg PUBLIC "-//W3C//DTD SVG 1.1//EN" "http://www.w3.org/Graphics/SVG/1.1/DTD/svg11.dtd"><svg width="100%" height="100%" viewBox="0 0 4500 4500" version="1.1" xmlns="http://www.w3.org/2000/svg" xmlns:xlink="http://www.w3.org/1999/xlink" xml:space="preserve" xmlns:serif="http://www.serif.com/" style="fill-rule:evenodd;clip-rule:evenodd;stroke-miterlimit:10;"><rect x="197.5" y="197.5" width="4103.33" height="4103.33" style="fill:#fff;stroke:#1d1d1b;stroke-width:125px;"/><g><g><g><path d="M2871.67,3689.58c-28.334,0 -51.667,-22.916 -51.667,-51.666c0,-28.75 22.917,-51.667 51.25,-51.667l0.417,0c28.333,0 51.666,22.917 51.666,51.667c0,28.75 -22.916,51.666 -51.666,51.666Z" style="fill-rule:nonzero;"/></g><g><path d="M3077.92,3689.58c-28.334,0 -51.667,-22.916 -51.667,-51.666c0,-28.75 22.917,-51.667 51.25,-51.667l0.417,0c28.333,0 51.666,22.917 51.666,51.667c0,28.75 -22.916,51.666 -51.666,51.666Z" style="fill-rule:nonzero;"/></g><g><path d="M3284.58,3689.58c-28.333,0 -51.666,-22.916 -51.666,-51.666c-0,-28.75 22.916,-51.667 51.25,-51.667l0.416,0c28.334,0 51.667,22.917 51.667,51.667c0,28.75 -23.333,51.666 -51.667,51.666Z" style="fill-rule:nonzero;"/></g><g><path d="M1220.83,3689.58c-28.333,0 -51.666,-22.916 -51.666,-51.666c-0,-28.75 22.916,-51.667 51.25,-51.667l0.416,0c28.334,0 51.667,22.917 51.667,51.667c0,28.75 -23.333,51.666 -51.667,51.666Z" style="fill-rule:nonzero;"/></g><g><path d="M1427.08,3689.58c-28.333,0 -51.666,-22.916 -51.666,-51.666c-0,-28.75 22.916,-51.667 51.25,-51.667l0.416,0c28.334,0 51.667,22.917 51.667,51.667c0,28.75 -23.333,51.666 -51.667,51.666Z" style="fill-rule:nonzero;"/></g><g><path d="M1633.33,3689.58c-28.333,0 -51.666,-22.916 -51.666,-51.666c-0,-28.75 22.916,-51.667 51.25,-51.667l0.416,0c28.334,0 51.667,22.917 51.667,51.667c0,28.75 -22.917,51.666 -51.667,51.666Z" style="fill-rule:nonzero;"/></g><g><path d="M3540.83,3895.83l-2579.58,0c-199.167,0 -361.25,-162.083 -361.25,-361.25l0,-2579.58c0,-199.167 162.083,-361.25 361.25,-361.25l2579.58,0c199.167,0 361.25,162.083 361.25,361.25l0,2579.58c0,199.167 -162.083,361.25 -361.25,361.25Zm-2579.58,-3198.75c-142.083,0 -257.917,115.834 -257.917,257.917l0,2579.58c0,142.084 115.834,257.917 257.917,257.917l2579.58,0c142.084,0 257.917,-115.833 257.917,-257.917l0,-2579.58c0,-142.083 -115.833,-257.917 -257.917,-257.917l-2579.58,0Z" style="fill-rule:nonzero;"/></g><g><path d="M3489.17,3276.67l-2476.25,-0c-28.334,-0 -51.667,-22.917 -51.667,-51.667c0,-28.75 22.917,-51.667 51.667,-51.667l2476.67,0c28.334,0 51.667,22.917 51.667,51.667c0,28.75 -23.333,51.667 -52.083,51.667Z" style="fill-rule:nonzero;"/></g><g><g><path d="M2560.42,3276.67c-28.334,-0 -51.667,-22.917 -51.667,-51.667l0,-877.083l-876.667,-0l0,877.083c0,28.333 -22.916,51.667 -51.666,51.667c-28.75,-0 -51.667,-22.917 -51.667,-51.667l0,-928.75c0,-28.333 22.917,-51.667 51.667,-51.667l980.416,0c28.334,0 51.667,22.917 51.667,51.667l0,928.75c-0.417,28.75 -23.333,51.667 -52.083,51.667Z" style="fill-rule:nonzero;"/></g><g><path d="M2921.67,3276.67c-28.334,-0 -51.667,-22.917 -51.667,-51.667l0,-877.083l-980,-0c-28.333,-0 -51.667,-22.917 -51.667,-51.667c0,-28.75 22.917,-51.667 51.667,-51.667l1032.08,0c28.334,0 51.667,22.917 51.667,51.667l0,928.75c-0.417,28.75 -23.333,51.667 -52.083,51.667Z" style="fill-rule:nonzero;"/></g></g><g><path d="M2044.58,1367.5l-1031.67,0c-28.334,0 -51.667,-22.917 -51.667,-51.667c-0,-28.75 22.917,-51.666 51.667,-51.666l1032.08,-0c28.333,-0 51.667,22.916 51.667,51.666c-0,28.75 -23.334,51.667 -52.084,51.667Z" style="fill-rule:nonzero;"/></g><g><path d="M2044.58,1677.08l-1031.67,0c-28.334,0 -51.667,-22.916 -51.667,-51.666c-0,-28.75 22.917,-51.667 51.667,-51.667l1032.08,0c28.333,0 51.667,22.917 51.667,51.667c-0,28.75 -23.334,51.666 -52.084,51.666Z" style="fill-rule:nonzero;"/></g><g><path d="M3489.17,1367.5l-1031.67,0c-28.333,0 -51.667,-22.917 -51.667,-51.667c0,-28.75 22.917,-51.666 51.667,-51.666l1032.08,-0c28.334,-0 51.667,22.916 51.667,51.666c0,28.75 -23.333,51.667 -52.083,51.667Z" style="fill-rule:nonzero;"/></g><g><path d="M3489.17,1677.08l-1031.67,0c-28.333,0 -51.667,-22.916 -51.667,-51.666c0,-28.75 22.917,-51.667 51.667,-51.667l1032.08,0c28.334,0 51.667,22.917 51.667,51.667c0,28.75 -23.333,51.666 -52.083,51.666Z" style="fill-rule:nonzero;"/></g><g><path d="M2457.5,1832.08l-412.917,0c-28.333,0 -51.666,-22.916 -51.666,-51.666l-0,-619.167c-0,-28.333 22.916,-51.667 51.666,-51.667l412.917,0c28.333,0 51.667,22.917 51.667,51.667l-0,619.167c-0,28.75 -23.334,51.666 -51.667,51.666Zm-361.25,-103.333l309.583,0l0,-515.833l-309.583,-0l0,515.833Z" style="fill-rule:nonzero;"/></g><g><path d="M2147.92,2038.33c-28.334,0 -51.667,-22.916 -51.667,-51.666l0,-206.25c0,-28.334 22.917,-51.667 51.667,-51.667c28.333,0 51.666,22.917 51.666,51.667l0,206.25c0,28.75 -23.333,51.666 -51.666,51.666Z" style="fill-rule:nonzero;"/></g><g><path d="M2354.17,2038.33l-206.25,0c-28.334,0 -51.667,-22.916 -51.667,-51.666c0,-28.75 22.917,-51.667 51.667,-51.667l206.25,0c28.333,0 51.666,22.917 51.666,51.667c0,28.75 -22.916,51.666 -51.666,51.666Z" style="fill-rule:nonzero;"/></g><g><path d="M2354.17,2038.33c-28.334,0 -51.667,-22.916 -51.667,-51.666l0,-206.25c0,-28.334 22.917,-51.667 51.667,-51.667c28.75,0 51.666,22.917 51.666,51.667l0,206.25c0,28.75 -22.916,51.666 -51.666,51.666Z" style="fill-rule:nonzero;"/></g><g><path d="M2250.83,2141.67c-28.333,-0 -51.666,-22.917 -51.666,-51.667l-0,-103.333c-0,-28.334 22.916,-51.667 51.666,-51.667c28.75,0 51.667,22.917 51.667,51.667l0,103.333c0,28.333 -22.917,51.667 -51.667,51.667Z" style="fill-rule:nonzero;"/></g><g><path d="M3489.17,3482.92l-2476.25,-0c-28.334,-0 -51.667,-22.917 -51.667,-51.667l0,-2425c0,-28.333 22.917,-51.667 51.667,-51.667l2476.67,0c28.334,0 51.667,22.917 51.667,51.667l0,2425c-0.417,28.75 -23.333,51.667 -52.083,51.667Zm-2425,-102.917l2373.33,0l0,-2322.08l-2373.33,-0l-0,2322.08Z" style="fill-rule:nonzero;"/></g><g><path d="M2612.08,3689.58l-722.083,0c-28.333,0 -51.667,-22.916 -51.667,-51.666c0,-28.75 22.917,-51.667 51.667,-51.667l722.5,0c28.333,0 51.667,22.917 51.667,51.667c-0,28.75 -23.334,51.666 -52.084,51.666Z" style="fill-rule:nonzero;"/></g></g></g></svg>