<?xml version="1.0" encoding="utf-8"?>
<!-- Generator: Adobe Illustrator 23.1.1, SVG Export Plug-In . SVG Version: 6.00 Build 0)  -->
<svg version="1.1" id="Layer_1" xmlns="http://www.w3.org/2000/svg" xmlns:xlink="http://www.w3.org/1999/xlink" x="0px" y="0px"
	 viewBox="0 0 1080 1080" style="enable-background:new 0 0 1080 1080;" xml:space="preserve">
<style type="text/css">
	.st0{fill:#FFFFFF;}
	.st1{fill:none;stroke:#FFFFFF;stroke-width:30;stroke-miterlimit:10;}
	.st2{fill:#010101;}
</style>
<g>
	<path class="st0" d="M138.5,942.7c5.5,5.8,14.6,6,20.4,0.5c0.2-0.2,0.3-0.3,0.5-0.5l23.9-23.9c5.8-5.8,5.8-15.1,0-20.9
		s-15.1-5.8-20.9,0l-23.9,23.9C132.5,926.3,132.5,936.7,138.5,942.7z"/>
	<path class="st0" d="M229.5,872.5l19.4-19.4c6-5.5,6.4-14.9,0.9-20.9s-14.9-6.4-20.9-0.9c-0.3,0.3-0.6,0.6-0.9,0.9l-19.4,19.4
		c-5.6,5.9-5.4,15.3,0.5,20.9C214.8,878,223.8,878,229.5,872.5L229.5,872.5z"/>
	<path class="st0" d="M295.2,765.1l-19.4,19.4c-5.6,5.9-5.4,15.3,0.5,20.9c5.7,5.5,14.7,5.5,20.4,0l19.4-19.4
		c5.8-5.5,6-14.6,0.5-20.4c-0.2-0.2-0.3-0.3-0.5-0.5C310.1,759.1,299.7,759.1,295.2,765.1z"/>
	<path class="st0" d="M916.1,896.4c-5.6-5.9-15-6.1-20.9-0.5s-6.1,15-0.5,20.9c0.2,0.2,0.3,0.3,0.5,0.5l23.9,23.9
		c5.6,5.9,15,6.1,20.9,0.5s6.1-15,0.5-20.9c-0.2-0.2-0.3-0.3-0.5-0.5L916.1,896.4z"/>
	<path class="st0" d="M831.1,832.3c-5.8,5.5-6,14.6-0.5,20.4c0.2,0.2,0.3,0.3,0.5,0.5l19.4,19.4c6,5.5,15.3,5.2,20.9-0.8
		c5.2-5.7,5.2-14.4,0-20.1L852,832.3c-5.5-5.8-14.6-6-20.4-0.5C831.4,831.9,831.2,832.1,831.1,832.3z"/>
	<path class="st0" d="M763.9,765.1c-5.8,5.5-6,14.6-0.5,20.4c0.2,0.2,0.3,0.3,0.5,0.5l19.4,19.4c5.9,5.6,15.3,5.4,20.9-0.5
		c5.5-5.7,5.5-14.7,0-20.4l-19.4-19.4C780.3,759.1,769.9,759.1,763.9,765.1z"/>
	<path class="st0" d="M941.5,139.7c-5.5-5.8-14.6-6-20.4-0.5c-0.2,0.2-0.3,0.3-0.5,0.5l-23.9,23.8c-5.8,5.8-5.8,15.1,0,20.9
		s15.1,5.8,20.9,0l0,0l23.9-23.9C947.5,156.1,947.5,145.6,941.5,139.7z"/>
	<path class="st0" d="M852,250.1l19.4-19.4c5.6-5.9,5.4-15.3-0.5-20.9c-5.7-5.5-14.7-5.5-20.4,0L831,229.2c-5.9,5.6-6.1,15-0.5,20.9
		s15,6.1,20.9,0.5C851.6,250.4,851.8,250.3,852,250.1L852,250.1z"/>
	<path class="st0" d="M784.8,317.3l19.4-19.4c5.6-5.9,5.4-15.3-0.5-20.9c-5.7-5.5-14.7-5.5-20.4,0l-19.4,19.4
		c-5.8,5.5-6,14.6-0.5,20.4c0.2,0.2,0.3,0.3,0.5,0.5C769.9,323.2,780.3,323.2,784.8,317.3z"/>
	<path class="st0" d="M184.8,185.9c5.8-5.5,6-14.6,0.5-20.4c-0.2-0.2-0.3-0.3-0.5-0.5l-23.9-25.3c-5.9-5.6-15.3-5.4-20.9,0.5
		c-5.5,5.7-5.5,14.7,0,20.4l23.9,23.9C169.8,191.9,178.8,191.9,184.8,185.9z"/>
	<path class="st0" d="M208.6,209.8c-5.8,5.5-6,14.6-0.5,20.4c0.2,0.2,0.3,0.3,0.5,0.5l19.4,19.4c5.5,6,14.9,6.3,20.9,0.8
		s6.3-14.9,0.8-20.9c-0.3-0.3-0.5-0.6-0.8-0.8l-19.4-19.4c-5.5-5.8-14.6-6-20.4-0.5C209,209.5,208.8,209.6,208.6,209.8z"/>
	<path class="st0" d="M296.7,277c-5.9-5.6-15.3-5.4-20.9,0.5c-5.5,5.7-5.5,14.7,0,20.4l19.4,19.4c5.9,5.6,15.3,5.4,20.9-0.5
		c5.5-5.7,5.5-14.7,0-20.4L296.7,277z"/>
	<path class="st0" d="M540,377.6c-90.3,0-163.6,73.3-163.6,163.6S449.7,704.7,540,704.7s163.6-73.3,163.6-163.6
		c0.1-90.2-72.7-163.3-162.9-163.6C540.4,377.6,540.3,377.6,540,377.6z M540,638.4c-53,0-97.3-44.3-97.3-97.3s44.3-97.3,97.3-97.3
		c53,0,97.3,44.3,97.3,97.3S593,638.4,540,638.4z"/>
	<path class="st0" d="M540,488.2c-28.7,0-53,24.3-53,53s24.3,53,53,53c28.7,0,53-24.3,53-53C593,512.5,568.7,488.2,540,488.2z"/>
</g>
<rect x="47.1" y="48.1" class="st1" width="984.8" height="984.8"/>
<path class="st0" d="M928.1,531.5c-7.5-9-174.6-206-388.1-206c-212,0-380.6,198.5-388.1,206c-4.5,5.7-4.5,13.7,0,19.4
	c7.5,9,174.6,206,388.1,206c212,0,380.6-197,388.1-206C932.6,544.9,932.6,536,928.1,531.5z M894.5,549
	c-6.8,7.9-160.2,180.6-353,180.6c-194.2,0-346.2-172.7-353-180.6c-4.1-5-4.1-12,0-17c6.8-6.6,160.2-180.6,353-180.6
	c194.2,0,346.2,172.7,353,180.6C898.6,535.9,898.6,543.7,894.5,549z"/>
</svg>
