<?xml version="1.0" encoding="utf-8"?>
<!-- Generator: Adobe Illustrator 23.1.1, SVG Export Plug-In . SVG Version: 6.00 Build 0)  -->
<svg version="1.1" id="Layer_1" xmlns="http://www.w3.org/2000/svg" xmlns:xlink="http://www.w3.org/1999/xlink" x="0px" y="0px"
	 viewBox="0 0 1080 1080" style="enable-background:new 0 0 1080 1080;" xml:space="preserve">
<style type="text/css">
	.st0{fill:none;stroke:#FFFFFF;stroke-width:30;stroke-miterlimit:10;}
	.st1{fill:#FFFFFF;}
</style>
<rect x="47.4" y="47.4" class="st0" width="984.8" height="984.8"/>
<g>
	<path class="st1" d="M715.7,564.2l30.6-30.6l-17.9-17.9l-30.6,30.6c-2.3,2.3-5.7,3.7-9,3.7h-83.5l-41.7,41.7l17.9,17.9l34.3-34.3
		h73C698.8,575.4,708.6,571.3,715.7,564.2z"/>
	
		<rect x="529.2" y="613.4" transform="matrix(0.7071 -0.7071 0.7071 0.7071 -282.4514 570.2432)" class="st1" width="35.9" height="25.4"/>
	<path class="st1" d="M688.8,626.1c23.7,0,46-9.2,62.8-26L921.6,430c9.2-9.2,14.2-21.4,14.2-34.3c0-22-14.8-40.4-35-46.4l20.7-20.7
		c9.2-9.2,14.2-21.4,14.2-34.3c0-22.3-15.2-40.9-35.6-46.6c6.5-8.5,10.3-18.6,10.3-29.5c0-26.8-21.8-48.5-48.5-48.5
		c-10.9,0-21,3.7-29.5,10.3c-5.7-20.5-24.3-35.6-46.6-35.6c-13,0-25.2,5-34.3,14.2L642.2,267.9c-2.2-7.7-6.1-14.9-12-20.8
		c-9-9.1-21.1-14-34.4-14c-13,0-25.3,5-34.4,14.2l-94.1,94.1c-12.2,12.2-20.3,27.3-23.9,43.8h-34.8l-33.9-33.9
		c17.9-21.8,28.7-49.8,28.7-80.2c0-69.9-56.9-126.8-126.8-126.8s-126.8,56.9-126.8,126.8s56.9,126.8,126.8,126.8
		c30.4,0,58.3-10.8,80.2-28.7l41.4,41.4h43.3v19.2c0,16.9-6.6,32.8-18.6,44.8L144.5,752.9l182.7,182.7l123.9-123.9
		c16.3,18.3,39.9,29.9,66.3,29.9c19.9,0,38.2-6.7,53-17.8L677,930.3h258.8V905h-25.4V727.5h-76.1V905H809V803.6h-76.1V905h-45.5
		l-99.1-99.1c11.1-14.8,17.8-33.1,17.8-53c0-26.4-11.6-50-29.9-66.3l60.5-60.5H688.8z M338.5,315.1c6.5-9.2,11-19.8,13-31.3h25.6
		c-2.3,18.5-9.6,35.4-20.5,49.4L338.5,315.1z M285.5,262.1l-17.9,17.9l34.6,34.6c-7.5,4.5-16.2,7.2-25.6,7.2
		c-28,0-50.7-22.7-50.7-50.7s22.7-50.7,50.7-50.7s50.7,22.7,50.7,50.7c0,9.4-2.7,18.1-7.2,25.6L285.5,262.1z M377.1,258.4h-25.6
		c-5.4-31.8-30.5-56.9-62.2-62.2v-25.6C335,176.3,371.3,212.6,377.1,258.4z M263.9,170.5v25.6c-31.8,5.4-56.9,30.5-62.2,62.2H176
		C181.7,212.6,218.1,176.3,263.9,170.5z M176,283.8h25.6c5.4,31.8,30.5,56.9,62.2,62.2v25.6C218.1,365.9,181.7,329.6,176,283.8z
		 M289.2,371.6V346c11.5-2,22.2-6.5,31.3-13l18.1,18.1C324.6,362,307.7,369.3,289.2,371.6z M859.7,752.9h25.4V905h-25.4V752.9z
		 M758.3,828.9h25.4V905h-25.4V828.9z M887.3,372.5c12.8,0,23.2,10.4,23.2,23.2c0,6.2-2.4,12-6.8,16.4L859.7,456l-32.8-32.8
		l43.9-43.9C875.2,374.9,881.1,372.5,887.3,372.5z M783.7,430.7l-32.8-32.8l3.7-3.7l54.4-54.4l32.8,32.8L783.7,430.7z M682.2,329.2
		l-32.8-32.8l58.1-58.1l32.8,32.8L686,325.5L682.2,329.2z M783.7,263.7l32.8,32.8l-58.1,58.1l-32.8-32.8L783.7,263.7z M910.4,294.3
		c0,6.2-2.4,12-6.8,16.4l-43.9,43.9l-32.8-32.8l43.9-43.9c4.4-4.4,10.2-6.8,16.4-6.8C900,271.1,910.4,281.5,910.4,294.3z M861.9,195
		c12.8,0,23.2,10.4,23.2,23.2c0,6.2-2.4,12-6.8,16.4L852.9,260l-18.6,18.6l-32.8-32.8l18.6-18.6l25.4-25.4
		C849.9,197.4,855.7,195,861.9,195z M769.4,176.5c4.4-4.4,10.2-6.8,16.4-6.8c12.8,0,23.2,10.4,23.2,23.2c0,6.2-2.4,12-6.8,16.4
		l-43.9,43.9l-32.8-32.8L769.4,176.5z M440.5,708.7l-108-108l32.8-32.8l108,108C459.7,683.8,448.4,695.1,440.5,708.7z M398.1,702.1
		l-96.2,96.2v38l-19,19l-64.5-64.5l88.7-88.7h38l26.4-26.4L398.1,702.1z M314.6,618.6l39.1,39.1l-19,19h-38L200.5,773l-20.1-20.1
		L314.6,618.6z M327.3,899.7l-26.4-26.4l26.4-26.4v-38l88.7-88.7l14.6,14.6c-1.2,5.9-1.9,12-1.9,18.2c0,13.3,3,25.9,8.3,37.2
		L327.3,899.7z M580.8,752.9c0,35-28.4,63.4-63.4,63.4c-35,0-63.4-28.4-63.4-63.4s28.4-63.4,63.4-63.4
		C552.4,689.5,580.8,717.9,580.8,752.9z M554.6,672.4c-11.3-5.3-23.9-8.3-37.2-8.3c-6.2,0-12.3,0.7-18.2,1.9l-116-116l57.5-57.5
		c16.8-16.8,26-39,26-62.8V404c0-16.9,6.6-32.8,18.5-44.8l94.1-94.1c8.2-8.2,23.9-9.2,33-0.2c4.2,4.2,6.6,9.9,6.6,15.9v10.3
		l-34.3,34.3l-16.4,16.4v5.2c0,37.5-14.6,72.7-41.1,99.3l-5.9,5.9l17.9,17.9l5.9-5.9c30-30,47.1-69.6,48.5-111.8l9.1-9.1l29.1-29.1
		l32.8,32.8l-29.1,29.1l17.9,17.9l50.7-50.7l3.7-3.7l32.8,32.8l-3.7,3.7L686,426.9l17.9,17.9l29.1-29.1l32.8,32.8l-29.1,29.1
		l17.9,17.9l54.4-54.4l32.8,32.8L733.6,582.2c-12,12-27.9,18.6-44.8,18.6h-62.5L554.6,672.4z"/>
	<path class="st1" d="M517.4,714.8c-21,0-38,17.1-38,38s17.1,38,38,38c21,0,38-17.1,38-38S538.4,714.8,517.4,714.8z M517.4,765.5
		c-7,0-12.7-5.7-12.7-12.7s5.7-12.7,12.7-12.7c7,0,12.7,5.7,12.7,12.7S524.4,765.5,517.4,765.5z"/>
</g>
</svg>
