<?xml version="1.0" encoding="utf-8"?>
<!-- Generator: Adobe Illustrator 23.1.1, SVG Export Plug-In . SVG Version: 6.00 Build 0)  -->
<svg version="1.1" id="Layer_1" xmlns="http://www.w3.org/2000/svg" xmlns:xlink="http://www.w3.org/1999/xlink" x="0px" y="0px"
	 viewBox="0 0 1080 1080" style="enable-background:new 0 0 1080 1080;" xml:space="preserve">
<style type="text/css">
	.st0{fill:#FFFFFF;}
	.st1{fill:none;stroke:#FFFFFF;stroke-width:30;stroke-miterlimit:10;}
	.st2{fill:#FFFFFF;stroke:#FFFFFF;stroke-width:12;stroke-miterlimit:10;}
</style>
<g>
	<path class="st0" d="M540.5,532.4c-2.7,0-5.2,1-7.2,2.8l-3.9-3.2l-2.5,3l3.9,3.2c-1,1.6-1.5,3.5-1.6,5.4c0,6.2,5,11.2,11.2,11.2
		s11.2-5,11.2-11.2C551.7,537.4,546.7,532.4,540.5,532.4L540.5,532.4L540.5,532.4z"/>
	<circle class="st0" cx="684.5" cy="608.5" r="11.2"/>
	<path class="st0" d="M661.8,435.2c0,1.9,0.6,3.7,1.6,5.4l-3.7,3l2.5,3l3.7-3c2,1.8,4.5,2.8,7.2,2.8c6.2,0,11.2-5,11.2-11.2
		s-5-11.2-11.2-11.2C666.8,423.9,661.8,429,661.8,435.2L661.8,435.2z"/>
	<circle class="st0" cx="407.6" cy="435.2" r="11.2"/>
	<circle class="st0" cx="540.7" cy="709.2" r="11.2"/>
	<path class="st0" d="M540.7,870.8c-3.4,0-6.6,1.7-8.7,4.4l-3.4-1.8l-1.8,3.4l3.4,1.8c-0.4,1.1-0.6,2.2-0.7,3.4
		c0,6.2,5,11.2,11.2,11.2s11.2-5,11.2-11.2C551.9,875.8,546.9,870.8,540.7,870.8L540.7,870.8z"/>
	<path class="st0" d="M673.3,799.8c-6.2,0-11.2,5-11.2,11.2l0,0c0,1.3,0.3,2.5,0.7,3.7l-2.9,1.5l1.8,3.4l3-1.6c2,2.5,5.1,4,8.3,4.1
		l0.4,3.4l3.9-0.4l-0.4-3.7c5.8-2,9-8.3,7-14.1C682.4,802.8,678.1,799.7,673.3,799.8z"/>
	<circle class="st0" cx="407.6" cy="811" r="11.2"/>
	<circle class="st0" cx="778.8" cy="435.2" r="11.2"/>
	<circle class="st0" cx="301.3" cy="435.2" r="11.2"/>
	<path class="st0" d="M601,667.9c0-1.4-0.3-2.9-0.8-4.2l3-1.9l-2.1-3.3l-3,1.9c-2.1-2.3-5.1-3.7-8.2-3.7c-0.7,0.1-1.5,0.2-2.2,0.4
		l-2.3-5.7l-3.6,1.4l2.3,5.7c-3.3,2-5.4,5.5-5.4,9.4c-0.2,6.2,4.7,11.4,10.8,11.6c6.2,0.2,11.4-4.7,11.6-10.8
		C601,668.4,601,668.1,601,667.9L601,667.9z"/>
	<path class="st0" d="M502.5,669.8h9.5v-3.9h-9.5c-0.5-3.1-2.4-5.8-5-7.4l2.2-5.5l-3.6-1.4l-2.2,5.6c-0.7-0.2-1.4-0.4-2.2-0.4
		c-6.2,0-11.2,5-11.2,11.2s5,11.2,11.2,11.2C497.1,679,501.6,675.1,502.5,669.8z"/>
	<path class="st0" d="M407.6,198.4c5.4,0,9.9-3.9,10.8-9.3h7.7v-3.9h-7.7c-0.9-5.3-5.4-9.2-10.8-9.3c-6.2,0.2-11,5.4-10.8,11.6
		C396.9,193.4,401.7,198.2,407.6,198.4L407.6,198.4z"/>
	<path class="st0" d="M668.9,197.4l-0.5-0.1l-2.7,9.4l3.7,1.1l2.7-9.4l-2.9-0.8c5.1,1.3,10.3-1.8,11.6-6.9
		c1.3-5.1-1.8-10.3-6.9-11.6c-5.1-1.3-10.3,1.8-11.6,6.9C661.1,190.9,664,196,668.9,197.4L668.9,197.4z"/>
	<path class="st0" d="M631.1,375.6c0-6.2-5-11.2-11.2-11.2l0,0c-5.4,0-9.9,4-10.8,9.3h-8.8v3.9h8.8c0.9,5.3,5.4,9.2,10.8,9.3
		C626,386.8,631.1,381.8,631.1,375.6L631.1,375.6z"/>
	<circle class="st0" cx="464.1" cy="375.6" r="11.2"/>
	
		<rect x="499.8" y="507.1" transform="matrix(0.6327 -0.7744 0.7744 0.6327 -212.1946 576.5713)" class="st0" width="3.9" height="9.7"/>
	
		<rect x="439.5" y="457.9" transform="matrix(0.6324 -0.7746 0.7746 0.6324 -196.2133 512.055)" class="st0" width="3.9" height="9.7"/>
	
		<rect x="454.6" y="470.3" transform="matrix(0.6327 -0.7744 0.7744 0.6327 -200.2422 528.0783)" class="st0" width="3.9" height="9.7"/>
	
		<rect x="469.7" y="482.5" transform="matrix(0.6322 -0.7748 0.7748 0.6322 -204.1589 544.6733)" class="st0" width="3.9" height="9.7"/>
	
		<rect x="484.8" y="494.8" transform="matrix(0.6327 -0.7744 0.7744 0.6327 -208.173 560.4817)" class="st0" width="3.9" height="9.7"/>
	
		<rect x="424.5" y="445.6" transform="matrix(0.6322 -0.7748 0.7748 0.6322 -192.1876 496.0554)" class="st0" width="3.9" height="9.7"/>
	
		<rect x="514.9" y="519.4" transform="matrix(0.6322 -0.7748 0.7748 0.6322 -216.1126 593.2542)" class="st0" width="3.9" height="9.7"/>
	
		<rect x="599.6" y="489.3" transform="matrix(0.7735 -0.6338 0.6338 0.7735 -174.449 494.355)" class="st0" width="9.7" height="3.9"/>
	
		<rect x="554.4" y="526.2" transform="matrix(0.7732 -0.6342 0.6342 0.7732 -208.1221 474.4735)" class="st0" width="9.7" height="3.9"/>
	
		<rect x="569.5" y="513.9" transform="matrix(0.7744 -0.6327 0.6327 0.7744 -196.8125 479.7564)" class="st0" width="9.7" height="3.9"/>
	
		<rect x="644.7" y="452.4" transform="matrix(0.7737 -0.6335 0.6335 0.7737 -140.89 514.2956)" class="st0" width="9.7" height="3.9"/>
	
		<rect x="584.5" y="501.6" transform="matrix(0.7744 -0.6327 0.6327 0.7744 -185.6645 486.4924)" class="st0" width="9.7" height="3.9"/>
	
		<rect x="629.7" y="464.6" transform="matrix(0.7744 -0.6327 0.6327 0.7744 -152.0508 506.7262)" class="st0" width="9.7" height="3.9"/>
	<rect x="610" y="477.1" transform="matrix(0.774 -0.6332 0.6332 0.774 -164.399 497.5891)" class="st0" width="9.7" height="3.9"/>
	
		<rect x="596.2" y="564.7" transform="matrix(0.411 -0.9116 0.9116 0.411 -166.8946 880.6932)" class="st0" width="3.9" height="9.7"/>
	
		<rect x="613.9" y="572.7" transform="matrix(0.4109 -0.9117 0.9117 0.4109 -163.7402 901.6565)" class="st0" width="3.9" height="9.7"/>
	
		<rect x="578.5" y="556.7" transform="matrix(0.4107 -0.9118 0.9118 0.4107 -169.9687 860.1872)" class="st0" width="3.9" height="9.7"/>
	
		<rect x="649.4" y="588.7" transform="matrix(0.4107 -0.9118 0.9118 0.4107 -157.3652 943.6453)" class="st0" width="3.9" height="9.7"/>
	
		<rect x="560.7" y="548.8" transform="matrix(0.4102 -0.912 0.912 0.4102 -173.0806 839.6688)" class="st0" width="3.9" height="9.7"/>
	
		<rect x="631.7" y="580.7" transform="matrix(0.4107 -0.9118 0.9118 0.4107 -160.4736 922.8558)" class="st0" width="3.9" height="9.7"/>
	
		<rect x="667" y="596.6" transform="matrix(0.411 -0.9116 0.9116 0.411 -154.2948 964.1116)" class="st0" width="3.9" height="9.7"/>
	
		<rect x="758.7" y="582.4" transform="matrix(0.9562 -0.2927 0.2927 0.9562 -137.5992 249.0859)" class="st0" width="9.7" height="3.9"/>
	
		<rect x="777.3" y="576.7" transform="matrix(0.9563 -0.2925 0.2925 0.9563 -135.0316 254.0806)" class="st0" width="9.7" height="3.9"/>
	
		<rect x="797.5" y="575.9" transform="matrix(0.9573 -0.2892 0.2892 0.9573 -132.8214 256.7431)" class="st0" width="9.8" height="3.9"/>
	
		<rect x="814.5" y="565.3" transform="matrix(0.9562 -0.2927 0.2927 0.9562 -130.1527 264.665)" class="st0" width="9.7" height="3.9"/>
	
		<rect x="722.8" y="598.6" transform="matrix(0.9573 -0.2892 0.2892 0.9573 -142.574 236.1149)" class="st0" width="9.8" height="3.9"/>
	
		<rect x="702.9" y="599.6" transform="matrix(0.9563 -0.2925 0.2925 0.9563 -144.9844 233.3219)" class="st0" width="9.7" height="3.9"/>
	
		<rect x="740.1" y="588.1" transform="matrix(0.9562 -0.2927 0.2927 0.9562 -140.0814 243.8921)" class="st0" width="9.7" height="3.9"/>
	
		<rect x="794.4" y="464.4" transform="matrix(0.8894 -0.4571 0.4571 0.8894 -126.4265 415.9037)" class="st0" width="3.9" height="9.7"/>
	
		<rect x="812.1" y="499" transform="matrix(0.8894 -0.4571 0.4571 0.8894 -140.2837 427.8268)" class="st0" width="3.9" height="9.7"/>
	
		<rect x="803.3" y="481.7" transform="matrix(0.8894 -0.4571 0.4571 0.8894 -133.3473 421.8845)" class="st0" width="3.9" height="9.7"/>
	
		<rect x="785.4" y="447" transform="matrix(0.8892 -0.4576 0.4576 0.8892 -119.4872 410.3787)" class="st0" width="3.9" height="9.7"/>
	
		<rect x="821.1" y="516.3" transform="matrix(0.8894 -0.4571 0.4571 0.8894 -147.1933 433.8457)" class="st0" width="3.9" height="9.7"/>
	
		<rect x="829.9" y="533.5" transform="matrix(0.8892 -0.4576 0.4576 0.8892 -154.1294 440.3239)" class="st0" width="3.9" height="9.7"/>
	<rect x="692.5" y="433.2" class="st0" width="9.7" height="3.9"/>
	<rect x="711.9" y="433.2" class="st0" width="9.7" height="3.9"/>
	<rect x="731.4" y="433.2" class="st0" width="9.7" height="3.9"/>
	<rect x="750.8" y="433.2" class="st0" width="9.7" height="3.9"/>
	
		<rect x="427.5" y="597.2" transform="matrix(0.8895 -0.4569 0.4569 0.8895 -226.0019 263.7303)" class="st0" width="9.7" height="3.9"/>
	
		<rect x="496.7" y="561.7" transform="matrix(0.8895 -0.4569 0.4569 0.8895 -202.129 291.4241)" class="st0" width="9.7" height="3.9"/>
	
		<rect x="462.1" y="579.5" transform="matrix(0.8895 -0.4569 0.4569 0.8895 -214.0871 277.5983)" class="st0" width="9.7" height="3.9"/>
	
		<rect x="444.8" y="588.4" transform="matrix(0.8894 -0.4571 0.4571 0.8894 -220.1108 270.8268)" class="st0" width="9.7" height="3.9"/>
	
		<rect x="479.4" y="570.6" transform="matrix(0.8895 -0.4569 0.4569 0.8895 -208.1122 284.5073)" class="st0" width="9.7" height="3.9"/>
	
		<rect x="514" y="552.8" transform="matrix(0.8895 -0.4569 0.4569 0.8895 -196.1517 298.3526)" class="st0" width="9.7" height="3.9"/>
	
		<rect x="276.1" y="566.6" transform="matrix(0.2627 -0.9649 0.9649 0.2627 -346.412 689.5782)" class="st0" width="3.9" height="9.7"/>
	
		<rect x="351.1" y="587.1" transform="matrix(0.2627 -0.9649 0.9649 0.2627 -310.8389 777.0737)" class="st0" width="3.9" height="9.7"/>
	
		<rect x="388.7" y="597.2" transform="matrix(0.2625 -0.9649 0.9649 0.2625 -292.8565 820.921)" class="st0" width="3.9" height="9.7"/>
	
		<rect x="369.9" y="592.2" transform="matrix(0.2627 -0.9649 0.9649 0.2627 -301.8946 799.053)" class="st0" width="3.9" height="9.7"/>
	
		<rect x="332.4" y="582" transform="matrix(0.2627 -0.9649 0.9649 0.2627 -319.6811 755.2923)" class="st0" width="3.9" height="9.7"/>
	
		<rect x="313.6" y="576.8" transform="matrix(0.2627 -0.9649 0.9649 0.2627 -328.6147 733.3199)" class="st0" width="3.9" height="9.7"/>
	
		<rect x="294.8" y="571.7" transform="matrix(0.2625 -0.9649 0.9649 0.2625 -337.4947 711.5472)" class="st0" width="3.9" height="9.7"/>
	
		<rect x="257.3" y="561.5" transform="matrix(0.2627 -0.9649 0.9649 0.2627 -355.3496 667.7307)" class="st0" width="3.9" height="9.7"/>
	
		<rect x="251.4" y="519.4" transform="matrix(0.4638 -0.886 0.886 0.4638 -324.4388 506.6067)" class="st0" width="9.7" height="3.9"/>
	
		<rect x="260.3" y="502.2" transform="matrix(0.4638 -0.886 0.886 0.4638 -304.4446 505.2589)" class="st0" width="9.7" height="3.9"/>
	
		<rect x="278.4" y="467.6" transform="matrix(0.4639 -0.8859 0.8859 0.4639 -264.1255 502.6689)" class="st0" width="9.7" height="3.9"/>
	
		<rect x="242.3" y="536.6" transform="matrix(0.4638 -0.886 0.886 0.4638 -344.5964 507.803)" class="st0" width="9.7" height="3.9"/>
	
		<rect x="287.4" y="450.4" transform="matrix(0.4639 -0.8859 0.8859 0.4639 -244.0465 501.4443)" class="st0" width="9.7" height="3.9"/>
	
		<rect x="269.4" y="484.9" transform="matrix(0.4638 -0.886 0.886 0.4638 -284.2642 504.0827)" class="st0" width="9.7" height="3.9"/>
	<rect x="320.7" y="433.2" class="st0" width="9.7" height="3.9"/>
	<rect x="359.6" y="433.2" class="st0" width="9.7" height="3.9"/>
	<rect x="340.2" y="433.2" class="st0" width="9.7" height="3.9"/>
	<rect x="379.1" y="433.2" class="st0" width="9.7" height="3.9"/>
	
		<rect x="659" y="619.5" transform="matrix(0.8472 -0.5313 0.5313 0.8472 -228.7164 447.6759)" class="st0" width="9.7" height="3.9"/>
	
		<rect x="642.6" y="629.7" transform="matrix(0.8472 -0.5313 0.5313 0.8472 -236.6784 440.5183)" class="st0" width="9.7" height="3.9"/>
	
		<rect x="609.6" y="650.5" transform="matrix(0.8468 -0.532 0.532 0.8468 -252.9329 426.8829)" class="st0" width="9.7" height="3.9"/>
	
		<rect x="626.1" y="640.1" transform="matrix(0.8473 -0.5311 0.5311 0.8473 -244.6448 433.1405)" class="st0" width="9.7" height="3.9"/>
	
		<rect x="470.4" y="648.3" transform="matrix(0.6077 -0.7942 0.7942 0.6077 -333.3898 631.3447)" class="st0" width="3.9" height="9.7"/>
	<path class="st0" d="M431.1,619l-7.1-5.4c0.9-1.6,1.3-3.3,1.4-5.1c0.1-6.3-4.9-11.5-11.2-11.6c-6.3-0.1-11.5,4.9-11.6,11.2
		s4.9,11.5,11.2,11.6c2.9,0.1,5.8-1,8-3l7.1,5.4L431.1,619z"/>
	
		<rect x="439.5" y="624.7" transform="matrix(0.6077 -0.7942 0.7942 0.6077 -326.7464 597.5671)" class="st0" width="3.9" height="9.7"/>
	
		<rect x="455" y="636.4" transform="matrix(0.6077 -0.7942 0.7942 0.6077 -330.0098 614.4838)" class="st0" width="3.9" height="9.7"/>
	
		<rect x="523.1" y="691.2" transform="matrix(0.6445 -0.7646 0.7646 0.6445 -345.5072 648.9213)" class="st0" width="3.9" height="9.7"/>
	
		<rect x="508.4" y="678.6" transform="matrix(0.6447 -0.7645 0.7645 0.6447 -341.1731 632.973)" class="st0" width="3.9" height="9.7"/>
	
		<rect x="551.5" y="694.1" transform="matrix(0.7646 -0.6445 0.6445 0.7646 -317.6428 522.4148)" class="st0" width="9.7" height="3.9"/>
	
		<rect x="566.4" y="681.7" transform="matrix(0.7645 -0.6447 0.6447 0.7645 -306.1694 529.2714)" class="st0" width="9.7" height="3.9"/>
	<rect x="541.1" y="665.9" class="st0" width="9.7" height="3.9"/>
	<rect x="560.6" y="665.9" class="st0" width="9.7" height="3.9"/>
	<rect x="521.7" y="665.9" class="st0" width="9.7" height="3.9"/>
	
		<rect x="512.5" y="600.5" transform="matrix(0.3663 -0.9305 0.9305 0.3663 -232.6735 863.1691)" class="st0" width="9.7" height="3.9"/>
	
		<rect x="505.4" y="618.6" transform="matrix(0.3663 -0.9305 0.9305 0.3663 -254.1131 868.0436)" class="st0" width="9.7" height="3.9"/>
	
		<rect x="526.8" y="564.3" transform="matrix(0.3663 -0.9305 0.9305 0.3663 -189.9737 853.4606)" class="st0" width="9.7" height="3.9"/>
	
		<rect x="519.6" y="582.4" transform="matrix(0.3663 -0.9305 0.9305 0.3663 -211.3226 858.3187)" class="st0" width="9.7" height="3.9"/>
	
		<rect x="498.3" y="636.7" transform="matrix(0.3663 -0.9305 0.9305 0.3663 -275.4508 872.8785)" class="st0" width="9.7" height="3.9"/>
	
		<rect x="561.8" y="597.5" transform="matrix(0.9296 -0.3686 0.3686 0.9296 -182.3396 250.2105)" class="st0" width="3.9" height="9.7"/>
	
		<rect x="547.4" y="561.3" transform="matrix(0.9297 -0.3684 0.3684 0.9297 -169.935 242.2281)" class="st0" width="3.9" height="9.7"/>
	
		<rect x="576.2" y="633.7" transform="matrix(0.9296 -0.3686 0.3686 0.9296 -194.6608 258.0678)" class="st0" width="3.9" height="9.7"/>
	
		<rect x="554.7" y="579.4" transform="matrix(0.9296 -0.3686 0.3686 0.9296 -176.1603 246.3132)" class="st0" width="3.9" height="9.7"/>
	
		<rect x="569" y="615.6" transform="matrix(0.9297 -0.3684 0.3684 0.9297 -188.4185 254.0108)" class="st0" width="3.9" height="9.7"/>
	
		<rect x="619.7" y="717.6" transform="matrix(0.8637 -0.5039 0.5039 0.8637 -279.3497 411.675)" class="st0" width="3.9" height="9.7"/>
	
		<rect x="600.1" y="684.1" transform="matrix(0.8637 -0.5041 0.5041 0.8637 -265.1877 397.4242)" class="st0" width="3.9" height="9.7"/>
	
		<rect x="649.2" y="767.9" transform="matrix(0.8635 -0.5044 0.5044 0.8635 -300.8645 433.9299)" class="st0" width="3.9" height="9.7"/>
	
		<rect x="633.2" y="750.9" transform="matrix(0.8645 -0.5026 0.5026 0.8645 -293.8076 421.6124)" class="st0" width="3.9" height="9.7"/>
	
		<rect x="658.9" y="784.8" transform="matrix(0.8637 -0.5039 0.5039 0.8637 -307.8727 440.5873)" class="st0" width="3.9" height="9.7"/>
	
		<rect x="629.5" y="734.4" transform="matrix(0.8643 -0.503 0.503 0.8643 -286.1553 417.938)" class="st0" width="3.9" height="9.7"/>
	
		<rect x="604.1" y="700.6" transform="matrix(0.8645 -0.5026 0.5026 0.8645 -272.4649 400.1747)" class="st0" width="3.9" height="9.7"/>
	
		<rect x="692.1" y="803.9" transform="matrix(0.9766 -0.2149 0.2149 0.9766 -156.8953 168.6052)" class="st0" width="9.7" height="3.9"/>
	
		<rect x="711.1" y="799.7" transform="matrix(0.9766 -0.2149 0.2149 0.9766 -155.5491 172.5884)" class="st0" width="9.7" height="3.9"/>
	
		<rect x="730.1" y="795.5" transform="matrix(0.9766 -0.2149 0.2149 0.9766 -154.2032 176.5712)" class="st0" width="9.7" height="3.9"/>
	
		<rect x="749.1" y="791.4" transform="matrix(0.9766 -0.2149 0.2149 0.9766 -152.8775 180.5612)" class="st0" width="9.7" height="3.9"/>
	
		<rect x="768.1" y="787.2" transform="matrix(0.9766 -0.2149 0.2149 0.9766 -151.5314 184.5444)" class="st0" width="9.7" height="3.9"/>
	
		<rect x="754.2" y="701.9" transform="matrix(0.8082 -0.5889 0.5889 0.8082 -271.1821 580.8492)" class="st0" width="3.9" height="9.7"/>
	
		<rect x="765.6" y="717.6" transform="matrix(0.8082 -0.5889 0.5889 0.8082 -278.2396 590.571)" class="st0" width="3.9" height="9.7"/>
	
		<rect x="777.1" y="733.3" transform="matrix(0.8082 -0.5889 0.5889 0.8082 -285.2998 600.3435)" class="st0" width="3.9" height="9.7"/>
	
		<rect x="719.8" y="654.7" transform="matrix(0.8082 -0.5889 0.5889 0.8082 -250.0052 551.5302)" class="st0" width="3.9" height="9.7"/>
	
		<rect x="708.3" y="639" transform="matrix(0.8082 -0.5889 0.5889 0.8082 -242.9575 541.7555)" class="st0" width="3.9" height="9.7"/>
	
		<rect x="731.2" y="670.4" transform="matrix(0.8082 -0.5889 0.5889 0.8082 -257.0683 561.2548)" class="st0" width="3.9" height="9.7"/>
	
		<rect x="696.9" y="623.3" transform="matrix(0.8082 -0.5889 0.5889 0.8082 -235.8918 532.0345)" class="st0" width="3.9" height="9.7"/>
	
		<rect x="791" y="750" transform="matrix(0.8083 -0.5888 0.5888 0.8083 -292.4279 611.6021)" class="st0" width="3.9" height="9.7"/>
	
		<rect x="742.6" y="686.1" transform="matrix(0.8084 -0.5886 0.5886 0.8084 -264.0636 570.6535)" class="st0" width="3.9" height="9.7"/>
	
		<rect x="404.7" y="747.5" transform="matrix(3.175951e-02 -0.9995 0.9995 3.175951e-02 -352.5016 1134.9482)" class="st0" width="9.7" height="3.9"/>
	
		<rect x="403.4" y="786.4" transform="matrix(3.175951e-02 -0.9995 0.9995 3.175951e-02 -392.6482 1171.3748)" class="st0" width="9.7" height="3.9"/>
	
		<rect x="405.3" y="728" transform="matrix(3.175951e-02 -0.9995 0.9995 3.175951e-02 -332.5173 1116.7161)" class="st0" width="9.7" height="3.9"/>
	
		<rect x="404" y="767" transform="matrix(3.175951e-02 -0.9995 0.9995 3.175951e-02 -372.6376 1153.1724)" class="st0" width="9.7" height="3.9"/>
	
		<rect x="405.9" y="708.6" transform="matrix(3.175951e-02 -0.9995 0.9995 3.175951e-02 -312.4835 1098.562)" class="st0" width="9.7" height="3.9"/>
	
		<rect x="408.5" y="630.9" transform="matrix(3.175951e-02 -0.9995 0.9995 3.175951e-02 -232.3215 1025.8645)" class="st0" width="9.7" height="3.9"/>
	
		<rect x="407.8" y="650.3" transform="matrix(3.175951e-02 -0.9995 0.9995 3.175951e-02 -252.355 1043.996)" class="st0" width="9.7" height="3.9"/>
	
		<rect x="406.6" y="689.2" transform="matrix(3.175951e-02 -0.9995 0.9995 3.175951e-02 -292.4291 1080.4547)" class="st0" width="9.7" height="3.9"/>
	
		<rect x="406.7" y="668.2" transform="matrix(2.998502e-02 -0.9996 0.9996 2.998502e-02 -270.5802 1061.4496)" class="st0" width="9.7" height="3.9"/>
	
		<rect x="671.2" y="766.9" transform="matrix(5.128938e-02 -0.9987 0.9987 5.128938e-02 -126.3906 1404.5643)" class="st0" width="9.7" height="3.9"/>
	
		<rect x="674.4" y="708.6" transform="matrix(5.128938e-02 -0.9987 0.9987 5.128938e-02 -65.185 1352.3851)" class="st0" width="9.7" height="3.9"/>
	
		<rect x="672.3" y="747.4" transform="matrix(5.128938e-02 -0.9987 0.9987 5.128938e-02 -106.0229 1387.1864)" class="st0" width="9.7" height="3.9"/>
	
		<rect x="673.3" y="727.9" transform="matrix(5.128938e-02 -0.9987 0.9987 5.128938e-02 -85.5727 1369.7175)" class="st0" width="9.7" height="3.9"/>
	
		<rect x="670.2" y="786.2" transform="matrix(5.128938e-02 -0.9987 0.9987 5.128938e-02 -146.6651 1421.9484)" class="st0" width="9.7" height="3.9"/>
	
		<rect x="678.4" y="630.8" transform="matrix(5.128938e-02 -0.9987 0.9987 5.128938e-02 16.3034 1282.6027)" class="st0" width="9.7" height="3.9"/>
	
		<rect x="675.3" y="689.1" transform="matrix(5.128938e-02 -0.9987 0.9987 5.128938e-02 -44.9071 1334.9036)" class="st0" width="9.7" height="3.9"/>
	
		<rect x="677.4" y="650.3" transform="matrix(5.128938e-02 -0.9987 0.9987 5.128938e-02 -4.1715 1300.1478)" class="st0" width="9.7" height="3.9"/>
	
		<rect x="676.3" y="669.7" transform="matrix(5.128938e-02 -0.9987 0.9987 5.128938e-02 -24.5614 1317.5234)" class="st0" width="9.7" height="3.9"/>
	
		<rect x="444.9" y="737.3" transform="matrix(0.5077 -0.8615 0.8615 0.5077 -415.4276 751.3906)" class="st0" width="9.7" height="3.9"/>
	
		<rect x="425.2" y="770.9" transform="matrix(0.5077 -0.8615 0.8615 0.5077 -454.0855 750.9265)" class="st0" width="9.7" height="3.9"/>
	
		<rect x="415.3" y="787.4" transform="matrix(0.5063 -0.8623 0.8623 0.5063 -473.2238 752.015)" class="st0" width="9.7" height="3.9"/>
	
		<rect x="464.7" y="703.8" transform="matrix(0.5059 -0.8626 0.8626 0.5059 -376.8089 753.7212)" class="st0" width="9.7" height="3.9"/>
	
		<rect x="454.8" y="720.5" transform="matrix(0.5059 -0.8626 0.8626 0.5059 -396.0493 753.497)" class="st0" width="9.7" height="3.9"/>
	
		<rect x="474.5" y="686.9" transform="matrix(0.5059 -0.8626 0.8626 0.5059 -357.3822 753.8602)" class="st0" width="9.7" height="3.9"/>
	
		<rect x="435.1" y="753.9" transform="matrix(0.5066 -0.8622 0.8622 0.5066 -434.5615 752.252)" class="st0" width="9.7" height="3.9"/>
	
		<rect x="310.4" y="784.2" transform="matrix(0.219 -0.9757 0.9757 0.219 -525.9724 920.9846)" class="st0" width="3.9" height="9.8"/>
	
		<rect x="362.9" y="796.6" transform="matrix(0.2173 -0.9761 0.9761 0.2173 -496.7798 983.4515)" class="st0" width="3.9" height="9.7"/>
	
		<rect x="381.8" y="800.9" transform="matrix(0.2173 -0.9761 0.9761 0.2173 -486.0666 1005.2541)" class="st0" width="3.9" height="9.7"/>
	
		<rect x="343.9" y="792.4" transform="matrix(0.2173 -0.9761 0.9761 0.2173 -507.5175 961.6578)" class="st0" width="3.9" height="9.7"/>
	
		<rect x="325" y="788.1" transform="matrix(0.2178 -0.976 0.976 0.2178 -518.2068 939.3998)" class="st0" width="3.9" height="9.7"/>
	
		<rect x="386" y="639.1" transform="matrix(0.6174 -0.7867 0.7867 0.6174 -354.6742 552.7988)" class="st0" width="9.8" height="3.9"/>
	
		<rect x="346" y="686.8" transform="matrix(0.6194 -0.7851 0.7851 0.6194 -407.1803 537.5928)" class="st0" width="9.7" height="3.9"/>
	
		<rect x="370.1" y="656.2" transform="matrix(0.6195 -0.785 0.785 0.6195 -373.959 544.7648)" class="st0" width="9.7" height="3.9"/>
	
		<rect x="362" y="669.7" transform="matrix(0.6174 -0.7867 0.7867 0.6174 -387.9572 545.6485)" class="st0" width="9.8" height="3.9"/>
	
		<rect x="394.2" y="625.7" transform="matrix(0.6194 -0.7851 0.7851 0.6194 -340.8559 552.2133)" class="st0" width="9.7" height="3.9"/>
	<rect x="333.9" y="702" transform="matrix(0.6195 -0.785 0.785 0.6195 -423.7091 533.801)" class="st0" width="9.7" height="3.9"/>
	
		<rect x="297.8" y="747.8" transform="matrix(0.6195 -0.785 0.785 0.6195 -473.3771 522.851)" class="st0" width="9.7" height="3.9"/>
	
		<rect x="285.7" y="763.1" transform="matrix(0.6194 -0.7851 0.7851 0.6194 -490.0767 519.3074)" class="st0" width="9.7" height="3.9"/>
	
		<rect x="321.9" y="717.3" transform="matrix(0.6194 -0.7851 0.7851 0.6194 -440.3192 530.27)" class="st0" width="9.7" height="3.9"/>
	
		<rect x="309.8" y="732.6" transform="matrix(0.6194 -0.7851 0.7851 0.6194 -456.9302 526.6319)" class="st0" width="9.7" height="3.9"/>
	
		<rect x="495.7" y="854.2" transform="matrix(0.4707 -0.8823 0.8823 0.4707 -494.5345 893.7877)" class="st0" width="3.9" height="9.7"/>
	
		<rect x="461.3" y="835.8" transform="matrix(0.4702 -0.8825 0.8825 0.4702 -496.4729 854.2193)" class="st0" width="3.9" height="9.7"/>
	
		<rect x="444.2" y="826.7" transform="matrix(0.4702 -0.8825 0.8825 0.4702 -497.5226 834.2769)" class="st0" width="3.9" height="9.7"/>
	
		<rect x="512.9" y="863.3" transform="matrix(0.4702 -0.8825 0.8825 0.4702 -493.4091 914.2676)" class="st0" width="3.9" height="9.7"/>
	
		<rect x="478.6" y="845" transform="matrix(0.4707 -0.8823 0.8823 0.4707 -495.4864 873.7789)" class="st0" width="3.9" height="9.7"/>
	
		<rect x="427.1" y="817.6" transform="matrix(0.4707 -0.8823 0.8823 0.4707 -498.5288 813.8788)" class="st0" width="3.9" height="9.7"/>
	<rect x="675" y="835.1" transform="matrix(0.9945 -0.105 0.105 0.9945 -84.4468 75.718)" class="st0" width="3.9" height="9.7"/>
	
		<rect x="608.8" y="841.1" transform="matrix(0.8823 -0.4707 0.4707 0.8823 -324.6064 388.0733)" class="st0" width="9.7" height="3.9"/>
	
		<rect x="677.1" y="854.5" transform="matrix(0.9945 -0.105 0.105 0.9945 -86.4715 76.0464)" class="st0" width="3.9" height="9.7"/>
	
		<rect x="643.1" y="822.8" transform="matrix(0.8819 -0.4715 0.4715 0.8819 -312.3242 402.9404)" class="st0" width="9.7" height="3.9"/>
	
		<rect x="679.2" y="873.6" transform="matrix(0.9944 -0.1056 0.1056 0.9944 -88.9526 76.8433)" class="st0" width="3.9" height="9.7"/>
	
		<rect x="625.9" y="832.1" transform="matrix(0.8825 -0.4702 0.4702 0.8825 -318.1195 394.5383)" class="st0" width="9.7" height="3.9"/>
	
		<rect x="574.3" y="859.5" transform="matrix(0.8825 -0.4702 0.4702 0.8825 -337.0551 373.5287)" class="st0" width="9.7" height="3.9"/>
	
		<rect x="557.3" y="868.7" transform="matrix(0.8825 -0.4702 0.4702 0.8825 -343.3701 366.5715)" class="st0" width="9.7" height="3.9"/>
	
		<rect x="591.7" y="850.3" transform="matrix(0.8823 -0.4707 0.4707 0.8823 -330.9305 381.1088)" class="st0" width="9.7" height="3.9"/>
	
		<rect x="400" y="833.2" transform="matrix(0.1123 -0.9937 0.9937 0.1123 -470.4744 1143.6644)" class="st0" width="9.7" height="3.9"/>
	
		<rect x="395.7" y="871.9" transform="matrix(0.1123 -0.9937 0.9937 0.1123 -512.6875 1173.7107)" class="st0" width="9.7" height="3.9"/>
	
		<rect x="397.9" y="852.5" transform="matrix(0.1123 -0.9937 0.9937 0.1123 -491.4891 1158.7136)" class="st0" width="9.7" height="3.9"/>
	
		<rect x="393.5" y="891.2" transform="matrix(0.1123 -0.9937 0.9937 0.1123 -533.8853 1188.7053)" class="st0" width="9.7" height="3.9"/>
	
		<rect x="512.1" y="885" transform="matrix(0.9788 -0.205 0.205 0.9788 -170.8493 124.8098)" class="st0" width="9.7" height="3.9"/>
	<rect x="474" y="893" transform="matrix(0.9788 -0.205 0.205 0.9788 -173.2984 117.1706)" class="st0" width="9.7" height="3.9"/>
	<rect x="416.9" y="905" transform="matrix(0.9788 -0.205 0.205 0.9788 -176.9513 105.716)" class="st0" width="9.7" height="3.9"/>
	<rect x="493.1" y="889" transform="matrix(0.9788 -0.205 0.205 0.9788 -172.071 121.0006)" class="st0" width="9.7" height="3.9"/>
	<rect x="455" y="897" transform="matrix(0.9788 -0.205 0.205 0.9788 -174.5208 113.3612)" class="st0" width="9.7" height="3.9"/>
	<rect x="436" y="901" transform="matrix(0.9788 -0.205 0.205 0.9788 -175.7429 109.5511)" class="st0" width="9.7" height="3.9"/>
	
		<rect x="619.5" y="893.4" transform="matrix(0.1987 -0.9801 0.9801 0.1987 -382.3187 1328.8511)" class="st0" width="3.9" height="9.7"/>
	
		<rect x="600.5" y="889.5" transform="matrix(0.1983 -0.9801 0.9801 0.1983 -393.6495 1307.5205)" class="st0" width="3.9" height="9.7"/>
	
		<rect x="581.4" y="885.6" transform="matrix(0.1982 -0.9802 0.9802 0.1982 -405.0693 1285.8259)" class="st0" width="3.9" height="9.7"/>
	
		<rect x="562.3" y="881.8" transform="matrix(0.1987 -0.9801 0.9801 0.1987 -416.8216 1263.5302)" class="st0" width="3.9" height="9.7"/>
	
		<rect x="638.6" y="897.3" transform="matrix(0.1983 -0.9801 0.9801 0.1983 -370.7057 1351.0645)" class="st0" width="3.9" height="9.7"/>
	
		<rect x="657.7" y="901.1" transform="matrix(0.1983 -0.9801 0.9801 0.1983 -359.144 1372.877)" class="st0" width="3.9" height="9.7"/>
	
		<rect x="432.9" y="401.5" transform="matrix(0.6884 -0.7254 0.7254 0.6884 -156.2048 443.273)" class="st0" width="9.7" height="3.9"/>
	
		<rect x="419.4" y="415.7" transform="matrix(0.6886 -0.7251 0.7251 0.6886 -170.7228 437.6575)" class="st0" width="9.7" height="3.9"/>
	
		<rect x="446.2" y="387.4" transform="matrix(0.6886 -0.7251 0.7251 0.6886 -141.8952 448.3401)" class="st0" width="9.7" height="3.9"/>
	
		<rect x="641.9" y="397.6" transform="matrix(0.7462 -0.6658 0.6658 0.7462 -104.474 530.8091)" class="st0" width="3.9" height="9.7"/>
	
		<rect x="629" y="383.2" transform="matrix(0.7458 -0.6661 0.6661 0.7458 -98.1183 518.9075)" class="st0" width="3.9" height="9.7"/>
	
		<rect x="654.8" y="412.2" transform="matrix(0.7458 -0.6661 0.6661 0.7458 -110.8808 543.514)" class="st0" width="3.9" height="9.7"/>
	<rect x="483.5" y="373.7" class="st0" width="9.7" height="3.9"/>
	<rect x="561.3" y="373.7" class="st0" width="9.7" height="3.9"/>
	<rect x="522.4" y="373.7" class="st0" width="9.7" height="3.9"/>
	<rect x="541.9" y="373.7" class="st0" width="9.7" height="3.9"/>
	<rect x="503" y="373.7" class="st0" width="9.7" height="3.9"/>
	<rect x="580.8" y="373.7" class="st0" width="9.7" height="3.9"/>
	
		<rect x="654.4" y="354.4" transform="matrix(0.8993 -0.4374 0.4374 0.8993 -89.4707 324.2456)" class="st0" width="9.7" height="3.9"/>
	
		<rect x="706.8" y="329" transform="matrix(0.8993 -0.4374 0.4374 0.8993 -73.0505 344.6069)" class="st0" width="9.7" height="3.9"/>
	
		<rect x="741.8" y="312" transform="matrix(0.8993 -0.4374 0.4374 0.8993 -62.085 358.2085)" class="st0" width="9.7" height="3.9"/>
	
		<rect x="759.3" y="303.4" transform="matrix(0.8993 -0.4374 0.4374 0.8993 -56.6016 365.0065)" class="st0" width="9.7" height="3.9"/>
	
		<rect x="636.9" y="363" transform="matrix(0.8993 -0.4374 0.4374 0.8993 -94.9934 317.4741)" class="st0" width="9.7" height="3.9"/>
	
		<rect x="689.3" y="337.5" transform="matrix(0.8993 -0.4374 0.4374 0.8993 -78.5666 337.8258)" class="st0" width="9.7" height="3.9"/>
	
		<rect x="724.3" y="320.5" transform="matrix(0.8993 -0.4374 0.4374 0.8993 -67.5692 351.4059)" class="st0" width="9.7" height="3.9"/>
	
		<rect x="794.3" y="286.4" transform="matrix(0.8992 -0.4376 0.4376 0.8992 -45.5955 378.7748)" class="st0" width="9.7" height="3.9"/>
	
		<rect x="776.8" y="294.9" transform="matrix(0.8993 -0.4374 0.4374 0.8993 -51.1178 371.8058)" class="st0" width="9.7" height="3.9"/>
	
		<rect x="671.8" y="346" transform="matrix(0.8993 -0.4374 0.4374 0.8993 -84.0504 331.0266)" class="st0" width="9.7" height="3.9"/>
	
		<rect x="798.2" y="354.2" transform="matrix(0.2955 -0.9553 0.9553 0.2955 225.4982 1018.0372)" class="st0" width="9.7" height="3.9"/>
	
		<rect x="792.6" y="372.8" transform="matrix(0.2944 -0.9557 0.9557 0.2944 204.5143 1026.5507)" class="st0" width="9.7" height="3.9"/>
	
		<rect x="821.3" y="295.8" transform="matrix(0.2983 -0.9545 0.9545 0.2983 295.6015 997.4948)" class="st0" width="9.8" height="3.9"/>
	
		<rect x="804" y="335.6" transform="matrix(0.2945 -0.9556 0.9556 0.2945 248.049 1011.1676)" class="st0" width="9.7" height="3.9"/>
	
		<rect x="781" y="410" transform="matrix(0.2955 -0.9553 0.9553 0.2955 160.0865 1041.0227)" class="st0" width="9.7" height="3.9"/>
	
		<rect x="809.7" y="317" transform="matrix(0.2955 -0.9553 0.9553 0.2955 269.1583 1002.8631)" class="st0" width="9.7" height="3.9"/>
	
		<rect x="786.8" y="391.3" transform="matrix(0.2955 -0.9553 0.9553 0.2955 181.9755 1033.2958)" class="st0" width="9.7" height="3.9"/>
	
		<rect x="265.6" y="313.4" transform="matrix(0.9606 -0.278 0.278 0.9606 -77.9295 86.9213)" class="st0" width="3.9" height="9.7"/>
	<rect x="277.1" y="349.8" transform="matrix(0.96 -0.28 0.28 0.96 -88.1406 92.3205)" class="st0" width="3.9" height="9.7"/>
	
		<rect x="281.8" y="369.5" transform="matrix(0.9607 -0.2775 0.2775 0.9607 -92.7383 93.4405)" class="st0" width="3.9" height="9.7"/>
	
		<rect x="292.6" y="406.9" transform="matrix(0.9606 -0.278 0.278 0.9606 -102.856 98.1178)" class="st0" width="3.9" height="9.7"/>
	<rect x="288" y="387.1" transform="matrix(0.96 -0.28 0.28 0.96 -98.1454 96.8589)" class="st0" width="3.9" height="9.7"/>
	<rect x="271" y="332.2" transform="matrix(0.9608 -0.2773 0.2773 0.9608 -82.762 88.9068)" class="st0" width="3.9" height="9.7"/>
	
		<rect x="260.2" y="294.7" transform="matrix(0.9607 -0.2775 0.2775 0.9607 -72.8314 84.5087)" class="st0" width="3.9" height="9.7"/>
	
		<rect x="353.3" y="316.6" transform="matrix(0.4443 -0.8959 0.8959 0.4443 -90.6249 496.8977)" class="st0" width="3.9" height="9.7"/>
	
		<rect x="370.7" y="325.3" transform="matrix(0.4443 -0.8959 0.8959 0.4443 -88.7231 517.2761)" class="st0" width="3.9" height="9.7"/>
	
		<rect x="318.4" y="299.4" transform="matrix(0.4449 -0.8956 0.8956 0.4449 -94.6524 455.7957)" class="st0" width="3.9" height="9.7"/>
	
		<rect x="283.6" y="282.1" transform="matrix(0.4445 -0.8958 0.8958 0.4445 -98.3715 415.1941)" class="st0" width="3.9" height="9.7"/>
	
		<rect x="335.9" y="308" transform="matrix(0.4449 -0.8956 0.8956 0.4449 -92.6443 476.2486)" class="st0" width="3.9" height="9.7"/>
	
		<rect x="440.4" y="359.9" transform="matrix(0.4449 -0.8956 0.8956 0.4449 -81.1372 598.6531)" class="st0" width="3.9" height="9.7"/>
	
		<rect x="405.5" y="342.7" transform="matrix(0.4449 -0.8956 0.8956 0.4449 -85.0401 557.8579)" class="st0" width="3.9" height="9.7"/>
	
		<rect x="388" y="333.9" transform="matrix(0.4446 -0.8957 0.8957 0.4446 -86.8431 537.4659)" class="st0" width="3.9" height="9.7"/>
	
		<rect x="301" y="290.7" transform="matrix(0.4449 -0.8956 0.8956 0.4449 -96.5654 435.3493)" class="st0" width="3.9" height="9.7"/>
	
		<rect x="422.9" y="351.3" transform="matrix(0.4445 -0.8958 0.8958 0.4445 -83.0375 578.4622)" class="st0" width="3.9" height="9.7"/>
	
		<rect x="455.2" y="347.4" transform="matrix(0.9578 -0.2875 0.2875 0.9578 -81.9734 146.296)" class="st0" width="3.9" height="9.7"/>
	
		<rect x="412.2" y="198.2" transform="matrix(0.9573 -0.2892 0.2892 0.9573 -41.039 128.4545)" class="st0" width="3.9" height="9.8"/>
	
		<rect x="438.4" y="291.6" transform="matrix(0.9576 -0.2882 0.2882 0.9576 -66.7542 139.4873)" class="st0" width="3.9" height="9.7"/>
	
		<rect x="432.8" y="272.9" transform="matrix(0.9576 -0.2882 0.2882 0.9576 -61.6016 137.0784)" class="st0" width="3.9" height="9.7"/>
	
		<rect x="421.7" y="235.6" transform="matrix(0.9578 -0.2875 0.2875 0.9578 -51.246 131.9452)" class="st0" width="3.9" height="9.7"/>
	<rect x="416" y="217" transform="matrix(0.9579 -0.2872 0.2872 0.9579 -46.1116 129.3779)" class="st0" width="3.9" height="9.7"/>
	
		<rect x="427.2" y="254.3" transform="matrix(0.9576 -0.2882 0.2882 0.9576 -56.4789 134.6779)" class="st0" width="3.9" height="9.7"/>
	
		<rect x="449.6" y="328.8" transform="matrix(0.9576 -0.2882 0.2882 0.9576 -76.9956 144.2929)" class="st0" width="3.9" height="9.7"/>
	
		<rect x="444" y="310.2" transform="matrix(0.9576 -0.2882 0.2882 0.9576 -71.8727 141.891)" class="st0" width="3.9" height="9.7"/>
	
		<rect x="627" y="331.6" transform="matrix(0.2735 -0.9619 0.9619 0.2735 138.2546 850.1277)" class="st0" width="9.7" height="3.9"/>
	
		<rect x="637.6" y="294.1" transform="matrix(0.2724 -0.9622 0.9622 0.2724 182.5648 833.5931)" class="st0" width="9.7" height="3.9"/>
	
		<rect x="642.9" y="275.4" transform="matrix(0.2735 -0.9619 0.9619 0.2735 203.7943 824.6085)" class="st0" width="9.7" height="3.9"/>
	
		<rect x="658.9" y="219.3" transform="matrix(0.2735 -0.9619 0.9619 0.2735 269.3514 799.1719)" class="st0" width="9.7" height="3.9"/>
	
		<rect x="629" y="312.8" transform="matrix(0.2707 -0.9627 0.9627 0.2707 159.2326 839.755)" class="st0" width="9.7" height="3.9"/>
	
		<rect x="621.7" y="350.3" transform="matrix(0.2735 -0.9619 0.9619 0.2735 116.4266 858.6044)" class="st0" width="9.7" height="3.9"/>
	
		<rect x="648.3" y="256.8" transform="matrix(0.2735 -0.9619 0.9619 0.2735 225.6628 816.1802)" class="st0" width="9.7" height="3.9"/>
	
		<rect x="653.5" y="238" transform="matrix(0.2735 -0.9619 0.9619 0.2735 247.4657 807.602)" class="st0" width="9.7" height="3.9"/>
	<rect x="533" y="185.2" class="st0" width="9.7" height="3.9"/>
	<rect x="494.1" y="185.2" class="st0" width="9.7" height="3.9"/>
	<rect x="610.8" y="185.2" class="st0" width="9.7" height="3.9"/>
	<rect x="571.9" y="185.2" class="st0" width="9.7" height="3.9"/>
	<rect x="591.4" y="185.2" class="st0" width="9.7" height="3.9"/>
	<rect x="552.5" y="185.2" class="st0" width="9.7" height="3.9"/>
	<rect x="455.2" y="185.2" class="st0" width="9.7" height="3.9"/>
	<rect x="435.8" y="185.2" class="st0" width="9.7" height="3.9"/>
	<rect x="630.3" y="185.2" class="st0" width="9.7" height="3.9"/>
	<rect x="649.7" y="185.2" class="st0" width="9.7" height="3.9"/>
	<rect x="513.6" y="185.2" class="st0" width="9.7" height="3.9"/>
	<rect x="474.7" y="185.2" class="st0" width="9.7" height="3.9"/>
	
		<rect x="314" y="235.7" transform="matrix(0.8686 -0.4955 0.4955 0.8686 -75.8533 189.2174)" class="st0" width="9.7" height="3.9"/>
	
		<rect x="297.1" y="245.3" transform="matrix(0.8686 -0.4955 0.4955 0.8686 -82.833 182.0976)" class="st0" width="9.7" height="3.9"/>
	
		<rect x="280.2" y="255" transform="matrix(0.8686 -0.4955 0.4955 0.8686 -89.8503 175.0149)" class="st0" width="9.7" height="3.9"/>
	
		<rect x="381.6" y="197.2" transform="matrix(0.8686 -0.4955 0.4955 0.8686 -47.8968 217.652)" class="st0" width="9.7" height="3.9"/>
	
		<rect x="330.9" y="226.1" transform="matrix(0.8686 -0.4955 0.4955 0.8686 -68.8736 196.335)" class="st0" width="9.7" height="3.9"/>
	
		<rect x="364.7" y="206.8" transform="matrix(0.8686 -0.4955 0.4955 0.8686 -54.8766 210.5375)" class="st0" width="9.7" height="3.9"/>
	
		<rect x="347.8" y="216.5" transform="matrix(0.8686 -0.4955 0.4955 0.8686 -61.8954 203.4521)" class="st0" width="9.7" height="3.9"/>
	
		<rect x="795.4" y="250.1" transform="matrix(0.4732 -0.881 0.881 0.4732 195.4393 836.704)" class="st0" width="3.9" height="9.7"/>
	
		<rect x="726.8" y="213.2" transform="matrix(0.4732 -0.881 0.881 0.4732 191.8038 756.9271)" class="st0" width="3.9" height="9.7"/>
	<rect x="744" y="222.5" transform="matrix(0.4732 -0.881 0.881 0.4732 192.6928 776.8697)" class="st0" width="3.9" height="9.7"/>
	
		<rect x="692.6" y="194.9" transform="matrix(0.4732 -0.881 0.881 0.4732 189.9319 717.0463)" class="st0" width="3.9" height="9.7"/>
	
		<rect x="778.2" y="240.9" transform="matrix(0.4732 -0.881 0.881 0.4732 194.5436 816.7512)" class="st0" width="3.9" height="9.7"/>
	
		<rect x="758" y="231.5" transform="matrix(0.4711 -0.8821 0.8821 0.4711 193.4805 795.3454)" class="st0" width="3.9" height="9.7"/>
	
		<rect x="709.7" y="204.1" transform="matrix(0.4732 -0.881 0.881 0.4732 190.8163 736.9848)" class="st0" width="3.9" height="9.7"/>
</g>
<rect x="47.1" y="48.6" class="st1" width="984.8" height="984.8"/>
<path class="st2" d="M867.2,440.6c-1.3-0.4-2.6-0.6-3.9-0.8v-0.9c-0.4-13.4-0.9-27.2-0.9-41c0-42.7-8.6-82.5-24.3-118.2
	c1-1.6,1.6-3.5,1.6-5.5c0-5.5-4.1-10.1-9.5-10.9c-49.4-95.1-152-157.8-279.7-161.9v-0.3h-10h-2.7l-7.3,0.1v0.2
	c-127.6,4.1-230.1,67-279.2,162.3c-4.6,1.5-7.7,5.7-7.7,10.5c0,1.3,0.3,2.7,0.8,3.9c-16,35.8-24.7,75.7-24.7,118.7
	c0,14.4-0.6,28.8-1.2,42.8c-1.6,0.2-3.2,0.6-4.8,1c-39.4,10.8-54.7,75.9-34.8,148.1c14.7,53.4,44.5,94.5,75.3,107
	c3,20,5.9,40.6,8.2,61c0.9,7.1,2.3,14.1,4.4,20.9c-2.3,5.3-0.1,11.4,5,14c22,52.2,75.6,92.8,113.3,121.2l0.5,0.4c1,5.2,5.5,9,10.8,9
	c0.3,0,0.6-0.2,0.9-0.2c7,5.4,13.1,10.2,17.7,14.5c33.2,30.6,62,41.5,115.5,43.2v0.3h9.9h2.7l7.3-0.1v-0.2
	c53.6-1.7,82.3-12.7,115.5-43.2c4.6-4.2,10.7-9.1,17.7-14.5c0.3,0,0.5,0.2,0.8,0.2c5.2,0,9.7-3.8,10.7-8.9c0.2-0.2,0.4-0.3,0.6-0.4
	c37.4-28.3,90.6-68.5,112.9-120.3c5.8-1.3,9.5-7,8.2-12.8c-0.4-1.7-1.1-3.2-2.2-4.5c1.8-6.1,3-12.3,3.8-18.5c2.3-20.4,5.1-41,8.2-61
	c30.8-12.5,60.6-53.6,75.3-107C921.8,516.4,906.5,451.4,867.2,440.6z M193.1,584.8c-17.1-62.2-5.8-121.9,24.6-130.2
	c0.1,0,0.2,0,0.3,0c-1.2,31.2-1.3,60.5,5.8,86.2c1,3.7,2.1,8,3.3,12.7c-1.5,1.9-2.3,4.1-2.3,6.5c0,4.2,2.4,8,6.2,9.9
	c6.3,27.9,13.9,66.2,20.6,108C228.1,663.3,204.8,627.7,193.1,584.8z M804.1,755.1c-0.4,3.9-1.1,7.7-2,11.5l-1.5-2l-3.1,2.3l3.3,4.5
	c-0.1,0.4-0.2,0.8-0.3,1.2c-3.4,1.9-5.6,5.6-5.6,9.5c0,0.2,0.1,0.3,0.1,0.4l-8,1.7l0.8,3.8l7.8-1.7
	c-20.5,48.2-71.4,86.9-107.6,114.3c-0.9-0.3-1.8-0.5-2.7-0.5l-0.8-7.1l-3.9,0.4l0.8,7.2c-4.8,1.3-8.1,5.6-8.2,10.5
	c0,0.2,0.1,0.4,0.1,0.6c-6.7,5.2-12.6,9.9-17.3,14.2c-32,29.4-58.4,38.6-113.1,39.6h-2.6h-2.6c-54.7-0.9-81.1-10.1-113.1-39.5
	c-4.7-4.2-10.5-8.9-17-14l0,0l-0.6-4h-0.1c-1.3-5.7-6.9-9.2-12.6-7.9c-0.5,0.1-1,0.3-1.4,0.4c-35.7-27-85.7-65-106.7-112.3
	c0.5-0.6,0.9-1.3,1.3-2l5.7,1.3l0.9-3.8l-5.8-1.3c0-0.2,0.1-0.3,0.1-0.5c-0.1-4.9-3.4-9.2-8.1-10.5c-1.5-5.3-2.7-10.8-3.3-16.3
	c-7.4-63.5-18-126.5-31.8-188.9c1.3-1.8,2-3.9,2.1-6.2c0-4-2.3-7.7-5.9-9.7c-1.2-5-2.4-9.6-3.5-13.4c-7.5-27.2-6.1-60.4-4.7-95.4
	c0.6-14.5,1.2-29.6,1.2-44.7c-0.2-38.1,7.5-75.8,22.6-110.8l3.1-0.9l-0.3-1c2.3-1.1,4.1-3,5.2-5.3l6.7,3.3l1.7-3.5l-7.5-3.7
	c0-0.3,0.2-0.5,0.2-0.8c0-1.3-0.3-2.5-0.7-3.7l8.1-4.6l-1.9-3.4l-4,2.3c48.9-89.2,148-147.1,270.6-149h1.6h3.5
	c120.9,1.8,219,58,268.9,144.9l-1-0.5l-1.8,3.4l6.2,3.3c0.8,1.5,1.6,2.9,2.3,4.4c-0.3,0.9-0.5,1.9-0.6,2.8c0.1,1,0.3,2,0.6,3
	l-6.4,3.1l1.7,3.5l6.4-3.1c1,1.4,2.3,2.6,3.8,3.4l-0.6,1.9l2.3,0.7c15.2,35.1,22.9,73,22.7,111.3c0,14,0.5,28.1,0.9,41.5
	c1.2,35.8,2.3,69.6-5.4,97.6c-1,3.6-2.1,7.9-3.2,12.5c-5.8,1.5-9.3,7.5-7.8,13.4c0.6,2.1,1.7,4,3.4,5.4
	C821.9,630,811.4,692.3,804.1,755.1z M887.9,584.8c-11.7,42.9-35,78.5-58.5,93.1c6.9-42.7,14.6-81.6,21-109.7
	c3.5-3.1,4.7-8,2.9-12.4c1.4-5.7,2.7-10.8,3.9-15.1c7.1-25.7,7.3-55,6.4-86C893.8,463.5,904.9,522.9,887.9,584.8z"/>
</svg>
