<?xml version="1.0" encoding="utf-8"?>
<!-- Generator: Adobe Illustrator 23.1.1, SVG Export Plug-In . SVG Version: 6.00 Build 0)  -->
<svg version="1.1" id="Layer_1" xmlns="http://www.w3.org/2000/svg" xmlns:xlink="http://www.w3.org/1999/xlink" x="0px" y="0px"
	 viewBox="0 0 1080 1080" style="enable-background:new 0 0 1080 1080;" xml:space="preserve">
<style type="text/css">
	.st0{fill:none;stroke:#FFFFFF;stroke-width:30;stroke-miterlimit:10;}
	.st1{fill:#FFFFFF;}
	.st2{fill:none;stroke:#FFFFFF;stroke-width:25;stroke-miterlimit:10;}
</style>
<rect x="47.4" y="47.4" class="st0" width="984.8" height="984.8"/>
<g>
	<path class="st1" d="M242.9,637.1c5.1,0,9.3-4.2,9.3-9.3V328c0-11.4,10.6-20.7,23.7-20.7h527c13.1,0,23.7,9.3,23.7,20.7v299.8
		c0,5.1,4.2,9.3,9.3,9.3s9.3-4.2,9.3-9.3V328c0-21.6-19-39.2-42.3-39.2H548.7v-50.6c22.1-4.3,38.9-23.8,38.9-47.1
		c0-26.5-21.7-48.2-48.2-48.2s-48.1,21.7-48.1,48.2c0,23.3,16.7,42.8,38.8,47.1v50.6H275.9c-23.3,0-42.3,17.6-42.3,39.2v299.8
		C233.6,632.9,237.8,637.1,242.9,637.1z"/>
	<path class="st1" d="M601.8,399.8c0-36.4-29.6-66-66-66s-66,29.6-66,66c0,36.3,29.6,65.9,66,65.9S601.8,436,601.8,399.8z"/>
	<path class="st1" d="M769.8,740.5c0-0.1,0.1-0.1,0.2,0c7.2,0,11.9-8.1,7.7-14.5l-32.6-86.8c-1.4-3.6-4.8-6.1-8.8-6.1h-31.6
		c0.1,1.4,0.2,2.6,0.2,4c0.2,1.5,0.4,3.1,0.4,4.6c0,15.4-12.5,27.9-27.9,27.9H396.1c-15.4,0-27.9-12.5-27.9-27.9
		c0-2.9,0.1-5.7,0.2-8.5h-24.3c-3.8,0-7.3,2.5-8.7,6.1l-33.3,88.6c-2.4,6,2.5,12.6,8.7,12.6h128.8v-9.3c0-15.4,12.5-27.9,27.9-27.9
		h145.6c15.4,0,27.9,12.5,27.9,27.9v9.3H769.8z"/>
	<path class="st1" d="M648.6,783.6c-1.6-2.9-4.6-4.6-7.7-4.6v9.2c0,15.4-12.5,27.9-27.9,27.9H467.5c-15.4,0-27.9-12.5-27.9-27.9V779
		c-3.1,0-6.1,1.7-7.6,4.6l-28.2,49.7c-3.6,6.4,1.5,13.9,8,13.9h256.9c0,0,0.1,0,0.3,0c7.7,0,12.4-9.1,6.9-15.5L648.6,783.6z"/>
	<path class="st1" d="M467.5,721.9c-5.1,0-9.3,4.1-9.3,9.3v57c0,5.1,4.2,9.3,9.3,9.3h145.6c5.1,0,9.3-4.2,9.3-9.3v-57
		c0-5.2-4.2-9.3-9.3-9.3H467.5z"/>
	<path class="st2" d="M835.9,830.2c-54.6,0-99.4,44.5-99.8,99.2c-0.2,4.9,3.9,9.3,9.3,9.3h181.2c5.1,0,9.3-4.2,9.3-9.3
		C935.4,874.7,890.6,830.2,835.9,830.2z"/>
	<path class="st1" d="M835.9,823.8c27,0,48.9-21.8,48.9-48.8c0-26.9-21.9-48.8-48.9-48.8C771.7,726.2,771.2,823.8,835.9,823.8z"/>
	<path class="st1" d="M243,823.8c27,0,48.9-21.8,48.9-48.8c0-26.9-21.9-48.8-48.9-48.8c-26.9,0-48.8,21.9-48.8,48.8
		C194.2,802,216.1,823.8,243,823.8z"/>
	<path class="st2" d="M243,830.2c-54.6,0-99.4,44.5-99.8,99.2c0,5.7,4.7,9.3,9.3,9.3h181.2c5.1,0,9.3-4.2,9.3-9.3
		C342.6,874.7,297.8,830.2,243,830.2z"/>
	<path class="st2" d="M385.9,640.8c0,5.1,4.2,9.3,9.3,9.3h281.1c0,0,0.1,0,0.2,0c5.1,0,9.3-4.2,9.3-9.3c0-0.7-0.1-1.5-0.4-2.2
		c-1-81.7-67.8-147.6-149.6-147.6C453.2,491,385.9,558.2,385.9,640.8z"/>
</g>
</svg>
