<?xml version="1.0" encoding="utf-8"?>
<!-- Generator: Adobe Illustrator 23.1.1, SVG Export Plug-In . SVG Version: 6.00 Build 0)  -->
<svg version="1.1" id="Layer_1" xmlns="http://www.w3.org/2000/svg" xmlns:xlink="http://www.w3.org/1999/xlink" x="0px" y="0px"
	 viewBox="0 0 1080 1080" style="enable-background:new 0 0 1080 1080;" xml:space="preserve">
<style type="text/css">
	.st0{fill:none;stroke:#FFFFFF;stroke-width:30;stroke-miterlimit:10;}
	.st1{fill:#FFFFFF;}
</style>
<rect x="47.4" y="47.4" class="st0" width="984.8" height="984.8"/>
<g>
	<path class="st1" d="M443.2,222.6H529c7.8,0,14.1-6.3,14.1-14.1s-6.3-14.1-14.1-14.1h-85.8c-7.8,0-14.1,6.3-14.1,14.1
		S435.4,222.6,443.2,222.6z"/>
	
		<ellipse transform="matrix(0.9239 -0.3827 0.3827 0.9239 -295.843 252.238)" class="st1" cx="486.1" cy="869.8" rx="19.8" ry="19.8"/>
	<path class="st1" d="M819,689.3c-0.5-1-12-25.5-26.2-41.8c-4.8-5.5-5.6-8.5-8.1-20.4c-2.1-9.6-4.9-22.8-11.9-43.4
		c-16.2-47.4-48.3-87.9-49.7-89.6c-1.2-1.5-2.6-2.7-4.2-3.6c-2.4-1.3-4.8-2.1-7.3-2.9V216.8c0-39.6-32.2-71.7-71.7-71.7H332.3
		c-39.5,0-71.7,32.2-71.7,71.7v646.5c0,39.5,32.2,71.7,71.7,71.7h307.6c39.5,0,71.7-32.2,71.7-71.7v-81l103-75.7
		C820,702.6,821.9,695.4,819,689.3z M472.6,534.5l66.5,95.6c-26.4-0.6-46,12.8-55.3,25.4c-5.1,6.9-6.7,13.4-4.9,19.2
		c5.3,16.9,137.2,86.8,146.1,88.5c7.2,1.3,31.5,18.2,49.7,33.1c2.5,2.1,5.6,3.1,8.7,3.1v8.6H288.8V272h394.6v217.3
		c-9,4.3-15.8,11.5-20.2,17.3c-22.8-2.9-37.6,8.1-44.6,20.9c-16.7-3.6-30.5,3.8-39.1,14l-43.8-66.1c-1.3-1.9-3-3.5-5-4.6
		c-17.6-9.7-34.8-9.3-48.8,0.7C462.5,485.6,458.2,513.8,472.6,534.5z M332.3,173.3h307.6c24,0,43.5,19.5,43.5,43.5v27H288.8v-27
		C288.8,192.8,308.3,173.3,332.3,173.3z M639.9,906.8H332.3c-24,0-43.5-19.5-43.5-43.5v-27h394.6v27
		C683.4,887.3,663.9,906.8,639.9,906.8z M684,767.6c-14.6-11.4-39.5-29.4-53.5-32.1c-13-3.4-92.3-49.8-119.3-68.1
		c5.1-4.3,13.8-9.1,26.1-9.1c9.1,0,18.9,2.8,29.1,8.2c5.7,3,12.9,1.8,17.2-3.1c4.3-4.9,4.8-12.1,1-17.4l-88.8-127.6
		c-5.5-7.9-4.3-18.9,2.7-23.9c4.6-3.3,9.4-3.3,15.8-0.4l54.8,82.7c3.1,4.6,8.7,7.1,14.1,6.1c5.5-0.9,9.9-5,11.3-10.4
		c0-0.2,5.3-17.8,15.4-17.8c2.9,0,6.5,1.2,10.5,3.5c4.1,2.3,9.1,2.3,13.4,0.2c4.2-2.1,7.1-6.4,7.6-11.1c0.6-4.9,3.2-13,14.3-13
		c3.1,0,6.6,0.6,10.5,1.6c6.4,1.8,13.2-1.3,16.3-7.2c2.6-5,10.2-15.2,17.4-15.2c1,0,2.1,0.2,3.2,0.6c6.9,9.2,30.7,42.1,43.1,78.6
		c6.5,19,9.1,31.2,11,40.2c2.7,12.7,4.7,21.9,14.4,33.1c6.5,7.4,12.6,17.5,16.7,25L684,767.6z"/>
	<path class="st1" d="M521.1,444.1c5-6,4.1-14.9-1.9-19.8c-13.2-10.8-29.7-15.8-46.7-14.2c-16.9,1.7-32.2,9.8-43.1,23
		c-10.8,13.1-15.9,29.7-14.2,46.7c0.7,7.5,2.7,14.7,6,21.4c2.4,5.1,7.5,8,12.7,8c2,0,4.1-0.4,6.1-1.4c7-3.4,10-11.8,6.6-18.8
		c-1.8-3.8-2.9-7.8-3.3-12c-0.9-9.4,1.9-18.7,7.9-26c6-7.3,14.5-11.9,24-12.8c9.4-0.9,18.7,1.9,26,7.9
		C507.3,451,516.2,450.1,521.1,444.1z"/>
	<path class="st1" d="M521.7,394c6.8,3.7,15.4,1.2,19.1-5.7c3.7-6.8,1.2-15.4-5.7-19.1c-20.8-11.3-44.4-16.1-68-13.8
		c-31.5,3.1-60,18.2-80.1,42.7c-20.1,24.5-29.5,55.3-26.4,86.9c0.8,8.5,2.6,16.9,5.1,24.9c1.9,6,7.5,9.8,13.4,9.8
		c1.4,0,2.9-0.2,4.3-0.7c7.4-2.4,11.5-10.3,9.1-17.7c-2-6.1-3.3-12.5-3.9-19c-2.3-24,4.8-47.6,20.2-66.2
		c15.3-18.6,37-30.2,61.1-32.5C487.9,381.8,505.9,385.4,521.7,394z"/>
</g>
</svg>
