<?xml version="1.0" encoding="utf-8"?>
<!-- Generator: Adobe Illustrator 23.1.1, SVG Export Plug-In . SVG Version: 6.00 Build 0)  -->
<svg version="1.1" id="Layer_1" xmlns="http://www.w3.org/2000/svg" xmlns:xlink="http://www.w3.org/1999/xlink" x="0px" y="0px"
	 viewBox="0 0 1080 1080" style="enable-background:new 0 0 1080 1080;" xml:space="preserve">
<style type="text/css">
	.st0{fill:none;stroke:#FFFFFF;stroke-width:30;stroke-miterlimit:10;}
	.st1{fill:#FFFFFF;}
</style>
<rect x="47.4" y="47.4" class="st0" width="984.8" height="984.8"/>
<g>
	<path class="st1" d="M408.6,709.9h262.8c11.6,0,17.3,8.7,17.3,17.3v179c0,11.6-5.8,17.3-17.3,17.3H405.7c-8.7,0-14.4-5.8-14.4-17.3
		v-179C391.3,715.6,397.1,709.9,408.6,709.9z M656.9,744.5H423.1v147.3h233.9V744.5z"/>
	<path class="st1" d="M538.6,377.8c80.9,0,153,52,176.1,127.1c20.2,57.8,11.6,121.3-26,170.4c-5.8,5.8-8.7,8.7-14.4,8.7H405.7
		c-5.8,0-11.6-2.9-14.4-8.7c-37.5-49.1-46.2-112.6-28.9-167.5C388.4,432.7,460.6,377.8,538.6,377.8z M538.6,412.4
		c-66.4,0-121.3,43.3-141.5,106.8c-14.4,43.3-11.6,86.6,17.3,129.9h251.2c26-40.4,31.8-92.4,17.3-135.7
		C662.7,452.9,605,412.4,538.6,412.4z"/>
	<path class="st1" d="M555.9,282.5c0,23.1-31.8,23.1-31.8,0V172.8c0-23.1,31.8-23.1,31.8,0V282.5z"/>
	<path class="st1" d="M711.8,343.1c-11.6,20.2-40.4,0-28.9-17.3l63.5-92.4c14.4-17.3,40.4,2.9,28.9,20.2L711.8,343.1z"/>
	<path class="st1" d="M810,487.5c-23.1,5.8-34.7-26-11.6-31.8l104-40.4c20.2-5.8,31.8,26,11.6,31.8L810,487.5z"/>
	<path class="st1" d="M807.1,657.9c-20.2-5.8-11.6-37.5,8.7-31.8l109.7,26c20.2,5.8,11.6,40.4-8.7,34.7L807.1,657.9z"/>
	<path class="st1" d="M397.1,325.8c11.6,17.3-17.3,37.5-28.9,17.3l-63.5-89.5c-11.6-17.3,14.4-37.5,28.9-20.2L397.1,325.8z"/>
	<path class="st1" d="M281.6,455.8c23.1,5.8,8.7,37.5-11.6,31.8l-104-40.4c-20.2-5.8-8.7-37.5,11.6-31.8L281.6,455.8z"/>
	<path class="st1" d="M264.2,626.1c20.2-5.8,28.9,26,5.8,31.8l-106.8,28.9c-20.2,5.8-28.9-28.9-8.7-34.7L264.2,626.1z"/>
</g>
</svg>
