<?xml version="1.0" encoding="utf-8"?>
<!-- Generator: Adobe Illustrator 23.1.1, SVG Export Plug-In . SVG Version: 6.00 Build 0)  -->
<svg version="1.1" id="Layer_1" xmlns="http://www.w3.org/2000/svg" xmlns:xlink="http://www.w3.org/1999/xlink" x="0px" y="0px"
	 viewBox="0 0 1080 1080" style="enable-background:new 0 0 1080 1080;" xml:space="preserve">
<style type="text/css">
	.st0{fill:#C26F14;}
	.st1{fill:#010101;}
	.st2{fill:none;}
	.st3{fill:#FFFFFF;}
	.st4{fill:none;stroke:#FFFFFF;stroke-width:30;stroke-miterlimit:10;}
</style>
<g>
	<g>
		<path class="st2" d="M507,519.6c1-8,1.5-14.7,1.5-21.2c0-29.2-7.4-57.3-21.5-81.1c-13.7-23.3-32.7-40.6-54.7-50c0,0,0,0,0,0
			c-24-10.2-49.1-10.2-73.1,0c-9.5,4-18.4,9.5-26.5,16.2c-2.7,2.3-5.3,4.6-7.9,7.2c-16.6,16.6-28.8,38.2-35.6,62.2
			c-4.1,14.4-6.2,29.8-6.2,45.5c0,18,2.9,35.7,8.5,52.5c8.7,26.1,23.5,48.1,42.6,63.6c18.4,14.8,39.7,22.7,61.6,22.7
			C450.7,637.2,498.5,586.6,507,519.6C507,519.6,507,519.6,507,519.6z M461.2,579.5c-15.4,17-35,27.4-55.8,29.9c0,0-0.1,0-0.1,0
			c0,0,0,0-0.1,0c-3.1,0.4-6.3,0.6-9.4,0.6c-22.6,0-44.6-9.4-61.7-26.5c-21.4-21.2-33.7-52.3-33.7-85.2c0-21.9,5.4-43.1,15.6-61.3
			c17.7-31.5,47.5-50.3,79.8-50.3c3.2,0,6.3,0.2,9.4,0.6c0,0,0.1,0,0.1,0c21.1,2.4,40.5,12.8,56,29.9c19.3,21.3,29.9,50.1,29.9,81.1
			C491.1,529.4,480.5,558.2,461.2,579.5z"/>
		<polygon class="st2" points="896.7,341 881.2,344.2 880.9,344.3 904.5,513.4 918,513.4 		"/>
		<path class="st2" d="M401.7,418.1C401.6,418.1,401.6,418.1,401.7,418.1L401.7,418.1c-2-0.2-4-0.4-6-0.4
			c-20.9,0-40.6,12.9-52.8,34.5c-7.6,13.6-11.7,29.6-11.7,46.2c0,24.7,8.9,47.7,24.5,63.2c13.1,13,29.7,18.9,45.9,17.1
			c0.1,0,0.3,0,0.4,0c13.3-1.7,25.9-8.6,36.1-19.9c13.9-15.4,21.9-37.4,21.9-60.3c0-23-8-45-21.9-60.3
			C427.8,426.5,415.2,419.7,401.7,418.1z"/>
		<path class="st2" d="M370,331.5c2.2-0.5,4.5-0.8,6.7-1.2c2.1-0.3,4.2-0.8,6.3-1c1.9-0.2,3.8-0.2,5.7-0.3c2.3-0.1,4.6-0.4,7-0.4
			c2.4,0,4.8,0.3,7.1,0.4c1.8,0.1,3.6,0.1,5.5,0.3c2.2,0.2,4.3,0.7,6.5,1c2.2,0.3,4.4,0.7,6.5,1.1c0.5,0.1,1,0.1,1.5,0.3v-60h-54.2
			v60C369.1,331.6,369.6,331.6,370,331.5z"/>
		<path class="st2" d="M353.1,240.7h85.2h4.5v-67.4v-25.2c0-1.4-1.1-2.5-2.5-2.5h-91c-1.4,0-2.5,1.1-2.5,2.5v48.5v44.2H353.1z"/>
		<path class="st2" d="M674.5,435.2L678,467c2.9,26.4,25.2,46.4,51.8,46.4h54.5l-15.5-146l-53,10.9c-19.9,4.1-34.8,18.9-39.8,37.3
			C674.3,421.9,673.7,428.5,674.5,435.2z"/>
		<polygon class="st2" points="850.5,350.6 820.3,356.8 799.2,361.2 810.1,462.7 815.5,513.4 873.2,513.4 		"/>
		<path class="st2" d="M473.2,250.8c-0.1,0.5-0.3,1-0.4,1.5c-0.3,1-0.6,2.1-1,3.1c-0.2,0.5-0.5,1.1-0.7,1.6
			c-0.4,0.9-0.9,1.8-1.4,2.6c-0.3,0.5-0.6,1-1,1.5c-0.6,0.8-1.2,1.6-1.9,2.3c-0.4,0.4-0.8,0.8-1.2,1.2c-0.8,0.7-1.6,1.4-2.5,2
			c-0.4,0.3-0.7,0.6-1.2,0.9c-1.2,0.8-2.5,1.5-3.9,2.1c-0.1,0-0.2,0.1-0.2,0.1c-1.3,0.6-2.7,1-4.2,1.4v72.1c0.1,0.1,0.2,0.2,0.4,0.2
			c4.5,2.3,8.8,5,13,7.8c1,0.7,2.1,1.5,3.1,2.2c3.6,2.6,7.2,5.4,10.6,8.4c0.6,0.5,1.2,0.9,1.7,1.4c3.8,3.4,7.5,7.1,11,11
			c0.9,1,1.7,2,2.6,3c3,3.5,5.9,7.1,8.6,10.9c0.4,0.5,0.8,1,1.2,1.5c0.5-1.4,1.1-2.7,1.7-4.1c0.6-1.6,1.2-3.1,1.9-4.7
			c1-2.2,2.1-4.3,3.2-6.4c0.7-1.4,1.4-2.8,2.1-4.1c1.3-2.3,2.8-4.5,4.3-6.8c0.7-1.1,1.4-2.2,2.1-3.2c2.3-3.2,4.7-6.4,7.3-9.3
			c17.3-19.8,40.1-33.1,65.8-38.4l28.7-5.9l55.4-11.4c-8.9-28.4-12.3-34-12.7-34.6c-0.7-1-1.6-2-2.5-3l0,0l0,0l0,0
			c-1.8-1.9-3.1-3.2-4.6-4.5l-0.5-0.5c-0.2-0.2-0.3-0.3-0.5-0.5c-1.9-1.6-3.3-2.7-4.8-3.9L650,246c-1.4-1-2.9-2.1-4.4-3.1
			c0,0,0,0,0,0s0,0,0,0c-1.2-0.9-2.5-1.7-3.8-2.5c-1.4-0.9-2.8-1.8-4.2-2.6c-2.4-1.5-4.9-3-7.5-4.4l-2.1-1.2
			c-4-2.2-8.3-4.5-12.8-6.7c0,0-0.1,0-0.1,0c0,0,0,0,0,0c0,0,0,0-0.1,0c0,0,0,0,0,0c0,0,0,0,0,0c0,0,0,0,0,0
			c-7.7-3.8-15.8-7.3-24.1-10.6c-0.1-0.1-0.3-0.1-0.4-0.2c0,0,0,0,0,0l0,0c0,0-0.1,0-0.1,0c-5.9-2.3-12-4.5-18.3-6.6c0,0,0,0,0,0
			s0,0,0,0c-31.9-10.6-64.9-16.8-98.1-18.6V246C473.7,247.7,473.6,249.3,473.2,250.8z"/>
		<path class="st2" d="M612.7,597.8c-1.7-0.2-3.5-0.5-5.2-0.7c-2-0.3-4-0.5-6-0.9c-1.7-0.3-3.3-0.8-5-1.2c-2-0.5-4-0.9-5.9-1.4
			c-1.3-0.4-2.5-0.9-3.8-1.3c-2.3-0.8-4.6-1.5-6.8-2.4c-1-0.4-2-0.9-3-1.4c-2.4-1.1-4.9-2.1-7.3-3.3c-0.8-0.4-1.6-1-2.4-1.4
			c-2.5-1.4-5-2.7-7.4-4.2c-0.7-0.5-1.4-1-2.1-1.5c-2.4-1.6-4.9-3.3-7.2-5.1c0,0-0.1-0.1-0.1-0.1c0,0,0,0,0,0
			c-2.3-1.8-4.4-3.7-6.5-5.6c-0.7-0.6-1.3-1.1-2-1.7c0,0,0,0-0.1-0.1c0,0-0.1-0.1-0.1-0.1c-0.2-0.2-0.4-0.4-0.4-0.4
			c-0.1-0.1-0.2-0.3-0.4-0.4c-2.6-2.6-4.8-4.9-6.8-7.2l-1.1-1.2l0,0l0,0l0,0c-0.5-0.6-1-1.2-1.5-1.8c-0.1,0.3-0.2,0.5-0.3,0.8
			c-1.8,6-3.8,11.7-6.1,17.3c-0.6,1.6-1.3,3.1-1.9,4.6c-2.3,5.4-4.9,10.6-7.6,15.6c-0.2,0.4-0.4,0.9-0.7,1.3
			c-3,5.3-6.4,10.3-9.9,15.2c-0.9,1.3-1.9,2.5-2.8,3.7c-3.1,4.1-6.4,8-9.9,11.7c-0.5,0.5-0.9,1.1-1.3,1.6c6.7-4.9,12.2-9.9,16.9-14
			c8.8-7.8,15.2-13.5,24-13.5c10,0,18.4,5.1,25.8,9.5c4.4,2.7,9,5.4,12.1,6c0.9,0.1,4.1,0.2,14.2-0.2c0.1,0,0.2,0,0.2,0
			c0.6,0,1.3,0,1.9-0.1c0.4,0,0.7,0,1.1,0c0.5,0,0.9,0,1.4-0.1c0.6,0,1.2,0,1.8-0.1c0.3,0,0.6,0,0.9,0c2.1-0.1,4.3-0.2,6.7-0.3
			c0.1,0,0.2,0,0.2,0c1.3-0.1,2.6-0.1,3.9-0.2c0.1,0,0.2,0,0.3,0c19-0.9,48.8-2.6,95.3-5.6c1.2-0.1,2.3-0.2,3.5-0.2
			c2.2-0.1,4.4-0.3,6.6-0.4c2-0.1,4.1-0.3,6.2-0.4c0.5,0,0.9-0.1,1.4-0.1c1.7-3.1,3.9-5.7,6.4-7.9h-97.8
			C620.3,598.4,616.5,598.2,612.7,597.8z"/>
		<path class="st2" d="M719.5,736.5c0.4-1,0.7-2.2,1.1-3.7l0.4-1.8c0.5-2.3,0.9-4.6,1.2-7.1c0-0.1,0-0.1,0-0.2c0,0,0,0,0,0
			c0-0.2,0.1-0.7,0.1-0.9c0-0.1,0-0.2,0-0.3c0.3-3.1,0.5-6.5,0.5-10.1c0,0,0,0,0,0c0-2.1,0-4.1,0-6c-0.4-23.4-5.1-50.8-7.9-67.6
			c-0.1-0.5-0.2-0.9-0.2-1.3c-5.4,0.3-10.5,0.7-15.5,1c-63.5,4.1-96.4,5.7-113.8,6.3c-0.1,0-0.2,0-0.4,0c-1,0-1.9,0.1-2.7,0.1
			c-0.2,0-0.3,0-0.5,0c-0.8,0-1.6,0-2.3,0.1c-0.1,0-0.3,0-0.4,0c-0.7,0-1.4,0-2.1,0c-0.1,0-0.2,0-0.3,0c-0.6,0-1.2,0-1.8,0
			c-0.2,0-0.3,0-0.5,0c-0.5,0-0.9,0-1.3,0c-0.2,0-0.4,0-0.6,0c-0.4,0-0.7,0-1.1,0c-0.2,0-0.3,0-0.5,0c-0.3,0-0.6,0-0.9,0
			c-0.2,0-0.4,0-0.6,0c-0.2,0-0.4,0-0.6,0c-0.2,0-0.4,0-0.7,0c-0.1,0-0.2,0-0.3,0c-0.2,0-0.4,0-0.5,0c-0.1,0-0.2,0-0.3,0
			c-0.2,0-0.3,0-0.5,0c-0.1,0-0.1,0-0.2,0c-0.4,0-0.7-0.1-1-0.1c0,0-0.1,0-0.1,0c-0.3,0-0.5-0.1-0.8-0.1c-8.9-1.5-16.3-6-22.9-10
			c-2.3-1.4-5.4-3.2-7.6-4.3c-1.6,1.4-3.8,3.2-5.6,4.9c-17.1,15.3-52.6,46.8-114.4,46.8c-0.9,0-1.7,0-2.6,0
			c-6.6-0.1-12.9-0.6-18.8-1.3c-2-0.3-3.7-0.7-5.6-1c-3.8-0.7-7.7-1.3-11.2-2.2c-2.1-0.5-3.9-1.3-5.9-1.9c-3-0.9-6.1-1.8-8.9-2.9
			c-2-0.8-3.7-1.7-5.6-2.6c-2.5-1.1-5.1-2.2-7.4-3.5c-1.8-1-3.4-2-5-3.1c-2.1-1.3-4.3-2.5-6.2-3.9c-1.6-1.1-2.9-2.3-4.4-3.4
			c-1.8-1.4-3.6-2.7-5.2-4.1c-1.4-1.2-2.5-2.4-3.8-3.6c-1.5-1.4-3-2.8-4.3-4.2c-1.1-1.2-2.1-2.4-3.1-3.6c-0.9-1.1-2-2.2-2.9-3.3
			c-0.4-0.3-0.7-0.7-1.1-1c-4.4-3.7-8.6-7.7-12.6-11.9c-0.3-0.4-0.7-0.7-1.1-1.1c-4-4.4-7.8-9.1-11.4-14c-0.6-0.8-1.2-1.7-1.8-2.5
			c-3.4-4.9-6.6-10-9.5-15.3c-0.5-0.9-1-1.9-1.5-2.8c-2.9-5.5-5.7-11.2-8-17.1c0-0.1-0.1-0.2-0.2-0.3h-65.5
			c23.7,65.9,60.8,111.1,86.2,141.9c15.4,18.8,25.6,31.2,28.5,42.9c7.5,30-28.8,127.1-49.3,178.4h129.9h149.1
			c10.4-29.4,39.7-112.1,50.7-139.4c9.7-24.3,42.1-31.4,73.3-38.2c18.3-4,46-10,50-18.4C719,738,719.3,737.3,719.5,736.5z"/>
		<path class="st2" d="M801.5,544.4h-71.7c-42.4,0-77.9-31.8-82.6-73.9l-3.5-31.8c-4.8-42.9,23.5-81.8,65.8-90.6h0l69.7-14.4h0
			l40.7-8.4l69.5-14.4c-0.7-1.4-1.5-2.8-2.4-4.1c-0.5-0.8-0.9-1.6-1.5-2.3c-1.8-2.3-3.8-4.4-6.1-6.2c-1.8-1.4-3.4-2.4-5-3.3
			c-1.2-0.6-2.4-1.1-3.6-1.6c-0.7-0.3-1.3-0.6-2-0.8c-1.8-0.6-3.6-1.1-5.5-1.4c-2.7-0.4-4.4-0.5-6.3-0.5c0,0-1,0-1,0
			c-1.9,0.1-3.8,0.3-5.8,0.6l-249.5,51.5c-19.1,4-36,13.8-48.8,28.4c-10.2,11.6-17.1,25.8-20.2,41.1c-0.3,1.6-1,3.1-1.7,4.5
			c-0.2,0.3-0.3,0.6-0.5,0.9c-0.8,1.3-1.8,2.4-3,3.4c-0.2,0.2-0.4,0.3-0.6,0.5c-0.5,0.4-1,0.8-1.6,1.2c0.1,0.2,0.1,0.3,0.2,0.5
			c2.2,5.1,4,10.4,5.7,15.7c0.4,1.3,0.8,2.6,1.2,4c1.5,5.1,2.9,10.3,3.9,15.6c0.1,0.4,0.2,0.7,0.3,1.1c1.1,5.6,1.9,11.3,2.5,17
			c0.2,1.4,0.3,2.8,0.4,4.2c0.5,5.8,0.9,11.6,0.9,17.5c0,3.6-0.1,7.3-0.4,11.2c0.5,0.4,0.9,0.9,1.3,1.4c0.3,0.3,0.6,0.6,0.9,0.9
			c0.9,1.1,1.6,2.3,2.2,3.6l0.3,0.6c0.9,1.9,1.8,3.8,2.8,5.6l0.8,1.4c0.1,0.2,0.3,0.4,0.4,0.7c1.1,1.8,2.2,3.6,3.3,5.3l0.9,1.3
			c1.5,2.1,3,4,4.5,5.8l0.8,0.9c1.7,1.9,3.5,3.8,5.3,5.6c0.4,0.4,0.7,0.7,1.1,1c1.8,1.7,3.7,3.3,5.6,4.8c0,0,0.1,0.1,0.1,0.1
			c0.1,0,0.1,0.1,0.2,0.1c2.1,1.6,4.2,3.1,6.4,4.6c0.8,0.5,1.6,1,2.4,1.4c1.5,0.9,2.9,1.7,4.4,2.5c1,0.5,1.9,1,2.9,1.4
			c1.4,0.7,2.8,1.3,4.2,1.9c1,0.4,2.1,0.8,3.1,1.2c1.4,0.5,2.9,1,4.3,1.5c1,0.3,2.1,0.7,3.2,0.9c1.5,0.4,3.1,0.8,4.6,1.1
			c1,0.2,2,0.5,3,0.6c1.7,0.3,3.5,0.5,5.2,0.8c0.9,0.1,1.7,0.2,2.6,0.3c2.6,0.2,5.3,0.4,8,0.4h138.6h132c7.4,0,14.1-3,19-8.6
			c3.6-4.1,5.8-9.1,6.3-14.4H891C891,544.4,801.5,544.4,801.5,544.4z"/>
		<path class="st2" d="M315.6,357.6c2.9-2.3,5.8-4.5,8.8-6.5c1.4-1,2.9-1.8,4.4-2.7c2.5-1.6,5-3.1,7.6-4.5c0.4-0.2,0.8-0.5,1.2-0.7
			v-71.8c-0.2,0-0.5-0.1-0.7-0.2c-0.7-0.1-1.3-0.3-2-0.5c-0.9-0.2-1.8-0.5-2.7-0.8c-0.7-0.3-1.3-0.5-1.9-0.8
			c-0.8-0.4-1.6-0.8-2.4-1.3c-0.6-0.4-1.2-0.7-1.7-1.2c-0.7-0.5-1.4-1.1-2.1-1.7c-0.5-0.5-1-0.9-1.5-1.4c-0.6-0.7-1.2-1.4-1.7-2.1
			c-0.4-0.5-0.8-1.1-1.2-1.6c-0.5-0.8-0.9-1.6-1.4-2.5c-0.3-0.6-0.6-1.1-0.8-1.7c-0.4-1-0.7-2-1-3.1c-0.1-0.5-0.3-1-0.4-1.6
			c-0.3-1.6-0.5-3.3-0.5-5v-25.9c-36.1,17.2-66.4,40.5-88.9,68.6l86.4,70.6C314,358.7,314.8,358.2,315.6,357.6z"/>
		<path class="st2" d="M256.5,540.3c-0.2-1.1-0.3-2.3-0.6-3.5c-0.9-4.6-1.7-9.2-2.2-13.8c-0.2-1.9-0.5-3.7-0.7-5.6
			c-0.6-6.3-1-12.7-1-19.1c0-5.9,0.3-11.8,0.8-17.6c0.2-1.9,0.5-3.8,0.7-5.7c0.5-3.9,0.9-7.8,1.6-11.6c0.4-2.2,0.9-4.3,1.3-6.5
			c0.7-3.5,1.5-6.9,2.4-10.3c0.6-2.2,1.3-4.4,1.9-6.6c1-3.3,2.1-6.5,3.3-9.7c0.8-2.1,1.6-4.2,2.4-6.3c1.3-3.2,2.8-6.3,4.2-9.4
			c0.9-1.9,1.8-3.9,2.8-5.8c1.7-3.3,3.6-6.5,5.5-9.6c0.9-1.6,1.8-3.1,2.8-4.7c2.8-4.4,5.9-8.6,9.1-12.6c0.2-0.2,0.3-0.4,0.5-0.6
			c0,0,0,0,0-0.1l-11.1-9.1l-80.8-66l-23.2,46.4l3.7,2.7c0,0,0,0,0.1,0l59.4,43.8c1.9,1.4,3.6,2.9,5.2,4.5
			c11.3,11.4,15.9,28.2,11.5,43.9c-5.4,19.5-23.3,33.2-43.6,33.2h-49.4h-0.7l12.4,59.4L256.5,540.3z"/>
		<path class="st2" d="M178.1,450h34.6c6.4,0,12-4.3,13.7-10.5c1.6-5.7-0.6-11.8-5.3-15.3l-39.9-29.4c-2.2,14.1-3.3,28.8-3.3,43.8
			C177.9,442.3,178,446.1,178.1,450z"/>
		<path class="st3" d="M950.6,535.1l-0.2-1.8c0.6-2,0.8-4.2,0.5-6.3l-25.5-206.4c-0.3-2.3-1.1-4.4-2.3-6.4
			c-1.9-10.3-6.2-19.9-12.5-28.1c-0.1-0.1-0.2-0.2-0.2-0.3c-1.7-2.1-3.5-4.2-5.4-6.2c-0.1-0.1-0.1-0.2-0.2-0.2
			c-1.9-1.9-3.9-3.8-6.1-5.4c0,0,0,0,0,0s0,0,0,0c0,0-0.1-0.1-0.2-0.1c-0.1-0.1-0.2-0.1-0.2-0.2c-2.1-1.7-4.4-3.2-6.7-4.5
			c-0.2-0.1-0.4-0.3-0.7-0.4c0,0,0,0,0,0h0c-0.5-0.3-1.1-0.6-1.6-0.9h0c0,0,0,0,0,0c0,0,0,0-0.1,0c-0.3-0.2-0.6-0.3-0.7-0.4
			c-3.1-1.7-6.4-3-9.8-4.2c-0.1,0-0.1-0.1-0.2-0.1c-3.2-1.1-6.6-1.9-10-2.5c0,0,0,0,0,0c0,0,0,0,0,0c-0.1,0-0.1,0-0.2,0
			c-0.1,0-0.1,0-0.2,0c-0.1,0-1.2-0.2-1.3-0.2c-3.4-0.5-6.8-0.6-10-0.6l-0.2,0c0,0-0.1,0-0.1,0c0,0-0.1,0-0.1,0l-1.7,0.1
			c-3.9,0.2-7.4,0.6-10.8,1.3l-42.7,8.8l0,0l-92.2,19c-9.9-32.1-14.6-41.4-17.6-45.8c-1.3-1.9-3-4-5.2-6.4c0,0,0,0,0,0l-0.1-0.1
			c0,0,0-0.1-0.1-0.1c-0.1-0.1-0.8-0.8-0.9-0.9c0,0,0,0,0,0c0,0,0,0,0,0c0,0,0,0,0,0l0,0c0,0,0,0,0,0c0,0,0,0,0,0s0,0,0,0
			c0-0.1,0,0,0,0c0,0,0,0,0,0c0,0,0,0,0,0c0,0,0,0,0,0l0,0l0,0c0,0,0,0,0,0c0,0,0,0,0,0c0,0,0,0,0,0c-1.7-1.7-3.5-3.5-5.5-5.3
			l-1.4-1.3l0,0l-0.5-0.5c-1.7-1.5-3.5-2.9-5.5-4.5l0,0c0,0,0,0,0,0c0,0,0,0-0.1-0.1l-3.6-2.7c-1.7-1.2-3.5-2.5-5.3-3.8
			c-1.4-1-2.9-1.9-4.4-2.9c-1.6-1-3.2-2-4.9-3c-0.1-0.1-0.2-0.1-0.3-0.2c-1.3-0.8-2.5-1.6-3.8-2.3c-1.4-0.8-2.8-1.6-4.2-2.4
			c0,0-0.1,0-0.1-0.1l0,0l0,0c0,0,0,0,0,0l-2.2-1.2c0,0,0,0,0,0c-0.2-0.1-0.4-0.2-0.6-0.3c-3.1-1.7-6.2-3.3-9.3-4.9
			c-0.6-0.3-1.2-0.7-1.8-1c-0.8-0.4-1.7-0.8-2.5-1.2c0,0,0,0,0,0c-0.1,0-0.2-0.1-0.2-0.1c-5-2.4-10.1-4.7-15.2-6.9
			c-0.4-0.2-0.8-0.4-1.2-0.5c-3-1.3-6.1-2.6-9.2-3.8c-0.2-0.1-0.5-0.2-0.7-0.3c-0.1,0-0.2-0.1-0.3-0.1c-0.1,0-0.2-0.1-0.3-0.1
			c0,0,0,0,0,0c0,0,0,0-0.1,0c0,0,0,0,0,0c0,0-0.1,0-0.1,0c0,0-0.1,0-0.1,0c-6.3-2.4-12.8-4.8-19.5-7.1c0,0,0,0-0.1,0
			c0,0-0.1,0-0.1,0c0,0,0,0,0,0c0,0,0,0,0,0c-35.1-11.6-71.3-18.4-107.8-20.2v-10.2c0-18.5-15-33.5-33.5-33.5h-91
			c-18.5,0-33.5,15-33.5,33.5v38.2c-47.7,20.2-87.3,49.8-115.7,86.7c-2.5-0.2-5.1-0.2-7.6,0.4c-7.8,1.7-14.4,6.8-18,13.9l-27.6,55.3
			c-5.5,11-2.6,24.1,6.8,31.9c-4.4,20.5-6.7,42-6.7,64.3c0,4.5,0.1,9.1,0.3,14c-3.8,1.8-7.2,4.4-9.9,7.7c-5.4,6.6-7.4,15.1-5.7,23.5
			l13.1,62.8c2.4,11.7,11.5,20.7,22.7,23.6c25.2,77.4,68.8,130.5,95.3,162.7c9.9,12.1,21.2,25.8,22.4,30.7
			c4.3,17.2-26.1,107-56.6,180.4c-2,4.8-1.5,10.2,1.4,14.6s7.7,6.9,12.9,6.9h153h160.1c6.6,0,12.4-4.1,14.6-10.3
			c0.4-1.2,41-116.4,53.9-148.5c3.6-9,32.2-15.3,51.2-19.4c31.3-6.8,60.8-13.3,71.4-35.5c1.5-3.1,2.7-6.7,3.9-11.2
			c0.2-0.9,0.5-1.9,0.7-2.9c0,0,0,0,0,0c0.4-1.6,0.7-3.3,1-5c0.3-1.7,0.5-3.5,0.7-5.3v0c0-0.2,0.1-1,0.2-1.2c0,0,0,0,0,0
			c0.2-2.1,0.4-4.3,0.5-6.5c0.1-2.2,0.2-4.4,0.2-6.6v0c0-0.1,0-0.1,0-0.2c0-0.2,0-0.4,0-0.6v0c0,0,0,0,0,0l0,0l0,0
			c0-1.7,0-3.5,0-5.2c0-2.7-0.1-5.5-0.2-8.3c0-0.2,0-0.4,0-0.6c-1.2-23.6-5.4-48.4-8.1-64.4c-0.9-5.5-1.7-9.9-2.1-12.9
			c2.1-1.5,6.4-3.6,9.3-4.9c7.7-3.6,16.5-7.8,22.1-15.6c0.4-0.6,0.6-1.2,0.9-1.8h119c16.1,0,31.5-6.9,42.2-19
			C947.6,567.3,952.6,551.1,950.6,535.1z M715.8,378.4l53-10.9l15.5,146h-54.5c-26.6,0-48.9-19.9-51.8-46.4l-3.5-31.9
			c-0.7-6.7-0.2-13.3,1.5-19.5C680.9,397.3,695.9,382.5,715.8,378.4z M815.5,513.4l-5.4-50.8l-10.8-101.5l21-4.3l30.2-6.2
			l22.7,162.8C873.2,513.4,815.5,513.4,815.5,513.4z M904.5,513.4l-23.6-169.1l0.3-0.1l15.5-3.2L918,513.4L904.5,513.4L904.5,513.4z
			 M571.8,207.8C571.9,207.8,571.9,207.8,571.8,207.8C571.9,207.8,571.9,207.9,571.8,207.8c6.4,2.1,12.5,4.3,18.4,6.6
			c0,0,0.1,0,0.1,0l0,0c0,0,0,0,0,0c0.1,0.1,0.3,0.1,0.4,0.2c8.3,3.3,16.4,6.8,24.1,10.6c0,0,0,0,0,0l0,0c0,0,0,0,0,0c0,0,0,0,0.1,0
			c0,0,0,0,0,0c0,0,0.1,0,0.1,0c4.5,2.2,8.8,4.5,12.8,6.7l2.1,1.2c2.6,1.5,5.1,2.9,7.5,4.4c1.4,0.9,2.8,1.8,4.2,2.6
			c1.3,0.9,2.5,1.7,3.8,2.5c0,0,0,0,0,0c0,0,0,0,0,0c1.6,1.1,3,2.1,4.4,3.1l3,2.2c1.5,1.2,2.9,2.3,4.8,3.9c0.2,0.2,0.3,0.3,0.5,0.5
			l0.5,0.5c1.5,1.3,2.8,2.6,4.6,4.5l0,0l0,0l0,0c0.9,1,1.8,2,2.5,3c0.4,0.6,3.8,6.2,12.7,34.6l-55.4,11.4l-28.7,5.9
			c-25.8,5.3-48.5,18.6-65.8,38.4c-2.6,3-5,6.1-7.3,9.3c-0.7,1-1.4,2.2-2.1,3.2c-1.5,2.2-2.9,4.5-4.3,6.8c-0.8,1.3-1.4,2.7-2.1,4.1
			c-1.1,2.1-2.2,4.3-3.2,6.4c-0.7,1.5-1.3,3.1-1.9,4.7c-0.5,1.4-1.2,2.7-1.7,4.1c-0.4-0.5-0.8-1-1.2-1.5c-2.7-3.8-5.6-7.4-8.6-10.9
			c-0.9-1-1.7-2-2.6-3c-3.5-3.9-7.2-7.6-11-11c-0.6-0.5-1.1-0.9-1.7-1.4c-3.4-3-7-5.8-10.6-8.4c-1-0.7-2.1-1.5-3.1-2.2
			c-4.2-2.8-8.5-5.5-13-7.8c-0.1-0.1-0.2-0.2-0.4-0.2v-72.1c1.4-0.3,2.8-0.8,4.2-1.4c0.1,0,0.2-0.1,0.2-0.1c1.4-0.6,2.6-1.3,3.9-2.1
			c0.4-0.3,0.8-0.6,1.2-0.9c0.9-0.6,1.7-1.3,2.5-2c0.4-0.4,0.8-0.8,1.2-1.2c0.7-0.7,1.3-1.5,1.9-2.3c0.3-0.5,0.7-1,1-1.5
			c0.5-0.8,1-1.7,1.4-2.6c0.3-0.5,0.5-1,0.7-1.6c0.4-1,0.7-2,1-3.1c0.1-0.5,0.3-1,0.4-1.5c0.3-1.6,0.5-3.2,0.5-4.9v-56.7
			C507,191,539.9,197.3,571.8,207.8z M395.7,637.2c-22,0-43.3-7.8-61.6-22.7c-19.1-15.5-33.9-37.4-42.6-63.6
			c-5.6-16.9-8.5-34.5-8.5-52.5c0-15.7,2.1-31,6.2-45.5c6.8-24.1,19-45.6,35.6-62.2c2.5-2.5,5.2-4.9,7.9-7.2
			c8.1-6.7,17-12.2,26.5-16.2c24-10.2,49.1-10.2,73.1,0c0,0,0,0,0,0c22.1,9.4,41,26.6,54.7,50c14,23.8,21.5,51.9,21.5,81.1
			c0,6.5-0.5,13.2-1.5,21.2v0C498.6,586.6,450.7,637.2,395.7,637.2z M422.8,271.7v60c-0.5-0.1-1-0.2-1.5-0.3
			c-2.2-0.5-4.3-0.8-6.5-1.1c-2.2-0.3-4.3-0.8-6.5-1c-1.8-0.2-3.6-0.2-5.5-0.3c-2.4-0.1-4.8-0.4-7.1-0.4c-2.3,0-4.6,0.3-7,0.4
			c-1.9,0.1-3.8,0.1-5.7,0.3c-2.1,0.2-4.2,0.6-6.3,1c-2.2,0.4-4.5,0.7-6.7,1.2c-0.5,0.1-1,0.1-1.4,0.2v-60L422.8,271.7L422.8,271.7z
			 M346.7,148.1c0-1.4,1.1-2.5,2.5-2.5h91c1.4,0,2.5,1.1,2.5,2.5v25.2v67.4h-4.5h-85.2h-6.4v-44.2V148.1z M315.8,220.1V246
			c0,1.7,0.2,3.3,0.5,5c0.1,0.5,0.3,1,0.4,1.6c0.3,1,0.6,2.1,1,3.1c0.2,0.6,0.5,1.1,0.8,1.7c0.4,0.9,0.9,1.7,1.4,2.5
			c0.4,0.6,0.8,1.1,1.2,1.6c0.5,0.7,1.1,1.4,1.7,2.1c0.5,0.5,1,1,1.5,1.4c0.7,0.6,1.4,1.2,2.1,1.7c0.6,0.4,1.1,0.8,1.7,1.2
			c0.8,0.5,1.6,0.9,2.4,1.3c0.6,0.3,1.2,0.6,1.9,0.8c0.9,0.3,1.8,0.6,2.7,0.8c0.7,0.2,1.3,0.4,2,0.5c0.2,0,0.5,0.1,0.7,0.2v71.8
			c-0.4,0.2-0.8,0.5-1.2,0.7c-2.6,1.4-5.1,2.9-7.6,4.5c-1.5,0.9-2.9,1.7-4.4,2.7c-3,2-5.9,4.3-8.8,6.5c-0.8,0.6-1.6,1.1-2.3,1.7
			l-86.4-70.6C249.4,260.6,279.7,237.2,315.8,220.1z M221.2,424.2c4.7,3.5,6.9,9.6,5.3,15.3c-1.7,6.2-7.4,10.5-13.7,10.5h-34.6
			c-0.1-3.9-0.2-7.7-0.2-11.3c0-15,1.1-29.7,3.3-43.8L221.2,424.2z M163.4,481h49.4c20.3,0,38.2-13.7,43.6-33.2
			c4.3-15.7-0.3-32.6-11.5-43.9c-1.6-1.6-3.4-3.1-5.2-4.5l-59.4-43.8c0,0,0,0-0.1,0l-3.7-2.7l23.2-46.4l80.8,66l11.1,9.1
			c0,0,0,0,0,0.1c-0.2,0.2-0.3,0.4-0.5,0.6c-3.2,4-6.2,8.3-9.1,12.6c-1,1.5-1.9,3.1-2.8,4.7c-1.9,3.1-3.8,6.3-5.5,9.6
			c-1,1.9-1.9,3.8-2.8,5.8c-1.5,3.1-2.9,6.2-4.2,9.4c-0.9,2.1-1.7,4.2-2.4,6.3c-1.2,3.2-2.3,6.4-3.3,9.7c-0.7,2.2-1.3,4.4-1.9,6.6
			c-0.9,3.4-1.7,6.8-2.4,10.3c-0.5,2.2-1,4.3-1.3,6.5c-0.7,3.8-1.2,7.7-1.6,11.6c-0.2,1.9-0.5,3.7-0.7,5.7
			c-0.5,5.8-0.8,11.6-0.8,17.6c0,6.4,0.4,12.7,1,19.1c0.2,1.9,0.4,3.7,0.7,5.6c0.6,4.7,1.3,9.3,2.2,13.8c0.2,1.1,0.3,2.3,0.6,3.5
			l-81.4,0L162.6,481L163.4,481L163.4,481z M668.8,756.9c-31.3,6.8-63.6,13.9-73.3,38.2c-10.9,27.3-40.3,110-50.7,139.4H395.7H265.8
			c20.5-51.2,56.8-148.4,49.3-178.4c-2.9-11.7-13.1-24.1-28.5-42.9c-25.3-30.8-62.5-76-86.2-141.9H266c0,0.1,0.1,0.2,0.2,0.3
			c2.4,5.9,5.1,11.6,8,17.1c0.5,0.9,1,1.9,1.5,2.8c2.9,5.3,6.1,10.4,9.5,15.3c0.6,0.9,1.2,1.7,1.8,2.5c3.6,4.9,7.3,9.6,11.4,14
			c0.3,0.4,0.7,0.7,1.1,1.1c4,4.2,8.2,8.2,12.6,11.9c0.4,0.3,0.7,0.7,1.1,1c0.9,1.1,1.9,2.2,2.9,3.3c1,1.2,2,2.4,3.1,3.6
			c1.3,1.4,2.8,2.8,4.3,4.2c1.2,1.2,2.4,2.4,3.8,3.6c1.6,1.4,3.4,2.8,5.2,4.1c1.5,1.1,2.8,2.3,4.4,3.4c1.9,1.4,4.1,2.6,6.2,3.9
			c1.7,1,3.2,2.1,5,3.1c2.3,1.2,4.9,2.3,7.4,3.5c1.9,0.9,3.6,1.8,5.6,2.6c2.8,1.1,5.9,2,8.9,2.9c2,0.6,3.8,1.3,5.9,1.9
			c3.5,0.9,7.4,1.5,11.2,2.2c1.9,0.3,3.6,0.8,5.6,1c5.9,0.8,12.2,1.2,18.8,1.3c0.9,0,1.7,0,2.6,0c61.9,0,97.3-31.5,114.4-46.8
			c1.8-1.6,3.9-3.5,5.6-4.9c2.3,1,5.4,2.9,7.6,4.3c6.6,4,14,8.5,22.9,10c0.2,0,0.5,0.1,0.8,0.1c0,0,0.1,0,0.1,0c0.3,0,0.6,0.1,1,0.1
			c0.1,0,0.1,0,0.2,0c0.2,0,0.3,0,0.5,0c0.1,0,0.2,0,0.3,0c0.2,0,0.3,0,0.5,0c0.1,0,0.2,0,0.3,0c0.2,0,0.4,0,0.7,0
			c0.2,0,0.4,0,0.6,0c0.2,0,0.4,0,0.6,0c0.3,0,0.6,0,0.9,0c0.2,0,0.3,0,0.5,0c0.3,0,0.7,0,1.1,0c0.2,0,0.4,0,0.6,0
			c0.4,0,0.9,0,1.3,0c0.2,0,0.3,0,0.5,0c0.6,0,1.2,0,1.8,0c0.1,0,0.2,0,0.3,0c0.7,0,1.4,0,2.1,0c0.1,0,0.3,0,0.4,0
			c0.7,0,1.5,0,2.3-0.1c0.2,0,0.3,0,0.5,0c0.9,0,1.8-0.1,2.7-0.1c0.1,0,0.2,0,0.4,0c17.4-0.6,50.3-2.3,113.8-6.3
			c5-0.3,10.1-0.7,15.5-1c0.1,0.4,0.2,0.9,0.2,1.3c2.9,16.9,7.5,44.3,7.9,67.6c0,1.9,0,3.9,0,6c0,0,0,0,0,0
			c-0.1,3.5-0.2,6.9-0.5,10.1c0,0.1,0,0.2,0,0.3c0,0.2-0.1,0.7-0.1,0.9c0,0,0,0,0,0c0,0.1,0,0.1,0,0.2c-0.3,2.5-0.7,4.9-1.2,7.1
			l-0.4,1.8c-0.4,1.5-0.7,2.7-1.1,3.7c-0.3,0.7-0.5,1.4-0.8,2C714.8,746.9,687.1,752.9,668.8,756.9z M715.6,606.3
			c-0.5,0-0.9,0.1-1.4,0.1c-2.1,0.1-4.1,0.3-6.2,0.4c-2.2,0.1-4.5,0.3-6.6,0.4c-1.2,0.1-2.3,0.2-3.5,0.2c-46.5,3-76.3,4.7-95.3,5.6
			c-0.1,0-0.2,0-0.3,0c-1.4,0.1-2.7,0.1-3.9,0.2c-0.1,0-0.2,0-0.2,0c-2.4,0.1-4.7,0.2-6.7,0.3c-0.3,0-0.6,0-0.9,0
			c-0.6,0-1.2,0-1.8,0.1c-0.5,0-1,0-1.4,0.1c-0.4,0-0.7,0-1.1,0c-0.7,0-1.3,0-1.9,0.1c-0.1,0-0.2,0-0.2,0
			c-10.1,0.4-13.3,0.3-14.2,0.2c-3.2-0.5-7.7-3.3-12.1-6c-7.4-4.5-15.8-9.5-25.8-9.5c-8.8,0-15.2,5.7-24,13.5
			c-4.7,4.2-10.2,9.1-16.9,14c0.5-0.5,0.9-1.1,1.3-1.6c3.5-3.7,6.7-7.6,9.9-11.7c0.9-1.2,1.9-2.5,2.8-3.7c3.5-4.9,6.8-9.9,9.9-15.2
			c0.2-0.4,0.4-0.9,0.7-1.3c2.8-5,5.3-10.2,7.6-15.6c0.7-1.5,1.3-3.1,1.9-4.6c2.3-5.6,4.3-11.4,6.1-17.3c0.1-0.3,0.2-0.5,0.3-0.8
			c0.5,0.6,1,1.2,1.5,1.8l0,0l0,0l0,0l1.1,1.2c2,2.3,4.2,4.6,6.8,7.2c0.1,0.1,0.2,0.3,0.4,0.4c0.1,0.1,0.3,0.3,0.4,0.4
			c0,0,0.1,0.1,0.1,0.1c0,0,0,0,0.1,0.1c0.6,0.6,1.3,1.1,2,1.7c2.1,1.9,4.3,3.9,6.5,5.6c0,0,0,0,0,0c0,0,0.1,0.1,0.1,0.1
			c2.3,1.8,4.7,3.5,7.2,5.1c0.7,0.5,1.4,1,2.1,1.5c2.4,1.5,4.9,2.9,7.4,4.2c0.8,0.4,1.6,1,2.4,1.4c2.4,1.2,4.8,2.3,7.3,3.3
			c1,0.4,2,1,3,1.4c2.2,0.9,4.5,1.6,6.8,2.4c1.3,0.4,2.5,0.9,3.8,1.3c2,0.6,4,1,5.9,1.4c1.7,0.4,3.3,0.9,5,1.2c2,0.4,4,0.6,6,0.9
			c1.7,0.2,3.4,0.6,5.2,0.7c3.8,0.4,7.6,0.5,11.4,0.5h97.8C719.4,600.6,717.2,603.2,715.6,606.3z M913.7,558.8
			c-4.9,5.5-11.6,8.6-19,8.6h-132H624.1c-2.7,0-5.3-0.1-8-0.4c-0.9-0.1-1.7-0.2-2.6-0.3c-1.8-0.2-3.5-0.4-5.2-0.8
			c-1-0.2-2-0.4-3-0.6c-1.6-0.3-3.1-0.7-4.6-1.1c-1.1-0.3-2.1-0.6-3.2-0.9c-1.5-0.5-2.9-1-4.3-1.5c-1-0.4-2.1-0.8-3.1-1.2
			c-1.4-0.6-2.8-1.3-4.2-1.9c-1-0.5-1.9-0.9-2.9-1.4c-1.5-0.8-3-1.7-4.4-2.5c-0.8-0.5-1.6-0.9-2.4-1.4c-2.2-1.4-4.3-2.9-6.4-4.6
			c-0.1,0-0.1-0.1-0.2-0.1c0,0-0.1-0.1-0.1-0.1c-1.9-1.5-3.8-3.1-5.6-4.8c-0.4-0.3-0.7-0.6-1.1-1c-1.9-1.8-3.6-3.7-5.3-5.6l-0.8-0.9
			c-1.5-1.8-3-3.7-4.5-5.8l-0.9-1.3c-1.2-1.7-2.3-3.5-3.3-5.3c-0.1-0.2-0.3-0.4-0.4-0.7l-0.8-1.4c-1-1.8-1.9-3.7-2.8-5.6l-0.3-0.6
			c-0.6-1.3-1.3-2.5-2.2-3.6c-0.3-0.3-0.6-0.6-0.9-0.9c-0.4-0.5-0.8-1-1.3-1.4c0.3-3.9,0.4-7.6,0.4-11.2c0-5.9-0.3-11.7-0.9-17.5
			c-0.1-1.4-0.3-2.8-0.4-4.2c-0.6-5.7-1.4-11.4-2.5-17c-0.1-0.4-0.2-0.7-0.3-1.1c-1.1-5.3-2.4-10.5-3.9-15.6c-0.4-1.3-0.8-2.6-1.2-4
			c-1.7-5.3-3.6-10.6-5.7-15.7c-0.1-0.2-0.1-0.3-0.2-0.5c0.6-0.3,1.1-0.8,1.6-1.2c0.2-0.2,0.4-0.3,0.6-0.5c1.2-1,2.1-2.1,3-3.4
			c0.2-0.3,0.3-0.6,0.5-0.9c0.8-1.4,1.4-2.9,1.7-4.5c3-15.3,10-29.5,20.2-41.1c12.8-14.7,29.7-24.5,48.8-28.4l249.5-51.5
			c1.9-0.4,3.9-0.6,5.8-0.6c0,0,1,0,1,0c1.8,0,3.6,0.1,6.3,0.5c1.9,0.3,3.7,0.8,5.5,1.4c0.7,0.2,1.3,0.6,2,0.8
			c1.2,0.5,2.4,0.9,3.6,1.6c1.7,0.9,3.3,1.9,5,3.3c2.3,1.8,4.3,3.9,6.1,6.2c0.6,0.7,1,1.6,1.5,2.3c0.9,1.3,1.7,2.7,2.4,4.1
			L820,325.3l-40.7,8.4h0l-69.7,14.4h0c-42.3,8.7-70.6,47.7-65.8,90.6l3.5,31.8c4.7,42.1,40.2,73.9,82.6,73.9h71.7H891h28.9
			C919.5,549.7,917.3,554.7,913.7,558.8z"/>
		<path class="st3" d="M461.2,417.2c-15.5-17.1-34.9-27.5-56-29.9c0,0-0.1,0-0.1,0c-3.1-0.4-6.2-0.6-9.4-0.6
			c-32.3,0-62.1,18.8-79.8,50.3c-10.2,18.2-15.6,39.4-15.6,61.3c0,32.9,12.3,63.9,33.7,85.2c17.2,17.1,39.1,26.5,61.7,26.5
			c3.2,0,6.3-0.2,9.4-0.6c0,0,0,0,0.1,0c0,0,0.1,0,0.1,0c20.9-2.5,40.4-12.8,55.8-29.9c19.3-21.3,29.9-50.1,29.9-81.1
			C491.1,467.4,480.5,438.6,461.2,417.2z M438.2,558.7c-10.2,11.3-22.8,18.2-36.1,19.9c-0.1,0-0.3,0-0.4,0
			c-16.2,1.8-32.8-4.1-45.9-17.1c-15.6-15.5-24.5-38.5-24.5-63.2c0-16.6,4-32.6,11.7-46.2c12.1-21.6,31.8-34.5,52.8-34.5
			c2,0,4,0.1,5.9,0.4h0c0,0,0,0,0,0c13.5,1.6,26.2,8.4,36.5,19.9c13.9,15.4,21.9,37.4,21.9,60.3
			C460.1,521.3,452.1,543.3,438.2,558.7z"/>
	</g>
</g>
<rect x="47.6" y="47.6" class="st4" width="984.8" height="984.8"/>
</svg>
