<?xml version="1.0" encoding="utf-8"?>
<!-- Generator: Adobe Illustrator 23.1.1, SVG Export Plug-In . SVG Version: 6.00 Build 0)  -->
<svg version="1.1" id="Layer_1" xmlns="http://www.w3.org/2000/svg" xmlns:xlink="http://www.w3.org/1999/xlink" x="0px" y="0px"
	 viewBox="0 0 1080 1080" style="enable-background:new 0 0 1080 1080;" xml:space="preserve">
<style type="text/css">
	.st0{fill:none;stroke:#FFFFFF;stroke-width:30;stroke-miterlimit:10;}
	.st1{fill:#FFFFFF;}
</style>
<rect x="47.4" y="47.4" class="st0" width="984.8" height="984.8"/>
<g>
	<path class="st1" d="M281.5,591.3c4.6,0.9,9.3,1.4,14,1.5c15.9,0,31.3-5.8,43.3-16.2c14.4-12.5,22.7-30.7,22.7-49.8
		c0-4.7-0.5-9.4-1.6-14c-5-23.1-22-41.8-44.6-49c-6.4-2-13.1-3-19.8-3c-36.5-0.1-66.1,29.3-66.2,65.8
		C229.1,557.8,250.9,584.8,281.5,591.3z M295.5,487.2c4.1,0,8.1,0.6,12,1.8c13.4,4.4,23.5,15.6,26.4,29.4c0.7,2.7,1.1,5.5,1.2,8.3
		c0.1,11.4-4.7,22.2-13.2,29.8c-9.6,8.2-22.5,11.5-34.8,8.8c-21.4-4.7-34.9-25.8-30.2-47.2C260.8,500.2,276.9,487.2,295.5,487.2z"/>
	<path class="st1" d="M613.5,274.2L613.5,274.2c3.9,1.2,7.9,1.9,12,1.8c21.9,0,39.6-17.7,39.6-39.6s-17.7-39.6-39.6-39.6
		c-21.9,0-39.6,17.7-39.6,39.6c0,2.8,0.2,5.6,0.8,8.3C589.7,258.6,599.9,269.9,613.5,274.2z M625.5,223.2c7.3,0,13.2,5.9,13.2,13.2
		c0,7.3-5.9,13.2-13.2,13.2c-1.3,0.2-2.6,0.2-3.8,0c-0.9-0.3-1.7-0.7-2.5-1.2l0,0c-0.8-0.5-1.5-1.1-2.1-1.7l0,0
		c-0.5-0.6-0.9-1.2-1.3-1.8l-0.7-0.9c-1.3-1.3-2.2-2.9-2.8-4.6c-0.1-1-0.1-1.9,0-2.9C612.3,229.1,618.2,223.2,625.5,223.2z"/>
	<path class="st1" d="M209.5,744.5c-43.9,43.6-44.1,114.6-0.4,158.5c21.1,21.2,49.8,33.1,79.8,33h330c62,0,112.2-50.2,112.2-112.2
		s-50.2-112.2-112.2-112.2H445.6l-63.9-103.2c20.9-22,32.6-51.2,32.6-81.6c0-5.8-0.5-11.7-1.5-17.4l192.7-183.1
		c6.5,1.6,13.2,2.4,19.9,2.5c7.6-0.1,15.2-1.2,22.6-3.2l96.2,81.4c0,0,0,0,0,0.9c0,22.5,9.6,43.9,26.4,58.9v59.9
		c0,11.2,7.1,21.1,17.7,24.8c-0.2,3,0,6,0.8,8.8l8.8,31.2c4,14,18.5,22.2,32.6,18.2c8.8-2.5,15.8-9.4,18.2-18.2l8.8-31.2
		c0.8-2.9,1-5.9,0.8-8.8c10.6-3.6,17.8-13.6,17.8-24.8v-59.9c32.5-29.3,35.2-79.3,5.9-111.9c-15-16.6-36.3-26.2-58.7-26.2
		c-4.7,0-9.4,0.5-14,1.3l-93.1-79.2c0.9-4.8,1.4-9.6,1.5-14.5c0-51-41.4-92.4-92.4-92.4c-51,0-92.4,41.4-92.4,92.4
		c-0.2,3.6-0.2,7.3,0,11L323.7,411.7c-9.2-2.4-18.7-3.6-28.2-3.7c-65.6-0.1-118.8,53.1-118.9,118.7c0,53.7,36,100.8,87.9,114.8
		l31,70.1h-6.6C259.1,711.5,230.5,723.4,209.5,744.5z M704.7,823.8c-0.1,47.4-38.4,85.7-85.8,85.8h-330c-47.4,0-85.8-38.4-85.8-85.8
		c0-47.4,38.4-85.8,85.8-85.8h330C666.2,738.1,704.6,776.4,704.7,823.8z M838.7,485.6c3.6-0.7,7.2-1.6,10.7-2.8l0,0v44h-52.3v-44.1
		l0,0c3.5,1.1,7,2,10.6,2.6h1.8c8.7,1.5,17.7,1.5,26.4,0L838.7,485.6z M809.6,357h0.7V459l-3.4-0.8c-5.4-1.7-10.5-4.4-15-7.8
		c-13.3-10-21.2-25.7-21.1-42.4c-0.1-1.8-0.1-3.6,0-5.4c0.3-2.7,0.8-5.3,1.5-7.9C777,376.3,791.3,361.9,809.6,357z M832.3,553.2
		l-8.8,31.2l-8.8-31.2h17.8H832.3z M876.3,408c0,16.6-7.8,32.3-21.1,42.2c-5.5,4.1-11.8,7-18.5,8.6V357
		C859.9,363.1,876.2,384,876.3,408z M781.1,341.2c-2.5,1.7-4.9,3.5-7.3,5.4l-2.4,1.7c-6.1,5.3-11.3,11.5-15.6,18.3l0,0
		c-2,3.3-3.7,6.7-5.1,10.2l0,0l-75-63.5l0,0c3.2-2.1,6.2-4.3,9.1-6.7l0,0c3-2.5,5.8-5.3,8.4-8.2l1.8-2.2c2-2.2,3.8-4.5,5.5-6.9
		l2.1-3.3c1.5-2.2,2.8-4.5,4.1-6.9v-0.9l73.7,62.4L781.1,341.2z M625.5,170.4c36.5,0,66,29.5,66,66c0,5.7-0.8,11.3-2.2,16.8
		c-0.7,2.6-1.5,5.2-2.5,7.7c-12.8,32.1-48.2,48.8-81.2,38.4c-22.8-7.3-39.8-26.2-44.6-49.6c-1-4.3-1.4-8.8-1.5-13.2
		C559.5,199.9,589,170.4,625.5,170.4z M541.4,274.8l0.9,1.7c1.2,2.6,2.6,5,4.1,7.5c1.5,2.5,1.5,2.6,2.4,4c2.1,3,4.3,5.9,6.7,8.7
		l1.3,1.6c2.9,3.3,6.1,6.3,9.5,9.1l2.9,2.1c2.5,2,5.2,3.8,7.9,5.5l1.2,0.8L404.9,480.5c-1.1-2.5-2.2-5-3.6-7.4v-1.2
		c-2.1-4.1-4.5-8-7.1-11.7l-1.7-2.5c-2.6-3.8-5.5-7.4-8.6-10.8l0,0c-3-3.3-6.3-6.3-9.6-9.2l-2.1-1.8c-3.5-2.9-7.2-5.7-11.1-8.2
		l-1.7-1.1l-5.7-3.4L541.4,274.8z M203.1,526.8c0-51,41.4-92.4,92.4-92.4c9.3,0,18.6,1.4,27.5,4.1c31.8,9.9,55.9,36.3,62.8,68.9
		c1.4,6.4,2.1,12.9,2.1,19.4c0,26.7-11.5,52-31.5,69.6c-20,17.2-46.3,25.2-72.5,21.9l-7.3-0.9C233.7,608.4,203,570.6,203.1,526.8z
		 M295.5,645.6L295.5,645.6c5.4,0,10.9-0.4,16.2-1.2h2c5.2-0.8,10.3-2,15.3-3.4l2.4-0.8c4.5-1.5,8.9-3.3,13.2-5.3h1.3
		c4.6-2.2,9-4.7,13.2-7.5l1.6-0.9l53.6,85.1h-89.8L295.5,645.6z"/>
	<path class="st1" d="M271.6,767c-3.6,1.1-7.1,2.5-10.4,4.4c-28.9,15.4-39.9,51.4-24.4,80.4c10.3,19.3,30.3,31.3,52.2,31.4h330
		c5.9,0,11.8-0.9,17.4-2.6c3.6-1.1,7.1-2.5,10.4-4.4l0,0c28.9-15.4,39.9-51.4,24.4-80.4c-10.3-19.3-30.4-31.4-52.3-31.4h-330
		C283,764.4,277.2,765.3,271.6,767z M255.9,823.8c0-12.2,6.8-23.5,17.6-29.2c1.8-1,3.6-1.8,5.5-2.4c3.2-1,6.5-1.5,9.9-1.5
		c18.2,0,33,14.8,33,33c0,18.2-14.8,33-33,33C270.7,856.8,255.9,842,255.9,823.8z M651.9,823.8c0,12.2-6.8,23.5-17.6,29.2
		c-1.8,1-3.6,1.8-5.5,2.4c-2.5,0.7-5,1.2-7.5,1.3h-1.5c-1.5,0.1-3.1,0.1-4.6,0c-5-0.5-9.9-2.2-14.1-4.9h-0.8c-1.4-1-2.6-2-3.8-3.2
		l-1.3-1.3c-1-1.1-1.9-2.2-2.8-3.4l-1.6-2.4c-1.4-2.2-2.5-4.5-3.2-7c0-0.9,0-1.8-0.8-2.8c-0.6-2.6-0.9-5.3-0.9-7.9
		c0-18.2,14.8-33,33-33C637.1,790.8,651.9,805.6,651.9,823.8z M569.5,790.8c-1.9,2.8-3.5,5.8-4.9,9l-1.1,2.8c-1,2.5-1.8,5-2.4,7.5
		c0,1.1,0,2-0.7,3c-1.5,7.1-1.5,14.4,0,21.5c0,1.1,0,2,0.7,3c0.6,2.6,1.4,5.1,2.4,7.5l1.1,2.8c1.4,3.1,3,6.1,4.9,9H338.2
		c1.9-2.8,3.5-5.8,4.9-9l1.1-2.8c1-2.5,1.8-5,2.4-7.5c0-1.1,0-2,0.7-3c1.5-7.1,1.5-14.4,0-21.5c0-1.1,0-2-0.7-3
		c-0.6-2.6-1.4-5.1-2.4-7.5l-1.1-2.8c-1.4-3.1-3-6.1-4.9-9H569.5z"/>
</g>
</svg>
