<?xml version="1.0" encoding="utf-8"?>
<!-- Generator: Adobe Illustrator 23.1.1, SVG Export Plug-In . SVG Version: 6.00 Build 0)  -->
<svg version="1.1" id="Layer_1" xmlns="http://www.w3.org/2000/svg" xmlns:xlink="http://www.w3.org/1999/xlink" x="0px" y="0px"
	 viewBox="0 0 1080 1080" style="enable-background:new 0 0 1080 1080;" xml:space="preserve">
<style type="text/css">
	.st0{fill:#FFFFFF;}
	.st1{fill:none;stroke:#FFFFFF;stroke-width:30;stroke-miterlimit:10;}
</style>
<g>
	<path class="st0" d="M806.1,722.4c-26.3-48.6-10.6-78.4,31.6-134.9c64.8-86.9,84.8-182.8,56.1-270c-47.3-143.9-214.7-218-351.9-218
		c-139.2,0-213.8,80.4-245.9,128.3c-37.3,55.6-53.5,122.4-38.5,158.8c5.3,12.8,4.1,24-3.5,34.2c-8.6,9-68.3,72.2-77.4,102.9
		c-4.2,14.2-2.2,28,5.6,38.8c15.9,22,42.3,18,43.7,20.1c4.5,7.2-10.8,38.2-12.4,42.8c-1.7,5.2-1.3,10.5,1.2,15.3
		c1.7,3.3,4.4,6.2,7.8,8.8c-3.8,6.9-2.7,14.4,1.6,21.3l0.9,1.2c20.4,23.4,24,48.3,24.9,71.9c1.5,40.7,34.5,64.1,90.5,64.1
		c40.4,0,85.3-21,97.1,26.9l52.9,146.6h416.1l-4.2-12.2C899.8,961.6,837.5,780.3,806.1,722.4z M503.3,963.1L455.3,830
		c-16.3-64.5-80.5-40.4-114.8-40.4c-32.1,0-70.7-8.1-72.2-46.4c-2.9-77.7-40.7-80.1-25.5-87.9c5.1,0.7,32.6-14.3-1.6-17
		c-2.9-0.9-11.2-4.3-10.3-7.1c2.4-7.5,21.5-40.8,10.5-58.3c-10.3-16.4-31-2.5-44.3-21.1c-4.4-6.1-5.5-14.3-2.9-22.9
		c6.8-22.8,55.3-76.9,73.5-95.8l0.7-0.8c11.8-15.6,13.9-33.8,6.1-52.7c-10.7-26-1.4-84.5,36.8-141.6c30-44.9,100-120.1,230.6-120.1
		c129,0,289.7,69.3,334.4,205.4c26.8,81.3,7.8,171.3-53.4,253.2c-42.1,56.4-65.3,95-33,154.6c26.1,48.1,76,189.6,90.8,232
		L503.3,963.1L503.3,963.1z"/>
	<path class="st0" d="M490.2,491h140.5V350.5H490.2V491z M508.6,368.9h103.8v103.8H508.6V368.9z"/>
	<path class="st0" d="M812,532.3c0-17.7-14.4-32-32-32c-14.4,0-26.5,9.7-30.5,22.8h-19.9v-54.4h-43.9V433H736
		c4,13.2,16.1,22.8,30.5,22.8c17.7,0,32-14.4,32-32s-14.4-32-32-32c-14.5,0-26.6,9.7-30.6,22.9h-50.4v-41.7h43.9v-54.4h19.9
		c4,13.2,16.1,22.8,30.5,22.8c17.7,0,32-14.4,32-32s-14.4-32-32-32c-14.5,0-26.6,9.7-30.6,22.9h-38.3v54.4h-25.5v-28.1
		c0-17-13.8-30.8-30.8-30.8h-28.1v-25.5h54.4v-38.3c13.2-4,22.9-16.1,22.9-30.6c0-17.7-14.4-32-32-32c-17.7,0-32,14.4-32,32
		c0,14.4,9.7,26.5,22.8,30.5v19.9h-54.4v43.9h-35.7v-50.4c13.2-4,22.8-16.1,22.8-30.5c0-17.7-14.4-32-32-32c-17.7,0-32,14.4-32,32
		c0,14.5,9.7,26.6,22.9,30.6v50.4h-41.7v-43.9h-54.4v-19.9c13.2-4,22.8-16.1,22.8-30.5c0-17.7-14.4-32-32-32s-32,14.4-32,32
		c0,14.5,9.7,26.6,22.9,30.6v38.3h54.4v25.5h-28.1c-17,0-30.8,13.8-30.8,30.8v28.1h-25.5v-54.4h-38.3c-4-13.2-16.1-22.9-30.6-22.9
		c-17.7,0-32,14.4-32,32s14.4,32,32,32c14.4,0,26.5-9.7,30.5-22.8h19.9v54.4h43.9v41.7H385c-4-13.2-16.1-22.9-30.6-22.9
		c-17.7,0-32,14.4-32,32s14.4,32,32,32c14.4,0,26.5-9.7,30.5-22.8h50.4v35.7h-43.9v54.4h-19.9c-4-13.2-16.1-22.8-30.5-22.8
		c-17.7,0-32,14.4-32,32c0,17.7,14.4,32,32,32c14.5,0,26.6-9.7,30.6-22.9h38.3V487h25.5v28.1c0,17,13.8,30.8,30.8,30.8h28.1v25.5
		h-54.4v38.3c-13.2,4-22.9,16.1-22.9,30.6c0,17.7,14.4,32,32,32s32-14.4,32-32c0-14.4-9.7-26.5-22.8-30.5v-19.9h54.4v-43.9h41.7
		v50.4c-13.2,4-22.9,16.1-22.9,30.6c0,17.7,14.4,32,32,32c17.7,0,32-14.4,32-32c0-14.4-9.7-26.5-22.8-30.5v-50.4h35.7v43.9h54.4
		v19.9c-13.2,4-22.8,16.1-22.8,30.5c0,17.7,14.4,32,32,32c17.7,0,32-14.4,32-32c0-14.5-9.7-26.6-22.9-30.6v-38.3h-54.4v-25.5h28.1
		c17,0,30.8-13.8,30.8-30.8V487h25.5v54.4h38.3c4,13.2,16.1,22.9,30.6,22.9C797.6,564.4,812,550,812,532.3z M766.5,410.1
		c7.5,0,13.7,6.1,13.7,13.7c0,7.5-6.1,13.7-13.7,13.7s-13.7-6.1-13.7-13.7C752.8,416.2,759,410.1,766.5,410.1z M779.9,295.6
		c7.5,0,13.7,6.1,13.7,13.7c0,7.5-6.1,13.7-13.7,13.7s-13.7-6.1-13.7-13.7C766.3,301.7,772.4,295.6,779.9,295.6z M658.3,201.3
		c0-7.5,6.1-13.7,13.7-13.7c7.5,0,13.7,6.1,13.7,13.7c0,7.5-6.1,13.7-13.7,13.7C664.5,215,658.3,208.9,658.3,201.3z M435.3,201.3
		c0-7.5,6.1-13.7,13.7-13.7c7.5,0,13.7,6.1,13.7,13.7c0,7.5-6.1,13.7-13.7,13.7C441.4,215,435.3,208.9,435.3,201.3z M341,322.9
		c-7.5,0-13.7-6.1-13.7-13.7c0-7.5,6.1-13.7,13.7-13.7c7.5,0,13.7,6.1,13.7,13.7C354.7,316.8,348.6,322.9,341,322.9z M354.4,437.4
		c-7.5,0-13.7-6.1-13.7-13.7s6.1-13.7,13.7-13.7c7.5,0,13.7,6.1,13.7,13.7S362,437.4,354.4,437.4z M341,546
		c-7.5,0-13.7-6.1-13.7-13.7s6.1-13.7,13.7-13.7c7.5,0,13.7,6.1,13.7,13.7S348.6,546,341,546z M462.6,640.2
		c0,7.5-6.1,13.7-13.7,13.7c-7.5,0-13.7-6.1-13.7-13.7c0-7.5,6.1-13.7,13.7-13.7C456.5,626.6,462.6,632.7,462.6,640.2z M685.7,640.2
		c0,7.5-6.1,13.7-13.7,13.7c-7.5,0-13.7-6.1-13.7-13.7c0-7.5,6.1-13.7,13.7-13.7C679.5,626.6,685.7,632.7,685.7,640.2z M549.8,214.8
		c0-7.5,6.1-13.7,13.7-13.7s13.7,6.1,13.7,13.7c0,7.5-6.1,13.7-13.7,13.7S549.8,222.3,549.8,214.8z M577.1,626.8
		c0,7.5-6.1,13.7-13.7,13.7s-13.7-6.1-13.7-13.7c0-7.5,6.1-13.7,13.7-13.7S577.1,619.3,577.1,626.8z M667.2,515.1
		c0,6.9-5.6,12.4-12.4,12.4H466.2c-6.9,0-12.4-5.6-12.4-12.4V326.5c0-6.9,5.6-12.4,12.4-12.4h188.6c6.9,0,12.4,5.6,12.4,12.4V515.1z
		 M766.3,532.3c0-7.5,6.1-13.7,13.7-13.7s13.7,6.1,13.7,13.7s-6.1,13.7-13.7,13.7S766.3,539.9,766.3,532.3z"/>
</g>
<rect x="48.1" y="48.1" class="st1" width="984.8" height="984.8"/>
</svg>
