<?xml version="1.0" encoding="utf-8"?>
<!-- Generator: Adobe Illustrator 23.1.1, SVG Export Plug-In . SVG Version: 6.00 Build 0)  -->
<svg version="1.1" id="Layer_1" xmlns="http://www.w3.org/2000/svg" xmlns:xlink="http://www.w3.org/1999/xlink" x="0px" y="0px"
	 viewBox="0 0 1080 1080" style="enable-background:new 0 0 1080 1080;" xml:space="preserve">
<style type="text/css">
	.st0{fill:none;stroke:#FFFFFF;stroke-width:30;stroke-miterlimit:10;}
	.st1{fill:#FFFFFF;stroke:#FFFFFF;stroke-width:14;stroke-miterlimit:10;}
	.st2{fill:#FFFFFF;}
</style>
<rect x="47.4" y="47.4" class="st0" width="984.8" height="984.8"/>
<g>
	<path class="st1" d="M769,186.7H311.8c-92.1,0-167,74.9-167,167v19.9c0,4.4,3.6,8,8,8h162v502.9c0,4.4,3.6,8,8,8h435.3
		c4.4,0,8-3.6,8-8v-503h162c4.4,0,8-3.6,8-8v-19.9C936,261.6,861.1,186.7,769,186.7z M628.9,202.6c-8,42.4-44.3,73.5-88.5,73.5
		c-44.1,0-80.5-31.1-88.5-73.5H628.9z M758.1,321.8c-4.4,0-8,3.6-8,8v107.3h-41.5L676.8,392c7.8-5.5,13-14.6,13-24.9
		c0-16.8-13.7-30.5-30.5-30.5s-30.5,13.7-30.5,30.5s13.7,30.5,30.5,30.5c0.7,0,1.3-0.2,1.9-0.2l36.8,52.2c0.1,0.2,0.3,0.2,0.4,0.4
		c0.5,0.7,1.2,1.2,1.9,1.7c0.3,0.2,0.5,0.4,0.8,0.5c1,0.5,2.2,0.8,3.4,0.8h45.7v106.3H683l-50.6-71.7c12.4-7.1,20.9-20.4,20.9-35.7
		c0-22.8-18.5-41.3-41.3-41.3s-41.3,18.6-41.3,41.3c0,22.8,18.5,41.3,41.3,41.3c1.6,0,3.1-0.3,4.7-0.5l55.7,79.1
		c0.1,0.2,0.3,0.2,0.4,0.3c0.5,0.7,1.2,1.2,2,1.7c0.3,0.2,0.5,0.4,0.7,0.5c1,0.5,2.2,0.8,3.4,0.8h71.4v206.2h-94.8l-73-103.6
		c17.9-8.9,30.3-27.1,30.3-48.5c0-29.9-24.3-54.3-54.3-54.3c-29.9,0-54.3,24.3-54.3,54.3c0,29.9,24.3,54.3,54.3,54.3
		c2.7,0,5.4-0.4,8-0.8L644.7,794c0.1,0.2,0.3,0.2,0.4,0.3c0.5,0.7,1.2,1.2,2,1.7c0.3,0.2,0.5,0.4,0.7,0.5c1,0.5,2.2,0.8,3.4,0.8
		h98.9v79H330.7V654.1h102.4l37.3,96.1c-15,6.7-25.6,21.7-25.6,39.2c0,23.6,19.2,42.9,42.9,42.9c23.6,0,42.9-19.2,42.9-42.9
		s-19.2-42.9-42.9-42.9c-0.6,0-1.1,0.1-1.6,0.2L446,643.3c0,0,0-0.1-0.1-0.1c-0.3-0.7-0.7-1.2-1.1-1.8c-0.2-0.3-0.3-0.6-0.6-0.8
		c-0.3-0.3-0.7-0.5-1.1-0.8c-0.5-0.3-0.9-0.7-1.4-1c-0.2-0.1-0.4-0.1-0.6-0.1c-0.8-0.3-1.6-0.5-2.5-0.5c0,0,0,0-0.1,0H330.7v-39.4
		h79.8c1.5,0,2.8-0.5,4-1.2c0.3-0.2,0.5-0.3,0.8-0.5c1.1-0.9,2.1-1.9,2.6-3.3c0,0,0,0,0.1-0.1l29.9-77.1c19,0,34.4-15.5,34.4-34.5
		s-15.5-34.5-34.5-34.5s-34.5,15.5-34.5,34.5c0,13.4,7.7,24.9,18.9,30.6L405,582.8h-74.4V415.3h36c4.4,0,8-3.6,8-8V375H445
		c3.5,13,15.3,22.6,29.4,22.6c16.8,0,30.5-13.7,30.5-30.5s-13.7-30.5-30.5-30.5c-14.1,0-25.8,9.6-29.4,22.6h-78.3c-4.4,0-8,3.6-8,8
		v32.3h-28v-69.6c0-4.4-3.6-8-8-8s-8,3.6-8,8v35.8h-154v-11.9c0-83.3,67.8-151.1,151.1-151.1h123.7c8.1,51.5,52,89.4,104.9,89.4
		s96.8-38,104.9-89.4H769c83.3,0,151.1,67.8,151.1,151.1v11.9H766v-35.8C766,325.4,762.5,321.8,758.1,321.8z M659.2,381.7
		c-8.1,0-14.6-6.6-14.6-14.6c0-8.1,6.6-14.6,14.6-14.6c8.1,0,14.6,6.6,14.6,14.6C673.8,375.2,667.3,381.7,659.2,381.7z M611.9,477.4
		c-14,0-25.4-11.4-25.4-25.4s11.4-25.4,25.4-25.4s25.4,11.4,25.4,25.4C637.3,466,625.9,477.4,611.9,477.4z M558.4,667.8
		c-21.1,0-38.4-17.2-38.4-38.4s17.2-38.4,38.4-38.4c21.1,0,38.4,17.2,38.4,38.4C596.7,650.6,579.5,667.8,558.4,667.8z M487.7,762.4
		c14.9,0,27,12.1,27,27s-12.1,27-27,27s-27-12.1-27-27C460.7,774.6,472.8,762.4,487.7,762.4z M447.8,500.7
		c-10.2,0-18.6-8.3-18.6-18.6c0-10.2,8.3-18.6,18.6-18.6c10.2,0,18.6,8.3,18.6,18.6C466.4,492.4,458.1,500.7,447.8,500.7z
		 M459.7,367.1c0-8.1,6.6-14.6,14.6-14.6c8.1,0,14.6,6.6,14.6,14.6s-6.6,14.6-14.6,14.6C466.3,381.7,459.7,375.2,459.7,367.1z"/>
	<path class="st2" d="M540.4,276.1c-44.1,0-88.5-22.7-88.5-73.5h177C628.9,281.3,540.4,276.1,540.4,276.1z"/>
</g>
</svg>
