<?xml version="1.0" encoding="utf-8"?>
<!-- Generator: Adobe Illustrator 23.1.1, SVG Export Plug-In . SVG Version: 6.00 Build 0)  -->
<svg version="1.1" id="Layer_1" xmlns="http://www.w3.org/2000/svg" xmlns:xlink="http://www.w3.org/1999/xlink" x="0px" y="0px"
	 viewBox="0 0 1080 1080" style="enable-background:new 0 0 1080 1080;" xml:space="preserve">
<style type="text/css">
	.st0{fill:none;stroke:#FFFFFF;stroke-width:30;stroke-miterlimit:10;}
	.st1{fill:#FFFFFF;}
</style>
<rect x="47.4" y="47.4" class="st0" width="984.8" height="984.8"/>
<g>
	<path class="st1" d="M209.9,170.4H790c21.8,0,39.5,17.7,39.5,39.6v26.4h26.4v-26.4c0-36.4-29.5-65.9-65.9-65.9H209.9
		c-36.4,0-65.9,29.5-65.9,65.9v448.2c0,30.1,20.3,56.3,49.4,63.8l6.6-25.5c-17.5-4.5-29.7-20.3-29.7-38.3V209.9
		C170.4,188.1,188.1,170.4,209.9,170.4z"/>
	<path class="st1" d="M931.1,358.8L799.3,227c-2.5-2.5-5.8-3.9-9.3-3.9H289c-36.4,0-65.9,29.5-65.9,65.9v39.6h26.4V289
		c0-21.8,17.7-39.5,39.5-39.6h487.8v79.1c0,29.1,23.6,52.7,52.7,52.7h79.1v250.5H935V368.1C935,364.6,933.6,361.3,931.1,358.8z
		 M803.2,328.6v-60.5l86.8,86.8h-60.5C815,354.9,803.2,343.1,803.2,328.6z"/>
	<path class="st1" d="M249.5,737.2V368.1h-26.4v369.1c0,36.4,29.5,65.9,65.9,65.9h224.1v-26.4H289
		C267.2,776.8,249.5,759.1,249.5,737.2z"/>
	<rect x="434" y="579" class="st1" width="26.4" height="26.4"/>
	<rect x="486.8" y="631.8" class="st1" width="26.4" height="26.4"/>
	<rect x="486.8" y="526.3" class="st1" width="26.4" height="26.4"/>
	<rect x="434" y="526.3" class="st1" width="26.4" height="26.4"/>
	<rect x="486.8" y="684.5" class="st1" width="26.4" height="26.4"/>
	<rect x="434" y="684.5" class="st1" width="26.4" height="26.4"/>
	<rect x="486.8" y="473.6" class="st1" width="26.4" height="26.4"/>
	<rect x="434" y="420.9" class="st1" width="26.4" height="26.4"/>
	<rect x="486.8" y="420.9" class="st1" width="26.4" height="26.4"/>
	<rect x="486.8" y="368.1" class="st1" width="26.4" height="26.4"/>
	<rect x="539.5" y="631.8" class="st1" width="26.4" height="26.4"/>
	<rect x="539.5" y="579" class="st1" width="26.4" height="26.4"/>
	<rect x="592.2" y="526.3" class="st1" width="26.4" height="26.4"/>
	<rect x="539.5" y="473.6" class="st1" width="26.4" height="26.4"/>
	<rect x="592.2" y="420.9" class="st1" width="26.4" height="26.4"/>
	<rect x="539.5" y="368.1" class="st1" width="26.4" height="26.4"/>
	<rect x="592.2" y="631.8" class="st1" width="26.4" height="26.4"/>
	<rect x="592.2" y="579" class="st1" width="26.4" height="26.4"/>
	<rect x="328.6" y="579" class="st1" width="26.4" height="26.4"/>
	<rect x="328.6" y="526.3" class="st1" width="26.4" height="26.4"/>
	<rect x="381.3" y="526.3" class="st1" width="26.4" height="26.4"/>
	<rect x="381.3" y="473.6" class="st1" width="26.4" height="26.4"/>
	<rect x="328.6" y="420.9" class="st1" width="26.4" height="26.4"/>
	<rect x="328.6" y="368.1" class="st1" width="26.4" height="26.4"/>
	<rect x="381.3" y="368.1" class="st1" width="26.4" height="26.4"/>
	<rect x="750.4" y="420.9" class="st1" width="26.4" height="26.4"/>
	<rect x="697.7" y="420.9" class="st1" width="26.4" height="26.4"/>
	<rect x="750.4" y="473.6" class="st1" width="26.4" height="26.4"/>
	<rect x="645" y="473.6" class="st1" width="26.4" height="26.4"/>
	<rect x="645" y="368.1" class="st1" width="26.4" height="26.4"/>
	<rect x="697.7" y="368.1" class="st1" width="26.4" height="26.4"/>
	<rect x="434" y="315.4" class="st1" width="26.4" height="26.4"/>
	<rect x="539.5" y="315.4" class="st1" width="26.4" height="26.4"/>
	<rect x="328.6" y="315.4" class="st1" width="26.4" height="26.4"/>
	<rect x="381.3" y="315.4" class="st1" width="26.4" height="26.4"/>
	<rect x="592.2" y="315.4" class="st1" width="26.4" height="26.4"/>
	<rect x="697.7" y="315.4" class="st1" width="26.4" height="26.4"/>
	<rect x="381.3" y="631.8" class="st1" width="26.4" height="26.4"/>
	<rect x="328.6" y="684.5" class="st1" width="26.4" height="26.4"/>
	<rect x="803.2" y="473.6" class="st1" width="26.4" height="26.4"/>
	<rect x="803.2" y="526.3" class="st1" width="26.4" height="26.4"/>
	<path class="st1" d="M888.9,658.2c-12.4,0-24.3,5-33,13.9c-13.8-14.1-34.9-17.9-52.7-9.4v-77c0-25.5-20.6-46.1-46.1-46.1
		c-12.4,0-24.3,5-33,13.9c-17.8-18.2-47-18.5-65.2-0.7c-8.9,8.7-13.9,20.6-13.9,33v174l-14.3-21.5c-11.7-17.6-33.8-25.1-53.8-18.5
		c-29.4,9.8-42.4,49.1-24.6,74.4l95.2,135.3c2.5,3.5,6.5,5.6,10.8,5.6h263.7c7.3,0,13.2-5.9,13.2-13.2V704.3
		C935,678.8,914.3,658.2,888.9,658.2z M908.6,908.6H665l-91.2-129.7c-8.1-11.5-1.8-29.8,11.4-34.2c8.8-2.9,18.4,0.4,23.5,8.1
		l38.5,57.7c4,6.1,12.2,7.7,18.3,3.7c3.7-2.4,5.9-6.6,5.9-11V585.6c0-10.9,8.9-19.8,19.8-19.8s19.8,8.9,19.8,19.8v138.4
		c0,7.3,5.9,13.2,13.2,13.2s13.2-5.9,13.2-13.2V585.6c0-10.9,8.9-19.8,19.8-19.8c10.9,0,19.8,8.9,19.8,19.8v138.4
		c0,7.3,5.9,13.2,13.2,13.2s13.2-5.9,13.2-13.2v-19.8c0-10.9,8.9-19.8,19.8-19.8c10.9,0,19.8,8.9,19.8,19.8v19.8
		c0,7.3,5.9,13.2,13.2,13.2s13.2-5.9,13.2-13.2v-19.8c0-10.9,8.9-19.8,19.8-19.8s19.8,8.9,19.8,19.8V908.6z"/>
</g>
</svg>
