<?xml version="1.0" encoding="utf-8"?>
<!-- Generator: Adobe Illustrator 23.1.1, SVG Export Plug-In . SVG Version: 6.00 Build 0)  -->
<svg version="1.1" id="Layer_1" xmlns="http://www.w3.org/2000/svg" xmlns:xlink="http://www.w3.org/1999/xlink" x="0px" y="0px"
	 viewBox="0 0 1080 1080" style="enable-background:new 0 0 1080 1080;" xml:space="preserve">
<style type="text/css">
	.st0{fill:none;stroke:#FFFFFF;stroke-width:30;stroke-miterlimit:10;}
	.st1{fill:#FFFFFF;}
</style>
<rect x="47.4" y="47.4" class="st0" width="984.8" height="984.8"/>
<g>
	<g>
		<g>
			<path class="st1" d="M689.2,885.5c-6.8,0-12.4-5.5-12.4-12.4s5.5-12.4,12.3-12.4h0.1c6.8,0,12.4,5.5,12.4,12.4
				S696.1,885.5,689.2,885.5z"/>
		</g>
		<g>
			<path class="st1" d="M738.7,885.5c-6.8,0-12.4-5.5-12.4-12.4s5.5-12.4,12.3-12.4h0.1c6.8,0,12.4,5.5,12.4,12.4
				S745.6,885.5,738.7,885.5z"/>
		</g>
		<g>
			<path class="st1" d="M788.3,885.5c-6.8,0-12.4-5.5-12.4-12.4s5.5-12.4,12.3-12.4h0.1c6.8,0,12.4,5.5,12.4,12.4
				S795.1,885.5,788.3,885.5z"/>
		</g>
		<g>
			<path class="st1" d="M293,885.5c-6.8,0-12.4-5.5-12.4-12.4s5.5-12.4,12.3-12.4h0.1c6.8,0,12.4,5.5,12.4,12.4
				S299.8,885.5,293,885.5z"/>
		</g>
		<g>
			<path class="st1" d="M342.5,885.5c-6.8,0-12.4-5.5-12.4-12.4s5.5-12.4,12.3-12.4h0.1c6.8,0,12.4,5.5,12.4,12.4
				S349.3,885.5,342.5,885.5z"/>
		</g>
		<g>
			<path class="st1" d="M392,885.5c-6.8,0-12.4-5.5-12.4-12.4s5.5-12.4,12.3-12.4h0.1c6.8,0,12.4,5.5,12.4,12.4
				S398.9,885.5,392,885.5z"/>
		</g>
		<g>
			<path class="st1" d="M849.8,935H230.7c-47.8,0-86.7-38.9-86.7-86.7V229.2c0-47.8,38.9-86.7,86.7-86.7h619.1
				c47.8,0,86.7,38.9,86.7,86.7v619.1C936.5,896.1,897.6,935,849.8,935z M230.7,167.3c-34.1,0-61.9,27.8-61.9,61.9v619.1
				c0,34.1,27.8,61.9,61.9,61.9h619.1c34.1,0,61.9-27.8,61.9-61.9V229.2c0-34.1-27.8-61.9-61.9-61.9H230.7z"/>
		</g>
		<g>
			<path class="st1" d="M837.4,786.4H243.1c-6.8,0-12.4-5.5-12.4-12.4s5.5-12.4,12.4-12.4h594.4c6.8,0,12.4,5.5,12.4,12.4
				S844.3,786.4,837.4,786.4z"/>
		</g>
		<g>
			<g>
				<path class="st1" d="M614.5,786.4c-6.8,0-12.4-5.5-12.4-12.4V563.5H391.7V774c0,6.8-5.5,12.4-12.4,12.4s-12.4-5.5-12.4-12.4
					V551.1c0-6.8,5.5-12.4,12.4-12.4h235.3c6.8,0,12.4,5.5,12.4,12.4V774C626.9,780.9,621.4,786.4,614.5,786.4z"/>
			</g>
			<g>
				<path class="st1" d="M701.2,786.4c-6.8,0-12.4-5.5-12.4-12.4V563.5H453.6c-6.8,0-12.4-5.5-12.4-12.4s5.5-12.4,12.4-12.4h247.7
					c6.8,0,12.4,5.5,12.4,12.4V774C713.6,780.9,708.1,786.4,701.2,786.4z"/>
			</g>
		</g>
		<g>
			<path class="st1" d="M490.7,328.2H243.1c-6.8,0-12.4-5.5-12.4-12.4s5.5-12.4,12.4-12.4h247.7c6.8,0,12.4,5.5,12.4,12.4
				S497.6,328.2,490.7,328.2z"/>
		</g>
		<g>
			<path class="st1" d="M490.7,402.5H243.1c-6.8,0-12.4-5.5-12.4-12.4s5.5-12.4,12.4-12.4h247.7c6.8,0,12.4,5.5,12.4,12.4
				S497.6,402.5,490.7,402.5z"/>
		</g>
		<g>
			<path class="st1" d="M837.4,328.2H589.8c-6.8,0-12.4-5.5-12.4-12.4s5.5-12.4,12.4-12.4h247.7c6.8,0,12.4,5.5,12.4,12.4
				S844.3,328.2,837.4,328.2z"/>
		</g>
		<g>
			<path class="st1" d="M837.4,402.5H589.8c-6.8,0-12.4-5.5-12.4-12.4s5.5-12.4,12.4-12.4h247.7c6.8,0,12.4,5.5,12.4,12.4
				S844.3,402.5,837.4,402.5z"/>
		</g>
		<g>
			<path class="st1" d="M589.8,439.7h-99.1c-6.8,0-12.4-5.5-12.4-12.4V278.7c0-6.8,5.5-12.4,12.4-12.4h99.1
				c6.8,0,12.4,5.5,12.4,12.4v148.6C602.2,434.2,596.6,439.7,589.8,439.7z M503.1,414.9h74.3V291.1h-74.3V414.9z"/>
		</g>
		<g>
			<path class="st1" d="M515.5,489.2c-6.8,0-12.4-5.5-12.4-12.4v-49.5c0-6.8,5.5-12.4,12.4-12.4c6.8,0,12.4,5.5,12.4,12.4v49.5
				C527.9,483.7,522.3,489.2,515.5,489.2z"/>
		</g>
		<g>
			<path class="st1" d="M565,489.2h-49.5c-6.8,0-12.4-5.5-12.4-12.4s5.5-12.4,12.4-12.4H565c6.8,0,12.4,5.5,12.4,12.4
				S571.9,489.2,565,489.2z"/>
		</g>
		<g>
			<path class="st1" d="M565,489.2c-6.8,0-12.4-5.5-12.4-12.4v-49.5c0-6.8,5.5-12.4,12.4-12.4s12.4,5.5,12.4,12.4v49.5
				C577.4,483.7,571.9,489.2,565,489.2z"/>
		</g>
		<g>
			<path class="st1" d="M540.2,514c-6.8,0-12.4-5.5-12.4-12.4v-24.8c0-6.8,5.5-12.4,12.4-12.4s12.4,5.5,12.4,12.4v24.8
				C552.6,508.4,547.1,514,540.2,514z"/>
		</g>
		<g>
			<path class="st1" d="M837.4,835.9H243.1c-6.8,0-12.4-5.5-12.4-12.4v-582c0-6.8,5.5-12.4,12.4-12.4h594.4
				c6.8,0,12.4,5.5,12.4,12.4v582C849.8,830.4,844.3,835.9,837.4,835.9z M255.4,811.2h569.6V253.9H255.4V811.2z"/>
		</g>
		<g>
			<path class="st1" d="M626.9,885.5H453.6c-6.8,0-12.4-5.5-12.4-12.4s5.5-12.4,12.4-12.4h173.4c6.8,0,12.4,5.5,12.4,12.4
				S633.8,885.5,626.9,885.5z"/>
		</g>
	</g>
</g>
</svg>
