<?xml version="1.0" encoding="utf-8"?>
<!-- Generator: Adobe Illustrator 23.1.1, SVG Export Plug-In . SVG Version: 6.00 Build 0)  -->
<svg version="1.1" id="Layer_1" xmlns="http://www.w3.org/2000/svg" xmlns:xlink="http://www.w3.org/1999/xlink" x="0px" y="0px"
	 viewBox="0 0 1080 1080" style="enable-background:new 0 0 1080 1080;" xml:space="preserve">
<style type="text/css">
	.st0{fill:none;stroke:#FFFFFF;stroke-width:30;stroke-miterlimit:10;}
	.st1{fill:#FFFFFF;stroke:#FFFFFF;stroke-width:10;stroke-miterlimit:10;}
	.st2{stroke:#000000;stroke-width:5;stroke-miterlimit:10;}
</style>
<rect x="47.4" y="47.4" class="st0" width="984.8" height="984.8"/>
<g>
	<g>
		<path class="st1" d="M238.9,419.8h-28.7c-9.6,0-17.4-7.8-17.4-17.4v-28.7c0-9.6,7.8-17.4,17.4-17.4h28.7c9.6,0,17.4,7.8,17.4,17.4
			v28.7C256.2,411,248.4,419.8,238.9,419.8z M238.9,401.5v8.7V401.5L238.9,401.5L238.9,401.5z"/>
	</g>
	<g>
		<path class="st1" d="M318,419.8h-29.6c-9.6,0-17.4-7.8-17.4-17.4v-28.7c0-9.6,7.8-17.4,17.4-17.4h28.7c9.6,0,17.4,7.8,17.4,17.4
			v28.7C335.3,411,327.5,419.8,318,419.8z M318,401.5v8.7V401.5L318,401.5L318,401.5z"/>
	</g>
	<g>
		<path class="st1" d="M397.1,419.8h-28.7c-9.6,0-17.4-7.8-17.4-17.4v-28.7c0-9.6,7.8-17.4,17.4-17.4h28.7c9.6,0,17.4,7.8,17.4,17.4
			v28.7C414.5,411,406.7,419.8,397.1,419.8z M397.1,401.5v8.7V401.5L397.1,401.5L397.1,401.5z"/>
	</g>
	<g>
		<path class="st1" d="M476.1,419.8h-28.7c-9.6,0-17.4-7.8-17.4-17.4v-28.7c0-9.6,7.8-17.4,17.4-17.4h28.7c9.6,0,17.4,7.8,17.4,17.4
			v28.7C493.5,411,485.7,419.8,476.1,419.8z M476.1,401.5v8.7V401.5L476.1,401.5L476.1,401.5z"/>
	</g>
	<g>
		<path class="st1" d="M555.2,419.8h-28.7c-9.6,0-17.4-7.8-17.4-17.4v-28.7c0-9.6,7.8-17.4,17.4-17.4h28.7c9.6,0,17.4,7.8,17.4,17.4
			v28.7C572.6,411,564.8,419.8,555.2,419.8z M555.2,401.5v8.7V401.5L555.2,401.5L555.2,401.5z"/>
	</g>
	<g>
		<path class="st1" d="M634.3,419.8h-28.7c-9.6,0-17.4-7.8-17.4-17.4v-28.7c0-9.6,7.8-17.4,17.4-17.4h28.7c9.6,0,17.4,7.8,17.4,17.4
			v28.7C651.7,411,643.9,419.8,634.3,419.8z M634.3,401.5v8.7V401.5L634.3,401.5L634.3,401.5z"/>
	</g>
	<g>
		<path class="st1" d="M713.4,419.8h-28.7c-9.6,0-17.4-7.8-17.4-17.4v-28.7c0-9.6,7.8-17.4,17.4-17.4h28.7c9.6,0,17.4,7.8,17.4,17.4
			v28.7C730.8,411,722.9,419.8,713.4,419.8z M713.4,401.5v8.7V401.5L713.4,401.5L713.4,401.5z"/>
	</g>
	<g>
		<path class="st1" d="M397.1,499.7h-28.7c-9.6,0-17.4-7.8-17.4-17.4v-29.6c0-9.6,7.8-17.4,17.4-17.4h28.7c9.6,0,17.4,7.8,17.4,17.4
			v28.7C414.5,491.9,406.7,499.7,397.1,499.7z M397.1,481.5v8.7V481.5L397.1,481.5L397.1,481.5z"/>
	</g>
	<g>
		<path class="st1" d="M476.1,499.7h-28.7c-9.6,0-17.4-7.8-17.4-17.4v-29.6c0-9.6,7.8-17.4,17.4-17.4h28.7c9.6,0,17.4,7.8,17.4,17.4
			v28.7C493.5,491.9,485.7,499.7,476.1,499.7z M476.1,481.5v8.7V481.5L476.1,481.5L476.1,481.5z"/>
	</g>
	<g>
		<path class="st1" d="M555.2,499.7h-28.7c-9.6,0-17.4-7.8-17.4-17.4v-29.6c0-9.6,7.8-17.4,17.4-17.4h28.7c9.6,0,17.4,7.8,17.4,17.4
			v28.7C572.6,491.9,564.8,499.7,555.2,499.7z M555.2,481.5v8.7V481.5L555.2,481.5L555.2,481.5z"/>
	</g>
	<g>
		<path class="st1" d="M634.3,499.7h-28.7c-9.6,0-17.4-7.8-17.4-17.4v-29.6c0-9.6,7.8-17.4,17.4-17.4h28.7c9.6,0,17.4,7.8,17.4,17.4
			v28.7C651.7,491.9,643.9,499.7,634.3,499.7z M634.3,481.5v8.7V481.5L634.3,481.5L634.3,481.5z"/>
	</g>
	<g>
		<path class="st1" d="M476.1,579.7h-28.7c-9.6,0-17.4-7.8-17.4-17.4v-28.7c0-9.6,7.8-17.4,17.4-17.4h28.7c9.6,0,17.4,7.8,17.4,17.4
			v28.7C493.5,571.9,485.7,579.7,476.1,579.7z M476.1,562.3v8.7V562.3L476.1,562.3L476.1,562.3z"/>
	</g>
	<g>
		<path class="st1" d="M555.2,579.7h-28.7c-9.6,0-17.4-7.8-17.4-17.4v-28.7c0-9.6,7.8-17.4,17.4-17.4h28.7c9.6,0,17.4,7.8,17.4,17.4
			v28.7C572.6,571.9,564.8,579.7,555.2,579.7z M555.2,562.3v8.7V562.3L555.2,562.3L555.2,562.3z"/>
	</g>
	<g>
		<path class="st1" d="M634.3,579.7h-28.7c-9.6,0-17.4-7.8-17.4-17.4v-28.7c0-9.6,7.8-17.4,17.4-17.4h28.7c9.6,0,17.4,7.8,17.4,17.4
			v28.7C651.7,571.9,643.9,579.7,634.3,579.7z M634.3,562.3v8.7V562.3L634.3,562.3L634.3,562.3z"/>
	</g>
	<g>
		<path class="st1" d="M713.4,499.7h-28.7c-9.6,0-17.4-7.8-17.4-17.4v-29.6c0-9.6,7.8-17.4,17.4-17.4h28.7c9.6,0,17.4,7.8,17.4,17.4
			v28.7C730.8,491.9,722.9,499.7,713.4,499.7z M713.4,481.5v8.7V481.5L713.4,481.5L713.4,481.5z"/>
	</g>
	<g>
		<path class="st1" d="M792.5,419.8h-28.7c-9.6,0-17.4-7.8-17.4-17.4v-28.7c0-9.6,7.8-17.4,17.4-17.4h28.7c9.6,0,17.4,7.8,17.4,17.4
			v28.7C809.8,411,802,419.8,792.5,419.8z M792.5,401.5v8.7V401.5L792.5,401.5L792.5,401.5z"/>
	</g>
	<g>
		<path class="st1" d="M871.6,419.8h-28.7c-9.6,0-17.4-7.8-17.4-17.4v-28.7c0-9.6,7.8-17.4,17.4-17.4h28.7c9.6,0,17.4,7.8,17.4,17.4
			v28.7C889,411,881.2,419.8,871.6,419.8z M871.6,401.5v8.7V401.5L871.6,401.5L871.6,401.5z"/>
	</g>
	<g>
		<g>
			<g>
				<path class="st1" d="M829.8,598.8c-5.2,0-8.7-4.4-8.7-8.7v-58.2c0-5.2,4.4-8.7,8.7-8.7h22.6c17.4,0,31.3,14,31.3,31.3
					c0,5.2-4.4,8.7-8.7,8.7c-5.2,0-8.7-4.4-8.7-8.7c0-7.8-6-14-14-14h-14v49.6C838.5,594.4,834.2,598.8,829.8,598.8z"/>
			</g>
			<g>
				<path class="st1" d="M938.5,795.2h-98.2c-5.2,0-8.7-4.4-8.7-8.7c0-5.2,4.4-8.7,8.7-8.7h90.4c0.9-4.4,2.6-10.4,5.2-17.4
					c13.1-40,20-81.6,20.9-124.3c0-5.2,4.4-8.7,8.7-8.7c5.2,0,8.7,4.4,8.7,8.7c-0.9,44.3-8.7,87.8-21.8,129.4
					c-4.4,12.2-6,22.6-6,22.6C946.3,791.8,942.9,795.2,938.5,795.2z"/>
			</g>
			<g>
				<path class="st1" d="M792.5,795.2c-4.4,0-7.8-2.6-8.7-6.9c0,0-6.9-40-33.1-69.6c-6.9-7.8-14-17.4-20-27.8
					c-14.7-24.3-22.6-53-22.6-82.5c0-20,15.6-35.6,35.6-35.6c14,0,26,7.8,32.2,20V471c0-17.4,14-31.3,31.3-31.3
					c17.4,0,31.3,14,31.3,31.3v60.9c0,5.2-4.4,8.7-8.7,8.7c-5.2,0-8.7-4.4-8.7-8.7V471c0-7.8-6-14-14-14c-7.8,0-14,6-14,14v168.6
					c0,4.4-3.5,7.8-6.9,8.7c-4.4,0.9-8.7-1.8-9.6-5.2l-15.6-40.9c-2.6-6.9-9.6-11.3-16.5-11.3c-9.6,0-18.2,7.8-18.2,18.2
					c0,26,6.9,51.3,20,73c6,9.6,12.2,18.2,18.2,25.2c29.6,33.1,37.4,76.5,37.4,78.2c0.9,5.2-2.6,9.6-6.9,10.4
					C793.4,795.2,792.5,795.2,792.5,795.2z"/>
			</g>
			<g>
				<path class="st1" d="M920.3,635.3c-5.2,0-8.7-4.4-8.7-8.7v-54.7c0-7.8-6-14-14-14h-14v49.6c0,5.2-4.4,8.7-8.7,8.7
					c-5.2,0-8.7-4.4-8.7-8.7v-59.1c0-5.2,4.4-8.7,8.7-8.7h22.6c17.4,0,31.3,14,31.3,31.3v55.6C929.8,630.9,925.4,635.3,920.3,635.3z
					"/>
			</g>
			<g>
				<path class="st1" d="M966.3,644.9c-5.2,0-8.7-4.4-8.7-8.7v-35.6c0-7.8-6-14-14-14H921c-5.2,0-8.7-4.4-8.7-8.7
					c0-5.2,4.4-8.7,8.7-8.7h22.6c17.4,0,31.3,14,31.3,31.3v34.7C975,640.5,970.7,644.9,966.3,644.9z"/>
			</g>
		</g>
		<g>
			<path class="st1" d="M950.7,896.1H774.2c-5.2,0-8.7-4.4-8.7-8.7V817c0-5.2,4.4-8.7,8.7-8.7h176.5c5.2,0,8.7,4.4,8.7,8.7v70.4
				C959.4,891.7,955.9,896.1,950.7,896.1z M782.9,877.8h159v-52.2h-159V877.8z"/>
		</g>
		<circle class="st1" cx="911.6" cy="851.7" r="15.6"/>
	</g>
	<g>
		<path class="st1" d="M929.8,511.9h-17.4V334.5H169.3v177.2h-17.4V325.9c0-5.2,4.4-8.7,8.7-8.7h760.5c5.2,0,8.7,4.4,8.7,8.7V511.9z
			"/>
	</g>
	<g>
		<path class="st1" d="M725.6,761.4h-372c-5.2,0-8.7-4.4-8.7-8.7c0-5.2,4.4-8.7,8.7-8.7h372c5.2,0,8.7,4.4,8.7,8.7
			C734.2,757,730.8,761.4,725.6,761.4z"/>
	</g>
	<g>
		<g>
			<g>
				<path class="st1" d="M251.1,598.8c-5.2,0-8.7-4.4-8.7-8.7v-49.6h-14c-7.8,0-14,6-14,14c0,5.2-4.4,8.7-8.7,8.7
					c-5.2,0-8.7-4.4-8.7-8.7c0-17.4,14-31.3,31.3-31.3h22.6c5.2,0,8.7,4.4,8.7,8.7v58.2C259.7,594.4,256.2,598.8,251.1,598.8z"/>
			</g>
			<g>
				<path class="st1" d="M240.6,795.2h-98.2c-4.4,0-7.8-2.6-8.7-6.9c0,0-1.8-10.4-6-22.6c-13.1-41.8-20-85.2-21.8-129.4
					c0-5.2,3.5-8.7,8.7-8.7c4.4,0,8.7,3.5,8.7,8.7c0.9,42.6,7.8,84.3,20.9,124.3c2.6,6.9,3.5,13.1,5.2,17.4h90.4
					c5.2,0,8.7,4.4,8.7,8.7C249.3,790.9,244.9,795.2,240.6,795.2z"/>
			</g>
			<g>
				<path class="st1" d="M288.4,795.2c-0.9,0-0.9,0-1.8,0c-5.2-0.9-7.8-5.2-6.9-10.4c0-1.8,7.8-45.2,37.4-78.2
					c6-6.9,13.1-15.6,18.2-25.2c13.1-21.8,20-46.9,20-73c0-9.6-7.8-18.2-18.2-18.2c-7.8,0-14,4.4-16.5,11.3l-15.7,40.8
					c-1.8,4.4-6,6-9.6,5.2c-4.4-0.9-6.9-4.4-6.9-8.7V471c0-7.8-6-14-14-14c-7.9,0-14,6-14,14v60.9c0,5.2-4.4,8.7-8.7,8.7
					c-5.2,0-8.7-4.4-8.7-8.7V471c0-17.4,14-31.3,31.3-31.3s31.3,14,31.3,31.3v120.8c6-12.2,18.2-20,32.2-20
					c20,0,35.6,16.5,35.6,35.6c0,29.6-7.8,57.4-22.6,82.5c-6,10.4-13.1,20-20,27.8c-26,28.7-33.1,68.7-33.1,69.6
					C296.2,791.8,292.7,795.2,288.4,795.2z"/>
			</g>
			<g>
				<path class="st1" d="M160.6,635.3c-5.2,0-8.7-4.4-8.7-8.7v-54.7c0-17.4,14-31.3,31.3-31.3h22.6c5.2,0,8.7,4.4,8.7,8.7v58.2
					c0,5.2-4.4,8.7-8.7,8.7c-5.2,0-8.7-4.4-8.7-8.7v-50.4h-14c-7.8,0-14,6-14,14v55.6C169.3,630.9,165,635.3,160.6,635.3z"/>
			</g>
			<g>
				<path class="st1" d="M114.6,644.9c-5.2,0-8.7-4.4-8.7-8.7v-35.6c0-17.4,14-31.3,31.3-31.3h22.5c5.2,0,8.7,4.4,8.7,8.7
					c0,5.2-4.4,8.7-8.7,8.7h-22.6c-6.9,0-14,6-14,14v34.7C123.3,640.5,119.9,644.9,114.6,644.9z"/>
			</g>
		</g>
		<g>
			<path class="st1" d="M306.7,896.1H130.2c-5.2,0-8.7-4.4-8.7-8.7V817c0-5.2,4.4-8.7,8.7-8.7h176.5c5.2,0,8.7,4.4,8.7,8.7v70.4
				C315.3,891.7,311.1,896.1,306.7,896.1z M139,877.8h159v-52.2H139V877.8z"/>
		</g>
		<circle class="st1" cx="169.3" cy="851.7" r="15.6"/>
	</g>
	<g>
		<path class="st1" d="M549.2,325.9h-17.4v-22.6c0-6.9-6-13.1-13.1-13.1H397.1c-17.4,0-31.3-14-31.3-31.3s14-31.3,31.3-31.3h287.7
			c6.9,0,13.1-6,13.1-13.1s-6-13.1-13.1-13.1H540.5v-18.2h144.3c17.4,0,31.3,14,31.3,31.3s-14,31.3-31.3,31.3H396.2
			c-6.9,0-13.1,6-13.1,13.1c0,6.9,6,13.1,13.1,13.1h121.6c17.4,0,31.3,14,31.3,31.3V325.9z"/>
	</g>
</g>
</svg>
