<?xml version="1.0" encoding="utf-8"?>
<!-- Generator: Adobe Illustrator 23.1.1, SVG Export Plug-In . SVG Version: 6.00 Build 0)  -->
<svg version="1.1" id="Layer_1" xmlns="http://www.w3.org/2000/svg" xmlns:xlink="http://www.w3.org/1999/xlink" x="0px" y="0px"
	 viewBox="0 0 1080 1080" style="enable-background:new 0 0 1080 1080;" xml:space="preserve">
<style type="text/css">
	.st0{fill:none;stroke:#FFFFFF;stroke-width:30;stroke-miterlimit:10;}
	.st1{fill:#FFFFFF;}
</style>
<rect x="47.4" y="47.4" class="st0" width="984.8" height="984.8"/>
<g>
	<path class="st1" d="M763.9,196.8c0-6.4-4.5-11.8-10.8-12.9l-211.2-39.7c-1.6-0.3-3.3-0.3-4.9,0l-211.2,39.7
		c-6.3,1.1-10.8,6.5-10.8,12.9v39.6H143.5v554.4h237.6v28.8l-187,37.4c-21.7,3.6-50.6,13-50.6,52.6v13.2c0,7.3,5.9,13.2,13.2,13.2
		c0.7,0,1.5-0.1,2.2-0.2l236.5-39.4h288.2l236.5,39.4c0.7,0.1,1.4,0.2,2.2,0.2c7.3,0,13.2-5.9,13.2-13.2v-13.2
		c0-39.5-28.7-48.9-50.4-52.6l-187.2-37.4v-28.8h237.6V236.4H763.9V196.8z M539.5,170.6l149.4,28L539.5,236l-149.4-37.3L539.5,170.6
		z M737.5,213.7v211.5l-184.8,69.3V259.9L737.5,213.7z M341.5,213.7l184.8,46.2v234.6l-184.8-69.3V213.7z M323.7,446.8L534.9,526
		c1.5,0.4,3.1,0.7,4.6,0.8c1.6-0.1,3.1-0.4,4.6-0.8l211.2-79.2c5.2-1.9,8.6-6.9,8.6-12.4V315.6h92.4v396H222.7v-396h92.4v118.8
		C315.1,439.9,318.5,444.8,323.7,446.8z M880.1,882.9l0.4,0.1c23,3.8,28,11,28.5,24.2l-222.2-37c-0.7-0.1-1.4-0.2-2.1-0.3H394.3
		c-0.7,0-1.5,0.1-2.2,0.2l-222.2,37c0.5-13.2,5.6-20.4,28.9-24.3l196.8-39.3h287.8L880.1,882.9z M407.5,817.2v-26.4h264v26.4H407.5z
		 M909.1,262.8v501.6H169.9V262.8h145.2v26.4H196.3V738h686.4V289.2H763.9v-26.4H909.1z"/>
	<path class="st1" d="M334.1,555.5c-3.6,2.5-5.8,6.6-5.8,10.9v79.2c0,5.4,3.3,10.3,8.3,12.3l66,26.4c1.6,0.5,3.2,0.8,4.9,0.9
		c1.7-0.2,3.3-0.5,4.9-0.9l66-26.4c5-2,8.3-6.9,8.3-12.3v-79.2c0-4.4-2.2-8.5-5.8-10.9c-0.8-0.5-1.6-0.9-2.5-1.3l-66-26.4
		c-3.2-1.2-6.7-1.2-9.8,0l-66,26.4C335.7,554.5,334.9,555,334.1,555.5z M460.3,636.7l-39.6,15.8v-50.8l39.6-15.8V636.7z
		 M407.5,554.2l30.5,12.2l-30.5,12.2L377,566.4L407.5,554.2z M354.7,585.9l39.6,15.8v50.8l-39.6-15.8V585.9z"/>
	<path class="st1" d="M639.2,604.7l52.8,26.4c3.7,1.9,8.1,1.9,11.8,0l52.8-26.4c4.5-2.2,7.3-6.9,7.3-11.9V540
		c0-4.6-2.4-8.8-6.3-11.2c-0.3-0.2-1-0.6-1-0.6l-52.8-26.4c-3.7-1.9-8.1-1.9-11.8,0l-52.8,26.4c0,0-0.7,0.4-1,0.6
		c-3.9,2.4-6.3,6.7-6.3,11.2v52.8C631.9,597.8,634.7,602.4,639.2,604.7z M737.5,584.6l-26.4,13.2v-23.3l26.4-13.2V584.6z
		 M697.9,528.4l23.3,11.6l-23.3,11.6L674.6,540L697.9,528.4z M658.3,561.4l26.4,13.2v23.3l-26.4-13.2V561.4z"/>
	<polygon class="st1" points="803.5,658.8 750.7,658.8 750.7,685.2 829.9,685.2 829.9,579.6 803.5,579.6 	"/>
	<polygon class="st1" points="816.7,469.7 816.7,394.8 790.3,394.8 790.3,451.9 732.6,474.9 742.4,499.5 	"/>
	<polygon class="st1" points="288.7,342 262.3,342 262.3,469.5 362.7,512.5 373.1,488.3 288.7,452.1 	"/>
	<rect x="526.3" y="566.4" class="st1" width="26.4" height="26.4"/>
	<rect x="275.5" y="645.6" class="st1" width="26.4" height="26.4"/>
	<rect x="565.9" y="619.2" class="st1" width="26.4" height="26.4"/>
</g>
</svg>
