<?xml version="1.0" encoding="utf-8"?>
<!-- Generator: Adobe Illustrator 23.1.1, SVG Export Plug-In . SVG Version: 6.00 Build 0)  -->
<svg version="1.1" id="Layer_1" xmlns="http://www.w3.org/2000/svg" xmlns:xlink="http://www.w3.org/1999/xlink" x="0px" y="0px"
	 viewBox="0 0 1080 1080" style="enable-background:new 0 0 1080 1080;" xml:space="preserve">
<style type="text/css">
	.st0{fill:#FFFFFF;}
	.st1{fill:none;stroke:#FFFFFF;stroke-width:30;stroke-miterlimit:10;}
</style>
<g>
	<path class="st0" d="M477.1,202.8c-38.7,0-70,31.3-70,70l0,0c-30.9-23.2-74.8-16.9-98,14c-9.1,12.1-14,26.8-14,42v228.9
		c-14.8-18.3-34.4-32.2-56.7-39.9c-12.6-4.4-26.7-2.4-37.5,5.5c-11.1,7.9-17.8,20.7-17.8,34.3v247.2
		c-0.2,63.6,20.4,125.6,58.7,176.4c4.6,6.2,13.4,7.4,19.6,2.8c6.2-4.6,7.4-13.4,2.8-19.6c-34.7-46-53.4-102-53.2-159.6V557.5
		c-0.1-4.7,2.2-9.1,6-11.8c3.5-2.6,8-3.2,12.1-1.8c39.5,13.7,66,51,65.9,92.8v112c0,7.7,6.3,14,14,14c7.7,0,14-6.3,14-14V328.8
		c0-23.2,18.8-42,42-42s42,18.8,42,42v321.9c0,7.7,6.3,14,14,14c7.7,0,14-6.3,14-14V272.8c0-23.2,18.8-42,42-42s42,18.8,42,42v377.9
		c0,7.7,6.3,14,14,14c7.7,0,14-6.3,14-14v-126c0-23.2,18.8-42,42-42s42,18.8,42,42v153.9c0,7.7,6.3,14,14,14s14-6.3,14-14v-97.9
		c0-23.2,18.8-42,42-42c23.2,0,42,18.8,42,42v224c0,57.8-1.8,117.7-14.8,164.2c-2.3,7.4,1.9,15.2,9.2,17.5
		c7.4,2.3,15.2-1.9,17.5-9.2l0,0c0.1-0.2,0.1-0.5,0.2-0.7c14-49.8,15.9-112,15.9-171.7v-224c0-38.7-31.3-70-70-70
		c-15.1,0-29.9,4.9-42,14l0,0c0-38.7-31.3-70-70-70c-15.1,0-29.9,4.9-42,14v-196C547,234.1,515.7,202.8,477.1,202.8z"/>
	<path class="st0" d="M647.9,199.9c-5.5-5.5-14.3-5.5-19.8,0l0,0l-51.9,51.9l51.9,51.9c5.4,5.5,14.3,5.6,19.8,0.2
		c5.5-5.4,5.6-14.3,0.2-19.8c-0.1-0.1-0.2-0.2-0.2-0.2l-18.1-18.1h92.2v92.2l-18.1-18.1c-5.5-5.4-14.4-5.3-19.8,0.2
		c-5.3,5.4-5.3,14.1,0,19.6l51.9,51.9l51.9-51.9c5.5-5.4,5.6-14.3,0.2-19.8c-5.4-5.5-14.3-5.6-19.8-0.2c-0.1,0.1-0.2,0.2-0.2,0.2
		l0,0l-18.1,18.1v-92.2h92.2l-18.1,18.1c-5.4,5.5-5.3,14.4,0.2,19.8c5.4,5.3,14.1,5.3,19.6,0l51.9-51.9L844,199.9
		c-5.5-5.4-14.4-5.3-19.8,0.2c-5.3,5.4-5.3,14.1,0,19.6l0,0l18.1,18H750v-92.2l18.1,18.1c5.4,5.5,14.3,5.6,19.8,0.2
		c5.5-5.4,5.6-14.3,0.2-19.8c-0.1-0.1-0.2-0.2-0.2-0.2L736,92l-51.9,51.9c-5.4,5.5-5.3,14.4,0.2,19.8c5.4,5.3,14.1,5.3,19.6,0
		l18-18.1v92.2h-92.2l18.1-18.1C653.4,214.2,653.4,205.4,647.9,199.9z"/>
</g>
<rect x="47.6" y="47.1" class="st1" width="984.8" height="984.8"/>
</svg>
