<?xml version="1.0" encoding="utf-8"?>
<!-- Generator: Adobe Illustrator 23.1.1, SVG Export Plug-In . SVG Version: 6.00 Build 0)  -->
<svg version="1.1" id="Layer_1" xmlns="http://www.w3.org/2000/svg" xmlns:xlink="http://www.w3.org/1999/xlink" x="0px" y="0px"
	 viewBox="0 0 1080 1080" style="enable-background:new 0 0 1080 1080;" xml:space="preserve">
<style type="text/css">
	.st0{fill:none;stroke:#FFFFFF;stroke-width:30;stroke-miterlimit:10;}
	.st1{fill:#FFFFFF;}
</style>
<rect x="47.4" y="47.4" class="st0" width="984.8" height="984.8"/>
<g>
	<path class="st1" d="M614.2,486.6v127.7c0,6.8,5.5,12.4,12.4,12.4c6.8,0,12.4-5.5,12.4-12.4V465.8c0-0.7-0.1-1.3-0.3-2
		c-0.6-3.8-2.9-7-6.2-8.9l-136.1-74.3c-3.7-2-8.2-2-11.9,0l-136.1,74.3c-3.3,1.8-5.6,5.1-6.2,8.9c-0.2,0.6-0.3,1.3-0.3,2V639
		c0,4.5,2.5,8.7,6.4,10.9l136.1,74.3c6,3.3,13.5,1.1,16.8-4.9c0.8-1.9,1.3-3.9,1.5-5.9V547.4L614.2,486.6z M490.5,405.6l110.3,60.2
		l-110.3,60.2l-110.3-60.2L490.5,405.6z M366.7,486.6l111.4,60.8v145.1l-111.4-60.8V486.6z"/>
	<path class="st1" d="M900.2,777.1l-8.1-56.5c-0.4-2.6-1.6-5.1-3.5-7l-87.5-87.5c-14.7-14-37.8-14-52.5,0
		c-4.5,4.6-7.7,10.4-9.2,16.7c-12.4-2.9-25.4,0.7-34.6,9.5c-4.5,4.6-7.7,10.4-9.2,16.8c-2.9-0.7-5.9-1-8.9-1
		c-9.6,0.1-18.8,3.9-25.7,10.5c-4,4.2-7,9.3-8.6,14.9l-61.4-61.4c-14.5-14.5-38-14.6-52.5-0.1c-14.5,14.5-14.6,38-0.1,52.5
		c0,0,0.1,0.1,0.1,0.1l127.6,127.6h-40.2c-35.8,0.1-64.8,29.1-64.8,64.9c0,6.4,4.9,11.8,11.3,12.3L778,906.6l25.4,25.7
		c4.8,4.9,12.6,4.9,17.5,0.1c4.8-4.8,4.9-12.6,0.1-17.5l-28.6-29c-2.1-2.1-4.8-3.4-7.8-3.6l-197.1-16.4c5-17.1,20.7-28.9,38.5-28.9
		h70c6.8,0,12.4-5.5,12.4-12.4c0-3.3-1.3-6.4-3.6-8.8L556.1,667.1c-4.8-4.8-4.8-12.7,0-17.5c4.8-4.8,12.7-4.8,17.5,0l105,105
		c4.8,4.8,12.7,4.8,17.5,0c0,0,0,0,0,0c6.5-5.1,7.7-14.4,2.6-20.9c-0.8-1-1.6-1.8-2.6-2.6l-17.5-17.5c-2.2-2.4-3.4-5.6-3.3-8.9
		c-0.4-6.2,4.4-11.6,10.6-11.9c0.4,0,0.9,0,1.3,0c3.3-0.2,6.5,1,8.9,3.3l17.5,17.5l0,0l8.7,8.7c4.8,4.8,12.7,4.8,17.5,0
		c4.8-4.8,4.8-12.7,0-17.5l-17.5-17.5c-4.8-4.8-4.8-12.7,0-17.5c4.8-4.8,12.7-4.8,17.5,0l8.7,8.7l0,0l17.5,17.5
		c4.9,4.8,12.7,4.8,17.5-0.1c4.8-4.8,4.8-12.6,0-17.4l-8.7-8.7l-8.8-8.8c-4.8-4.9-4.8-12.7,0.1-17.5c4.8-4.8,12.6-4.8,17.4,0
		l84.6,84.6l8.2,57.2c0.4,3.1,2,5.9,4.4,7.8l35,28.6c5.3,4.3,13.1,3.5,17.4-1.7c4.3-5.3,3.5-13.1-1.7-17.4L900.2,777.1z"/>
	<path class="st1" d="M342,255.4v-99c0-6.8-5.5-12.4-12.4-12.4H156.4c-6.8,0-12.4,5.5-12.4,12.4v99c0,6.8,5.5,12.4,12.4,12.4h173.3
		C336.4,267.8,342,262.2,342,255.4z M317.2,243H168.7v-74.3h148.5V243z"/>
	<path class="st1" d="M193.5,218.3H243c6.8,0,12.4-5.5,12.4-12.4s-5.5-12.4-12.4-12.4h-49.5c-6.8,0-12.4,5.5-12.4,12.4
		S186.6,218.3,193.5,218.3z"/>
	<path class="st1" d="M280.1,218.3h12.4c6.8,0,12.4-5.5,12.4-12.4s-5.5-12.4-12.4-12.4h-12.4c-6.8,0-12.4,5.5-12.4,12.4
		S273.3,218.3,280.1,218.3z"/>
	<path class="st1" d="M923.6,280.1H750.4c-6.8,0-12.4,5.5-12.4,12.4v99c0,6.8,5.5,12.4,12.4,12.4h173.3c6.8,0,12.4-5.5,12.4-12.4
		v-99C936,285.7,930.5,280.1,923.6,280.1z M911.2,379.1H762.7v-74.3h148.5V379.1z"/>
	<path class="st1" d="M837,354.4h49.5c6.8,0,12.4-5.5,12.4-12.4s-5.5-12.4-12.4-12.4H837c-6.8,0-12.4,5.5-12.4,12.4
		S830.2,354.4,837,354.4z"/>
	<path class="st1" d="M787.5,354.4h12.4c6.8,0,12.4-5.5,12.4-12.4s-5.5-12.4-12.4-12.4h-12.4c-6.8,0-12.4,5.5-12.4,12.4
		S780.7,354.4,787.5,354.4z"/>
	<path class="st1" d="M379.1,750.4H205.9c-6.8,0-12.4,5.5-12.4,12.4v99c0,6.8,5.5,12.4,12.4,12.4h173.3c6.8,0,12.4-5.5,12.4-12.4
		v-99C391.5,755.9,385.9,750.4,379.1,750.4z M366.7,849.4H218.2v-74.3h148.5V849.4z"/>
	<path class="st1" d="M292.5,824.6H342c6.8,0,12.4-5.5,12.4-12.4c0-6.8-5.5-12.4-12.4-12.4h-49.5c-6.8,0-12.4,5.5-12.4,12.4
		C280.1,819.1,285.6,824.6,292.5,824.6z"/>
	<path class="st1" d="M243,824.6h12.4c6.8,0,12.4-5.5,12.4-12.4c0-6.8-5.5-12.4-12.4-12.4H243c-6.8,0-12.4,5.5-12.4,12.4
		C230.6,819.1,236.1,824.6,243,824.6z"/>
	<path class="st1" d="M490.5,738c-6.8,0-12.4,5.5-12.4,12.4v49.5h-61.9c-6.8,0-12.4,5.5-12.4,12.4c0,6.8,5.5,12.4,12.4,12.4h74.3
		c6.8,0,12.4-5.5,12.4-12.4v-61.9C502.9,743.6,497.3,738,490.5,738z"/>
	<path class="st1" d="M366.7,218.3h111.4v136.1c0,6.8,5.5,12.4,12.4,12.4s12.4-5.5,12.4-12.4V205.9c0-6.8-5.5-12.4-12.4-12.4H366.7
		c-6.8,0-12.4,5.5-12.4,12.4S359.9,218.3,366.7,218.3z"/>
	<path class="st1" d="M626.6,441c6.8,0,12.4-5.5,12.4-12.4v-74.3h74.3c6.8,0,12.4-5.5,12.4-12.4s-5.5-12.4-12.4-12.4h-86.6
		c-6.8,0-12.4,5.5-12.4,12.4v86.6C614.2,435.5,619.8,441,626.6,441z"/>
	<path class="st1" d="M317.2,317.3c0-6.8-5.5-12.4-12.4-12.4h-99c-6.8,0-12.4,5.5-12.4,12.4c0,6.8,5.5,12.4,12.4,12.4h99
		C311.7,329.6,317.2,324.1,317.2,317.3z"/>
	<path class="st1" d="M366.7,329.6c6.8,0,12.4-5.5,12.4-12.4c0-6.8-5.5-12.4-12.4-12.4H342c-6.8,0-12.4,5.5-12.4,12.4
		c0,6.8,5.5,12.4,12.4,12.4H366.7z"/>
	<path class="st1" d="M428.6,304.9h-24.8c-6.8,0-12.4,5.5-12.4,12.4c0,6.8,5.5,12.4,12.4,12.4h24.8c6.8,0,12.4-5.5,12.4-12.4
		C441,310.4,435.4,304.9,428.6,304.9z"/>
	<path class="st1" d="M329.6,379.1h99c6.8,0,12.4-5.5,12.4-12.4c0-6.8-5.5-12.4-12.4-12.4h-99c-6.8,0-12.4,5.5-12.4,12.4
		C317.2,373.6,322.8,379.1,329.6,379.1z"/>
	<path class="st1" d="M267.7,354.4c-6.8,0-12.4,5.5-12.4,12.4c0,6.8,5.5,12.4,12.4,12.4h24.8c6.8,0,12.4-5.5,12.4-12.4
		c0-6.8-5.5-12.4-12.4-12.4H267.7z"/>
	<path class="st1" d="M205.9,354.4c-6.8,0-12.4,5.5-12.4,12.4c0,6.8,5.5,12.4,12.4,12.4h24.8c6.8,0,12.4-5.5,12.4-12.4
		c0-6.8-5.5-12.4-12.4-12.4H205.9z"/>
	<path class="st1" d="M812.2,453.4c0-6.8-5.5-12.4-12.4-12.4h-99c-6.8,0-12.4,5.5-12.4,12.4s5.5,12.4,12.4,12.4h99
		C806.7,465.8,812.2,460.2,812.2,453.4z"/>
	<path class="st1" d="M861.7,465.8c6.8,0,12.4-5.5,12.4-12.4s-5.5-12.4-12.4-12.4H837c-6.8,0-12.4,5.5-12.4,12.4s5.5,12.4,12.4,12.4
		H861.7z"/>
	<path class="st1" d="M923.6,441h-24.8c-6.8,0-12.4,5.5-12.4,12.4s5.5,12.4,12.4,12.4h24.8c6.8,0,12.4-5.5,12.4-12.4
		S930.5,441,923.6,441z"/>
	<path class="st1" d="M923.6,490.5h-99c-6.8,0-12.4,5.5-12.4,12.4c0,6.8,5.5,12.4,12.4,12.4h99c6.8,0,12.4-5.5,12.4-12.4
		C936,496,930.5,490.5,923.6,490.5z"/>
	<path class="st1" d="M762.7,490.5c-6.8,0-12.4,5.5-12.4,12.4c0,6.8,5.5,12.4,12.4,12.4h24.8c6.8,0,12.4-5.5,12.4-12.4
		c0-6.8-5.5-12.4-12.4-12.4H762.7z"/>
	<path class="st1" d="M700.9,490.5c-6.8,0-12.4,5.5-12.4,12.4c0,6.8,5.5,12.4,12.4,12.4h24.8c6.8,0,12.4-5.5,12.4-12.4
		c0-6.8-5.5-12.4-12.4-12.4H700.9z"/>
</g>
</svg>
