<?xml version="1.0" encoding="utf-8"?>
<!-- Generator: Adobe Illustrator 23.1.1, SVG Export Plug-In . SVG Version: 6.00 Build 0)  -->
<svg version="1.1" id="Layer_1" xmlns="http://www.w3.org/2000/svg" xmlns:xlink="http://www.w3.org/1999/xlink" x="0px" y="0px"
	 viewBox="0 0 1080 1080" style="enable-background:new 0 0 1080 1080;" xml:space="preserve">
<style type="text/css">
	.st0{fill:none;stroke:#FFFFFF;stroke-width:30;stroke-miterlimit:10;}
	.st1{fill:#FFFFFF;}
</style>
<rect x="47.4" y="47.4" class="st0" width="984.8" height="984.8"/>
<g>
	<path class="st1" d="M539.5,143.9c-218.4,0-396.1,177.7-396.1,396.1s177.7,396.1,396.1,396.1S935.6,758.4,935.6,540
		S757.9,143.9,539.5,143.9z M539.5,910.5C335.2,910.5,169,744.3,169,540s166.2-370.5,370.5-370.5S910,335.7,910,540
		S743.8,910.5,539.5,910.5z"/>
	<path class="st1" d="M539.5,195c-190.2,0-345,154.8-345,345s154.8,345,345,345s345-154.8,345-345S729.7,195,539.5,195z M858.9,540
		c0,43.7-8.8,85.3-24.8,123.3L416.2,245.3c38-15.9,79.6-24.8,123.3-24.8C715.6,220.6,858.9,363.9,858.9,540z M562,427.3
		c-7.3-1.5-14.8-2.2-22.5-2.2c-63.4,0-115,51.6-115,115s51.6,115,115,115s115-51.6,115-115c0-7.7-0.8-15.2-2.2-22.5l27.5,27.5
		c-2.7,75.1-64.5,135.5-140.3,135.5c-77.5,0-140.6-63.1-140.6-140.6c0-75.8,60.4-137.6,135.5-140.3L562,427.3z M628.9,540
		c0,49.3-40.1,89.4-89.4,89.4s-89.4-40.1-89.4-89.4s40.1-89.4,89.4-89.4S628.9,490.7,628.9,540z M244.8,416.7l47.5,47.5
		c19.3,19.3,30,45,30,72.3c0,16.9-4.2,33.6-12.2,48.5l-54.5,101.1c-22.7-43.8-35.5-93.5-35.5-146.2
		C220.1,496.3,228.9,454.7,244.8,416.7z M393.3,823.9l101.1-54.5c14.8-8,31.6-12.2,48.5-12.2c27.3,0,53,10.6,72.3,30l47.5,47.5
		c-37.9,15.9-79.6,24.8-123.3,24.8C486.8,859.4,437.2,846.6,393.3,823.9z M687.3,823.1l-53.9-53.9c-24.1-24.1-56.2-37.4-90.4-37.4
		c-21.1,0-42.1,5.3-60.6,15.3l-115,61.9c-38.8-24.9-71.8-57.9-96.7-96.7l61.9-115c10-18.6,15.3-39.5,15.3-60.6
		c0-34.1-13.3-66.3-37.4-90.4l-53.9-53.9c30.2-57.7,77.6-105,135.3-135.3l119.5,119.5C433.1,390,373.4,458.1,373.4,540
		c0,91.6,74.5,166.1,166.1,166.1c81.9,0,150-59.7,163.5-137.9l119.5,119.5C792.3,745.5,745,792.8,687.3,823.1z"/>
	<path class="st1" d="M692.8,649.7l-56.4,56.4l82,82l56.4-56.4L692.8,649.7z M672.6,706.1l20.3-20.3l45.8,45.8l-20.3,20.3
		L672.6,706.1z"/>
	
		<rect x="373.4" y="291.9" transform="matrix(0.7071 -0.7071 0.7071 0.7071 -106.1028 363.863)" class="st1" width="25.6" height="36.1"/>
	
		<rect x="424.5" y="343.1" transform="matrix(0.7071 -0.7071 0.7071 0.7071 -127.2733 414.9712)" class="st1" width="25.6" height="36.1"/>
	
		<rect x="296.7" y="368.6" transform="matrix(0.7071 -0.7071 0.7071 0.7071 -182.7665 332.1078)" class="st1" width="25.6" height="36.1"/>
	
		<rect x="347.8" y="419.7" transform="matrix(0.7071 -0.7071 0.7071 0.7071 -203.937 383.2161)" class="st1" width="25.6" height="36.1"/>
	<circle class="st1" cx="373.4" cy="373.9" r="25.6"/>
	<path class="st1" d="M475.6,540c0,35.2,28.7,63.9,63.9,63.9s63.9-28.7,63.9-63.9s-28.7-63.9-63.9-63.9S475.6,504.8,475.6,540z
		 M577.8,540c0,21.1-17.2,38.3-38.3,38.3s-38.3-17.2-38.3-38.3s17.2-38.3,38.3-38.3S577.8,518.9,577.8,540z"/>
</g>
</svg>
