<?xml version="1.0" encoding="utf-8"?>
<!-- Generator: Adobe Illustrator 23.1.1, SVG Export Plug-In . SVG Version: 6.00 Build 0)  -->
<svg version="1.1" id="Layer_1" xmlns="http://www.w3.org/2000/svg" xmlns:xlink="http://www.w3.org/1999/xlink" x="0px" y="0px"
	 viewBox="0 0 1080 1080" style="enable-background:new 0 0 1080 1080;" xml:space="preserve">
<style type="text/css">
	.st0{fill:none;stroke:#FFFFFF;stroke-width:30;stroke-miterlimit:10;}
	.st1{fill:#FFFFFF;}
	.st2{fill:none;stroke:#FFFFFF;stroke-width:23;stroke-miterlimit:10;}
</style>
<rect x="47.4" y="47.4" class="st0" width="984.8" height="984.8"/>
<g>
	<circle class="st1" cx="540" cy="237.5" r="94.4"/>
	<path class="st2" d="M684.3,383.2c-11.6-17-34.8-21.5-51.9-10c-5.5,3.8-9.5,8.8-12.3,14.4c27.8,20.8,45.8,53.8,45.8,91.1V489
		l71,104.1c11.6,17,34.8,21.5,51.9,10c17-11.6,21.5-34.8,10-51.9L684.3,383.2z"/>
	<path class="st2" d="M611.3,912.2c24,0,43.5-19.5,43.5-43.5V667.2v-0.1v-187c0-37.3-18-70.3-45.8-91.1
		c-19-14.3-42.5-22.8-68.2-22.8c-62.9,0-113.9,51-113.9,113.9v173.5c0,0.1,0,0.3,0,0.4v215.1c0,24,19.5,43.5,43.5,43.5
		c24.1,0,43.5-19.5,43.5-43.5V670.4h53.6v198.2C567.7,892.7,587.2,912.2,611.3,912.2z"/>
	<path class="st1" d="M420.3,269.9c11.8,0,21.3-9.5,21.3-21.3c0-8-4.4-14.9-10.9-18.5h2.5c0-60,48.9-108.8,108.9-108.8
		c59.7,0,108.3,48.4,108.8,108c-7.3,3.4-12.3,10.7-12.3,19.3c0,11.8,9.5,21.3,21.3,21.3c11.8,0,21.3-9.5,21.3-21.3
		c0-10-6.9-18.3-16.2-20.6c-1.2-66.9-55.8-121-123-121c-67,0-121.4,53.8-122.9,120.3c-11.1,0.6-20,9.9-20,21.2
		C398.9,260.3,408.5,269.9,420.3,269.9z"/>
	<path class="st1" d="M717.1,667.4c0-11.8-9.5-21.3-21.3-21.3s-21.3,9.5-21.3,21.3c0,9.3,6,17.1,14.3,20v196.4
		c-8.3,2.9-14.3,10.7-14.3,20c0,5.1,1.9,9.9,4.9,13.5c-11.9,12.8-34.4,30.4-69.2,33.4c-1.4-10.4-10.3-18.5-21-18.5
		c-11.8,0-21.3,9.5-21.3,21.3s9.5,21.3,21.3,21.3c7.5,0,14.1-4,17.9-9.9c43.8-2.3,71.3-25.2,84.8-40.4c1.3,0.2,2.6,0.4,4,0.4
		c11.8,0,21.3-9.5,21.3-21.3c0-9.2-6-17-14.3-20V687.5C711.2,684.5,717.1,676.8,717.1,667.4z"/>
	<path class="st1" d="M837.9,508.5c-3,0-5.9,0.6-8.6,1.8l-102.2-143c3.1-3.8,5-8.5,5-13.6c0-11.8-9.5-21.3-21.3-21.3
		c-11.8,0-21.3,9.5-21.3,21.3c0,11.8,9.5,21.3,21.3,21.3c1.4,0,2.7-0.1,4.1-0.4L819,520.1c-1.5,2.9-2.4,6.1-2.4,9.6
		c0,11.8,9.5,21.3,21.3,21.3s21.3-9.5,21.3-21.3C859.2,518.1,849.7,508.5,837.9,508.5z"/>
	<path class="st2" d="M414.5,478.6c0-37.3,18-70.3,45.8-91.1c-2.8-5.6-6.9-10.6-12.3-14.4c-17-11.6-40.3-7.1-51.9,10l-114.4,168
		c-11.6,17-7.1,40.3,10,51.9c17,11.6,40.3,7.1,51.9-10l71-104.1V478.6z"/>
	<path class="st1" d="M255.8,519L360,373.6c1.3,0.2,2.7,0.4,4.1,0.4c11.8,0,21.3-9.5,21.3-21.3s-9.5-21.3-21.3-21.3
		s-21.3,9.5-21.3,21.3c0,5.3,1.9,10,5,13.6L245.5,509.2c-2.6-1.2-5.5-1.8-8.6-1.8c-11.8,0-21.3,9.5-21.3,21.3
		c0,11.8,9.5,21.3,21.3,21.3s21.3-9.5,21.3-21.3C258.2,525.1,257.3,521.9,255.8,519z"/>
</g>
<path class="st1" d="M377.5,687.5v196.3c-8.3,3-14.3,10.8-14.3,20c0,11.8,9.5,21.3,21.3,21.3c1.4,0,2.7-0.2,4-0.4
	c13.5,15.2,40.9,38.1,84.8,40.4c3.8,5.9,10.4,9.9,17.9,9.9c11.8,0,21.3-9.5,21.3-21.3s-9.5-21.3-21.3-21.3c-10.7,0-19.6,8.1-21,18.5
	c-34.8-3-57.3-20.7-69.2-33.4c3-3.6,4.9-8.4,4.9-13.5c0-9.3-6-17.1-14.3-20V687.5c8.3-2.9,14.3-10.7,14.3-20
	c0-11.8-9.5-21.3-21.3-21.3s-21.3,9.5-21.3,21.3C363.2,676.8,369.1,684.5,377.5,687.5z"/>
</svg>
