<?xml version="1.0" encoding="utf-8"?>
<!-- Generator: Adobe Illustrator 23.1.1, SVG Export Plug-In . SVG Version: 6.00 Build 0)  -->
<svg version="1.1" id="Layer_1" xmlns="http://www.w3.org/2000/svg" xmlns:xlink="http://www.w3.org/1999/xlink" x="0px" y="0px"
	 viewBox="0 0 1080 1080" style="enable-background:new 0 0 1080 1080;" xml:space="preserve">
<style type="text/css">
	.st0{fill:none;stroke:#FFFFFF;stroke-width:30;stroke-miterlimit:10;}
	.st1{fill:none;stroke:#FFFFFF;stroke-width:6;stroke-miterlimit:10;}
	.st2{fill:#FFFFFF;stroke:#FFFFFF;stroke-width:6;stroke-miterlimit:10;}
</style>
<rect x="47.4" y="47.4" class="st0" width="984.8" height="984.8"/>
<g>
	<g>
		<g>
			<polygon class="st1" points="443.4,753.9 408.7,733.9 316.7,725.4 293.3,723.2 394.4,781.9 444,762.6 452.6,759.3 			"/>
			<polygon class="st1" points="280.5,700.5 410.4,712.4 450.9,689 458.5,684.5 392.8,635.2 			"/>
			<polygon class="st1" points="651.5,723.6 604.7,696.5 478.8,696.5 432.2,723.6 478.8,750.7 605,750.7 			"/>
			<polygon class="st1" points="675.1,733.9 631.1,759.4 686.9,781.8 768.6,734 786.9,723.4 			"/>
			<polygon class="st1" points="479.8,675 604,675 656.6,633.6 424.6,633.6 			"/>
			<path class="st1" d="M900.6,622.3h-31.1h-17.2c-5.7,0-10.3,5.6-10.3,12.5v0.5h74.1l-0.3-2.3c-0.7-6-5.1-10.7-10.2-10.7
				C905.6,622.3,900.6,622.3,900.6,622.3z"/>
			<polygon class="st1" points="606.7,772.3 477.7,772.3 450.7,782.7 632.6,782.7 			"/>
			<path class="st1" d="M255.6,634.8V646v12.5V691l133.8-77.8c0.2-0.1,0.4-0.1,0.6-0.3c0.2-0.1,0.5-0.3,0.8-0.4
				c0.6-0.3,1.3-0.4,1.9-0.4c0.2,0,0.3-0.1,0.5-0.1h293.2c0.2,0,0.3,0.1,0.5,0.1c0.6,0,1.3,0.1,1.8,0.4c0.3,0.1,0.5,0.3,0.8,0.4
				c0.2,0.1,0.4,0.1,0.6,0.3L824.2,691v-56.2c0-18.7,12.6-34,28.1-34h4.2l-11.4-35.6c-2.9-9-6.5-17.6-10.6-25.7l0,0l-59.1-114.4
				l-38-73.5c-0.1,0-0.1,0-0.2,0c-2.3-0.4-4.6-1-6.8-1.9c-0.3-0.1-0.7-0.3-1.1-0.4c-2.1-0.9-4.1-2.2-6.1-3.6c-0.3-0.3-0.6-0.5-1-0.8
				c-1.9-1.5-3.6-3.2-5.2-5.3c-0.2-0.3-0.4-0.5-0.6-0.8c-1.6-2.2-3.1-4.5-4.4-7.1l-0.1-0.3c-1.5,0.9-3,1.7-4.6,2.6
				c-0.7,0.4-1.5,0.9-2.2,1.3c-5.2,2.7-10.8,5.4-16.9,7.7c-0.8,0.4-1.7,0.6-2.5,1c-2.2,0.9-4.5,1.7-6.8,2.6
				c-1.2,0.4-2.3,0.8-3.6,1.2c-2.1,0.6-4.1,1.4-6.4,2.1c-1.4,0.4-2.8,0.8-4.1,1.2c-2.1,0.6-4.1,1.2-6.4,1.8c-1.5,0.4-3,0.8-4.5,1.2
				c-2.1,0.5-4.2,1-6.4,1.5c-1.6,0.4-3.2,0.8-4.9,1c-2.1,0.5-4.4,0.9-6.6,1.4c-1.7,0.4-3.4,0.6-5.1,1c-2.2,0.4-4.5,0.8-6.8,1.2
				c-1.7,0.3-3.5,0.6-5.3,0.9c-2.3,0.4-4.7,0.6-7,1c-1.8,0.3-3.6,0.5-5.4,0.8c-2.4,0.3-4.8,0.6-7.2,0.9c-1.8,0.3-3.6,0.4-5.5,0.6
				c-2.5,0.3-5.1,0.5-7.5,0.6c-1.8,0.1-3.6,0.4-5.4,0.5c-2.7,0.3-5.4,0.4-8.1,0.5c-1.7,0.1-3.5,0.3-5.2,0.3
				c-3.1,0.1-6.2,0.3-9.2,0.4c-1.5,0-2.9,0.1-4.4,0.1c-4.6,0.1-9.1,0.1-13.8,0.1c-4.7,0-9.3-0.1-14-0.1c-1.6,0-3.1-0.1-4.6-0.1
				c-3.1-0.1-6.2-0.3-9.2-0.4c-1.8-0.1-3.6-0.3-5.3-0.4c-2.8-0.1-5.5-0.4-8.2-0.5c-1.9-0.1-3.7-0.3-5.6-0.5
				c-2.5-0.3-5.1-0.5-7.6-0.8c-1.9-0.1-3.7-0.4-5.6-0.6c-2.4-0.3-4.9-0.5-7.3-0.9c-1.8-0.3-3.6-0.5-5.5-0.8c-2.4-0.4-4.8-0.6-7.1-1
				c-1.8-0.3-3.5-0.5-5.3-0.9c-2.3-0.4-4.7-0.8-6.9-1.3c-1.7-0.4-3.4-0.6-5.1-1c-2.2-0.5-4.5-0.9-6.7-1.4c-1.6-0.4-3.3-0.8-4.9-1.2
				c-2.2-0.5-4.4-1-6.5-1.7c-1.5-0.4-3.1-0.8-4.6-1.2c-2.1-0.6-4.2-1.3-6.4-1.8c-1.4-0.4-2.8-0.8-4.1-1.3c-2.2-0.6-4.4-1.4-6.5-2.2
				c-1.2-0.4-2.3-0.8-3.5-1.2c-2.4-0.9-4.9-1.8-7.2-2.8c-0.7-0.3-1.5-0.5-2.1-0.9c-3-1.3-5.9-2.6-8.7-3.9c-0.6-0.3-1.2-0.6-1.8-0.9
				c-2.1-1-4.2-2.1-6.3-3.2c-1-0.5-1.8-1-2.8-1.5c-1.3-0.8-2.7-1.5-3.9-2.3l-0.6,1.3c-1.3,2.6-2.7,4.9-4.4,7.1
				c-0.2,0.3-0.4,0.6-0.6,0.9c-1.6,1.9-3.3,3.7-5.2,5.1c-0.3,0.3-0.6,0.5-1.1,0.9c-1.9,1.4-3.8,2.6-5.9,3.6
				c-0.3,0.1-0.7,0.3-1.1,0.5c-2.2,0.9-4.5,1.5-6.8,1.9c-0.1,0-0.1,0-0.2,0l-94.7,172.6c-9.7,17.6-16.9,37-21.5,57.4l-4.2,19.1h6.6
				C243.1,600.8,255.6,616,255.6,634.8z"/>
			<path class="st1" d="M368.7,306.8L368.7,306.8c21.1,16.2,59.6,28.4,105.4,34.4c8.4,1.2,17,2.1,25.7,2.7
				c8.8,0.6,17.7,1.2,26.9,1.4c4.6,0.1,9.1,0.1,13.7,0.1c58.6,0,113.8-9.8,149.2-25.7c8.2-3.7,15.3-7.7,21.1-11.9
				c10.1-7.3,15.6-15,15.6-21.7c0-0.5,0-1.3,0-2.2c0-0.3,0-0.4,0-0.6c0-0.8,0-1.7,0-2.7c0-0.4,0-0.8,0-1.3c0-0.3,0-0.5,0-0.8
				c0-0.9,0-1.8,0-2.8c-0.5,0.5-1.2,0.9-1.7,1.3c-1.2,1-2.5,2.1-3.8,3.1c-1.4,1-2.9,2.1-4.5,3.2c-1.5,1-3,1.9-4.7,3
				c-1.7,1-3.4,1.9-5.2,3c-1.7,0.9-3.4,1.8-5.2,2.7c-1.9,1-4,1.9-6.1,2.8c-1.8,0.8-3.7,1.7-5.6,2.4c-2.3,0.9-4.7,1.8-7.1,2.7
				c-1.9,0.8-3.8,1.4-5.8,2.2c-2.7,0.9-5.5,1.8-8.4,2.7c-1.9,0.6-3.8,1.2-5.8,1.8c-3.3,0.9-6.7,1.8-10.2,2.6
				c-1.7,0.4-3.4,0.9-5.1,1.3c-5.3,1.2-10.7,2.3-16.4,3.5h-0.1l0,0l0,0c-9.1,1.7-18.2,3.1-27.2,4.1l0,0l-1.8,0.3
				c-4.5,0.5-8.9,1-13.6,1.4l0,0l-1.8,0.1c-4.2,0.4-8.5,0.6-12.8,0.9l-1.8,0.1c-4.6,0.3-9.1,0.5-13.8,0.6l-3,0.1
				c-4.8,0.1-9.6,0.3-14.4,0.3c-4.9,0-9.7-0.1-14.4-0.3l-3-0.1c-4.7-0.1-9.2-0.4-13.8-0.6l-1-0.1c-5.1-0.4-9.3-0.6-13.6-1l0,0
				l-1.9-0.1c-4.6-0.4-9-0.9-13.5-1.4h-0.1l-1.8-0.3c-9.1-1.2-18.2-2.4-27-4.1c-0.1,0-0.2,0-0.4-0.1l0,0l0,0
				c-5.5-1-10.9-2.2-16.1-3.3c-1.7-0.4-3.2-0.8-4.9-1.2c-3.6-0.9-7.1-1.8-10.5-2.7c-1.9-0.5-3.6-1.2-5.5-1.7c-3-0.9-5.9-1.8-8.8-2.8
				c-1.9-0.6-3.6-1.3-5.4-1.9c-2.5-0.9-5.2-1.9-7.6-3c-1.8-0.8-3.4-1.5-5.1-2.2c-2.3-1-4.6-2.1-6.7-3.1c-1.6-0.8-3.1-1.7-4.7-2.4
				c-2-1-3.9-2.2-5.8-3.3c-1.4-0.9-2.8-1.8-4.1-2.6c-1.7-1.2-3.4-2.3-4.9-3.5c-1.2-0.9-2.4-1.8-3.5-2.8c-0.5-0.5-1.3-0.9-1.8-1.4
				v10.4C354.5,292.5,359.5,299.8,368.7,306.8z"/>
			<polygon class="st1" points="799.5,700.5 737.2,664.3 687.3,635.3 624.7,684.3 673.4,712.4 			"/>
			<path class="st1" d="M329.5,328C329.6,328,329.6,328,329.5,328c2.1,1.4,4.6,2.3,7.2,2.4c5.9,0.3,11.5-3.3,14.3-9.4l1-2.1
				c-0.2-0.3-0.4-0.5-0.6-0.8c-2.2-2.3-4.4-4.5-6.2-6.9l-0.1-0.1c-1.7-2.3-3.1-4.7-4.2-7.1c-0.2-0.5-0.4-0.9-0.6-1.4
				c-1.1-2.4-1.9-4.7-2.5-7.3c-0.1-0.5-0.2-1-0.3-1.4c-0.5-2.6-0.8-5.1-0.8-7.8v-11.3l-12.8,27c-2.1,4.4-2.7,9.6-1.5,14.6
				S326,325.5,329.5,328z"/>
			<rect x="402.7" y="804.1" class="st1" width="275.9" height="118.6"/>
			<path class="st1" d="M385,800.1l-142-82.3c-0.1-0.1-0.2-0.3-0.4-0.4c-0.1-0.1-0.3-0.1-0.4-0.3c-0.2-0.1-0.4-0.5-0.6-0.6
				c-0.1-0.1-0.3-0.3-0.4-0.4c0,0,0,0-0.1,0c-0.1-0.1-0.1-0.3-0.2-0.4l0,0c-0.1-0.1-0.2-0.1-0.2-0.3c-0.2-0.4-0.4-0.8-0.6-1
				s-0.4-0.5-0.5-0.9c0-0.1-0.1-0.1-0.1-0.3c-0.1-0.1-0.1-0.4-0.2-0.5c-0.1-0.3-0.2-0.5-0.3-0.8c0-0.1,0-0.1-0.1-0.1
				c-0.1-0.3-0.2-0.5-0.3-0.9c0-0.1-0.1-0.4-0.1-0.5c0-0.1-0.1-0.1-0.1-0.3c0-0.1,0-0.4,0-0.5c0-0.3-0.1-0.5-0.1-0.9
				c0-0.3-0.1-0.4-0.1-0.6v-39h-78.3L139,837.5h107.8c1.4,0,2.7,0.4,3.8,1L385,916.3L385,800.1L385,800.1z"/>
			<path class="st1" d="M227.6,622.3h-18.2h-30.1h-5.1c-5.1,0-9.5,4.6-10.2,10.7l-0.3,2.3l74.1-0.5
				C237.9,627.9,233.2,622.3,227.6,622.3z"/>
			<path class="st1" d="M764.1,341.2c-0.4,0.4-0.7,0.9-1.2,1.3c-1.5,1.5-3.1,3-4.9,4.2l0,0c-0.5,0.4-1.2,0.8-1.7,1.2l93.2,180.3
				c4.8,9.2,8.9,19.1,12.1,29.3l13.9,43.3h12l-15.5-48.3c-3.5-10.9-7.9-21.6-13.1-31.6l-93.7-181.2
				C765,340.2,764.5,340.7,764.1,341.2z"/>
			<path class="st1" d="M842,669.2v37.9c0,0.4,0,0.6,0,1c0,0.1,0,0.3,0,0.3c0,0.5,0,0.9-0.1,1.4c0,0.1,0,0.1,0,0.3
				c0,0.1-0.1,0.3-0.1,0.4c-0.1,0.4-0.2,0.8-0.3,1.2c-0.1,0.5-0.3,1-0.5,1.4c-0.1,0.1-0.1,0.3-0.1,0.4c-0.2,0.5-0.5,0.9-0.7,1.3
				s-0.4,0.8-0.7,1c-0.6,0.8-1.4,1.5-2.2,1.9l-140.7,82.3V916l133-77.8c1.2-0.6,2.5-1,3.8-1h107.7l-20.6-168.3
				C920.3,669.2,842,669.2,842,669.2z"/>
			<path class="st1" d="M354.5,240.9c0,3.5,1.6,7.3,4.8,11.4l0,0c0.8,1,1.7,2.1,2.7,3.1c10.9,11.4,31.6,21.8,58.6,29.5
				c1.5,0.4,3,0.9,4.5,1.3c8.6,2.3,17.8,4.5,27.6,6.3c8.8,1.7,17.6,3,26.5,4l1.6,0.1c4.4,0.5,8.8,1,13.3,1.4l1.6,0.1
				c4.2,0.4,8.4,0.6,12.6,0.9l1,0.1c5.2,0.3,9.8,0.5,14.3,0.6l2.9,0.1c9.3,0.3,18.8,0.3,28.1,0l3-0.1c4.6-0.1,9-0.4,13.5-0.6
				c0,0,0.2,0,0.4,0h0.3c0,0,0.3,0,0.5,0c0.3,0,0.5,0,0.5,0c4.1-0.3,8.3-0.5,12.4-0.9h0.1l0,0h0.1l1.5-0.1c4.5-0.4,8.9-0.9,13.2-1.4
				l0,0l0,0l1.5-0.1c8.9-1,17.7-2.4,26.2-4h0.1c43.1-8,76.1-21.6,91-37.2c4.4-4.7,6.7-8.9,7.2-12.5c0.1-0.6,0.2-1.3,0.2-2.1
				c-0.1-1.4-0.2-1.8-0.2-2.2l0,0c-4.8-27-82.1-57.1-185.7-57.1c-101.5,0-177.9,28.8-185.4,55.6
				C354.6,238.4,354.5,239.7,354.5,240.9z"/>
			<path class="st1" d="M744.1,281.3c0,2.2,0,4,0,4.9c0,1.7-0.1,3.5-0.3,5.1c-0.1,0.5-0.2,1-0.3,1.5c-0.2,1.2-0.4,2.3-0.7,3.3
				c-0.1,0.6-0.3,1.3-0.5,1.8c-0.3,1-0.7,2.1-1.2,3.1c-0.2,0.6-0.5,1.2-0.7,1.8c-0.5,1-1.1,2.1-1.6,3.2c-0.3,0.5-0.5,1-0.8,1.5
				c-0.8,1.4-1.8,2.7-2.9,4.1c-0.1,0.1-0.2,0.4-0.3,0.5c-1.2,1.5-2.4,3-3.8,4.4c-0.4,0.5-1,0.9-1.4,1.4c-0.7,0.8-1.4,1.4-2.2,2.2
				l0.3,0.8c2.9,6,8.5,9.5,14.4,9.4c2.7-0.1,5.1-0.9,7.1-2.4c3.6-2.6,6.3-6.7,7.3-11.8c1.1-4.9,0.5-10-1.6-14.4L744,279
				C744.1,279.9,744.1,280.5,744.1,281.3z"/>
			<path class="st1" d="M208.1,576.1c5.1-22.6,13.1-44,23.8-63.7l90.4-164.8c-0.5-0.4-1.1-0.6-1.6-1c-1.7-1.2-3.3-2.7-4.8-4.2
				c-0.4-0.4-0.7-0.9-1.2-1.3c-0.5-0.5-1.1-1-1.5-1.7l-90.7,165.3c-11.4,20.8-19.9,43.5-25.3,67.6l-6.3,28.2h11.6L208.1,576.1z"/>
			<path class="st2" d="M936.8,657.4c0-0.1,0.1-0.4,0-0.5l-1.5-12.5c0-0.3-0.1-0.4-0.1-0.5l-1.7-14.1c-2-16-13.4-28.2-26.8-28.9
				l-17.9-56.1c-3.9-12.2-8.8-24-14.5-35.3l-99.7-193c1-8.9-0.3-17.7-4-25.4l-26.7-55.8v-0.1c0-0.3-0.1-0.6-0.1-0.9
				c-0.1-0.5-0.2-1-0.3-1.5v-0.1C733.1,184.9,634.2,160,540.7,160c-86.8,0-186.2,21.4-201.7,68.4c-0.7,1.3-1.6,2.4-2.3,3.9l-28,58.8
				c-3.7,7.8-5,16.8-4,25.7L208,493c-12.4,22.7-21.8,47.6-27.6,73.8l-7.6,34c-13.1,1-24.1,13-26.1,28.8l-1.8,14.5v0.1l-1.5,12.5
				c0,0.1,0,0.1,0,0.3l-23.3,189.6c-0.4,3.1,0.4,6.3,2,8.6c1.7,2.3,4.1,3.7,6.7,3.7h116L389.9,943c0,0,0,0,0.1,0
				c1.2,0.6,2.4,1,3.8,1h293.6c1.3,0,2.5-0.4,3.7-1c0.1,0,0.1,0,0.2,0L835.2,859h116c2.5,0,5-1.4,6.7-3.7c1.7-2.3,2.4-5.5,2-8.6
				L936.8,657.4z M915.8,633l0.3,2.3H842v-0.5c0-6.9,4.7-12.5,10.3-12.5h17.2h31.1h5.1C910.7,622.3,915.1,626.8,915.8,633z
				 M225.2,581.7c4.6-20.4,11.8-39.7,21.5-57.4l94.7-172.6c0.1,0,0.1,0,0.2,0c2.3-0.4,4.6-1,6.8-1.9c0.4-0.1,0.7-0.3,1.1-0.5
				c2.1-0.9,4-2.2,5.9-3.6c0.3-0.3,0.7-0.5,1.1-0.9c1.8-1.5,3.6-3.2,5.2-5.1c0.2-0.3,0.4-0.6,0.6-0.9c1.6-2.2,3.1-4.5,4.4-7.1
				l0.6-1.3c1.3,0.8,2.7,1.5,3.9,2.3c1,0.5,1.8,1,2.8,1.5c2,1.2,4.1,2.2,6.3,3.2c0.6,0.3,1.2,0.6,1.8,0.9c2.8,1.3,5.7,2.6,8.7,3.9
				c0.7,0.3,1.5,0.5,2.1,0.9c2.3,0.9,4.7,1.9,7.2,2.8c1.2,0.4,2.3,0.8,3.5,1.2c2.1,0.8,4.2,1.4,6.5,2.2c1.4,0.4,2.8,0.8,4.1,1.3
				c2.1,0.6,4.2,1.3,6.4,1.8c1.5,0.4,3,0.8,4.6,1.2c2.1,0.5,4.4,1.2,6.5,1.7c1.6,0.4,3.2,0.8,4.9,1.2c2.2,0.5,4.5,1,6.7,1.4
				c1.7,0.4,3.4,0.6,5.1,1c2.2,0.4,4.6,0.9,6.9,1.3c1.8,0.3,3.5,0.6,5.3,0.9c2.3,0.4,4.8,0.8,7.1,1c1.8,0.3,3.6,0.5,5.5,0.8
				c2.4,0.3,4.9,0.6,7.3,0.9c1.8,0.3,3.7,0.4,5.6,0.6c2.5,0.3,5.1,0.5,7.6,0.8c1.9,0.1,3.7,0.4,5.6,0.5c2.7,0.3,5.4,0.4,8.2,0.5
				c1.8,0.1,3.5,0.3,5.3,0.4c3.1,0.1,6.2,0.3,9.2,0.4c1.6,0,3.1,0.1,4.6,0.1c4.7,0.1,9.3,0.1,14,0.1c4.6,0,9.2-0.1,13.8-0.1
				c1.5,0,2.9-0.1,4.4-0.1c3.1-0.1,6.2-0.3,9.2-0.4c1.8-0.1,3.5-0.3,5.2-0.3c2.7-0.1,5.4-0.3,8.1-0.5c1.8-0.1,3.6-0.3,5.4-0.5
				c2.5-0.3,5.1-0.4,7.5-0.6c1.8-0.1,3.6-0.4,5.5-0.6c2.4-0.3,4.9-0.5,7.2-0.9c1.8-0.3,3.6-0.5,5.4-0.8c2.3-0.4,4.7-0.6,7-1
				c1.8-0.3,3.5-0.5,5.3-0.9c2.2-0.4,4.6-0.8,6.8-1.2c1.7-0.3,3.4-0.6,5.1-1c2.2-0.4,4.5-0.9,6.6-1.4c1.6-0.4,3.3-0.8,4.9-1
				c2.1-0.5,4.4-1,6.4-1.5c1.5-0.4,3-0.8,4.5-1.2c2.1-0.5,4.2-1.2,6.4-1.8c1.4-0.4,2.8-0.8,4.1-1.2c2.1-0.6,4.2-1.4,6.4-2.1
				c1.2-0.4,2.4-0.8,3.6-1.2c2.3-0.8,4.6-1.7,6.8-2.6c0.8-0.4,1.7-0.6,2.5-1c6.1-2.4,11.7-5,16.9-7.7c0.7-0.4,1.5-0.9,2.2-1.3
				c1.5-0.9,3.1-1.7,4.6-2.6l0.1,0.3c1.3,2.6,2.8,4.9,4.4,7.1c0.2,0.3,0.4,0.5,0.6,0.8c1.6,1.9,3.4,3.7,5.2,5.3
				c0.3,0.3,0.6,0.5,1,0.8c1.9,1.4,3.9,2.7,6.1,3.6c0.3,0.1,0.7,0.3,1.1,0.4c2.2,0.9,4.5,1.5,6.8,1.9c0.1,0,0.1,0,0.2,0l38,73.5
				l59.1,114.4l0,0c4.2,8.1,7.8,16.8,10.6,25.7l11.4,35.6h-4.2c-15.5,0-28.1,15.3-28.1,34V691l-133.8-77.8c-0.2-0.1-0.4-0.1-0.6-0.3
				c-0.3-0.1-0.5-0.3-0.8-0.4c-0.6-0.3-1.2-0.3-1.8-0.4c-0.2,0-0.3-0.1-0.5-0.1H393.3c-0.2,0-0.3,0.1-0.5,0.1
				c-0.6,0-1.3,0.1-1.9,0.4c-0.3,0.1-0.5,0.3-0.8,0.4c-0.2,0.1-0.4,0.1-0.6,0.3L255.6,691v-32.6V646v-11.2c0-18.7-12.6-34-28.1-34
				h-6.6L225.2,581.7z M354.5,275.8c0.5,0.5,1.3,0.9,1.8,1.4c1.2,0.9,2.3,1.9,3.5,2.8c1.6,1.2,3.2,2.3,4.9,3.5
				c1.4,0.9,2.7,1.8,4.1,2.6c1.8,1.2,3.8,2.2,5.8,3.3c1.5,0.8,3.1,1.7,4.7,2.4c2.1,1,4.4,2.1,6.7,3.1c1.7,0.8,3.4,1.5,5.1,2.2
				c2.4,1,5,1.9,7.6,3c1.8,0.6,3.5,1.3,5.4,1.9c2.9,0.9,5.8,1.9,8.8,2.8c1.8,0.5,3.6,1.2,5.5,1.7c3.4,0.9,7,1.8,10.5,2.7
				c1.6,0.4,3.2,0.9,4.9,1.2c5.2,1.2,10.5,2.3,16.1,3.3l0,0l0,0c0.1,0,0.2,0,0.4,0.1c8.7,1.7,17.8,3,27,4.1l1.8,0.3h0.1
				c4.5,0.5,8.9,1,13.5,1.4l1.9,0.1l0,0c4.2,0.4,8.5,0.6,13.6,1l1,0.1c4.6,0.3,9.2,0.5,13.8,0.6l3,0.1c4.8,0.1,9.6,0.3,14.4,0.3
				c4.9,0,9.7-0.1,14.4-0.3l3-0.1c4.7-0.1,9.2-0.4,13.8-0.6l1.8-0.1c4.4-0.3,8.6-0.5,12.8-0.9l1.8-0.1l0,0c4.6-0.4,9.1-0.9,13.6-1.4
				l1.8-0.3l0,0c9.1-1.2,18.2-2.4,27.2-4.1l0,0l0,0h0.1c5.6-1,11-2.2,16.4-3.5c1.8-0.4,3.4-0.9,5.1-1.3c3.4-0.9,6.9-1.7,10.2-2.6
				c2-0.5,3.8-1.2,5.8-1.8c2.9-0.9,5.6-1.7,8.4-2.7c2-0.6,3.9-1.4,5.8-2.2c2.4-0.9,4.8-1.8,7.1-2.7c1.9-0.8,3.7-1.7,5.6-2.4
				c2.1-0.9,4.1-1.9,6.1-2.8c1.8-0.9,3.5-1.8,5.2-2.7c1.8-1,3.5-1.9,5.2-3c1.6-1,3.2-1.9,4.7-3c1.6-1,3-2.1,4.5-3.2
				c1.4-1,2.7-2.1,3.8-3.1c0.5-0.5,1.2-0.9,1.7-1.3c0,1,0,1.9,0,2.8c0,0.3,0,0.5,0,0.8c0,0.5,0,0.9,0,1.3c0,1,0,1.9,0,2.7
				c0,0.3,0,0.5,0,0.6c0,0.9,0,1.7,0,2.2c0,6.5-5.5,14.2-15.6,21.7c-5.8,4.2-13,8.3-21.1,11.9c-35.4,15.9-90.5,25.7-149.2,25.7
				c-4.6,0-9.1,0-13.7-0.1c-9.1-0.3-18.1-0.6-26.9-1.4c-8.8-0.6-17.4-1.5-25.7-2.7c-45.9-6-84.3-18.2-105.4-34.4l0,0
				c-9.1-7.1-14.2-14.4-14.2-20.7L354.5,275.8L354.5,275.8z M687.3,635.3l50,29l62.3,36.2l-126.2,11.9l-48.7-28.1L687.3,635.3z
				 M604,675H479.8l-55.2-41.3h232L604,675z M450.9,689l-40.5,23.5l-130-11.9l112.4-65.3l65.7,49.3L450.9,689z M394.4,781.9
				l-101.2-58.7l23.4,2.2l92.1,8.5l34.6,20.2l9.2,5.4l-8.7,3.3L394.4,781.9z M478.8,750.7l-46.6-27.1l46.6-27.1h125.7l46.9,27.1
				L605,750.7H478.8L478.8,750.7z M686.9,781.8l-55.8-22.5l44-25.5l111.8-10.5l-18.2,10.7L686.9,781.8z M477.7,772.3h129l25.9,10.4
				H450.7L477.7,772.3z M872.2,552.6l15.5,48.3h-12.1l-13.9-43.3c-3.3-10.1-7.3-20-12.1-29.3L756.3,348c0.6-0.4,1.2-0.8,1.7-1.2l0,0
				c1.7-1.2,3.3-2.7,4.9-4.2c0.4-0.4,0.7-0.9,1.2-1.3c0.4-0.5,1-0.9,1.3-1.4L859,521.2C864.2,531.1,868.7,541.7,872.2,552.6z
				 M756.5,316.2c-1.1,5-3.7,9.2-7.3,11.8c-2,1.4-4.5,2.2-7.1,2.4c-5.9,0.1-11.6-3.3-14.4-9.4l-0.3-0.8c0.7-0.8,1.5-1.4,2.2-2.2
				c0.4-0.5,1-0.9,1.4-1.4c1.4-1.4,2.7-3,3.8-4.4c0.1-0.1,0.2-0.4,0.3-0.5c1.1-1.3,1.9-2.7,2.9-4.1c0.3-0.5,0.6-1,0.8-1.5
				c0.6-1,1.2-2.1,1.6-3.2c0.3-0.6,0.5-1.2,0.7-1.8c0.4-1,0.7-2.1,1.2-3.1c0.2-0.6,0.4-1.2,0.5-1.8c0.3-1.2,0.5-2.3,0.7-3.3
				c0.1-0.5,0.2-1,0.3-1.5c0.2-1.7,0.3-3.3,0.3-5.1c0-0.9,0-2.7,0-4.9c0-0.6,0-1.3,0-2.1l10.8,22.7
				C757.1,306.2,757.6,311.3,756.5,316.2z M540.4,181.6c103.5,0,181,30,185.7,57.1l0,0c0.1,0.4,0.1,0.8,0.2,2.2
				c0,0.6-0.1,1.3-0.2,2.1c-0.5,3.7-2.9,7.8-7.2,12.5c-14.9,15.7-47.9,29.1-91,37.2h-0.1c-8.5,1.5-17.3,3-26.2,4l-1.5,0.1l0,0l0,0
				c-4.4,0.5-8.7,1-13.2,1.4l-1.5,0.1h-0.1l0,0h-0.1c-4.1,0.4-8.3,0.6-12.4,0.9c0,0-0.2,0-0.5,0c-0.2,0-0.5,0-0.5,0h-0.3
				c-0.2,0-0.4,0-0.4,0c-4.5,0.3-8.9,0.5-13.5,0.6l-3,0.1c-9.2,0.3-18.7,0.3-28.1,0l-2.9-0.1c-4.6-0.1-9-0.4-14.3-0.6l-1-0.1
				c-4.2-0.3-8.4-0.5-12.6-0.9L494,298c-4.5-0.4-8.8-0.9-13.3-1.4l-1.6-0.1c-8.9-1-17.7-2.4-26.5-4c-9.8-1.8-18.9-4-27.6-6.3
				c-1.5-0.4-3-0.8-4.5-1.3c-27.1-7.8-47.7-18.1-58.6-29.5c-1-1-1.8-2.1-2.7-3.1l0,0c-3.2-4.1-4.8-8-4.8-11.4c0-1.2,0.2-2.4,0.5-3.7
				C362.5,210.3,438.9,181.6,540.4,181.6z M323.8,302l12.8-27v11.2c0,2.7,0.3,5.3,0.8,7.8c0.1,0.5,0.2,1,0.3,1.4
				c0.6,2.4,1.5,4.9,2.5,7.3c0.2,0.5,0.4,0.9,0.6,1.4c1.2,2.4,2.5,4.7,4.2,7.1l0.1,0.1c1.7,2.3,3.8,4.6,6.2,6.9
				c0.2,0.3,0.4,0.5,0.6,0.8l-1,2.1c-2.9,6-8.5,9.6-14.3,9.4c-2.8-0.1-5.1-0.9-7.2-2.4l0,0c-3.6-2.6-6.2-6.7-7.3-11.6
				C321.1,311.5,321.7,306.3,323.8,302z M197.3,572.5c5.4-24,13.9-46.8,25.3-67.6l90.7-165.3c0.4,0.5,1,1,1.5,1.7
				c0.4,0.4,0.7,0.9,1.2,1.3c1.5,1.5,3.1,3,4.8,4.2c0.5,0.4,1.1,0.6,1.6,1l-90.4,164.8c-10.7,19.5-18.7,40.9-23.8,63.7l-5.5,24.8
				H191L197.3,572.5z M164,633c0.7-6,5.1-10.7,10.2-10.7h5.1h30.1h18.2c5.7,0,10.3,5.6,10.3,12.5l-74.1,0.5L164,633z M246.8,837.5
				H138.9l20.6-168.3h78.3v39c0,0.3,0.1,0.4,0.1,0.6c0,0.3,0,0.5,0.1,0.9c0,0.1,0,0.4,0,0.5c0,0.1,0.1,0.1,0.1,0.3s0.1,0.4,0.1,0.5
				c0.1,0.3,0.2,0.5,0.3,0.9c0,0.1,0,0.1,0.1,0.1c0.1,0.3,0.1,0.5,0.3,0.8c0.1,0.1,0.1,0.4,0.2,0.5c0,0.1,0.1,0.1,0.1,0.3
				c0.1,0.3,0.3,0.5,0.5,0.9c0.2,0.4,0.4,0.8,0.6,1c0.1,0.1,0.2,0.1,0.2,0.3l0,0c0.1,0.1,0.1,0.3,0.2,0.4c0,0,0,0,0.1,0
				c0.1,0.1,0.3,0.3,0.4,0.4c0.2,0.3,0.4,0.5,0.6,0.6c0.1,0.1,0.3,0.1,0.4,0.3c0.1,0.1,0.2,0.3,0.4,0.4L385,800.1v116.2l-134.3-77.8
				C249.5,837.8,248.1,837.5,246.8,837.5z M402.7,804.1h275.9v118.6H402.7V804.1z M833.2,837.5c-1.4,0-2.7,0.4-3.8,1l-133,77.8
				V800.1l140.7-82.3c0.8-0.5,1.6-1.2,2.2-1.9c0.3-0.3,0.4-0.6,0.7-1c0.3-0.4,0.5-0.8,0.7-1.3c0.1-0.1,0.1-0.3,0.1-0.4
				c0.2-0.5,0.3-0.9,0.5-1.4c0.1-0.4,0.2-0.8,0.3-1.2c0-0.1,0.1-0.3,0.1-0.4c0-0.1,0-0.1,0-0.3c0.1-0.5,0.1-0.9,0.1-1.4
				c0-0.1,0-0.3,0-0.3c0-0.4,0-0.6,0-1v-37.9h78.3l20.6,168.3H833.2V837.5z"/>
		</g>
	</g>
	<path class="st2" d="M390.7,279c0-0.1,0-0.2,0-0.2c0-1,0.2-2.2,0.4-3.3c6-24.1,67.2-50,148.6-50c83,0,145,27,148.8,51.4
		c0.1,0.3,0.1,0.7,0.2,2c0,0.1,0,0.2,0,0.2H705l-2.3-5.3v-0.1c0-0.2-0.1-0.6-0.1-0.8c-0.1-0.5-0.2-0.9-0.3-1.4v-0.1
		C694,228.4,614.8,206,539.9,206c-69.5,0-149.2,19.3-161.6,61.5c-0.6,1.2-1.3,2.2-1.9,3.5l-3.4,8H390.7z"/>
</g>
</svg>
