<?xml version="1.0" encoding="UTF-8" standalone="no"?><!DOCTYPE svg PUBLIC "-//W3C//DTD SVG 1.1//EN" "http://www.w3.org/Graphics/SVG/1.1/DTD/svg11.dtd"><svg width="100%" height="100%" viewBox="0 0 209 355" version="1.1" xmlns="http://www.w3.org/2000/svg" xmlns:xlink="http://www.w3.org/1999/xlink" xml:space="preserve" xmlns:serif="http://www.serif.com/" style="fill-rule:evenodd;clip-rule:evenodd;stroke-linejoin:round;stroke-miterlimit:2;"><g id="Artboard1"><rect x="0" y="0" width="208.333" height="352.083" style="fill:none;"/><path d="M103.935,126.22c5.918,0 11.467,-2.219 15.535,-6.288l82.483,-82.482c8.507,-8.507 8.507,-22.563 -0,-31.07c-8.507,-8.507 -22.563,-8.507 -31.07,0l-66.578,66.578l-66.578,-66.578c-8.507,-8.507 -22.562,-8.507 -31.069,0c-4.439,4.439 -6.288,9.987 -6.288,15.535c-0,5.548 2.219,11.466 6.288,15.535l81.743,82.482c4.068,4.069 9.616,6.288 15.534,6.288Z" style="fill:#ce2256;fill-rule:nonzero;"/><path d="M119.47,232.375l82.483,-82.483c8.507,-8.507 8.507,-22.562 -0,-31.069c-8.507,-8.507 -22.563,-8.507 -31.07,-0l-66.578,66.577l-66.578,-66.577c-8.507,-8.507 -22.562,-8.507 -31.069,-0c-4.439,4.438 -6.288,9.986 -6.288,15.535c-0,5.548 2.219,11.466 6.288,15.534l82.482,82.483c7.768,8.507 21.823,8.507 30.33,-0Z" style="fill:#ce2256;fill-rule:nonzero;"/><path d="M119.47,344.817l82.483,-82.482c8.507,-8.507 8.507,-22.563 -0,-31.07c-8.507,-8.507 -22.563,-8.507 -31.07,0l-66.578,66.578l-66.947,-66.948c-8.508,-8.507 -22.563,-8.507 -31.07,0c-4.439,4.439 -6.288,9.987 -6.288,15.535c-0,5.548 2.219,11.466 6.288,15.535l82.482,82.482c8.138,8.877 22.193,8.877 30.7,0.37Z" style="fill:#ce2256;fill-rule:nonzero;"/></g></svg>