<?xml version="1.0" encoding="UTF-8" standalone="no"?><!DOCTYPE svg PUBLIC "-//W3C//DTD SVG 1.1//EN" "http://www.w3.org/Graphics/SVG/1.1/DTD/svg11.dtd"><svg width="100%" height="100%" viewBox="0 0 2084 2084" version="1.1" xmlns="http://www.w3.org/2000/svg" xmlns:xlink="http://www.w3.org/1999/xlink" xml:space="preserve" xmlns:serif="http://www.serif.com/" style="fill-rule:evenodd;clip-rule:evenodd;stroke-linejoin:round;stroke-miterlimit:2;"><rect id="hide" x="0" y="0" width="2083.33" height="2083.33" style="fill:none;"/><circle cx="1041.67" cy="1058.75" r="708.75" style="fill:#5f8ac7;"/><circle cx="1041.67" cy="1058.75" r="412.917" style="fill:#fff;"/><path d="M1041.67,1498.33c-242.5,0 -439.584,-197.083 -439.584,-439.583c0,-242.5 197.084,-439.583 439.584,-439.583c242.5,-0 439.583,197.083 439.583,439.583c0,242.5 -197.083,439.583 -439.583,439.583Zm-0,-826.25c-212.917,0 -386.667,173.334 -386.667,386.667c0,213.333 173.333,386.667 386.667,386.667c213.333,-0 386.666,-173.334 386.666,-386.667c0,-213.333 -173.75,-386.667 -386.666,-386.667Z" style="fill-rule:nonzero;"/><path d="M1004.72,735.063l-283.289,432.556c-8.827,13.643 -9.63,30.496 -1.605,44.941c8.026,14.446 22.471,23.273 38.521,23.273l566.577,0c16.05,0 30.496,-8.827 38.521,-23.273c3.21,-6.42 5.617,-13.642 5.617,-20.865c0,-8.025 -2.407,-16.853 -7.222,-24.076l-283.289,-432.556c-8.025,-12.038 -21.668,-20.063 -36.915,-20.063c-15.248,0 -28.891,8.025 -36.916,20.063Z" style="fill-rule:nonzero;"/></svg>