<?xml version="1.0" encoding="UTF-8" standalone="no"?><!DOCTYPE svg PUBLIC "-//W3C//DTD SVG 1.1//EN" "http://www.w3.org/Graphics/SVG/1.1/DTD/svg11.dtd"><svg width="100%" height="100%" viewBox="0 0 2084 2084" version="1.1" xmlns="http://www.w3.org/2000/svg" xmlns:xlink="http://www.w3.org/1999/xlink" xml:space="preserve" xmlns:serif="http://www.serif.com/" style="fill-rule:evenodd;clip-rule:evenodd;stroke-miterlimit:10;"><circle cx="1041.67" cy="1058.71" r="708.708" style="fill:#a9d1ed;"/><path d="M483.833,910.458c-35.5,0 -70.125,13.459 -98.958,40.792c-33,31.208 -50.875,67.958 -51.917,106.375c-1,39.25 15.792,78.167 48.584,112.5c106.458,111.542 223.375,228.667 357.416,358.167c60.334,58.291 145.084,58 210.709,-0.334c3.75,-3.25 7.125,-6.75 10.541,-10.208l681.667,-681.958c60.333,-60.334 78.292,-105.292 63.917,-160.334c-15.167,-58.208 -54.417,-100 -107.667,-114.625c-54.833,-14.708 -112.167,1.959 -157.333,46.667l-594.334,605.417l-246.708,-252.417c-35.167,-33.083 -76.125,-50.042 -115.917,-50.042Z" style="fill:#fff;fill-rule:nonzero;stroke:#000;stroke-width:52.93px;"/></svg>