<?xml version="1.0" encoding="UTF-8" standalone="no"?>
<!DOCTYPE svg PUBLIC "-//W3C//DTD SVG 1.1//EN" "http://www.w3.org/Graphics/SVG/1.1/DTD/svg11.dtd">
<svg width="100%" height="100%" viewBox="0 0 350 100" version="1.1" xmlns="http://www.w3.org/2000/svg" xmlns:xlink="http://www.w3.org/1999/xlink" xml:space="preserve" xmlns:serif="http://www.serif.com/" style="fill-rule:evenodd;clip-rule:evenodd;stroke-linecap:square;stroke-linejoin:round;stroke-miterlimit:1.5;">
    <g transform="matrix(1,0,0,1,-304,0)">
        <g id="weighted" transform="matrix(7,0,0,1.17647,304,0)">
            <rect x="0" y="0" width="50" height="85" style="fill:none;"/>
            <clipPath id="_clip1">
                <rect x="0" y="0" width="50" height="85"/>
            </clipPath>
            <g clip-path="url(#_clip1)">
                <g id="Artboard1" transform="matrix(0.0714286,0,0,0.5746,6.09037e-15,0)">
                    <rect x="0" y="0" width="100" height="125" style="fill:none;"/>
                </g>
                <g transform="matrix(0.142857,0,0,0.85,0.357143,36.7389)">
                    <path d="M87,15C87,13.344 85.656,12 84,12L11,12C9.344,12 8,13.344 8,15C8,16.656 9.344,18 11,18L84,18C85.656,18 87,16.656 87,15Z" style="fill:rgb(98,191,149);stroke:rgb(98,191,149);stroke-width:0.44px;stroke-dasharray:0,0.02,0,0;"/>
                </g>
                <g transform="matrix(0.142857,0,0,0.991667,0.357143,25.6417)">
                    <path d="M87,15C87,13.344 85.432,12 83.5,12L11.5,12C9.568,12 8,13.344 8,15C8,16.656 9.568,18 11.5,18L83.5,18C85.432,18 87,16.656 87,15Z" style="fill:rgb(46,181,178);stroke:rgb(46,181,178);stroke-width:0.41px;stroke-dasharray:0,0.02,0,0;"/>
                </g>
                <g transform="matrix(0.142857,0,0,0.708333,0.357143,46.9861)">
                    <path d="M87,15C87,13.344 85.88,12 84.5,12L10.5,12C9.12,12 8,13.344 8,15C8,16.656 9.12,18 10.5,18L84.5,18C85.88,18 87,16.656 87,15Z" style="fill:rgb(150,201,120);stroke:rgb(150,201,120);stroke-width:0.48px;stroke-dasharray:0,0.02,0,0;"/>
                </g>
                <g transform="matrix(0.142857,0,0,0.425,0.357143,64.9306)">
                    <path d="M87,15C87,13.344 86.328,12 85.5,12L9.5,12C8.672,12 8,13.344 8,15C8,16.656 8.672,18 9.5,18L85.5,18C86.328,18 87,16.656 87,15Z" style="fill:rgb(253,221,62);stroke:rgb(253,221,62);stroke-width:0.56px;stroke-dasharray:0,0.03,0,0;"/>
                </g>
                <g transform="matrix(0.142857,0,0,0.566667,0.357143,56.3833)">
                    <path d="M87,15C87,13.344 86.104,12 85,12L10,12C8.896,12 8,13.344 8,15C8,16.656 8.896,18 10,18L85,18C86.104,18 87,16.656 87,15Z" style="fill:rgb(201,211,91);stroke:rgb(201,211,91);stroke-width:0.52px;stroke-dasharray:0,0.03,0,0;"/>
                </g>
                <g transform="matrix(0.142857,0,0,0.283333,0.357143,72.6278)">
                    <path d="M87,15C87,13.344 86.552,12 86,12L9,12C8.448,12 8,13.344 8,15C8,16.656 8.448,18 9,18L86,18C86.552,18 87,16.656 87,15Z" style="fill:rgb(239,120,53);stroke:rgb(239,120,53);stroke-width:0.59px;stroke-dasharray:0,0.03,0,0;"/>
                </g>
                <g transform="matrix(0.142857,0,0,1.275,0.357143,0.897222)">
                    <path d="M87,15C87,13.344 84.984,12 82.5,12L12.5,12C10.016,12 8,13.344 8,15C8,16.656 10.016,18 12.5,18L82.5,18C84.984,18 87,16.656 87,15Z" style="fill:rgb(123,103,168);stroke:rgb(123,103,168);stroke-width:0.35px;stroke-dasharray:0,0.02,0,0;"/>
                </g>
                <g transform="matrix(0.142857,0,0,1.13333,0.357143,13.6944)">
                    <path d="M87,15C87,13.344 85.208,12 83,12L12,12C9.792,12 8,13.344 8,15C8,16.656 9.792,18 12,18L83,18C85.208,18 87,16.656 87,15Z" style="fill:rgb(54,188,238);stroke:rgb(54,188,238);stroke-width:0.37px;stroke-dasharray:0,0.02,0,0;"/>
                </g>
                <g transform="matrix(0.142857,0,0,1.41667,0.357143,-12.75)">
                    <path d="M87,15C87,13.344 84.76,12 82,12L13,12C10.24,12 8,13.344 8,15C8,16.656 10.24,18 13,18L82,18C84.76,18 87,16.656 87,15Z" style="fill:rgb(20,2,46);stroke:rgb(20,2,46);stroke-width:0.32px;stroke-dasharray:0,0.02,0,0;"/>
                </g>
                <g transform="matrix(0.142857,0,0,0.0708333,0.357143,80.325)">
                    <path d="M87,15C87,13.344 86.888,12 86.75,12L8.25,12C8.112,12 8,13.344 8,15C8,16.656 8.112,18 8.25,18L86.75,18C86.888,18 87,16.656 87,15Z" style="fill:rgb(206,34,86);stroke:rgb(206,34,86);stroke-width:0.62px;stroke-dasharray:0,0.03,0,0;"/>
                </g>
                <g transform="matrix(0.150376,0,0,1.21429,-0.451128,-36.4286)">
                    <rect x="3" y="30" width="95" height="70" style="fill:none;stroke:rgb(20,2,46);stroke-width:0.4px;stroke-dasharray:0,0.02,0,0;"/>
                </g>
                <g transform="matrix(0.142857,0,0,0.85,4.75415,-119.479)">
                    <text x="70.984px" y="182.126px" style="font-family:'ArialMT', 'Arial', sans-serif;font-size:32px;">Links W<tspan x="184.202px 201.999px " y="182.126px 182.126px ">ei</tspan>ghted</text>
                    <text x="70.984px" y="215.173px" style="font-family:'ArialMT', 'Arial', sans-serif;font-size:32px;">By Relevance</text>
                </g>
            </g>
        </g>
    </g>
</svg>
