<?xml version="1.0" encoding="UTF-8" standalone="no"?>
<!DOCTYPE svg PUBLIC "-//W3C//DTD SVG 1.1//EN" "http://www.w3.org/Graphics/SVG/1.1/DTD/svg11.dtd">
<svg width="100%" height="100%" viewBox="0 0 350 100" version="1.1" xmlns="http://www.w3.org/2000/svg" xmlns:xlink="http://www.w3.org/1999/xlink" xml:space="preserve" xmlns:serif="http://www.serif.com/" style="fill-rule:evenodd;clip-rule:evenodd;stroke-linecap:square;stroke-linejoin:round;stroke-miterlimit:1.5;">
    <g transform="matrix(1,0,0,1,0,-159)">
        <g id="binary" transform="matrix(7,0,0,1.17647,0,159)">
            <rect x="0" y="0" width="50" height="85" style="fill:none;"/>
            <clipPath id="_clip1">
                <rect x="0" y="0" width="50" height="85"/>
            </clipPath>
            <g clip-path="url(#_clip1)">
                <g transform="matrix(1,0,0,1,3.57143,0)">
                    <g transform="matrix(0.142857,0,0,0.85,32.5,26.1611)">
                        <path d="M87,15C87,13.344 85.656,12 84,12L11,12C9.344,12 8,13.344 8,15C8,16.656 9.344,18 11,18L84,18C85.656,18 87,16.656 87,15Z" style="fill:rgb(98,191,149);stroke:rgb(98,191,149);stroke-width:0.44px;stroke-dasharray:0,0.02,0,0;"/>
                    </g>
                    <g transform="matrix(0.142857,0,0,0.85,32.5,18.1333)">
                        <path d="M87,15C87,13.344 85.656,12 84,12L11,12C9.344,12 8,13.344 8,15C8,16.656 9.344,18 11,18L84,18C85.656,18 87,16.656 87,15Z" style="fill:rgb(46,181,178);stroke:rgb(46,181,178);stroke-width:0.44px;stroke-dasharray:0,0.02,0,0;"/>
                    </g>
                    <g transform="matrix(0.142857,0,0,0.85,32.5,34.1889)">
                        <path d="M87,15C87,13.344 85.656,12 84,12L11,12C9.344,12 8,13.344 8,15C8,16.656 9.344,18 11,18L84,18C85.656,18 87,16.656 87,15Z" style="fill:rgb(150,201,120);stroke:rgb(150,201,120);stroke-width:0.44px;stroke-dasharray:0,0.02,0,0;"/>
                    </g>
                    <g transform="matrix(0.142857,0,0,0.85,32.5,50.2444)">
                        <path d="M87,15C87,13.344 85.656,12 84,12L11,12C9.344,12 8,13.344 8,15C8,16.656 9.344,18 11,18L84,18C85.656,18 87,16.656 87,15Z" style="fill:rgb(253,221,62);stroke:rgb(253,221,62);stroke-width:0.44px;stroke-dasharray:0,0.02,0,0;"/>
                    </g>
                    <g transform="matrix(0.142857,0,0,0.85,32.5,42.2167)">
                        <path d="M87,15C87,13.344 85.656,12 84,12L11,12C9.344,12 8,13.344 8,15C8,16.656 9.344,18 11,18L84,18C85.656,18 87,16.656 87,15Z" style="fill:rgb(201,211,91);stroke:rgb(201,211,91);stroke-width:0.44px;stroke-dasharray:0,0.02,0,0;"/>
                    </g>
                    <g transform="matrix(0.142857,0,0,0.85,32.5,58.2722)">
                        <path d="M87,15C87,13.344 85.656,12 84,12L11,12C9.344,12 8,13.344 8,15C8,16.656 9.344,18 11,18L84,18C85.656,18 87,16.656 87,15Z" style="fill:rgb(239,120,53);stroke:rgb(239,120,53);stroke-width:0.44px;stroke-dasharray:0,0.02,0,0;"/>
                    </g>
                    <g transform="matrix(0.142857,0,0,0.85,32.5,2.07778)">
                        <path d="M87,15C87,13.344 85.656,12 84,12L11,12C9.344,12 8,13.344 8,15C8,16.656 9.344,18 11,18L84,18C85.656,18 87,16.656 87,15Z" style="fill:rgb(123,103,168);stroke:rgb(123,103,168);stroke-width:0.44px;stroke-dasharray:0,0.02,0,0;"/>
                    </g>
                    <g transform="matrix(0.142857,0,0,0.85,32.5,10.1056)">
                        <path d="M87,15C87,13.344 85.656,12 84,12L11,12C9.344,12 8,13.344 8,15C8,16.656 9.344,18 11,18L84,18C85.656,18 87,16.656 87,15Z" style="fill:rgb(54,188,238);stroke:rgb(54,188,238);stroke-width:0.44px;stroke-dasharray:0,0.02,0,0;"/>
                    </g>
                    <g transform="matrix(0.142857,0,0,0.85,32.5,-5.95)">
                        <path d="M87,15C87,13.344 85.656,12 84,12L11,12C9.344,12 8,13.344 8,15C8,16.656 9.344,18 11,18L84,18C85.656,18 87,16.656 87,15Z" style="fill:rgb(20,2,46);stroke:rgb(20,2,46);stroke-width:0.44px;stroke-dasharray:0,0.02,0,0;"/>
                    </g>
                    <g transform="matrix(0.142857,0,0,0.85,32.5,66.3)">
                        <path d="M87,15C87,13.344 85.656,12 84,12L11,12C9.344,12 8,13.344 8,15C8,16.656 9.344,18 11,18L84,18C85.656,18 87,16.656 87,15Z" style="fill:rgb(206,34,86);stroke:rgb(206,34,86);stroke-width:0.44px;stroke-dasharray:0,0.02,0,0;"/>
                    </g>
                    <g transform="matrix(0.150376,0,0,1.21429,31.6917,-36.4286)">
                        <rect x="3" y="30" width="95" height="70" style="fill:none;stroke:rgb(20,2,46);stroke-width:0.4px;stroke-dasharray:0,0.02,0,0;"/>
                    </g>
                </g>
                <g transform="matrix(0.142857,0,0,0.85,7.4413,-116.952)">
                    <text x="-3.444px" y="182.126px" style="font-family:'OpenSans-Regular', 'Open Sans', sans-serif;font-size:32px;">Links Equally</text>
                    <text x="46.728px" y="214.126px" style="font-family:'OpenSans-Regular', 'Open Sans', sans-serif;font-size:32px;">Weighted</text>
                </g>
            </g>
        </g>
    </g>
</svg>
