<?xml version="1.0" encoding="UTF-8" standalone="no"?><!DOCTYPE svg PUBLIC "-//W3C//DTD SVG 1.1//EN" "http://www.w3.org/Graphics/SVG/1.1/DTD/svg11.dtd"><svg width="100%" height="100%" viewBox="0 0 2084 2084" version="1.1" xmlns="http://www.w3.org/2000/svg" xmlns:xlink="http://www.w3.org/1999/xlink" xml:space="preserve" xmlns:serif="http://www.serif.com/" style="fill-rule:evenodd;clip-rule:evenodd;stroke-miterlimit:10;"><circle cx="1041.67" cy="1058.71" r="708.708" style="fill:#e84f14;"/><path d="M1041.71,1308.21l290.584,290.5c68.666,68.834 180.666,68.834 249.333,0c68.75,-68.75 68.75,-180.625 0,-249.333l-290.5,-290.583l290.5,-290.584c68.75,-68.75 68.75,-180.666 0,-249.5c-68.667,-68.666 -180.667,-68.75 -249.333,0.084l-290.584,290.666l-290.666,-290.666c-68.667,-68.834 -180.667,-68.834 -249.334,-0c-68.75,68.75 -68.75,180.666 0,249.5l290.5,290.5l-290.5,290.583c-68.75,68.75 -68.75,180.625 0,249.333c68.667,68.834 180.667,68.834 249.334,0l290.666,-290.5Z" style="fill:#fff;fill-rule:nonzero;stroke:#000;stroke-width:52.93px;"/></svg>