<?xml version="1.0" encoding="UTF-8" standalone="no"?><!DOCTYPE svg PUBLIC "-//W3C//DTD SVG 1.1//EN" "http://www.w3.org/Graphics/SVG/1.1/DTD/svg11.dtd"><svg width="100%" height="100%" viewBox="0 0 2088 2084" version="1.1" xmlns="http://www.w3.org/2000/svg" xmlns:xlink="http://www.w3.org/1999/xlink" xml:space="preserve" xmlns:serif="http://www.serif.com/" style="fill-rule:evenodd;clip-rule:evenodd;stroke-linejoin:round;stroke-miterlimit:2;"><rect id="show" x="2.083" y="0" width="2083.33" height="2083.33" style="fill:none;"/><g><circle cx="1043.75" cy="1058.75" r="708.75" style="fill:#be1f24;"/><circle cx="1043.75" cy="1058.75" r="412.917" style="fill:#fff;"/><path d="M1043.75,1498.33c-242.5,0 -439.583,-197.083 -439.583,-439.583c-0,-242.5 197.083,-439.583 439.583,-439.583c242.5,-0 439.583,197.083 439.583,439.583c0,242.5 -197.083,439.583 -439.583,439.583Zm0,-826.25c-212.917,0 -386.667,173.334 -386.667,386.667c0,213.333 173.334,386.667 386.667,386.667c213.333,-0 386.667,-173.334 386.667,-386.667c-0,-213.333 -173.75,-386.667 -386.667,-386.667Z" style="fill-rule:nonzero;"/><path d="M1006.8,1382.44l-283.288,-432.556c-8.828,-13.643 -9.63,-30.496 -1.605,-44.941c8.025,-14.446 22.47,-23.273 38.521,-23.273l566.576,-0c16.051,-0 30.496,8.827 38.521,23.273c3.21,6.42 5.618,13.642 5.618,20.865c-0,8.025 -2.408,16.853 -7.223,24.076l-283.288,432.556c-8.025,12.038 -21.668,20.063 -36.916,20.063c-15.248,0 -28.891,-8.025 -36.916,-20.063Z" style="fill-rule:nonzero;"/></g></svg>